<?xml version="1.0" encoding="utf-8"?>
<!-- Generator: Adobe Illustrator 17.0.0, SVG Export Plug-In . SVG Version: 6.00 Build 0)  -->
<!DOCTYPE svg PUBLIC "-//W3C//DTD SVG 1.1//EN" "http://www.w3.org/Graphics/SVG/1.1/DTD/svg11.dtd" [
	<!ENTITY ns_extend "http://ns.adobe.com/Extensibility/1.0/">
	<!ENTITY ns_ai "http://ns.adobe.com/AdobeIllustrator/10.0/">
	<!ENTITY ns_graphs "http://ns.adobe.com/Graphs/1.0/">
	<!ENTITY ns_vars "http://ns.adobe.com/Variables/1.0/">
	<!ENTITY ns_imrep "http://ns.adobe.com/ImageReplacement/1.0/">
	<!ENTITY ns_sfw "http://ns.adobe.com/SaveForWeb/1.0/">
	<!ENTITY ns_custom "http://ns.adobe.com/GenericCustomNamespace/1.0/">
	<!ENTITY ns_adobe_xpath "http://ns.adobe.com/XPath/1.0/">
]>
<svg version="1.1" id="Layer_1" xmlns:x="&ns_extend;" xmlns:i="&ns_ai;" xmlns:graph="&ns_graphs;"
	 xmlns="http://www.w3.org/2000/svg" xmlns:xlink="http://www.w3.org/1999/xlink" x="0px" y="0px" width="1048.828px"
	 height="1000px" viewBox="0 0 1048.828 1000" enable-background="new 0 0 1048.828 1000" xml:space="preserve">
<metadata>
	<sfw  xmlns="&ns_sfw;">
		<slices></slices>
		<sliceSourceBounds  width="1048.712" height="581.696" bottomLeftOrigin="true" y="6.852" x="-103.914"></sliceSourceBounds>
	</sfw>
</metadata>
<path d="M0,686.216c0,13.013,4.717,22.855,14.152,29.524s19.52,9.028,30.256,7.076c10.085-1.952,17.161-5.531,21.228-10.736
	s6.1-13.827,6.1-25.864v-141.52c0-10.085-3.497-18.625-10.492-25.62s-15.535-10.492-25.62-10.492
	c-9.76,0-18.137,3.497-25.132,10.492S0,534.611,0,544.696L0,686.216L0,686.216z M112.24,746.728c0,9.435,3.335,16.511,10.004,21.228
	c6.669,4.717,15.209,7.076,25.62,7.076c10.736,0,19.439-2.359,26.108-7.076c6.669-4.717,10.004-11.793,10.004-21.228V416.84
	c0-9.76-3.497-18.137-10.492-25.132c-6.995-6.995-15.535-10.492-25.62-10.492c-9.76,0-18.137,3.497-25.132,10.492
	c-6.995,6.995-10.492,15.372-10.492,25.132V746.728z M223.992,762.344c0,9.435,3.416,16.511,10.248,21.228
	c6.832,4.717,15.616,7.076,26.352,7.076c10.411,0,18.951-2.359,25.62-7.076c6.669-4.717,10.004-11.793,10.004-21.228V461.248
	c0-10.085-3.497-18.707-10.492-25.864s-15.372-10.736-25.132-10.736c-10.085,0-18.707,3.579-25.864,10.736
	c-7.157,7.157-10.736,15.779-10.736,25.864V762.344z M336.232,763.808c0,17.893,12.037,26.84,36.112,26.84
	c24.075,0,36.112-8.947,36.112-26.84v-488c0-27.328-8.296-42.781-24.888-46.36c-10.736-2.603-21.309,0.488-31.72,9.272
	c-10.411,8.784-15.616,21.147-15.616,37.088V763.808z M450.424,777.96V247.016c0-16.917,5.043-27.003,15.128-30.256
	c21.797-5.205,43.432-7.808,64.904-7.808c49.776,0,96.136,11.712,139.08,35.136c42.944,23.424,77.673,55.388,104.188,95.892
	c26.515,40.504,41.887,85.156,46.116,133.956c19.845-8.459,40.992-12.688,63.44-12.688c45.547,0,84.505,16.104,116.876,48.312
	c32.371,32.208,48.556,70.923,48.556,116.144c0,45.547-16.185,84.424-48.556,116.632c-32.371,32.208-71.167,48.312-116.388,48.312
	l-424.56-0.488c-2.928-0.976-5.124-2.765-6.588-5.368S450.424,779.912,450.424,777.96L450.424,777.96z"/>
</svg>
