<?xml version="1.0" encoding="utf-8"?>
<!-- Generator: Adobe Illustrator 17.0.0, SVG Export Plug-In . SVG Version: 6.00 Build 0)  -->
<!DOCTYPE svg PUBLIC "-//W3C//DTD SVG 1.1//EN" "http://www.w3.org/Graphics/SVG/1.1/DTD/svg11.dtd" [
	<!ENTITY ns_extend "http://ns.adobe.com/Extensibility/1.0/">
	<!ENTITY ns_ai "http://ns.adobe.com/AdobeIllustrator/10.0/">
	<!ENTITY ns_graphs "http://ns.adobe.com/Graphs/1.0/">
	<!ENTITY ns_vars "http://ns.adobe.com/Variables/1.0/">
	<!ENTITY ns_imrep "http://ns.adobe.com/ImageReplacement/1.0/">
	<!ENTITY ns_sfw "http://ns.adobe.com/SaveForWeb/1.0/">
	<!ENTITY ns_custom "http://ns.adobe.com/GenericCustomNamespace/1.0/">
	<!ENTITY ns_adobe_xpath "http://ns.adobe.com/XPath/1.0/">
]>
<svg version="1.1" id="Layer_1" xmlns:x="&ns_extend;" xmlns:i="&ns_ai;" xmlns:graph="&ns_graphs;"
	 xmlns="http://www.w3.org/2000/svg" xmlns:xlink="http://www.w3.org/1999/xlink" x="0px" y="0px" width="24px" height="24px"
	 viewBox="0 0 24 24" enable-background="new 0 0 24 24" xml:space="preserve">
<metadata>
	<sfw  xmlns="&ns_sfw;">
		<slices></slices>
		<sliceSourceBounds  width="24" height="24" bottomLeftOrigin="true" y="285.5" x="408.5"></sliceSourceBounds>
	</sfw>
</metadata>
<path fill="#000203" d="M12,2c5.514,0,10,4.486,10,10s-4.486,10-10,10S2,17.514,2,12S6.486,2,12,2z M12,0C5.373,0,0,5.373,0,12
	s5.373,12,12,12s12-5.373,12-12S18.627,0,12,0z M9.291,15H8.75v-4.4c0.167-0.126,0.347-0.234,0.541-0.309V15z M10.916,15h0.543
	V9.969c-0.125,0.145-0.24,0.299-0.337,0.468l-0.206-0.101V15z M9.834,15h0.541v-4.826c-0.274-0.043-0.337-0.027-0.541-0.005V15z
	 M7.666,15h0.543v-3.829c-0.17,0.25-0.302,0.529-0.375,0.836l-0.168-0.099V15z M6.041,12.137C5.712,12.435,5.5,12.875,5.5,13.373
	c0,0.499,0.212,0.938,0.541,1.238V12.137z M16.268,11.771C16.158,10.223,14.966,9,13.496,9C12.942,9,12.432,9.179,12,9.479V15h4.924
	c0.87,0,1.576-0.76,1.576-1.695C18.5,12.087,17.326,11.249,16.268,11.771z M7.125,11.755c-0.163-0.014-0.285-0.017-0.541,0.066
	v3.103C6.825,15.002,6.929,15,7.125,15V11.755z"/>
</svg>
