<?xml version="1.0" standalone="no"?>
<!DOCTYPE svg PUBLIC "-//W3C//DTD SVG 1.1//EN" "http://www.w3.org/Graphics/SVG/1.1/DTD/svg11.dtd" >
<svg xmlns="http://www.w3.org/2000/svg" xmlns:xlink="http://www.w3.org/1999/xlink" version="1.1">
<metadata>
Created by FontForge 20161003 at Thu Jan 26 14:16:01 2017
 By www-data
Copyright (c) 2016 by Rene' Bieder. All rights reserved.
</metadata>
<defs>
<font id="ReneBiederRationalTWTextLight" horiz-adv-x="660" >
  <font-face 
    font-family="ReneBiederRationalTWTextLight"
    font-weight="350"
    font-stretch="normal"
    units-per-em="1000"
    panose-1="0 0 4 0 0 0 0 0 0 0"
    ascent="800"
    descent="-200"
    x-height="500"
    cap-height="700"
    bbox="-617 -250 1228 947"
    underline-thickness="50"
    underline-position="-150"
    unicode-range="U+0020-FB01"
  />
<missing-glyph 
d="M80 700h500v-700h-500v700zM536 44v612h-412v-612h412zM327 515q-36 0 -58 -21.5t-23 -57.5h-47q1 54 36.5 86.5t91.5 32.5q55 0 88 -29t33 -79q0 -73 -98 -113l-3 -1l-2 -63h-40l-1 86l34 17q34 15 49 30.5t15 43.5q0 30 -21 49t-54 19zM292 155v66h65v-66h-65z" />
    <glyph glyph-name=".notdef" 
d="M80 700h500v-700h-500v700zM536 44v612h-412v-612h412zM327 515q-36 0 -58 -21.5t-23 -57.5h-47q1 54 36.5 86.5t91.5 32.5q55 0 88 -29t33 -79q0 -73 -98 -113l-3 -1l-2 -63h-40l-1 86l34 17q34 15 49 30.5t15 43.5q0 30 -21 49t-54 19zM292 155v66h65v-66h-65z" />
    <glyph glyph-name=".null" horiz-adv-x="0" 
 />
    <glyph glyph-name="nonmarkingreturn" horiz-adv-x="333" 
 />
    <glyph glyph-name="space" unicode=" " 
 />
    <glyph glyph-name="exclam" unicode="!" 
d="M301 219l-5 481h67l-3 -481h-59zM279 -3v117h102v-117h-102z" />
    <glyph glyph-name="quotedbl" unicode="&#x22;" 
d="M204 433l-22 267h96l-23 -267h-51zM404 433l-22 267h96l-23 -267h-51z" />
    <glyph glyph-name="numbersign" unicode="#" 
d="M612 450h-129l-41 -194h119v-57h-131l-43 -199h-61l43 199h-154l-43 -199h-61l43 199h-112v57h124l41 194h-115v58h128l41 192h61l-41 -192h154l41 192h61l-41 -192h116v-58zM381 256l41 194h-154l-41 -194h154z" />
    <glyph glyph-name="dollar" unicode="$" 
d="M563 208q0 -73 -56.5 -116t-151.5 -45v-134h-51v136q-201 19 -221 227h63q6 -82 45 -123t113 -49v229q-48 10 -75.5 19t-59 26.5t-46 47t-14.5 71.5q0 72 53.5 116.5t141.5 49.5v137h51v-137q188 -14 202 -199h-63q-7 69 -40.5 103.5t-98.5 40.5v-230q43 -10 64 -15.5
t54 -19.5t49 -30t28.5 -43t12.5 -62zM172 494q0 -43 27 -64t105 -41v219q-60 -5 -96 -35t-36 -79zM355 102q68 2 107 30.5t39 77.5q0 48 -31 70t-115 42v-220z" />
    <glyph glyph-name="percent" unicode="%" 
d="M191 399q-67 0 -112.5 43.5t-45.5 111.5t45.5 111.5t112.5 43.5t112.5 -43.5t45.5 -111.5t-45.5 -111.5t-112.5 -43.5zM191 448q43 0 73 29.5t30 76.5t-30 76.5t-73 29.5t-73 -29.5t-30 -76.5t30 -76.5t73 -29.5zM81 140l-28 42l535 385l28 -39zM468 -9
q-66 0 -111.5 43.5t-45.5 111.5t45.5 112t111.5 44q67 0 113 -44t46 -112t-46 -111.5t-113 -43.5zM468 39q43 0 73.5 30t30.5 77t-30.5 77t-73.5 30t-72.5 -29.5t-29.5 -77.5t29.5 -77.5t72.5 -29.5z" />
    <glyph glyph-name="ampersand" unicode="&#x26;" 
d="M523 141l137 -141h-84l-87 90q-81 -100 -212 -100q-102 0 -163 53.5t-61 140.5q0 50 26 89.5t56 59.5t77 43q-47 49 -70.5 89.5t-23.5 86.5q0 69 49 113.5t125 44.5q75 0 123.5 -45t48.5 -116q0 -56 -36.5 -100.5t-120.5 -86.5l171 -176q30 69 30 162h62q0 -118 -47 -207
zM293 655q-49 0 -81 -28.5t-32 -73.5q0 -39 22.5 -74t63.5 -77q68 33 102 67.5t34 81.5t-30.5 75.5t-78.5 28.5zM281 45q105 0 168 87l-197 204q-27 -13 -46.5 -24.5t-42.5 -30t-35 -43.5t-12 -54q0 -62 45 -100.5t120 -38.5z" />
    <glyph glyph-name="quotesingle" unicode="'" 
d="M282 700h97l-23 -267h-51z" />
    <glyph glyph-name="parenleft" unicode="(" 
d="M482 780q-243 -183 -243 -430q0 -280 243 -465h-85q-219 186 -219 465q0 244 219 430h85z" />
    <glyph glyph-name="parenright" unicode=")" 
d="M178 780h85q219 -186 219 -430q0 -279 -219 -465h-85q243 185 243 465q0 247 -243 430z" />
    <glyph glyph-name="asterisk" unicode="*" 
d="M495 592l-121 -28l84 -109l-47 -33l-81 122l-81 -122l-47 33l84 110l-120 27l14 55l127 -40l-5 136h56l-5 -136l128 40z" />
    <glyph glyph-name="plus" unicode="+" 
d="M578 371v-50h-222v-217h-53v217h-222v50h222v216h53v-216h222z" />
    <glyph glyph-name="comma" unicode="," 
d="M271 -142l23 245h104l-78 -245h-49z" />
    <glyph glyph-name="hyphen" unicode="-" 
d="M185 305h290v-57h-290v57z" />
    <glyph glyph-name="period" unicode="." 
d="M279 -3v117h103v-117h-103z" />
    <glyph glyph-name="slash" unicode="/" 
d="M150 0l306 700h65l-306 -700h-65z" />
    <glyph glyph-name="zero" unicode="0" 
d="M330 605q117 0 191 -86.5t74 -222.5q0 -134 -74 -219.5t-191 -85.5t-190.5 85.5t-73.5 219.5q0 136 73.5 222.5t190.5 86.5zM330 547q-90 0 -142.5 -69.5t-52.5 -181.5q0 -64 18 -113l327 284q-54 80 -150 80zM330 48q90 0 142.5 68.5t52.5 179.5q0 75 -24 132l-330 -286
q53 -94 159 -94z" />
    <glyph glyph-name="one" unicode="1" 
d="M386 57h215v-57h-513v57h232v466l-210 -89v72l245 85h31v-534z" />
    <glyph glyph-name="two" unicode="2" 
d="M208 57h357v-57h-459v51l206 140q46 32 69 50t52.5 46.5t41.5 58t12 63.5q0 62 -41.5 100t-116.5 38q-73 0 -116.5 -39.5t-47.5 -122.5h-69q5 106 68.5 163t165.5 57t164 -55t62 -141q0 -23 -3.5 -43t-15.5 -40.5t-19 -33.5t-30 -34t-31 -29t-40 -30.5t-38 -27t-44 -29.5
z" />
    <glyph glyph-name="three" unicode="3" 
d="M317 282q128 0 193.5 -52.5t65.5 -140.5q0 -91 -67.5 -149.5t-170.5 -58.5q-108 0 -179 62.5t-77 159.5h69q6 -72 57 -119t130 -47q72 0 121.5 43t49.5 107t-47.5 103t-136.5 39h-70l-19 46l251 258h-391v57h468v-57z" />
    <glyph glyph-name="four" unicode="4" 
d="M591 96v-57h-117v-159h-66v159h-345l-9 35q170 266 225 506h68q-47 -225 -214 -484h275v68l1 216h65v-284h117z" />
    <glyph glyph-name="five" unicode="5" 
d="M356 343q104 0 169 -63t65 -166q0 -105 -68 -169t-178 -64q-104 0 -174.5 58.5t-81.5 158.5h69q8 -73 59.5 -117t126.5 -44q80 0 130.5 49t50.5 128t-50.5 126.5t-130.5 47.5q-56 0 -103 -25.5t-72 -64.5l-55 20l20 372h423v-57h-367l-14 -267q26 34 74 55.5t107 21.5z
" />
    <glyph glyph-name="six" unicode="6" 
d="M351 453q104 0 171.5 -66t67.5 -166q0 -101 -69 -164.5t-178 -63.5q-128 0 -198 90t-70 255q0 178 75.5 274t199.5 96q83 0 147 -43t86 -137h-70q-13 66 -58 94.5t-103 28.5q-101 0 -161 -88t-56 -261q22 71 79.5 111t136.5 40zM346 48q78 0 127 48.5t49 125.5t-49 126.5
t-130 49.5q-79 0 -131.5 -47.5t-52.5 -122.5q0 -76 53 -128t134 -52z" />
    <glyph glyph-name="seven" unicode="7" 
d="M94 590h497v-55q-255 -257 -263 -645h-72v9q8 378 267 634h-429v57z" />
    <glyph glyph-name="eight" unicode="8" 
d="M422 379q78 -18 118 -69t40 -118q0 -86 -72 -143.5t-178 -57.5t-178 57.5t-72 143.5q0 67 40.5 118t117.5 69q-64 17 -98 58t-34 93q0 78 64.5 129t159.5 51t159.5 -51t64.5 -129q0 -53 -33.5 -93.5t-98.5 -57.5zM173 530q0 -55 41 -92t116 -37t116 37t41 92q0 54 -45 90
t-112 36t-112 -36t-45 -90zM330 45q78 0 130.5 43.5t52.5 106.5q0 67 -49 111t-134 44t-134 -44t-49 -111q0 -63 53 -106.5t130 -43.5z" />
    <glyph glyph-name="nine" unicode="9" 
d="M520 509q70 -90 70 -255q0 -178 -75.5 -274t-199.5 -96q-83 0 -147 43t-86 137h70q13 -66 58 -94.5t103 -28.5q101 0 161 88t56 261q-22 -71 -79.5 -111t-136.5 -40q-104 0 -171.5 66t-67.5 166q0 101 69 164.5t178 63.5q128 0 198 -90zM322 194q79 0 131.5 47.5
t52.5 122.5q0 76 -53 128t-134 52q-78 0 -127 -48.5t-49 -125.5t49 -126.5t130 -49.5z" />
    <glyph glyph-name="colon" unicode=":" 
d="M279 383v117h103v-117h-103zM279 -3v117h103v-117h-103z" />
    <glyph glyph-name="semicolon" unicode=";" 
d="M279 383v117h103v-117h-103zM255 -142l24 245h103l-78 -245h-49z" />
    <glyph glyph-name="less" unicode="&#x3c;" 
d="M552 580v-65l-420 -174l420 -167v-65l-470 203v58z" />
    <glyph glyph-name="equal" unicode="=" 
d="M81 468h497v-50h-497v50zM81 265h497v-49h-497v49z" />
    <glyph glyph-name="greater" unicode="&#x3e;" 
d="M108 580l470 -210v-58l-470 -203v65l420 167l-420 174v65z" />
    <glyph glyph-name="question" unicode="?" 
d="M336 710q96 0 156 -53t60 -137q0 -39 -13 -70.5t-40.5 -55.5t-53.5 -40.5t-67 -35.5l-13 -7l-4 -107h-58l-3 136l58 30q61 27 93 62.5t32 89.5q0 59 -39 95t-106 36q-72 0 -113.5 -37t-43.5 -103h-70q3 93 65 145t160 52zM280 -3v117h102v-117h-102z" />
    <glyph glyph-name="at" unicode="@" 
d="M408 439h62v-225q0 -71 43 -71q34 0 54.5 44.5t20.5 116.5q0 129 -67.5 208t-178.5 79q-125 0 -198 -84.5t-73 -228.5q0 -146 72.5 -231.5t197.5 -85.5q129 0 221 107v-62q-94 -88 -220 -88q-147 0 -232 96.5t-85 261.5t85 261t230 96q131 0 212.5 -88.5t81.5 -231.5
q0 -103 -38 -160.5t-98 -57.5q-38 0 -60 21.5t-27 59.5h-2q-26 -82 -107 -82q-60 0 -95.5 49.5t-35.5 127.5t37 126.5t100 48.5q72 0 98 -67h2v60zM408 273v5q0 54 -24 86t-64 32t-63.5 -32t-23.5 -93q0 -59 23.5 -91t62.5 -32q41 0 65 33t24 92z" />
    <glyph glyph-name="A" unicode="A" 
d="M543 0l-60 177h-306l-60 -177h-67l243 700h74l243 -700h-67zM196 232h268l-134 397z" />
    <glyph glyph-name="B" unicode="B" 
d="M418 360q161 -32 161 -167q0 -91 -65.5 -142t-183.5 -51h-230v700h230q105 0 165 -48t60 -130q0 -117 -137 -162zM166 644v-259h161q76 0 118.5 36t42.5 95q0 62 -42 95t-116 33h-164zM330 56q86 0 134 36.5t48 100.5q0 62 -48.5 99.5t-136.5 37.5h-161v-274h164z" />
    <glyph glyph-name="C" unicode="C" 
d="M600 219q-39 -229 -251 -229q-134 0 -204 92.5t-70 267.5t70 265.5t204 90.5q218 0 252 -231h-70q-26 173 -181 173q-101 0 -153.5 -75.5t-52.5 -222.5t52.5 -225t152.5 -78q76 0 121.5 44.5t59.5 127.5h70z" />
    <glyph glyph-name="D" unicode="D" 
d="M271 700q156 0 242.5 -96.5t86.5 -253.5t-86.5 -253.5t-242.5 -96.5h-173v700h173zM279 57q122 0 187 80.5t65 212.5t-65 212.5t-187 80.5h-114v-586h114z" />
    <glyph glyph-name="E" unicode="E" 
d="M556 644h-358v-259h333v-56h-333v-273h358v-56h-424v700h424v-56z" />
    <glyph glyph-name="F" unicode="F" 
d="M556 644h-350v-259h330v-55h-330v-330h-66v700h416v-56z" />
    <glyph glyph-name="G" unicode="G" 
d="M347 290v55h243v-345h-64v117q-52 -126 -192 -126q-123 0 -192 93t-69 268q0 173 69.5 263.5t201.5 90.5q106 0 169.5 -58.5t79.5 -172.5h-70q-24 173 -179 173q-98 0 -150 -75.5t-52 -222.5t52.5 -224.5t149.5 -77.5q87 0 134.5 62t47.5 180h-179z" />
    <glyph glyph-name="H" unicode="H" 
d="M503 700h67v-700h-67v328h-346v-328h-66v700h66v-315h346v315z" />
    <glyph glyph-name="I" unicode="I" 
d="M560 643h-196v-586h196v-57h-460v57h198v586h-198v57h460v-57z" />
    <glyph glyph-name="J" unicode="J" 
d="M538 700v-492q0 -96 -64 -156.5t-171 -60.5q-112 0 -207 58v75q114 -76 212 -76q74 0 119 45.5t45 114.5v435h-336v57h402z" />
    <glyph glyph-name="K" unicode="K" 
d="M550 0l-193 327h-179v-327h-66v700h66v-315h176l175 315h70l-189 -342l215 -358h-75z" />
    <glyph glyph-name="L" unicode="L" 
d="M232 57h361v-57h-427v700h66v-643z" />
    <glyph glyph-name="M" unicode="M" 
d="M513 700h59v-700h-65v579l-166 -296h-21l-167 297v-580h-65v700h59l183 -321z" />
    <glyph glyph-name="N" unicode="N" 
d="M494 700h65v-700h-63l-330 583v-583h-65v700h63l330 -579v579z" />
    <glyph glyph-name="O" unicode="O" 
d="M330 710q133 0 201.5 -95t68.5 -266q0 -169 -68.5 -263.5t-201.5 -94.5t-201.5 94.5t-68.5 263.5q0 171 68.5 266t201.5 95zM330 654q-100 0 -150.5 -80t-50.5 -225q0 -143 50.5 -222.5t150.5 -79.5t151 80t51 222q0 145 -51 225t-151 80z" />
    <glyph glyph-name="P" unicode="P" 
d="M374 700q101 0 162.5 -56t61.5 -139q0 -89 -61 -142.5t-163 -53.5h-192v-309h-66v700h258zM378 365q71 0 113 40t42 100q0 59 -42 99t-113 40h-196v-279h196z" />
    <glyph glyph-name="Q" unicode="Q" 
d="M651 20l-37 -45l-102 88q-67 -72 -182 -72q-133 0 -201.5 94.5t-68.5 263.5q0 171 68.5 266t201.5 95t201.5 -95t68.5 -266q0 -148 -53 -240zM330 47q83 0 134 57l-116 100l37 44l111 -95q36 75 36 196q0 145 -51 225t-151 80t-150.5 -80t-50.5 -225q0 -143 50.5 -222.5
t150.5 -79.5z" />
    <glyph glyph-name="R" unicode="R" 
d="M588 0h-78l-169 328h-160v-328h-66v700h253q93 0 152.5 -51t59.5 -130q0 -74 -47.5 -125.5t-125.5 -62.5zM181 644v-261h191q63 0 103 38.5t40 97.5q0 54 -40 89.5t-103 35.5h-191z" />
    <glyph glyph-name="S" unicode="S" 
d="M141 244q6 -99 62 -148t143 -49q76 0 121 36t45 102q0 55 -38.5 85t-138.5 56l-61.5 16.5t-53.5 17.5t-49.5 25t-34.5 32t-25.5 45.5t-7.5 59.5q0 92 58.5 140t160.5 48q108 0 172.5 -55t70.5 -172h-66q-13 171 -173 171q-71 0 -113.5 -32.5t-42.5 -97.5q0 -33 10.5 -55
t38.5 -38t53 -24t78 -22q42 -11 65 -18t59 -23.5t55.5 -35.5t34.5 -51t15 -73q0 -90 -64 -141.5t-171 -51.5q-119 0 -191 65t-78 188h66z" />
    <glyph glyph-name="T" unicode="T" 
d="M612 700v-57h-249v-643h-66v643h-249v57h564z" />
    <glyph glyph-name="U" unicode="U" 
d="M519 700h66v-459q0 -116 -69.5 -183.5t-185.5 -67.5t-185.5 67.5t-69.5 183.5v459h66v-459q0 -88 52 -141t137 -53t137 53t52 141v459z" />
    <glyph glyph-name="V" unicode="V" 
d="M539 700h71l-243 -700h-74l-243 700h71l209 -617z" />
    <glyph glyph-name="W" unicode="W" 
d="M547 700h66l-99 -700h-66l-119 494l-117 -494h-66l-99 700h66l78 -576l106 446h66l106 -446z" />
    <glyph glyph-name="X" unicode="X" 
d="M602 0h-80l-192 304l-192 -304h-80l236 351l-231 349h80l187 -302l187 302h80l-231 -349z" />
    <glyph glyph-name="Y" unicode="Y" 
d="M607 700l-243 -427v-273h-67v271l-243 429h76l200 -374l201 374h76z" />
    <glyph glyph-name="Z" unicode="Z" 
d="M158 57h424v-57h-504v54l424 589h-424v57h501v-53z" />
    <glyph glyph-name="bracketleft" unicode="[" 
d="M502 723h-173v-781h173v-57h-239v895h239v-57z" />
    <glyph glyph-name="backslash" unicode="\" 
d="M513 0h-65l-306 700h65z" />
    <glyph glyph-name="bracketright" unicode="]" 
d="M397 780v-895h-239v57h173v781h-173v57h239z" />
    <glyph glyph-name="asciicircum" unicode="^" 
d="M302 722h57l166 -284h-63l-132 229l-131 -229h-63z" />
    <glyph glyph-name="underscore" unicode="_" 
d="M70 -98h520v-48h-520v48z" />
    <glyph glyph-name="grave" unicode="`" 
d="M365 577h-55l-129 146h97z" />
    <glyph glyph-name="a" unicode="a" 
d="M565 48q22 0 43 9v-58q-17 -6 -44 -6q-58 0 -88 29t-31 70h-2q-19 -44 -65 -72.5t-113 -28.5q-77 0 -122.5 38t-45.5 102q0 67 53 111.5t160 44.5h135v43q0 58 -34 90.5t-97 32.5q-57 0 -93.5 -28.5t-41.5 -79.5h-63q5 77 58.5 120.5t139.5 43.5q91 0 141.5 -47.5
t50.5 -131.5v-226q0 -25 17.5 -40.5t41.5 -15.5zM275 46q75 0 122 43t48 105v41h-135q-78 0 -114 -27.5t-36 -70.5q0 -42 30.5 -66.5t84.5 -24.5z" />
    <glyph glyph-name="b" unicode="b" 
d="M352 -9q-136 0 -196 120h-2v-111h-61v700h61v-303h2q54 112 194 112q106 0 176.5 -73t70.5 -185t-70.5 -186t-174.5 -74zM340 454q-81 0 -132 -54t-52 -144v-12q0 -88 51 -143t133 -55t138 58t56 147q0 88 -56 145.5t-138 57.5z" />
    <glyph glyph-name="c" unicode="c" 
d="M578 176q-15 -84 -77 -134.5t-153 -50.5q-112 0 -183.5 74t-71.5 185q0 112 71 185.5t183 73.5q88 0 149.5 -48t79.5 -129h-63q-15 56 -58.5 89t-106.5 33q-86 0 -139 -58t-53 -146t53 -146t138 -58q66 0 110 35t58 95h63z" />
    <glyph glyph-name="d" unicode="d" 
d="M308 -9q-104 0 -174.5 74t-70.5 186t70.5 185t176.5 73q140 0 194 -112h2v303h61v-700h-61v111h-2q-60 -120 -196 -120zM320 454q-82 0 -138 -57.5t-56 -145.5q0 -89 56 -147t138 -58t133 55t51 143v12q-1 90 -52 144t-132 54z" />
    <glyph glyph-name="e" unicode="e" 
d="M336 -9q-113 0 -177 71.5t-64 187.5q0 114 66 186.5t176 72.5q108 0 168.5 -71t60.5 -186v-14h-410v-2q5 -86 51.5 -138t128.5 -52q119 0 163 113h63q-21 -79 -80 -123.5t-146 -44.5zM161 293h340q-12 76 -53 118.5t-111 42.5q-72 0 -117.5 -43.5t-58.5 -117.5z" />
    <glyph glyph-name="f" unicode="f" 
d="M594 445h-299v-390h244v-55h-456v55h151v390h-177v55h177v9q0 199 222 199q56 0 112 -11v-58q-61 14 -120 14q-84 0 -118.5 -38t-34.5 -106v-9h299v-55z" />
    <glyph glyph-name="g" unicode="g" 
d="M607 537v-62q-87 0 -149 -10q64 -48 64 -125q0 -73 -58 -122t-146 -49q-51 0 -95 19q-20 -40 -20 -63q0 -43 46 -43h156q77 0 121 -36.5t44 -93.5q0 -72 -70.5 -117t-186.5 -45q-108 0 -170.5 38.5t-62.5 102.5q0 54 34.5 85t92.5 37q-29 7 -46 25.5t-17 43.5q0 42 52 80
q-81 50 -81 138q0 72 58.5 120.5t144.5 48.5q65 0 118 -29q67 57 171 57zM318 218q62 0 102.5 34.5t40.5 87.5q0 52 -40.5 86.5t-102.5 34.5q-60 0 -100.5 -34.5t-40.5 -86.5q0 -53 40.5 -87.5t100.5 -34.5zM401 25h-157q-44 0 -72 -22.5t-28 -58.5q0 -49 42.5 -76.5
t129.5 -27.5q97 0 143 32t46 78q0 33 -27 54t-77 21z" />
    <glyph glyph-name="h" unicode="h" 
d="M359 509q93 0 142.5 -53.5t49.5 -151.5v-304h-61v304q0 72 -37 110.5t-100 38.5q-77 0 -122.5 -51t-45.5 -138v-264h-61v700h61v-292q54 101 174 101z" />
    <glyph glyph-name="i" unicode="i" 
d="M397 700v-105h-88v105h88zM383 55h193v-55h-451v55h197v390h-157v55h218v-445z" />
    <glyph glyph-name="j" unicode="j" 
d="M412 700h88v-105h-88v105zM144 500h344v-529q0 -83 -57.5 -133t-152.5 -50q-63 0 -162 33v66q63 -25 95.5 -33.5t70.5 -8.5q65 0 105 34.5t40 91.5v474h-283v55z" />
    <glyph glyph-name="k" unicode="k" 
d="M535 0l-159 253h-188v-253h-61v700h61v-392h187l138 192h75l-162 -218l185 -282h-76z" />
    <glyph glyph-name="l" unicode="l" 
d="M458 47q64 0 144 45v-68q-86 -33 -145 -33q-89 0 -145 51t-56 129v474h-195v55h256v-529q0 -54 39 -89t102 -35z" />
    <glyph glyph-name="m" unicode="m" 
d="M478 507q57 0 89.5 -35.5t32.5 -101.5v-370h-61v348q0 104 -78 104q-88 0 -95 -138l-1 -314h-61v348q0 104 -79 104q-94 0 -94 -169v-283h-61v500h61v-71q30 78 112 78q93 0 117 -80q34 80 118 80z" />
    <glyph glyph-name="n" unicode="n" 
d="M352 509q93 0 143 -54t50 -151v-304h-61v304q0 71 -37 110t-101 39q-76 0 -121.5 -51t-45.5 -138v-264h-61v500h61v-95q53 104 173 104z" />
    <glyph glyph-name="o" unicode="o" 
d="M330 509q110 0 182 -74t72 -185t-72 -185t-182 -74q-109 0 -181 74t-72 185t72 185t181 74zM330 454q-82 0 -136.5 -58.5t-54.5 -145.5t54.5 -145.5t136.5 -58.5q83 0 137 58.5t54 145.5t-54 145.5t-137 58.5z" />
    <glyph glyph-name="p" unicode="p" 
d="M352 509q104 0 174.5 -74t70.5 -186t-70.5 -185t-176.5 -73q-140 0 -194 112h-2v-303h-61v700h61v-111h2q60 120 196 120zM340 46q82 0 138 57.5t56 145.5q0 89 -56 147t-138 58t-133 -55t-51 -143v-12q1 -90 52 -144t132 -54z" />
    <glyph glyph-name="q" unicode="q" 
d="M308 509q136 0 196 -120h2v111h61v-700h-61v303h-2q-54 -112 -194 -112q-106 0 -176.5 73t-70.5 185t70.5 186t174.5 74zM320 46q81 0 132 54t52 144v12q0 88 -51 143t-133 55t-138 -58t-56 -147q0 -88 56 -145.5t138 -57.5z" />
    <glyph glyph-name="r" unicode="r" 
d="M321 368q29 72 94.5 105.5t179.5 33.5v-64q-86 4 -141 -10.5t-83.5 -51.5t-39 -84.5t-10.5 -122.5v-119h210v-55h-418v55h147v390h-147v55h208v-132z" />
    <glyph glyph-name="s" unicode="s" 
d="M478 351q-14 104 -151 104q-63 0 -99 -23t-36 -64q0 -57 85 -73l122 -21q72 -12 108 -44t36 -88q0 -71 -53 -111.5t-149 -40.5q-103 0 -164 47.5t-67 137.5h65q5 -64 48.5 -97t118.5 -33q66 0 102.5 24.5t36.5 68.5q0 66 -94 83l-123 20q-135 23 -135 127q0 66 52.5 104
t144.5 38q94 0 150.5 -41.5t64.5 -117.5h-63z" />
    <glyph glyph-name="t" unicode="t" 
d="M604 445h-329v-274q0 -58 38 -91t107 -33q68 0 163 54v-67q-89 -43 -160 -43q-98 0 -153.5 48t-55.5 132v274h-172v55h73q62 0 80.5 18t18.5 76v66h61v-160h329v-55z" />
    <glyph glyph-name="u" unicode="u" 
d="M542 500v-500h-61v95q-53 -104 -173 -104q-93 0 -143 54t-50 151v304h61v-304q0 -71 37 -110t101 -39q76 0 121.5 51t45.5 138v264h61z" />
    <glyph glyph-name="v" unicode="v" 
d="M516 500h71l-226 -500h-61l-227 500h71l186 -428z" />
    <glyph glyph-name="w" unicode="w" 
d="M540 500h63l-91 -500h-66l-116 346l-115 -346h-67l-91 500h63l69 -414l112 324h59l111 -324z" />
    <glyph glyph-name="x" unicode="x" 
d="M377 253l187 -253h-75l-159 220l-159 -220h-75l187 253l-184 247h75l156 -217l156 217h75z" />
    <glyph glyph-name="y" unicode="y" 
d="M517 500h71l-246 -596q-23 -56 -68 -85t-101 -29q-59 0 -112 24v63q56 -31 112 -31q85 0 119 82l23 59l-240 513h69l200 -439z" />
    <glyph glyph-name="z" unicode="z" 
d="M185 55h373v-55h-452v51l369 394h-369v55h444v-51z" />
    <glyph glyph-name="braceleft" unicode="{" 
d="M334 499q0 -79 -25.5 -117t-76.5 -49q51 -12 76.5 -50t25.5 -117v-145q0 -36 21.5 -57.5t57.5 -21.5h95v-57h-95q-64 0 -104.5 38.5t-40.5 97.5v145q0 81 -31 109.5t-82 28.5h-7v57h7q51 0 82 28.5t31 109.5v145q0 59 40.5 97.5t104.5 38.5h95v-57h-95q-36 0 -57.5 -21.5
t-21.5 -57.5v-145z" />
    <glyph glyph-name="bar" unicode="|" 
d="M303 780h55v-895h-55v895z" />
    <glyph glyph-name="braceright" unicode="}" 
d="M505 361h7v-57h-7q-51 0 -82 -28.5t-31 -109.5v-145q0 -59 -40.5 -97.5t-104.5 -38.5h-95v57h95q36 0 57.5 21.5t21.5 57.5v145q0 79 25.5 117t76.5 50q-51 11 -76.5 49t-25.5 117v145q0 36 -21.5 57.5t-57.5 21.5h-95v57h95q64 0 104.5 -38.5t40.5 -97.5v-145
q0 -81 31 -109.5t82 -28.5z" />
    <glyph glyph-name="asciitilde" unicode="~" 
d="M133 250q0 58 31.5 88.5t73.5 30.5q33 0 97 -29.5t87 -29.5q49 0 49 61h56q0 -59 -30.5 -89t-72.5 -30q-34 0 -98 29.5t-87 29.5t-36 -16t-13 -45h-57z" />
    <glyph glyph-name="exclamdown" unicode="&#xa1;" 
d="M279 613h102v-117h-102v117zM301 391h59l3 -481h-67z" />
    <glyph glyph-name="cent" unicode="&#xa2;" 
d="M572 174q-13 -79 -71.5 -129t-142.5 -55v-109h-50v111q-100 11 -160 82.5t-60 177.5q0 105 60 176.5t160 82.5v116h50v-114q82 -4 140 -52.5t73 -125.5h-63q-14 52 -54 85t-96 37v-411q57 4 97.5 38.5t54.5 89.5h62zM150 252q0 -82 42.5 -137.5t115.5 -66.5v407
q-73 -11 -115.5 -66.5t-42.5 -136.5z" />
    <glyph glyph-name="sterling" unicode="&#xa3;" 
d="M159 55h407v-55h-481l-7 48q10 11 33.5 36t32.5 36t22 30t18 36.5t5 37.5q0 36 -22 82h-117v55h89q-43 82 -43 140q0 91 64 151t166 60q88 0 151 -46.5t80 -128.5h-63q-14 54 -60 87t-108 33q-74 0 -120.5 -45.5t-46.5 -116.5q0 -24 8 -50.5t14.5 -39.5t22.5 -44h282v-55
h-254q19 -45 19 -84q0 -46 -22 -82.5t-70 -84.5z" />
    <glyph glyph-name="currency" unicode="&#xa4;" 
d="M578 339q0 -86 -48 -153l86 -86l-38 -38l-84 84q-69 -63 -164 -63q-94 0 -163 61l-84 -84l-38 38l86 86q-50 67 -50 155q0 94 58 165l-96 96l37 38l97 -96q68 52 153 52q87 0 154 -54l96 96l38 -38l-96 -95q56 -72 56 -164zM330 134q83 0 138 59.5t55 145.5
q0 85 -55 144.5t-138 59.5q-84 0 -139 -59.5t-55 -144.5q0 -86 55 -145.5t139 -59.5z" />
    <glyph glyph-name="yen" unicode="&#xa5;" 
d="M612 700l-223 -384h174v-48h-199v-96h199v-47h-199v-125h-66v125h-201v47h201v96h-201v48h174l-223 384h74l208 -375l208 375h74z" />
    <glyph glyph-name="brokenbar" unicode="&#xa6;" 
d="M303 780h55v-356h-55v356zM303 241h55v-356h-55v356z" />
    <glyph glyph-name="section" unicode="&#xa7;" 
d="M449 163q64 -39 64 -110q0 -67 -52 -107.5t-138 -40.5q-89 0 -145.5 42.5t-62.5 122.5h66q2 -53 40 -83.5t101 -30.5q57 0 91 27t34 69t-34.5 62.5t-117.5 38.5q-38 8 -64 17t-56.5 27t-46 47.5t-15.5 70.5q0 93 85 139q-63 39 -63 111q0 66 51 106.5t135 40.5
t139.5 -42.5t61.5 -121.5h-66q-2 52 -39 82.5t-95 30.5q-55 0 -88 -27t-33 -69t33.5 -62.5t114.5 -38.5q30 -7 51 -13t48 -18.5t43.5 -28.5t28 -42.5t11.5 -59.5q0 -93 -82 -139zM174 321q0 -48 32 -72t102 -39q65 -14 98 -27q64 46 64 113q0 48 -31.5 72.5t-102.5 39.5
q-65 14 -99 27q-63 -47 -63 -114z" />
    <glyph glyph-name="dieresis" unicode="&#xa8;" 
d="M188 592v113h87v-113h-87zM385 592v113h87v-113h-87z" />
    <glyph glyph-name="copyright" unicode="&#xa9;" 
d="M329 -12q-135 0 -223 102.5t-88 259.5q0 158 88.5 260t224.5 102q135 0 223 -101.5t88 -258.5q0 -158 -88.5 -261t-224.5 -103zM329 29q119 0 194 90.5t75 231.5q0 140 -74 230t-193 90t-194 -90.5t-75 -230.5t74.5 -230.5t192.5 -90.5zM492 293q-8 -66 -52 -108
t-107 -42q-77 0 -125 59t-48 150t48 149.5t125 58.5q61 0 104.5 -40.5t54.5 -103.5h-54q-8 44 -36.5 72t-68.5 28q-54 0 -87.5 -46t-33.5 -118q0 -73 33.5 -119t87.5 -46q41 0 69.5 29.5t36.5 76.5h53z" />
    <glyph glyph-name="ordfeminine" unicode="&#xaa;" 
d="M508 357q27 0 64 28v-56q-31 -22 -70 -22q-41 0 -65.5 19t-27.5 53h-2q-13 -29 -48.5 -50.5t-92.5 -21.5q-58 0 -92.5 30t-34.5 81q0 55 46 87.5t125 32.5h98v36q0 43 -25 66t-71 23q-94 0 -102 -78h-58q4 57 46 90t114 33q73 0 113.5 -35t40.5 -99v-180q0 -37 42 -37z
M280 352q52 0 89 32t39 86v24h-98q-53 0 -83.5 -19t-30.5 -53q0 -32 23 -51t61 -19zM144 165v53h409v-53h-409z" />
    <glyph glyph-name="guillemotleft" unicode="&#xab;" 
d="M186 261l134 -173h-78l-134 173l134 173h78zM386 261l142 -173h-85l-135 173l135 173h85z" />
    <glyph glyph-name="registered" unicode="&#xae;" 
d="M331 716q99 0 169 -68t70 -170q0 -104 -70.5 -173t-170.5 -69q-99 0 -169 68.5t-70 171.5t70.5 171.5t170.5 68.5zM329 271q85 0 145 58.5t60 147.5q0 88 -59.5 146.5t-143.5 58.5q-85 0 -145 -58.5t-60 -147.5q0 -88 60 -146.5t143 -58.5zM439 540q0 -25 -15.5 -43.5
t-41.5 -25.5l69 -116h-43l-61 112h-77v-112h-36v252h125q35 0 57.5 -19t22.5 -48zM270 576v-77h82q23 0 38 11.5t15 28.5q0 16 -13 26.5t-33 10.5h-89z" />
    <glyph glyph-name="macron" unicode="&#xaf;" 
d="M206 684h248v-55h-248v55z" />
    <glyph glyph-name="degree" unicode="&#xb0;" 
d="M329 739q64 0 111 -45t47 -112q0 -66 -46.5 -111t-110.5 -45t-110.5 45t-46.5 111q0 67 46 112t110 45zM330 689q-44 0 -73.5 -30t-29.5 -76q0 -45 30 -76t73 -31t73 31t30 76q0 46 -29.5 76t-73.5 30z" />
    <glyph glyph-name="plusminus" unicode="&#xb1;" 
d="M357 422h221v-50h-221v-169h-53v169h-223v50h223v186h53v-186zM81 98v50h497v-50h-497z" />
    <glyph glyph-name="uni00B2" unicode="&#xb2;" 
d="M276 393h183v-45h-269v33l136 108q37 30 53.5 54.5t16.5 53.5q0 30 -19.5 49.5t-51.5 19.5q-75 0 -81 -83h-54q4 61 40 93.5t95 32.5q55 0 90.5 -31.5t35.5 -80.5q0 -40 -25 -72.5t-72 -70.5z" />
    <glyph glyph-name="uni00B3" unicode="&#xb3;" 
d="M334 553q58 -1 94 -29.5t36 -74.5q0 -47 -37 -78t-93 -31q-58 0 -97.5 34.5t-41.5 87.5h52q2 -34 26.5 -56.5t59.5 -22.5q34 0 56.5 18.5t22.5 47.5t-22.5 46t-60.5 17h-43l-15 41l115 103h-179v44h249v-44z" />
    <glyph glyph-name="acute" unicode="&#xb4;" 
d="M256 577l87 146h97l-129 -146h-55z" />
    <glyph glyph-name="paragraph" unicode="&#xb6;" 
d="M402 0h-55v300h-58q-96 0 -158.5 55.5t-62.5 140.5q0 89 64 146.5t162 57.5h108v-700zM482 700h55v-700h-55v700z" />
    <glyph glyph-name="periodcentered" unicode="&#xb7;" 
d="M279 265v117h103v-117h-103z" />
    <glyph glyph-name="cedilla" unicode="&#xb8;" 
d="M270 -83l30 83h41l-20 -70h9q40 0 66.5 -24.5t26.5 -60.5q0 -38 -28 -63t-71 -25q-44 0 -74.5 26.5t-35.5 66.5l52 7q1 -25 16.5 -39.5t38.5 -14.5q21 0 34.5 11.5t13.5 30.5q0 20 -15.5 32.5t-45.5 12.5h-25z" />
    <glyph glyph-name="uni00B9" unicode="&#xb9;" 
d="M363 391h124v-44h-306v44h128v262l-125 -53v57l136 44h43v-310z" />
    <glyph glyph-name="ordmasculine" unicode="&#xba;" 
d="M330 708q87 0 147 -57.5t60 -142.5t-60 -143t-147 -58q-86 0 -146.5 58t-60.5 143q0 84 60 142t147 58zM330 656q-63 0 -105.5 -42.5t-42.5 -105.5t43 -105.5t105 -42.5t105 42.5t43 105.5t-42.5 105.5t-105.5 42.5zM144 218h374v-53h-374v53z" />
    <glyph glyph-name="guillemotright" unicode="&#xbb;" 
d="M274 261l-142 173h86l135 -173l-135 -173h-86zM474 261l-134 173h78l135 -173l-135 -173h-78z" />
    <glyph glyph-name="onequarter" unicode="&#xbc;" 
d="M621 679l-192 -243l-31 22l176 254zM210 701v-310h124v-44h-306v44h128v262l-125 -53v57l136 44h43zM641 122v-43h-62v-79h-50v79h-185l-9 35q77 124 98 240h60q-22 -110 -96 -232h132l2 135h48v-135h62zM57 24l192 243l30 -23l-176 -253z" />
    <glyph glyph-name="onehalf" unicode="&#xbd;" 
d="M621 679l-192 -243l-31 22l176 254zM210 701v-310h124v-44h-306v44h128v262l-125 -53v57l136 44h43zM444 45h183v-45h-269v33l136 108q37 30 53.5 54.5t16.5 53.5q0 30 -19.5 49.5t-51.5 19.5q-75 0 -81 -83h-54q4 61 40 93.5t95 32.5q55 0 90.5 -31.5t35.5 -80.5
q0 -40 -25 -72.5t-72 -70.5zM57 24l192 243l30 -23l-176 -253z" />
    <glyph glyph-name="threequarters" unicode="&#xbe;" 
d="M613 679l-192 -243l-31 22l176 254zM174 553q58 -1 94 -29.5t36 -74.5q0 -47 -37 -78t-93 -31q-58 0 -97.5 34.5t-41.5 87.5h52q2 -34 26.5 -56.5t59.5 -22.5q34 0 56.5 18.5t22.5 47.5t-22.5 46t-60.5 17h-43l-15 41l115 103h-179v44h249v-44zM633 122v-43h-62v-79h-50
v79h-185l-9 35q77 124 98 240h60q-22 -110 -96 -232h132l2 135h48v-135h62zM49 24l192 243l30 -23l-176 -253z" />
    <glyph glyph-name="questiondown" unicode="&#xbf;" 
d="M380 618v-117h-102v117h102zM479 102h70q-3 -93 -65 -145t-160 -52q-96 0 -156 53t-60 137q0 39 13 70.5t40.5 55.5t53.5 40.5t67 35.5l13 7l4 107h58l3 -136l-58 -30q-61 -27 -93 -62.5t-32 -89.5q0 -59 39 -95t106 -36q72 0 113.5 37t43.5 103z" />
    <glyph glyph-name="Agrave" unicode="&#xc0;" 
d="M355 787h-54l-133 151h104zM543 0l-60 177h-306l-60 -177h-67l243 700h74l243 -700h-67zM196 232h268l-134 397z" />
    <glyph glyph-name="Aacute" unicode="&#xc1;" 
d="M498 938l-133 -151h-54l83 151h104zM543 0l-60 177h-306l-60 -177h-67l243 700h74l243 -700h-67zM196 232h268l-134 397z" />
    <glyph glyph-name="Acircumflex" unicode="&#xc2;" 
d="M330 888l-85 -116h-58l106 166h73l107 -166h-58zM543 0l-60 177h-306l-60 -177h-67l243 700h74l243 -700h-67zM196 232h268l-134 397z" />
    <glyph glyph-name="Atilde" unicode="&#xc3;" 
d="M275 851q-41 0 -44 -48h-59q2 50 30 76.5t70 26.5q34 0 68.5 -27t56.5 -27q38 0 42 48h58q-1 -49 -28.5 -76.5t-70.5 -27.5q-34 0 -68 27.5t-55 27.5zM543 0l-60 177h-306l-60 -177h-67l243 700h74l243 -700h-67zM196 232h268l-134 397z" />
    <glyph glyph-name="Adieresis" unicode="&#xc4;" 
d="M265 916v-112h-87v112h87zM482 916v-112h-87v112h87zM543 0l-60 177h-306l-60 -177h-67l243 700h74l243 -700h-67zM196 232h268l-134 397z" />
    <glyph glyph-name="Aring" unicode="&#xc5;" 
d="M331 758q-41 0 -70 27t-29 68q0 40 29 67t70 27t70 -27t29 -67q0 -41 -29 -68t-70 -27zM331 906q-22 0 -37 -15.5t-15 -37.5q0 -23 15 -38t37 -15t37 15t15 38q0 22 -15 37.5t-37 15.5zM543 0l-60 177h-306l-60 -177h-67l243 700h74l243 -700h-67zM196 232h268l-134 397z
" />
    <glyph glyph-name="AE" unicode="&#xc6;" 
d="M621 643h-216v-258h193v-57h-193v-271h216v-57h-278v180h-161l-65 -180h-75l271 700h308v-57zM202 236h141v393z" />
    <glyph glyph-name="Ccedilla" unicode="&#xc7;" 
d="M349 47q76 0 121.5 44.5t59.5 127.5h70q-18 -109 -78.5 -167.5t-161.5 -61.5l-17 -60h9q40 0 66.5 -24.5t26.5 -60.5q0 -38 -28 -63t-71 -25q-44 0 -74.5 26.5t-35.5 66.5l52 7q1 -25 16.5 -39.5t38.5 -14.5q21 0 34.5 11.5t13.5 30.5q0 20 -15.5 32.5t-45.5 12.5h-25
l-13 27l27 74q-120 10 -182 102t-62 257q0 175 70 265.5t204 90.5q218 0 252 -231h-70q-26 173 -181 173q-101 0 -153.5 -75.5t-52.5 -222.5t52.5 -225t152.5 -78z" />
    <glyph glyph-name="Egrave" unicode="&#xc8;" 
d="M394 787h-54l-133 151h104zM556 644h-358v-259h333v-56h-333v-273h358v-56h-424v700h424v-56z" />
    <glyph glyph-name="Eacute" unicode="&#xc9;" 
d="M306 787l83 151h104l-133 -151h-54zM556 644h-358v-259h333v-56h-333v-273h358v-56h-424v700h424v-56z" />
    <glyph glyph-name="Ecircumflex" unicode="&#xca;" 
d="M481 772h-58l-85 116l-85 -116h-58l106 166h73zM556 644h-358v-259h333v-56h-333v-273h358v-56h-424v700h424v-56z" />
    <glyph glyph-name="Edieresis" unicode="&#xcb;" 
d="M186 804v112h87v-112h-87zM403 804v112h87v-112h-87zM556 644h-358v-259h333v-56h-333v-273h358v-56h-424v700h424v-56z" />
    <glyph glyph-name="Igrave" unicode="&#xcc;" 
d="M366 788h-54l-133 151h104zM560 643h-196v-586h196v-57h-460v57h198v586h-198v57h460v-57z" />
    <glyph glyph-name="Iacute" unicode="&#xcd;" 
d="M487 939l-133 -151h-54l83 151h104zM560 643h-196v-586h196v-57h-460v57h198v586h-198v57h460v-57z" />
    <glyph glyph-name="Icircumflex" unicode="&#xce;" 
d="M331 888l-85 -116h-58l106 166h73l107 -166h-58zM560 643h-196v-586h196v-57h-460v57h198v586h-198v57h460v-57z" />
    <glyph glyph-name="Idieresis" unicode="&#xcf;" 
d="M266 916v-112h-87v112h87zM483 916v-112h-87v112h87zM560 643h-196v-586h196v-57h-460v57h198v586h-198v57h460v-57z" />
    <glyph glyph-name="Eth" unicode="&#xd0;" 
d="M284 700q156 0 242.5 -96.5t86.5 -253.5t-86.5 -253.5t-242.5 -96.5h-173v330h-65v54h65v316h173zM292 57q122 0 187 80.5t65 212.5t-65 212.5t-187 80.5h-114v-259h168v-54h-168v-273h114z" />
    <glyph glyph-name="Ntilde" unicode="&#xd1;" 
d="M285 851q-41 0 -44 -48h-59q2 50 30 76.5t70 26.5q34 0 68.5 -27t56.5 -27q38 0 42 48h58q-1 -49 -28.5 -76.5t-70.5 -27.5q-34 0 -68 27.5t-55 27.5zM494 700h65v-700h-63l-330 583v-583h-65v700h63l330 -579v579z" />
    <glyph glyph-name="Ograve" unicode="&#xd2;" 
d="M375 787h-54l-133 151h104zM330 710q133 0 201.5 -95t68.5 -266q0 -169 -68.5 -263.5t-201.5 -94.5t-201.5 94.5t-68.5 263.5q0 171 68.5 266t201.5 95zM330 654q-100 0 -150.5 -80t-50.5 -225q0 -143 50.5 -222.5t150.5 -79.5t151 80t51 222q0 145 -51 225t-151 80z" />
    <glyph glyph-name="Oacute" unicode="&#xd3;" 
d="M308 787l83 151h104l-133 -151h-54zM330 710q133 0 201.5 -95t68.5 -266q0 -169 -68.5 -263.5t-201.5 -94.5t-201.5 94.5t-68.5 263.5q0 171 68.5 266t201.5 95zM330 654q-100 0 -150.5 -80t-50.5 -225q0 -143 50.5 -222.5t150.5 -79.5t151 80t51 222q0 145 -51 225
t-151 80z" />
    <glyph glyph-name="Ocircumflex" unicode="&#xd4;" 
d="M473 772h-58l-85 116l-85 -116h-58l106 166h73zM330 710q133 0 201.5 -95t68.5 -266q0 -169 -68.5 -263.5t-201.5 -94.5t-201.5 94.5t-68.5 263.5q0 171 68.5 266t201.5 95zM330 654q-100 0 -150.5 -80t-50.5 -225q0 -143 50.5 -222.5t150.5 -79.5t151 80t51 222
q0 145 -51 225t-151 80z" />
    <glyph glyph-name="Otilde" unicode="&#xd5;" 
d="M398 796q-34 0 -68 27.5t-55 27.5q-41 0 -44 -48h-59q2 50 30 76.5t70 26.5q34 0 68.5 -27t56.5 -27q38 0 42 48h58q-1 -49 -28.5 -76.5t-70.5 -27.5zM330 710q133 0 201.5 -95t68.5 -266q0 -169 -68.5 -263.5t-201.5 -94.5t-201.5 94.5t-68.5 263.5q0 171 68.5 266
t201.5 95zM330 654q-100 0 -150.5 -80t-50.5 -225q0 -143 50.5 -222.5t150.5 -79.5t151 80t51 222q0 145 -51 225t-151 80z" />
    <glyph glyph-name="Odieresis" unicode="&#xd6;" 
d="M178 804v112h87v-112h-87zM395 804v112h87v-112h-87zM330 710q133 0 201.5 -95t68.5 -266q0 -169 -68.5 -263.5t-201.5 -94.5t-201.5 94.5t-68.5 263.5q0 171 68.5 266t201.5 95zM330 654q-100 0 -150.5 -80t-50.5 -225q0 -143 50.5 -222.5t150.5 -79.5t151 80t51 222
q0 145 -51 225t-151 80z" />
    <glyph glyph-name="multiply" unicode="&#xd7;" 
d="M558 534l-193 -193l193 -192l-36 -36l-192 193l-193 -193l-36 36l193 192l-193 193l36 35l193 -192l192 192z" />
    <glyph glyph-name="Oslash" unicode="&#xd8;" 
d="M625 650l-68 -78q43 -87 43 -223q0 -169 -68.5 -263.5t-201.5 -94.5q-128 0 -198 90l-49 -57l-37 34l58 67q-44 90 -44 224q0 171 68.5 266t201.5 95q130 0 200 -92l57 66zM129 349q0 -98 24 -167l333 385q-53 87 -156 87q-100 0 -150.5 -80t-50.5 -225zM532 349
q0 96 -23 167l-333 -384q51 -85 154 -85q100 0 151 80t51 222z" />
    <glyph glyph-name="Ugrave" unicode="&#xd9;" 
d="M378 787h-54l-133 151h104zM519 700h66v-459q0 -116 -69.5 -183.5t-185.5 -67.5t-185.5 67.5t-69.5 183.5v459h66v-459q0 -88 52 -141t137 -53t137 53t52 141v459z" />
    <glyph glyph-name="Uacute" unicode="&#xda;" 
d="M495 938l-133 -151h-54l83 151h104zM519 700h66v-459q0 -116 -69.5 -183.5t-185.5 -67.5t-185.5 67.5t-69.5 183.5v459h66v-459q0 -88 52 -141t137 -53t137 53t52 141v459z" />
    <glyph glyph-name="Ucircumflex" unicode="&#xdb;" 
d="M330 888l-85 -116h-58l106 166h73l107 -166h-58zM519 700h66v-459q0 -116 -69.5 -183.5t-185.5 -67.5t-185.5 67.5t-69.5 183.5v459h66v-459q0 -88 52 -141t137 -53t137 53t52 141v459z" />
    <glyph glyph-name="Udieresis" unicode="&#xdc;" 
d="M265 916v-112h-87v112h87zM482 916v-112h-87v112h87zM519 700h66v-459q0 -116 -69.5 -183.5t-185.5 -67.5t-185.5 67.5t-69.5 183.5v459h66v-459q0 -88 52 -141t137 -53t137 53t52 141v459z" />
    <glyph glyph-name="Yacute" unicode="&#xdd;" 
d="M495 938l-133 -151h-54l83 151h104zM607 700l-243 -427v-273h-67v271l-243 429h76l200 -374l201 374h76z" />
    <glyph glyph-name="Thorn" unicode="&#xde;" 
d="M374 557q101 0 162.5 -56t61.5 -139q0 -89 -61 -143.5t-163 -54.5h-192v-164h-66v700h66v-143h192zM374 221q71 0 113 40t42 101q0 58 -42 97.5t-113 39.5h-192v-278h192z" />
    <glyph glyph-name="germandbls" unicode="&#xdf;" 
d="M441 379q0 -16 13 -31.5t33 -28t42.5 -29t42.5 -34.5t33 -46t13 -61q0 -71 -51.5 -115.5t-132.5 -44.5q-59 0 -113 23v65q60 -31 113 -31q50 0 85.5 28t35.5 74q0 31 -18 55.5t-44.5 41.5t-52.5 33.5t-44 41t-18 55.5q0 29 15.5 53t34 39t34 39t15.5 52q0 43 -34 70
t-85 27q-67 0 -107.5 -45.5t-40.5 -118.5v-491h-61v445h-129v55h129q3 93 59.5 151.5t149.5 58.5q79 0 130 -42.5t51 -108.5q0 -35 -15.5 -64t-33.5 -44.5t-33.5 -34.5t-15.5 -37z" />
    <glyph glyph-name="agrave" unicode="&#xe0;" 
d="M371 577h-55l-129 146h97zM565 48q22 0 43 9v-58q-17 -6 -44 -6q-58 0 -88 29t-31 70h-2q-19 -44 -65 -72.5t-113 -28.5q-77 0 -122.5 38t-45.5 102q0 67 53 111.5t160 44.5h135v43q0 58 -34 90.5t-97 32.5q-57 0 -93.5 -28.5t-41.5 -79.5h-63q5 77 58.5 120.5
t139.5 43.5q91 0 141.5 -47.5t50.5 -131.5v-226q0 -25 17.5 -40.5t41.5 -15.5zM275 46q75 0 122 43t48 105v41h-135q-78 0 -114 -27.5t-36 -70.5q0 -42 30.5 -66.5t84.5 -24.5z" />
    <glyph glyph-name="aacute" unicode="&#xe1;" 
d="M480 723l-129 -146h-55l87 146h97zM565 48q22 0 43 9v-58q-17 -6 -44 -6q-58 0 -88 29t-31 70h-2q-19 -44 -65 -72.5t-113 -28.5q-77 0 -122.5 38t-45.5 102q0 67 53 111.5t160 44.5h135v43q0 58 -34 90.5t-97 32.5q-57 0 -93.5 -28.5t-41.5 -79.5h-63q5 77 58.5 120.5
t139.5 43.5q91 0 141.5 -47.5t50.5 -131.5v-226q0 -25 17.5 -40.5t41.5 -15.5zM275 46q75 0 122 43t48 105v41h-135q-78 0 -114 -27.5t-36 -70.5q0 -42 30.5 -66.5t84.5 -24.5z" />
    <glyph glyph-name="acircumflex" unicode="&#xe2;" 
d="M327 673l-87 -103h-58l108 153h73l108 -153h-58zM565 48q22 0 43 9v-58q-17 -6 -44 -6q-58 0 -88 29t-31 70h-2q-19 -44 -65 -72.5t-113 -28.5q-77 0 -122.5 38t-45.5 102q0 67 53 111.5t160 44.5h135v43q0 58 -34 90.5t-97 32.5q-57 0 -93.5 -28.5t-41.5 -79.5h-63
q5 77 58.5 120.5t139.5 43.5q91 0 141.5 -47.5t50.5 -131.5v-226q0 -25 17.5 -40.5t41.5 -15.5zM275 46q75 0 122 43t48 105v41h-135q-78 0 -114 -27.5t-36 -70.5q0 -42 30.5 -66.5t84.5 -24.5z" />
    <glyph glyph-name="atilde" unicode="&#xe3;" 
d="M275 657q-39 0 -42 -46h-61q2 51 30.5 76.5t70.5 25.5q33 0 63.5 -24.5t49.5 -24.5q41 0 43 45h60q-1 -50 -28.5 -76t-70.5 -26q-32 0 -64 25t-51 25zM565 48q22 0 43 9v-58q-17 -6 -44 -6q-58 0 -88 29t-31 70h-2q-19 -44 -65 -72.5t-113 -28.5q-77 0 -122.5 38
t-45.5 102q0 67 53 111.5t160 44.5h135v43q0 58 -34 90.5t-97 32.5q-57 0 -93.5 -28.5t-41.5 -79.5h-63q5 77 58.5 120.5t139.5 43.5q91 0 141.5 -47.5t50.5 -131.5v-226q0 -25 17.5 -40.5t41.5 -15.5zM275 46q75 0 122 43t48 105v41h-135q-78 0 -114 -27.5t-36 -70.5
q0 -42 30.5 -66.5t84.5 -24.5z" />
    <glyph glyph-name="adieresis" unicode="&#xe4;" 
d="M271 705v-113h-87v113h87zM468 705v-113h-87v113h87zM565 48q22 0 43 9v-58q-17 -6 -44 -6q-58 0 -88 29t-31 70h-2q-19 -44 -65 -72.5t-113 -28.5q-77 0 -122.5 38t-45.5 102q0 67 53 111.5t160 44.5h135v43q0 58 -34 90.5t-97 32.5q-57 0 -93.5 -28.5t-41.5 -79.5h-63
q5 77 58.5 120.5t139.5 43.5q91 0 141.5 -47.5t50.5 -131.5v-226q0 -25 17.5 -40.5t41.5 -15.5zM275 46q75 0 122 43t48 105v41h-135q-78 0 -114 -27.5t-36 -70.5q0 -42 30.5 -66.5t84.5 -24.5z" />
    <glyph glyph-name="aring" unicode="&#xe5;" 
d="M327 567q-41 0 -70 27t-29 67q0 41 29 68t70 27t70 -27t29 -68q0 -40 -29 -67t-70 -27zM327 715q-23 0 -38 -15.5t-15 -38.5t15 -38.5t38 -15.5t38 15.5t15 38.5t-15 38.5t-38 15.5zM565 48q22 0 43 9v-58q-17 -6 -44 -6q-58 0 -88 29t-31 70h-2q-19 -44 -65 -72.5
t-113 -28.5q-77 0 -122.5 38t-45.5 102q0 67 53 111.5t160 44.5h135v43q0 58 -34 90.5t-97 32.5q-57 0 -93.5 -28.5t-41.5 -79.5h-63q5 77 58.5 120.5t139.5 43.5q91 0 141.5 -47.5t50.5 -131.5v-226q0 -25 17.5 -40.5t41.5 -15.5zM275 46q75 0 122 43t48 105v41h-135
q-78 0 -114 -27.5t-36 -70.5q0 -42 30.5 -66.5t84.5 -24.5z" />
    <glyph glyph-name="ae" unicode="&#xe6;" 
d="M626 243h-275v-7q0 -89 29 -139.5t79 -50.5q83 0 101 105h62q-8 -78 -49.5 -119t-112.5 -41q-102 0 -145 104q-41 -104 -150 -104q-64 0 -101.5 35.5t-37.5 97.5q0 79 62 122.5t171 43.5h30v45q0 119 -84 119q-39 0 -65 -27t-30 -82h-62q4 81 46.5 122.5t110.5 41.5
q91 0 125 -69q42 69 128 69q168 0 168 -255v-11zM460 454q-50 0 -78 -42t-29 -122h211q-1 80 -28 122t-76 42zM165 46q54 0 89 43t35 120v34h-30q-79 0 -125 -31t-46 -88q0 -36 20 -57t57 -21z" />
    <glyph glyph-name="ccedilla" unicode="&#xe7;" 
d="M578 176q-14 -80 -71.5 -130.5t-142.5 -54.5l-18 -61h9q40 0 66.5 -24.5t26.5 -60.5q0 -38 -28 -63t-71 -25q-44 0 -74.5 26.5t-35.5 66.5l52 7q1 -25 16.5 -39.5t38.5 -14.5q21 0 34.5 11.5t13.5 30.5q0 20 -15.5 32.5t-45.5 12.5h-25l-13 27l27 75q-102 9 -165.5 81.5
t-63.5 176.5q0 112 71 185.5t183 73.5q88 0 149.5 -48t79.5 -129h-63q-15 56 -58.5 89t-106.5 33q-86 0 -139 -58t-53 -146t53 -146t138 -58q66 0 110 35t58 95h63z" />
    <glyph glyph-name="egrave" unicode="&#xe8;" 
d="M376 577h-55l-129 146h97zM336 -9q-113 0 -177 71.5t-64 187.5q0 114 66 186.5t176 72.5q108 0 168.5 -71t60.5 -186v-14h-410v-2q5 -86 51.5 -138t128.5 -52q119 0 163 113h63q-21 -79 -80 -123.5t-146 -44.5zM161 293h340q-12 76 -53 118.5t-111 42.5
q-72 0 -117.5 -43.5t-58.5 -117.5z" />
    <glyph glyph-name="eacute" unicode="&#xe9;" 
d="M306 577l87 146h97l-129 -146h-55zM336 -9q-113 0 -177 71.5t-64 187.5q0 114 66 186.5t176 72.5q108 0 168.5 -71t60.5 -186v-14h-410v-2q5 -86 51.5 -138t128.5 -52q119 0 163 113h63q-21 -79 -80 -123.5t-146 -44.5zM161 293h340q-12 76 -53 118.5t-111 42.5
q-72 0 -117.5 -43.5t-58.5 -117.5z" />
    <glyph glyph-name="ecircumflex" unicode="&#xea;" 
d="M481 570h-58l-86 103l-87 -103h-58l108 153h73zM336 -9q-113 0 -177 71.5t-64 187.5q0 114 66 186.5t176 72.5q108 0 168.5 -71t60.5 -186v-14h-410v-2q5 -86 51.5 -138t128.5 -52q119 0 163 113h63q-21 -79 -80 -123.5t-146 -44.5zM161 293h340q-12 76 -53 118.5
t-111 42.5q-72 0 -117.5 -43.5t-58.5 -117.5z" />
    <glyph glyph-name="edieresis" unicode="&#xeb;" 
d="M194 592v113h87v-113h-87zM391 592v113h87v-113h-87zM336 -9q-113 0 -177 71.5t-64 187.5q0 114 66 186.5t176 72.5q108 0 168.5 -71t60.5 -186v-14h-410v-2q5 -86 51.5 -138t128.5 -52q119 0 163 113h63q-21 -79 -80 -123.5t-146 -44.5zM161 293h340q-12 76 -53 118.5
t-111 42.5q-72 0 -117.5 -43.5t-58.5 -117.5z" />
    <glyph glyph-name="igrave" unicode="&#xec;" 
d="M371 577h-55l-129 146h97zM383 55h193v-55h-451v55h197v390h-157v55h218v-445z" />
    <glyph glyph-name="iacute" unicode="&#xed;" 
d="M507 723l-129 -146h-55l87 146h97zM383 55h193v-55h-451v55h197v390h-157v55h218v-445z" />
    <glyph glyph-name="icircumflex" unicode="&#xee;" 
d="M354 673l-87 -103h-58l108 153h73l108 -153h-58zM383 55h193v-55h-451v55h197v390h-157v55h218v-445z" />
    <glyph glyph-name="idieresis" unicode="&#xef;" 
d="M298 705v-113h-87v113h87zM495 705v-113h-87v113h87zM383 55h193v-55h-451v55h197v390h-157v55h218v-445z" />
    <glyph glyph-name="eth" unicode="&#xf0;" 
d="M366 650q117 -53 170 -152.5t53 -225.5q0 -123 -72.5 -202t-182.5 -79q-112 0 -185.5 73.5t-73.5 187.5q0 111 73 184t182 73q58 0 109.5 -26.5t79.5 -80.5q-43 152 -206 210l-133 -97l-27 34l107 78q-63 15 -140 18v55q110 -3 196 -31l97 71l28 -35zM332 46q84 0 139 58
t55 149q0 86 -57 143.5t-137 57.5q-83 0 -139 -57t-56 -144q0 -91 55.5 -149t139.5 -58z" />
    <glyph glyph-name="ntilde" unicode="&#xf1;" 
d="M287 657q-39 0 -42 -46h-61q2 51 30.5 76.5t70.5 25.5q33 0 63.5 -24.5t49.5 -24.5q41 0 43 45h60q-1 -50 -28.5 -76t-70.5 -26q-32 0 -64 25t-51 25zM352 509q93 0 143 -54t50 -151v-304h-61v304q0 71 -37 110t-101 39q-76 0 -121.5 -51t-45.5 -138v-264h-61v500h61v-95
q53 104 173 104z" />
    <glyph glyph-name="ograve" unicode="&#xf2;" 
d="M362 577h-55l-129 146h97zM330 509q110 0 182 -74t72 -185t-72 -185t-182 -74q-109 0 -181 74t-72 185t72 185t181 74zM330 454q-82 0 -136.5 -58.5t-54.5 -145.5t54.5 -145.5t136.5 -58.5q83 0 137 58.5t54 145.5t-54 145.5t-137 58.5z" />
    <glyph glyph-name="oacute" unicode="&#xf3;" 
d="M305 577l87 146h97l-129 -146h-55zM330 509q110 0 182 -74t72 -185t-72 -185t-182 -74q-109 0 -181 74t-72 185t72 185t181 74zM330 454q-82 0 -136.5 -58.5t-54.5 -145.5t54.5 -145.5t136.5 -58.5q83 0 137 58.5t54 145.5t-54 145.5t-137 58.5z" />
    <glyph glyph-name="ocircumflex" unicode="&#xf4;" 
d="M475 570h-58l-86 103l-87 -103h-58l108 153h73zM330 509q110 0 182 -74t72 -185t-72 -185t-182 -74q-109 0 -181 74t-72 185t72 185t181 74zM330 454q-82 0 -136.5 -58.5t-54.5 -145.5t54.5 -145.5t136.5 -58.5q83 0 137 58.5t54 145.5t-54 145.5t-137 58.5z" />
    <glyph glyph-name="otilde" unicode="&#xf5;" 
d="M394 607q-32 0 -64 25t-51 25q-39 0 -42 -46h-61q2 51 30.5 76.5t70.5 25.5q33 0 63.5 -24.5t49.5 -24.5q41 0 43 45h60q-1 -50 -28.5 -76t-70.5 -26zM330 509q110 0 182 -74t72 -185t-72 -185t-182 -74q-109 0 -181 74t-72 185t72 185t181 74zM330 454
q-82 0 -136.5 -58.5t-54.5 -145.5t54.5 -145.5t136.5 -58.5q83 0 137 58.5t54 145.5t-54 145.5t-137 58.5z" />
    <glyph glyph-name="odieresis" unicode="&#xf6;" 
d="M188 592v113h87v-113h-87zM385 592v113h87v-113h-87zM330 509q110 0 182 -74t72 -185t-72 -185t-182 -74q-109 0 -181 74t-72 185t72 185t181 74zM330 454q-82 0 -136.5 -58.5t-54.5 -145.5t54.5 -145.5t136.5 -58.5q83 0 137 58.5t54 145.5t-54 145.5t-137 58.5z" />
    <glyph glyph-name="divide" unicode="&#xf7;" 
d="M289 482v110h83v-110h-83zM81 371h497v-50h-497v50zM288 90v110h84v-110h-84z" />
    <glyph glyph-name="oslash" unicode="&#xf8;" 
d="M511 436q73 -73 73 -186q0 -111 -72 -185t-182 -74q-91 0 -157 52l-62 -72l-31 28l63 73q-66 72 -66 178q0 111 72 185t181 74q84 0 148 -45l62 72l33 -27zM139 250q0 -76 43 -132l258 301q-48 35 -110 35q-82 0 -136.5 -58.5t-54.5 -145.5zM330 46q83 0 137 58.5
t54 145.5q0 85 -50 141l-260 -303q50 -42 119 -42z" />
    <glyph glyph-name="ugrave" unicode="&#xf9;" 
d="M367 577h-55l-129 146h97zM542 500v-500h-61v95q-53 -104 -173 -104q-93 0 -143 54t-50 151v304h61v-304q0 -71 37 -110t101 -39q76 0 121.5 51t45.5 138v264h61z" />
    <glyph glyph-name="uacute" unicode="&#xfa;" 
d="M488 723l-129 -146h-55l87 146h97zM542 500v-500h-61v95q-53 -104 -173 -104q-93 0 -143 54t-50 151v304h61v-304q0 -71 37 -110t101 -39q76 0 121.5 51t45.5 138v264h61z" />
    <glyph glyph-name="ucircumflex" unicode="&#xfb;" 
d="M335 673l-87 -103h-58l108 153h73l108 -153h-58zM542 500v-500h-61v95q-53 -104 -173 -104q-93 0 -143 54t-50 151v304h61v-304q0 -71 37 -110t101 -39q76 0 121.5 51t45.5 138v264h61z" />
    <glyph glyph-name="udieresis" unicode="&#xfc;" 
d="M279 705v-113h-87v113h87zM476 705v-113h-87v113h87zM542 500v-500h-61v95q-53 -104 -173 -104q-93 0 -143 54t-50 151v304h61v-304q0 -71 37 -110t101 -39q76 0 121.5 51t45.5 138v264h61z" />
    <glyph glyph-name="yacute" unicode="&#xfd;" 
d="M490 723l-129 -146h-55l87 146h97zM517 500h71l-246 -596q-23 -56 -68 -85t-101 -29q-59 0 -112 24v63q56 -31 112 -31q85 0 119 82l23 59l-240 513h69l200 -439z" />
    <glyph glyph-name="thorn" unicode="&#xfe;" 
d="M338 509q104 0 176 -74t72 -186t-72.5 -185t-178.5 -73q-136 0 -190 112h-2v-303h-61v900h61v-310h2q60 119 193 119zM329 46q82 0 138 57.5t56 145.5q0 89 -56 147t-138 58t-133 -55t-51 -143v-12q1 -90 52 -144t132 -54z" />
    <glyph glyph-name="ydieresis" unicode="&#xff;" 
d="M281 705v-113h-87v113h87zM478 705v-113h-87v113h87zM517 500h71l-246 -596q-23 -56 -68 -85t-101 -29q-59 0 -112 24v63q56 -31 112 -31q85 0 119 82l23 59l-240 513h69l200 -439z" />
    <glyph glyph-name="Amacron" unicode="&#x100;" 
d="M455 881v-55h-250v55h250zM543 0l-60 177h-306l-60 -177h-67l243 700h74l243 -700h-67zM196 232h268l-134 397z" />
    <glyph glyph-name="amacron" unicode="&#x101;" 
d="M450 684v-55h-248v55h248zM565 48q22 0 43 9v-58q-17 -6 -44 -6q-58 0 -88 29t-31 70h-2q-19 -44 -65 -72.5t-113 -28.5q-77 0 -122.5 38t-45.5 102q0 67 53 111.5t160 44.5h135v43q0 58 -34 90.5t-97 32.5q-57 0 -93.5 -28.5t-41.5 -79.5h-63q5 77 58.5 120.5
t139.5 43.5q91 0 141.5 -47.5t50.5 -131.5v-226q0 -25 17.5 -40.5t41.5 -15.5zM275 46q75 0 122 43t48 105v41h-135q-78 0 -114 -27.5t-36 -70.5q0 -42 30.5 -66.5t84.5 -24.5z" />
    <glyph glyph-name="Abreve" unicode="&#x102;" 
d="M328 785q-59 0 -97.5 37t-39.5 97h64q1 -38 21 -60t52 -22q34 0 55.5 22t23.5 60h62q0 -60 -39.5 -97t-101.5 -37zM543 0l-60 177h-306l-60 -177h-67l243 700h74l243 -700h-67zM196 232h268l-134 397z" />
    <glyph glyph-name="abreve" unicode="&#x103;" 
d="M324 582q-60 0 -98 36t-39 98h64q0 -39 20.5 -61.5t52.5 -22.5q34 0 56.5 23t22.5 61h62q-1 -62 -40 -98t-101 -36zM565 48q22 0 43 9v-58q-17 -6 -44 -6q-58 0 -88 29t-31 70h-2q-19 -44 -65 -72.5t-113 -28.5q-77 0 -122.5 38t-45.5 102q0 67 53 111.5t160 44.5h135v43
q0 58 -34 90.5t-97 32.5q-57 0 -93.5 -28.5t-41.5 -79.5h-63q5 77 58.5 120.5t139.5 43.5q91 0 141.5 -47.5t50.5 -131.5v-226q0 -25 17.5 -40.5t41.5 -15.5zM275 46q75 0 122 43t48 105v41h-135q-78 0 -114 -27.5t-36 -70.5q0 -42 30.5 -66.5t84.5 -24.5z" />
    <glyph glyph-name="Aogonek" unicode="&#x104;" 
d="M577 -133q32 0 57 10v-57q-30 -10 -64 -10q-49 0 -76.5 24t-27.5 60q0 68 108 106h-31l-60 177h-306l-60 -177h-67l243 700h74l243 -700q-4 -3 -18 -13t-18 -13t-14.5 -11t-14 -12.5t-9 -12t-7 -14.5t-1.5 -15q0 -19 13 -30.5t36 -11.5zM196 232h268l-134 397z" />
    <glyph glyph-name="aogonek" unicode="&#x105;" 
d="M575 -134q32 0 57 10v-57q-30 -10 -64 -10q-49 0 -76.5 24t-27.5 60q0 62 93 100q-55 2 -83 30.5t-29 68.5h-2q-19 -44 -65 -72.5t-113 -28.5q-77 0 -122.5 38t-45.5 102q0 67 53 111.5t160 44.5h135v43q0 58 -34 90.5t-97 32.5q-57 0 -93.5 -28.5t-41.5 -79.5h-63
q5 77 58.5 120.5t139.5 43.5q91 0 141.5 -47.5t50.5 -131.5v-226q0 -25 17.5 -40.5t41.5 -15.5q22 0 43 9v-58q-4 -3 -18 -13t-18 -13t-14.5 -11t-14 -12.5t-9 -12t-7 -14.5t-1.5 -15q0 -19 13 -30.5t36 -11.5zM275 46q75 0 122 43t48 105v41h-135q-78 0 -114 -27.5
t-36 -70.5q0 -42 30.5 -66.5t84.5 -24.5z" />
    <glyph glyph-name="Cacute" unicode="&#x106;" 
d="M327 787l83 151h104l-133 -151h-54zM600 219q-39 -229 -251 -229q-134 0 -204 92.5t-70 267.5t70 265.5t204 90.5q218 0 252 -231h-70q-26 173 -181 173q-101 0 -153.5 -75.5t-52.5 -222.5t52.5 -225t152.5 -78q76 0 121.5 44.5t59.5 127.5h70z" />
    <glyph glyph-name="cacute" unicode="&#x107;" 
d="M317 577l87 146h97l-129 -146h-55zM578 176q-15 -84 -77 -134.5t-153 -50.5q-112 0 -183.5 74t-71.5 185q0 112 71 185.5t183 73.5q88 0 149.5 -48t79.5 -129h-63q-15 56 -58.5 89t-106.5 33q-86 0 -139 -58t-53 -146t53 -146t138 -58q66 0 110 35t58 95h63z" />
    <glyph glyph-name="Cdotaccent" unicode="&#x10a;" 
d="M306 804v115h87v-115h-87zM600 219q-39 -229 -251 -229q-134 0 -204 92.5t-70 267.5t70 265.5t204 90.5q218 0 252 -231h-70q-26 173 -181 173q-101 0 -153.5 -75.5t-52.5 -222.5t52.5 -225t152.5 -78q76 0 121.5 44.5t59.5 127.5h70z" />
    <glyph glyph-name="cdotaccent" unicode="&#x10b;" 
d="M304 592v113h88v-113h-88zM578 176q-15 -84 -77 -134.5t-153 -50.5q-112 0 -183.5 74t-71.5 185q0 112 71 185.5t183 73.5q88 0 149.5 -48t79.5 -129h-63q-15 56 -58.5 89t-106.5 33q-86 0 -139 -58t-53 -146t53 -146t138 -58q66 0 110 35t58 95h63z" />
    <glyph glyph-name="Ccaron" unicode="&#x10c;" 
d="M501 938l-107 -166h-73l-106 166h58l85 -116l85 116h58zM600 219q-39 -229 -251 -229q-134 0 -204 92.5t-70 267.5t70 265.5t204 90.5q218 0 252 -231h-70q-26 173 -181 173q-101 0 -153.5 -75.5t-52.5 -222.5t52.5 -225t152.5 -78q76 0 121.5 44.5t59.5 127.5h70z" />
    <glyph glyph-name="ccaron" unicode="&#x10d;" 
d="M493 722l-108 -153h-73l-108 153h58l87 -103l86 103h58zM578 176q-15 -84 -77 -134.5t-153 -50.5q-112 0 -183.5 74t-71.5 185q0 112 71 185.5t183 73.5q88 0 149.5 -48t79.5 -129h-63q-15 56 -58.5 89t-106.5 33q-86 0 -139 -58t-53 -146t53 -146t138 -58q66 0 110 35
t58 95h63z" />
    <glyph glyph-name="Dcaron" unicode="&#x10e;" 
d="M462 938l-107 -166h-73l-106 166h58l85 -116l85 116h58zM271 700q156 0 242.5 -96.5t86.5 -253.5t-86.5 -253.5t-242.5 -96.5h-173v700h173zM279 57q122 0 187 80.5t65 212.5t-65 212.5t-187 80.5h-114v-586h114z" />
    <glyph glyph-name="dcaron" unicode="&#x10f;" 
d="M677 701h75l-48 -200h-47zM308 -9q-104 0 -174.5 74t-70.5 186t70.5 185t176.5 73q140 0 194 -112h2v303h61v-700h-61v111h-2q-60 -120 -196 -120zM320 454q-82 0 -138 -57.5t-56 -145.5q0 -89 56 -147t138 -58t133 55t51 143v12q-1 90 -52 144t-132 54z" />
    <glyph glyph-name="Dcroat" unicode="&#x110;" 
d="M284 700q156 0 242.5 -96.5t86.5 -253.5t-86.5 -253.5t-242.5 -96.5h-173v330h-65v54h65v316h173zM292 57q122 0 187 80.5t65 212.5t-65 212.5t-187 80.5h-114v-259h168v-54h-168v-273h114z" />
    <glyph glyph-name="dcroat" unicode="&#x111;" 
d="M656 625v-50h-89v-575h-61v111h-2q-60 -120 -196 -120q-104 0 -174.5 74t-70.5 186t70.5 185t176.5 73q140 0 194 -112h2v178h-224v50h224v75h61v-75h89zM504 244v12q-1 90 -52 144t-132 54q-82 0 -138 -57.5t-56 -145.5q0 -89 56 -147t138 -58t133 55t51 143z" />
    <glyph glyph-name="Emacron" unicode="&#x112;" 
d="M213 826v55h250v-55h-250zM556 644h-358v-259h333v-56h-333v-273h358v-56h-424v700h424v-56z" />
    <glyph glyph-name="emacron" unicode="&#x113;" 
d="M212 684h248v-55h-248v55zM336 -9q-113 0 -177 71.5t-64 187.5q0 114 66 186.5t176 72.5q108 0 168.5 -71t60.5 -186v-14h-410v-2q5 -86 51.5 -138t128.5 -52q119 0 163 113h63q-21 -79 -80 -123.5t-146 -44.5zM161 293h340q-12 76 -53 118.5t-111 42.5
q-72 0 -117.5 -43.5t-58.5 -117.5z" />
    <glyph glyph-name="Ebreve" unicode="&#x114;" 
d="M336 785q-59 0 -97.5 37t-39.5 97h64q1 -38 21 -60t52 -22q34 0 55.5 22t23.5 60h62q0 -60 -39.5 -97t-101.5 -37zM556 644h-358v-259h333v-56h-333v-273h358v-56h-424v700h424v-56z" />
    <glyph glyph-name="ebreve" unicode="&#x115;" 
d="M334 582q-60 0 -98 36t-39 98h64q0 -39 20.5 -61.5t52.5 -22.5q34 0 56.5 23t22.5 61h62q-1 -62 -40 -98t-101 -36zM336 -9q-113 0 -177 71.5t-64 187.5q0 114 66 186.5t176 72.5q108 0 168.5 -71t60.5 -186v-14h-410v-2q5 -86 51.5 -138t128.5 -52q119 0 163 113h63
q-21 -79 -80 -123.5t-146 -44.5zM161 293h340q-12 76 -53 118.5t-111 42.5q-72 0 -117.5 -43.5t-58.5 -117.5z" />
    <glyph glyph-name="Edotaccent" unicode="&#x116;" 
d="M295 804v115h87v-115h-87zM556 644h-358v-259h333v-56h-333v-273h358v-56h-424v700h424v-56z" />
    <glyph glyph-name="edotaccent" unicode="&#x117;" 
d="M293 592v113h88v-113h-88zM336 -9q-113 0 -177 71.5t-64 187.5q0 114 66 186.5t176 72.5q108 0 168.5 -71t60.5 -186v-14h-410v-2q5 -86 51.5 -138t128.5 -52q119 0 163 113h63q-21 -79 -80 -123.5t-146 -44.5zM161 293h340q-12 76 -53 118.5t-111 42.5
q-72 0 -117.5 -43.5t-58.5 -117.5z" />
    <glyph glyph-name="Eogonek" unicode="&#x118;" 
d="M523 -133q32 0 57 10v-57q-30 -10 -64 -10q-49 0 -76.5 24t-27.5 60q0 68 108 106h-388v700h424v-56h-358v-259h333v-56h-333v-273h358v-56q-4 -3 -18 -13t-18 -13t-14.5 -11t-14 -12.5t-9 -12t-7 -14.5t-1.5 -15q0 -19 13 -30.5t36 -11.5z" />
    <glyph glyph-name="eogonek" unicode="&#x119;" 
d="M566 238h-410v-2q5 -86 51.5 -138t128.5 -52q119 0 163 113h63q-17 -63 -58 -104l-1 -1q-4 -4 -7 -6q-64 -61 -83.5 -86.5t-19.5 -50.5q0 -21 13.5 -32.5t35.5 -11.5q33 0 58 10v-57q-32 -10 -65 -10q-49 0 -80 20.5t-31 58.5q0 29 17.5 53t62.5 57q-34 -8 -68 -8
q-113 0 -177 71.5t-64 187.5q0 114 66 186.5t176 72.5q108 0 168.5 -71t60.5 -186v-14zM337 454q-72 0 -117.5 -43.5t-58.5 -117.5h340q-12 76 -53 118.5t-111 42.5z" />
    <glyph glyph-name="Ecaron" unicode="&#x11a;" 
d="M490 938l-107 -166h-73l-106 166h58l85 -116l85 116h58zM556 644h-358v-259h333v-56h-333v-273h358v-56h-424v700h424v-56z" />
    <glyph glyph-name="ecaron" unicode="&#x11b;" 
d="M482 722l-108 -153h-73l-108 153h58l87 -103l86 103h58zM336 -9q-113 0 -177 71.5t-64 187.5q0 114 66 186.5t176 72.5q108 0 168.5 -71t60.5 -186v-14h-410v-2q5 -86 51.5 -138t128.5 -52q119 0 163 113h63q-21 -79 -80 -123.5t-146 -44.5zM161 293h340
q-12 76 -53 118.5t-111 42.5q-72 0 -117.5 -43.5t-58.5 -117.5z" />
    <glyph glyph-name="Gbreve" unicode="&#x11e;" 
d="M333 785q-59 0 -97.5 37t-39.5 97h64q1 -38 21 -60t52 -22q34 0 55.5 22t23.5 60h62q0 -60 -39.5 -97t-101.5 -37zM347 290v55h243v-345h-64v117q-52 -126 -192 -126q-123 0 -192 93t-69 268q0 173 69.5 263.5t201.5 90.5q106 0 169.5 -58.5t79.5 -172.5h-70
q-24 173 -179 173q-98 0 -150 -75.5t-52 -222.5t52.5 -224.5t149.5 -77.5q87 0 134.5 62t47.5 180h-179z" />
    <glyph glyph-name="gbreve" unicode="&#x11f;" 
d="M330 582q-60 0 -98 36t-39 98h64q0 -39 20.5 -61.5t52.5 -22.5q34 0 56.5 23t22.5 61h62q-1 -62 -40 -98t-101 -36zM607 537v-62q-87 0 -149 -10q64 -48 64 -125q0 -73 -58 -122t-146 -49q-51 0 -95 19q-20 -40 -20 -63q0 -43 46 -43h156q77 0 121 -36.5t44 -93.5
q0 -72 -70.5 -117t-186.5 -45q-108 0 -170.5 38.5t-62.5 102.5q0 54 34.5 85t92.5 37q-29 7 -46 25.5t-17 43.5q0 42 52 80q-81 50 -81 138q0 72 58.5 120.5t144.5 48.5q65 0 118 -29q67 57 171 57zM318 218q62 0 102.5 34.5t40.5 87.5q0 52 -40.5 86.5t-102.5 34.5
q-60 0 -100.5 -34.5t-40.5 -86.5q0 -53 40.5 -87.5t100.5 -34.5zM401 25h-157q-44 0 -72 -22.5t-28 -58.5q0 -49 42.5 -76.5t129.5 -27.5q97 0 143 32t46 78q0 33 -27 54t-77 21z" />
    <glyph glyph-name="Gdotaccent" unicode="&#x120;" 
d="M379 919v-115h-87v115h87zM347 290v55h243v-345h-64v117q-52 -126 -192 -126q-123 0 -192 93t-69 268q0 173 69.5 263.5t201.5 90.5q106 0 169.5 -58.5t79.5 -172.5h-70q-24 173 -179 173q-98 0 -150 -75.5t-52 -222.5t52.5 -224.5t149.5 -77.5q87 0 134.5 62t47.5 180
h-179z" />
    <glyph glyph-name="gdotaccent" unicode="&#x121;" 
d="M375 705v-113h-88v113h88zM607 537v-62q-87 0 -149 -10q64 -48 64 -125q0 -73 -58 -122t-146 -49q-51 0 -95 19q-20 -40 -20 -63q0 -43 46 -43h156q77 0 121 -36.5t44 -93.5q0 -72 -70.5 -117t-186.5 -45q-108 0 -170.5 38.5t-62.5 102.5q0 54 34.5 85t92.5 37
q-29 7 -46 25.5t-17 43.5q0 42 52 80q-81 50 -81 138q0 72 58.5 120.5t144.5 48.5q65 0 118 -29q67 57 171 57zM318 218q62 0 102.5 34.5t40.5 87.5q0 52 -40.5 86.5t-102.5 34.5q-60 0 -100.5 -34.5t-40.5 -86.5q0 -53 40.5 -87.5t100.5 -34.5zM401 25h-157
q-44 0 -72 -22.5t-28 -58.5q0 -49 42.5 -76.5t129.5 -27.5q97 0 143 32t46 78q0 33 -27 54t-77 21z" />
    <glyph glyph-name="Gcommaaccent" unicode="&#x122;" 
d="M347 290v55h243v-345h-64v117q-52 -126 -192 -126q-123 0 -192 93t-69 268q0 173 69.5 263.5t201.5 90.5q106 0 169.5 -58.5t79.5 -172.5h-70q-24 173 -179 173q-98 0 -150 -75.5t-52 -222.5t52.5 -224.5t149.5 -77.5q87 0 134.5 62t47.5 180h-179zM264 -250l32 187h86
l-71 -187h-47z" />
    <glyph glyph-name="gcommaaccent" unicode="&#x123;" 
d="M400 758l-32 -187h-86l71 187h47zM607 537v-62q-87 0 -149 -10q64 -48 64 -125q0 -73 -58 -122t-146 -49q-51 0 -95 19q-20 -40 -20 -63q0 -43 46 -43h156q77 0 121 -36.5t44 -93.5q0 -72 -70.5 -117t-186.5 -45q-108 0 -170.5 38.5t-62.5 102.5q0 54 34.5 85t92.5 37
q-29 7 -46 25.5t-17 43.5q0 42 52 80q-81 50 -81 138q0 72 58.5 120.5t144.5 48.5q65 0 118 -29q67 57 171 57zM318 218q62 0 102.5 34.5t40.5 87.5q0 52 -40.5 86.5t-102.5 34.5q-60 0 -100.5 -34.5t-40.5 -86.5q0 -53 40.5 -87.5t100.5 -34.5zM401 25h-157
q-44 0 -72 -22.5t-28 -58.5q0 -49 42.5 -76.5t129.5 -27.5q97 0 143 32t46 78q0 33 -27 54t-77 21z" />
    <glyph glyph-name="Hbar" unicode="&#x126;" 
d="M619 566v-50h-49v-516h-67v328h-346v-328h-66v516h-51v50h51v134h66v-134h346v134h67v-134h49zM503 385v131h-346v-131h346z" />
    <glyph glyph-name="hbar" unicode="&#x127;" 
d="M359 509q93 0 142.5 -53.5t49.5 -151.5v-304h-61v304q0 72 -37 110.5t-100 38.5q-77 0 -122.5 -51t-45.5 -138v-264h-61v577h-93v46h93v77h61v-77h220v-46h-220v-169q54 101 174 101z" />
    <glyph glyph-name="Imacron" unicode="&#x12a;" 
d="M456 881v-55h-250v55h250zM560 643h-196v-586h196v-57h-460v57h198v586h-198v57h460v-57z" />
    <glyph glyph-name="imacron" unicode="&#x12b;" 
d="M477 684v-55h-248v55h248zM383 55h193v-55h-451v55h197v390h-157v55h218v-445z" />
    <glyph glyph-name="Iogonek" unicode="&#x12e;" 
d="M560 643h-196v-586h196v-57h-203q-4 -3 -18 -13t-18 -13t-14.5 -11t-14 -12.5t-9 -12t-7 -14.5t-1.5 -15q0 -19 13 -30.5t36 -11.5q32 0 57 10v-57q-30 -10 -64 -10q-49 0 -76.5 24t-27.5 60q0 68 108 106h-221v57h198v586h-198v57h460v-57z" />
    <glyph glyph-name="iogonek" unicode="&#x12f;" 
d="M397 700v-105h-88v105h88zM378 0q-4 -3 -18 -13t-18 -13t-14.5 -11t-14 -12.5t-9 -12t-7 -14.5t-1.5 -15q0 -19 13 -30.5t36 -11.5q32 0 57 10v-57q-30 -10 -64 -10q-49 0 -76.5 24t-27.5 60q0 68 108 106h-217v55h197v390h-157v55h218v-445h193v-55h-198z" />
    <glyph glyph-name="Idotaccent" unicode="&#x130;" 
d="M375 919v-115h-87v115h87zM560 643h-196v-586h196v-57h-460v57h198v586h-198v57h460v-57z" />
    <glyph glyph-name="dotlessi" unicode="&#x131;" 
d="M383 55h193v-55h-451v55h197v390h-157v55h218v-445z" />
    <glyph glyph-name="ij" unicode="&#x133;" 
d="M127 592v106h88v-106h-88zM445 592v106h88v-106h-88zM140 -3v501h61v-501h-61zM312 -214v56q68 0 108 34.5t40 91.5v530h61v-530q0 -82 -57 -132t-152 -50z" />
    <glyph glyph-name="Kcommaaccent" unicode="&#x136;" 
d="M410 358l215 -358h-75l-193 327h-179v-327h-66v700h66v-315h176l175 315h70zM262 -250l32 187h86l-71 -187h-47z" />
    <glyph glyph-name="kcommaaccent" unicode="&#x137;" 
d="M426 282l185 -282h-76l-159 253h-188v-253h-61v700h61v-392h187l138 192h75zM267 -250l32 187h86l-71 -187h-47z" />
    <glyph glyph-name="Lacute" unicode="&#x139;" 
d="M366 938l-133 -151h-54l83 151h104zM232 57h361v-57h-427v700h66v-643z" />
    <glyph glyph-name="lacute" unicode="&#x13a;" 
d="M444 923l-129 -146h-55l87 146h97zM458 47q64 0 144 45v-68q-86 -33 -145 -33q-89 0 -145 51t-56 129v474h-195v55h256v-529q0 -54 39 -89t102 -35z" />
    <glyph glyph-name="Lcommaaccent" unicode="&#x13b;" 
d="M232 57h361v-57h-427v700h66v-643zM293 -250l32 187h86l-71 -187h-47z" />
    <glyph glyph-name="lcommaaccent" unicode="&#x13c;" 
d="M458 47q64 0 144 45v-68q-86 -33 -145 -33q-89 0 -145 51t-56 129v474h-195v55h256v-529q0 -54 39 -89t102 -35zM341 -250l32 187h86l-71 -187h-47z" />
    <glyph glyph-name="Lcaron" unicode="&#x13d;" 
d="M232 57h361v-57h-427v700h66v-643zM461 700l-48 -207h-49l20 207h77z" />
    <glyph glyph-name="lcaron" unicode="&#x13e;" 
d="M516 763l-48 -200h-47l20 200h75zM458 47q64 0 144 45v-68q-86 -33 -145 -33q-89 0 -145 51t-56 129v474h-195v55h256v-529q0 -54 39 -89t102 -35z" />
    <glyph glyph-name="Ldot" unicode="&#x13f;" 
d="M232 57h361v-57h-427v700h66v-643zM497 382v-117h-103v117h103z" />
    <glyph glyph-name="ldot" unicode="&#x140;" 
d="M458 47q64 0 144 45v-68q-86 -33 -145 -33q-89 0 -145 51t-56 129v474h-195v55h256v-529q0 -54 39 -89t102 -35zM569 382v-117h-103v117h103z" />
    <glyph glyph-name="Lslash" unicode="&#x141;" 
d="M232 57h361v-57h-427v266l-101 -50v62l101 50v372h66v-340l242 120v-61l-242 -120v-242z" />
    <glyph glyph-name="lslash" unicode="&#x142;" 
d="M458 47q64 0 144 45v-68q-86 -33 -145 -33q-89 0 -145 51t-56 129v189l-156 -76v58l156 76v227h-195v55h256v-253l194 94v-57l-194 -94v-219q0 -54 39 -89t102 -35z" />
    <glyph glyph-name="Nacute" unicode="&#x143;" 
d="M505 938l-133 -151h-54l83 151h104zM494 700h65v-700h-63l-330 583v-583h-65v700h63l330 -579v579z" />
    <glyph glyph-name="nacute" unicode="&#x144;" 
d="M492 723l-129 -146h-55l87 146h97zM352 509q93 0 143 -54t50 -151v-304h-61v304q0 71 -37 110t-101 39q-76 0 -121.5 -51t-45.5 -138v-264h-61v500h61v-95q53 104 173 104z" />
    <glyph glyph-name="Ncommaaccent" unicode="&#x145;" 
d="M494 700h65v-700h-63l-330 583v-583h-65v700h63l330 -579v579zM261 -250l32 187h86l-71 -187h-47z" />
    <glyph glyph-name="ncommaaccent" unicode="&#x146;" 
d="M352 509q93 0 143 -54t50 -151v-304h-61v304q0 71 -37 110t-101 39q-76 0 -121.5 -51t-45.5 -138v-264h-61v500h61v-95q53 104 173 104zM266 -250l32 187h86l-71 -187h-47z" />
    <glyph glyph-name="Ncaron" unicode="&#x147;" 
d="M385 772h-73l-106 166h58l85 -116l85 116h58zM494 700h65v-700h-63l-330 583v-583h-65v700h63l330 -579v579z" />
    <glyph glyph-name="ncaron" unicode="&#x148;" 
d="M376 569h-73l-108 153h58l87 -103l86 103h58zM352 509q93 0 143 -54t50 -151v-304h-61v304q0 71 -37 110t-101 39q-76 0 -121.5 -51t-45.5 -138v-264h-61v500h61v-95q53 104 173 104z" />
    <glyph glyph-name="Eng" unicode="&#x14a;" 
d="M494 700h65v-764q0 -64 -41.5 -106t-105.5 -42q-37 0 -94 13v61q52 -17 90 -17q37 0 61.5 25t24.5 62v72l-328 579v-583h-65v700h63l330 -579v579z" />
    <glyph glyph-name="eng" unicode="&#x14b;" 
d="M352 509q93 0 143 -54t50 -151v-368q0 -63 -46 -105.5t-119 -42.5q-37 0 -77 9v60q38 -12 77 -12q49 0 76.5 26.5t27.5 61.5v371q0 71 -37 110t-101 39q-76 0 -121.5 -51t-45.5 -138v-264h-61v500h61v-95q53 104 173 104z" />
    <glyph glyph-name="Omacron" unicode="&#x14c;" 
d="M205 826v55h250v-55h-250zM330 710q133 0 201.5 -95t68.5 -266q0 -169 -68.5 -263.5t-201.5 -94.5t-201.5 94.5t-68.5 263.5q0 171 68.5 266t201.5 95zM330 654q-100 0 -150.5 -80t-50.5 -225q0 -143 50.5 -222.5t150.5 -79.5t151 80t51 222q0 145 -51 225t-151 80z" />
    <glyph glyph-name="omacron" unicode="&#x14d;" 
d="M206 684h248v-55h-248v55zM330 509q110 0 182 -74t72 -185t-72 -185t-182 -74q-109 0 -181 74t-72 185t72 185t181 74zM330 454q-82 0 -136.5 -58.5t-54.5 -145.5t54.5 -145.5t136.5 -58.5q83 0 137 58.5t54 145.5t-54 145.5t-137 58.5z" />
    <glyph glyph-name="Ohungarumlaut" unicode="&#x150;" 
d="M225 772l62 166h92l-97 -166h-57zM397 772l62 166h93l-98 -166h-57zM330 710q133 0 201.5 -95t68.5 -266q0 -169 -68.5 -263.5t-201.5 -94.5t-201.5 94.5t-68.5 263.5q0 171 68.5 266t201.5 95zM330 654q-100 0 -150.5 -80t-50.5 -225q0 -143 50.5 -222.5t150.5 -79.5
t151 80t51 222q0 145 -51 225t-151 80z" />
    <glyph glyph-name="ohungarumlaut" unicode="&#x151;" 
d="M224 571l59 152h92l-102 -152h-49zM386 571l60 152h92l-102 -152h-50zM330 509q110 0 182 -74t72 -185t-72 -185t-182 -74q-109 0 -181 74t-72 185t72 185t181 74zM330 454q-82 0 -136.5 -58.5t-54.5 -145.5t54.5 -145.5t136.5 -58.5q83 0 137 58.5t54 145.5t-54 145.5
t-137 58.5z" />
    <glyph glyph-name="OE" unicode="&#x152;" 
d="M617 643h-223v-258h200v-57h-200v-271h223v-57h-292q-129 0 -208 94.5t-79 255.5t79 255.5t208 94.5h292v-57zM332 57v586h-7q-98 0 -158 -78.5t-60 -214.5t60 -214.5t158 -78.5h7z" />
    <glyph glyph-name="oe" unicode="&#x153;" 
d="M362 238q3 -192 99 -192q72 0 92 114h62q-26 -169 -154 -169q-89 0 -130 84q-41 -84 -130 -84q-161 0 -161 259t161 259q89 0 130 -84q41 84 130 84q160 0 160 -255v-16h-259zM201 46q98 0 98 204t-98 204t-98 -204t98 -204zM461 454q-87 0 -98 -161h195q-11 161 -97 161
z" />
    <glyph glyph-name="Racute" unicode="&#x154;" 
d="M473 938l-133 -151h-54l83 151h104zM588 0h-78l-169 328h-160v-328h-66v700h253q93 0 152.5 -51t59.5 -130q0 -74 -47.5 -125.5t-125.5 -62.5zM181 644v-261h191q63 0 103 38.5t40 97.5q0 54 -40 89.5t-103 35.5h-191z" />
    <glyph glyph-name="racute" unicode="&#x155;" 
d="M535 723l-129 -146h-55l87 146h97zM321 368q29 72 94.5 105.5t179.5 33.5v-64q-86 4 -141 -10.5t-83.5 -51.5t-39 -84.5t-10.5 -122.5v-119h210v-55h-418v55h147v390h-147v55h208v-132z" />
    <glyph glyph-name="Rcommaaccent" unicode="&#x156;" 
d="M407 331l181 -331h-78l-169 328h-160v-328h-66v700h253q93 0 152.5 -51t59.5 -130q0 -74 -47.5 -125.5t-125.5 -62.5zM181 644v-261h191q63 0 103 38.5t40 97.5q0 54 -40 89.5t-103 35.5h-191zM257 -250l32 187h86l-71 -187h-47z" />
    <glyph glyph-name="rcommaaccent" unicode="&#x157;" 
d="M321 368q29 72 94.5 105.5t179.5 33.5v-64q-86 4 -141 -10.5t-83.5 -51.5t-39 -84.5t-10.5 -122.5v-119h210v-55h-418v55h147v390h-147v55h208v-132zM210 -250l32 187h86l-71 -187h-47z" />
    <glyph glyph-name="Rcaron" unicode="&#x158;" 
d="M361 773h-73l-106 166h58l85 -116l85 116h58zM588 0h-78l-169 328h-160v-328h-66v700h253q93 0 152.5 -51t59.5 -130q0 -74 -47.5 -125.5t-125.5 -62.5zM181 644v-261h191q63 0 103 38.5t40 97.5q0 54 -40 89.5t-103 35.5h-191z" />
    <glyph glyph-name="rcaron" unicode="&#x159;" 
d="M419 569h-73l-108 153h58l87 -103l86 103h58zM321 368q29 72 94.5 105.5t179.5 33.5v-64q-86 4 -141 -10.5t-83.5 -51.5t-39 -84.5t-10.5 -122.5v-119h210v-55h-418v55h147v390h-147v55h208v-132z" />
    <glyph glyph-name="Sacute" unicode="&#x15a;" 
d="M310 787l83 151h104l-133 -151h-54zM141 244q6 -99 62 -148t143 -49q76 0 121 36t45 102q0 55 -38.5 85t-138.5 56l-61.5 16.5t-53.5 17.5t-49.5 25t-34.5 32t-25.5 45.5t-7.5 59.5q0 92 58.5 140t160.5 48q108 0 172.5 -55t70.5 -172h-66q-13 171 -173 171
q-71 0 -113.5 -32.5t-42.5 -97.5q0 -33 10.5 -55t38.5 -38t53 -24t78 -22q42 -11 65 -18t59 -23.5t55.5 -35.5t34.5 -51t15 -73q0 -90 -64 -141.5t-171 -51.5q-119 0 -191 65t-78 188h66z" />
    <glyph glyph-name="sacute" unicode="&#x15b;" 
d="M298 577l87 146h97l-129 -146h-55zM478 351q-14 104 -151 104q-63 0 -99 -23t-36 -64q0 -57 85 -73l122 -21q72 -12 108 -44t36 -88q0 -71 -53 -111.5t-149 -40.5q-103 0 -164 47.5t-67 137.5h65q5 -64 48.5 -97t118.5 -33q66 0 102.5 24.5t36.5 68.5q0 66 -94 83
l-123 20q-135 23 -135 127q0 66 52.5 104t144.5 38q94 0 150.5 -41.5t64.5 -117.5h-63z" />
    <glyph glyph-name="Scedilla" unicode="&#x15e;" 
d="M579 184q0 -90 -63.5 -141.5t-170.5 -51.5l-17 -61h9q40 0 66.5 -24.5t26.5 -60.5q0 -38 -28 -63t-71 -25q-44 0 -74.5 26.5t-35.5 66.5l52 7q1 -25 16.5 -39.5t38.5 -14.5q21 0 34.5 11.5t13.5 30.5q0 20 -15.5 32.5t-45.5 12.5h-25l-13 27l27 76q-102 11 -163 75
t-66 176h66q6 -99 62 -148t143 -49q76 0 121 36t45 102q0 55 -38.5 85t-138.5 56l-61.5 16.5t-53.5 17.5t-49.5 25t-34.5 32t-25.5 45.5t-7.5 59.5q0 92 58.5 140t160.5 48q108 0 172.5 -55t70.5 -172h-66q-13 171 -173 171q-71 0 -113.5 -32.5t-42.5 -97.5q0 -33 10.5 -55
t38.5 -38t53 -24t78 -22q42 -11 65 -18t59 -23.5t55.5 -35.5t34.5 -51t15 -73z" />
    <glyph glyph-name="scedilla" unicode="&#x15f;" 
d="M543 142q0 -71 -53 -111.5t-148 -40.5l-17 -60h9q40 0 66.5 -24.5t26.5 -60.5q0 -38 -28 -63t-71 -25q-44 0 -74.5 26.5t-35.5 66.5l52 7q1 -25 16.5 -39.5t38.5 -14.5q21 0 34.5 11.5t13.5 30.5q0 20 -15.5 32.5t-45.5 12.5h-25l-13 27l27 75q-86 9 -136 55.5t-55 127.5
h65q5 -64 48.5 -97t118.5 -33q66 0 102.5 24.5t36.5 68.5q0 66 -94 83l-123 20q-135 23 -135 127q0 66 52.5 104t144.5 38q94 0 150.5 -41.5t64.5 -117.5h-63q-14 104 -151 104q-63 0 -99 -23t-36 -64q0 -57 85 -73l122 -21q72 -12 108 -44t36 -88z" />
    <glyph glyph-name="Scaron" unicode="&#x160;" 
d="M484 938l-107 -166h-73l-106 166h58l85 -116l85 116h58zM141 244q6 -99 62 -148t143 -49q76 0 121 36t45 102q0 55 -38.5 85t-138.5 56l-61.5 16.5t-53.5 17.5t-49.5 25t-34.5 32t-25.5 45.5t-7.5 59.5q0 92 58.5 140t160.5 48q108 0 172.5 -55t70.5 -172h-66
q-13 171 -173 171q-71 0 -113.5 -32.5t-42.5 -97.5q0 -33 10.5 -55t38.5 -38t53 -24t78 -22q42 -11 65 -18t59 -23.5t55.5 -35.5t34.5 -51t15 -73q0 -90 -64 -141.5t-171 -51.5q-119 0 -191 65t-78 188h66z" />
    <glyph glyph-name="scaron" unicode="&#x161;" 
d="M474 722l-108 -153h-73l-108 153h58l87 -103l86 103h58zM478 351q-14 104 -151 104q-63 0 -99 -23t-36 -64q0 -57 85 -73l122 -21q72 -12 108 -44t36 -88q0 -71 -53 -111.5t-149 -40.5q-103 0 -164 47.5t-67 137.5h65q5 -64 48.5 -97t118.5 -33q66 0 102.5 24.5
t36.5 68.5q0 66 -94 83l-123 20q-135 23 -135 127q0 66 52.5 104t144.5 38q94 0 150.5 -41.5t64.5 -117.5h-63z" />
    <glyph glyph-name="uni0162" unicode="&#x162;" 
d="M363 0h-15l-20 -70h9q40 0 66.5 -24.5t26.5 -60.5q0 -38 -28 -63t-71 -25q-44 0 -74.5 26.5t-35.5 66.5l52 7q1 -25 16.5 -39.5t38.5 -14.5q21 0 34.5 11.5t13.5 30.5q0 20 -15.5 32.5t-45.5 12.5h-25l-13 27l30 83h-10v643h-249v57h564v-57h-249v-643z" />
    <glyph glyph-name="uni0163" unicode="&#x163;" 
d="M604 445h-329v-274q0 -58 38 -91t107 -33q68 0 163 54v-67q-89 -43 -160 -43h-10l-17 -61h9q40 0 66.5 -24.5t26.5 -60.5q0 -38 -28 -63t-71 -25q-44 0 -74.5 26.5t-35.5 66.5l52 7q1 -25 16.5 -39.5t38.5 -14.5q21 0 34.5 11.5t13.5 30.5q0 20 -15.5 32.5t-45.5 12.5
h-25l-13 27l28 78q-76 11 -117.5 57.5t-41.5 118.5v274h-172v55h73q62 0 80.5 18t18.5 76v66h61v-160h329v-55z" />
    <glyph glyph-name="Tcaron" unicode="&#x164;" 
d="M375 772h-73l-106 166h58l85 -116l85 116h58zM612 700v-57h-249v-643h-66v643h-249v57h564z" />
    <glyph glyph-name="tcaron" unicode="&#x165;" 
d="M456 765l-48 -200h-47l20 200h75zM604 445h-329v-274q0 -58 38 -91t107 -33q68 0 163 54v-67q-89 -43 -160 -43q-98 0 -153.5 48t-55.5 132v274h-172v55h73q62 0 80.5 18t18.5 76v66h61v-160h329v-55z" />
    <glyph glyph-name="Tbar" unicode="&#x166;" 
d="M612 643h-249v-260h153v-53h-153v-330h-66v330h-155v53h155v260h-249v57h564v-57z" />
    <glyph glyph-name="tbar" unicode="&#x167;" 
d="M604 445h-329v-124h259v-50h-259v-100q0 -58 38 -91t107 -33q68 0 163 54v-67q-89 -43 -160 -43q-98 0 -153.5 48t-55.5 132v100h-172v50h172v124h-172v55h73q62 0 80.5 18t18.5 76v66h61v-160h329v-55z" />
    <glyph glyph-name="Umacron" unicode="&#x16a;" 
d="M455 881v-55h-250v55h250zM519 700h66v-459q0 -116 -69.5 -183.5t-185.5 -67.5t-185.5 67.5t-69.5 183.5v459h66v-459q0 -88 52 -141t137 -53t137 53t52 141v459z" />
    <glyph glyph-name="umacron" unicode="&#x16b;" 
d="M458 684v-55h-248v55h248zM542 500v-500h-61v95q-53 -104 -173 -104q-93 0 -143 54t-50 151v304h61v-304q0 -71 37 -110t101 -39q76 0 121.5 51t45.5 138v264h61z" />
    <glyph glyph-name="Uring" unicode="&#x16e;" 
d="M331 758q-41 0 -70 27t-29 68q0 40 29 67t70 27t70 -27t29 -67q0 -41 -29 -68t-70 -27zM331 906q-22 0 -37 -15.5t-15 -37.5q0 -23 15 -38t37 -15t37 15t15 38q0 22 -15 37.5t-37 15.5zM519 700h66v-459q0 -116 -69.5 -183.5t-185.5 -67.5t-185.5 67.5t-69.5 183.5v459
h66v-459q0 -88 52 -141t137 -53t137 53t52 141v459z" />
    <glyph glyph-name="uring" unicode="&#x16f;" 
d="M335 567q-41 0 -70 27t-29 67q0 41 29 68t70 27t70 -27t29 -68q0 -40 -29 -67t-70 -27zM335 715q-23 0 -38 -15.5t-15 -38.5t15 -38.5t38 -15.5t38 15.5t15 38.5t-15 38.5t-38 15.5zM542 500v-500h-61v95q-53 -104 -173 -104q-93 0 -143 54t-50 151v304h61v-304
q0 -71 37 -110t101 -39q76 0 121.5 51t45.5 138v264h61z" />
    <glyph glyph-name="Uhungarumlaut" unicode="&#x170;" 
d="M356 938l-97 -166h-57l62 166h92zM529 938l-98 -166h-57l62 166h93zM519 700h66v-459q0 -116 -69.5 -183.5t-185.5 -67.5t-185.5 67.5t-69.5 183.5v459h66v-459q0 -88 52 -141t137 -53t137 53t52 141v459z" />
    <glyph glyph-name="uhungarumlaut" unicode="&#x171;" 
d="M367 723l-102 -152h-49l59 152h92zM530 723l-102 -152h-50l60 152h92zM542 500v-500h-61v95q-53 -104 -173 -104q-93 0 -143 54t-50 151v304h61v-304q0 -71 37 -110t101 -39q76 0 121.5 51t45.5 138v264h61z" />
    <glyph glyph-name="Uogonek" unicode="&#x172;" 
d="M519 700h66v-459q0 -120 -74 -188q-69 -66 -90 -92t-21 -52q0 -21 13.5 -32.5t35.5 -11.5q33 0 58 10v-57q-33 -10 -65 -10q-49 0 -80 20.5t-31 58.5q0 29 19 54.5t67 59.5q-42 -11 -87 -11q-116 0 -185.5 67.5t-69.5 183.5v459h66v-459q0 -88 52 -141t137 -53t137 53
t52 141v459z" />
    <glyph glyph-name="uogonek" unicode="&#x173;" 
d="M509 -133q32 0 57 10v-57q-30 -10 -64 -10q-49 0 -76.5 24t-27.5 60q0 68 108 106h-25v95q-53 -104 -173 -104q-93 0 -143 54t-50 151v304h61v-304q0 -71 37 -110t101 -39q76 0 121.5 51t45.5 138v264h61v-500q-4 -3 -18 -13t-18 -13t-14.5 -11t-14 -12.5t-9 -12
t-7 -14.5t-1.5 -15q0 -19 13 -30.5t36 -11.5z" />
    <glyph glyph-name="Wcircumflex" unicode="&#x174;" 
d="M330 888l-85 -116h-58l106 166h73l107 -166h-58zM547 700h66l-99 -700h-66l-119 494l-117 -494h-66l-99 700h66l78 -576l106 446h66l106 -446z" />
    <glyph glyph-name="wcircumflex" unicode="&#x175;" 
d="M331 673l-87 -103h-58l108 153h73l108 -153h-58zM540 500h63l-91 -500h-66l-116 346l-115 -346h-67l-91 500h63l69 -414l112 324h59l111 -324z" />
    <glyph glyph-name="Ycircumflex" unicode="&#x176;" 
d="M330 888l-85 -116h-58l106 166h73l107 -166h-58zM607 700l-243 -427v-273h-67v271l-243 429h76l200 -374l201 374h76z" />
    <glyph glyph-name="ycircumflex" unicode="&#x177;" 
d="M337 673l-87 -103h-58l108 153h73l108 -153h-58zM517 500h71l-246 -596q-23 -56 -68 -85t-101 -29q-59 0 -112 24v63q56 -31 112 -31q85 0 119 82l23 59l-240 513h69l200 -439z" />
    <glyph glyph-name="Ydieresis" unicode="&#x178;" 
d="M265 916v-112h-87v112h87zM482 916v-112h-87v112h87zM607 700l-243 -427v-273h-67v271l-243 429h76l200 -374l201 374h76z" />
    <glyph glyph-name="Zacute" unicode="&#x179;" 
d="M477 938l-133 -151h-54l83 151h104zM158 57h424v-57h-504v54l424 589h-424v57h501v-53z" />
    <glyph glyph-name="zacute" unicode="&#x17a;" 
d="M481 723l-129 -146h-55l87 146h97zM185 55h373v-55h-452v51l369 394h-369v55h444v-51z" />
    <glyph glyph-name="Zdotaccent" unicode="&#x17b;" 
d="M369 919v-115h-87v115h87zM158 57h424v-57h-504v54l424 589h-424v57h501v-53z" />
    <glyph glyph-name="zdotaccent" unicode="&#x17c;" 
d="M372 705v-113h-88v113h88zM185 55h373v-55h-452v51l369 394h-369v55h444v-51z" />
    <glyph glyph-name="Zcaron" unicode="&#x17d;" 
d="M370 772h-73l-106 166h58l85 -116l85 116h58zM158 57h424v-57h-504v54l424 589h-424v57h501v-53z" />
    <glyph glyph-name="zcaron" unicode="&#x17e;" 
d="M365 569h-73l-108 153h58l87 -103l86 103h58zM185 55h373v-55h-452v51l369 394h-369v55h444v-51z" />
    <glyph glyph-name="Scommaaccent" unicode="&#x218;" 
d="M141 244q6 -99 62 -148t143 -49q76 0 121 36t45 102q0 55 -38.5 85t-138.5 56l-61.5 16.5t-53.5 17.5t-49.5 25t-34.5 32t-25.5 45.5t-7.5 59.5q0 92 58.5 140t160.5 48q108 0 172.5 -55t70.5 -172h-66q-13 171 -173 171q-71 0 -113.5 -32.5t-42.5 -97.5q0 -33 10.5 -55
t38.5 -38t53 -24t78 -22q42 -11 65 -18t59 -23.5t55.5 -35.5t34.5 -51t15 -73q0 -90 -64 -141.5t-171 -51.5q-119 0 -191 65t-78 188h66zM251 -250l32 187h86l-71 -187h-47z" />
    <glyph glyph-name="scommaaccent" unicode="&#x219;" 
d="M478 351q-14 104 -151 104q-63 0 -99 -23t-36 -64q0 -57 85 -73l122 -21q72 -12 108 -44t36 -88q0 -71 -53 -111.5t-149 -40.5q-103 0 -164 47.5t-67 137.5h65q5 -64 48.5 -97t118.5 -33q66 0 102.5 24.5t36.5 68.5q0 66 -94 83l-123 20q-135 23 -135 127q0 66 52.5 104
t144.5 38q94 0 150.5 -41.5t64.5 -117.5h-63zM260 -250l32 187h86l-71 -187h-47z" />
    <glyph glyph-name="uni021A" unicode="&#x21a;" 
d="M48 700h564v-57h-249v-643h-66v643h-249v57zM251 -250l32 187h86l-71 -187h-47z" />
    <glyph glyph-name="uni021B" unicode="&#x21b;" 
d="M604 445h-329v-274q0 -58 38 -91t107 -33q68 0 163 54v-67q-89 -43 -160 -43q-98 0 -153.5 48t-55.5 132v274h-172v55h73q62 0 80.5 18t18.5 76v66h61v-160h329v-55zM319 -250l32 187h86l-71 -187h-47z" />
    <glyph glyph-name="circumflex" unicode="&#x2c6;" 
d="M475 570h-58l-86 103l-87 -103h-58l108 153h73z" />
    <glyph glyph-name="caron" unicode="&#x2c7;" 
d="M476 722l-108 -153h-73l-108 153h58l87 -103l86 103h58z" />
    <glyph glyph-name="breve" unicode="&#x2d8;" 
d="M328 582q-60 0 -98 36t-39 98h64q0 -39 20.5 -61.5t52.5 -22.5q34 0 56.5 23t22.5 61h62q-1 -62 -40 -98t-101 -36z" />
    <glyph glyph-name="dotaccent" unicode="&#x2d9;" 
d="M286 592v113h88v-113h-88z" />
    <glyph glyph-name="ring" unicode="&#x2da;" 
d="M330 567q-41 0 -70 27t-29 67q0 41 29 68t70 27t70 -27t29 -68q0 -40 -29 -67t-70 -27zM330 607q23 0 38 15.5t15 38.5t-15 38.5t-38 15.5t-38 -15.5t-15 -38.5t15 -38.5t38 -15.5z" />
    <glyph glyph-name="ogonek" unicode="&#x2db;" 
d="M215 -106q0 36 34.5 66.5t103.5 48.5l6 -9q-4 -3 -18 -13t-18 -13t-14.5 -11t-14 -12.5t-9 -12t-7 -14.5t-1.5 -15q0 -19 13 -30.5t36 -11.5q32 0 57 10v-57q-30 -10 -64 -10q-49 0 -76.5 24t-27.5 60z" />
    <glyph glyph-name="tilde" unicode="&#x2dc;" 
d="M389 607q-32 0 -64 25t-51 25q-39 0 -42 -46h-61q2 51 30.5 76.5t70.5 25.5q33 0 63.5 -24.5t49.5 -24.5q41 0 43 45h60q-1 -50 -28.5 -76t-70.5 -26z" />
    <glyph glyph-name="hungarumlaut" unicode="&#x2dd;" 
d="M190 571l59 152h92l-102 -152h-49zM352 571l60 152h92l-102 -152h-50z" />
    <glyph glyph-name="gravecomb" unicode="&#x300;" horiz-adv-x="0" 
d="M-295 787h-54l-133 151h104z" />
    <glyph glyph-name="acutecomb" unicode="&#x301;" horiz-adv-x="0" 
d="M-369 787l83 151h104l-133 -151h-54z" />
    <glyph glyph-name="uni0302" unicode="&#x302;" horiz-adv-x="0" 
d="M-187 772h-58l-85 116l-85 -116h-58l106 166h73z" />
    <glyph glyph-name="tildecomb" unicode="&#x303;" horiz-adv-x="0" 
d="M-267 796q-34 0 -68 27.5t-55 27.5q-41 0 -44 -48h-59q2 50 30 76.5t70 26.5q34 0 68.5 -27t56.5 -27q38 0 42 48h58q-1 -49 -28.5 -76.5t-70.5 -27.5z" />
    <glyph glyph-name="uni0304" unicode="&#x304;" horiz-adv-x="0" 
d="M-455 826v55h250v-55h-250z" />
    <glyph glyph-name="uni0306" unicode="&#x306;" horiz-adv-x="0" 
d="M-332 785q-59 0 -97.5 37t-39.5 97h64q1 -38 21 -60t52 -22q34 0 55.5 22t23.5 60h62q0 -60 -39.5 -97t-101.5 -37z" />
    <glyph glyph-name="uni0307" unicode="&#x307;" horiz-adv-x="0" 
d="M-380 804v115h87v-115h-87z" />
    <glyph glyph-name="uni0308" unicode="&#x308;" horiz-adv-x="0" 
d="M-482 804v112h87v-112h-87zM-265 804v112h87v-112h-87z" />
    <glyph glyph-name="uni030A" unicode="&#x30a;" horiz-adv-x="0" 
d="M-330 758q-41 0 -70 27t-29 68q0 40 29 67t70 27t70 -27t29 -67q0 -41 -29 -68t-70 -27zM-330 800q22 0 37 15t15 38q0 22 -15 37.5t-37 15.5t-37 -15.5t-15 -37.5q0 -23 15 -38t37 -15z" />
    <glyph glyph-name="uni030B" unicode="&#x30b;" horiz-adv-x="0" 
d="M-465 772l62 166h92l-97 -166h-57zM-293 772l62 166h93l-98 -166h-57z" />
    <glyph glyph-name="uni030C" unicode="&#x30c;" horiz-adv-x="0" 
d="M-187 938l-107 -166h-73l-106 166h58l85 -116l85 116h58z" />
    <glyph glyph-name="uni0312" unicode="&#x312;" horiz-adv-x="0" 
d="M-297 758l-32 -187h-86l71 187h47z" />
    <glyph glyph-name="uni0326" unicode="&#x326;" horiz-adv-x="0" 
d="M-412 -250l32 187h86l-71 -187h-47z" />
    <glyph glyph-name="uni0327" unicode="&#x327;" horiz-adv-x="0" 
d="M-267 -83l30 83h41l-20 -70h9q40 0 66.5 -24.5t26.5 -60.5q0 -38 -28 -63t-71 -25q-44 0 -74.5 26.5t-35.5 66.5l52 7q1 -25 16.5 -39.5t38.5 -14.5q21 0 34.5 11.5t13.5 30.5q0 20 -15.5 32.5t-45.5 12.5h-25z" />
    <glyph glyph-name="uni0328" unicode="&#x328;" horiz-adv-x="0" 
d="M-414 -111q0 39 34.5 73t138.5 100l7 -7q-69 -66 -90 -92t-21 -52q0 -21 13.5 -32.5t35.5 -11.5q33 0 58 10v-57q-32 -10 -65 -10q-49 0 -80 20.5t-31 58.5z" />
    <glyph glyph-name="uni0335" unicode="&#x335;" horiz-adv-x="0" 
d="M-517 415h374v-50h-374v50z" />
    <glyph glyph-name="uni0336" unicode="&#x336;" horiz-adv-x="0" 
d="M-517 420h374v-58h-374v58z" />
    <glyph glyph-name="uni0337" unicode="&#x337;" horiz-adv-x="0" 
d="M-122 536l33 -27l-462 -538l-31 28z" />
    <glyph glyph-name="uni0338" unicode="&#x338;" horiz-adv-x="0" 
d="M-76 684l38 -34l-542 -626l-37 34z" />
    <glyph glyph-name="uni03BC" unicode="&#x3bc;" 
d="M555 500v-500h-61v95q-53 -104 -173 -104q-84 0 -133 44v-235h-60v700h61v-304q0 -71 37 -110t101 -39q76 0 121.5 51t45.5 138v264h61z" />
    <glyph glyph-name="Wgrave" unicode="&#x1e80;" 
d="M370 787h-54l-133 151h104zM547 700h66l-99 -700h-66l-119 494l-117 -494h-66l-99 700h66l78 -576l106 446h66l106 -446z" />
    <glyph glyph-name="wgrave" unicode="&#x1e81;" 
d="M357 577h-55l-129 146h97zM540 500h63l-91 -500h-66l-116 346l-115 -346h-67l-91 500h63l69 -414l112 324h59l111 -324z" />
    <glyph glyph-name="Wacute" unicode="&#x1e82;" 
d="M495 938l-133 -151h-54l83 151h104zM547 700h66l-99 -700h-66l-119 494l-117 -494h-66l-99 700h66l78 -576l106 446h66l106 -446z" />
    <glyph glyph-name="wacute" unicode="&#x1e83;" 
d="M492 723l-129 -146h-55l87 146h97zM540 500h63l-91 -500h-66l-116 346l-115 -346h-67l-91 500h63l69 -414l112 324h59l111 -324z" />
    <glyph glyph-name="Wdieresis" unicode="&#x1e84;" 
d="M265 916v-112h-87v112h87zM482 916v-112h-87v112h87zM547 700h66l-99 -700h-66l-119 494l-117 -494h-66l-99 700h66l78 -576l106 446h66l106 -446z" />
    <glyph glyph-name="wdieresis" unicode="&#x1e85;" 
d="M275 705v-113h-87v113h87zM472 705v-113h-87v113h87zM540 500h63l-91 -500h-66l-116 346l-115 -346h-67l-91 500h63l69 -414l112 324h59l111 -324z" />
    <glyph glyph-name="Ygrave" unicode="&#x1ef2;" 
d="M368 787h-54l-133 151h104zM607 700l-243 -427v-273h-67v271l-243 429h76l200 -374l201 374h76z" />
    <glyph glyph-name="ygrave" unicode="&#x1ef3;" 
d="M375 577h-55l-129 146h97zM517 500h71l-246 -596q-23 -56 -68 -85t-101 -29q-59 0 -112 24v63q56 -31 112 -31q85 0 119 82l23 59l-240 513h69l200 -439z" />
    <glyph glyph-name="endash" unicode="&#x2013;" 
d="M105 305h450v-52h-450v52z" />
    <glyph glyph-name="emdash" unicode="&#x2014;" 
d="M70 305h520v-52h-520v52z" />
    <glyph glyph-name="quoteleft" unicode="&#x2018;" 
d="M380 701l-24 -245h-103l78 245h49z" />
    <glyph glyph-name="quoteright" unicode="&#x2019;" 
d="M278 455l24 245h103l-78 -245h-49z" />
    <glyph glyph-name="quotesinglbase" unicode="&#x201a;" 
d="M251 -142l24 245h103l-78 -245h-49z" />
    <glyph glyph-name="quotedblleft" unicode="&#x201c;" 
d="M306 701l-24 -245h-103l78 245h49zM474 701l-24 -245h-103l78 245h49z" />
    <glyph glyph-name="quotedblright" unicode="&#x201d;" 
d="M179 455l24 245h103l-78 -245h-49zM347 455l24 245h103l-78 -245h-49z" />
    <glyph glyph-name="quotedblbase" unicode="&#x201e;" 
d="M186 -142l24 245h103l-78 -245h-49zM354 -142l24 245h103l-78 -245h-49z" />
    <glyph glyph-name="dagger" unicode="&#x2020;" 
d="M481 616v-55h-123v-246h-55v246h-123v55h123v127h55v-127h123z" />
    <glyph glyph-name="daggerdbl" unicode="&#x2021;" 
d="M481 573h-123v-95h123v-55h-123v-108h-55v108h-123v55h123v95h-123v55h123v115h55v-115h123v-55z" />
    <glyph glyph-name="bullet" unicode="&#x2022;" 
d="M330 189q-55 0 -94 39t-39 93v2q0 54 39 93t94 39t94 -39t39 -93v-2q0 -54 -39 -93t-94 -39z" />
    <glyph glyph-name="ellipsis" unicode="&#x2026;" 
d="M63 -3v117h103v-117h-103zM281 -3v117h103v-117h-103zM498 -3v117h103v-117h-103z" />
    <glyph glyph-name="perthousand" unicode="&#x2030;" 
d="M163 431q-56 0 -91.5 39t-35.5 100t35.5 100t91.5 39t92.5 -39t36.5 -100t-36.5 -100t-92.5 -39zM163 475q35 0 57.5 26.5t22.5 68.5t-22.5 68.5t-57.5 26.5t-57 -26.5t-22 -68.5t22 -68.5t57 -26.5zM27 277l-12 40l618 193l12 -38zM224 -9q-56 0 -91.5 39t-35.5 100
t35.5 100t91.5 39t92.5 -39t36.5 -100t-36.5 -100t-92.5 -39zM512 -9q-56 0 -91.5 39t-35.5 100t35.5 100t91.5 39t92 -39t36 -100t-36 -100t-92 -39zM224 35q35 0 57.5 26.5t22.5 68.5q0 41 -22.5 67.5t-57.5 26.5t-57 -26.5t-22 -67.5q0 -42 22 -68.5t57 -26.5zM512 35
q36 0 58.5 26.5t22.5 68.5q0 41 -22.5 67.5t-58.5 26.5q-35 0 -57 -26.5t-22 -67.5q0 -42 22 -68.5t57 -26.5z" />
    <glyph glyph-name="guilsinglleft" unicode="&#x2039;" 
d="M271 261l150 -173h-78l-143 173l143 173h78z" />
    <glyph glyph-name="guilsinglright" unicode="&#x203a;" 
d="M389 261l-150 173h79l142 -173l-142 -173h-79z" />
    <glyph glyph-name="fraction" unicode="&#x2044;" 
d="M421 436l-31 22l176 254l47 -33zM95 -9l-46 33l192 243l30 -23z" />
    <glyph glyph-name="uni2070" unicode="&#x2070;" 
d="M330 709q70 0 111.5 -50t41.5 -133q0 -79 -42 -131t-111 -52q-68 0 -110 52t-42 131t42 131t110 52zM330 665q-45 0 -70 -37t-25 -102q0 -25 5 -50l166 143q-25 46 -76 46zM330 387q46 0 70.5 37t24.5 102q0 28 -5 55l-167 -145q25 -49 77 -49z" />
    <glyph glyph-name="uni2074" unicode="&#x2074;" 
d="M473 468v-43h-62v-79h-50v79h-185l-9 35q77 124 98 240h60q-22 -110 -96 -232h132l2 135h48v-135h62z" />
    <glyph glyph-name="uni2075" unicode="&#x2075;" 
d="M344 579q53 0 88 -33.5t35 -84.5q0 -53 -38.5 -87.5t-99.5 -34.5q-56 0 -92.5 30.5t-43.5 85.5h53q4 -35 27 -53.5t58 -18.5q37 0 59 21.5t22 55.5q0 35 -22 58t-58 23q-28 0 -49 -12.5t-29 -29.5l-51 10l11 191h239v-44h-196l-10 -124q33 47 97 47z" />
    <glyph glyph-name="uni2076" unicode="&#x2076;" 
d="M338 582q50 0 85.5 -33.5t35.5 -83.5q0 -53 -38.5 -87.5t-95.5 -34.5q-66 0 -103 44q-38 41 -38 127q0 93 37.5 144t104.5 51q46 0 82 -24t42 -76h-53q-8 57 -67 57q-45 0 -68.5 -39.5t-21.5 -104.5q9 26 35 43t63 17zM326 385q35 0 58 21.5t23 57.5q0 35 -22.5 56
t-58.5 21t-59 -21.5t-23 -55.5t23.5 -56.5t58.5 -22.5z" />
    <glyph glyph-name="uni2077" unicode="&#x2077;" 
d="M194 700h279v-34q-65 -58 -99.5 -134t-39.5 -183h-60v2q5 106 40 177t101 128h-221v44z" />
    <glyph glyph-name="uni2078" unicode="&#x2078;" 
d="M385 539q38 -9 60 -33.5t22 -58.5q0 -47 -38.5 -75t-98.5 -28q-59 0 -97.5 27.5t-38.5 75.5q0 34 21 58.5t61 33.5q-68 17 -68 80q0 42 34.5 66t87.5 24t87.5 -24t34.5 -66q0 -62 -67 -80zM257 613q0 -27 21 -43t52 -16t52 16t21 43q0 26 -21 41.5t-52 15.5t-52 -15.5
t-21 -41.5zM330 385q35 0 58 17.5t23 46.5t-22.5 48.5t-58.5 19.5q-34 0 -57 -19t-23 -48q0 -30 22.5 -47.5t57.5 -17.5z" />
    <glyph glyph-name="uni2079" unicode="&#x2079;" 
d="M438 658q38 -41 38 -127q0 -93 -37.5 -144t-104.5 -51q-46 0 -82 24t-42 76h53q8 -57 67 -57q45 0 68.5 39.5t21.5 104.5q-9 -26 -35 -43t-63 -17q-50 0 -85.5 33.5t-35.5 83.5q0 53 38.5 87.5t95.5 34.5q66 0 103 -44zM334 504q36 0 59 21.5t23 55.5t-23.5 56.5
t-58.5 22.5t-58 -21.5t-23 -57.5q0 -35 22.5 -56t58.5 -21z" />
    <glyph glyph-name="uni2080" unicode="&#x2080;" 
d="M330 219q70 0 111.5 -50t41.5 -133q0 -79 -42 -131t-111 -52q-68 0 -110 52t-42 131t42 131t110 52zM330 175q-45 0 -70 -37t-25 -102q0 -25 5 -50l166 143q-25 46 -76 46zM330 -103q46 0 70.5 37t24.5 102q0 28 -5 55l-167 -145q25 -49 77 -49z" />
    <glyph glyph-name="uni2081" unicode="&#x2081;" 
d="M363 -99h124v-44h-306v44h128v262l-125 -53v57l136 44h43v-310z" />
    <glyph glyph-name="uni2082" unicode="&#x2082;" 
d="M276 -97h183v-45h-269v33l136 108q37 30 53.5 54.5t16.5 53.5q0 30 -19.5 49.5t-51.5 19.5q-75 0 -81 -83h-54q4 61 40 93.5t95 32.5q55 0 90.5 -31.5t35.5 -80.5q0 -40 -25 -72.5t-72 -70.5z" />
    <glyph glyph-name="uni2083" unicode="&#x2083;" 
d="M334 63q58 -1 94 -29.5t36 -74.5q0 -47 -37 -78t-93 -31q-58 0 -97.5 34.5t-41.5 87.5h52q2 -34 26.5 -56.5t59.5 -22.5q34 0 56.5 18.5t22.5 47.5t-22.5 46t-60.5 17h-43l-15 41l115 103h-179v44h249v-44z" />
    <glyph glyph-name="uni2084" unicode="&#x2084;" 
d="M473 -22v-43h-62v-79h-50v79h-185l-9 35q77 124 98 240h60q-22 -110 -96 -232h132l2 135h48v-135h62z" />
    <glyph glyph-name="uni2085" unicode="&#x2085;" 
d="M344 89q53 0 88 -33.5t35 -84.5q0 -53 -38.5 -87.5t-99.5 -34.5q-56 0 -92.5 30.5t-43.5 85.5h53q4 -35 27 -53.5t58 -18.5q37 0 59 21.5t22 55.5q0 35 -22 58t-58 23q-28 0 -49 -12.5t-29 -29.5l-51 10l11 191h239v-44h-196l-10 -124q33 47 97 47z" />
    <glyph glyph-name="uni2086" unicode="&#x2086;" 
d="M338 92q50 0 85.5 -33.5t35.5 -83.5q0 -53 -38.5 -87.5t-95.5 -34.5q-66 0 -103 44q-38 41 -38 127q0 93 37.5 144t104.5 51q46 0 82 -24t42 -76h-53q-8 57 -67 57q-45 0 -68.5 -39.5t-21.5 -104.5q9 26 35 43t63 17zM326 -105q35 0 58 21.5t23 57.5q0 35 -22.5 56
t-58.5 21t-59 -21.5t-23 -55.5t23.5 -56.5t58.5 -22.5z" />
    <glyph glyph-name="uni2087" unicode="&#x2087;" 
d="M194 210h279v-34q-65 -58 -99.5 -134t-39.5 -183h-60v2q5 106 40 177t101 128h-221v44z" />
    <glyph glyph-name="uni2088" unicode="&#x2088;" 
d="M385 49q38 -9 60 -33.5t22 -58.5q0 -47 -38.5 -75t-98.5 -28q-59 0 -97.5 27.5t-38.5 75.5q0 34 21 58.5t61 33.5q-68 17 -68 80q0 42 34.5 66t87.5 24t87.5 -24t34.5 -66q0 -62 -67 -80zM257 123q0 -27 21 -43t52 -16t52 16t21 43q0 26 -21 41.5t-52 15.5t-52 -15.5
t-21 -41.5zM330 -105q35 0 58 17.5t23 46.5t-22.5 48.5t-58.5 19.5q-34 0 -57 -19t-23 -48q0 -30 22.5 -47.5t57.5 -17.5z" />
    <glyph glyph-name="uni2089" unicode="&#x2089;" 
d="M438 176q38 -41 38 -127q0 -93 -37.5 -144t-104.5 -51q-46 0 -82 24t-42 76h53q8 -57 67 -57q45 0 68.5 39.5t21.5 104.5q-9 -26 -35 -43t-63 -17q-50 0 -85.5 33.5t-35.5 83.5q0 53 38.5 87.5t95.5 34.5q66 0 103 -44zM334 22q36 0 59 21.5t23 55.5t-23.5 56.5
t-58.5 22.5t-58 -21.5t-23 -57.5q0 -35 22.5 -56t58.5 -21z" />
    <glyph glyph-name="Euro" unicode="&#x20ac;" 
d="M358 44q148 0 176 167h63q-15 -107 -76.5 -165t-162.5 -58q-111 0 -179 69t-87 193h-64v48h59q-2 34 -2 52q0 20 2 54h-59v48h65q19 123 87 191.5t179 68.5q105 0 167.5 -62t74.5 -173h-62q-12 87 -57.5 133.5t-121.5 46.5q-83 0 -135 -54t-70 -151h305v-48h-311
q-2 -34 -2 -54q0 -18 2 -52h311v-48h-305q17 -98 69 -152t134 -54z" />
    <glyph glyph-name="uni2117" unicode="&#x2117;" 
d="M331 712q135 0 223 -101.5t88 -258.5q0 -158 -88.5 -261t-224.5 -103q-135 0 -223 102.5t-88 259.5q0 158 88.5 260t224.5 102zM329 29q119 0 194 90.5t75 231.5q0 140 -74 230t-193 90t-194 -90.5t-75 -230.5t74.5 -230.5t192.5 -90.5zM359 553q67 0 106 -32.5t39 -87.5
q0 -56 -39 -89t-106 -33h-101v-163h-49v405h150zM359 354q44 0 70.5 21.5t26.5 57.5q0 35 -26.5 56t-70.5 21h-101v-156h101z" />
    <glyph glyph-name="trademark" unicode="&#x2122;" 
d="M277 700v-44h-104v-287h-50v287h-104v44h258zM566 700h44v-331h-50v245l-93 -127h-12l-94 129v-247h-50v331h45l105 -152z" />
    <glyph glyph-name="uni2150" unicode="&#x2150;" 
d="M613 679l-192 -243l-31 22l176 254zM203 701v-310h124v-44h-306v44h128v262l-125 -53v57l136 44h43zM354 351h279v-34q-65 -58 -99.5 -134t-39.5 -183h-60v2q5 106 40 177t101 128h-221v44zM49 24l192 243l30 -23l-176 -253z" />
    <glyph glyph-name="uni2151" unicode="&#x2151;" 
d="M613 679l-192 -243l-31 22l176 254zM203 701v-310h124v-44h-306v44h128v262l-125 -53v57l136 44h43zM598 312q38 -41 38 -127q0 -93 -37.5 -144t-104.5 -51q-46 0 -82 24t-42 76h53q8 -57 67 -57q45 0 68.5 39.5t21.5 104.5q-9 -26 -35 -43t-63 -17q-50 0 -85.5 33.5
t-35.5 83.5q0 53 38.5 87.5t95.5 34.5q66 0 103 -44zM494 158q36 0 59 21.5t23 55.5t-23.5 56.5t-58.5 22.5t-58 -21.5t-23 -57.5q0 -35 22.5 -56t58.5 -21zM49 24l192 243l30 -23l-176 -253z" />
    <glyph glyph-name="uni2153" unicode="&#x2153;" 
d="M613 679l-192 -243l-31 22l176 254zM205 701v-310h124v-44h-306v44h128v262l-125 -53v57l136 44h43zM502 203q58 -1 94 -29.5t36 -74.5q0 -47 -37 -78t-93 -31q-58 0 -97.5 34.5t-41.5 87.5h52q2 -34 26.5 -56.5t59.5 -22.5q34 0 56.5 18.5t22.5 47.5t-22.5 46t-60.5 17
h-43l-15 41l115 103h-179v44h249v-44zM49 24l192 243l30 -23l-176 -253z" />
    <glyph glyph-name="uni2154" unicode="&#x2154;" 
d="M613 679l-192 -243l-31 22l176 254zM194 454l-78 -61h183v-45h-269v33l136 108q37 30 53.5 54.5t16.5 53.5q0 30 -19.5 49.5t-51.5 19.5q-75 0 -81 -83h-54q4 61 40 93.5t95 32.5q55 0 90.5 -31.5t35.5 -80.5q0 -40 -25 -72.5t-72 -70.5zM494 203q58 -1 94 -29.5
t36 -74.5q0 -47 -37 -78t-93 -31q-58 0 -97.5 34.5t-41.5 87.5h52q2 -34 26.5 -56.5t59.5 -22.5q34 0 56.5 18.5t22.5 47.5t-22.5 46t-60.5 17h-43l-15 41l115 103h-179v44h249v-44zM49 24l192 243l30 -23l-176 -253z" />
    <glyph glyph-name="uni2155" unicode="&#x2155;" 
d="M613 679l-192 -243l-31 22l176 254zM203 701v-310h124v-44h-306v44h128v262l-125 -53v57l136 44h43zM504 230q53 0 88 -33.5t35 -84.5q0 -53 -38.5 -87.5t-99.5 -34.5q-56 0 -92.5 30.5t-43.5 85.5h53q4 -35 27 -53.5t58 -18.5q37 0 59 21.5t22 55.5q0 35 -22 58t-58 23
q-28 0 -49 -12.5t-29 -29.5l-51 10l11 191h239v-44h-196l-10 -124q33 47 97 47zM49 24l192 243l30 -23l-176 -253z" />
    <glyph glyph-name="uni2156" unicode="&#x2156;" 
d="M613 679l-192 -243l-31 22l176 254zM194 454l-78 -61h183v-45h-269v33l136 108q37 30 53.5 54.5t16.5 53.5q0 30 -19.5 49.5t-51.5 19.5q-75 0 -81 -83h-54q4 61 40 93.5t95 32.5q55 0 90.5 -31.5t35.5 -80.5q0 -40 -25 -72.5t-72 -70.5zM504 230q53 0 88 -33.5t35 -84.5
q0 -53 -38.5 -87.5t-99.5 -34.5q-56 0 -92.5 30.5t-43.5 85.5h53q4 -35 27 -53.5t58 -18.5q37 0 59 21.5t22 55.5q0 35 -22 58t-58 23q-28 0 -49 -12.5t-29 -29.5l-51 10l11 191h239v-44h-196l-10 -124q33 47 97 47zM49 24l192 243l30 -23l-176 -253z" />
    <glyph glyph-name="uni2157" unicode="&#x2157;" 
d="M613 679l-192 -243l-31 22l176 254zM174 553q58 -1 94 -29.5t36 -74.5q0 -47 -37 -78t-93 -31q-58 0 -97.5 34.5t-41.5 87.5h52q2 -34 26.5 -56.5t59.5 -22.5q34 0 56.5 18.5t22.5 47.5t-22.5 46t-60.5 17h-43l-15 41l115 103h-179v44h249v-44zM504 230q53 0 88 -33.5
t35 -84.5q0 -53 -38.5 -87.5t-99.5 -34.5q-56 0 -92.5 30.5t-43.5 85.5h53q4 -35 27 -53.5t58 -18.5q37 0 59 21.5t22 55.5q0 35 -22 58t-58 23q-28 0 -49 -12.5t-29 -29.5l-51 10l11 191h239v-44h-196l-10 -124q33 47 97 47zM49 24l192 243l30 -23l-176 -253z" />
    <glyph glyph-name="uni2158" unicode="&#x2158;" 
d="M613 679l-192 -243l-31 22l176 254zM251 603v-135h62v-43h-62v-79h-50v79h-185l-9 35q77 124 98 240h60q-22 -110 -96 -232h132l2 135h48zM504 230q53 0 88 -33.5t35 -84.5q0 -53 -38.5 -87.5t-99.5 -34.5q-56 0 -92.5 30.5t-43.5 85.5h53q4 -35 27 -53.5t58 -18.5
q37 0 59 21.5t22 55.5q0 35 -22 58t-58 23q-28 0 -49 -12.5t-29 -29.5l-51 10l11 191h239v-44h-196l-10 -124q33 47 97 47zM49 24l192 243l30 -23l-176 -253z" />
    <glyph glyph-name="uni2159" unicode="&#x2159;" 
d="M613 679l-192 -243l-31 22l176 254zM203 701v-310h124v-44h-306v44h128v262l-125 -53v57l136 44h43zM498 229q50 0 85.5 -33.5t35.5 -83.5q0 -53 -38.5 -87.5t-95.5 -34.5q-66 0 -103 44q-38 41 -38 127q0 93 37.5 144t104.5 51q46 0 82 -24t42 -76h-53q-8 57 -67 57
q-45 0 -68.5 -39.5t-21.5 -104.5q9 26 35 43t63 17zM49 24l192 243l30 -23l-176 -253zM486 32q35 0 58 21.5t23 57.5q0 35 -22.5 56t-58.5 21t-59 -21.5t-23 -55.5t23.5 -56.5t58.5 -22.5z" />
    <glyph glyph-name="uni215A" unicode="&#x215a;" 
d="M613 679l-192 -243l-31 22l176 254zM184 579q53 0 88 -33.5t35 -84.5q0 -53 -38.5 -87.5t-99.5 -34.5q-56 0 -92.5 30.5t-43.5 85.5h53q4 -35 27 -53.5t58 -18.5q37 0 59 21.5t22 55.5q0 35 -22 58t-58 23q-28 0 -49 -12.5t-29 -29.5l-51 10l11 191h239v-44h-196
l-10 -124q33 47 97 47zM498 229q50 0 85.5 -33.5t35.5 -83.5q0 -53 -38.5 -87.5t-95.5 -34.5q-66 0 -103 44q-38 41 -38 127q0 93 37.5 144t104.5 51q46 0 82 -24t42 -76h-53q-8 57 -67 57q-45 0 -68.5 -39.5t-21.5 -104.5q9 26 35 43t63 17zM49 24l192 243l30 -23
l-176 -253zM486 32q35 0 58 21.5t23 57.5q0 35 -22.5 56t-58.5 21t-59 -21.5t-23 -55.5t23.5 -56.5t58.5 -22.5z" />
    <glyph glyph-name="oneeighth" unicode="&#x215b;" 
d="M613 679l-192 -243l-31 22l176 254zM203 701v-310h124v-44h-306v44h128v262l-125 -53v57l136 44h43zM545 185q38 -9 60 -33.5t22 -58.5q0 -47 -38.5 -75t-98.5 -28q-59 0 -97.5 27.5t-38.5 75.5q0 34 21 58.5t61 33.5q-68 17 -68 80q0 42 34.5 66t87.5 24t87.5 -24
t34.5 -66q0 -62 -67 -80zM417 259q0 -27 21 -43t52 -16t52 16t21 43q0 26 -21 41.5t-52 15.5t-52 -15.5t-21 -41.5zM49 24l192 243l30 -23l-176 -253zM490 31q35 0 58 17.5t23 46.5t-22.5 48.5t-58.5 19.5q-34 0 -57 -19t-23 -48q0 -30 22.5 -47.5t57.5 -17.5z" />
    <glyph glyph-name="threeeighths" unicode="&#x215c;" 
d="M613 679l-192 -243l-31 22l176 254zM174 553q58 -1 94 -29.5t36 -74.5q0 -47 -37 -78t-93 -31q-58 0 -97.5 34.5t-41.5 87.5h52q2 -34 26.5 -56.5t59.5 -22.5q34 0 56.5 18.5t22.5 47.5t-22.5 46t-60.5 17h-43l-15 41l115 103h-179v44h249v-44zM545 185q38 -9 60 -33.5
t22 -58.5q0 -47 -38.5 -75t-98.5 -28q-59 0 -97.5 27.5t-38.5 75.5q0 34 21 58.5t61 33.5q-68 17 -68 80q0 42 34.5 66t87.5 24t87.5 -24t34.5 -66q0 -62 -67 -80zM417 259q0 -27 21 -43t52 -16t52 16t21 43q0 26 -21 41.5t-52 15.5t-52 -15.5t-21 -41.5zM49 24l192 243
l30 -23l-176 -253zM490 31q35 0 58 17.5t23 46.5t-22.5 48.5t-58.5 19.5q-34 0 -57 -19t-23 -48q0 -30 22.5 -47.5t57.5 -17.5z" />
    <glyph glyph-name="fiveeighths" unicode="&#x215d;" 
d="M613 679l-192 -243l-31 22l176 254zM184 579q53 0 88 -33.5t35 -84.5q0 -53 -38.5 -87.5t-99.5 -34.5q-56 0 -92.5 30.5t-43.5 85.5h53q4 -35 27 -53.5t58 -18.5q37 0 59 21.5t22 55.5q0 35 -22 58t-58 23q-28 0 -49 -12.5t-29 -29.5l-51 10l11 191h239v-44h-196
l-10 -124q33 47 97 47zM545 185q38 -9 60 -33.5t22 -58.5q0 -47 -38.5 -75t-98.5 -28q-59 0 -97.5 27.5t-38.5 75.5q0 34 21 58.5t61 33.5q-68 17 -68 80q0 42 34.5 66t87.5 24t87.5 -24t34.5 -66q0 -62 -67 -80zM417 259q0 -27 21 -43t52 -16t52 16t21 43q0 26 -21 41.5
t-52 15.5t-52 -15.5t-21 -41.5zM49 24l192 243l30 -23l-176 -253zM490 31q35 0 58 17.5t23 46.5t-22.5 48.5t-58.5 19.5q-34 0 -57 -19t-23 -48q0 -30 22.5 -47.5t57.5 -17.5z" />
    <glyph glyph-name="seveneighths" unicode="&#x215e;" 
d="M613 679l-192 -243l-31 22l176 254zM34 656v44h279v-34q-65 -58 -99.5 -134t-39.5 -183h-60v2q5 106 40 177t101 128h-221zM545 185q38 -9 60 -33.5t22 -58.5q0 -47 -38.5 -75t-98.5 -28q-59 0 -97.5 27.5t-38.5 75.5q0 34 21 58.5t61 33.5q-68 17 -68 80q0 42 34.5 66
t87.5 24t87.5 -24t34.5 -66q0 -62 -67 -80zM417 259q0 -27 21 -43t52 -16t52 16t21 43q0 26 -21 41.5t-52 15.5t-52 -15.5t-21 -41.5zM49 24l192 243l30 -23l-176 -253zM490 31q35 0 58 17.5t23 46.5t-22.5 48.5t-58.5 19.5q-34 0 -57 -19t-23 -48q0 -30 22.5 -47.5
t57.5 -17.5z" />
    <glyph glyph-name="uni2189" unicode="&#x2189;" 
d="M621 679l-192 -243l-31 22l176 254zM177 709q70 0 111.5 -50t41.5 -133q0 -79 -42 -131t-111 -52q-68 0 -110 52t-42 131t42 131t110 52zM177 665q-45 0 -70 -37t-25 -102q0 -25 5 -50l166 143q-25 46 -76 46zM177 387q46 0 70.5 37t24.5 102q0 28 -5 55l-167 -145
q25 -49 77 -49zM502 203q58 -1 94 -29.5t36 -74.5q0 -47 -37 -78t-93 -31q-58 0 -97.5 34.5t-41.5 87.5h52q2 -34 26.5 -56.5t59.5 -22.5q34 0 56.5 18.5t22.5 47.5t-22.5 46t-60.5 17h-43l-15 41l115 103h-179v44h249v-44zM57 24l192 243l30 -23l-176 -253z" />
    <glyph glyph-name="arrowleft" unicode="&#x2190;" 
d="M612 380v-57h-453l228 -225l-45 -45l-294 299l294 299l45 -45l-228 -226h453z" />
    <glyph glyph-name="arrowup" unicode="&#x2191;" 
d="M629 429l-45 -45l-226 229v-613h-56v613l-226 -229l-45 45l299 295z" />
    <glyph glyph-name="arrowright" unicode="&#x2192;" 
d="M318 651l294 -299l-294 -299l-45 45l228 225h-453v57h453l-228 226z" />
    <glyph glyph-name="arrowdown" unicode="&#x2193;" 
d="M584 316l45 -45l-299 -295l-299 295l45 45l226 -229v613h56v-613z" />
    <glyph glyph-name="uni2196" unicode="&#x2196;" 
d="M599 126l-40 -40l-433 432v-320h-61v421h421v-61h-320z" />
    <glyph glyph-name="uni2197" unicode="&#x2197;" 
d="M595 619v-421h-61v320l-433 -432l-40 40l433 432h-320v61h421z" />
    <glyph glyph-name="uni2198" unicode="&#x2198;" 
d="M534 502h61v-421h-421v61h320l-433 432l40 40l433 -432v320z" />
    <glyph glyph-name="uni2199" unicode="&#x2199;" 
d="M599 574l-433 -432h320v-61h-421v421h61v-320l433 432z" />
    <glyph glyph-name="emptyset" unicode="&#x2205;" 
d="M603 481l-71 -69q52 -69 52 -162q0 -111 -72 -185t-182 -74q-96 0 -165 59l-73 -71l-34 40l71 70q-52 68 -52 161q0 111 72 185t181 74q98 0 167 -60l72 71zM139 250q0 -67 33 -119l283 277q-52 46 -125 46q-82 0 -136.5 -58.5t-54.5 -145.5zM521 250q0 66 -33 118
l-281 -276q51 -46 123 -46q83 0 137 58.5t54 145.5z" />
    <glyph glyph-name="minus" unicode="&#x2212;" 
d="M81 371h497v-50h-497v50z" />
    <glyph glyph-name="approxequal" unicode="&#x2248;" 
d="M95 382q0 57 34 85.5t80 28.5q41 0 127 -29.5t114 -29.5q26 0 43.5 16.5t17.5 44.5h55q0 -58 -33.5 -86t-79.5 -28q-41 0 -127 29.5t-114 29.5q-27 0 -44.5 -16.5t-17.5 -44.5h-55zM95 200q0 57 34 85.5t80 28.5q41 0 127 -29.5t114 -29.5q26 0 43.5 16.5t17.5 44.5h55
q0 -58 -33.5 -86t-79.5 -28q-41 0 -127 29.5t-114 29.5q-27 0 -44.5 -16.5t-17.5 -44.5h-55z" />
    <glyph glyph-name="notequal" unicode="&#x2260;" 
d="M578 418h-193l-77 -153h270v-49h-294l-65 -130h-63l65 130h-140v49h164l77 153h-241v50h266l67 135h63l-67 -135h168v-50z" />
    <glyph glyph-name="lessequal" unicode="&#x2264;" 
d="M565 580v-58l-407 -165l407 -163v-55l-470 195v51zM565 0h-470v50h470v-50z" />
    <glyph glyph-name="greaterequal" unicode="&#x2265;" 
d="M95 580l471 -195v-51l-471 -195v58l408 160l-408 165v58zM95 0v50h471v-50h-471z" />
    <glyph glyph-name="uni25AA" unicode="&#x25aa;" 
d="M223 458h214v-216h-214v216z" />
    <glyph glyph-name="uni25AB" unicode="&#x25ab;" 
d="M223 457h214v-212h-214v212zM273 410v-119h114v119h-114z" />
    <glyph glyph-name="triagup" unicode="&#x25b2;" 
d="M752 0h-844l422 709z" />
    <glyph glyph-name="uni25B4" unicode="&#x25b4;" 
d="M461 245h-262l131 220z" />
    <glyph glyph-name="uni25B8" unicode="&#x25b8;" 
d="M233 233v262l220 -131z" />
    <glyph glyph-name="triagrt" unicode="&#x25ba;" 
d="M40 707l601 -357l-601 -357v714z" />
    <glyph glyph-name="triagdn" unicode="&#x25bc;" 
d="M752 700l-422 -709l-422 709h844z" />
    <glyph glyph-name="uni25BE" unicode="&#x25be;" 
d="M461 464l-131 -220l-131 220h262z" />
    <glyph glyph-name="uni25C2" unicode="&#x25c2;" 
d="M427 233l-220 131l220 131v-262z" />
    <glyph glyph-name="triaglf" unicode="&#x25c4;" 
d="M620 707v-714l-601 357z" />
    <glyph glyph-name="fi" unicode="&#xfb01;" 
d="M547 500v-500h-61v445h-271v-445h-61v445h-119v55h119v9q0 199 222 199q56 0 112 -11v-58q-61 14 -120 14q-84 0 -118.5 -38t-34.5 -106v-9h332z" />
    <glyph glyph-name="I.case" 
d="M545 643h-181v-586h181v-57h-430v57h183v586h-183v57h430v-57z" />
    <glyph glyph-name="Iacute.case" 
d="M491 939l-133 -151h-54l83 151h104zM545 643h-181v-586h181v-57h-430v57h183v586h-183v57h430v-57z" />
    <glyph glyph-name="Icircumflex.case" 
d="M331 888l-85 -116h-58l106 166h73l107 -166h-58zM545 643h-181v-586h181v-57h-430v57h183v586h-183v57h430v-57z" />
    <glyph glyph-name="Idieresis.case" 
d="M266 916v-112h-87v112h87zM483 916v-112h-87v112h87zM545 643h-181v-586h181v-57h-430v57h183v586h-183v57h430v-57z" />
    <glyph glyph-name="Idotaccent.case" 
d="M375 919v-115h-87v115h87zM545 643h-181v-586h181v-57h-430v57h183v586h-183v57h430v-57z" />
    <glyph glyph-name="Igrave.case" 
d="M359 788h-54l-133 151h104zM545 643h-181v-586h181v-57h-430v57h183v586h-183v57h430v-57z" />
    <glyph glyph-name="Imacron.case" 
d="M456 881v-55h-250v55h250zM545 643h-181v-586h181v-57h-430v57h183v586h-183v57h430v-57z" />
    <glyph glyph-name="Iogonek.case" 
d="M545 643h-181v-586h181v-57h-188q-4 -3 -18 -13t-18 -13t-14.5 -11t-14 -12.5t-9 -12t-7 -14.5t-1.5 -15q0 -19 13 -30.5t36 -11.5q32 0 57 10v-57q-30 -10 -64 -10q-49 0 -76.5 24t-27.5 60q0 68 108 106h-206v57h183v586h-183v57h430v-57z" />
    <glyph glyph-name="J.ss01" 
d="M96 124q114 -76 212 -76q74 0 119 45.5t45 114.5v492h66v-492q0 -96 -64 -156.5t-171 -60.5q-112 0 -207 58v75z" />
    <glyph glyph-name="Q.ss02" 
d="M330 710q133 0 201.5 -95t68.5 -266q0 -169 -68.5 -263.5t-201.5 -94.5t-201.5 94.5t-68.5 263.5q0 171 68.5 266t201.5 95zM330 654q-100 0 -150.5 -80t-50.5 -225q0 -143 50.5 -222.5t150.5 -79.5t151 80t51 222q0 145 -51 225t-151 80zM597 -127h-267v53h267v-53z" />
    <glyph glyph-name="R.ss03" 
d="M484 233l99 -233h-78l-84 218q-12 32 -27.5 53.5t-29 32.5t-39 16.5t-42 6t-54.5 0.5h-5.5h-5.5h-6h-31v-327h-66v701h251q93 0 152.5 -51.5t59.5 -130.5q0 -76 -50 -125.5t-132 -57.5q54 -26 88 -103zM181 644v-260h189q63 0 103 38t40 97q0 54 -40 89.5t-103 35.5h-189
z" />
    <glyph glyph-name="Racute.ss03" 
d="M475 938l-133 -151h-54l83 151h104zM484 233l99 -233h-78l-84 218q-12 32 -27.5 53.5t-29 32.5t-39 16.5t-42 6t-54.5 0.5h-5.5h-5.5h-6h-31v-327h-66v701h251q93 0 152.5 -51.5t59.5 -130.5q0 -76 -50 -125.5t-132 -57.5q54 -26 88 -103zM181 644v-260h189q63 0 103 38
t40 97q0 54 -40 89.5t-103 35.5h-189z" />
    <glyph glyph-name="Rcaron.ss03" 
d="M355 772h-73l-106 166h58l85 -116l85 116h58zM484 233l99 -233h-78l-84 218q-12 32 -27.5 53.5t-29 32.5t-39 16.5t-42 6t-54.5 0.5h-5.5h-5.5h-6h-31v-327h-66v701h251q93 0 152.5 -51.5t59.5 -130.5q0 -76 -50 -125.5t-132 -57.5q54 -26 88 -103zM181 644v-260h189
q63 0 103 38t40 97q0 54 -40 89.5t-103 35.5h-189z" />
    <glyph glyph-name="Rcommaaccent.ss03" 
d="M484 233l99 -233h-78l-84 218q-12 32 -27.5 53.5t-29 32.5t-39 16.5t-42 6t-54.5 0.5h-5.5h-5.5h-6h-31v-327h-66v701h251q93 0 152.5 -51.5t59.5 -130.5q0 -76 -50 -125.5t-132 -57.5q54 -26 88 -103zM181 644v-260h189q63 0 103 38t40 97q0 54 -40 89.5t-103 35.5h-189
zM264 -250l32 187h86l-71 -187h-47z" />
    <glyph glyph-name="i.loclTRK" 
d="M397 700v-105h-88v105h88zM383 55h193v-55h-451v55h197v390h-157v55h218v-445z" />
    <glyph glyph-name="a.ss04" 
d="M309 -9q-104 0 -176 74t-72 186t72 185.5t178 73.5q137 0 190 -113h2v103h61v-500h-61v111h-2q-58 -120 -192 -120zM317 455q-82 0 -138 -58t-56 -146t56.5 -146.5t138.5 -58.5q81 0 132.5 55t51.5 143v12q-1 90 -52.5 144.5t-132.5 54.5z" />
    <glyph glyph-name="aacute.ss04" 
d="M293 577l87 146h97l-129 -146h-55zM309 -9q-104 0 -176 74t-72 186t72 185.5t178 73.5q137 0 190 -113h2v103h61v-500h-61v111h-2q-58 -120 -192 -120zM317 455q-82 0 -138 -58t-56 -146t56.5 -146.5t138.5 -58.5q81 0 132.5 55t51.5 143v12q-1 90 -52.5 144.5
t-132.5 54.5z" />
    <glyph glyph-name="abreve.ss04" 
d="M328 582q-60 0 -98 36t-39 98h64q0 -39 20.5 -61.5t52.5 -22.5q34 0 56.5 23t22.5 61h62q-1 -62 -40 -98t-101 -36zM309 -9q-104 0 -176 74t-72 186t72 185.5t178 73.5q137 0 190 -113h2v103h61v-500h-61v111h-2q-58 -120 -192 -120zM317 455q-82 0 -138 -58t-56 -146
t56.5 -146.5t138.5 -58.5q81 0 132.5 55t51.5 143v12q-1 90 -52.5 144.5t-132.5 54.5z" />
    <glyph glyph-name="acircumflex.ss04" 
d="M475 570h-58l-86 103l-87 -103h-58l108 153h73zM309 -9q-104 0 -176 74t-72 186t72 185.5t178 73.5q137 0 190 -113h2v103h61v-500h-61v111h-2q-58 -120 -192 -120zM317 455q-82 0 -138 -58t-56 -146t56.5 -146.5t138.5 -58.5q81 0 132.5 55t51.5 143v12
q-1 90 -52.5 144.5t-132.5 54.5z" />
    <glyph glyph-name="adieresis.ss04" 
d="M188 592v113h87v-113h-87zM385 592v113h87v-113h-87zM309 -9q-104 0 -176 74t-72 186t72 185.5t178 73.5q137 0 190 -113h2v103h61v-500h-61v111h-2q-58 -120 -192 -120zM317 455q-82 0 -138 -58t-56 -146t56.5 -146.5t138.5 -58.5q81 0 132.5 55t51.5 143v12
q-1 90 -52.5 144.5t-132.5 54.5z" />
    <glyph glyph-name="agrave.ss04" 
d="M375 577h-55l-129 146h97zM309 -9q-104 0 -176 74t-72 186t72 185.5t178 73.5q137 0 190 -113h2v103h61v-500h-61v111h-2q-58 -120 -192 -120zM317 455q-82 0 -138 -58t-56 -146t56.5 -146.5t138.5 -58.5q81 0 132.5 55t51.5 143v12q-1 90 -52.5 144.5t-132.5 54.5z" />
    <glyph glyph-name="amacron.ss04" 
d="M206 684h248v-55h-248v55zM309 -9q-104 0 -176 74t-72 186t72 185.5t178 73.5q137 0 190 -113h2v103h61v-500h-61v111h-2q-58 -120 -192 -120zM317 455q-82 0 -138 -58t-56 -146t56.5 -146.5t138.5 -58.5q81 0 132.5 55t51.5 143v12q-1 90 -52.5 144.5t-132.5 54.5z" />
    <glyph glyph-name="aogonek.ss04" 
d="M531 -133q32 0 57 10v-57q-30 -10 -64 -10q-49 0 -76.5 24t-27.5 60q0 68 108 106h-25v111h-2q-58 -120 -192 -120q-104 0 -176 74t-72 186t72 185.5t178 73.5q137 0 190 -113h2v103h61v-500q-4 -3 -18 -13t-18 -13t-14.5 -11t-14 -12.5t-9 -12t-7 -14.5t-1.5 -15
q0 -19 13 -30.5t36 -11.5zM502 244v12q-1 90 -52.5 144.5t-132.5 54.5q-82 0 -138 -58t-56 -146t56.5 -146.5t138.5 -58.5q81 0 132.5 55t51.5 143z" />
    <glyph glyph-name="aring.ss04" 
d="M331 567q-41 0 -70 27t-29 67q0 41 29 68t70 27t70 -27t29 -68q0 -40 -29 -67t-70 -27zM331 607q23 0 38 15.5t15 38.5t-15 38.5t-38 15.5t-38 -15.5t-15 -38.5t15 -38.5t38 -15.5zM309 -9q-104 0 -176 74t-72 186t72 185.5t178 73.5q137 0 190 -113h2v103h61v-500h-61
v111h-2q-58 -120 -192 -120zM317 455q-82 0 -138 -58t-56 -146t56.5 -146.5t138.5 -58.5q81 0 132.5 55t51.5 143v12q-1 90 -52.5 144.5t-132.5 54.5z" />
    <glyph glyph-name="atilde.ss04" 
d="M394 607q-32 0 -64 25t-51 25q-39 0 -42 -46h-61q2 51 30.5 76.5t70.5 25.5q33 0 63.5 -24.5t49.5 -24.5q41 0 43 45h60q-1 -50 -28.5 -76t-70.5 -26zM309 -9q-104 0 -176 74t-72 186t72 185.5t178 73.5q137 0 190 -113h2v103h61v-500h-61v111h-2q-58 -120 -192 -120z
M317 455q-82 0 -138 -58t-56 -146t56.5 -146.5t138.5 -58.5q81 0 132.5 55t51.5 143v12q-1 90 -52.5 144.5t-132.5 54.5z" />
    <glyph glyph-name="g.ss05" 
d="M510 500h61v-509q0 -89 -69.5 -145t-173.5 -56q-96 0 -164 52t-76 131h64q7 -56 56.5 -93t119.5 -37q76 0 128 41t54 107v128h-1q-24 -51 -75.5 -78.5t-116.5 -27.5q-108 0 -175 71t-67 180q0 108 67 176.5t173 68.5q67 0 118 -29t76 -80h1v100zM508 262v9
q0 84 -51.5 133.5t-131.5 49.5q-83 0 -135.5 -53t-52.5 -137q0 -85 53 -140.5t135 -55.5q80 0 131.5 53.5t51.5 140.5z" />
    <glyph glyph-name="gbreve.ss05" 
d="M351 582q-60 0 -98 36t-39 98h64q0 -39 20.5 -61.5t52.5 -22.5q34 0 56.5 23t22.5 61h62q-1 -62 -40 -98t-101 -36zM510 500h61v-509q0 -89 -69.5 -145t-173.5 -56q-96 0 -164 52t-76 131h64q7 -56 56.5 -93t119.5 -37q76 0 128 41t54 107v128h-1q-24 -51 -75.5 -78.5
t-116.5 -27.5q-108 0 -175 71t-67 180q0 108 67 176.5t173 68.5q67 0 118 -29t76 -80h1v100zM508 262v9q0 84 -51.5 133.5t-131.5 49.5q-83 0 -135.5 -53t-52.5 -137q0 -85 53 -140.5t135 -55.5q80 0 131.5 53.5t51.5 140.5z" />
    <glyph glyph-name="gcommaaccent.ss05" 
d="M417 758l-32 -187h-86l71 187h47zM510 500h61v-509q0 -89 -69.5 -145t-173.5 -56q-96 0 -164 52t-76 131h64q7 -56 56.5 -93t119.5 -37q76 0 128 41t54 107v128h-1q-24 -51 -75.5 -78.5t-116.5 -27.5q-108 0 -175 71t-67 180q0 108 67 176.5t173 68.5q67 0 118 -29
t76 -80h1v100zM508 262v9q0 84 -51.5 133.5t-131.5 49.5q-83 0 -135.5 -53t-52.5 -137q0 -85 53 -140.5t135 -55.5q80 0 131.5 53.5t51.5 140.5z" />
    <glyph glyph-name="gdotaccent.ss05" 
d="M386 705v-113h-88v113h88zM510 500h61v-509q0 -89 -69.5 -145t-173.5 -56q-96 0 -164 52t-76 131h64q7 -56 56.5 -93t119.5 -37q76 0 128 41t54 107v128h-1q-24 -51 -75.5 -78.5t-116.5 -27.5q-108 0 -175 71t-67 180q0 108 67 176.5t173 68.5q67 0 118 -29t76 -80h1v100
zM508 262v9q0 84 -51.5 133.5t-131.5 49.5q-83 0 -135.5 -53t-52.5 -137q0 -85 53 -140.5t135 -55.5q80 0 131.5 53.5t51.5 140.5z" />
    <glyph glyph-name="l.ss06" 
d="M376 55h225v-55h-503v55h217v590h-205v55h266v-645z" />
    <glyph glyph-name="lacute.ss06" 
d="M505 923l-129 -146h-55l87 146h97zM376 55h225v-55h-503v55h217v590h-205v55h266v-645z" />
    <glyph glyph-name="lcaron.ss06" 
d="M566 763l-48 -200h-47l20 200h75zM376 55h225v-55h-503v55h217v590h-205v55h266v-645z" />
    <glyph glyph-name="lcommaaccent.ss06" 
d="M376 55h225v-55h-503v55h217v590h-205v55h266v-645zM268 -250l32 187h86l-71 -187h-47z" />
    <glyph glyph-name="lslash.ss06" 
d="M376 55h225v-55h-503v55h217v294l-175 -85v58l175 85v238h-205v55h266v-264l175 85v-57l-175 -85v-324z" />
    <glyph glyph-name="ldot.ss06" 
d="M376 55h225v-55h-503v55h217v590h-205v55h266v-645zM594 382v-117h-103v117h103z" />
    <glyph glyph-name="y.ss07" 
d="M515 500h69l-299 -700h-70l89 189l-228 511h69l190 -441z" />
    <glyph glyph-name="yacute.ss07" 
d="M491 723l-129 -146h-55l87 146h97zM515 500h69l-299 -700h-70l89 189l-228 511h69l190 -441z" />
    <glyph glyph-name="ycircumflex.ss07" 
d="M338 673l-87 -103h-58l108 153h73l108 -153h-58zM515 500h69l-299 -700h-70l89 189l-228 511h69l190 -441z" />
    <glyph glyph-name="ydieresis.ss07" 
d="M282 705v-113h-87v113h87zM479 705v-113h-87v113h87zM515 500h69l-299 -700h-70l89 189l-228 511h69l190 -441z" />
    <glyph glyph-name="ygrave.ss07" 
d="M380 577h-55l-129 146h97zM515 500h69l-299 -700h-70l89 189l-228 511h69l190 -441z" />
    <glyph glyph-name="y.ss08" 
d="M551 500v-527q0 -79 -64 -131t-160 -52q-94 0 -161.5 51t-75.5 132h64q8 -58 57.5 -94t115.5 -36q69 0 116 37t47 93v163q-25 -61 -74 -93t-113 -32q-91 0 -145.5 59t-54.5 154v276h64v-276q0 -69 40.5 -112.5t101.5 -43.5q78 0 129.5 51.5t51.5 136.5v244h61z" />
    <glyph glyph-name="yacute.ss08" 
d="M483 723l-129 -146h-55l87 146h97zM551 500v-527q0 -79 -64 -131t-160 -52q-94 0 -161.5 51t-75.5 132h64q8 -58 57.5 -94t115.5 -36q69 0 116 37t47 93v163q-25 -61 -74 -93t-113 -32q-91 0 -145.5 59t-54.5 154v276h64v-276q0 -69 40.5 -112.5t101.5 -43.5
q78 0 129.5 51.5t51.5 136.5v244h61z" />
    <glyph glyph-name="ycircumflex.ss08" 
d="M330 673l-87 -103h-58l108 153h73l108 -153h-58zM551 500v-527q0 -79 -64 -131t-160 -52q-94 0 -161.5 51t-75.5 132h64q8 -58 57.5 -94t115.5 -36q69 0 116 37t47 93v163q-25 -61 -74 -93t-113 -32q-91 0 -145.5 59t-54.5 154v276h64v-276q0 -69 40.5 -112.5
t101.5 -43.5q78 0 129.5 51.5t51.5 136.5v244h61z" />
    <glyph glyph-name="ydieresis.ss08" 
d="M274 705v-113h-87v113h87zM471 705v-113h-87v113h87zM551 500v-527q0 -79 -64 -131t-160 -52q-94 0 -161.5 51t-75.5 132h64q8 -58 57.5 -94t115.5 -36q69 0 116 37t47 93v163q-25 -61 -74 -93t-113 -32q-91 0 -145.5 59t-54.5 154v276h64v-276q0 -69 40.5 -112.5
t101.5 -43.5q78 0 129.5 51.5t51.5 136.5v244h61z" />
    <glyph glyph-name="ygrave.ss08" 
d="M375 577h-55l-129 146h97zM551 500v-527q0 -79 -64 -131t-160 -52q-94 0 -161.5 51t-75.5 132h64q8 -58 57.5 -94t115.5 -36q69 0 116 37t47 93v163q-25 -61 -74 -93t-113 -32q-91 0 -145.5 59t-54.5 154v276h64v-276q0 -69 40.5 -112.5t101.5 -43.5q78 0 129.5 51.5
t51.5 136.5v244h61z" />
    <glyph glyph-name="germandbls.ss09" 
d="M401 377q89 -13 138.5 -63.5t49.5 -128.5q0 -86 -58 -140t-155 -54q-56 0 -105 17v65q55 -26 106 -26q67 0 108 40t41 102q0 70 -55.5 112.5t-153.5 44.5v55q77 10 122 45t45 91q0 54 -37.5 87t-95.5 33q-68 0 -110.5 -45t-42.5 -121v-491h-61v445h-107v55h107
q0 98 59 155t157 57q88 0 140.5 -47t52.5 -124q0 -122 -145 -164z" />
    <glyph glyph-name="i.ss13" 
d="M343 700v-105h-88v105h88zM459 47q68 0 163 54v-67q-88 -43 -160 -43q-85 0 -139 47.5t-54 124.5v282h-214v55h275v-337q0 -53 35.5 -84.5t93.5 -31.5z" />
    <glyph glyph-name="dotlessi.ss13" 
d="M459 47q68 0 163 54v-67q-88 -43 -160 -43q-85 0 -139 47.5t-54 124.5v282h-214v55h275v-337q0 -53 35.5 -84.5t93.5 -31.5z" />
    <glyph glyph-name="iacute.ss13" 
d="M454 723l-129 -146h-55l87 146h97zM459 47q68 0 163 54v-67q-88 -43 -160 -43q-85 0 -139 47.5t-54 124.5v282h-214v55h275v-337q0 -53 35.5 -84.5t93.5 -31.5z" />
    <glyph glyph-name="icircumflex.ss13" 
d="M301 673l-87 -103h-58l108 153h73l108 -153h-58zM459 47q68 0 163 54v-67q-88 -43 -160 -43q-85 0 -139 47.5t-54 124.5v282h-214v55h275v-337q0 -53 35.5 -84.5t93.5 -31.5z" />
    <glyph glyph-name="idieresis.ss13" 
d="M245 705v-113h-87v113h87zM442 705v-113h-87v113h87zM459 47q68 0 163 54v-67q-88 -43 -160 -43q-85 0 -139 47.5t-54 124.5v282h-214v55h275v-337q0 -53 35.5 -84.5t93.5 -31.5z" />
    <glyph glyph-name="i.loclTRK.ss13" 
d="M343 700v-105h-88v105h88zM459 47q68 0 163 54v-67q-88 -43 -160 -43q-85 0 -139 47.5t-54 124.5v282h-214v55h275v-337q0 -53 35.5 -84.5t93.5 -31.5z" />
    <glyph glyph-name="igrave.ss13" 
d="M331 577h-55l-129 146h97zM459 47q68 0 163 54v-67q-88 -43 -160 -43q-85 0 -139 47.5t-54 124.5v282h-214v55h275v-337q0 -53 35.5 -84.5t93.5 -31.5z" />
    <glyph glyph-name="imacron.ss13" 
d="M424 684v-55h-248v55h248zM459 47q68 0 163 54v-67q-88 -43 -160 -43q-85 0 -139 47.5t-54 124.5v282h-214v55h275v-337q0 -53 35.5 -84.5t93.5 -31.5z" />
    <glyph glyph-name="iogonek.ss13" 
d="M343 700v-105h-88v105h88zM590 -99q32 0 57 10v-57q-30 -10 -64 -10q-49 0 -76.5 24t-27.5 60t36 68q-24 -5 -53 -5q-85 0 -139 47.5t-54 124.5v282h-214v55h275v-337q0 -53 35.5 -84.5t93.5 -31.5q68 0 163 54v-65l1 -2q-4 -3 -18 -13t-18 -13t-14.5 -11t-14 -12.5
t-9 -12t-7 -14.5t-1.5 -15q0 -19 13 -30.5t36 -11.5z" />
    <glyph glyph-name="a.sc" 
d="M537 0l-64 150h-286l-64 -150h-65l239 554h66l240 -554h-66zM209 203h242l-121 285z" />
    <glyph glyph-name="aacute.sc" 
d="M496 777l-129 -146h-55l87 146h97zM537 0l-64 150h-286l-64 -150h-65l239 554h66l240 -554h-66zM209 203h242l-121 285z" />
    <glyph glyph-name="abreve.sc" 
d="M328 636q-60 0 -98 36t-39 98h64q0 -39 20.5 -61.5t52.5 -22.5q34 0 56.5 23t22.5 61h62q-1 -62 -40 -98t-101 -36zM537 0l-64 150h-286l-64 -150h-65l239 554h66l240 -554h-66zM209 203h242l-121 285z" />
    <glyph glyph-name="acircumflex.sc" 
d="M331 727l-87 -103h-58l108 153h73l108 -153h-58zM537 0l-64 150h-286l-64 -150h-65l239 554h66l240 -554h-66zM209 203h242l-121 285z" />
    <glyph glyph-name="adieresis.sc" 
d="M275 759v-113h-87v113h87zM472 759v-113h-87v113h87zM537 0l-64 150h-286l-64 -150h-65l239 554h66l240 -554h-66zM209 203h242l-121 285z" />
    <glyph glyph-name="agrave.sc" 
d="M359 631h-55l-129 146h97zM537 0l-64 150h-286l-64 -150h-65l239 554h66l240 -554h-66zM209 203h242l-121 285z" />
    <glyph glyph-name="amacron.sc" 
d="M454 738v-55h-248v55h248zM537 0l-64 150h-286l-64 -150h-65l239 554h66l240 -554h-66zM209 203h242l-121 285z" />
    <glyph glyph-name="aogonek.sc" 
d="M570 -133q32 0 57 10v-57q-30 -10 -64 -10q-49 0 -76.5 24t-27.5 60q0 68 108 106h-30l-64 150h-286l-64 -150h-65l239 554h66l240 -554q-4 -3 -18 -13t-18 -13t-14.5 -11t-14 -12.5t-9 -12t-7 -14.5t-1.5 -15q0 -19 13 -30.5t36 -11.5zM209 203h242l-121 285z" />
    <glyph glyph-name="aring.sc" 
d="M331 621q-41 0 -70 27t-29 67q0 41 29 68t70 27t70 -27t29 -68q0 -40 -29 -67t-70 -27zM331 769q-23 0 -38 -15.5t-15 -38.5t15 -38.5t38 -15.5t38 15.5t15 38.5t-15 38.5t-38 15.5zM537 0l-64 150h-286l-64 -150h-65l239 554h66l240 -554h-66zM209 203h242l-121 285z
" />
    <glyph glyph-name="atilde.sc" 
d="M279 711q-39 0 -42 -46h-61q2 51 30.5 76.5t70.5 25.5q33 0 63.5 -24.5t49.5 -24.5q41 0 43 45h60q-1 -50 -28.5 -76t-70.5 -26q-32 0 -64 25t-51 25zM537 0l-64 150h-286l-64 -150h-65l239 554h66l240 -554h-66zM209 203h242l-121 285z" />
    <glyph glyph-name="ae.sc" 
d="M616 498h-222v-187h205v-57h-205v-197h222v-57h-283v146h-168l-75 -146h-71l295 554h302v-56zM194 203h139v271z" />
    <glyph glyph-name="b.sc" 
d="M442 286q135 -27 135 -136q0 -68 -48.5 -109t-134.5 -41h-289v554h274q81 0 126.5 -35.5t45.5 -98.5q0 -100 -109 -134zM170 498v-187h179q134 0 134 96q0 44 -30.5 67.5t-85.5 23.5h-197zM380 57q63 0 95.5 26.5t32.5 73.5q0 99 -148 99h-190v-199h210z" />
    <glyph glyph-name="ordfeminine.sc" 
d="M508 213q27 0 64 27v-56q-31 -21 -72 -21q-39 0 -63.5 19t-27.5 53h-2q-11 -28 -47 -50t-91 -22q-62 0 -96 29.5t-34 78.5q0 58 45.5 90.5t125.5 32.5h98v36q0 88 -97 88q-93 0 -101 -77h-58q4 58 46 90.5t113 32.5q74 0 114.5 -35.5t40.5 -99.5v-179q0 -37 42 -37z
M279 207q52 0 89.5 32.5t39.5 86.5v24h-98q-53 0 -83.5 -20.5t-30.5 -55.5q0 -31 22.5 -49t60.5 -18zM144 0v53h409v-53h-409z" />
    <glyph glyph-name="ordmasculine.sc" 
d="M330 564q87 0 147 -57.5t60 -142.5t-60 -143t-147 -58t-147 58t-60 143q0 84 60 142t147 58zM330 511q-63 0 -105.5 -42t-42.5 -105t42.5 -105.5t105.5 -42.5t105.5 42.5t42.5 105.5t-42.5 105t-105.5 42zM144 53h374v-53h-374v53z" />
    <glyph glyph-name="c.sc" 
d="M595 174q-20 -83 -86 -132t-160 -49q-124 0 -199.5 80.5t-75.5 205.5t75.5 204t199.5 79q96 0 163.5 -51t85.5 -135h-71q-15 59 -63 94.5t-115 35.5q-94 0 -150.5 -64t-56.5 -164q0 -101 56.5 -165t151.5 -64q65 0 111.5 33.5t61.5 91.5h72z" />
    <glyph glyph-name="cacute.sc" 
d="M314 631l87 146h97l-129 -146h-55zM595 174q-20 -83 -86 -132t-160 -49q-124 0 -199.5 80.5t-75.5 205.5t75.5 204t199.5 79q96 0 163.5 -51t85.5 -135h-71q-15 59 -63 94.5t-115 35.5q-94 0 -150.5 -64t-56.5 -164q0 -101 56.5 -165t151.5 -64q65 0 111.5 33.5
t61.5 91.5h72z" />
    <glyph glyph-name="ccaron.sc" 
d="M490 776l-108 -153h-73l-108 153h58l87 -103l86 103h58zM595 174q-20 -83 -86 -132t-160 -49q-124 0 -199.5 80.5t-75.5 205.5t75.5 204t199.5 79q96 0 163.5 -51t85.5 -135h-71q-15 59 -63 94.5t-115 35.5q-94 0 -150.5 -64t-56.5 -164q0 -101 56.5 -165t151.5 -64
q65 0 111.5 33.5t61.5 91.5h72z" />
    <glyph glyph-name="ccedilla.sc" 
d="M350 49q65 0 111.5 33.5t61.5 91.5h72q-20 -83 -86 -132t-160 -49l-18 -63h9q40 0 66.5 -24.5t26.5 -60.5q0 -38 -28 -63t-71 -25q-44 0 -74.5 26.5t-35.5 66.5l52 7q1 -25 16.5 -39.5t38.5 -14.5q21 0 34.5 11.5t13.5 30.5q0 20 -15.5 32.5t-45.5 12.5h-25l-13 27l28 78
q-107 14 -170.5 92t-63.5 192q0 125 75.5 204t199.5 79q96 0 163.5 -51t85.5 -135h-71q-15 59 -63 94.5t-115 35.5q-94 0 -150.5 -64t-56.5 -164q0 -101 56.5 -165t151.5 -64z" />
    <glyph glyph-name="cdotaccent.sc" 
d="M301 658v115h87v-115h-87zM595 174q-20 -83 -86 -132t-160 -49q-124 0 -199.5 80.5t-75.5 205.5t75.5 204t199.5 79q96 0 163.5 -51t85.5 -135h-71q-15 59 -63 94.5t-115 35.5q-94 0 -150.5 -64t-56.5 -164q0 -101 56.5 -165t151.5 -64q65 0 111.5 33.5t61.5 91.5h72z
" />
    <glyph glyph-name="d.sc" 
d="M291 554q130 0 219.5 -76.5t89.5 -193.5q0 -123 -89.5 -203.5t-219.5 -80.5h-192v554h192zM288 57q102 0 173 65t71 162q0 91 -71 152.5t-173 61.5h-124v-441h124z" />
    <glyph glyph-name="eth.sc" 
d="M291 554q130 0 219.5 -76.5t89.5 -193.5q0 -123 -89.5 -203.5t-219.5 -80.5h-192v258h-88v50h88v246h192zM288 57q102 0 173 65t71 162q0 91 -71 152.5t-173 61.5h-124v-190h193v-50h-193v-201h124z" />
    <glyph glyph-name="dcaron.sc" 
d="M470 776l-108 -153h-73l-108 153h58l87 -103l86 103h58zM291 554q130 0 219.5 -76.5t89.5 -193.5q0 -123 -89.5 -203.5t-219.5 -80.5h-192v554h192zM288 57q102 0 173 65t71 162q0 91 -71 152.5t-173 61.5h-124v-441h124z" />
    <glyph glyph-name="dcroat.sc" 
d="M291 554q130 0 219.5 -76.5t89.5 -193.5q0 -123 -89.5 -203.5t-219.5 -80.5h-192v258h-65v50h65v246h192zM288 57q102 0 173 65t71 162q0 91 -71 152.5t-173 61.5h-124v-190h170v-50h-170v-201h124z" />
    <glyph glyph-name="e.sc" 
d="M553 498h-353v-187h336v-57h-336v-197h353v-57h-418v554h418v-56z" />
    <glyph glyph-name="eacute.sc" 
d="M311 631l87 146h97l-129 -146h-55zM553 498h-353v-187h336v-57h-336v-197h353v-57h-418v554h418v-56z" />
    <glyph glyph-name="ebreve.sc" 
d="M339 636q-60 0 -98 36t-39 98h64q0 -39 20.5 -61.5t52.5 -22.5q34 0 56.5 23t22.5 61h62q-1 -62 -40 -98t-101 -36zM553 498h-353v-187h336v-57h-336v-197h353v-57h-418v554h418v-56z" />
    <glyph glyph-name="ecaron.sc" 
d="M487 776l-108 -153h-73l-108 153h58l87 -103l86 103h58zM553 498h-353v-187h336v-57h-336v-197h353v-57h-418v554h418v-56z" />
    <glyph glyph-name="ecircumflex.sc" 
d="M486 624h-58l-86 103l-87 -103h-58l108 153h73zM553 498h-353v-187h336v-57h-336v-197h353v-57h-418v554h418v-56z" />
    <glyph glyph-name="edieresis.sc" 
d="M199 646v113h87v-113h-87zM396 646v113h87v-113h-87zM553 498h-353v-187h336v-57h-336v-197h353v-57h-418v554h418v-56z" />
    <glyph glyph-name="edotaccent.sc" 
d="M298 646v113h88v-113h-88zM553 498h-353v-187h336v-57h-336v-197h353v-57h-418v554h418v-56z" />
    <glyph glyph-name="egrave.sc" 
d="M379 627h-55l-129 146h97zM553 498h-353v-187h336v-57h-336v-197h353v-57h-418v554h418v-56z" />
    <glyph glyph-name="emacron.sc" 
d="M217 738h248v-55h-248v55zM553 498h-353v-187h336v-57h-336v-197h353v-57h-418v554h418v-56z" />
    <glyph glyph-name="eogonek.sc" 
d="M520 -133q32 0 57 10v-57q-30 -10 -64 -10q-49 0 -76.5 24t-27.5 60q0 68 108 106h-382v554h418v-56h-353v-187h336v-57h-336v-197h353v-57q-4 -3 -18 -13t-18 -13t-14.5 -11t-14 -12.5t-9 -12t-7 -14.5t-1.5 -15q0 -19 13 -30.5t36 -11.5z" />
    <glyph glyph-name="f.sc" 
d="M554 498h-346v-193h333v-57h-333v-248h-65v554h411v-56z" />
    <glyph glyph-name="g.sc" 
d="M346 287h247v-287h-62v99q-48 -106 -185 -106q-125 0 -199 79t-74 206q0 126 74 205t199 79q90 0 152 -42.5t85 -122.5h-72q-40 109 -165 109q-94 0 -149 -63.5t-55 -164.5q0 -102 55 -165.5t150 -63.5q85 0 133.5 52.5t48.5 127.5h2v1h-185v57z" />
    <glyph glyph-name="gbreve.sc" 
d="M347 636q-60 0 -98 36t-39 98h64q0 -39 20.5 -61.5t52.5 -22.5q34 0 56.5 23t22.5 61h62q-1 -62 -40 -98t-101 -36zM346 287h247v-287h-62v99q-48 -106 -185 -106q-125 0 -199 79t-74 206q0 126 74 205t199 79q90 0 152 -42.5t85 -122.5h-72q-40 109 -165 109
q-94 0 -149 -63.5t-55 -164.5q0 -102 55 -165.5t150 -63.5q85 0 133.5 52.5t48.5 127.5h2v1h-185v57z" />
    <glyph glyph-name="gcommaaccent.sc" 
d="M414 813l-32 -187h-86l71 187h47zM346 287h247v-287h-62v99q-48 -106 -185 -106q-125 0 -199 79t-74 206q0 126 74 205t199 79q90 0 152 -42.5t85 -122.5h-72q-40 109 -165 109q-94 0 -149 -63.5t-55 -164.5q0 -102 55 -165.5t150 -63.5q85 0 133.5 52.5t48.5 127.5h2v1
h-185v57z" />
    <glyph glyph-name="gdotaccent.sc" 
d="M394 762v-115h-87v115h87zM346 287h247v-287h-62v99q-48 -106 -185 -106q-125 0 -199 79t-74 206q0 126 74 205t199 79q90 0 152 -42.5t85 -122.5h-72q-40 109 -165 109q-94 0 -149 -63.5t-55 -164.5q0 -102 55 -165.5t150 -63.5q85 0 133.5 52.5t48.5 127.5h2v1h-185v57
z" />
    <glyph glyph-name="h.sc" 
d="M494 554h65v-554h-65v255h-327v-255h-66v554h66v-243h327v243z" />
    <glyph glyph-name="hbar.sc" 
d="M595 461v-50h-36v-411h-65v255h-327v-255h-66v411h-39v50h39v93h66v-93h327v93h65v-93h36zM494 311v100h-327v-100h327z" />
    <glyph glyph-name="i.sc" 
d="M541 498h-177v-441h177v-57h-421v57h178v441h-178v56h421v-56z" />
    <glyph glyph-name="iacute.sc" 
d="M309 628l87 146h97l-129 -146h-55zM541 498h-177v-441h177v-57h-421v57h178v441h-178v56h421v-56z" />
    <glyph glyph-name="icircumflex.sc" 
d="M474 624h-58l-86 103l-87 -103h-58l108 153h73zM541 498h-177v-441h177v-57h-421v57h178v441h-178v56h421v-56z" />
    <glyph glyph-name="idieresis.sc" 
d="M187 646v113h87v-113h-87zM384 646v113h87v-113h-87zM541 498h-177v-441h177v-57h-421v57h178v441h-178v56h421v-56z" />
    <glyph glyph-name="i.sc.loclTRK" 
d="M286 646v113h88v-113h-88zM541 498h-177v-441h177v-57h-421v57h178v441h-178v56h421v-56z" />
    <glyph glyph-name="igrave.sc" 
d="M359 628h-55l-129 146h97zM541 498h-177v-441h177v-57h-421v57h178v441h-178v56h421v-56z" />
    <glyph glyph-name="imacron.sc" 
d="M205 738h248v-55h-248v55zM541 498h-177v-441h177v-57h-421v57h178v441h-178v56h421v-56z" />
    <glyph glyph-name="iogonek.sc" 
d="M541 498h-177v-441h177v-57h-177q-4 -3 -18 -13t-18 -13t-14.5 -11t-14 -12.5t-9 -12t-7 -14.5t-1.5 -15q0 -19 13 -30.5t36 -11.5q32 0 57 10v-57q-30 -10 -64 -10q-49 0 -76.5 24t-27.5 60q0 68 108 106h-208v57h178v441h-178v56h421v-56z" />
    <glyph glyph-name="dotlessi.sc" 
d="M541 498h-177v-441h177v-57h-421v57h178v441h-178v56h421v-56z" />
    <glyph glyph-name="j.sc" 
d="M558 554v-347q0 -97 -63.5 -156t-167.5 -59q-118 0 -214 56v68q106 -68 209 -68q80 0 125.5 45t45.5 115v290h-341v56h406z" />
    <glyph glyph-name="k.sc" 
d="M535 0l-164 255h-188v-255h-65v554h65v-243h184l150 243h74l-167 -268l190 -286h-79z" />
    <glyph glyph-name="kcommaaccent.sc" 
d="M424 286l190 -286h-79l-164 255h-188v-255h-65v554h65v-243h184l150 243h74zM267 -250l32 187h86l-71 -187h-47z" />
    <glyph glyph-name="l.sc" 
d="M236 57h356v-57h-421v554h65v-497z" />
    <glyph glyph-name="lacute.sc" 
d="M369 777l-129 -146h-55l87 146h97zM236 57h356v-57h-421v554h65v-497z" />
    <glyph glyph-name="lcaron.sc" 
d="M455 555l-48 -200h-47l20 200h75zM236 57h356v-57h-421v554h65v-497z" />
    <glyph glyph-name="lcommaaccent.sc" 
d="M236 57h356v-57h-421v554h65v-497zM305 -250l32 187h86l-71 -187h-47z" />
    <glyph glyph-name="lslash.sc" 
d="M236 57h356v-57h-421v238l-103 -54v60l103 54v256h65v-223l174 91v-59l-174 -91v-215z" />
    <glyph glyph-name="ldot.sc" 
d="M236 57h356v-57h-421v554h65v-497zM499 382v-117h-103v117h103z" />
    <glyph glyph-name="m.sc" 
d="M517 554h57v-554h-65v445l-170 -230h-18l-169 228v-443h-66v554h57l187 -255z" />
    <glyph glyph-name="n.sc" 
d="M493 554h65v-554h-55l-335 445v-445h-66v554h55l336 -448v448z" />
    <glyph glyph-name="nacute.sc" 
d="M485 777l-129 -146h-55l87 146h97zM493 554h65v-554h-55l-335 445v-445h-66v554h55l336 -448v448z" />
    <glyph glyph-name="ncaron.sc" 
d="M369 623h-73l-108 153h58l87 -103l86 103h58zM493 554h65v-554h-55l-335 445v-445h-66v554h55l336 -448v448z" />
    <glyph glyph-name="ncommaaccent.sc" 
d="M493 554h65v-554h-55l-335 445v-445h-66v554h55l336 -448v448zM257 -250l32 187h86l-71 -187h-47z" />
    <glyph glyph-name="eng.sc" 
d="M493 554h65v-618q0 -64 -41.5 -106t-105.5 -42q-42 0 -96 15v64q46 -21 92 -21q38 0 62 24.5t24 62.5v80l-325 432v-445h-66v554h55l336 -448v448z" />
    <glyph glyph-name="ntilde.sc" 
d="M280 711q-39 0 -42 -46h-61q2 51 30.5 76.5t70.5 25.5q33 0 63.5 -24.5t49.5 -24.5q41 0 43 45h60q-1 -50 -28.5 -76t-70.5 -26q-32 0 -64 25t-51 25zM493 554h65v-554h-55l-335 445v-445h-66v554h55l336 -448v448z" />
    <glyph glyph-name="o.sc" 
d="M330 562q123 0 196.5 -79t73.5 -204q0 -126 -73.5 -206t-196.5 -80t-196.5 80t-73.5 206q0 125 73.5 204t196.5 79zM330 506q-93 0 -147.5 -63.5t-54.5 -164.5t54.5 -165t147.5 -64t148 64t55 165q0 100 -55 164t-148 64z" />
    <glyph glyph-name="oacute.sc" 
d="M300 631l87 146h97l-129 -146h-55zM330 562q123 0 196.5 -79t73.5 -204q0 -126 -73.5 -206t-196.5 -80t-196.5 80t-73.5 206q0 125 73.5 204t196.5 79zM330 506q-93 0 -147.5 -63.5t-54.5 -164.5t54.5 -165t147.5 -64t148 64t55 165q0 100 -55 164t-148 64z" />
    <glyph glyph-name="ocircumflex.sc" 
d="M475 624h-58l-86 103l-87 -103h-58l108 153h73zM330 562q123 0 196.5 -79t73.5 -204q0 -126 -73.5 -206t-196.5 -80t-196.5 80t-73.5 206q0 125 73.5 204t196.5 79zM330 506q-93 0 -147.5 -63.5t-54.5 -164.5t54.5 -165t147.5 -64t148 64t55 165q0 100 -55 164t-148 64z
" />
    <glyph glyph-name="odieresis.sc" 
d="M188 646v113h87v-113h-87zM385 646v113h87v-113h-87zM330 562q123 0 196.5 -79t73.5 -204q0 -126 -73.5 -206t-196.5 -80t-196.5 80t-73.5 206q0 125 73.5 204t196.5 79zM330 506q-93 0 -147.5 -63.5t-54.5 -164.5t54.5 -165t147.5 -64t148 64t55 165q0 100 -55 164
t-148 64z" />
    <glyph glyph-name="ograve.sc" 
d="M361 631h-55l-129 146h97zM330 562q123 0 196.5 -79t73.5 -204q0 -126 -73.5 -206t-196.5 -80t-196.5 80t-73.5 206q0 125 73.5 204t196.5 79zM330 506q-93 0 -147.5 -63.5t-54.5 -164.5t54.5 -165t147.5 -64t148 64t55 165q0 100 -55 164t-148 64z" />
    <glyph glyph-name="ohungarumlaut.sc" 
d="M224 625l59 152h92l-102 -152h-49zM386 625l60 152h92l-102 -152h-50zM330 562q123 0 196.5 -79t73.5 -204q0 -126 -73.5 -206t-196.5 -80t-196.5 80t-73.5 206q0 125 73.5 204t196.5 79zM330 506q-93 0 -147.5 -63.5t-54.5 -164.5t54.5 -165t147.5 -64t148 64t55 165
q0 100 -55 164t-148 64z" />
    <glyph glyph-name="omacron.sc" 
d="M206 738h248v-55h-248v55zM330 562q123 0 196.5 -79t73.5 -204q0 -126 -73.5 -206t-196.5 -80t-196.5 80t-73.5 206q0 125 73.5 204t196.5 79zM330 506q-93 0 -147.5 -63.5t-54.5 -164.5t54.5 -165t147.5 -64t148 64t55 165q0 100 -55 164t-148 64z" />
    <glyph glyph-name="oslash.sc" 
d="M532 477q68 -77 68 -198q0 -126 -73.5 -206t-196.5 -80q-98 0 -168 54l-58 -67l-41 36l60 70q-63 75 -63 193q0 125 73.5 204t196.5 79q95 0 162 -48l60 70l41 -36zM128 278q0 -84 38 -143l286 332q-51 39 -122 39q-93 0 -147.5 -63.5t-54.5 -164.5zM330 49q93 0 148 64
t55 165q0 89 -43 150l-288 -334q51 -45 128 -45z" />
    <glyph glyph-name="otilde.sc" 
d="M394 661q-32 0 -64 25t-51 25q-39 0 -42 -46h-61q2 51 30.5 76.5t70.5 25.5q33 0 63.5 -24.5t49.5 -24.5q41 0 43 45h60q-1 -50 -28.5 -76t-70.5 -26zM330 562q123 0 196.5 -79t73.5 -204q0 -126 -73.5 -206t-196.5 -80t-196.5 80t-73.5 206q0 125 73.5 204t196.5 79z
M330 506q-93 0 -147.5 -63.5t-54.5 -164.5t54.5 -165t147.5 -64t148 64t55 165q0 100 -55 164t-148 64z" />
    <glyph glyph-name="oe.sc" 
d="M612 498h-222v-187h205v-57h-205v-197h222v-57h-295q-111 0 -185.5 80.5t-74.5 203.5q0 118 74.5 194t185.5 76h295v-56zM324 57v440h-12q-82 0 -134.5 -60t-52.5 -153q0 -98 52.5 -162.5t134.5 -64.5h12z" />
    <glyph glyph-name="p.sc" 
d="M123 0v554h285q83 0 135.5 -46.5t52.5 -119.5q0 -74 -52.5 -122t-135.5 -48h-219v-218h-66zM189 275h214q55 0 90 31.5t35 81.5q0 48 -35 79t-90 31h-214v-223z" />
    <glyph glyph-name="thorn.sc" 
d="M409 464q83 0 135 -48t52 -121t-52.5 -121.5t-134.5 -48.5h-220v-125h-66v554h66v-90h220zM403 182q56 0 90.5 32t34.5 81t-34.5 81t-90.5 32h-214v-226h214z" />
    <glyph glyph-name="q.sc" 
d="M638 31l-33 -41l-89 72q-74 -69 -186 -69q-123 0 -196.5 80t-73.5 206q0 125 73.5 204t196.5 79t196.5 -79t73.5 -204q0 -102 -50 -177zM330 49q83 0 137 52l-119 97l33 39l118 -95q34 59 34 136q0 100 -55 164t-148 64t-147.5 -63.5t-54.5 -164.5t54.5 -165t147.5 -64z
" />
    <glyph glyph-name="r.sc" 
d="M582 0h-73l-143 249h-180v-249h-65v554h257q81 0 132.5 -41t51.5 -107q0 -56 -36 -96.5t-95 -54.5zM186 498v-193h192q50 0 83 28.5t33 72.5q0 41 -32.5 66.5t-83.5 25.5h-192z" />
    <glyph glyph-name="racute.sc" 
d="M468 777l-129 -146h-55l87 146h97zM582 0h-73l-143 249h-180v-249h-65v554h257q81 0 132.5 -41t51.5 -107q0 -56 -36 -96.5t-95 -54.5zM186 498v-193h192q50 0 83 28.5t33 72.5q0 41 -32.5 66.5t-83.5 25.5h-192z" />
    <glyph glyph-name="rcaron.sc" 
d="M352 623h-73l-108 153h58l87 -103l86 103h58zM582 0h-73l-143 249h-180v-249h-65v554h257q81 0 132.5 -41t51.5 -107q0 -56 -36 -96.5t-95 -54.5zM186 498v-193h192q50 0 83 28.5t33 72.5q0 41 -32.5 66.5t-83.5 25.5h-192z" />
    <glyph glyph-name="rcommaaccent.sc" 
d="M431 255l151 -255h-73l-143 249h-180v-249h-65v554h257q81 0 132.5 -41t51.5 -107q0 -56 -36 -96.5t-95 -54.5zM186 498v-193h192q50 0 83 28.5t33 72.5q0 41 -32.5 66.5t-83.5 25.5h-192zM262 -250l32 187h86l-71 -187h-47z" />
    <glyph glyph-name="s.sc" 
d="M155 195q5 -72 55 -110t134 -38q72 0 113.5 26.5t41.5 75.5q0 20 -8 35t-19.5 25t-36.5 19t-45 14t-60 14q-121 26 -170.5 55t-49.5 99q0 74 56.5 114t157.5 40q108 0 170 -47t66 -133h-69q-8 124 -168 124q-69 0 -106.5 -24t-37.5 -69q0 -40 35.5 -62t132.5 -41
q40 -8 62 -13.5t57 -18.5t54 -28.5t33.5 -42t14.5 -60.5q0 -74 -60 -116.5t-164 -42.5q-116 0 -185 55.5t-72 149.5h68z" />
    <glyph glyph-name="sacute.sc" 
d="M300 631l87 146h97l-129 -146h-55zM155 195q5 -72 55 -110t134 -38q72 0 113.5 26.5t41.5 75.5q0 20 -8 35t-19.5 25t-36.5 19t-45 14t-60 14q-121 26 -170.5 55t-49.5 99q0 74 56.5 114t157.5 40q108 0 170 -47t66 -133h-69q-8 124 -168 124q-69 0 -106.5 -24t-37.5 -69
q0 -40 35.5 -62t132.5 -41q40 -8 62 -13.5t57 -18.5t54 -28.5t33.5 -42t14.5 -60.5q0 -74 -60 -116.5t-164 -42.5q-116 0 -185 55.5t-72 149.5h68z" />
    <glyph glyph-name="scaron.sc" 
d="M476 776l-108 -153h-73l-108 153h58l87 -103l86 103h58zM155 195q5 -72 55 -110t134 -38q72 0 113.5 26.5t41.5 75.5q0 20 -8 35t-19.5 25t-36.5 19t-45 14t-60 14q-121 26 -170.5 55t-49.5 99q0 74 56.5 114t157.5 40q108 0 170 -47t66 -133h-69q-8 124 -168 124
q-69 0 -106.5 -24t-37.5 -69q0 -40 35.5 -62t132.5 -41q40 -8 62 -13.5t57 -18.5t54 -28.5t33.5 -42t14.5 -60.5q0 -74 -60 -116.5t-164 -42.5q-116 0 -185 55.5t-72 149.5h68z" />
    <glyph glyph-name="scedilla.sc" 
d="M568 149q0 -74 -60 -116.5t-163 -42.5l-17 -60h9q40 0 66.5 -24.5t26.5 -60.5q0 -38 -28 -63t-71 -25q-44 0 -74.5 26.5t-35.5 66.5l52 7q1 -25 16.5 -39.5t38.5 -14.5q21 0 34.5 11.5t13.5 30.5q0 20 -15.5 32.5t-45.5 12.5h-25l-13 27l27 75q-99 9 -156.5 63t-60.5 140
h68q5 -72 55 -110t134 -38q72 0 113.5 26.5t41.5 75.5q0 20 -8 35t-19.5 25t-36.5 19t-45 14t-60 14q-121 26 -170.5 55t-49.5 99q0 74 56.5 114t157.5 40q108 0 170 -47t66 -133h-69q-8 124 -168 124q-69 0 -106.5 -24t-37.5 -69q0 -40 35.5 -62t132.5 -41q40 -8 62 -13.5
t57 -18.5t54 -28.5t33.5 -42t14.5 -60.5z" />
    <glyph glyph-name="scommaaccent.sc" 
d="M155 195q5 -72 55 -110t134 -38q72 0 113.5 26.5t41.5 75.5q0 20 -8 35t-19.5 25t-36.5 19t-45 14t-60 14q-121 26 -170.5 55t-49.5 99q0 74 56.5 114t157.5 40q108 0 170 -47t66 -133h-69q-8 124 -168 124q-69 0 -106.5 -24t-37.5 -69q0 -40 35.5 -62t132.5 -41
q40 -8 62 -13.5t57 -18.5t54 -28.5t33.5 -42t14.5 -60.5q0 -74 -60 -116.5t-164 -42.5q-116 0 -185 55.5t-72 149.5h68zM260 -250l32 187h86l-71 -187h-47z" />
    <glyph glyph-name="germandbls.sc" horiz-adv-x="1320" 
d="M155 195q5 -72 55 -110t134 -38q72 0 113.5 26.5t41.5 75.5q0 20 -8 35t-19.5 25t-36.5 19t-45 14t-60 14q-121 26 -170.5 55t-49.5 99q0 74 56.5 114t157.5 40q108 0 170 -47t66 -133h-69q-8 124 -168 124q-69 0 -106.5 -24t-37.5 -69q0 -40 35.5 -62t132.5 -41
q40 -8 62 -13.5t57 -18.5t54 -28.5t33.5 -42t14.5 -60.5q0 -74 -60 -116.5t-164 -42.5q-116 0 -185 55.5t-72 149.5h68zM815 195q5 -72 55 -110t134 -38q72 0 113.5 26.5t41.5 75.5q0 20 -8 35t-19.5 25t-36.5 19t-45 14t-60 14q-121 26 -170.5 55t-49.5 99q0 74 56.5 114
t157.5 40q108 0 170 -47t66 -133h-69q-8 124 -168 124q-69 0 -106.5 -24t-37.5 -69q0 -40 35.5 -62t132.5 -41q40 -8 62 -13.5t57 -18.5t54 -28.5t33.5 -42t14.5 -60.5q0 -74 -60 -116.5t-164 -42.5q-116 0 -185 55.5t-72 149.5h68z" />
    <glyph glyph-name="ordfeminine.ss04.sc" 
d="M312 163q-86 0 -142 58t-56 144q0 85 56.5 142t142.5 57q102 0 141 -78h1v70h59v-385h-59v73h-1q-44 -81 -142 -81zM315 515q-61 0 -102.5 -43t-41.5 -107q0 -65 41.5 -109t103.5 -44q58 0 100 41.5t42 105.5v10q-1 64 -43 105t-100 41zM144 53h370v-53h-370v53z" />
    <glyph glyph-name="t.sc" 
d="M607 554v-56h-244v-498h-66v498h-244v56h554z" />
    <glyph glyph-name="tbar.sc" 
d="M607 498h-244v-191h116v-56h-116v-251h-66v251h-118v56h118v191h-244v56h554v-56z" />
    <glyph glyph-name="tcaron.sc" 
d="M368 623h-73l-108 153h58l87 -103l86 103h58zM607 554v-56h-244v-498h-66v498h-244v56h554z" />
    <glyph glyph-name="uni0163.sc" 
d="M363 0h-13l-20 -70h9q40 0 66.5 -24.5t26.5 -60.5q0 -38 -28 -63t-71 -25q-44 0 -74.5 26.5t-35.5 66.5l52 7q1 -25 16.5 -39.5t38.5 -14.5q21 0 34.5 11.5t13.5 30.5q0 20 -15.5 32.5t-45.5 12.5h-25l-13 27l30 83h-12v498h-244v56h554v-56h-244v-498z" />
    <glyph glyph-name="uni021B.sc" 
d="M53 554h554v-56h-244v-498h-66v498h-244v56zM251 -250l32 187h86l-71 -187h-47z" />
    <glyph glyph-name="u.sc" 
d="M509 554h66v-329q0 -104 -70.5 -167.5t-173.5 -63.5q-104 0 -175 63.5t-71 167.5v329h66v-329q0 -77 53 -125.5t127 -48.5q73 0 125.5 48.5t52.5 125.5v329z" />
    <glyph glyph-name="uacute.sc" 
d="M485 777l-129 -146h-55l87 146h97zM509 554h66v-329q0 -104 -70.5 -167.5t-173.5 -63.5q-104 0 -175 63.5t-71 167.5v329h66v-329q0 -77 53 -125.5t127 -48.5q73 0 125.5 48.5t52.5 125.5v329z" />
    <glyph glyph-name="ucircumflex.sc" 
d="M332 727l-87 -103h-58l108 153h73l108 -153h-58zM509 554h66v-329q0 -104 -70.5 -167.5t-173.5 -63.5q-104 0 -175 63.5t-71 167.5v329h66v-329q0 -77 53 -125.5t127 -48.5q73 0 125.5 48.5t52.5 125.5v329z" />
    <glyph glyph-name="udieresis.sc" 
d="M276 759v-113h-87v113h87zM473 759v-113h-87v113h87zM509 554h66v-329q0 -104 -70.5 -167.5t-173.5 -63.5q-104 0 -175 63.5t-71 167.5v329h66v-329q0 -77 53 -125.5t127 -48.5q73 0 125.5 48.5t52.5 125.5v329z" />
    <glyph glyph-name="ugrave.sc" 
d="M374 631h-55l-129 146h97zM509 554h66v-329q0 -104 -70.5 -167.5t-173.5 -63.5q-104 0 -175 63.5t-71 167.5v329h66v-329q0 -77 53 -125.5t127 -48.5q73 0 125.5 48.5t52.5 125.5v329z" />
    <glyph glyph-name="uhungarumlaut.sc" 
d="M380 777l-102 -152h-49l59 152h92zM543 777l-102 -152h-50l60 152h92zM509 554h66v-329q0 -104 -70.5 -167.5t-173.5 -63.5q-104 0 -175 63.5t-71 167.5v329h66v-329q0 -77 53 -125.5t127 -48.5q73 0 125.5 48.5t52.5 125.5v329z" />
    <glyph glyph-name="umacron.sc" 
d="M455 738v-55h-248v55h248zM509 554h66v-329q0 -104 -70.5 -167.5t-173.5 -63.5q-104 0 -175 63.5t-71 167.5v329h66v-329q0 -77 53 -125.5t127 -48.5q73 0 125.5 48.5t52.5 125.5v329z" />
    <glyph glyph-name="uogonek.sc" 
d="M509 554h66v-329q0 -115 -86 -181q-61 -58 -80.5 -83t-19.5 -50q0 -21 13.5 -32.5t35.5 -11.5q33 0 58 10v-57q-32 -10 -65 -10q-49 0 -80 20.5t-31 58.5q0 29 19 54.5t67 60.5q-33 -10 -75 -10q-104 0 -175 63.5t-71 167.5v329h66v-329q0 -77 53 -125.5t127 -48.5
q73 0 125.5 48.5t52.5 125.5v329z" />
    <glyph glyph-name="uring.sc" 
d="M332 621q-41 0 -70 27t-29 67q0 41 29 68t70 27t70 -27t29 -68q0 -40 -29 -67t-70 -27zM332 769q-23 0 -38 -15.5t-15 -38.5t15 -38.5t38 -15.5t38 15.5t15 38.5t-15 38.5t-38 15.5zM509 554h66v-329q0 -104 -70.5 -167.5t-173.5 -63.5q-104 0 -175 63.5t-71 167.5v329
h66v-329q0 -77 53 -125.5t127 -48.5q73 0 125.5 48.5t52.5 125.5v329z" />
    <glyph glyph-name="v.sc" 
d="M528 554h72l-238 -554h-64l-238 554h72l198 -479z" />
    <glyph glyph-name="w.sc" 
d="M538 554h70l-109 -554h-60l-110 447l-109 -447h-59l-109 554h70l69 -452l113 452h51l113 -452z" />
    <glyph glyph-name="wacute.sc" 
d="M490 773l-129 -146h-55l87 146h97zM538 554h70l-109 -554h-60l-110 447l-109 -447h-59l-109 554h70l69 -452l113 452h51l113 -452z" />
    <glyph glyph-name="wcircumflex.sc" 
d="M331 727l-87 -103h-58l108 153h73l108 -153h-58zM538 554h70l-109 -554h-60l-110 447l-109 -447h-59l-109 554h70l69 -452l113 452h51l113 -452z" />
    <glyph glyph-name="wdieresis.sc" 
d="M275 759v-113h-87v113h87zM472 759v-113h-87v113h87zM538 554h70l-109 -554h-60l-110 447l-109 -447h-59l-109 554h70l69 -452l113 452h51l113 -452z" />
    <glyph glyph-name="wgrave.sc" 
d="M353 627h-55l-129 146h97zM538 554h70l-109 -554h-60l-110 447l-109 -447h-59l-109 554h70l69 -452l113 452h51l113 -452z" />
    <glyph glyph-name="x.sc" 
d="M599 0h-81l-188 239l-189 -239h-80l223 278l-211 276h80l177 -236l178 236h80l-212 -276z" />
    <glyph glyph-name="y.sc" 
d="M602 554l-239 -370v-184h-66v184l-239 370h75l197 -314l197 314h75z" />
    <glyph glyph-name="yacute.sc" 
d="M484 777l-129 -146h-55l87 146h97zM602 554l-239 -370v-184h-66v184l-239 370h75l197 -314l197 314h75z" />
    <glyph glyph-name="ycircumflex.sc" 
d="M331 727l-87 -103h-58l108 153h73l108 -153h-58zM602 554l-239 -370v-184h-66v184l-239 370h75l197 -314l197 314h75z" />
    <glyph glyph-name="ydieresis.sc" 
d="M275 759v-113h-87v113h87zM472 759v-113h-87v113h87zM602 554l-239 -370v-184h-66v184l-239 370h75l197 -314l197 314h75z" />
    <glyph glyph-name="ygrave.sc" 
d="M374 627h-55l-129 146h97zM602 554l-239 -370v-184h-66v184l-239 370h75l197 -314l197 314h75z" />
    <glyph glyph-name="z.sc" 
d="M163 57h416v-57h-497v48l411 450h-411v56h494v-46z" />
    <glyph glyph-name="zacute.sc" 
d="M480 777l-129 -146h-55l87 146h97zM163 57h416v-57h-497v48l411 450h-411v56h494v-46z" />
    <glyph glyph-name="zcaron.sc" 
d="M364 623h-73l-108 153h58l87 -103l86 103h58zM163 57h416v-57h-497v48l411 450h-411v56h494v-46z" />
    <glyph glyph-name="zdotaccent.sc" 
d="M371 759v-113h-88v113h88zM163 57h416v-57h-497v48l411 450h-411v56h494v-46z" />
    <glyph glyph-name="j.sc.ss01" 
d="M90 116q106 -68 209 -68q80 0 125.5 45t45.5 115v346h65v-347q0 -97 -63.5 -156t-167.5 -59q-118 0 -214 56v68z" />
    <glyph glyph-name="q.sc.ss02" 
d="M325 562q123 0 196.5 -79t73.5 -204q0 -126 -73.5 -206t-196.5 -80t-196.5 80t-73.5 206q0 125 73.5 204t196.5 79zM325 506q-93 0 -147.5 -63.5t-54.5 -164.5t54.5 -165t147.5 -64t148 64t55 165q0 100 -55 164t-148 64zM595 -128h-269v54h269v-54z" />
    <glyph glyph-name="r.sc.ss03" 
d="M513 168l69 -168h-78l-62 168q-19 49 -56 65t-105 16h-95v-249h-65v554h263q78 0 127.5 -42t49.5 -106q0 -56 -37 -93t-108 -48q36 -8 57.5 -30.5t39.5 -66.5zM186 305h191q52 0 84 29.5t32 71.5q0 40 -32 66t-83 26h-192v-193z" />
    <glyph glyph-name="racute.sc.ss03" 
d="M474 777l-129 -146h-55l87 146h97zM513 168l69 -168h-78l-62 168q-19 49 -56 65t-105 16h-95v-249h-65v554h263q78 0 127.5 -42t49.5 -106q0 -56 -37 -93t-108 -48q36 -8 57.5 -30.5t39.5 -66.5zM186 305h191q52 0 84 29.5t32 71.5q0 40 -32 66t-83 26h-192v-193z" />
    <glyph glyph-name="rcaron.sc.ss03" 
d="M358 623h-73l-108 153h58l87 -103l86 103h58zM513 168l69 -168h-78l-62 168q-19 49 -56 65t-105 16h-95v-249h-65v554h263q78 0 127.5 -42t49.5 -106q0 -56 -37 -93t-108 -48q36 -8 57.5 -30.5t39.5 -66.5zM186 305h191q52 0 84 29.5t32 71.5q0 40 -32 66t-83 26h-192
v-193z" />
    <glyph glyph-name="rcommaaccent.sc.ss03" 
d="M513 168l69 -168h-78l-62 168q-19 49 -56 65t-105 16h-95v-249h-65v554h263q78 0 127.5 -42t49.5 -106q0 -56 -37 -93t-108 -48q36 -8 57.5 -30.5t39.5 -66.5zM186 305h191q52 0 84 29.5t32 71.5q0 40 -32 66t-83 26h-192v-193zM265 -250l32 187h86l-71 -187h-47z" />
    <glyph glyph-name="ordfeminine.ss04" 
d="M312 307q-86 0 -142 58t-56 144q0 85 56.5 142t142.5 57q102 0 141 -78h1v70h59v-385h-59v73h-1q-44 -81 -142 -81zM315 660q-61 0 -102.5 -43.5t-41.5 -107.5q0 -65 41.5 -109t103.5 -44q58 0 100 41.5t42 105.5v10q-1 64 -43 105.5t-100 41.5zM144 218h370v-53h-370v53
z" />
    <glyph glyph-name="zero.lf" 
d="M330 710q127 0 195 -96t68 -265q0 -167 -68.5 -262.5t-194.5 -95.5t-194.5 95.5t-68.5 262.5q0 169 68 265t195 96zM330 654q-94 0 -144.5 -81t-50.5 -224q0 -62 11 -115l348 302q-50 118 -164 118zM330 47q94 0 144.5 81t50.5 221q0 81 -16 141l-351 -304
q48 -139 172 -139z" />
    <glyph glyph-name="one.lf" 
d="M385 57h216v-57h-513v57h232v580l-225 -88v66l260 90h30v-648z" />
    <glyph glyph-name="two.lf" 
d="M199 57h385v-57h-474v53h1l260 233q66 59 96.5 104.5t30.5 103.5q0 72 -44 116t-120 44q-75 0 -119.5 -45t-48.5 -127h-69q3 109 66.5 168.5t170.5 59.5t169.5 -58.5t62.5 -155.5q0 -70 -36 -122.5t-124 -132.5z" />
    <glyph glyph-name="three.lf" 
d="M317 392q128 0 193.5 -52.5t65.5 -140.5q0 -91 -67.5 -149.5t-170.5 -58.5q-108 0 -179 62.5t-77 159.5h69q6 -72 57 -119t130 -47q72 0 121.5 43t49.5 107t-47.5 103t-136.5 39h-70l-19 46l251 258h-391v57h468v-57z" />
    <glyph glyph-name="four.lf" 
d="M591 216v-57h-109v-159h-65v159h-354l-9 35q170 266 225 506h68q-47 -225 -214 -484h284v68l1 216h64v-284h109z" />
    <glyph glyph-name="five.lf" 
d="M350 453q104 0 169 -63t65 -166q0 -105 -68 -169t-178 -64q-104 0 -174.5 58.5t-81.5 158.5h69q8 -73 59.5 -117t126.5 -44q80 0 130.5 49t50.5 128t-50.5 126.5t-130.5 47.5q-56 0 -103 -25.5t-72 -64.5l-55 20l20 372h423v-57h-367l-14 -267q26 34 74 55.5t107 21.5z
" />
    <glyph glyph-name="six.lf" 
d="M351 453q104 0 171.5 -66t67.5 -166q0 -101 -69 -164.5t-178 -63.5q-128 0 -198 90t-70 255q0 178 75.5 274t199.5 96q83 0 147 -43t86 -137h-70q-13 66 -58 94.5t-103 28.5q-101 0 -161 -88t-56 -261q22 71 79.5 111t136.5 40zM346 48q78 0 127 48.5t49 125.5t-49 126.5
t-130 49.5q-79 0 -131.5 -47.5t-52.5 -122.5q0 -76 53 -128t134 -52z" />
    <glyph glyph-name="seven.lf" 
d="M94 700h497v-55q-255 -257 -263 -645h-72v9q8 378 267 634h-429v57z" />
    <glyph glyph-name="eight.lf" 
d="M422 379q78 -18 118 -69t40 -118q0 -86 -72 -143.5t-178 -57.5t-178 57.5t-72 143.5q0 67 40.5 118t117.5 69q-64 17 -98 58t-34 93q0 78 64.5 129t159.5 51t159.5 -51t64.5 -129q0 -53 -33.5 -93.5t-98.5 -57.5zM173 530q0 -55 41 -92t116 -37t116 37t41 92q0 54 -45 90
t-112 36t-112 -36t-45 -90zM330 45q78 0 130.5 43.5t52.5 106.5q0 67 -49 111t-134 44t-134 -44t-49 -111q0 -63 53 -106.5t130 -43.5z" />
    <glyph glyph-name="nine.lf" 
d="M520 619q70 -90 70 -255q0 -178 -75.5 -274t-199.5 -96q-83 0 -147 43t-86 137h70q13 -66 58 -94.5t103 -28.5q101 0 161 88t56 261q-22 -71 -79.5 -111t-136.5 -40q-104 0 -171.5 66t-67.5 166q0 101 69 164.5t178 63.5q128 0 198 -90zM322 304q79 0 131.5 47.5
t52.5 122.5q0 76 -53 128t-134 52q-78 0 -127 -48.5t-49 -125.5t49 -126.5t130 -49.5z" />
    <glyph glyph-name="zero.zero.lf" 
d="M330 710q127 0 195 -96t68 -265q0 -167 -68.5 -262.5t-194.5 -95.5t-194.5 95.5t-68.5 262.5q0 169 68 265t195 96zM330 654q-94 0 -144.5 -81t-50.5 -224q0 -62 11 -115l348 302q-50 118 -164 118zM330 47q94 0 144.5 81t50.5 221q0 81 -16 141l-351 -304
q48 -139 172 -139z" />
    <glyph glyph-name="three.ss10" 
d="M438 255q67 -14 103.5 -59t36.5 -113q0 -90 -63.5 -145t-173.5 -55q-118 0 -184 61t-67 163h69q1 -77 48 -122t135 -45q80 0 123.5 39t43.5 103q0 66 -46.5 103.5t-132.5 37.5h-57v57h57q74 0 117 35t43 98q0 59 -40 96t-113 37q-80 0 -121 -44t-43 -119h-69
q1 100 62 160.5t170 60.5q101 0 162 -52.5t61 -139.5q0 -60 -30.5 -101t-90.5 -56z" />
    <glyph glyph-name="three.lf.ss10" 
d="M423 366q75 -13 116 -59t41 -116q0 -90 -64 -145t-175 -55q-124 0 -190 61t-68 163h68q2 -78 49 -123t142 -45q81 0 125.5 39.5t44.5 103.5q0 68 -47 106.5t-133 38.5h-59v57h59q74 0 117.5 34.5t43.5 94.5q0 59 -41 96t-115 37q-87 0 -128.5 -43.5t-42.5 -119.5h-68
q1 101 61.5 160t176.5 59q103 0 164 -51.5t61 -138.5q0 -57 -34.5 -98t-103.5 -56z" />
    <glyph glyph-name="four.ss11" 
d="M612 96v-57h-110v-159h-66v159h-363l-15 57l357 484h87v-484h110zM436 514l-309 -418h309v418z" />
    <glyph glyph-name="four.lf.ss11" 
d="M607 216v-57h-110v-159h-66v159h-363l-15 57l357 484h87v-484h110zM431 634l-309 -418h309v418z" />
    <glyph glyph-name="zero.zero" 
d="M330 605q117 0 191 -86.5t74 -222.5q0 -134 -74 -219.5t-191 -85.5t-190.5 85.5t-73.5 219.5q0 136 73.5 222.5t190.5 86.5zM330 547q-90 0 -142.5 -69.5t-52.5 -181.5q0 -64 18 -113l327 284q-54 80 -150 80zM330 48q90 0 142.5 68.5t52.5 179.5q0 75 -24 132l-330 -286
q53 -94 159 -94z" />
    <glyph glyph-name="zero.dnom" 
d="M330 356q70 0 111.5 -50t41.5 -133q0 -79 -42 -131t-111 -52q-68 0 -110 52t-42 131t42 131t110 52zM330 312q-45 0 -70 -37t-25 -102q0 -25 5 -50l166 143q-25 46 -76 46zM330 34q46 0 70.5 37t24.5 102q0 28 -5 55l-167 -145q25 -49 77 -49z" />
    <glyph glyph-name="one.dnom" 
d="M363 44h124v-44h-306v44h128v262l-125 -53v57l136 44h43v-310z" />
    <glyph glyph-name="two.dnom" 
d="M276 45h183v-45h-269v33l136 108q37 30 53.5 54.5t16.5 53.5q0 30 -19.5 49.5t-51.5 19.5q-75 0 -81 -83h-54q4 61 40 93.5t95 32.5q55 0 90.5 -31.5t35.5 -80.5q0 -40 -25 -72.5t-72 -70.5z" />
    <glyph glyph-name="three.dnom" 
d="M334 203q58 -1 94 -29.5t36 -74.5q0 -47 -37 -78t-93 -31q-58 0 -97.5 34.5t-41.5 87.5h52q2 -34 26.5 -56.5t59.5 -22.5q34 0 56.5 18.5t22.5 47.5t-22.5 46t-60.5 17h-43l-15 41l115 103h-179v44h249v-44z" />
    <glyph glyph-name="four.dnom" 
d="M473 122v-43h-62v-79h-50v79h-185l-9 35q77 124 98 240h60q-22 -110 -96 -232h132l2 135h48v-135h62z" />
    <glyph glyph-name="five.dnom" 
d="M344 230q53 0 88 -33.5t35 -84.5q0 -53 -38.5 -87.5t-99.5 -34.5q-56 0 -92.5 30.5t-43.5 85.5h53q4 -35 27 -53.5t58 -18.5q37 0 59 21.5t22 55.5q0 35 -22 58t-58 23q-28 0 -49 -12.5t-29 -29.5l-51 10l11 191h239v-44h-196l-10 -124q33 47 97 47z" />
    <glyph glyph-name="six.dnom" 
d="M338 229q50 0 85.5 -33.5t35.5 -83.5q0 -53 -38.5 -87.5t-95.5 -34.5q-66 0 -103 44q-38 41 -38 127q0 93 37.5 144t104.5 51q46 0 82 -24t42 -76h-53q-8 57 -67 57q-45 0 -68.5 -39.5t-21.5 -104.5q9 26 35 43t63 17zM326 32q35 0 58 21.5t23 57.5q0 35 -22.5 56
t-58.5 21t-59 -21.5t-23 -55.5t23.5 -56.5t58.5 -22.5z" />
    <glyph glyph-name="seven.dnom" 
d="M194 351h279v-34q-65 -58 -99.5 -134t-39.5 -183h-60v2q5 106 40 177t101 128h-221v44z" />
    <glyph glyph-name="eight.dnom" 
d="M385 185q38 -9 60 -33.5t22 -58.5q0 -47 -38.5 -75t-98.5 -28q-59 0 -97.5 27.5t-38.5 75.5q0 34 21 58.5t61 33.5q-68 17 -68 80q0 42 34.5 66t87.5 24t87.5 -24t34.5 -66q0 -62 -67 -80zM257 259q0 -27 21 -43t52 -16t52 16t21 43q0 26 -21 41.5t-52 15.5t-52 -15.5
t-21 -41.5zM330 31q35 0 58 17.5t23 46.5t-22.5 48.5t-58.5 19.5q-34 0 -57 -19t-23 -48q0 -30 22.5 -47.5t57.5 -17.5z" />
    <glyph glyph-name="nine.dnom" 
d="M438 312q38 -41 38 -127q0 -93 -37.5 -144t-104.5 -51q-46 0 -82 24t-42 76h53q8 -57 67 -57q45 0 68.5 39.5t21.5 104.5q-9 -26 -35 -43t-63 -17q-50 0 -85.5 33.5t-35.5 83.5q0 53 38.5 87.5t95.5 34.5q66 0 103 -44zM334 158q36 0 59 21.5t23 55.5t-23.5 56.5
t-58.5 22.5t-58 -21.5t-23 -57.5q0 -35 22.5 -56t58.5 -21z" />
    <glyph glyph-name="zero.numr" 
d="M330 709q70 0 111.5 -50t41.5 -133q0 -79 -42 -131t-111 -52q-68 0 -110 52t-42 131t42 131t110 52zM330 665q-45 0 -70 -37t-25 -102q0 -25 5 -50l166 143q-25 46 -76 46zM330 387q46 0 70.5 37t24.5 102q0 28 -5 55l-167 -145q25 -49 77 -49z" />
    <glyph glyph-name="one.numr" 
d="M363 391h124v-44h-306v44h128v262l-125 -53v57l136 44h43v-310z" />
    <glyph glyph-name="two.numr" 
d="M276 393h183v-45h-269v33l136 108q37 30 53.5 54.5t16.5 53.5q0 30 -19.5 49.5t-51.5 19.5q-75 0 -81 -83h-54q4 61 40 93.5t95 32.5q55 0 90.5 -31.5t35.5 -80.5q0 -40 -25 -72.5t-72 -70.5z" />
    <glyph glyph-name="three.numr" 
d="M334 553q58 -1 94 -29.5t36 -74.5q0 -47 -37 -78t-93 -31q-58 0 -97.5 34.5t-41.5 87.5h52q2 -34 26.5 -56.5t59.5 -22.5q34 0 56.5 18.5t22.5 47.5t-22.5 46t-60.5 17h-43l-15 41l115 103h-179v44h249v-44z" />
    <glyph glyph-name="four.numr" 
d="M473 468v-43h-62v-79h-50v79h-185l-9 35q77 124 98 240h60q-22 -110 -96 -232h132l2 135h48v-135h62z" />
    <glyph glyph-name="five.numr" 
d="M344 579q53 0 88 -33.5t35 -84.5q0 -53 -38.5 -87.5t-99.5 -34.5q-56 0 -92.5 30.5t-43.5 85.5h53q4 -35 27 -53.5t58 -18.5q37 0 59 21.5t22 55.5q0 35 -22 58t-58 23q-28 0 -49 -12.5t-29 -29.5l-51 10l11 191h239v-44h-196l-10 -124q33 47 97 47z" />
    <glyph glyph-name="six.numr" 
d="M338 582q50 0 85.5 -33.5t35.5 -83.5q0 -53 -38.5 -87.5t-95.5 -34.5q-66 0 -103 44q-38 41 -38 127q0 93 37.5 144t104.5 51q46 0 82 -24t42 -76h-53q-8 57 -67 57q-45 0 -68.5 -39.5t-21.5 -104.5q9 26 35 43t63 17zM326 385q35 0 58 21.5t23 57.5q0 35 -22.5 56
t-58.5 21t-59 -21.5t-23 -55.5t23.5 -56.5t58.5 -22.5z" />
    <glyph glyph-name="seven.numr" 
d="M194 700h279v-34q-65 -58 -99.5 -134t-39.5 -183h-60v2q5 106 40 177t101 128h-221v44z" />
    <glyph glyph-name="eight.numr" 
d="M385 539q38 -9 60 -33.5t22 -58.5q0 -47 -38.5 -75t-98.5 -28q-59 0 -97.5 27.5t-38.5 75.5q0 34 21 58.5t61 33.5q-68 17 -68 80q0 42 34.5 66t87.5 24t87.5 -24t34.5 -66q0 -62 -67 -80zM257 613q0 -27 21 -43t52 -16t52 16t21 43q0 26 -21 41.5t-52 15.5t-52 -15.5
t-21 -41.5zM330 385q35 0 58 17.5t23 46.5t-22.5 48.5t-58.5 19.5q-34 0 -57 -19t-23 -48q0 -30 22.5 -47.5t57.5 -17.5z" />
    <glyph glyph-name="nine.numr" 
d="M438 666q38 -41 38 -127q0 -93 -37.5 -144t-104.5 -51q-46 0 -82 24t-42 76h53q8 -57 67 -57q45 0 68.5 39.5t21.5 104.5q-9 -26 -35 -43t-63 -17q-50 0 -85.5 33.5t-35.5 83.5q0 53 38.5 87.5t95.5 34.5q66 0 103 -44zM334 512q36 0 59 21.5t23 55.5t-23.5 56.5
t-58.5 22.5t-58 -21.5t-23 -57.5q0 -35 22.5 -56t58.5 -21z" />
    <glyph glyph-name="uni2083.ss10" 
d="M388 39q72 -16 72 -82q0 -47 -35 -75.5t-96 -28.5q-62 0 -101 32t-43 89h53q2 -36 26 -56.5t63 -20.5t59.5 17.5t20.5 46.5q0 59 -87 59h-24v39h24q38 0 59 16t21 44q0 26 -20 41.5t-54 15.5q-36 0 -58 -18t-23 -50h-50q3 52 38 81.5t93 29.5q57 0 91 -27.5t34 -71.5
q0 -63 -63 -81z" />
    <glyph glyph-name="three.dnom.ss10" 
d="M388 176q72 -16 72 -82q0 -47 -35 -75.5t-96 -28.5q-62 0 -101 32t-43 89h53q2 -36 26 -56.5t63 -20.5t59.5 17.5t20.5 46.5q0 59 -87 59h-24v39h24q38 0 59 16t21 44q0 26 -20 41.5t-54 15.5q-36 0 -58 -18t-23 -50h-50q3 52 38 81.5t93 29.5q57 0 91 -27.5t34 -71.5
q0 -63 -63 -81z" />
    <glyph glyph-name="three.numr.ss10" 
d="M388 529q72 -16 72 -82q0 -47 -35 -75.5t-96 -28.5q-62 0 -101 32t-43 89h53q2 -36 26 -56.5t63 -20.5t59.5 17.5t20.5 46.5q0 59 -87 59h-24v39h24q38 0 59 16t21 44q0 26 -20 41.5t-54 15.5q-36 0 -58 -18t-23 -50h-50q3 52 38 81.5t93 29.5q57 0 91 -27.5t34 -71.5
q0 -63 -63 -81z" />
    <glyph glyph-name="uni00B3.ss10" 
d="M388 529q72 -16 72 -82q0 -47 -35 -75.5t-96 -28.5q-62 0 -101 32t-43 89h53q2 -36 26 -56.5t63 -20.5t59.5 17.5t20.5 46.5q0 59 -87 59h-24v39h24q38 0 59 16t21 44q0 26 -20 41.5t-54 15.5q-36 0 -58 -18t-23 -50h-50q3 52 38 81.5t93 29.5q57 0 91 -27.5t34 -71.5
q0 -63 -63 -81z" />
    <glyph glyph-name="threequarters.ss10" 
d="M613 679l-192 -243l-31 22l176 254zM228 529q72 -16 72 -82q0 -47 -35 -75.5t-96 -28.5q-62 0 -101 32t-43 89h53q2 -36 26 -56.5t63 -20.5t59.5 17.5t20.5 46.5q0 59 -87 59h-24v39h24q38 0 59 16t21 44q0 26 -20 41.5t-54 15.5q-36 0 -58 -18t-23 -50h-50q3 52 38 81.5
t93 29.5q57 0 91 -27.5t34 -71.5q0 -63 -63 -81zM633 122v-43h-62v-79h-50v79h-185l-9 35q77 124 98 240h60q-22 -110 -96 -232h132l2 135h48v-135h62zM49 24l192 243l30 -23l-176 -253z" />
    <glyph glyph-name="uni2157.ss10" 
d="M613 679l-192 -243l-31 22l176 254zM228 529q72 -16 72 -82q0 -47 -35 -75.5t-96 -28.5q-62 0 -101 32t-43 89h53q2 -36 26 -56.5t63 -20.5t59.5 17.5t20.5 46.5q0 59 -87 59h-24v39h24q38 0 59 16t21 44q0 26 -20 41.5t-54 15.5q-36 0 -58 -18t-23 -50h-50q3 52 38 81.5
t93 29.5q57 0 91 -27.5t34 -71.5q0 -63 -63 -81zM504 230q53 0 88 -33.5t35 -84.5q0 -53 -38.5 -87.5t-99.5 -34.5q-56 0 -92.5 30.5t-43.5 85.5h53q4 -35 27 -53.5t58 -18.5q37 0 59 21.5t22 55.5q0 35 -22 58t-58 23q-28 0 -49 -12.5t-29 -29.5l-51 10l11 191h239v-44
h-196l-10 -124q33 47 97 47zM49 24l192 243l30 -23l-176 -253z" />
    <glyph glyph-name="threeeighths.ss10" 
d="M613 679l-192 -243l-31 22l176 254zM228 529q72 -16 72 -82q0 -47 -35 -75.5t-96 -28.5q-62 0 -101 32t-43 89h53q2 -36 26 -56.5t63 -20.5t59.5 17.5t20.5 46.5q0 59 -87 59h-24v39h24q38 0 59 16t21 44q0 26 -20 41.5t-54 15.5q-36 0 -58 -18t-23 -50h-50q3 52 38 81.5
t93 29.5q57 0 91 -27.5t34 -71.5q0 -63 -63 -81zM545 185q38 -9 60 -33.5t22 -58.5q0 -47 -38.5 -75t-98.5 -28q-59 0 -97.5 27.5t-38.5 75.5q0 34 21 58.5t61 33.5q-68 17 -68 80q0 42 34.5 66t87.5 24t87.5 -24t34.5 -66q0 -62 -67 -80zM417 259q0 -27 21 -43t52 -16
t52 16t21 43q0 26 -21 41.5t-52 15.5t-52 -15.5t-21 -41.5zM49 24l192 243l30 -23l-176 -253zM490 31q35 0 58 17.5t23 46.5t-22.5 48.5t-58.5 19.5q-34 0 -57 -19t-23 -48q0 -30 22.5 -47.5t57.5 -17.5z" />
    <glyph glyph-name="uni2084.ss11" 
d="M477 -24v-42h-62v-78h-51v78h-188l-7 42l179 234h67v-234h62zM366 166l-140 -190h138z" />
    <glyph glyph-name="four.dnom.ss11" 
d="M477 120v-42h-62v-78h-51v78h-188l-7 42l179 234h67v-234h62zM366 310l-140 -190h138z" />
    <glyph glyph-name="four.numr.ss11" 
d="M477 466v-42h-62v-78h-51v78h-188l-7 42l179 234h67v-234h62zM366 656l-140 -190h138z" />
    <glyph glyph-name="uni2074.ss11" 
d="M477 466v-42h-62v-78h-51v78h-188l-7 42l179 234h67v-234h62zM366 656l-140 -190h138z" />
    <glyph glyph-name="onequarter.ss11" 
d="M613 679l-192 -243l-31 22l176 254zM203 701v-310h124v-44h-306v44h128v262l-125 -53v57l136 44h43zM637 120v-42h-62v-78h-51v78h-188l-7 42l179 234h67v-234h62zM526 310l-140 -190h138zM49 24l192 243l30 -23l-176 -253z" />
    <glyph glyph-name="threequarters.ss11" 
d="M613 679l-192 -243l-31 22l176 254zM174 553q58 -1 94 -29.5t36 -74.5q0 -47 -37 -78t-93 -31q-58 0 -97.5 34.5t-41.5 87.5h52q2 -34 26.5 -56.5t59.5 -22.5q34 0 56.5 18.5t22.5 47.5t-22.5 46t-60.5 17h-43l-15 41l115 103h-179v44h249v-44zM637 120v-42h-62v-78h-51
v78h-188l-7 42l179 234h67v-234h62zM526 310l-140 -190h138zM49 24l192 243l30 -23l-176 -253z" />
    <glyph glyph-name="uni2158.ss11" 
d="M613 679l-192 -243l-31 22l176 254zM255 700v-234h62v-42h-62v-78h-51v78h-188l-7 42l179 234h67zM206 656l-140 -190h138zM504 230q53 0 88 -33.5t35 -84.5q0 -53 -38.5 -87.5t-99.5 -34.5q-56 0 -92.5 30.5t-43.5 85.5h53q4 -35 27 -53.5t58 -18.5q37 0 59 21.5
t22 55.5q0 35 -22 58t-58 23q-28 0 -49 -12.5t-29 -29.5l-51 10l11 191h239v-44h-196l-10 -124q33 47 97 47zM49 24l192 243l30 -23l-176 -253z" />
    <glyph glyph-name="zero.sc" 
d="M329 564q112 0 189 -80t77 -204q0 -128 -77 -208.5t-189 -80.5q-111 0 -187.5 80.5t-76.5 208.5q0 125 76.5 204.5t187.5 79.5zM329 508q-82 0 -139.5 -63t-57.5 -165q0 -64 24 -117l319 276q-58 69 -146 69zM329 47q83 0 141 64t58 169q0 68 -29 123l-321 -278
q58 -78 151 -78z" />
    <glyph glyph-name="one.sc" 
d="M378 55h223v-55h-513v55h226v438l-205 -69v62l233 68v-1l1 1h35v-499z" />
    <glyph glyph-name="two.sc" 
d="M226 55h353v-55h-463v47h1l207 137q96 62 127.5 107.5t31.5 88.5q0 62 -37 95t-106 33q-141 0 -155 -150h-66q5 99 62.5 152.5t156.5 53.5q96 0 153.5 -49.5t57.5 -133.5q0 -24 -6.5 -46.5t-24.5 -52.5t-57.5 -65t-98.5 -72z" />
    <glyph glyph-name="three.sc" 
d="M333 324q104 -1 162 -46.5t58 -118.5q0 -76 -58.5 -122t-156.5 -46q-104 0 -167 51t-70 135h69q7 -60 52 -95t117 -35q66 0 106 30.5t40 81.5q0 48 -41 78.5t-118 30.5h-65l-20 43l218 187h-346v56h426v-53z" />
    <glyph glyph-name="four.sc" 
d="M596 179v-55h-115v-124h-64v124h-335l-8 39q128 190 181 391h67q-51 -196 -171 -375h266v223h64v-223h115z" />
    <glyph glyph-name="five.sc" 
d="M350 370q93 0 150 -52.5t57 -136.5t-62 -137t-163 -53q-93 0 -153.5 45.5t-73.5 131.5h65q10 -58 51.5 -89.5t111.5 -31.5q71 0 114.5 37t43.5 97t-43 97t-113 37q-52 0 -96 -18.5t-65 -48.5l-51 18l18 288l1 -1v1h396v-55h-342l-14 -193q25 28 69.5 46t98.5 18z" />
    <glyph glyph-name="six.sc" 
d="M345 367q93 0 152.5 -54t59.5 -135q0 -83 -62 -135t-161 -52q-113 0 -179 74q-59 70 -59 202q0 146 64 221.5t180 75.5q80 0 138 -42t68 -108h-66q-8 41 -47 67.5t-91 26.5q-194 0 -187 -262q18 55 68.5 88t121.5 33zM336 47q68 0 111 37.5t43 93.5q0 59 -41.5 96.5
t-114.5 37.5t-118.5 -36t-45.5 -94q0 -57 47 -96t119 -39z" />
    <glyph glyph-name="seven.sc" 
d="M111 554h463v-47q-248 -229 -257 -507h-68v7q9 272 258 492h-396v55z" />
    <glyph glyph-name="eight.sc" 
d="M418 294q69 -13 106 -51t37 -91q0 -70 -64 -115.5t-167 -45.5q-102 0 -166 45.5t-64 116.5q0 53 37 91t105 51q-58 13 -88.5 46.5t-30.5 78.5q0 63 57.5 103.5t149.5 40.5q93 0 150 -40t57 -104q0 -46 -30.5 -79.5t-88.5 -46.5zM186 416q0 -44 38.5 -72.5t105.5 -28.5
t105.5 28.5t38.5 72.5q0 43 -38 68t-106 25t-106 -25t-38 -68zM330 46q76 0 121.5 31t45.5 81q0 49 -45 80t-122 31q-76 0 -121 -31t-45 -80q0 -50 45 -81t121 -31z" />
    <glyph glyph-name="nine.sc" 
d="M503 491q59 -70 59 -202q0 -146 -64 -221.5t-180 -75.5q-80 0 -138 42t-68 108h66q8 -41 47 -67.5t91 -26.5q194 0 187 262q-18 -55 -68.5 -88t-121.5 -33q-93 0 -152.5 54t-59.5 135q0 83 62 135t161 52q113 0 179 -74zM324 244q73 0 118.5 36t45.5 94q0 57 -47 96
t-119 39q-68 0 -111 -37.5t-43 -93.5q0 -59 41.5 -96.5t114.5 -37.5z" />
    <glyph glyph-name="zero.zero.sc" 
d="M329 564q112 0 189 -80t77 -204q0 -128 -77 -208.5t-189 -80.5q-111 0 -187.5 80.5t-76.5 208.5q0 125 76.5 204.5t187.5 79.5zM329 508q-82 0 -139.5 -63t-57.5 -165q0 -64 24 -117l319 276q-58 69 -146 69zM329 47q83 0 141 64t58 169q0 68 -29 123l-321 -278
q58 -78 151 -78z" />
    <glyph glyph-name="three.sc.ss10" 
d="M411 286q137 -25 137 -137q0 -71 -58 -114.5t-154 -43.5q-105 0 -167 49.5t-69 134.5h67q4 -59 48 -93.5t120 -34.5q68 0 108.5 29.5t40.5 78.5q0 48 -39.5 75t-115.5 27h-52v55h52q66 0 101 26t35 71t-36.5 72t-97.5 27q-70 0 -109 -32t-41 -89h-66q5 82 61 130t155 48
q90 0 144 -41t54 -109q0 -102 -118 -129z" />
    <glyph glyph-name="four.sc.ss11" 
d="M568 177v-56h-83v-121h-65v121h-335l-8 56l332 377h76v-377h83zM422 486l-269 -309h267z" />
    <glyph glyph-name="backslash.case" 
d="M514 0h-65l-306 700h65z" />
    <glyph glyph-name="periodcentered.case" 
d="M279 305v117h103v-117h-103z" />
    <glyph glyph-name="bullet.case" 
d="M330 214q-55 0 -94 39t-39 93v2q0 54 39 93t94 39t94 -39t39 -93v-2q0 -54 -39 -93t-94 -39z" />
    <glyph glyph-name="exclamdown.case" 
d="M279 703h102v-117h-102v117zM301 481h59l3 -481h-67z" />
    <glyph glyph-name="questiondown.case" 
d="M380 703v-117h-102v117h102zM479 187h70q-3 -93 -65 -145t-160 -52q-96 0 -156 53t-60 137q0 39 13 70.5t40.5 55.5t53.5 40.5t67 35.5l13 7l4 107h58l3 -136l-58 -30q-61 -27 -93 -62.5t-32 -89.5q0 -59 39 -95t106 -36q72 0 113.5 37t43.5 103z" />
    <glyph glyph-name="slash.case" 
d="M150 0l306 700h65l-306 -700h-65z" />
    <glyph glyph-name="braceleft.case" 
d="M316 474q-1 -101 -74 -122q73 -23 74 -123v-158q0 -71 70 -71h122v-58h-122q-64 0 -100.5 34t-36.5 95v156q0 58 -22.5 76.5t-71.5 18.5h-7v57h7q49 0 71.5 19t22.5 77v156q0 61 36.5 95t100.5 34h122v-57h-122q-70 0 -70 -71v-158z" />
    <glyph glyph-name="braceright.case" 
d="M505 379h7v-57h-7q-49 0 -71.5 -18.5t-22.5 -76.5v-156q0 -61 -36.5 -95t-100.5 -34h-122v58h122q70 0 70 71v158q1 100 74 123q-73 21 -74 122v158q0 71 -70 71h-122v57h122q64 0 100.5 -34t36.5 -95v-156q0 -58 22.5 -77t71.5 -19z" />
    <glyph glyph-name="bracketleft.case" 
d="M502 703h-173v-706h173v-57h-239v820h239v-57z" />
    <glyph glyph-name="bracketright.case" 
d="M397 760v-820h-239v57h173v706h-173v57h239z" />
    <glyph glyph-name="parenleft.case" 
d="M475 760q-101 -77 -157 -184t-56 -226t56 -226t157 -184h-87q-94 84 -144.5 190.5t-50.5 219.5q0 114 50.5 220t144.5 190h87z" />
    <glyph glyph-name="parenright.case" 
d="M185 760h87q94 -84 144.5 -190t50.5 -220q0 -113 -50.5 -219.5t-144.5 -190.5h-87q101 77 157 184t56 226t-56 226t-157 184z" />
    <glyph glyph-name="emdash.case" 
d="M70 383h520v-52h-520v52z" />
    <glyph glyph-name="endash.case" 
d="M105 384h450v-52h-450v52z" />
    <glyph glyph-name="hyphen.case" 
d="M185 384h290v-57h-290v57z" />
    <glyph glyph-name="guillemotleft.case" 
d="M186 351l134 -173h-78l-134 173l134 173h78zM386 351l142 -173h-85l-135 173l135 173h85z" />
    <glyph glyph-name="guillemotright.case" 
d="M274 351l-142 173h86l135 -173l-135 -173h-86zM474 351l-134 173h78l135 -173l-135 -173h-78z" />
    <glyph glyph-name="guilsinglleft.case" 
d="M271 351l150 -173h-79l-142 173l142 173h79z" />
    <glyph glyph-name="guilsinglright.case" 
d="M389 351l-150 173h79l142 -173l-142 -173h-79z" />
    <glyph glyph-name="asterisk.sc" 
d="M479 460l-109 -24l76 -96l-41 -28l-75 106l-75 -106l-41 28l76 96l-109 24l13 49l115 -35l-5 118h52l-5 -117l115 34z" />
    <glyph glyph-name="backslash.sc" 
d="M465 0h-63l-228 554h63z" />
    <glyph glyph-name="braceleft.sc" 
d="M324 413q0 -111 -90 -130q90 -21 90 -131v-83q0 -65 67 -65h88v-57h-89q-60 0 -96 33t-36 88v84q0 60 -25.5 81t-69.5 21h-8v57h8q43 0 69 21t26 81v84q0 55 36 88t96 33h89v-56h-88q-67 0 -67 -66v-83z" />
    <glyph glyph-name="braceright.sc" 
d="M497 311h8v-57h-8q-44 0 -69.5 -21t-25.5 -81v-84q0 -55 -36 -88t-96 -33h-89v57h88q67 0 67 65v83q0 110 90 131q-90 19 -90 130v83q0 66 -67 66h-88v56h89q60 0 96 -33t36 -88v-84q0 -60 26 -81t69 -21z" />
    <glyph glyph-name="bracketleft.sc" 
d="M484 562h-156v-558h156v-57h-221v671h221v-56z" />
    <glyph glyph-name="bracketright.sc" 
d="M397 618v-671h-221v57h156v558h-156v56h221z" />
    <glyph glyph-name="exclam.sc" 
d="M301 178l-5 376h67l-3 -376h-59zM289 -3v98h82v-98h-82z" />
    <glyph glyph-name="exclamdown.sc" 
d="M289 555h82v-98h-82v98zM301 374h59l3 -376h-67z" />
    <glyph glyph-name="guillemotleft.sc" 
d="M191 282l122 -149h-70l-123 149l123 149h70zM374 282l128 -149h-77l-123 149l123 149h77z" />
    <glyph glyph-name="guillemotright.sc" 
d="M279 282l-129 149h77l123 -149l-123 -149h-77zM461 282l-122 149h71l122 -149l-122 -149h-71z" />
    <glyph glyph-name="guilsinglleft.sc" 
d="M276 282l134 -149h-72l-128 149l128 149h72z" />
    <glyph glyph-name="guilsinglright.sc" 
d="M384 282l-134 149h72l128 -149l-128 -149h-72z" />
    <glyph glyph-name="numbersign.sc" 
d="M583 366h-117l-35 -155h106v-57h-119l-35 -154h-57l34 154h-137l-34 -154h-58l35 154h-98v57h111l35 155h-100v57h112l30 131h57l-29 -131h137l29 131h58l-30 -131h105v-57zM373 211l35 155h-137l-35 -155h137z" />
    <glyph glyph-name="parenleft.sc" 
d="M458 618q-92 -66 -138.5 -151t-46.5 -178q0 -210 185 -342h-79q-87 64 -130.5 153.5t-43.5 188.5q0 91 43.5 178t130.5 151h79z" />
    <glyph glyph-name="parenright.sc" 
d="M202 618h79q87 -64 130.5 -151t43.5 -178q0 -99 -43.5 -188.5t-130.5 -153.5h-79q185 132 185 342q0 93 -46.5 178t-138.5 151z" />
    <glyph glyph-name="question.sc" 
d="M331 564q84 0 136.5 -45t52.5 -118q0 -113 -160 -169l-9 -3l-3 -76h-55l-6 105h1l-1 1l50 17q115 38 115 122q0 49 -33 79.5t-86 30.5q-56 0 -90.5 -32t-36.5 -86h-68q4 81 56.5 127.5t136.5 46.5zM278 -3v99h82v-99h-82z" />
    <glyph glyph-name="questiondown.sc" 
d="M382 559v-99h-82v99h82zM454 166h68q-4 -81 -56.5 -127.5t-136.5 -46.5t-136.5 45t-52.5 118q0 113 160 169l9 3l3 76h55l6 -105h-1l1 -1l-50 -17q-115 -38 -115 -122q0 -49 33 -79.5t86 -30.5q56 0 90.5 32t36.5 86z" />
    <glyph glyph-name="quotedblbase.sc" 
d="M201 -113l18 204h90l-63 -204h-45zM355 -113l18 204h90l-63 -204h-45z" />
    <glyph glyph-name="quotedblleft.sc" 
d="M300 555l-18 -204h-90l63 204h45zM454 555l-18 -204h-90l63 204h45z" />
    <glyph glyph-name="quotedblright.sc" 
d="M219 351l18 204h90l-63 -204h-45zM374 351l18 204h90l-63 -204h-45z" />
    <glyph glyph-name="quoteleft.sc" 
d="M372 555l-18 -204h-90l63 204h45z" />
    <glyph glyph-name="quoteright.sc" 
d="M286 351l18 204h90l-63 -204h-45z" />
    <glyph glyph-name="quotesinglbase.sc" 
d="M286 -113l18 204h90l-63 -204h-45z" />
    <glyph glyph-name="slash.sc" 
d="M194 0l228 554h63l-228 -554h-63z" />
    <glyph glyph-name="typewritermark" 
d="M277 700v-44h-104v-287h-50v287h-104v44h258zM574 700h49l-55 -331h-33l-64 227l-65 -227h-33l-54 331h48l32 -234l55 190h33l55 -190z" />
    <glyph glyph-name="registered.alt" 
d="M331 712q135 0 223 -101.5t88 -258.5q0 -158 -88.5 -261t-224.5 -103q-135 0 -223 102.5t-88 259.5q0 158 88.5 260t224.5 102zM329 29q119 0 194 90.5t75 231.5q0 140 -74 230t-193 90t-194 -90.5t-75 -230.5t74.5 -230.5t192.5 -90.5zM481 447q0 -39 -26.5 -67.5
t-70.5 -37.5l116 -195h-59l-103 192h-91v-192h-47v406h156q54 0 89.5 -29.5t35.5 -76.5zM247 511v-131h102q37 0 61.5 18.5t24.5 47.5q0 30 -22.5 47.5t-56.5 17.5h-109z" />
    <glyph glyph-name="at.case" 
d="M408 511h62v-225q0 -71 43 -71q34 0 54.5 44.5t20.5 116.5q0 129 -67.5 208t-178.5 79q-125 0 -198 -84.5t-73 -228.5q0 -146 72.5 -231.5t197.5 -85.5q129 0 221 107v-62q-94 -88 -220 -88q-147 0 -232 96.5t-85 261.5t85 261t230 96q131 0 212.5 -88.5t81.5 -231.5
q0 -103 -38 -160.5t-98 -57.5q-38 0 -60 21.5t-27 59.5h-2q-26 -82 -107 -82q-60 0 -95.5 49.5t-35.5 127.5t37 126.5t100 48.5q72 0 98 -67h2v60zM408 345v5q0 54 -24 86t-64 32t-63.5 -32t-23.5 -93q0 -59 23.5 -91t62.5 -32q41 0 65 33t24 92z" />
    <glyph glyph-name="registered.alt.ss03" 
d="M331 712q135 0 223 -101.5t88 -258.5q0 -158 -88.5 -261t-224.5 -103q-135 0 -223 102.5t-88 259.5q0 158 88.5 260t224.5 102zM329 29q119 0 194 90.5t75 231.5q0 140 -74 230t-193 90t-194 -90.5t-75 -230.5t74.5 -230.5t192.5 -90.5zM369 351q30 -6 46 -23t30 -50
l55 -131h-51l-48 128q-14 38 -40.5 51t-80.5 13h-33v-192h-47v406h156q54 0 89.5 -29.5t35.5 -76.5q0 -40 -28.5 -65t-83.5 -31zM247 380h102q39 0 62.5 18.5t23.5 47.5q0 30 -22.5 47.5t-56.5 17.5h-109v-131z" />
    <glyph glyph-name="registered.ss03" 
d="M331 716q99 0 169 -68t70 -170q0 -104 -70.5 -173t-170.5 -69q-99 0 -169 68.5t-70 171.5t70.5 171.5t170.5 68.5zM329 271q85 0 145 58.5t60 147.5q0 88 -59.5 146.5t-143.5 58.5q-85 0 -145 -58.5t-60 -147.5q0 -88 60 -146.5t143 -58.5zM365 478q20 -4 31 -14.5
t20 -32.5l36 -76h-42l-30 74q-10 24 -25.5 31t-54.5 7h-30v-112h-36v252h125q35 0 57.5 -19t22.5 -48q0 -55 -74 -62zM270 499h82q24 0 38.5 11t14.5 29q0 16 -13 26.5t-33 10.5h-89v-77z" />
    <glyph glyph-name="ampersand.ss12" 
d="M523 141l137 -141h-84l-87 90q-81 -100 -212 -100q-102 0 -163 53.5t-61 140.5q0 50 26 89.5t56 59.5t77 43q-47 49 -70.5 89.5t-23.5 86.5q0 69 49 113.5t125 44.5q75 0 123.5 -45t48.5 -116q0 -56 -36.5 -100.5t-120.5 -86.5l171 -176q30 69 30 162h123v-56h-64
q-9 -86 -44 -151zM293 655q-49 0 -81 -28.5t-32 -73.5q0 -39 22.5 -74t63.5 -77q68 33 102 67.5t34 81.5t-30.5 75.5t-78.5 28.5zM281 45q105 0 168 87l-197 204q-27 -13 -46.5 -24.5t-42.5 -30t-35 -43.5t-12 -54q0 -62 45 -100.5t120 -38.5z" />
    <glyph glyph-name="at.sc" 
d="M409 439h62v-225q0 -71 43 -71q34 0 54.5 44.5t20.5 116.5q0 129 -67.5 208t-178.5 79q-125 0 -198 -84.5t-73 -228.5q0 -146 72.5 -231.5t197.5 -85.5q129 0 221 107v-62q-94 -88 -220 -88q-147 0 -232 96.5t-85 261.5t85 261t230 96q131 0 212.5 -88.5t81.5 -231.5
q0 -103 -38 -160.5t-98 -57.5q-38 0 -60 21.5t-27 59.5h-2q-26 -82 -107 -82q-60 0 -95.5 49.5t-35.5 127.5t37 126.5t100 48.5q72 0 98 -67h2v60zM409 273v5q0 54 -24 86t-64 32t-63.5 -32t-23.5 -93q0 -59 23.5 -91t62.5 -32q41 0 65 33t24 92z" />
    <glyph glyph-name="ampersand.sc" 
d="M478 112l119 -113h-69l-79 73q-71 -81 -186 -81q-82 0 -137 43t-55 110q0 55 36.5 90.5t98.5 65.5q-42 41 -61.5 71t-19.5 67q0 55 43.5 91t108.5 36q64 0 105 -34.5t41 -91.5q0 -47 -30 -82.5t-98 -68.5l142 -136q27 53 27 125h56q0 -93 -42 -165zM183 438
q0 -22 12 -43.5t24.5 -35t36.5 -35.5q58 28 85 53t27 62q0 35 -25 57.5t-65 22.5q-41 0 -68 -23t-27 -58zM267 42q89 0 143 67l-167 155q-24 -10 -39.5 -19t-34 -23t-28 -33t-9.5 -42q0 -45 38 -75t97 -30z" />
    <glyph glyph-name="section.sc" 
d="M442 123q40 -27 40 -81q0 -55 -44 -88.5t-115 -33.5q-74 0 -119.5 35t-51.5 94h64q4 -35 31.5 -58t73.5 -23q41 0 68 19t27 52q0 29 -22.5 44.5t-87.5 34.5q-86 25 -111 42q-46 31 -46 95q0 71 67 105q-42 27 -42 82t44 89t114 34q72 0 116 -33.5t52 -90.5h-64
q-5 34 -31.5 55t-70.5 21q-39 0 -66.5 -19t-27.5 -52q0 -29 21.5 -44.5t85.5 -34.5q5 -1 14 -4q31 -9 46.5 -14t39.5 -16.5t35.5 -23.5t20.5 -32t9 -46q0 -73 -70 -108zM215 258q0 -37 21.5 -54.5t87.5 -36.5q48 -13 73 -22q48 33 48 83q0 35 -25 53t-91 37q-46 13 -71 22
q-43 -32 -43 -82z" />
    <glyph glyph-name="copyright.sc" 
d="M329 -29q-122 0 -209 88t-87 220q0 131 88 219t210 88t209 -87.5t87 -218.5q0 -132 -87.5 -220.5t-210.5 -88.5zM329 3q107 0 183.5 79t76.5 197t-75.5 196t-182.5 78t-183.5 -78.5t-76.5 -195.5q0 -118 75.5 -197t182.5 -79zM479 234q-9 -59 -48.5 -96.5t-97.5 -37.5
q-71 0 -115 50t-44 129t44 128.5t115 49.5q56 0 95.5 -35.5t50.5 -93.5h-48q-8 39 -34 63t-64 24q-50 0 -80.5 -38t-30.5 -98t30.5 -98.5t80.5 -38.5q38 0 64.5 25.5t34.5 66.5h47z" />
    <glyph glyph-name="degree.sc" 
d="M330 589q58 0 100 -39.5t42 -98.5q0 -58 -41.5 -97t-99.5 -39t-100 39t-42 97q0 59 41.5 98.5t99.5 39.5zM331 545q-39 0 -66 -26.5t-27 -66.5t27 -66.5t66 -26.5t66 26.5t27 66.5t-27 66.5t-66 26.5z" />
    <glyph glyph-name="dagger.sc" 
d="M465 483v-47h-110v-259h-49v259h-111v47h111v109h49v-109h110z" />
    <glyph glyph-name="daggerdbl.sc" 
d="M465 436h-110v-103h110v-48h-110v-108h-49v108h-111v48h111v103h-111v47h111v109h49v-109h110v-47z" />
    <glyph glyph-name="cent.sc" 
d="M540 216q-12 -66 -61.5 -109.5t-120.5 -48.5v-137h-47v137q-87 10 -139 71.5t-52 151.5t52 151t139 71v140h47v-140q70 -5 119 -47.5t61 -106.5h-61q-11 41 -43 69t-76 33v-340q46 5 78 33.5t41 71.5h63zM180 281q0 -67 35.5 -113t95.5 -56v338q-60 -10 -95.5 -56
t-35.5 -113z" />
    <glyph glyph-name="currency.sc" 
d="M543 282q0 -75 -41 -133l73 -69l-34 -34l-71 68q-57 -51 -140 -51q-81 0 -138 49l-71 -68l-34 34l72 69q-42 58 -42 135q0 83 49 143l-82 78l34 35l83 -79q57 42 129 42q76 0 131 -44l82 78l34 -34l-81 -78q47 -60 47 -141zM330 111q72 0 117.5 49t45.5 122t-45.5 122
t-117.5 49t-117 -49t-45 -122t45 -122t117 -49z" />
    <glyph glyph-name="dollar.sc" 
d="M530 159q0 -63 -49.5 -98t-132.5 -37v-106h-47v108q-87 7 -136.5 50.5t-55.5 121.5h52q13 -111 140 -126v191q-42 9 -66.5 17t-52.5 23.5t-41 40t-13 58.5q0 61 47 96t126 39v137h47v-137q168 -11 177 -147h-52q-9 91 -125 100v-189q95 -23 138.5 -51.5t43.5 -90.5z
M181 402q0 -35 26 -53.5t94 -36.5v178q-57 -3 -88.5 -25.5t-31.5 -62.5zM348 70q60 2 94.5 23.5t34.5 64.5q0 35 -28 56t-101 38v-182z" />
    <glyph glyph-name="Euro.sc" 
d="M372 39q63 0 104 37t56 102h61q-21 -88 -78.5 -138t-142.5 -50q-100 0 -163.5 55t-80.5 154h-103v39h98q-2 26 -2 39q0 15 2 41h-98v41h103q19 97 82 151t162 54q88 0 146 -51.5t78 -142.5h-60q-14 68 -56.5 107t-107.5 39q-71 0 -117.5 -41t-63.5 -116h246v-41h-252
q-2 -26 -2 -41q0 -13 2 -39h252v-39h-246q15 -75 62 -117.5t119 -42.5z" />
    <glyph glyph-name="percent.sc" 
d="M181 296q-58 0 -98 38.5t-40 94.5q0 58 39.5 96.5t98.5 38.5t99.5 -38.5t40.5 -96.5q0 -56 -40.5 -94.5t-99.5 -38.5zM110 57l-30 36l498 429l29 -33zM181 338q38 0 64 26t26 65q0 40 -26 66.5t-64 26.5q-37 0 -62.5 -26.5t-25.5 -66.5q0 -39 25.5 -65t62.5 -26zM471 -10
q-58 0 -98 38.5t-40 94.5q0 58 39.5 96.5t98.5 38.5t99.5 -38.5t40.5 -96.5q0 -56 -40.5 -94.5t-99.5 -38.5zM471 32q38 0 64 26t26 65q0 40 -26 66.5t-64 26.5t-63 -26.5t-25 -66.5q0 -39 25 -65t63 -26z" />
    <glyph glyph-name="perthousand.sc" 
d="M163 337q-56 0 -91.5 32t-35.5 81q0 50 36 82.5t91 32.5q56 0 92.5 -32.5t36.5 -82.5q0 -49 -36.5 -81t-92.5 -32zM163 377q35 0 57.5 20t22.5 53t-22 53.5t-58 20.5q-34 0 -56.5 -20.5t-22.5 -53.5t22.5 -53t56.5 -20zM25 208l-10 35l618 193l10 -33zM224 -9
q-55 0 -91 32t-36 82t36 82t91 32q56 0 92.5 -32t36.5 -82t-36.5 -82t-92.5 -32zM512 -9q-55 0 -91 32.5t-36 81.5t36 81.5t91 32.5q56 0 92 -32.5t36 -81.5t-36 -81.5t-92 -32.5zM224 31q36 0 58 20.5t22 53.5t-22.5 53t-57.5 20t-57 -20t-22 -53t22 -53.5t57 -20.5z
M512 31q36 0 58.5 20.5t22.5 53.5t-22.5 53t-58.5 20q-35 0 -57 -20t-22 -53t22 -53.5t57 -20.5z" />
    <glyph glyph-name="sterling.sc" 
d="M198 55h323v-55h-392l-8 43q6 6 22 24t21.5 24t16 20t14.5 22.5t7.5 21t3.5 24.5q0 25 -12 54h-97v52h71q-34 66 -34 111q0 72 54 120.5t138 48.5q70 0 118.5 -37t65.5 -105h-60q-27 88 -124 88q-56 0 -92 -33t-36 -85q0 -40 37 -108h223v-52h-196q9 -27 9 -49
q0 -36 -17 -64t-56 -65z" />
    <glyph glyph-name="yen.sc" 
d="M578 554l-191 -302h138v-40h-164v-55h164v-40h-164v-117h-61v117h-164v40h164v53l-1 2h-163v40h137l-191 302h68l180 -288l180 288h68z" />
    <glyph glyph-name="ampersand.sc.ss12" 
d="M607 225h-91q-7 -59 -38 -113l119 -113h-69l-79 73q-71 -81 -186 -81q-82 0 -137 43t-55 110q0 55 36.5 90.5t98.5 65.5q-42 41 -61.5 71t-19.5 67q0 55 43.5 91t108.5 36q64 0 105 -34.5t41 -91.5q0 -47 -30 -82.5t-98 -68.5l142 -136q27 53 27 125h143v-52zM183 438
q0 -22 12 -43.5t24.5 -35t36.5 -35.5q58 28 85 53t27 62q0 35 -25 57.5t-65 22.5q-41 0 -68 -23t-27 -58zM267 42q89 0 143 67l-167 155q-24 -10 -39.5 -19t-34 -23t-28 -33t-9.5 -42q0 -45 38 -75t97 -30z" />
    <glyph glyph-name="caron.alt" 
d="M303 763h75l-48 -200h-47z" />
  </font>
</defs>
</svg>
