<?xml version="1.0" standalone="no"?>
<!DOCTYPE svg PUBLIC "-//W3C//DTD SVG 1.1//EN" "http://www.w3.org/Graphics/SVG/1.1/DTD/svg11.dtd" >
<svg xmlns="http://www.w3.org/2000/svg">
<metadata></metadata>
<defs>
<font id="ovarbook" horiz-adv-x="1476" >
<font-face units-per-em="2048" ascent="1536" descent="-512" />
<missing-glyph horiz-adv-x="786" />
<glyph horiz-adv-x="0" />
<glyph unicode="&#xd;" horiz-adv-x="1468" />
<glyph horiz-adv-x="0" />
<glyph horiz-adv-x="0" />
<glyph unicode=" "  horiz-adv-x="786" />
<glyph unicode="&#x09;" horiz-adv-x="786" />
<glyph unicode="&#xa0;" horiz-adv-x="786" />
<glyph unicode="!" horiz-adv-x="573" d="M-39 94q0 63 45 108.5t109 45.5q63 0 107 -45.5t44 -108.5t-44 -107t-107 -44t-108.5 44t-45.5 107zM12 1538h205l-57 -1028h-90z" />
<glyph unicode="&#x22;" horiz-adv-x="1126" d="M8 1585h201q-14 -139 -29.5 -271t-29.5 -272h-101zM457 1585h198q-14 -139 -29.5 -271t-29.5 -272h-100z" />
<glyph unicode="#" horiz-adv-x="1744" d="M-51 391v129h272l82 467h-254v129h275l73 422h135l-69 -422h506l71 422h140l-74 -422h242v-129h-263l-79 -467h241v-129h-262l-70 -391h-139l68 391h-506l-66 -391h-139l66 391h-250zM358 520h508l80 467h-506z" />
<glyph unicode="$" horiz-adv-x="1343" d="M-41 412h158q2 -57 31.5 -109.5t75.5 -94.5t104.5 -70.5t117.5 -37.5v631q-102 37 -186 75t-144.5 86t-94 113.5t-33.5 157.5q0 68 28.5 138.5t86 129t143.5 98.5t200 46v197h70v-197q98 -6 180 -42t142.5 -92.5t95.5 -129t39 -152.5h-160q-2 61 -27.5 110.5t-67.5 85.5 t-94.5 56.5t-107.5 26.5v-578q76 -29 161 -62.5t157.5 -84.5t119.5 -125t47 -180q0 -72 -28.5 -147t-89 -138.5t-151.5 -106.5t-216 -49v-246h-70v246q-109 8 -196.5 49t-151 102.5t-100.5 138.5t-39 155zM137 1163q0 -59 21.5 -100t61.5 -71.5t97.5 -55.5t128.5 -51v551 q-72 -6 -129 -33t-97 -63.5t-61.5 -83t-21.5 -93.5zM516 111l10 -11q70 6 129.5 29t102.5 62.5t67.5 94t24.5 124.5q0 94 -90 164.5t-244 130.5v-594z" />
<glyph unicode="%" horiz-adv-x="1576" d="M-39 1233q0 68 22.5 128t61.5 105t91.5 72t111.5 27q57 0 109.5 -27t91 -72t61 -105.5t22.5 -127.5q0 -70 -22.5 -130.5t-61 -105.5t-91 -71.5t-109.5 -26.5q-59 0 -111.5 26.5t-91.5 71.5t-61.5 105.5t-22.5 130.5zM84 1233q0 -43 13.5 -83t36 -70.5t52 -49t62.5 -18.5 t63.5 18.5t52 49t35 70.5t13.5 83t-13.5 82t-35 69.5t-52 49t-63.5 18.5t-62.5 -18.5t-52 -49t-36 -69.5t-13.5 -82zM166 -25l846 1581h178l-848 -1581h-176zM821 307q0 68 22.5 128.5t61.5 105.5t90.5 71.5t110.5 26.5t111.5 -26.5t91.5 -71.5t61.5 -105.5t22.5 -128.5 t-22.5 -128t-61.5 -105t-91.5 -72t-111.5 -27t-110.5 27t-90.5 72t-61.5 105.5t-22.5 127.5zM944 307q0 -43 13.5 -83t35 -69.5t51 -48t62.5 -18.5t63.5 18.5t53 48t36 69.5t13.5 83t-13.5 83t-36 71t-53 49t-63.5 18t-62.5 -18t-51 -49t-35 -71t-13.5 -83z" />
<glyph unicode="&#x26;" horiz-adv-x="1468" d="M-76 453q0 78 22.5 148.5t62.5 134t94.5 116.5t115.5 96q-53 72 -87 149t-38 138q-4 74 17.5 140.5t68.5 115.5q47 51 107.5 75.5t128.5 24.5q74 0 133 -25.5t101 -71.5t60.5 -108.5t8.5 -134.5q-14 -98 -71.5 -168.5t-184.5 -134.5l-41 -26q49 -59 106.5 -140.5 t112.5 -160.5q53 -76 108.5 -154t98.5 -135q47 88 69.5 197.5t22.5 228.5h137q-2 -170 -42 -296t-101 -224v-13l178 -227h-186q-10 10 -23 27q-10 14 -28.5 35.5t-43.5 54.5q-86 -78 -178 -121t-188 -43q-121 0 -220.5 37t-170 102.5t-110.5 158.5t-40 204zM78 453 q0 -164 103.5 -260.5t283.5 -96.5q82 0 158.5 27t138.5 86q-49 61 -108.5 145t-118.5 166q-59 84 -121 170t-115 152q-109 -72 -165 -179.5t-56 -209.5zM240 1245q4 -37 28.5 -97.5t77.5 -129.5l62 37h-2q53 31 86.5 58.5t53 53t27 51t11.5 52.5q8 88 -34 147.5t-134 59.5 q-43 0 -78 -15.5t-59.5 -44t-36 -71.5t-2.5 -101z" />
<glyph unicode="'" horiz-adv-x="700" d="M12 1585h199q-14 -139 -29.5 -271t-29.5 -272h-101z" />
<glyph unicode="(" horiz-adv-x="669" d="M8 551q0 340 69.5 599t168.5 413h106q-41 -72 -80 -166t-69.5 -217t-49 -279t-18.5 -348q0 -197 18.5 -352.5t49 -277.5t69.5 -215t80 -167h-106q-49 76 -92 180.5t-76 233.5t-51.5 279.5t-18.5 316.5z" />
<glyph unicode=")" horiz-adv-x="669" d="M-55 -459q39 74 77.5 169t69.5 219t50.5 278.5t19.5 345.5q0 197 -18.5 352.5t-49.5 277.5t-69.5 215t-79.5 165h106q49 -78 92 -182.5t75 -232.5t51.5 -277.5t19.5 -315.5q0 -340 -68.5 -600t-169.5 -414h-106z" />
<glyph unicode="*" horiz-adv-x="1230" d="M-49 1223l53 129l356 -181l-38 424h147l-41 -424q86 43 178 90.5t178 90.5l52 -127l-390 -121l306 -297l-95 -92l-264 334l-262 -336l-96 94l307 297q-94 27 -194.5 58.5t-196.5 60.5z" />
<glyph unicode="+" horiz-adv-x="1327" d="M-61 549v137h415v399h146v-399h415v-137h-415v-404h-146v404h-415z" />
<glyph unicode="," horiz-adv-x="759" d="M-55 -268l147 544h230l-246 -575q-35 6 -67 14.5t-64 16.5z" />
<glyph unicode="-" horiz-adv-x="1214" d="M8 541v135h780v-135h-780zM788 524l21 17h-21v-17z" />
<glyph unicode="." horiz-adv-x="768" d="M78 98q0 63 44 108.5t107 45.5q61 0 107.5 -45.5t46.5 -108.5t-46 -107t-108 -44q-63 0 -107 44t-44 107z" />
<glyph unicode="/" horiz-adv-x="1081" d="M-78 0q168 391 334 769t334 769h133q-168 -391 -335 -769t-335 -769h-131z" />
<glyph unicode="0" horiz-adv-x="1429" d="M-39 758q0 186 43 335.5t117 256t172 164t211 57.5t211 -55.5t172 -159t117 -252t43 -334.5q0 -184 -43 -332.5t-117 -253t-172.5 -160t-210.5 -55.5q-113 0 -211 54.5t-172 156t-117 247.5t-43 331zM106 758q0 -141 29 -261t81 -206t126 -135.5t162 -49.5q47 0 87 13.5 t72.5 35t59.5 49t45 54.5q63 92 98 225t35 287t-35 287t-98 225q-18 27 -45 53.5t-59.5 49t-72.5 37t-87 14.5t-87 -14.5t-73 -38t-59.5 -51t-44.5 -54.5q-66 -92 -100 -229.5t-34 -290.5z" />
<glyph unicode="1" horiz-adv-x="782" d="M-45 1051v157q51 2 100 25.5t88 64.5t62.5 100.5t25.5 135.5l148 4v-1538h-148v1206q-49 -66 -117.5 -108.5t-158.5 -46.5z" />
<glyph unicode="2" horiz-adv-x="1349" d="M0 1085q4 90 41 174t90 150q63 68 152.5 106.5t181.5 38.5q109 0 194.5 -42t145 -107.5t91.5 -146t32 -160.5q-6 -78 -33 -137.5t-67 -106.5t-91 -87t-108 -79l-123 -84q-39 -27 -99.5 -72t-117 -106t-97 -134t-40.5 -155h766v-137h-912v147q2 111 53.5 201t129 167 t171 141.5t179.5 121.5q39 25 79.5 50.5t74.5 61.5t57.5 83t31.5 112q6 59 -9 121t-53 111t-99.5 81t-145.5 32q-72 0 -133 -28t-106.5 -75t-71 -109.5t-27.5 -132.5h-137z" />
<glyph unicode="3" horiz-adv-x="1267" d="M-55 410h151q2 -68 25.5 -124.5t66.5 -97.5t105.5 -64.5t142.5 -23.5q76 0 138.5 25t106.5 68t67.5 101t23.5 126q0 106 -45 167.5t-108.5 92.5t-130 40t-111.5 9v121q47 2 110.5 18.5t121 52t97 95t39.5 145.5q0 59 -23.5 110.5t-66.5 90.5t-102 60.5t-129 21.5 q-141 0 -225 -73t-86 -191h-142q2 88 36 158.5t94.5 120.5t142.5 78t180 28t183 -30t147.5 -84t97.5 -128t35 -162q0 -80 -22.5 -140t-60.5 -105.5t-89.5 -75t-106.5 -45.5q63 -10 120.5 -39t100.5 -76t69 -112.5t26 -147.5q0 -96 -37 -177t-101.5 -140.5t-153.5 -92.5 t-196 -33q-223 0 -362 129q-125 117 -129 304z" />
<glyph unicode="4" horiz-adv-x="1445" d="M-39 408v127l696 1003h152v-1003h238v-127h-238v-408h-147v408h-701zM117 535h545v802z" />
<glyph unicode="5" horiz-adv-x="1441" d="M-20 348h157q45 -106 123 -172.5t219 -66.5q49 0 118 14t131.5 58t107.5 124t45 211q0 86 -25 156.5t-71 121t-113.5 79t-153.5 28.5q-156 0 -238.5 -46t-129.5 -126h-142l178 809h781v-137h-662l-106 -451q61 41 140 64.5t179 23.5q115 0 211 -38.5t165 -108.5 t106.5 -166t37.5 -209q0 -123 -37.5 -223t-110.5 -172t-176.5 -111t-234.5 -39q-125 0 -211 36t-144 91.5t-92 122t-52 127.5z" />
<glyph unicode="6" horiz-adv-x="1380" d="M-31 467v22q0 92 9.5 177.5t25.5 156.5q6 18 30.5 90t78 171.5t139.5 213t213 215.5q8 8 18.5 14.5t20.5 14.5h207q-98 -70 -191.5 -143.5t-177.5 -177.5q-59 -76 -112.5 -177.5t-88.5 -218.5q88 74 166 107t160 33q102 0 192.5 -39t157 -106.5t105.5 -159t39 -193.5 t-39 -192.5t-105.5 -158t-157 -106.5t-192.5 -39t-193.5 39t-159 106.5t-106.5 158t-39 192.5zM115 467q0 -72 27.5 -137.5t74.5 -114.5t111.5 -79t138.5 -30q72 0 135.5 30t110.5 79t74.5 114.5t27.5 137.5q0 74 -27.5 139.5t-74.5 114.5t-110.5 77.5t-135.5 28.5 q-74 0 -138.5 -28.5t-111.5 -77.5t-74.5 -114.5t-27.5 -139.5z" />
<glyph unicode="7" horiz-adv-x="1318" d="M8 1405v135h924v-139q-6 -6 -50 -68.5t-103.5 -158t-125 -211t-110.5 -232.5q-37 -96 -60.5 -204.5t-38 -210t-21.5 -185.5t-7 -131h-146q0 57 6.5 147.5t22.5 197t43 220t68 217.5q33 88 79 177.5t94 171t94 152.5t83 122h-752z" />
<glyph unicode="8" horiz-adv-x="1343" d="M-18 436q0 135 76.5 242.5t199.5 169.5q-92 53 -146.5 138t-54.5 188q0 82 34 155.5t91.5 128.5t134 87t162.5 32q84 0 161 -32t135.5 -87t92 -129t33.5 -155q0 -102 -51 -189.5t-137 -136.5q115 -57 188.5 -167t73.5 -245q0 -98 -41 -185t-108.5 -151.5t-157.5 -101.5 t-189 -37q-98 0 -188 37t-159 101.5t-109.5 151.5t-40.5 185zM125 436q0 -90 36 -153.5t89 -105.5t114.5 -61.5t114.5 -19.5q51 0 112.5 19.5t115 61.5t88 105.5t34.5 153.5q0 82 -32.5 147.5t-82.5 110.5t-112.5 68.5t-122.5 23.5q-59 0 -122.5 -23.5t-115 -68.5 t-84 -110.5t-32.5 -147.5zM203 1174q0 -53 22.5 -103.5t61.5 -88.5t89 -61.5t103 -23.5t103.5 23.5t88.5 61.5t61.5 88t23.5 104q0 53 -23.5 102t-61.5 86t-88.5 58.5t-103.5 21.5t-103 -21.5t-89 -58.5t-61.5 -86t-22.5 -102z" />
<glyph unicode="9" horiz-adv-x="1298" d="M-35 1077q0 102 39 192.5t106.5 158t158.5 106.5t194 39q102 0 192 -39t158 -106.5t106.5 -157.5t38.5 -193q0 -158 -31.5 -297t-94 -268t-154.5 -248t-213 -233l-41 -31h-207q98 70 177 143.5t163 180.5q29 37 62.5 82t65.5 95t57.5 105.5t41.5 112.5 q-88 -76 -165.5 -107.5t-155.5 -31.5q-102 0 -193.5 38.5t-159 106.5t-106.5 159t-39 193zM111 1077q0 -74 27.5 -139.5t75.5 -114.5t111.5 -78.5t137.5 -29.5q72 0 135.5 29.5t111.5 78.5t75.5 115t27.5 139q0 72 -27.5 137.5t-75.5 114.5t-111.5 78t-135.5 29 q-74 0 -137.5 -29t-111.5 -78t-75.5 -114.5t-27.5 -137.5z" />
<glyph unicode=":" horiz-adv-x="768" d="M78 98q0 63 44 108.5t107 45.5q61 0 107.5 -45.5t46.5 -108.5t-46 -107t-108 -44q-63 0 -107 44t-44 107zM78 1020q0 66 44 110t107 44q61 0 107.5 -44t46.5 -110q0 -61 -46 -106.5t-108 -45.5q-63 0 -107 45t-44 107z" />
<glyph unicode=";" horiz-adv-x="759" d="M-55 -268l147 544h230l-246 -575q-35 6 -67 14.5t-64 16.5zM35 1020q0 66 44 110t107 44q61 0 107.5 -44t46.5 -110q0 -61 -46 -106.5t-108 -45.5q-63 0 -107 45t-44 107z" />
<glyph unicode="&#x3c;" horiz-adv-x="1402" d="M8 553v125l987 432v-166l-807 -330l807 -327v-166z" />
<glyph unicode="=" horiz-adv-x="1435" d="M6 248v137h1016v-137h-1016zM6 838v137h1016v-137h-1016z" />
<glyph unicode="&#x3e;" horiz-adv-x="1402" d="M8 121v166l809 327l-809 330v166l987 -432v-125z" />
<glyph unicode="?" horiz-adv-x="1525" d="M205 1174q2 88 36.5 162.5t95 128t144 83t181.5 29.5t181 -30.5t143.5 -86t94 -131.5t33.5 -166q0 -72 -16.5 -124t-44 -92t-61.5 -71.5t-70 -60.5l-99 -88q-53 -47 -85.5 -85t-32.5 -93v-51h-127v51q0 51 15 92t40.5 77t56.5 65.5t62 58.5l41 35l47 38q29 27 52 49.5 t40.5 50t27 63.5t9.5 85q0 59 -22.5 111.5t-63.5 92.5t-97.5 62.5t-123.5 22.5q-143 0 -221.5 -78t-80.5 -200h-155zM496 96q0 61 45 106.5t108 45.5t108.5 -45t45.5 -107q0 -63 -45 -108t-109 -45q-63 0 -108 45t-45 108z" />
<glyph unicode="@" horiz-adv-x="1910" d="M-61 764q0 168 64.5 317.5t175 261t259 176t318.5 64.5q166 0 308 -55t246.5 -153.5t164 -232.5t59.5 -290q0 -104 -34 -196.5t-92 -162t-137 -114.5t-169 -55l-8 -2h-27q-70 0 -106 47q-12 16 -20.5 40.5t-10.5 59.5q-25 -31 -58.5 -61.5t-74.5 -55t-91.5 -40 t-111.5 -15.5q-70 0 -128 23.5t-93 68.5q-61 74 -43 166q20 109 116.5 180.5t241.5 93.5q96 12 177 19.5t130 11.5l9 62q10 41 -0.5 77.5t-32.5 65.5q-27 33 -68 49t-88 16t-89 -15t-72.5 -35.5t-51 -43t-24.5 -37.5h-121q8 43 41.5 86t84 78t115 56.5t136.5 21.5 q76 0 138 -27.5t103 -74.5q57 -68 58 -158q0 -27 -7 -59l-63 -367l-12 -76q-4 -25 6 -30v2q8 -12 26 -13h29q141 12 220 120t79 294q0 135 -48 248.5t-135 195.5t-208 127t-264 45q-145 0 -271.5 -55t-220.5 -150.5t-148.5 -224.5t-54.5 -274t54.5 -273.5t148.5 -224.5 t220 -151.5t272 -55.5q59 0 132 10.5t145.5 30t139 47t113.5 62.5l72 -86q-55 -43 -130 -75t-157 -54.5t-165 -33.5t-150 -11q-170 0 -318.5 63.5t-259 174t-175 259t-64.5 318.5zM461 557q-4 -23 2 -49.5t20 -42.5q20 -25 55 -38t76 -13q45 0 93.5 9t92.5 30.5t83 56.5 t63 86l29 156q-47 -4 -128 -13.5t-167 -23.5q-88 -16 -146.5 -51t-72.5 -107zM575 989q0 2 1.5 4t1.5 4v2h10zM1280 221l16 -2l-10 -10zM1358 123q0 2 2 2h-2l6 6v-14z" />
<glyph unicode="A" horiz-adv-x="1439" d="M-96 0q141 389 275 768t276 768h133l555 -1536h-162l-143 426h-619l-145 -426h-170zM264 561h516l-256 774z" />
<glyph unicode="B" horiz-adv-x="1540" d="M6 0v1538h645q94 0 170 -32.5t127 -89t79 -131.5t28 -157q0 -98 -32.5 -180t-104.5 -127q104 -55 169.5 -157.5t65.5 -231.5q0 -90 -35 -169t-94 -137t-138 -92t-169 -34h-711zM164 135h553q59 0 112.5 23.5t93.5 64.5t62.5 95.5t22.5 113.5q0 61 -22.5 115.5t-61.5 95.5 t-92.5 65.5t-112.5 24.5h-555v-598zM164 868h487q53 0 100.5 20.5t82 55.5t55 83t20.5 101t-17.5 103.5t-51 88.5t-81.5 60.5t-108 22.5h-487v-535z" />
<glyph unicode="C" horiz-adv-x="1714" d="M-94 764q0 166 54 313.5t152.5 258t236.5 174t306 63.5q104 0 202.5 -32t184.5 -91t155 -146t112 -198q-43 0 -80 -1t-80 -1q-35 68 -84 128t-112.5 105t-138.5 71t-159 26q-141 0 -249.5 -55.5t-182 -147.5t-112.5 -213t-39 -254t39 -254t113.5 -213t183 -146.5 t247.5 -54.5q164 0 291 91.5t203 238.5q43 0 82 -1t80 -1q-43 -106 -112 -192.5t-155 -147.5t-185 -94t-204 -33q-168 0 -306 63.5t-236.5 173t-152.5 256t-54 314.5z" />
<glyph unicode="D" horiz-adv-x="1667" d="M6 0v1538h584q150 0 274.5 -56.5t214.5 -158.5t140.5 -244.5t50.5 -312.5t-50.5 -310.5t-140.5 -241.5t-215 -157.5t-274 -56.5h-584zM164 135h426q137 0 236.5 52.5t164 139.5t94 200.5t29.5 238.5t-29.5 240.5t-94 203.5t-164 140.5t-236.5 52.5h-426v-1268z" />
<glyph unicode="E" horiz-adv-x="1413" d="M6 0v1538h1002v-137h-844v-545h754v-137h-754v-582h844v-137h-1002z" />
<glyph unicode="F" horiz-adv-x="1404" d="M6 0v1538h1002v-137h-844v-545h700v-137h-700v-719h-158z" />
<glyph unicode="G" horiz-adv-x="1740" d="M-80 764q0 166 54.5 313.5t152.5 258t235.5 174t305.5 63.5q244 0 413.5 -122t259.5 -345q-43 0 -79.5 -1t-79.5 -1q-72 154 -206 244t-308 90q-139 0 -249 -55.5t-186.5 -148.5t-117.5 -215t-41 -255t41 -255t117.5 -214t187 -147.5t248.5 -55.5q63 0 134.5 14.5 t143.5 52.5t139.5 103.5t126.5 169.5v199q-135 0 -277 1t-280 1v137h703v-770h-146v242q-102 -141 -236 -213t-308 -72q-168 0 -305.5 63.5t-235.5 173t-152.5 256t-54.5 314.5z" />
<glyph unicode="H" horiz-adv-x="1542" d="M6 -2v1538h158v-698h805v698h157v-1538h-157v702h-805v-702h-158z" />
<glyph unicode="I" horiz-adv-x="583" d="M10 0v1538h156v-1538h-156z" />
<glyph unicode="J" horiz-adv-x="1216" d="M-27 377h158q2 -49 15.5 -100.5t44 -91.5t78.5 -65.5t118 -25.5q131 0 192.5 74t61.5 178v1192h158v-1192q0 -82 -28 -152.5t-81 -123t-129 -82t-174 -29.5q-104 0 -182 35t-128 93t-76 134t-28 156z" />
<glyph unicode="K" horiz-adv-x="1366" d="M6 0v1538h158v-768l635 768h202l-577 -672l674 -866h-205l-563 760l-166 -193v-567h-158z" />
<glyph unicode="L" horiz-adv-x="1282" d="M6 0v1538h166v-1401h807v-137h-973z" />
<glyph unicode="M" horiz-adv-x="1865" d="M4 0v1538h166l563 -1366l559 1366h168v-1538h-153v1169l-490 -1169h-170l-487 1169v-1169h-156z" />
<glyph unicode="N" horiz-adv-x="1622" d="M6 0v1538h170l879 -1280v1280h155v-1538h-155l-895 1303v-1303h-154z" />
<glyph unicode="O" horiz-adv-x="1785" d="M-78 764q0 166 54.5 313.5t152.5 258t236.5 174t306.5 63.5q166 0 303 -63.5t233.5 -174t149.5 -258t53 -313.5q0 -168 -53 -314.5t-149.5 -256t-233.5 -173t-303 -63.5q-168 0 -306.5 63.5t-236.5 173t-152.5 256t-54.5 314.5zM88 764q0 -137 43 -264t125 -219 q86 -92 186.5 -140.5t229.5 -48.5q127 0 227 50.5t180 138.5q80 92 123 219t43 264q0 139 -43 266t-123 219q-80 88 -180 138.5t-227 50.5q-129 0 -229.5 -48.5t-186.5 -140.5q-82 -92 -125 -219t-43 -266z" />
<glyph unicode="P" horiz-adv-x="1361" d="M6 0v1538h549q92 0 174 -36t143.5 -97.5t96.5 -143t35 -174.5q0 -92 -35 -174t-96.5 -143t-143.5 -97t-174 -36h-391v-637h-158zM164 772h391q63 0 118.5 25.5t96.5 68.5t64.5 100.5t23.5 120.5q0 61 -23.5 119t-64.5 101t-96.5 68.5t-118.5 25.5h-391v-629z" />
<glyph unicode="Q" horiz-adv-x="1751" d="M-98 764q0 166 54 313.5t152.5 258t236.5 174t304 63.5q168 0 304.5 -63.5t232.5 -174t149.5 -258t53.5 -313.5q0 -156 -47.5 -296t-135.5 -251l170 -172q-23 -29 -47 -52.5t-47 -51.5l-178 174q-92 -74 -206 -116t-249 -42q-166 0 -304 63.5t-236.5 173t-152.5 256 t-54 314.5zM55 764q0 -137 44 -264t126 -219q170 -189 424 -189q102 0 188.5 32t163.5 93l-288 287q23 29 47 53.5t47 52.5l291 -291q66 96 100.5 210t34.5 235q0 139 -43 266t-123 219q-80 88 -186.5 138.5t-231.5 50.5q-254 0 -424 -189q-82 -92 -126 -219t-44 -266z" />
<glyph unicode="R" horiz-adv-x="1396" d="M6 0v1538h617q92 0 174 -35t143 -94t96 -140t35 -173q0 -86 -31.5 -159t-88 -128t-133.5 -89t-165 -42q53 -47 105.5 -103.5t103.5 -128.5q35 -45 74 -104t77 -120.5t72.5 -121t61.5 -104.5h-180q-6 10 -27.5 49t-52.5 93.5t-70 114.5t-78 114q-96 127 -178 211t-170 98 h-227v-676h-158zM164 813h459q129 0 210.5 77t81.5 206q0 63 -21.5 118.5t-60 96.5t-93 65.5t-117.5 24.5h-459v-588z" />
<glyph unicode="S" horiz-adv-x="1343" d="M-41 412h158q2 -63 36.5 -119.5t87 -98.5t116 -67t124.5 -25q80 0 147.5 19.5t117 58.5t77 96.5t27.5 133.5q0 49 -28.5 93t-81 82t-123 71.5t-154.5 64.5q-100 37 -187.5 76t-151 89t-100 117.5t-36.5 159.5q0 70 30.5 143.5t93 134t154.5 98.5t215 38q104 0 192.5 -34 t154 -91t103.5 -133t42 -160h-158q-4 66 -34.5 117t-78 86t-105.5 53.5t-116 18.5q-80 0 -142.5 -24t-107.5 -61.5t-68.5 -87t-23.5 -98.5q0 -78 40 -126t101.5 -80.5t132 -55t132.5 -47.5q74 -29 154.5 -62.5t148 -85t110.5 -124t43 -174.5q0 -76 -30.5 -155t-95 -142.5 t-162 -104.5t-232.5 -41q-115 0 -210 39t-162.5 102.5t-106.5 143.5t-43 162z" />
<glyph unicode="T" horiz-adv-x="1501" d="M-33 1401v137h1145v-137h-498v-1401h-153v1401h-494z" />
<glyph unicode="U" horiz-adv-x="1599" d="M8 639v897h156v-897q0 -92 21.5 -188.5t72.5 -174t133 -128t205 -50.5q139 0 224 50.5t132 128t62.5 174t15.5 188.5v897h156v-897q0 -106 -24.5 -226t-90 -220.5t-180.5 -166t-295 -65.5q-178 0 -292 65.5t-179.5 166t-91 220t-25.5 226.5z" />
<glyph unicode="V" horiz-adv-x="1323" d="M-102 1538h182l440 -1325q111 322 224.5 663t224.5 662h172l-547 -1538h-152q-135 389 -271 769t-273 769z" />
<glyph unicode="W" horiz-adv-x="2084" d="M-98 1538h172l358 -1268l303 1268h185l301 -1268l358 1268h170l-455 -1538h-141l-324 1305l-327 -1305h-144z" />
<glyph unicode="X" horiz-adv-x="1458" d="M-57 0l501 770q-125 193 -250.5 384.5t-250.5 383.5h182l412 -647l413 647h185l-506 -768l504 -770h-183l-413 639l-414 -639h-180z" />
<glyph unicode="Y" d="M-78 1538h174l432 -709l430 709h179l-527 -858v-680h-166v680z" />
<glyph unicode="Z" horiz-adv-x="1425" d="M6 0v143l832 1258h-832v139h1002v-147l-832 -1256h832v-137h-1002z" />
<glyph unicode="[" horiz-adv-x="606" d="M8 -449v2034h316v-123h-183v-1788h183v-123h-316z" />
<glyph unicode="\" horiz-adv-x="1081" d="M-78 1538h133q168 -389 334 -769t334 -769h-131z" />
<glyph unicode="]" horiz-adv-x="606" d="M-72 -326h181v1788h-181v123h314v-2034h-314v123z" />
<glyph unicode="^" horiz-adv-x="1327" d="M-41 920l438 630h111l438 -630h-166l-325 481l-330 -481h-166z" />
<glyph unicode="_" horiz-adv-x="1517" d="M4 -94q412 0 812.5 -1t811.5 -1v-142l-1624 9v135zM1628 -238v-10l10 10h-10z" />
<glyph unicode="`" horiz-adv-x="849" d="M18 1765h215l187 -335h-156z" />
<glyph unicode="a" horiz-adv-x="1366" d="M-25 303q0 80 32 141.5t87.5 106.5t131 72.5t161.5 40.5q131 18 239.5 28t174.5 15v92q0 63 -25.5 117.5t-69.5 92.5t-101.5 59.5t-121.5 21.5q-61 0 -112.5 -18.5t-90 -46.5t-63 -58.5t-31.5 -55.5h-147q2 53 37 107.5t94 98.5t140 72t173 28t177 -30t148.5 -85 t101.5 -132t38 -171v-598q0 -29 17.5 -47.5t46.5 -18.5h30v-137h-30q-41 0 -77 15.5t-62.5 42t-43 62.5t-18.5 77v-2q-47 -94 -153.5 -162t-274.5 -68q-80 0 -152.5 25.5t-130 70.5t-91.5 107.5t-34 136.5zM131 303q0 -47 20.5 -84t55.5 -63.5t81 -41t95 -14.5 q70 0 135.5 15.5t120.5 46.5t97 78t65 110v228q-35 -4 -82 -8.5t-100.5 -11.5t-109.5 -15t-110 -19q-57 -10 -106 -25.5t-85 -41t-56.5 -63.5t-20.5 -91z" />
<glyph unicode="b" horiz-adv-x="1468" d="M6 0v1542h148v-549q68 100 167 160.5t226 60.5q131 0 230.5 -48t167 -132t102 -197.5t34.5 -244.5t-34.5 -243.5t-102 -196.5t-167 -132.5t-230.5 -48.5q-115 0 -219.5 65.5t-173.5 176.5v-213h-148zM154 539q6 -84 30.5 -162t71.5 -138.5t119 -96.5t172 -36 q109 0 180.5 42t113.5 111t58 156t16 177t-16 178t-58 156.5t-114 110.5t-180 42q-100 0 -172 -35.5t-119 -96t-71.5 -138.5t-30.5 -160v-110z" />
<glyph unicode="c" horiz-adv-x="1339" d="M-33 594q0 131 33 243.5t98.5 196.5t162.5 132t228 48q178 0 292 -82.5t177 -224.5h-174q-47 78 -112.5 127t-182.5 49q-109 0 -178 -43t-110 -111.5t-57.5 -156.5t-16.5 -178t16.5 -176t57.5 -153.5t110.5 -109.5t177.5 -42q59 0 103.5 12t79.5 33.5t61.5 52.5t50.5 70 h174q-66 -135 -180 -221.5t-289 -86.5q-131 0 -228 48.5t-162.5 132.5t-98.5 196.5t-33 243.5z" />
<glyph unicode="d" horiz-adv-x="1468" d="M-43 592q0 131 34 244.5t101.5 197.5t166.5 132t230 48q129 0 228.5 -60t165.5 -161v549h149v-1542h-149v213q-70 -111 -175.5 -176.5t-218.5 -65.5q-131 0 -230 48.5t-166.5 132.5t-101.5 196.5t-34 243.5zM123 592q0 -90 16.5 -177t58.5 -156t112 -111t179 -42 q100 0 172 36t119 96.5t72 138.5t31 162v110q-6 82 -31 160t-72 138.5t-118.5 96t-172.5 35.5q-109 0 -179 -42t-112 -110.5t-58.5 -156.5t-16.5 -178z" />
<glyph unicode="e" horiz-adv-x="1388" d="M-37 590q0 268 113 430q66 94 170 142t227 48t226.5 -48t168.5 -142q115 -162 115 -430v-62h-870q6 -76 25.5 -151.5t60.5 -135t108.5 -97.5t165.5 -38q123 0 210 39t132 136h156q-61 -160 -186.5 -235t-311.5 -75q-123 0 -227.5 49.5t-169.5 141.5q-53 80 -83 189.5 t-30 238.5zM113 664h721q-6 68 -27 140.5t-61.5 132.5t-107.5 99t-165 39t-164.5 -39t-108.5 -99t-61.5 -133t-25.5 -140z" />
<glyph unicode="f" horiz-adv-x="890" d="M-68 1034v137h185v95q0 104 27.5 168.5t82 99.5t135.5 43q35 4 76 4q51 0 109 -6v-129q-26 1 -49 1q-47 0 -84 -3q-54 -4 -87.5 -23.5t-48 -56.5t-14.5 -98v-95h283v-137h-283v-1034h-147v1034h-185z" />
<glyph unicode="g" horiz-adv-x="1480" d="M-25 623q0 123 35 230.5t101.5 187t164 124.5t220.5 45q70 0 135 -12t120.5 -38.5t99.5 -71t69 -107.5v193h145v-1182q0 -123 -42 -218.5t-115.5 -160t-173 -97t-212.5 -32.5q-84 0 -160.5 22.5t-142 66.5t-116 106.5t-78.5 142.5h159q53 -92 143.5 -147.5t194.5 -55.5 q84 0 157 23.5t126 69.5t84 117t31 163v280q-53 -119 -167 -184t-257 -65q-123 0 -220.5 47t-164 128t-101.5 190.5t-35 234.5zM131 623q0 -145 41 -235.5t98.5 -141.5t120 -69.5t105.5 -18.5t113.5 13t138 60.5t116.5 139.5t49 252q0 106 -23.5 181t-60 125t-83 78.5 t-92.5 44t-88 19.5t-70 4q-43 0 -105.5 -17.5t-120 -66.5t-98.5 -138t-41 -230z" />
<glyph unicode="h" horiz-adv-x="1441" d="M6 0v1544h158v-655q8 76 45 136t91 101t119.5 63.5t129.5 22.5q106 0 191 -30.5t143.5 -97t90.5 -172t32 -255.5v-659h-158v627q0 100 -17.5 185t-55.5 146.5t-98.5 96t-144.5 34.5q-90 0 -159.5 -53t-115.5 -136t-69.5 -187.5t-23.5 -204.5v-506h-158z" />
<glyph unicode="i" horiz-adv-x="585" d="M-45 1546q0 55 39 94t94 39t95 -39t40 -94q0 -53 -40 -93t-95 -40t-94 40t-39 93zM10 0v1171h152v-1171h-152z" />
<glyph unicode="j" horiz-adv-x="745" d="M-162 -360q47 0 89 11t73 35.5t48.5 65.5t17.5 105v1314h145v-1314q0 -90 -28.5 -157t-80 -110t-119 -64.5t-145.5 -23.5v138zM4 1546q0 55 40 94t93 39q55 0 95 -38.5t40 -94.5q0 -53 -39.5 -93t-95.5 -40q-53 0 -93 40t-40 93z" />
<glyph unicode="k" horiz-adv-x="1228" d="M6 0v1542h148v-973l518 602h196l-426 -477l506 -694l-180 -8l-418 604l-196 -219v-377h-148z" />
<glyph unicode="l" horiz-adv-x="577" d="M10 0v1542h148v-1542h-148z" />
<glyph unicode="m" horiz-adv-x="1927" d="M4 0v1188h158v-209v-2q14 59 47 103t75 74t89 45t94 15q147 0 232 -67.5t126 -204.5q47 131 124 201.5t202 70.5q106 0 178 -33.5t116 -99t63.5 -162t19.5 -223.5v-696h-158v668q0 78 -5 153.5t-29.5 136t-73 97.5t-134.5 37q-90 0 -145 -46.5t-86 -125t-41 -185 t-10 -227.5v-508h-158v688q0 70 -5 141.5t-29.5 130t-73 95.5t-134.5 37q-90 0 -146 -53.5t-87 -137.5t-41 -188.5t-10 -204.5v-508h-158z" />
<glyph unicode="n" horiz-adv-x="1441" d="M6 0v1186h154v-297q12 72 51 131t94 102t121 67.5t129 24.5q106 0 193.5 -30.5t148.5 -97t95 -172t34 -255.5v-659h-162v627q0 100 -20.5 185t-62.5 146.5t-104.5 95t-146.5 33.5q-90 0 -158.5 -52t-115.5 -136t-71.5 -187.5t-24.5 -203.5v-508h-154z" />
<glyph unicode="o" d="M-39 592q0 131 39 243.5t111.5 196.5t177 132t235.5 48t235.5 -48t177.5 -132t111.5 -196.5t38.5 -243.5t-38.5 -245t-111.5 -197.5t-177.5 -132t-235.5 -48.5t-235.5 48.5t-177 132t-111.5 197.5t-39 245zM129 592q0 -90 21.5 -178t68.5 -157t122 -111t183 -42 q109 0 184.5 42t123 111t69 157t21.5 178t-21.5 177t-69 155.5t-123 110.5t-184.5 42t-183.5 -42t-121.5 -110.5t-68.5 -155.5t-21.5 -177z" />
<glyph unicode="p" horiz-adv-x="1425" d="M8 -416v1600h146v-211q70 113 174 177t219 64q131 0 230.5 -48t167 -132t102 -197.5t34.5 -244.5t-34.5 -243.5t-102 -196.5t-167 -132.5t-230.5 -48.5q-127 0 -226.5 59.5t-166.5 162.5v-609h-146zM154 539q6 -84 30.5 -162t71.5 -138.5t119 -96.5t172 -36 q109 0 180.5 42t113.5 111t58 156t16 177t-16 178t-58 156.5t-114 110.5t-180 42q-100 0 -172 -35.5t-119 -96t-71.5 -138.5t-30.5 -160v-110z" />
<glyph unicode="q" horiz-adv-x="1425" d="M-39 592q0 131 34 244.5t101.5 197.5t167 132t230.5 48q113 0 218 -64.5t175 -176.5v211h149v-1600h-149v611q-66 -100 -165 -162t-228 -62q-131 0 -230.5 48.5t-167 132.5t-101.5 196.5t-34 243.5zM127 592q0 -90 16.5 -177t58.5 -156t112.5 -111t179.5 -42 q100 0 171.5 36t118.5 96.5t72 138.5t31 162v110q-6 82 -31 160t-72 138.5t-118.5 96t-171.5 35.5q-109 0 -179.5 -42t-112.5 -110.5t-58.5 -156.5t-16.5 -178z" />
<glyph unicode="r" horiz-adv-x="911" d="M8 0v1171h148v-196v-2q39 115 120 168t185 53q35 0 69.5 -11.5t63.5 -27.5v-158q-39 25 -68.5 32t-85.5 7q-92 0 -147 -44t-86 -117.5t-41 -169t-10 -197.5v-508h-148z" />
<glyph unicode="s" horiz-adv-x="1179" d="M-35 313h148q2 -41 18 -78.5t49 -65.5t84 -44t125 -16q76 0 128 17t85 46t47.5 69t14.5 83q0 35 -14.5 63.5t-49.5 54t-91 49t-138 48.5q-84 20 -154 48.5t-121 68.5t-79.5 92.5t-28.5 123.5q0 72 26.5 134.5t76.5 107.5t125 70.5t173 25.5q88 0 163 -25.5t128 -69.5 t84 -103.5t33 -126.5h-146q-6 86 -81.5 139t-180.5 53q-125 0 -187.5 -55t-62.5 -150q0 -43 21.5 -72.5t55.5 -52t75 -38t80 -27.5q102 -35 184 -66.5t139.5 -70.5t88 -92.5t30.5 -128.5q0 -59 -23.5 -121t-74.5 -112t-132 -82t-194 -32q-104 0 -182 28t-131 74t-81 107.5 t-30 126.5z" />
<glyph unicode="t" horiz-adv-x="923" d="M-39 1034v137h182v322h150v-322h303v-137h-303v-743q0 -61 16.5 -97t52.5 -54q36 -17 94 -20q19 -1 42 -1q44 0 98 4v-127q-67 -12 -131 -12q-20 0 -39 1q-82 5 -144.5 38.5t-100.5 98t-38 169.5v743h-182z" />
<glyph unicode="u" horiz-adv-x="1441" d="M6 512v659h160v-626q0 -102 20.5 -186.5t61.5 -145.5t104.5 -95t147.5 -34q90 0 158.5 52t115.5 136t71.5 186.5t24.5 205.5v507h156v-1171h-156v283q-10 -72 -50 -131.5t-95 -102.5t-120.5 -67.5t-127.5 -24.5q-109 0 -195.5 30.5t-148 97.5t-94.5 172t-33 255z" />
<glyph unicode="v" horiz-adv-x="1327" d="M-55 1171h174l348 -989l336 989h172l-428 -1169h-160z" />
<glyph unicode="w" horiz-adv-x="1812" d="M-59 1171h165l283 -985l252 985h172l262 -985l275 985h163q-88 -295 -176 -584.5t-176 -584.5h-180l-254 918l-252 -918h-160z" />
<glyph unicode="x" horiz-adv-x="1306" d="M-33 1169h180l326 -499l322 499h182l-412 -600l400 -571h-187l-307 465l-309 -465h-185l402 571z" />
<glyph unicode="y" horiz-adv-x="1327" d="M-68 1171h170l361 -968l336 968h168l-430 -1175l-148 -412h-158q29 74 56 146q23 61 48 131.5t48 128.5q-113 293 -225.5 591t-225.5 590z" />
<glyph unicode="z" horiz-adv-x="1282" d="M6 0v141l709 893h-709v137h885v-143l-703 -893h703v-135h-885z" />
<glyph unicode="{" horiz-adv-x="888" d="M-68 561v62q49 2 93.5 27.5t76 64.5t50 85t18.5 89v397q0 39 18.5 90t58.5 95.5t100.5 75t146.5 30.5h45v-119h-45q-55 0 -92 -21.5t-61 -49t-33 -54t-9 -39.5v-454l-2 -6q-10 -92 -73.5 -161t-143.5 -108q78 -37 141.5 -108.5t75.5 -159.5l2 -6v-465q0 -12 9 -39 t33 -54.5t60.5 -49t92.5 -21.5h45v-117h-45q-86 0 -146.5 30t-100.5 75t-58.5 95t-18.5 91v406q0 41 -19.5 85t-51 83t-74.5 65.5t-88 32.5z" />
<glyph unicode="|" horiz-adv-x="577" d="M10 -414v1952h148v-1952h-148z" />
<glyph unicode="}" horiz-adv-x="888" d="M-68 -338h45q55 0 92 21.5t60 49t32 54.5t9 39v465q0 2 1 3t1 3q14 88 77.5 159.5t141.5 108.5q-80 37 -142.5 107.5t-76.5 161.5l-2 10v450q0 12 -9 39t-32 54.5t-59.5 49t-92.5 21.5h-45v119h45q84 0 145.5 -30.5t100.5 -75t57.5 -95.5t18.5 -90v-397q0 -41 19.5 -86 t52 -83t75.5 -63.5t89 -31.5l4 -56v-61q-49 -4 -93.5 -29.5t-77 -64.5t-51 -84t-18.5 -88v-406q0 -41 -18.5 -91t-57.5 -95t-100.5 -75t-145.5 -30h-45v117z" />
<glyph unicode="~" horiz-adv-x="1312" d="M-100 557l4 -12l4 8zM-92 553q8 16 33.5 60t66.5 90.5t97.5 83t127.5 40.5q78 2 144.5 -29.5t114.5 -62.5q27 -18 49 -37q33 -23 60.5 -43t64.5 -18q43 2 78.5 28.5t63.5 59.5t46 64.5t25 44.5l98 -54q-10 -20 -34.5 -65t-66.5 -91t-98.5 -82t-126.5 -38h-10 q-72 0 -135.5 29.5t-108.5 60.5q-72 53 -109.5 75.5t-76.5 22.5q-45 0 -81 -25.5t-61.5 -57t-42 -62.5t-20.5 -43z" />
<glyph unicode="&#xa1;" horiz-adv-x="573" d="M-41 1032q0 63 45 107.5t107 44.5q66 0 109.5 -44t43.5 -108q0 -63 -44 -108t-109 -45q-61 0 -106.5 45t-45.5 108zM10 -412l58 1028h90l57 -1028h-205z" />
<glyph unicode="&#xa3;" horiz-adv-x="1468" d="M-109 664v137h189q0 12 -2 42.5t-3 65.5t-2 63.5t-1 39.5v39.5t2 42.5q12 104 56 196t112.5 161t156.5 108.5t187 39.5q80 0 155.5 -20t138 -60t109.5 -96.5t70 -128.5h-164q-16 39 -48 71t-74 54.5t-90 33.5t-97 11q-72 0 -135.5 -29.5t-112.5 -82t-80 -122t-39 -149.5 q-2 -16 -2 -35.5v-35.5q0 -14 1 -40t2 -54.5t3 -59.5t2 -55h590v-137h-584q2 -98 -12 -215t-63 -265q14 12 36.5 26.5t47 27t47 20.5t35.5 8q82 4 156.5 -30.5t148.5 -85.5q41 -29 75.5 -49.5t81.5 -16.5q27 0 55.5 14.5t55.5 35t50.5 44t39.5 41.5h156q-16 -25 -49 -71 t-81 -92t-108.5 -80.5t-130.5 -36.5h-16q-74 0 -139.5 32.5t-135.5 79.5q-43 31 -86 52.5t-86 19.5q-45 -2 -83 -24.5t-67.5 -52.5t-49 -58.5t-27.5 -42.5l-111 69q72 141 95.5 284.5t23.5 272.5q0 20 -1 45t-1 48h-197z" />
<glyph unicode="&#xa5;" d="M-53 1538h174l434 -709l430 709h176l-373 -612h318v-135h-401l-66 -111v-68h467v-135h-467v-477h-168v477h-467v135h467v68l-68 111h-399v135h315z" />
<glyph unicode="&#xa6;" horiz-adv-x="577" d="M10 401h148v-815h-148v815zM10 725v815h148v-815h-148z" />
<glyph unicode="&#xa7;" horiz-adv-x="1366" d="M-47 -41h158q2 -63 36.5 -119.5t87 -99.5t116 -68.5t124.5 -25.5q80 0 147.5 20.5t116.5 59t77 96t28 133.5q0 104 -105.5 178t-281.5 137q-104 37 -191.5 75t-151 87t-98 115.5t-34.5 163.5q0 53 18 110.5t59 112.5q-39 45 -58 99t-19 126q0 70 30.5 142.5t93 133 t154.5 98.5t215 38q104 0 192.5 -34t154 -91t103.5 -133t42 -160h-158q-4 68 -35 120t-78 88t-105.5 54.5t-115.5 18.5q-80 0 -143.5 -25t-107.5 -63.5t-68.5 -88t-24.5 -98.5q0 -61 23.5 -103t72.5 -76t126 -64.5t184 -69.5h-2q74 -29 155.5 -61.5t149 -83t111.5 -122.5 t44 -176q0 -57 -17 -115.5t-54 -115.5q35 -45 53 -99.5t18 -119.5q0 -76 -30.5 -154t-95 -142.5t-162 -105t-232.5 -40.5q-115 0 -210 38.5t-162.5 102t-106.5 143.5t-43 164zM131 711q0 -66 25.5 -109t71.5 -74.5t113 -57.5t151 -56l55 -21q63 -23 133 -53.5t137 -71.5 q27 66 27 135q0 51 -29 95.5t-81 83.5t-122.5 72.5t-154.5 64.5t-157 60.5t-126 60.5q-43 -66 -43 -129z" />
<glyph unicode="&#xa8;" horiz-adv-x="1245" d="M-29 1638q0 63 45 109.5t109 46.5q61 0 107.5 -46.5t46.5 -109.5q0 -61 -46.5 -106t-107.5 -45q-63 0 -108.5 45t-45.5 106zM489 1638q0 63 45.5 109.5t106.5 46.5q63 0 108.5 -46.5t45.5 -109.5q0 -61 -45 -106t-109 -45q-61 0 -106.5 45t-45.5 106z" />
<glyph unicode="&#xab;" horiz-adv-x="1781" d="M6 551v108l629 439v-164l-479 -330l479 -325v-166zM748 551v108l628 439v-164l-479 -330l479 -325v-166z" />
<glyph unicode="&#xad;" horiz-adv-x="1214" d="M8 541v135h780v-135h-780zM788 524l21 17h-21v-17z" />
<glyph unicode="&#xaf;" horiz-adv-x="1251" d="M12 1389v135h781v-135h-781z" />
<glyph unicode="&#xb0;" horiz-adv-x="919" d="M-16 1407q0 57 21.5 107.5t59 88t88 59t107.5 21.5t107.5 -21.5t88.5 -59t59.5 -88t21.5 -107.5t-21.5 -107.5t-59.5 -88t-88.5 -59.5t-107.5 -22t-107.5 22t-88 59.5t-59 88t-21.5 107.5zM92 1407q0 -82 48 -130t120 -48t120 48t48 130q0 70 -48 119t-120 49t-120 -49 t-48 -119z" />
<glyph unicode="&#xb1;" horiz-adv-x="1599" d="M8 66v135h977v-135h-977zM8 823v138h416v397h145v-397h416v-138h-416v-405h-145v405h-416z" />
<glyph unicode="&#xb4;" horiz-adv-x="849" d="M14 1430q51 88 94.5 168.5t94.5 166.5h213q-66 -86 -123 -166.5t-123 -168.5h-156z" />
<glyph unicode="&#xb5;" horiz-adv-x="1433" d="M6 -418v1589h158v-628q0 -203 81 -321t249 -118q90 0 159.5 49.5t117.5 129t72.5 179t24.5 200.5v507h158v-1169h-158v233v46q-23 -84 -63.5 -144.5t-93 -99.5t-112.5 -58.5t-124 -19.5q-90 0 -178 43t-133 115v-533h-158z" />
<glyph unicode="&#xb7;" horiz-adv-x="768" d="M78 98q0 63 44 108.5t107 45.5q61 0 107.5 -45.5t46.5 -108.5t-46 -107t-108 -44q-63 0 -107 44t-44 107z" />
<glyph unicode="&#xb8;" horiz-adv-x="874" d="M-2 -440l90 57q16 -20 42 -37.5t50 -17.5q29 0 47.5 12t27.5 29.5t12 37t3 33.5t-3 34t-12 37t-27.5 29.5t-47.5 12.5q-18 0 -34.5 -11.5t-30.5 -21.5q-23 18 -39.5 38t-38.5 38q33 53 64.5 101.5t66.5 101.5q25 -16 43 -28.5t41 -29.5l-119 -122q57 8 103.5 -3.5t78 -37 t48 -61.5t16.5 -77q0 -92 -56.5 -151.5t-142.5 -59.5q-57 0 -104 25t-78 72z" />
<glyph unicode="&#xbb;" horiz-adv-x="1781" d="M6 113v166l479 325l-479 330v164l629 -439v-108zM748 113v166l479 325l-479 330v164l628 -439v-108z" />
<glyph unicode="&#xbf;" horiz-adv-x="1298" d="M-57 -31q0 70 16 123t44 93t61.5 72t70.5 60l98 89q53 47 86 84.5t33 93.5v49h127v-49q0 -51 -15 -93t-41 -77t-56.5 -66t-61.5 -57l-43 -35l-45 -39q-29 -27 -53.5 -49.5t-41 -50t-25.5 -63.5t-9 -85q0 -59 22.5 -111.5t63.5 -92t97.5 -62t123.5 -22.5q143 0 220 77.5 t79 200.5h158q-2 -90 -37 -164t-95.5 -127t-143.5 -82.5t-181 -29.5t-181 30.5t-143.5 86t-94 131t-33.5 165.5zM254 1036q0 63 45 108.5t107 45.5q66 0 110.5 -45t44.5 -109q0 -61 -44.5 -106t-110.5 -45q-61 0 -106.5 45t-45.5 106z" />
<glyph unicode="&#xc0;" horiz-adv-x="1439" d="M-96 0h170l145 426h619l143 -426h162l-555 1536h-133q-141 -389 -275.5 -768t-275.5 -768zM246 2118h213l188 -338h-155zM264 561l260 789l256 -789h-516z" />
<glyph unicode="&#xc1;" horiz-adv-x="1439" d="M-96 0h170l145 426h619l143 -426h162l-555 1536h-133q-141 -389 -275.5 -768t-275.5 -768zM264 561l260 789l256 -789h-516zM451 1780q51 88 94 169t94 169h213l-248 -338h-153z" />
<glyph unicode="&#xc2;" horiz-adv-x="1439" d="M-96 0h170l145 426h619l143 -426h162l-555 1536h-133q-141 -389 -275.5 -768t-275.5 -768zM86 1790q115 98 221.5 192.5t218.5 192.5q113 -98 220.5 -192.5t220.5 -192.5l-88 -100l-353 309q-88 -76 -178 -155t-178 -154q-23 27 -42 51t-42 49zM264 561l260 789l256 -789 h-516z" />
<glyph unicode="&#xc3;" horiz-adv-x="1439" d="M-96 0h170l145 426h619l143 -426h162l-555 1536h-133q-141 -389 -275.5 -768t-275.5 -768zM2 1831l4 -12l4 8zM10 1827q8 16 34 60t67 90t98 83t129 41q76 2 143.5 -29.5t112.5 -62.5q14 -10 27.5 -18.5t23.5 -18.5q31 -23 58.5 -43t66.5 -18q43 2 79 27.5t63.5 58.5 t45 64.5t23.5 45.5l100 -53q-10 -20 -34.5 -65t-66.5 -91.5t-98.5 -83t-127.5 -38.5h-11q-72 0 -135 30.5t-106 61.5q-74 53 -112 75.5t-77 22.5q-43 0 -78.5 -25.5t-62.5 -57.5t-43 -63.5t-20 -43.5zM264 561l260 789l256 -789h-516z" />
<glyph unicode="&#xc4;" horiz-adv-x="1439" d="M-96 0h170l145 426h619l143 -426h162l-555 1536h-133q-141 -389 -275.5 -768t-275.5 -768zM111 1901q0 63 44 108t107 45t108.5 -45t45.5 -108q0 -61 -45 -106.5t-109 -45.5q-63 0 -107 45t-44 107zM264 561l260 789l256 -789h-516zM629 1901q0 63 44 108t107 45 q61 0 107.5 -45t46.5 -108q0 -61 -46 -106.5t-108 -45.5q-63 0 -107 45t-44 107z" />
<glyph unicode="&#xc5;" horiz-adv-x="1439" d="M-96 0h170l145 426h619l143 -426h162l-555 1536h-133q-141 -389 -275.5 -768t-275.5 -768zM250 2044q0 57 21.5 107.5t59.5 88t88 59t107 21.5t107.5 -21.5t88.5 -59t59.5 -88t21.5 -107.5t-21.5 -107.5t-59.5 -88.5t-88.5 -59.5t-107.5 -21.5q-59 0 -109 21.5t-87 59.5 t-58.5 88.5t-21.5 107.5zM264 561l260 789l256 -789h-516zM342 2044q0 -41 15.5 -74t41 -57.5t59.5 -37.5t68 -13q35 0 68 13t57.5 37.5t39 57.5t14.5 74q0 35 -11.5 68.5t-35 60.5t-56.5 43t-76 16q-35 0 -68.5 -13t-59 -37.5t-41 -59.5t-15.5 -78z" />
<glyph unicode="&#xc6;" horiz-adv-x="2340" d="M-117 2l1057 1536l94 2h912v-137h-842l2 -547h749v-135h-749l2 -584h838v-135h-1002v424h-604q-72 -106 -147.5 -211.5t-149.5 -212.5h-160zM418 563h526v748z" />
<glyph unicode="&#xc7;" horiz-adv-x="1714" d="M-59 766q0 166 54 313.5t152.5 258t236.5 174t306 63.5q104 0 202.5 -32t183.5 -91t153.5 -147t113.5 -199h-161q-33 70 -82 129t-112.5 103t-138.5 69t-159 25q-141 0 -249.5 -54.5t-183.5 -145.5t-114 -212t-39 -254t39 -254t114 -212t183.5 -145.5t249.5 -54.5 q166 0 292 89.5t198 236.5h166q-41 -104 -109 -190t-153 -146.5t-183 -94.5t-203 -36l-100 -106q109 12 175.5 -42.5t66.5 -136.5q0 -92 -56.5 -151.5t-144.5 -59.5q-55 0 -103.5 25t-76.5 72l90 57q16 -20 41.5 -37.5t48.5 -17.5q31 0 48.5 12t27.5 29.5t13 37t3 33.5 t-3 34t-13 37t-27.5 29.5t-48.5 12.5q-16 0 -32.5 -11.5t-31.5 -21.5q-23 18 -41 39t-40 39l88 135q-145 23 -263 94.5t-202 178t-130 240.5t-46 286zM1346 426l6 14l10 -14h-16z" />
<glyph unicode="&#xc8;" horiz-adv-x="1413" d="M6 0h1002v137h-844v582h754v137h-754v545h844v137h-1002v-1538zM246 2118h213l188 -338h-155z" />
<glyph unicode="&#xc9;" horiz-adv-x="1413" d="M6 0h1002v137h-844v582h754v137h-754v545h844v137h-1002v-1538zM381 1780q49 88 93 169t93 169h215l-247 -338h-154z" />
<glyph unicode="&#xca;" horiz-adv-x="1413" d="M6 0h1002v137h-844v582h754v137h-754v545h844v137h-1002v-1538zM86 1823q115 98 221.5 191t218.5 192q113 -98 220.5 -191.5t220.5 -191.5l-88 -103l-353 310q-88 -76 -178 -154t-178 -156q-23 27 -42 51.5t-42 51.5z" />
<glyph unicode="&#xcb;" horiz-adv-x="1413" d="M6 0h1002v137h-844v582h754v137h-754v545h844v137h-1002v-1538zM104 1901q0 63 44.5 108t107.5 45t108.5 -45t45.5 -108q0 -61 -45.5 -106.5t-108.5 -45.5t-107.5 45t-44.5 107zM623 1901q0 63 44 108t107 45q61 0 107.5 -45t46.5 -108q0 -61 -46 -106.5t-108 -45.5 q-63 0 -107 45t-44 107z" />
<glyph unicode="&#xcc;" horiz-adv-x="583" d="M-172 2118h213l186 -338h-155zM10 0h156v1538h-156v-1538z" />
<glyph unicode="&#xcd;" horiz-adv-x="583" d="M-61 1780q51 88 94 169t92 169h215l-248 -338h-153zM10 0h156v1538h-156v-1538z" />
<glyph unicode="&#xce;" horiz-adv-x="583" d="M-350 1790q115 98 221 192.5t219 192.5q113 -98 220.5 -192.5t219.5 -192.5l-86 -100l-354 309q-86 -76 -176 -155t-178 -154q-23 27 -43.5 51t-42.5 49zM10 0h156v1538h-156v-1538z" />
<glyph unicode="&#xcf;" horiz-adv-x="583" d="M-326 1901q0 63 45 108t107 45q63 0 109.5 -45t46.5 -108q0 -61 -46.5 -106.5t-109.5 -45.5q-61 0 -106.5 45t-45.5 107zM10 0h156v1538h-156v-1538zM193 1901q0 63 45 108t106 45q63 0 108.5 -45t45.5 -108q0 -61 -45 -106.5t-109 -45.5q-61 0 -106 45t-45 107z" />
<glyph unicode="&#xd0;" horiz-adv-x="1667" d="M-279 588v137h287v813h584q150 0 275.5 -56.5t216 -157.5t140.5 -243.5t50 -312.5t-50 -310.5t-140.5 -242.5t-216.5 -158.5t-275 -56.5h-584v588h-287zM166 137h426q139 0 239.5 52.5t164 139.5t93 200.5t29.5 238.5t-29.5 239.5t-93 202.5t-164 140.5t-239.5 52.5h-426 v-678h493v-137h-493v-451z" />
<glyph unicode="&#xd1;" horiz-adv-x="1622" d="M6 0h158v1303l893 -1303h157v1538h-157v-1280l-877 1280h-174v-1538zM94 1831l4 -12l4 8zM102 1827q8 16 34 60t67 90t97 83t128 41q78 2 144.5 -29.5t113.5 -62.5q27 -18 49 -37q31 -23 59.5 -43t65.5 -18q43 2 79 27.5t63.5 58.5t45 64.5t23.5 45.5l100 -53 q-10 -20 -34.5 -65t-66.5 -91.5t-98.5 -83t-125.5 -38.5h-10q-72 0 -136.5 30.5t-107.5 61.5q-74 53 -111 75.5t-75 22.5q-45 0 -81 -25.5t-62.5 -57.5t-43 -63.5t-20.5 -43.5z" />
<glyph unicode="&#xd2;" horiz-adv-x="1785" d="M-78 764q0 -168 54.5 -314.5t152.5 -256t236.5 -173t306.5 -63.5q166 0 303 63.5t233.5 173t149.5 256t53 314.5q0 166 -53 313.5t-149.5 258t-233.5 174t-303 63.5q-168 0 -306.5 -63.5t-236.5 -174t-152.5 -258t-54.5 -313.5zM88 764q0 139 43 266t125 219 q86 92 186.5 140.5t229.5 48.5q127 0 227 -50.5t180 -138.5q80 -92 123 -219t43 -266q0 -137 -43 -264t-123 -219q-80 -88 -180 -138.5t-227 -50.5q-129 0 -229.5 48t-186.5 141q-82 92 -125 219t-43 264zM389 2118h215l187 -338h-156z" />
<glyph unicode="&#xd3;" horiz-adv-x="1785" d="M-78 764q0 -168 54.5 -314.5t152.5 -256t236.5 -173t306.5 -63.5q166 0 303 63.5t233.5 173t149.5 256t53 314.5q0 166 -53 313.5t-149.5 258t-233.5 174t-303 63.5q-168 0 -306.5 -63.5t-236.5 -174t-152.5 -258t-54.5 -313.5zM88 764q0 139 43 266t125 219 q86 92 186.5 140.5t229.5 48.5q127 0 227 -50.5t180 -138.5q80 -92 123 -219t43 -266q0 -137 -43 -264t-123 -219q-80 -88 -180 -138.5t-227 -50.5q-129 0 -229.5 48t-186.5 141q-82 92 -125 219t-43 264zM557 1780q49 88 92 169t94 169h213l-245 -338h-154z" />
<glyph unicode="&#xd4;" horiz-adv-x="1785" d="M-78 764q0 -168 54.5 -314.5t152.5 -256t236.5 -173t306.5 -63.5q166 0 303 63.5t233.5 173t149.5 256t53 314.5q0 166 -53 313.5t-149.5 258t-233.5 174t-303 63.5q-168 0 -306.5 -63.5t-236.5 -174t-152.5 -258t-54.5 -313.5zM88 764q0 139 43 266t125 219 q86 92 186.5 140.5t229.5 48.5q127 0 227 -50.5t180 -138.5q80 -92 123 -219t43 -266q0 -137 -43 -264t-123 -219q-80 -88 -180 -138.5t-227 -50.5q-129 0 -229.5 48t-186.5 141q-82 92 -125 219t-43 264zM233 1790q115 98 221.5 192.5t219.5 192.5q113 -98 220 -192.5 t220 -192.5l-86 -100l-354 309q-86 -76 -176 -155t-179 -154q-23 27 -43 51t-43 49z" />
<glyph unicode="&#xd5;" horiz-adv-x="1785" d="M-78 764q0 -168 54.5 -314.5t152.5 -256t236.5 -173t306.5 -63.5q166 0 303 63.5t233.5 173t149.5 256t53 314.5q0 166 -53 313.5t-149.5 258t-233.5 174t-303 63.5q-168 0 -306.5 -63.5t-236.5 -174t-152.5 -258t-54.5 -313.5zM88 764q0 139 43 266t125 219 q86 92 186.5 140.5t229.5 48.5q127 0 227 -50.5t180 -138.5q80 -92 123 -219t43 -266q0 -137 -43 -264t-123 -219q-80 -88 -180 -138.5t-227 -50.5q-129 0 -229.5 48t-186.5 141q-82 92 -125 219t-43 264zM147 1831l5 -12l4 8zM156 1827q8 16 33.5 60t66.5 90t97.5 83 t127.5 41q78 2 144.5 -29.5t113.5 -62.5q27 -18 49 -37q31 -23 59.5 -43t65.5 -18q43 2 79 27.5t63.5 58.5t46 64.5t24.5 45.5l99 -53q-10 -20 -35 -65t-67 -91.5t-98 -83t-126 -38.5h-10q-72 0 -135.5 30.5t-108.5 61.5q-72 53 -109.5 75.5t-76.5 22.5q-45 0 -81 -25.5 t-61.5 -57.5t-42 -63.5t-22.5 -43.5z" />
<glyph unicode="&#xd6;" horiz-adv-x="1785" d="M-78 764q0 -168 54.5 -314.5t152.5 -256t236.5 -173t306.5 -63.5q166 0 303 63.5t233.5 173t149.5 256t53 314.5q0 166 -53 313.5t-149.5 258t-233.5 174t-303 63.5q-168 0 -306.5 -63.5t-236.5 -174t-152.5 -258t-54.5 -313.5zM88 764q0 139 43 266t125 219 q86 92 186.5 140.5t229.5 48.5q127 0 227 -50.5t180 -138.5q80 -92 123 -219t43 -266q0 -137 -43 -264t-123 -219q-80 -88 -180 -138.5t-227 -50.5q-129 0 -229.5 48t-186.5 141q-82 92 -125 219t-43 264zM268 1901q0 63 44 108t108 45q61 0 107 -45t46 -108 q0 -61 -46 -106.5t-107 -45.5q-63 0 -107.5 45t-44.5 107zM784 1901q0 63 45 108t107 45q63 0 108.5 -45t45.5 -108q0 -61 -45.5 -106.5t-108.5 -45.5q-61 0 -106.5 45t-45.5 107z" />
<glyph unicode="&#xd7;" horiz-adv-x="1144" d="M-33 920q25 25 47.5 49t44.5 47l297 -297l283 285q29 -27 51.5 -50.5t48.5 -52.5l-282 -283l295 -294l-101 -99l-289 297l-286 -284q-29 27 -51.5 50t-49.5 50l287 287z" />
<glyph unicode="&#xd8;" horiz-adv-x="1785" d="M-31 766q0 166 54.5 313.5t152.5 258t236.5 174t304.5 63.5q154 0 279.5 -54.5t224.5 -146.5q45 51 95 104.5t95 104.5q27 -23 50.5 -43t47.5 -43l-202 -223q72 -106 111.5 -235.5t39.5 -272.5q0 -168 -53 -314.5t-149.5 -256t-233.5 -173t-305 -63.5q-133 0 -249 41 t-210 117l-180 -205q-25 25 -47.5 44t-48.5 42l188 207q-96 111 -148.5 255t-52.5 306zM133 766q0 -121 37 -235.5t102 -211.5l846 941q-82 88 -179 133t-222 45t-228.5 -49.5t-183.5 -139.5q-82 -92 -127 -219t-45 -264zM360 229q78 -66 165 -100.5t192 -34.5 q129 0 229.5 47t179.5 140q80 92 122 219t42 266q0 102 -23.5 199.5t-70.5 185.5z" />
<glyph unicode="&#xd9;" horiz-adv-x="1599" d="M8 639v897h156v-897q0 -92 21.5 -188.5t72.5 -174t133 -128t205 -50.5q139 0 224 50.5t132 128t62.5 174t15.5 188.5v897h156v-897q0 -106 -24.5 -226t-90 -220.5t-180.5 -166t-295 -65.5q-178 0 -292 65.5t-179.5 166t-91 220t-25.5 226.5zM344 2118h215l186 -338h-155z " />
<glyph unicode="&#xda;" horiz-adv-x="1599" d="M8 639v897h156v-897q0 -92 21.5 -188.5t72.5 -174t133 -128t205 -50.5q139 0 224 50.5t132 128t62.5 174t15.5 188.5v897h156v-897q0 -106 -24.5 -226t-90 -220.5t-180.5 -166t-295 -65.5q-178 0 -292 65.5t-179.5 166t-91 220t-25.5 226.5zM479 1780q51 88 94 169 t95 169h213l-248 -338h-154z" />
<glyph unicode="&#xdb;" horiz-adv-x="1599" d="M8 639v897h156v-897q0 -92 21.5 -188.5t72.5 -174t133 -128t205 -50.5q139 0 224 50.5t132 128t62.5 174t15.5 188.5v897h156v-897q0 -106 -24.5 -226t-90 -220.5t-180.5 -166t-295 -65.5q-178 0 -292 65.5t-179.5 166t-91 220t-25.5 226.5zM156 1790q115 98 221 192.5 t219 192.5q113 -98 220.5 -192.5t219.5 -192.5l-86 -100l-354 309q-88 -76 -178 -155t-176 -154q-25 27 -44.5 51t-41.5 49z" />
<glyph unicode="&#xdc;" horiz-adv-x="1599" d="M8 639v897h156v-897q0 -92 21.5 -188.5t72.5 -174t133 -128t205 -50.5q139 0 224 50.5t132 128t62.5 174t15.5 188.5v897h156v-897q0 -106 -24.5 -226t-90 -220.5t-180.5 -166t-295 -65.5q-178 0 -292 65.5t-179.5 166t-91 220t-25.5 226.5zM197 1901q0 63 45 108t106 45 q63 0 108.5 -45t45.5 -108q0 -61 -45 -106.5t-109 -45.5q-61 0 -106 45t-45 107zM715 1901q0 63 44 108t107 45t108.5 -45t45.5 -108q0 -61 -45 -106.5t-109 -45.5q-63 0 -107 45t-44 107z" />
<glyph unicode="&#xdd;" d="M-78 1538l522 -858v-680h166v680l527 858h-179l-430 -709l-432 709h-174zM412 1780q51 88 94 169t92 169h215l-248 -338h-153z" />
<glyph unicode="&#xde;" horiz-adv-x="1374" d="M8 0v1540h148v-315h391q94 0 176 -36t143.5 -97.5t97 -144.5t35.5 -177q0 -92 -35.5 -175t-97 -144.5t-143.5 -97.5t-176 -36h-391v-317h-148zM156 453h391q63 0 119.5 25.5t97.5 69.5t65.5 101.5t24.5 120.5t-24.5 121.5t-65.5 102.5t-97.5 70t-119.5 26h-391v-637z" />
<glyph unicode="&#xdf;" horiz-adv-x="1470" d="M6 0v1159q0 74 17.5 129t43 97t57.5 72t60 50q72 45 149 58.5t134 13.5h65q68 0 128.5 -25.5t105.5 -70.5t71.5 -105.5t26.5 -128.5q0 -61 -25.5 -123.5t-56.5 -115.5q-12 -25 -20 -44.5t-8 -37.5q0 -27 18.5 -53.5t65.5 -57.5q37 -25 77.5 -55.5t74.5 -71.5t56.5 -94 t22.5 -123q0 -102 -39 -189t-106.5 -151.5t-160.5 -101.5t-202 -37h-168v137h168q78 0 144.5 26.5t114.5 72.5t76 108.5t28 134.5q0 76 -45 123t-123 98q-23 16 -47.5 37t-45 45.5t-33 54t-12.5 64.5q0 41 21 90q12 35 23.5 56.5t21.5 37.5q23 45 43.5 90t20.5 80 q0 39 -19.5 76t-50.5 65.5t-70 46t-76 17.5h-65q-35 0 -92.5 -9t-110.5 -42q-49 -35 -75.5 -100.5t-26.5 -143.5v-1159h-156z" />
<glyph unicode="&#xe0;" horiz-adv-x="1366" d="M-25 303q0 -74 34 -136.5t91.5 -107.5t130 -70.5t152.5 -25.5q168 0 274.5 67.5t153.5 162.5v2q2 -41 18.5 -77t43 -62.5t62.5 -42t77 -15.5h30v137h-30q-29 0 -46.5 18.5t-17.5 47.5v598q0 94 -38 171t-101.5 132t-148.5 85t-177 30t-173 -28t-140 -72t-94 -98t-37 -108 h147q6 25 31 55.5t63.5 58.5t90 46.5t112.5 18.5q63 0 121 -21.5t102 -59.5t69.5 -92.5t25.5 -117.5v-92q-66 -4 -174.5 -14.5t-239.5 -28.5q-86 -12 -161.5 -40t-131 -73t-87.5 -106.5t-32 -141.5zM131 303q0 53 20.5 91t56.5 63.5t85 41t106 25.5q53 10 109.5 18.5 t110 15.5t100.5 11t82 9v-228q-23 -63 -65 -110t-97 -78t-120.5 -46.5t-135.5 -15.5q-49 0 -95 14.5t-81 41t-55.5 63.5t-20.5 84zM240 1798h215l186 -338h-156z" />
<glyph unicode="&#xe1;" horiz-adv-x="1366" d="M-25 303q0 -74 34 -136.5t91.5 -107.5t130 -70.5t152.5 -25.5q168 0 274.5 67.5t153.5 162.5v2q2 -41 18.5 -77t43 -62.5t62.5 -42t77 -15.5h30v137h-30q-29 0 -46.5 18.5t-17.5 47.5v598q0 94 -38 171t-101.5 132t-148.5 85t-177 30t-173 -28t-140 -72t-94 -98t-37 -108 h147q6 25 31 55.5t63.5 58.5t90 46.5t112.5 18.5q63 0 121 -21.5t102 -59.5t69.5 -92.5t25.5 -117.5v-92q-66 -4 -174.5 -14.5t-239.5 -28.5q-86 -12 -161.5 -40t-131 -73t-87.5 -106.5t-32 -141.5zM131 303q0 53 20.5 91t56.5 63.5t85 41t106 25.5q53 10 109.5 18.5 t110 15.5t100.5 11t82 9v-228q-23 -63 -65 -110t-97 -78t-120.5 -46.5t-135.5 -15.5q-49 0 -95 14.5t-81 41t-55.5 63.5t-20.5 84zM401 1460q51 88 94.5 169t94.5 169h215l-248 -338h-156z" />
<glyph unicode="&#xe2;" horiz-adv-x="1366" d="M-25 303q0 -74 34 -136.5t91.5 -107.5t130 -70.5t152.5 -25.5q168 0 274.5 67.5t153.5 162.5v2q2 -41 18.5 -77t43 -62.5t62.5 -42t77 -15.5h30v137h-30q-29 0 -46.5 18.5t-17.5 47.5v598q0 94 -38 171t-101.5 132t-148.5 85t-177 30t-173 -28t-140 -72t-94 -98t-37 -108 h147q6 25 31 55.5t63.5 58.5t90 46.5t112.5 18.5q63 0 121 -21.5t102 -59.5t69.5 -92.5t25.5 -117.5v-92q-66 -4 -174.5 -14.5t-239.5 -28.5q-86 -12 -161.5 -40t-131 -73t-87.5 -106.5t-32 -141.5zM68 1559q117 98 223 192t219 195q113 -98 221.5 -193.5t220.5 -193.5 l-88 -103l-354 311q-88 -76 -178 -154.5t-178 -156.5q-23 29 -43.5 53.5t-42.5 49.5zM131 303q0 53 20.5 91t56.5 63.5t85 41t106 25.5q53 10 109.5 18.5t110 15.5t100.5 11t82 9v-228q-23 -63 -65 -110t-97 -78t-120.5 -46.5t-135.5 -15.5q-49 0 -95 14.5t-81 41 t-55.5 63.5t-20.5 84z" />
<glyph unicode="&#xe3;" horiz-adv-x="1366" d="M-78 1518l4 -13l4 8zM-70 1513q8 16 34 60.5t67 90.5t98 83t129 41q78 2 144.5 -28.5t113.5 -63.5q27 -18 49 -37q33 -23 60.5 -42.5t64.5 -17.5q43 2 79 28t63.5 58.5t46 64.5t24.5 44l101 -51q-10 -20 -35 -65.5t-67 -92.5t-98 -84t-128 -39h-10q-72 0 -135.5 31 t-108.5 61q-74 53 -112 76t-77 23q-45 0 -80.5 -25.5t-61 -57.5t-42 -63.5t-20.5 -44.5zM-25 303q0 -74 34 -136.5t91.5 -107.5t130 -70.5t152.5 -25.5q168 0 274.5 67.5t153.5 162.5v2q2 -41 18.5 -77t43 -62.5t62.5 -42t77 -15.5h30v137h-30q-29 0 -46.5 18.5t-17.5 47.5 v598q0 94 -38 171t-101.5 132t-148.5 85t-177 30t-173 -28t-140 -72t-94 -98t-37 -108h147q6 25 31 55.5t63.5 58.5t90 46.5t112.5 18.5q63 0 121 -21.5t102 -59.5t69.5 -92.5t25.5 -117.5v-92q-66 -4 -174.5 -14.5t-239.5 -28.5q-86 -12 -161.5 -40t-131 -73t-87.5 -106.5 t-32 -141.5zM131 303q0 53 20.5 91t56.5 63.5t85 41t106 25.5q53 10 109.5 18.5t110 15.5t100.5 11t82 9v-228q-23 -63 -65 -110t-97 -78t-120.5 -46.5t-135.5 -15.5q-49 0 -95 14.5t-81 41t-55.5 63.5t-20.5 84z" />
<glyph unicode="&#xe4;" horiz-adv-x="1366" d="M-25 303q0 -74 34 -136.5t91.5 -107.5t130 -70.5t152.5 -25.5q168 0 274.5 67.5t153.5 162.5v2q2 -41 18.5 -77t43 -62.5t62.5 -42t77 -15.5h30v137h-30q-29 0 -46.5 18.5t-17.5 47.5v598q0 94 -38 171t-101.5 132t-148.5 85t-177 30t-173 -28t-140 -72t-94 -98t-37 -108 h147q6 25 31 55.5t63.5 58.5t90 46.5t112.5 18.5q63 0 121 -21.5t102 -59.5t69.5 -92.5t25.5 -117.5v-92q-66 -4 -174.5 -14.5t-239.5 -28.5q-86 -12 -161.5 -40t-131 -73t-87.5 -106.5t-32 -141.5zM98 1645q0 63 44 108t108 45q63 0 108 -45t45 -108t-45 -107.5t-108 -44.5 t-107.5 44t-44.5 108zM131 303q0 53 20.5 91t56.5 63.5t85 41t106 25.5q53 10 109.5 18.5t110 15.5t100.5 11t82 9v-228q-23 -63 -65 -110t-97 -78t-120.5 -46.5t-135.5 -15.5q-49 0 -95 14.5t-81 41t-55.5 63.5t-20.5 84zM616 1645q0 63 45.5 108t106.5 45q63 0 109.5 -45 t46.5 -108t-46.5 -107.5t-109.5 -44.5q-61 0 -106.5 44t-45.5 108z" />
<glyph unicode="&#xe5;" horiz-adv-x="1366" d="M-25 303q0 -74 34 -136.5t91.5 -107.5t130 -70.5t152.5 -25.5q168 0 274.5 67.5t153.5 162.5v2q2 -41 18.5 -77t43 -62.5t62.5 -42t77 -15.5h30v137h-30q-29 0 -46.5 18.5t-17.5 47.5v598q0 94 -38 171t-101.5 132t-148.5 85t-177 30t-173 -28t-140 -72t-94 -98t-37 -108 h147q6 25 31 55.5t63.5 58.5t90 46.5t112.5 18.5q63 0 121 -21.5t102 -59.5t69.5 -92.5t25.5 -117.5v-92q-66 -4 -174.5 -14.5t-239.5 -28.5q-86 -12 -161.5 -40t-131 -73t-87.5 -106.5t-32 -141.5zM131 303q0 53 20.5 91t56.5 63.5t85 41t106 25.5q53 10 109.5 18.5 t110 15.5t100.5 11t82 9v-228q-23 -63 -65 -110t-97 -78t-120.5 -46.5t-135.5 -15.5q-49 0 -95 14.5t-81 41t-55.5 63.5t-20.5 84zM215 1698q0 57 21.5 107t59.5 88t88 59.5t108 21.5q57 0 107 -21.5t88 -59.5t59.5 -88t21.5 -107t-21.5 -107.5t-59.5 -88.5t-88 -59.5 t-107 -21.5q-59 0 -109.5 21.5t-87.5 59.5t-58.5 88t-21.5 108zM307 1698q0 -41 15.5 -74t41 -57.5t59.5 -37.5t69 -13t67.5 13t57 37.5t39 57.5t14.5 74q0 35 -11.5 68.5t-35 60t-56 43t-75.5 16.5q-35 0 -69 -13t-59.5 -38t-41 -59.5t-15.5 -77.5z" />
<glyph unicode="&#xe6;" horiz-adv-x="2258" d="M-45 307q0 80 31.5 139.5t87 102.5t131.5 68.5t162 37.5q131 18 239.5 28.5t173.5 14.5v103q0 63 -25.5 117.5t-68.5 92.5t-101.5 59.5t-121.5 21.5q-61 0 -112.5 -18.5t-89.5 -46.5t-62.5 -58.5t-30.5 -55.5h-150q2 53 37 107.5t94.5 98.5t140.5 72t173 28 q131 0 242.5 -60.5t177.5 -171.5l20 33q66 92 170.5 141t226.5 49q125 0 228.5 -48t169.5 -142q53 -80 82.5 -188.5t29.5 -241.5v-62h-872q6 -76 27.5 -151.5t62.5 -135t107.5 -97.5t164.5 -38q123 0 211 39t131 136h158q-63 -160 -188 -235t-312 -75q-123 0 -227 49.5 t-170 141.5q-14 23 -29.5 51.5t-31.5 56.5q-23 -59 -63 -113.5t-99 -97.5t-138 -68.5t-177 -25.5q-80 0 -154 25.5t-130 70.5t-91 107.5t-35 138.5zM102 307q0 -47 21.5 -85t58.5 -64.5t84.5 -41t98.5 -14.5q68 0 133 15.5t120.5 46.5t97.5 78t64 110v230 q-61 -6 -169.5 -18.5t-227.5 -33.5q-59 -12 -110.5 -27.5t-89.5 -41t-59.5 -63.5t-21.5 -91zM938 664h723q-6 68 -26.5 140.5t-61.5 132.5t-107.5 99t-165.5 39q-98 0 -164.5 -39t-108.5 -99t-62.5 -133t-26.5 -140z" />
<glyph unicode="&#xe7;" horiz-adv-x="1339" d="M-41 590q0 131 33 243.5t98.5 196.5t162.5 132t228 48q178 0 292 -83t177 -224h-174q-47 76 -113.5 122t-181.5 46q-109 0 -179.5 -42t-111 -109.5t-57 -153.5t-16.5 -176q0 -92 16.5 -178t57 -154t111 -108.5t179.5 -40.5q119 0 183.5 45t111.5 122h174 q-59 -127 -162.5 -209.5t-257.5 -95.5l-112 -118q109 12 175 -42.5t66 -138.5q0 -92 -55 -151.5t-145 -59.5q-119 0 -183 97l93 59q16 -23 41.5 -40t48.5 -17q31 0 48 12t27.5 29.5t13.5 37t3 33.5t-3 35t-13.5 37t-28 28.5t-47.5 12.5q-16 0 -32.5 -10.5t-33.5 -20.5 q-23 18 -40 37t-40 39l93 143q-111 16 -195 69.5t-140.5 135.5t-84 186.5t-27.5 225.5z" />
<glyph unicode="&#xe8;" horiz-adv-x="1388" d="M-37 590q0 -129 30 -238.5t83 -189.5q66 -92 170 -141.5t227 -49.5q186 0 311 75t187 235h-156q-45 -96 -132 -135.5t-210 -39.5q-98 0 -165.5 38t-108.5 97.5t-60.5 135.5t-25.5 151h870v62q0 268 -115 430q-66 94 -169 142t-226 48t-227.5 -48t-169.5 -142 q-113 -162 -113 -430zM113 664q6 68 25.5 140.5t61.5 132.5t108.5 99t164.5 39t165 -39t107.5 -99t61 -133t27.5 -140h-721zM186 1798h213l189 -338h-156z" />
<glyph unicode="&#xe9;" horiz-adv-x="1388" d="M-37 590q0 -129 30 -238.5t83 -189.5q66 -92 170 -141.5t227 -49.5q186 0 311 75t187 235h-156q-45 -96 -132 -135.5t-210 -39.5q-98 0 -165.5 38t-108.5 97.5t-60.5 135.5t-25.5 151h870v62q0 268 -115 430q-66 94 -169 142t-226 48t-227.5 -48t-169.5 -142 q-113 -162 -113 -430zM113 664q6 68 25.5 140.5t61.5 132.5t108.5 99t164.5 39t165 -39t107.5 -99t61 -133t27.5 -140h-721zM401 1460q51 88 94.5 169t94.5 169h215l-248 -338h-156z" />
<glyph unicode="&#xea;" horiz-adv-x="1388" d="M-37 590q0 -129 30 -238.5t83 -189.5q66 -92 170 -141.5t227 -49.5q186 0 311 75t187 235h-156q-45 -96 -132 -135.5t-210 -39.5q-98 0 -165.5 38t-108.5 97.5t-60.5 135.5t-25.5 151h870v62q0 268 -115 430q-66 94 -169 142t-226 48t-227.5 -48t-169.5 -142 q-113 -162 -113 -430zM39 1559q117 98 223.5 192t218.5 195q113 -98 221.5 -193.5t221.5 -193.5l-88 -103l-355 311q-88 -76 -178 -154.5t-178 -156.5q-23 29 -43.5 53.5t-42.5 49.5zM113 664q6 68 25.5 140.5t61.5 132.5t108.5 99t164.5 39t165 -39t107.5 -99t61 -133 t27.5 -140h-721z" />
<glyph unicode="&#xeb;" horiz-adv-x="1388" d="M-37 590q0 -129 30 -238.5t83 -189.5q66 -92 170 -141.5t227 -49.5q186 0 311 75t187 235h-156q-45 -96 -132 -135.5t-210 -39.5q-98 0 -165.5 38t-108.5 97.5t-60.5 135.5t-25.5 151h870v62q0 268 -115 430q-66 94 -169 142t-226 48t-227.5 -48t-169.5 -142 q-113 -162 -113 -430zM80 1645q0 63 44 108t107 45t108.5 -45t45.5 -108t-45 -107.5t-109 -44.5q-63 0 -107 44t-44 108zM113 664q6 68 25.5 140.5t61.5 132.5t108.5 99t164.5 39t165 -39t107.5 -99t61 -133t27.5 -140h-721zM598 1645q0 63 45 108t107 45q63 0 109 -45 t46 -108t-46 -107.5t-109 -44.5q-61 0 -106.5 44t-45.5 108z" />
<glyph unicode="&#xec;" horiz-adv-x="585" d="M-166 1798h215l189 -338h-156zM10 0v1171h156v-1171h-156z" />
<glyph unicode="&#xed;" horiz-adv-x="585" d="M-39 1460q51 88 94 169t95 169h212l-247 -338h-154zM10 0v1171h156v-1171h-156z" />
<glyph unicode="&#xee;" horiz-adv-x="585" d="M-356 1559q115 98 221 192t219 195q115 -98 222.5 -193.5t219.5 -193.5l-88 -103l-354 311q-88 -76 -178 -154.5t-178 -156.5q-23 29 -42.5 53.5t-41.5 49.5zM10 0v1171h156v-1171h-156z" />
<glyph unicode="&#xef;" horiz-adv-x="585" d="M-311 1645q0 63 44 108t107 45t109.5 -45t46.5 -108t-46 -107.5t-110 -44.5q-63 0 -107 44t-44 108zM10 0v1171h156v-1171h-156zM207 1645q0 63 45 108t108 45q61 0 107.5 -45t46.5 -108t-46 -107.5t-108 -44.5q-63 0 -108 44t-45 108z" />
<glyph unicode="&#xf0;" horiz-adv-x="1372" d="M-25 465q0 102 39 193.5t106.5 159t159 106.5t193.5 39q78 0 157 -32t167 -108q-16 55 -44 110.5t-61 106t-68.5 93.5t-68.5 77l-279 -176l-71 111l252 162q-82 74 -156 131t-145 106h209q16 -12 32 -28q2 0 6 -3q41 -29 82 -65.5t78 -71.5l236 152l71 -111l-213 -137 q125 -141 188.5 -256t88.5 -203q20 -72 27.5 -153.5t7.5 -180.5v-22q0 -102 -39 -192.5t-106.5 -158t-158 -106.5t-192.5 -39t-193.5 39t-159 106.5t-106.5 157.5t-39 193zM121 465q0 -74 27.5 -139.5t74.5 -114.5t111.5 -78t138.5 -29t137.5 29t111.5 78t75.5 114.5 t27.5 139.5t-27.5 139.5t-75.5 115.5t-111.5 78.5t-137.5 28.5t-138.5 -28.5t-111.5 -78.5t-74.5 -115.5t-27.5 -139.5z" />
<glyph unicode="&#xf1;" horiz-adv-x="1441" d="M-86 1518l4 -13l4 8zM-78 1513q8 16 34 60.5t66.5 90.5t98 83t129.5 41q76 2 143.5 -28.5t114.5 -63.5q27 -18 49 -37q33 -23 60.5 -42.5t64.5 -17.5q43 2 79 28t63.5 58.5t46 64.5t24.5 44l100 -51q-10 -20 -34.5 -65.5t-66.5 -92.5t-98.5 -84t-127.5 -39h-11 q-72 0 -136 31t-107 61q-74 53 -112 76t-77 23q-45 0 -80.5 -25.5t-61.5 -57.5t-42 -63.5t-21 -44.5zM6 0h154v508q0 100 24.5 203.5t71.5 187.5t115.5 136t158.5 52q84 0 146.5 -33.5t104.5 -95t62.5 -146.5t20.5 -185v-627h162v659q0 150 -34 255.5t-95 172t-148 97 t-194 30.5q-63 0 -129 -24.5t-121 -67.5t-94 -102t-51 -131v297h-154v-1186z" />
<glyph unicode="&#xf2;" d="M-39 592q0 -131 39 -245t111.5 -197.5t177 -132t235.5 -48.5t235.5 48.5t177.5 132t111.5 197.5t38.5 245t-38.5 243.5t-111.5 196.5t-177.5 132t-235.5 48t-235.5 -48t-177 -132t-111.5 -196.5t-39 -243.5zM129 592q0 90 21.5 177t68.5 155.5t121.5 110.5t183.5 42 t184.5 -42t123 -110.5t69 -155.5t21.5 -177t-21.5 -178t-69 -157t-123 -111t-184.5 -42t-183.5 42t-121.5 111t-68.5 157t-21.5 178zM240 1798h215l186 -338h-156z" />
<glyph unicode="&#xf3;" d="M-39 592q0 -131 39 -245t111.5 -197.5t177 -132t235.5 -48.5t235.5 48.5t177.5 132t111.5 197.5t38.5 245t-38.5 243.5t-111.5 196.5t-177.5 132t-235.5 48t-235.5 -48t-177 -132t-111.5 -196.5t-39 -243.5zM129 592q0 90 21.5 177t68.5 155.5t121.5 110.5t183.5 42 t184.5 -42t123 -110.5t69 -155.5t21.5 -177t-21.5 -178t-69 -157t-123 -111t-184.5 -42t-183.5 42t-121.5 111t-68.5 157t-21.5 178zM401 1460q51 88 94.5 169t94.5 169h215l-248 -338h-156z" />
<glyph unicode="&#xf4;" d="M-39 592q0 -131 39 -245t111.5 -197.5t177 -132t235.5 -48.5t235.5 48.5t177.5 132t111.5 197.5t38.5 245t-38.5 243.5t-111.5 196.5t-177.5 132t-235.5 48t-235.5 -48t-177 -132t-111.5 -196.5t-39 -243.5zM96 1559q115 98 221.5 192t219.5 195q115 -98 222 -193.5 t220 -193.5l-88 -103l-354 311q-88 -76 -178.5 -154.5t-178.5 -156.5q-23 29 -42 53.5t-42 49.5zM129 592q0 90 21.5 177t68.5 155.5t121.5 110.5t183.5 42t184.5 -42t123 -110.5t69 -155.5t21.5 -177t-21.5 -178t-69 -157t-123 -111t-184.5 -42t-183.5 42t-121.5 111 t-68.5 157t-21.5 178z" />
<glyph unicode="&#xf5;" d="M-39 592q0 -131 39 -245t111.5 -197.5t177 -132t235.5 -48.5t235.5 48.5t177.5 132t111.5 197.5t38.5 245t-38.5 243.5t-111.5 196.5t-177.5 132t-235.5 48t-235.5 -48t-177 -132t-111.5 -196.5t-39 -243.5zM-23 1518l5 -13l4 8zM-14 1513q8 16 33.5 60.5t66.5 90.5 t98.5 83t128.5 41q76 2 143.5 -28.5t114.5 -63.5q27 -18 50 -37q33 -23 60 -42.5t64 -17.5q43 2 79 28t63.5 58.5t46 64.5t24.5 44l101 -51q-10 -20 -35 -65.5t-67 -92.5t-98 -84t-128 -39h-10q-72 0 -135.5 31t-108.5 61q-74 53 -111.5 76t-76.5 23q-45 0 -81 -25.5 t-61.5 -57.5t-42 -63.5t-20.5 -44.5zM129 592q0 90 21.5 177t68.5 155.5t121.5 110.5t183.5 42t184.5 -42t123 -110.5t69 -155.5t21.5 -177t-21.5 -178t-69 -157t-123 -111t-184.5 -42t-183.5 42t-121.5 111t-68.5 157t-21.5 178z" />
<glyph unicode="&#xf6;" d="M-39 592q0 -131 39 -245t111.5 -197.5t177 -132t235.5 -48.5t235.5 48.5t177.5 132t111.5 197.5t38.5 245t-38.5 243.5t-111.5 196.5t-177.5 132t-235.5 48t-235.5 -48t-177 -132t-111.5 -196.5t-39 -243.5zM106 1645q0 63 45.5 108t106.5 45q63 0 109.5 -45t46.5 -108 t-46 -107.5t-110 -44.5q-61 0 -106.5 44t-45.5 108zM129 592q0 90 21.5 177t68.5 155.5t121.5 110.5t183.5 42t184.5 -42t123 -110.5t69 -155.5t21.5 -177t-21.5 -178t-69 -157t-123 -111t-184.5 -42t-183.5 42t-121.5 111t-68.5 157t-21.5 178zM625 1645q0 63 45 108 t108 45q61 0 107.5 -45t46.5 -108t-46 -107.5t-108 -44.5q-63 0 -108 44t-45 108z" />
<glyph unicode="&#xf7;" horiz-adv-x="1615" d="M4 551v137h1180v-143zM442 158q0 63 45 107t107 44q63 0 108.5 -44t45.5 -107q0 -61 -45.5 -107.5t-108.5 -46.5q-61 0 -106.5 46t-45.5 108zM442 1073q0 63 45 108.5t107 45.5q63 0 108.5 -45.5t45.5 -108.5q0 -61 -45.5 -107t-108.5 -46q-61 0 -106.5 46t-45.5 107z " />
<glyph unicode="&#xf8;" d="M-68 -2l172 192q-59 86 -88.5 187.5t-29.5 216.5q0 131 37.5 243.5t110.5 196.5t176.5 132t234.5 48q111 0 202 -34.5t162 -96.5l162 179q25 -25 47.5 -44.5t48.5 -41.5l-172 -191q53 -82 83 -181t30 -210q0 -131 -39 -243.5t-111.5 -196.5t-177 -132.5t-235.5 -48.5 q-104 0 -193.5 32t-161.5 91q-39 -43 -81.5 -91t-81.5 -93zM150 594q0 -74 14 -146.5t45 -138.5l604 666q-51 49 -116.5 76.5t-151.5 27.5q-109 0 -183.5 -42t-121.5 -110.5t-68.5 -155.5t-21.5 -177zM289 205q51 -47 114.5 -71.5t141.5 -24.5q109 0 184.5 42t123.5 109.5 t69.5 154.5t21.5 179q0 68 -13 137.5t-42 134.5z" />
<glyph unicode="&#xf9;" horiz-adv-x="1441" d="M6 512q0 -150 33 -255t94.5 -172t148.5 -97.5t195 -30.5q61 0 127 24.5t121 67.5t95 102.5t50 131.5v-283h156v1171h-156v-507q0 -102 -24.5 -205t-71.5 -187t-115.5 -136t-158.5 -52q-84 0 -147.5 34t-104.5 95t-61.5 145t-20.5 187v626h-160v-659zM223 1798h215 l187 -338h-156z" />
<glyph unicode="&#xfa;" horiz-adv-x="1441" d="M6 512q0 -150 33 -255t94.5 -172t148.5 -97.5t195 -30.5q61 0 127 24.5t121 67.5t95 102.5t50 131.5v-283h156v1171h-156v-507q0 -102 -24.5 -205t-71.5 -187t-115.5 -136t-158.5 -52q-84 0 -147.5 34t-104.5 95t-61.5 145t-20.5 187v626h-160v-659zM401 1460 q51 88 94.5 169t94.5 169h215l-248 -338h-156z" />
<glyph unicode="&#xfb;" horiz-adv-x="1441" d="M6 512q0 -150 33 -255t94.5 -172t148.5 -97.5t195 -30.5q61 0 127 24.5t121 67.5t95 102.5t50 131.5v-283h156v1171h-156v-507q0 -102 -24.5 -205t-71.5 -187t-115.5 -136t-158.5 -52q-84 0 -147.5 34t-104.5 95t-61.5 145t-20.5 187v626h-160v-659zM86 1559 q115 98 221.5 192t218.5 195q115 -98 222.5 -193.5t220.5 -193.5l-88 -103l-355 311q-88 -76 -178 -154.5t-178 -156.5q-23 29 -42 53.5t-42 49.5z" />
<glyph unicode="&#xfc;" horiz-adv-x="1441" d="M6 512q0 -150 33 -255t94.5 -172t148.5 -97.5t195 -30.5q61 0 127 24.5t121 67.5t95 102.5t50 131.5v-283h156v1171h-156v-507q0 -102 -24.5 -205t-71.5 -187t-115.5 -136t-158.5 -52q-84 0 -147.5 34t-104.5 95t-61.5 145t-20.5 187v626h-160v-659zM113 1645 q0 63 44 108t107 45t108.5 -45t45.5 -108t-45 -107.5t-109 -44.5q-63 0 -107 44t-44 108zM631 1645q0 63 45 108t108 45q61 0 107.5 -45t46.5 -108t-46 -107.5t-108 -44.5q-63 0 -108 44t-45 108z" />
<glyph unicode="&#xfd;" horiz-adv-x="1327" d="M-68 1171q113 -293 225.5 -590.5t225.5 -590.5q-23 -57 -48.5 -128t-47.5 -132q-27 -72 -56 -146h154l147 412l431 1175h-164l-344 -1019l-353 1019h-170zM375 1460q51 88 94 169t94 169h215l-248 -338h-155z" />
<glyph unicode="&#xfe;" horiz-adv-x="1490" d="M8 -414v1958h148v-571q70 113 174 177t219 64q131 0 230.5 -48t167 -132t102 -196.5t34.5 -243.5t-34.5 -243.5t-102 -196.5t-167 -132.5t-230.5 -48.5q-129 0 -228.5 60.5t-164.5 159.5v-607h-148zM156 539q6 -84 30.5 -162t71.5 -137.5t119 -95t172 -35.5 q109 0 180.5 42t113.5 109.5t58.5 154.5t16.5 179q0 90 -16.5 177t-58.5 155.5t-114 110.5t-180 42q-98 0 -171 -35.5t-120 -95t-71.5 -137.5t-30.5 -162v-110z" />
<glyph unicode="&#xff;" horiz-adv-x="1327" d="M-68 1171q113 -293 225.5 -590.5t225.5 -590.5q-23 -57 -48.5 -128t-47.5 -132q-27 -72 -56 -146h154l147 412l431 1175h-164l-344 -1019l-353 1019h-170zM55 1645q0 63 44 108t108 45q63 0 108 -45t45 -108t-45 -107.5t-108 -44.5t-107.5 44t-44.5 108zM573 1645 q0 63 45.5 108t106.5 45q63 0 109.5 -45t46.5 -108t-46.5 -107.5t-109.5 -44.5q-61 0 -106.5 44t-45.5 108z" />
<glyph unicode="&#x152;" horiz-adv-x="2568" d="M-49 770q0 166 54 313.5t152.5 257t235.5 173t305 63.5q129 0 253 -50t229 -149v166h1003v-137h-846v-547h754v-135h-754v-584h846v-135h-1003v156q-104 -96 -228.5 -147.5t-253.5 -51.5q-168 0 -305 63.5t-235.5 173t-152.5 256t-54 314.5zM115 770q0 -139 37.5 -265 t121.5 -218q170 -188 424 -189q125 0 221.5 49.5t176.5 137.5q18 23 39.5 57.5t44.5 69.5v716q-20 35 -41 69t-43 58q-80 88 -176.5 137.5t-221.5 49.5q-127 0 -234.5 -50.5t-189.5 -138.5q-82 -92 -120.5 -219t-38.5 -264z" />
<glyph unicode="&#x153;" horiz-adv-x="2332" d="M-61 592q0 131 38.5 244.5t111.5 197.5t176.5 132t234.5 48q160 0 281.5 -74.5t195.5 -199.5q10 14 23.5 39t23.5 41q66 92 170 141t227 49q127 0 229.5 -48t168.5 -142q55 -80 84.5 -188.5t29.5 -241.5v-62h-872q6 -76 25.5 -151.5t60.5 -135t108.5 -97.5t165.5 -38 q123 0 211 39t131 136h156q-61 -160 -186 -235t-312 -75q-123 0 -227 47.5t-170 143.5q-12 18 -24.5 38.5t-24.5 43.5q-74 -125 -195 -199t-280 -74q-131 0 -234.5 48.5t-176.5 132.5t-111.5 196.5t-38.5 243.5zM104 592q0 -90 21.5 -177t69 -156t122 -111t183.5 -42 t184.5 42t122.5 111t68.5 156t21.5 177t-21.5 178t-68.5 156.5t-123 110.5t-184 42q-109 0 -183.5 -42t-122 -110.5t-69 -156.5t-21.5 -178zM1061 664h721q-6 68 -26.5 140.5t-61.5 132.5t-107.5 99t-165.5 39q-98 0 -164.5 -39t-108.5 -99t-61.5 -133t-25.5 -140z" />
<glyph unicode="&#x178;" d="M-78 1538l522 -858v-680h166v680l527 858h-179l-430 -709l-432 709h-174zM111 1901q0 63 44 108t107 45t108.5 -45t45.5 -108q0 -61 -45 -106.5t-109 -45.5q-63 0 -107 45t-44 107zM629 1901q0 63 44 108t107 45q61 0 107.5 -45t46.5 -108q0 -61 -46 -106.5t-108 -45.5 q-63 0 -107 45t-44 107z" />
<glyph unicode="&#x2c6;" horiz-adv-x="1214" d="M-57 1632q115 98 221 192.5t219 192.5q113 -98 220.5 -192t219.5 -193q-23 -27 -42 -50t-42 -50l-356 309q-86 -76 -176 -154.5t-178 -154.5q-23 27 -43.5 51.5t-42.5 48.5z" />
<glyph unicode="&#x2dc;" horiz-adv-x="1312" d="M-100 1565l4 -13l4 9zM-92 1561q8 16 33.5 60t66.5 90t97.5 83t127.5 41q78 2 144.5 -29.5t114.5 -62.5q27 -18 49 -37q33 -23 60.5 -43t64.5 -18q43 2 78.5 28.5t63.5 59t46 64.5t25 44l98 -53q-10 -20 -34.5 -65.5t-66.5 -91.5t-98.5 -82t-126.5 -38h-10 q-72 0 -135.5 30t-108.5 61q-72 53 -109.5 75.5t-76.5 22.5q-45 0 -81 -25.5t-61.5 -57.5t-42 -62.5t-20.5 -43.5z" />
<glyph unicode="&#x2000;" horiz-adv-x="1160" />
<glyph unicode="&#x2001;" horiz-adv-x="2320" />
<glyph unicode="&#x2002;" horiz-adv-x="1160" />
<glyph unicode="&#x2003;" horiz-adv-x="2320" />
<glyph unicode="&#x2004;" horiz-adv-x="773" />
<glyph unicode="&#x2005;" horiz-adv-x="580" />
<glyph unicode="&#x2006;" horiz-adv-x="386" />
<glyph unicode="&#x2007;" horiz-adv-x="386" />
<glyph unicode="&#x2008;" horiz-adv-x="290" />
<glyph unicode="&#x2009;" horiz-adv-x="464" />
<glyph unicode="&#x200a;" horiz-adv-x="128" />
<glyph unicode="&#x2010;" horiz-adv-x="1214" d="M8 541v135h780v-135h-780zM788 524l21 17h-21v-17z" />
<glyph unicode="&#x2011;" horiz-adv-x="1214" d="M8 541v135h780v-135h-780zM788 524l21 17h-21v-17z" />
<glyph unicode="&#x2012;" horiz-adv-x="1214" d="M8 541v135h780v-135h-780zM788 524l21 17h-21v-17z" />
<glyph unicode="&#x2013;" horiz-adv-x="1509" d="M6 541v135q276 0 546.5 -1t547.5 -1v-133h-1094z" />
<glyph unicode="&#x2014;" horiz-adv-x="2045" d="M4 541v135q412 0 812.5 -1t809.5 -1v-133h-1622zM1626 530l23 11h-23v-11z" />
<glyph unicode="&#x2018;" horiz-adv-x="700" d="M12 1585h199q-14 -139 -29.5 -271t-29.5 -272h-101z" />
<glyph unicode="&#x2019;" horiz-adv-x="700" d="M12 1585h199q-14 -139 -29.5 -271t-29.5 -272h-101z" />
<glyph unicode="&#x201a;" horiz-adv-x="759" d="M-55 -268l147 544h230l-246 -575q-35 6 -67 14.5t-64 16.5z" />
<glyph unicode="&#x201c;" horiz-adv-x="1126" d="M8 1585h201q-14 -139 -29.5 -271t-29.5 -272h-101zM457 1585h198q-14 -139 -29.5 -271t-29.5 -272h-100z" />
<glyph unicode="&#x201d;" horiz-adv-x="1126" d="M8 1585h201q-14 -139 -29.5 -271t-29.5 -272h-101zM457 1585h198q-14 -139 -29.5 -271t-29.5 -272h-100z" />
<glyph unicode="&#x2022;" horiz-adv-x="768" d="M-18 610q0 66 45 110t106 44q63 0 109.5 -44t46.5 -110q0 -61 -46 -106t-110 -45q-61 0 -106 45t-45 106z" />
<glyph unicode="&#x2026;" horiz-adv-x="2508" d="M-59 98q0 63 45 108.5t106 45.5q63 0 108.5 -45.5t45.5 -108.5t-45 -107t-109 -44q-61 0 -106 44t-45 107zM823 98q0 63 45 108.5t107 45.5q63 0 108 -45.5t45 -108.5t-45 -107t-108 -44q-61 0 -106.5 44t-45.5 107zM1708 98q0 63 44 108.5t108 45.5q61 0 107 -45.5 t46 -108.5t-46 -107t-107 -44q-63 0 -107.5 44t-44.5 107z" />
<glyph unicode="&#x202f;" horiz-adv-x="464" />
<glyph unicode="&#x2039;" horiz-adv-x="1032" d="M-43 551v108l629 439v-164l-480 -330l480 -325v-166z" />
<glyph unicode="&#x203a;" horiz-adv-x="1032" d="M8 113v166l479 325l-479 330v164l629 -439v-108z" />
<glyph unicode="&#x205f;" horiz-adv-x="580" />
<glyph unicode="&#x20ac;" horiz-adv-x="1714" d="M-137 494v137h231q-4 41 -6 73.5t-2 59.5v45h-223v137h235q20 135 73.5 250t137.5 199t198 131t257 47q166 0 299 -81t225 -224h-188q-63 76 -143 123t-193 47q-86 0 -167 -32t-147.5 -93.5t-114.5 -153.5t-71 -213h629v-137h-643v-45q0 -72 6 -133h637v-137h-608 q63 -197 193 -298.5t286 -101.5q113 0 192.5 47t143.5 123h188q-92 -143 -225 -224t-299 -81q-129 0 -235.5 40t-188.5 110.5t-137.5 169t-85.5 215.5h-254z" />
<glyph unicode="&#x25fc;" horiz-adv-x="1167" d="M0 0v1167h1167v-1167h-1167z" />
</font>
</defs>
</svg>
