<?xml version="1.0" standalone="no"?>
<!DOCTYPE svg PUBLIC "-//W3C//DTD SVG 1.1//EN" "http://www.w3.org/Graphics/SVG/1.1/DTD/svg11.dtd" >
<svg xmlns="http://www.w3.org/2000/svg">
<metadata></metadata>
<defs>
<font id="ovarregular" horiz-adv-x="1490" >
<font-face units-per-em="2048" ascent="1536" descent="-512" />
<missing-glyph horiz-adv-x="786" />
<glyph horiz-adv-x="0" />
<glyph unicode="&#xd;" horiz-adv-x="1468" />
<glyph horiz-adv-x="0" />
<glyph horiz-adv-x="0" />
<glyph unicode=" "  horiz-adv-x="786" />
<glyph unicode="&#x09;" horiz-adv-x="786" />
<glyph unicode="&#xa0;" horiz-adv-x="786" />
<glyph unicode="!" horiz-adv-x="587" d="M-39 111q0 72 49 121t121 49q70 0 118 -49t48 -121q0 -70 -48 -119t-118 -49q-72 0 -121 49t-49 119zM8 1534h242l-57 -1038h-127z" />
<glyph unicode="&#x22;" horiz-adv-x="1140" d="M8 1581h240l-64 -567h-135zM442 1581h240l-64 -567h-135z" />
<glyph unicode="#" horiz-adv-x="1759" d="M-51 379v166h268l70 413h-242v166h270l72 410h172l-67 -410h450l70 410h176l-70 -410h230v-166h-258l-72 -413h233v-166h-262l-65 -379h-176l65 379h-451l-65 -379h-176l65 379h-237zM391 545h451l71 413h-452z" />
<glyph unicode="$" horiz-adv-x="1357" d="M-41 440h195q2 -53 26.5 -102t63.5 -89t89 -68.5t101 -39.5v574q-98 35 -181 72.5t-141.5 87t-91 116t-32.5 160.5q0 68 27.5 139.5t83 131t139.5 100.5t196 49v192h107v-194q96 -10 177 -48t139 -98.5t92 -136.5t36 -160h-197q0 57 -21.5 102.5t-56 79t-79.5 55 t-90 30.5v-521q76 -29 158.5 -62.5t152.5 -84.5t116 -125.5t46 -183.5q0 -72 -28 -149t-86 -140.5t-147 -107.5t-212 -52v-237h-107v237q-109 8 -195.5 52t-149 111t-96.5 147.5t-34 162.5zM174 1151q0 -47 19.5 -83t54.5 -63.5t82 -50t104 -43.5v484q-61 -6 -109.5 -30 t-82 -57.5t-51 -74.5t-17.5 -82zM530 137l11 -10v10h-11zM541 137q123 14 203.5 85t80.5 196q0 78 -77.5 140.5t-206.5 113.5v-535z" />
<glyph unicode="%" horiz-adv-x="1591" d="M-39 1219q0 70 23.5 132t63.5 109t95.5 74t116.5 27t114.5 -27t94.5 -74t64.5 -109.5t23.5 -131.5q0 -72 -23.5 -134.5t-64.5 -109.5t-94 -74t-115 -27q-61 0 -116.5 27t-95.5 74t-63.5 109.5t-23.5 134.5zM121 1219q0 -37 11 -73t29.5 -62.5t44 -43t54.5 -16.5 q27 0 52.5 16.5t44 43t29.5 62.5t11 73t-11 71.5t-29.5 61t-44 43t-52.5 16.5q-29 0 -54.5 -16.5t-44 -43t-29.5 -61.5t-11 -71zM256 0l664 1534h178l-666 -1534h-176zM797 319q0 70 23.5 132.5t63.5 109.5t94.5 74t115.5 27t116.5 -27t95.5 -74t63.5 -109.5t23.5 -132.5 q0 -72 -23.5 -134t-63.5 -109t-95.5 -74t-116.5 -27t-115.5 27t-94.5 74t-63.5 109.5t-23.5 133.5zM956 319q0 -37 11.5 -72.5t30 -62t43 -43t53.5 -16.5q27 0 52 16.5t44.5 43t31 62.5t11.5 72q0 37 -11.5 72t-31 61.5t-44.5 43t-52 16.5q-29 0 -53.5 -16.5t-43 -43 t-30 -61.5t-11.5 -72z" />
<glyph unicode="&#x26;" horiz-adv-x="1482" d="M-76 461q0 76 21.5 145.5t59.5 131t88 113.5t110 93q-45 70 -77 142.5t-36 132.5q-4 76 19.5 143.5t70.5 120.5q47 49 111.5 76.5t132.5 27.5q76 0 141.5 -28.5t110.5 -79.5t59.5 -113.5t3.5 -134.5q-6 -49 -24.5 -91t-51 -80t-83 -74t-121.5 -73q45 -59 96 -130.5 t102 -145.5t95.5 -138.5t87.5 -119.5q37 78 55 180.5t18 218.5h172q0 -178 -37.5 -307t-101.5 -227q33 -41 67 -85t62 -79q33 -43 66 -82l-232 2q-4 4 -14 16q-10 10 -25.5 31t-44.5 55q-80 -74 -169 -112.5t-183 -38.5q-121 0 -222 37t-174 104.5t-113 161.5t-40 207z M115 461q0 -152 95 -240t263 -88q72 0 138.5 21.5t119.5 72.5q-47 59 -99 133t-110 152q-57 84 -111.5 160t-103.5 139q-94 -63 -143 -159.5t-49 -190.5zM272 1233q4 -35 24.5 -86t61.5 -109q51 20 89 48t64 59t39 60.5t17 51.5q4 31 -3 71t-25 58q-43 50 -115 50 t-118 -52.5t-34 -150.5z" />
<glyph unicode="'" horiz-adv-x="714" d="M12 1581h240l-64 -567h-135z" />
<glyph unicode="(" horiz-adv-x="684" d="M8 559q0 166 18.5 314.5t51.5 275.5t76 230.5t92 179.5h131l8 -15q-39 -68 -77 -158t-68.5 -209.5t-49 -273t-18.5 -346.5t19.5 -346.5t50 -275t70.5 -215t81 -166.5h-147q-49 76 -92 180t-76 232t-51.5 277.5t-18.5 315.5z" />
<glyph unicode=")" horiz-adv-x="684" d="M-55 -446q41 74 81 167t70.5 214.5t50 275.5t19.5 346q0 193 -19.5 346.5t-50 275t-70.5 215t-81 165.5h147q49 -76 92 -179.5t76 -231.5t51.5 -277.5t18.5 -315.5t-18.5 -313.5t-51.5 -275.5t-76 -232.5t-92 -179.5h-147z" />
<glyph unicode="*" horiz-adv-x="1245" d="M-49 1196l67 166l336 -170q-10 98 -17 199.5t-18 199.5h185l-39 -401q82 41 170 86t168 86l67 -166l-368 -115l289 -278l-123 -121l-256 326q-63 -78 -128 -162t-126 -162l-125 119l286 278q-92 29 -184 58.5t-184 56.5z" />
<glyph unicode="+" horiz-adv-x="1341" d="M-61 532v175h403v387h182v-387h404v-175h-404v-391h-182v391h-403z" />
<glyph unicode="," horiz-adv-x="774" d="M-55 -256l151 565h271l-256 -602z" />
<glyph unicode="-" horiz-adv-x="1228" d="M8 524v172h801v-168v-4h-801z" />
<glyph unicode="." horiz-adv-x="782" d="M78 115q0 72 49 121t119 49q72 0 121 -49t49 -121q0 -70 -49.5 -119t-120.5 -49q-70 0 -119 49t-49 119z" />
<glyph unicode="/" horiz-adv-x="1095" d="M-78 0l664 1534h178l-666 -1534h-176z" />
<glyph unicode="0" horiz-adv-x="1443" d="M-39 758q0 184 43 333.5t117 255t173 163t214 57.5q113 0 213 -55.5t174 -159t117 -251t43 -331.5t-43 -332.5t-117 -253t-174 -160t-213 -55.5q-115 0 -214 54.5t-173 156t-117 247.5t-43 331zM143 758q0 -133 27 -246t75 -194.5t115.5 -128t147.5 -46.5q88 0 147.5 45 t94.5 95q59 86 91.5 213t32.5 274q0 145 -32.5 271t-91.5 212q-35 49 -94.5 95.5t-147.5 46.5q-43 0 -79 -13.5t-65.5 -34t-53 -47t-42.5 -51.5q-59 -86 -92 -215t-33 -276z" />
<glyph unicode="1" horiz-adv-x="796" d="M-45 1022v195q51 0 99 20t86 60t60.5 99.5t22.5 137.5h185v-1534h-185v1174q-51 -82 -113.5 -117t-154.5 -35z" />
<glyph unicode="2" horiz-adv-x="1363" d="M0 1055q0 102 36 190t95 156q63 74 152.5 111.5t185.5 37.5q115 0 205 -41t151.5 -107.5t91 -149.5t23.5 -167t-30.5 -143t-64.5 -106.5t-92.5 -85t-111.5 -78.5l-90 -60l-29 -20q-35 -25 -91 -68t-109.5 -97t-93.5 -118.5t-42 -134.5h744v-174h-924v164q0 94 39 175 t101.5 150.5t139 129t152.5 112.5q4 4 9.5 6t9.5 6q2 2 2 3.5t3 3.5t10 7t26 15h-2l34 21q37 23 74 48t67.5 59t54.5 78t32 99q6 53 -8.5 108.5t-48 100.5t-90 74t-132.5 29q-66 0 -121 -27t-97 -73t-65.5 -106.5t-23.5 -127.5h-172z" />
<glyph unicode="3" horiz-adv-x="1282" d="M-55 438h188q0 -131 80 -216t229 -85q70 0 126.5 22.5t96.5 62.5t61.5 92.5t21.5 113.5q0 98 -45.5 154.5t-108 84t-127 35t-102.5 7.5v157q41 0 102 13.5t117.5 46t97.5 87t41 136.5q0 53 -21.5 99t-60.5 81t-92 54.5t-117 19.5q-129 0 -205.5 -70.5t-76.5 -185.5h-179 q0 94 34 171t94.5 130t145.5 83t187 30q100 0 186.5 -31t148.5 -85t97 -130t35 -166q0 -76 -19.5 -133.5t-53 -99.5t-79 -71.5t-96.5 -49.5q59 -12 111.5 -42t90.5 -76t60.5 -108.5t22.5 -140.5q0 -98 -37 -180t-102.5 -142.5t-156.5 -94.5t-198 -34q-225 0 -364 129 q-63 61 -98 146.5t-35 185.5z" />
<glyph unicode="4" horiz-adv-x="1460" d="M-39 395v152l684 987h180v-975h230v-164h-230v-395h-184v395h-680zM170 559h471v694q-117 -174 -235.5 -347t-235.5 -347z" />
<glyph unicode="5" horiz-adv-x="1456" d="M-20 379h198q41 -104 112.5 -169t201.5 -65q45 0 109.5 13.5t122.5 53.5t99 113.5t41 194.5q0 80 -21.5 145.5t-64.5 112.5t-105.5 73t-142.5 26q-145 0 -225 -46.5t-121 -121.5h-172l181 825h794v-172h-645q-23 -98 -44.5 -187.5t-45.5 -187.5q53 33 118.5 48.5 t159.5 15.5q117 0 214.5 -40t167 -111t108.5 -168t39 -212q0 -123 -39 -223t-111.5 -173t-178 -113t-238.5 -40q-127 0 -215.5 40t-147.5 99.5t-95 131t-54 137.5z" />
<glyph unicode="6" horiz-adv-x="1394" d="M-31 475v23q0 96 9.5 175t25.5 150q4 14 28.5 85t78 169.5t138.5 212t208 215.5l43 33h243l5 -18q-98 -70 -197.5 -147t-183.5 -179q-47 -66 -96.5 -151t-77.5 -162q70 53 136 74.5t142 21.5q104 0 195.5 -39t159 -107.5t107.5 -159.5t40 -196q0 -104 -40 -196.5 t-107.5 -160t-159 -107.5t-195.5 -40t-195.5 40t-160 107.5t-107.5 160t-39 196.5zM152 475q0 -66 25.5 -126t68.5 -106t101.5 -73t123.5 -27q66 0 124 27t101 73t69 106.5t26 125.5q0 66 -26 125t-69 104.5t-101 72t-124 26.5t-124 -26.5t-101 -72t-68.5 -104.5t-25.5 -125 z" />
<glyph unicode="7" horiz-adv-x="1333" d="M8 1364v172h936v-168l-20 -28q-19 -27 -50.5 -73t-71.5 -108.5t-82 -134.5t-82 -148.5t-71 -152.5q-37 -98 -60.5 -207.5t-37.5 -210t-19.5 -182.5t-5.5 -123h-182q0 57 7 148.5t22.5 200t41 223t64.5 216.5q31 80 72 162t85 158t86 141.5t77 114.5h-709z" />
<glyph unicode="8" horiz-adv-x="1357" d="M-18 444q0 131 68.5 235.5t178.5 164.5q-82 53 -129 134t-47 183q0 84 35 159t93.5 131t136 89t165.5 33t166 -33t136.5 -89t93 -131t34.5 -159q0 -102 -48 -183t-130 -134q113 -59 182.5 -162.5t69.5 -237.5q0 -100 -41 -188t-110.5 -153.5t-160.5 -103.5t-192 -38 q-100 0 -191 38t-160 103.5t-109.5 153.5t-40.5 188zM162 444q0 -82 31.5 -141t80 -97t104.5 -55.5t105 -17.5q47 0 103.5 17.5t104.5 55.5t81 97t33 141q0 76 -30 135.5t-76 100.5t-103 63.5t-113 22.5q-55 0 -112.5 -22.5t-103.5 -63.5t-75.5 -100.5t-29.5 -135.5z M236 1161q0 -47 20 -91t55 -79t80 -56.5t92 -21.5t92.5 21.5t80 56.5t56 79t21.5 91t-21.5 91t-56 77t-80 52.5t-92.5 19.5t-92 -19.5t-80 -52.5t-55 -77t-20 -91z" />
<glyph unicode="9" horiz-adv-x="1312" d="M-35 1067q0 104 39 195.5t107.5 160t159.5 107.5t196 39q104 0 196.5 -39t160 -107.5t107.5 -160t40 -195.5v-23q0 -96 -9.5 -177t-25.5 -150q-4 -14 -27.5 -85t-76 -169t-138.5 -212t-213 -216q-8 -6 -16 -12.5t-23 -22.5h-245l-7 18q98 68 196.5 147t184.5 183 q47 63 95.5 145t76.5 164q-68 -53 -133 -73.5t-143 -20.5q-104 0 -195.5 40t-160 107.5t-107.5 160t-39 196.5zM147 1067q0 -66 26 -126t69 -106.5t101 -73t124 -26.5t124 26.5t102 73t69.5 106.5t25.5 126t-25.5 125t-69.5 104t-102.5 72t-123.5 27q-66 0 -124 -27 t-101 -72t-69 -104t-26 -125z" />
<glyph unicode=":" horiz-adv-x="782" d="M78 115q0 72 49 121t119 49q72 0 121 -49t49 -121q0 -70 -49.5 -119t-120.5 -49q-70 0 -119 49t-49 119zM78 1012q0 72 49 121t119 49q72 0 121 -49t49 -121q0 -70 -49.5 -119t-120.5 -49q-70 0 -119 49t-49 119z" />
<glyph unicode=";" horiz-adv-x="774" d="M-55 -256l151 565h271l-256 -602zM35 1012q0 72 49 121t119 49q72 0 121 -49t49 -121q0 -70 -49.5 -119t-120.5 -49q-70 0 -119 49t-49 119z" />
<glyph unicode="&#x3c;" horiz-adv-x="1417" d="M8 541v153l1000 436v-208l-750 -304l750 -303v-211z" />
<glyph unicode="=" horiz-adv-x="1449" d="M6 240v174h1028v-174h-1028zM6 813v174h1028v-174h-1028z" />
<glyph unicode="&#x3e;" horiz-adv-x="1417" d="M8 104v211l750 303l-750 304v208l1000 -436v-153z" />
<glyph unicode="?" horiz-adv-x="1540" d="M205 1141q0 94 33.5 174t95 137t147 89t187.5 32q100 0 184 -32t145.5 -88t95 -133t33.5 -169q0 -72 -16 -125t-44 -94t-62.5 -74t-69.5 -63l-98 -84q-47 -41 -77 -76t-30 -82v-68h-164v68q0 53 15.5 96t41 79t57.5 66.5t64 59.5l39 35l45 39q27 23 49.5 43t38 45.5 t23.5 57.5t8 77q0 53 -20.5 100t-57.5 83t-88 56.5t-112 20.5q-66 0 -116 -20.5t-85 -57.5t-53.5 -86t-18.5 -106h-190zM487 113q0 72 49 120t121 48q70 0 118 -48.5t48 -119.5q0 -70 -48 -120t-118 -50q-37 0 -67.5 13t-53 36.5t-36 54.5t-13.5 66z" />
<glyph unicode="@" horiz-adv-x="1925" d="M-61 764q0 168 63.5 316.5t174 259t258 175t317.5 64.5q166 0 308 -55.5t246.5 -153.5t164 -232t59.5 -290q0 -109 -33 -202t-91 -163.5t-139 -115.5t-177 -54h-39q-33 0 -63 14.5t-52 37.5q-18 25 -29 61q-47 -51 -123.5 -94t-189.5 -43q-70 0 -130.5 25.5t-98.5 70.5 q-31 37 -43.5 84t-4.5 94q23 113 118 186.5t249 96.5q182 25 285 31l6 45q8 35 -1 66.5t-28 55.5q-49 53 -135 54q-41 0 -78 -12.5t-64.5 -30t-45 -36t-23.5 -32.5q0 -4 -1 -9t-1 -7h-158l2 22q6 43 41 88t87.5 82t119 59.5t139.5 22.5q74 0 140.5 -28.5t109.5 -77.5 q61 -74 62 -166q0 -33 -6 -60l-64 -358l-12 -72q-2 -2 -2 -4v-2q4 -10 14 -10h29q117 20 193.5 120.5t76.5 260.5q0 129 -45 235.5t-127 183t-195.5 118.5t-250.5 42q-135 0 -254 -52t-208 -142t-140.5 -211t-51.5 -258t51.5 -258t140.5 -212t207.5 -143.5t254.5 -52.5 q57 0 128.5 10.5t141.5 29t132.5 45t105.5 59.5h-3l15 14l94 -119l-4 -4q-57 -45 -134 -79t-160 -57.5t-165 -35.5t-151 -12q-170 0 -317.5 63.5t-258 174t-174 259t-63.5 318.5zM485 518.5q4 -18.5 19 -33.5q16 -23 46 -33t64 -10q43 0 87 8.5t85 28t76 50t58 75.5l-2 -2 l24 127q-47 -4 -115.5 -13t-142.5 -22q-80 -14 -134 -42.5t-65 -94.5q-4 -20 0 -38.5z" />
<glyph unicode="A" horiz-adv-x="1454" d="M-96 0l553 1532h161l553 -1532h-204l-140 414h-569l-141 -414h-213zM315 586h445q-57 176 -110.5 337.5t-110.5 338.5q-55 -174 -111.5 -338t-112.5 -338z" />
<glyph unicode="B" horiz-adv-x="1554" d="M6 0v1534h647q98 0 175 -33t130.5 -90t81 -133t27.5 -162q0 -195 -131 -291q102 -57 163.5 -158.5t61.5 -226.5q0 -92 -34.5 -172t-95 -139t-141.5 -94t-173 -35h-711zM201 172h516q53 0 101 21.5t84 58.5t56.5 86t20.5 102q0 55 -20.5 104.5t-56.5 86.5t-83 59.5 t-100 22.5h-518v-541zM201 885h452q47 0 89 18.5t74 50t50.5 73.5t18.5 89t-16.5 92t-46 79t-72.5 54.5t-97 20.5h-452v-477z" />
<glyph unicode="C" horiz-adv-x="1728" d="M-94 764q0 166 54 313.5t152.5 256t236.5 172t306 63.5q106 0 207 -34t188 -97.5t156.5 -154.5t114.5 -208l-205 -2q-39 94 -92 148q-76 88 -162 132t-207 44q-123 0 -221 -44t-176 -132q-78 -86 -115 -207t-37 -250q0 -131 37 -252t115 -207t176 -131t221 -45 q121 0 207 45t162 131q53 57 92 150l207 -2q-41 -113 -110.5 -205t-158.5 -156.5t-190.5 -99.5t-208.5 -35q-168 0 -306 63.5t-236.5 173t-152.5 256t-54 314.5z" />
<glyph unicode="D" horiz-adv-x="1681" d="M6 0v1534h588q150 0 274.5 -56.5t215 -157.5t140.5 -242.5t50 -311.5t-50 -310.5t-140.5 -241.5t-215.5 -157.5t-274 -56.5h-588zM201 172h393q129 0 221 49t152.5 131t88 189.5t27.5 224.5t-27.5 224.5t-88 190.5t-152.5 132t-221 49h-393v-1190z" />
<glyph unicode="E" horiz-adv-x="1427" d="M6 0v1534h1014v-172h-821v-490h731v-174h-731v-524h821v-174h-1014z" />
<glyph unicode="F" horiz-adv-x="1419" d="M6 0v1534h1014v-172h-821v-490h682v-174h-682v-698h-193z" />
<glyph unicode="G" horiz-adv-x="1755" d="M-80 764q0 166 54.5 313.5t152.5 256t235.5 172t305.5 63.5q246 0 421 -130t265 -364l-205 -2q-20 43 -44 81t-48 67q-74 82 -173.5 129t-215.5 47q-123 0 -221.5 -44t-176.5 -132q-78 -86 -118.5 -207t-40.5 -250q0 -131 41 -252t118 -207q78 -86 176.5 -131t221.5 -45 q59 0 125.5 13.5t134 47t131 94t117.5 156.5v176h-541v172h723v-788h-182v238q-92 -129 -220.5 -205t-287.5 -76q-168 0 -305.5 63.5t-235.5 173t-152.5 256t-54.5 314.5z" />
<glyph unicode="H" horiz-adv-x="1556" d="M6 -2v1534h195v-678h739v678h195v-1534h-195v682h-739v-682h-195z" />
<glyph unicode="I" horiz-adv-x="598" d="M10 0v1534h193v-1534h-193z" />
<glyph unicode="J" horiz-adv-x="1230" d="M-27 406h191q0 -49 12 -97.5t39 -88.5t71 -64.5t109 -24.5q119 0 172.5 66.5t53.5 160.5v1176h194v-1176q0 -84 -28.5 -157.5t-82 -127t-132 -84t-177.5 -30.5q-109 0 -188.5 38t-131.5 100.5t-77 142t-25 166.5z" />
<glyph unicode="K" horiz-adv-x="1380" d="M6 0v1534h195v-709q145 180 292.5 355.5t294.5 353.5h250l-581 -672l669 -862h-249l-537 727q-33 -39 -70 -82t-69 -82v-563h-195z" />
<glyph unicode="L" horiz-adv-x="1296" d="M6 0v1534h201v-1360h784v-174h-985z" />
<glyph unicode="M" horiz-adv-x="1880" d="M4 0v1534h199l530 -1290l531 1290h200v-1534h-192v1098l-438 -1098h-199l-438 1098v-1098h-193z" />
<glyph unicode="N" horiz-adv-x="1636" d="M6 0v1534h184h19l819 -1198v1198h195v-1534h-191l-831 1223v-1223h-195z" />
<glyph unicode="O" horiz-adv-x="1800" d="M-78 764q0 166 54.5 313.5t152.5 256t236.5 172t306.5 63.5q166 0 302 -63.5t233.5 -172t149.5 -256t52 -313.5q0 -168 -52 -314.5t-149.5 -256t-233.5 -173t-302 -63.5q-168 0 -306.5 63.5t-236.5 173t-152.5 256t-54.5 314.5zM123 764q0 -131 41 -252t119 -207 q80 -86 173 -131t216 -45t213 45t166 131t116.5 206t40.5 253q0 131 -41 251t-116 206q-76 88 -166 132t-213 44t-216.5 -44t-172.5 -132q-78 -86 -119 -207t-41 -250z" />
<glyph unicode="P" horiz-adv-x="1376" d="M6 0v1534h553q94 0 177 -36t145.5 -98.5t98.5 -146.5t36 -178t-36 -177t-98.5 -144.5t-145.5 -97t-177 -35.5h-360v-621h-193zM199 791h360q57 0 107.5 23.5t87.5 62t58.5 91t21.5 107.5t-21.5 107.5t-58.5 92.5t-87.5 63.5t-107.5 23.5h-360v-571z" />
<glyph unicode="Q" horiz-adv-x="1765" d="M-98 764q0 166 54 313.5t152.5 256t236.5 172t304 63.5q168 0 304.5 -63.5t232.5 -172t149.5 -256t53.5 -313.5q0 -154 -43 -289t-127 -242l165 -163l-122 -142l-175 174q-90 -70 -198.5 -107.5t-239.5 -37.5q-166 0 -304 63.5t-236.5 173t-152.5 256t-54 314.5zM92 764 q0 -131 42 -252t120 -207t175 -131t220 -45q92 0 170 26.5t144 73.5l-279 277l119 139l282 -283q53 84 82 187.5t29 214.5q0 131 -41 251t-117 206q-152 176 -389 176q-242 0 -395 -176q-78 -86 -120 -207t-42 -250z" />
<glyph unicode="R" horiz-adv-x="1411" d="M6 0v1534h621q94 0 177 -35t145.5 -95.5t98 -143t35.5 -177.5q0 -84 -28.5 -155.5t-79.5 -127t-121 -91t-152 -47.5q43 -37 84 -84.5t88 -110.5q39 -53 80 -117.5t81 -129t77 -124t68 -100.5h-219q0 2 -21.5 39t-54.5 91t-74 117.5t-82 118.5q-90 123 -167 199t-154 94 h-207v-655h-195zM201 829h426q115 0 189.5 70t74.5 184q0 57 -20.5 107.5t-55.5 88.5t-83 60.5t-105 22.5h-426v-533z" />
<glyph unicode="S" horiz-adv-x="1357" d="M-41 440h195q2 -59 31.5 -114.5t76.5 -97.5t105.5 -67.5t117.5 -25.5q74 0 135.5 18.5t107.5 54.5t71.5 89t25.5 121q0 45 -26.5 84t-73.5 73.5t-114.5 66.5t-149.5 60q-104 39 -191.5 77t-150 88.5t-97 118t-34.5 165.5q0 72 31.5 146.5t94 136t155.5 100.5t216 39 q109 0 200 -37t157.5 -98.5t104.5 -142.5t38 -169h-194q-2 66 -30 116t-71 85t-96 52.5t-109 17.5q-72 0 -129 -21.5t-97 -56.5t-61.5 -79t-21.5 -89q0 -53 20.5 -90t59.5 -64.5t92 -50t121 -47.5h-2q18 -6 25.5 -9l17.5 -7h-2q10 -4 22.5 -8.5t22.5 -8.5q74 -29 156 -62.5 t149.5 -84.5t111.5 -124t44 -179q0 -76 -32 -156t-96.5 -145.5t-164.5 -107.5t-236 -42q-119 0 -215 42t-164.5 109.5t-106.5 152.5t-40 171z" />
<glyph unicode="T" horiz-adv-x="1515" d="M-33 1362v172h1157v-172h-483v-1362h-192v1362h-482z" />
<glyph unicode="U" horiz-adv-x="1613" d="M8 643v889h193v-889q0 -88 20.5 -178t66.5 -164t122.5 -120t189.5 -46q129 0 208 46t122 120t57 164t14 178v889h193v-889q0 -106 -24.5 -226t-91 -221.5t-182.5 -168t-296 -66.5q-178 0 -294 66.5t-181.5 168t-91 221.5t-25.5 226z" />
<glyph unicode="V" horiz-adv-x="1337" d="M-102 1534h219l409 -1227l422 1227h213l-543 -1534h-180z" />
<glyph unicode="W" horiz-adv-x="2099" d="M-98 1534h209l333 -1221l283 1221h205l278 -1221q84 305 167 610.5t165 610.5h211l-455 -1534h-170l-301 1237q-76 -311 -150.5 -618.5t-150.5 -618.5h-172z" />
<glyph unicode="X" horiz-adv-x="1472" d="M-57 0l501 770l-501 764h227l387 -610l389 610h230l-506 -764q125 -190 252 -386t252 -384h-228l-389 606l-389 -606h-225z" />
<glyph unicode="Y" d="M-78 1534h217l408 -668l405 668h224l-529 -858v-676h-201v676z" />
<glyph unicode="Z" horiz-adv-x="1439" d="M6 0v166l791 1196h-791v174h1014v-168l-793 -1194h793v-174h-1014z" />
<glyph unicode="[" horiz-adv-x="620" d="M8 -436v2017h344v-160h-176v-1697h176v-160h-344z" />
<glyph unicode="\" horiz-adv-x="1095" d="M-78 1534h178l664 -1534h-176z" />
<glyph unicode="]" horiz-adv-x="620" d="M-72 -276h176v1697h-176v160h344v-2017h-344v160z" />
<glyph unicode="^" horiz-adv-x="1341" d="M-41 895l453 651h131l452 -651h-213l-305 451l-305 -451h-213z" />
<glyph unicode="_" horiz-adv-x="1531" d="M4 -51l1618 -2v-162v-14l-1618 8v170z" />
<glyph unicode="`" horiz-adv-x="864" d="M18 1757h256l207 -368h-194z" />
<glyph unicode="a" horiz-adv-x="1380" d="M-25 311q0 82 33 145.5t90.5 108.5t132 74t160.5 41q121 16 222.5 27.5t160.5 15.5v68q0 57 -23.5 106t-63.5 83t-91 53.5t-109 19.5q-59 0 -108 -19.5t-84 -47.5t-54.5 -57.5t-19.5 -49.5h-182q0 57 35 117.5t94 109.5t141 80t178 31q94 0 179.5 -31t150 -87.5t102 -135 t37.5 -172.5v-578q0 -18 12.5 -29.5t30.5 -11.5h48v-174h-48q-41 0 -77.5 14.5t-66.5 42t-48.5 67.5t-18.5 89q-43 -109 -142 -178.5t-255 -69.5q-80 0 -155.5 25.5t-133 71.5t-92.5 111t-35 140zM168 311q0 -41 18.5 -72.5t49 -54t71.5 -35t84 -12.5q61 0 121.5 14.5 t112 43t90.5 71.5t59 101v211q-61 -6 -156.5 -17.5t-205.5 -32.5q-111 -18 -177.5 -69t-66.5 -148z" />
<glyph unicode="b" horiz-adv-x="1482" d="M6 0v1530h184v-551q18 49 55.5 91t85.5 75t104.5 51t115.5 18q131 0 230.5 -48t167 -132t102 -197.5t34.5 -244.5t-34.5 -243.5t-102 -196.5t-167 -132.5t-230.5 -48.5q-53 0 -110.5 19.5t-107.5 52.5t-88 77t-55 91v-211h-184zM190 539q6 -74 31 -144.5t68 -127 t107.5 -90.5t154.5 -34q98 0 162.5 39t102.5 101.5t53.5 143.5t15.5 165t-15.5 165t-53.5 144.5t-102.5 102t-162.5 38.5q-90 0 -154.5 -33.5t-107.5 -90t-67.5 -128t-31.5 -145.5v-106z" />
<glyph unicode="c" horiz-adv-x="1353" d="M-33 594q0 131 33 243.5t99.5 196.5t164.5 132t230 48q182 0 303 -92t188 -245h-213q-45 74 -107.5 119.5t-170.5 45.5q-98 0 -163 -38.5t-103 -101t-53 -143.5t-15 -165t15 -165t53 -143.5t102.5 -101.5t163.5 -39q109 0 171 46.5t107 119.5h213q-68 -154 -188.5 -246 t-302.5 -92q-131 0 -229.5 48.5t-165 132.5t-99.5 196.5t-33 243.5z" />
<glyph unicode="d" horiz-adv-x="1482" d="M-43 592q0 131 35 244.5t102.5 197.5t167 132t230.5 48q123 0 218 -66.5t142 -195.5v578h182v-1530h-182v219q-20 -66 -59 -113t-88.5 -76.5t-104.5 -44t-108 -14.5q-131 0 -230.5 48.5t-167 132.5t-102.5 196.5t-35 243.5zM158 592q0 -84 15 -165t53 -143.5t103 -101.5 t163 -39q88 0 153.5 34t108.5 90.5t67.5 127t30.5 144.5v106q-6 74 -30.5 145.5t-67.5 128t-108.5 90t-153.5 33.5q-98 0 -163 -38.5t-103 -102t-53 -144.5t-15 -165z" />
<glyph unicode="e" horiz-adv-x="1402" d="M-37 590q0 129 28.5 237.5t84.5 188.5q68 94 172 144t229 50q123 0 227.5 -51t172.5 -143q53 -80 83.5 -188.5t30.5 -237.5v-80h-841q6 -68 24.5 -133.5t56 -117.5t97 -84t149.5 -32q115 0 195 37t119 131h200q-66 -174 -193.5 -257t-320.5 -83q-125 0 -229.5 49.5 t-171.5 145.5q-113 162 -113 424zM150 680h655q-6 61 -24.5 124.5t-56.5 116t-98.5 85t-148.5 32.5q-90 0 -149.5 -32.5t-97 -85t-56 -116t-24.5 -124.5z" />
<glyph unicode="f" horiz-adv-x="905" d="M-68 997v174h179v70q0 106 29.5 174t88 102.5t144.5 42.5q35 3 74 3q57 0 122 -7v-163q-62 6 -108 6h-22q-52 -2 -84.5 -18.5t-47 -50.5t-14.5 -89v-70h276v-174h-276v-997h-182v997h-179z" />
<glyph unicode="g" horiz-adv-x="1495" d="M-25 623q0 123 36 230.5t103.5 187t165 124.5t220.5 45q129 0 229 -57t160 -195v216h180v-1162q0 -123 -42 -219t-115.5 -160.5t-173 -98.5t-212.5 -34q-84 0 -163.5 25.5t-147.5 74t-119 116t-82 153.5h195q47 -90 133 -143.5t184 -53.5q76 0 142.5 21.5t116 63.5 t77 105.5t27.5 149.5v285q-45 -141 -149.5 -207.5t-239.5 -66.5q-123 0 -220.5 47t-165 128t-103.5 190.5t-36 234.5zM168 623q0 -133 38 -217t90 -131.5t108.5 -64.5t95.5 -17t104.5 12t127 56t106.5 129t45 233q0 145 -45 228t-107.5 125t-127 52t-103.5 10t-95.5 -16 t-108.5 -61.5t-90 -126t-38 -211.5z" />
<glyph unicode="h" horiz-adv-x="1456" d="M6 0v1532h195v-563q20 57 56 102t83 77t101.5 48t109.5 16q106 0 192 -30.5t146.5 -98t92.5 -174t32 -256.5v-655h-195v627q0 92 -16.5 170.5t-50 135t-87 88.5t-128.5 32q-84 0 -146.5 -49.5t-104.5 -127t-63.5 -174t-21.5 -190.5v-510h-195z" />
<glyph unicode="i" horiz-adv-x="600" d="M-45 1513q0 61 42 105.5t107 44.5q61 0 104.5 -44.5t43.5 -105.5t-43 -105t-105 -44q-66 0 -107.5 44t-41.5 105zM6 0v1171h193v-1171h-193z" />
<glyph unicode="j" horiz-adv-x="759" d="M-162 -307q45 0 85 8t70 29.5t47 58.5t17 92v1290h183v-1290q0 -94 -32 -162.5t-86 -112.5t-127 -65.5t-157 -21.5v174zM0 1513q0 61 43.5 105.5t106.5 44.5q61 0 104 -44t43 -106q0 -61 -43 -105t-104 -44q-63 0 -106.5 44t-43.5 105z" />
<glyph unicode="k" horiz-adv-x="1243" d="M6 0v1530h184v-907l472 548h241l-432 -481q125 -170 253 -346t253 -344h-221l-391 571l-175 -194v-377h-184z" />
<glyph unicode="l" horiz-adv-x="591" d="M10 0v1530h185v-1530h-185z" />
<glyph unicode="m" horiz-adv-x="1941" d="M4 0v1188h195v-201q12 55 40.5 97t65.5 71t80 44t86 15q143 0 225 -54t121 -165q45 104 119 161.5t197 57.5q109 0 182.5 -33.5t117.5 -100t63.5 -164t19.5 -224.5v-692h-191v664q0 74 -5 144.5t-26.5 124.5t-63.5 88t-118 34q-82 0 -131 -43t-76.5 -117t-37 -172 t-9.5 -211v-512h-192v684q0 66 -5.5 131.5t-27 118.5t-64.5 87t-118 34q-82 0 -131.5 -50.5t-76 -128t-35.5 -174t-9 -190.5v-512h-195z" />
<glyph unicode="n" horiz-adv-x="1456" d="M6 0v1186h191v-266q16 68 53 122t87 91.5t107.5 59t112.5 21.5q106 0 194.5 -30.5t150 -98t95 -174t33.5 -256.5v-655h-194v627q0 92 -18.5 169.5t-55.5 134t-94.5 88.5t-132.5 32q-82 0 -145.5 -49.5t-106.5 -127t-64.5 -173t-21.5 -189.5v-512h-191z" />
<glyph unicode="o" d="M-39 592q0 131 39 243.5t111.5 196.5t177 132t235.5 48t235.5 -48t177.5 -132t111.5 -196.5t38.5 -243.5t-38.5 -245t-111.5 -197.5t-177.5 -132t-235.5 -48.5t-235.5 48.5t-177 132t-111.5 197.5t-39 245zM162 592q0 -84 19.5 -165t63.5 -144.5t112.5 -102.5t166.5 -39 t168 39t113 102.5t62.5 144.5t19.5 165t-19.5 165t-62.5 143.5t-113 101t-168 38.5t-166.5 -38.5t-112.5 -101t-63.5 -143.5t-19.5 -165z" />
<glyph unicode="p" horiz-adv-x="1439" d="M8 -401v1585h185v-226q20 61 59 109.5t88 81.5t104.5 49t108.5 16q131 0 230.5 -48t167 -132t102 -197.5t34.5 -244.5t-34.5 -243.5t-102 -196.5t-167 -132.5t-230.5 -48.5q-117 0 -211 70t-149 176v-618h-185zM193 539q6 -74 30.5 -144.5t67.5 -127t107.5 -90.5 t154.5 -34q98 0 162.5 39t102.5 101.5t53.5 143.5t15.5 165t-15.5 165t-53.5 144.5t-102.5 102t-162.5 38.5q-90 0 -154.5 -33.5t-107.5 -90t-67.5 -128t-30.5 -145.5v-106z" />
<glyph unicode="q" horiz-adv-x="1439" d="M-39 592q0 131 35 244.5t102.5 197.5t167 132t230.5 48q109 0 208 -64.5t152 -205.5v240h182v-1585h-182v628q-47 -133 -143.5 -194.5t-216.5 -61.5q-131 0 -230.5 48.5t-167 132.5t-102.5 196.5t-35 243.5zM162 592q0 -84 15.5 -165t53 -143.5t102.5 -101.5t163 -39 q88 0 153.5 34t108.5 90.5t67.5 127t30.5 144.5v106q-6 74 -30.5 145.5t-67.5 128t-108.5 90t-153.5 33.5q-98 0 -163 -38.5t-102.5 -102t-53 -144.5t-15.5 -165z" />
<glyph unicode="r" horiz-adv-x="925" d="M8 0v1171h185v-188q8 43 34.5 81t64.5 67.5t82 46t91 16.5q39 0 79 -13.5t70 -33.5v-203q-47 35 -79.5 45t-85.5 10q-84 0 -134.5 -40.5t-77 -108.5t-35.5 -156t-9 -182v-512h-185z" />
<glyph unicode="s" horiz-adv-x="1193" d="M-35 342h182q0 -41 13.5 -77t43 -63.5t76 -44t113.5 -16.5q68 0 116 15.5t76.5 42t42 61.5t13.5 72q0 59 -62.5 103t-205.5 85q-80 20 -150.5 50t-123 72t-82 96.5t-29.5 125.5q0 74 26.5 137.5t78.5 109.5t127 72.5t173 26.5q92 0 169 -27.5t131.5 -75.5t85 -113.5 t30.5 -139.5h-182q0 86 -67.5 138t-166.5 52q-111 0 -167 -50t-56 -130q0 -35 20.5 -61.5t51 -46t68.5 -32.5t73 -26l37 -12l57 -20q68 -23 131.5 -47.5t111.5 -61.5t76.5 -91t28.5 -134q0 -59 -23.5 -122t-75.5 -115t-134 -85t-199 -33q-104 0 -185 31t-134.5 82t-81 116.5 t-27.5 135.5z" />
<glyph unicode="t" horiz-adv-x="937" d="M-39 997v174h178v310h183v-310h299v-174h-299v-696q0 -55 17 -87t54 -47t93.5 -15t134.5 6v-164q-71 -12 -137 -12q-24 0 -48 2q-88 6 -154.5 40.5t-104.5 102.5t-38 174v696h-178z" />
<glyph unicode="u" horiz-adv-x="1456" d="M6 516v655h197v-626q0 -92 18.5 -170t55 -134.5t93 -88t134.5 -31.5q82 0 145.5 49t106.5 127t64.5 173t21.5 189v512h188v-1171h-188v276q-18 -78 -56 -137t-87.5 -99t-105.5 -61.5t-112 -21.5q-109 0 -195.5 30.5t-149 98.5t-96.5 173.5t-34 256.5z" />
<glyph unicode="v" horiz-adv-x="1341" d="M-55 1171h205l329 -935q80 236 160 468t158 467h204l-430 -1169h-184z" />
<glyph unicode="w" horiz-adv-x="1826" d="M-59 1171h202l258 -946q55 236 113.5 474.5t116.5 471.5h196l236 -944q61 236 125.5 472.5t124.5 471.5h200l-352 -1169h-205l-229 860l-227 -860h-187z" />
<glyph unicode="x" horiz-adv-x="1320" d="M-33 1169h228l299 -464v-3q6 6 6 11l293 456h231l-416 -600l404 -571h-232l-288 434l-285 -434h-230l404 571q-102 147 -207.5 301t-206.5 299z" />
<glyph unicode="y" horiz-adv-x="1341" d="M-68 1171h213l324 -935l315 935h207l-428 -1163q-35 -98 -72.5 -204.5t-70.5 -204.5h-189q27 76 52 149q23 63 47 134t45 126z" />
<glyph unicode="z" horiz-adv-x="1296" d="M6 0v166l664 831h-664v174h893v-167l-657 -832h657v-172h-893z" />
<glyph unicode="{" horiz-adv-x="903" d="M-68 494v79l5 74q45 0 87 22.5t73.5 57.5t50 77t18.5 81v385q0 41 19.5 94t59.5 99t103.5 78t149.5 32h65v-156h-65q-47 0 -79 -17.5t-51.5 -41t-27.5 -47t-8 -33.5v-442l-2 -7q-10 -88 -66.5 -153.5t-126.5 -106.5q70 -41 126 -106.5t67 -153.5l2 -6v-453q0 -10 8 -32.5 t27.5 -46t51.5 -42t79 -18.5h65v-153h-65q-86 0 -149.5 31.5t-103.5 77.5t-59.5 98.5t-19.5 95.5v393q0 39 -18.5 81t-51.5 76.5t-74.5 58.5t-89.5 24z" />
<glyph unicode="|" horiz-adv-x="591" d="M10 -401v1935h185v-1935h-185z" />
<glyph unicode="}" horiz-adv-x="903" d="M-68 -289h66q47 0 80 18.5t52.5 42t27.5 46t8 32.5v453l2 6q10 88 65.5 153.5t124.5 106.5q-70 41 -125 106.5t-65 153.5v-4l-2 11v442q0 10 -8 33.5t-27.5 47t-52.5 41t-80 17.5h-66v156h66q86 0 149.5 -32t104.5 -78t60.5 -99t19.5 -94v-385q0 -39 18.5 -81t50 -77 t73.5 -58.5t89 -23.5v-80l-4 -71q-45 0 -86 -24t-72.5 -58.5t-50 -76.5t-18.5 -81v-393q0 -43 -19.5 -95.5t-60.5 -98.5t-104.5 -77.5t-149.5 -31.5h-66v153z" />
<glyph unicode="~" horiz-adv-x="1327" d="M-100 549l8 16q8 18 33.5 62.5t67.5 91.5t100.5 84t132.5 41q80 2 147.5 -30t114.5 -62q27 -18 49 -37q25 -20 51.5 -39t57.5 -17q43 2 77.5 33t60 68t40.5 68l14 30l135 -70q-2 -2 -12 -24.5t-29.5 -55t-48.5 -69.5t-66.5 -69.5t-84 -55t-101.5 -25.5h-10 q-78 0 -142.5 31t-105.5 62q-35 25 -59.5 42t-43 27.5t-34.5 15.5t-33 5q-41 0 -75.5 -31t-59.5 -66q-29 -41 -53 -94z" />
<glyph unicode="&#xa1;" horiz-adv-x="587" d="M-41 1024q0 70 48 119t120 49t120 -49t48 -119q0 -72 -48 -121t-120 -49t-120 49t-48 121zM6 -399l57 1040h127l58 -1040h-242z" />
<glyph unicode="&#xa3;" horiz-adv-x="1482" d="M-109 645v172h181q0 16 -2 42t-3 53.5t-2.5 53t-1.5 38.5v39.5t3 37.5q8 111 52 204t113.5 163t160.5 108.5t194 38.5q82 0 158.5 -23.5t142 -67.5t114 -106.5t70.5 -140.5h-201q-14 39 -43.5 70t-68.5 52.5t-83 32.5t-89 11q-68 0 -127.5 -27.5t-103.5 -74.5 t-72.5 -111.5t-34.5 -138.5q-2 -16 -2 -33.5v-36.5q0 -29 2 -67.5t6 -116.5h573v-172h-567q2 -86 -7 -181t-44 -206q29 16 63.5 28.5t57.5 12.5q61 8 114.5 -17.5t105.5 -61.5t106.5 -67.5t119.5 -31.5q25 0 51.5 15.5t52 34.5t47 42t36.5 39h198q-4 -6 -19.5 -31.5 t-41 -59.5t-60 -73t-77.5 -70.5t-92.5 -54t-104.5 -24.5h-14q-59 0 -114.5 28.5t-109 63.5t-105.5 62.5t-106 25.5q-49 -4 -88 -31t-67 -61q-33 -39 -60 -88l-139 88q72 141 95.5 280t23.5 268q0 20 -1 35t-1 35h-189z" />
<glyph unicode="&#xa5;" d="M-53 1534h219l409 -668l406 668h221l-364 -594h292v-172h-454v-94v-37h454v-172h-454v-465h-201v465h-455v172h455v39v92h-455v172h291z" />
<glyph unicode="&#xa6;" horiz-adv-x="591" d="M10 -401v831h185v-831h-185zM10 705v831h185v-831h-185z" />
<glyph unicode="&#xa7;" horiz-adv-x="1380" d="M-47 0h194q2 -59 32 -114.5t77 -97.5t105.5 -67.5t117.5 -25.5q74 0 135.5 18.5t107.5 53t71.5 88t25.5 120.5q0 43 -28.5 83t-77.5 76t-116 67.5t-142 60.5q-100 37 -187.5 75t-151 89t-99 119.5t-35.5 165.5q0 113 67 217q-68 86 -67 219q0 72 31.5 146.5t94 135 t155.5 99.5t216 39q109 0 200 -36t156.5 -97.5t103.5 -142.5t40 -171h-195q-2 66 -29.5 117t-70.5 86t-96 52.5t-109 17.5q-72 0 -129 -21.5t-98 -56.5t-62.5 -79t-21.5 -89q0 -53 21.5 -90t59.5 -65.5t92 -51t122 -47.5q10 -4 25.5 -9t56.5 -22q76 -29 157.5 -62.5 t149.5 -84.5t112 -124t44 -179q0 -55 -15.5 -112.5t-50.5 -111.5q29 -43 47.5 -96t18.5 -119q0 -76 -32 -155.5t-96.5 -145t-165 -107.5t-235.5 -42q-119 0 -215 42t-165.5 109.5t-107.5 153.5t-38 172zM168 711q0 -57 24.5 -96.5t68.5 -68t105.5 -53t137.5 -51.5l55 -20 q59 -23 121.5 -46.5t122.5 -62.5q16 49 16 99q0 92 -99 159.5t-265 126.5q-70 27 -133.5 51.5t-126.5 59.5q-27 -45 -27 -98z" />
<glyph unicode="&#xa8;" horiz-adv-x="1259" d="M-29 1614q0 70 48.5 120t117.5 50q72 0 121 -50t49 -120q0 -72 -49 -120t-121 -48q-70 0 -118 48t-48 120zM473 1614q0 70 49 120t119 50t120 -50t50 -120q0 -72 -50 -120t-120 -48t-119 48t-49 120z" />
<glyph unicode="&#xab;" horiz-adv-x="1796" d="M6 543v129l653 452v-209l-450 -307l450 -305v-213zM727 543v129l653 452v-209l-450 -307l450 -305v-213z" />
<glyph unicode="&#xad;" horiz-adv-x="1228" d="M8 524v172h801v-168v-4h-801z" />
<glyph unicode="&#xaf;" horiz-adv-x="1265" d="M12 1350v170h801v-166v-4h-801z" />
<glyph unicode="&#xb0;" horiz-adv-x="933" d="M-16 1386q0 59 22.5 112.5t61 92.5t92 61.5t112.5 22.5t112.5 -22.5t92.5 -61.5t61.5 -92t22.5 -113q0 -59 -22.5 -112t-61.5 -92t-92.5 -61.5t-112.5 -22.5t-112.5 22.5t-92 61.5t-61 92t-22.5 112zM129 1386q0 -70 42 -111.5t101 -41.5t101.5 42t42.5 111 q0 59 -42.5 101.5t-101.5 42.5t-101 -42t-42 -102z" />
<glyph unicode="&#xb1;" horiz-adv-x="1613" d="M8 66v170h989v-170h-989zM8 799v174h404v389h182v-389h403v-174h-403v-393h-182v393h-404z" />
<glyph unicode="&#xb4;" horiz-adv-x="864" d="M14 1389l205 368h258l-268 -368h-195z" />
<glyph unicode="&#xb5;" horiz-adv-x="1447" d="M6 -403v1574h195v-628q0 -184 72.5 -293t224.5 -109q82 0 146.5 46t107.5 120t65.5 166t22.5 184v512h190v-1169h-190v268q-10 -72 -48 -130t-89.5 -98t-109.5 -61.5t-114 -21.5q-41 0 -84 13.5t-81 37t-68.5 56t-44.5 69.5v-536h-195z" />
<glyph unicode="&#xb7;" horiz-adv-x="782" d="M78 115q0 72 49 121t119 49q72 0 121 -49t49 -121q0 -70 -49.5 -119t-120.5 -49q-70 0 -119 49t-49 119z" />
<glyph unicode="&#xb8;" horiz-adv-x="888" d="M-2 -399l123 75q16 -25 37.5 -43t42.5 -18q23 0 37 9t21 23.5t9 30t2 25.5q0 12 -2 26.5t-9 29t-21.5 23.5t-36.5 9q-14 0 -29.5 -11t-32.5 -22l-102 92l145 230l125 -82l-92 -94q90 0 145.5 -59.5t55.5 -141.5q0 -98 -59.5 -160.5t-155.5 -62.5q-61 0 -114.5 31.5 t-88.5 89.5z" />
<glyph unicode="&#xbb;" horiz-adv-x="1796" d="M6 90v213l451 305l-451 307v209l653 -452v-129zM727 90v213l451 305l-451 307v209l653 -452v-129z" />
<glyph unicode="&#xbf;" horiz-adv-x="1312" d="M-57 -10q0 72 16 125t44 94t62.5 73.5t71.5 63.5l96 84q47 41 77 76t30 82v67h164v-67q0 -53 -15.5 -96t-41 -79t-57.5 -67t-64 -59q-10 -10 -20.5 -17.5t-20.5 -17.5l-43 -37q-27 -23 -48.5 -44t-37 -47t-23.5 -57.5t-8 -76.5q0 -53 20.5 -100.5t57.5 -83t88 -56 t112 -20.5q63 0 114.5 20.5t85.5 57t52.5 86t18.5 106.5h190q0 -96 -33.5 -175t-94 -136.5t-146 -89t-187.5 -31.5q-100 0 -184 31.5t-145.5 88t-96 133.5t-34.5 169zM246 1028q0 70 48 120t120 50t120 -50t48 -120q0 -72 -48 -120t-120 -48t-120 48t-48 120z" />
<glyph unicode="&#xc0;" horiz-adv-x="1454" d="M-96 0h213l141 414h569l140 -414h204l-553 1532h-161zM227 2097h258l205 -366h-194zM315 586q55 174 111.5 337.5t112.5 338.5q57 -176 110 -338t111 -338h-445z" />
<glyph unicode="&#xc1;" horiz-adv-x="1454" d="M-96 0h213l141 414h569l140 -414h204l-553 1532h-161zM315 586q55 174 111.5 337.5t112.5 338.5q57 -176 110 -338t111 -338h-445zM436 1731l205 366h258l-268 -366h-195z" />
<glyph unicode="&#xc2;" horiz-adv-x="1454" d="M-96 0h213l141 414h569l140 -414h204l-553 1532h-161zM84 1761l457 400l456 -398l-110 -129l-346 301q-86 -72 -172 -150.5t-172 -150.5zM315 586q55 174 111.5 337.5t112.5 338.5q57 -176 110 -338t111 -338h-445z" />
<glyph unicode="&#xc3;" horiz-adv-x="1454" d="M-96 0h213l141 414h569l140 -414h204l-553 1532h-161zM16 1788l9 14q8 18 33.5 62.5t67.5 92.5t99.5 85t130.5 39q82 2 149.5 -29t115.5 -63q14 -10 25 -18.5t22 -18.5q27 -18 53 -37t57 -17q43 2 78 33t59.5 67t38.5 66l15 31l135 -70q-2 -2 -12.5 -24.5t-30 -55 t-48 -69.5t-66.5 -69.5t-84 -55t-99 -25.5h-10q-78 0 -142.5 32t-107.5 61q-70 51 -102.5 71.5t-65.5 20.5q-43 0 -78 -31t-59 -65q-29 -43 -52 -97zM315 586q55 174 111.5 337.5t112.5 338.5q57 -176 110 -338t111 -338h-445z" />
<glyph unicode="&#xc4;" horiz-adv-x="1454" d="M-96 0h213l141 414h569l140 -414h204l-553 1532h-161zM117 1868q0 70 49 120t119 50t120 -50t50 -120t-50.5 -119t-119.5 -49q-70 0 -119 49t-49 119zM315 586q55 174 111.5 337.5t112.5 338.5q57 -176 110 -338t111 -338h-445zM621 1868q0 70 48 120t117 50 q72 0 121 -50t49 -120t-49 -119t-121 -49q-70 0 -117.5 49t-47.5 119z" />
<glyph unicode="&#xc5;" horiz-adv-x="1454" d="M-96 0h213l141 414h569l140 -414h204l-553 1532h-161zM252 2007q0 59 22.5 112.5t61.5 92.5t92 61.5t113 22.5q59 0 112.5 -22.5t92 -61.5t61 -92.5t22.5 -112.5t-22.5 -112.5t-61 -92.5t-92 -61.5t-112.5 -22.5t-112.5 22.5t-92.5 61.5t-61.5 92.5t-22.5 112.5zM315 586 q55 174 111.5 337.5t112.5 338.5q57 -176 110 -338t111 -338h-445zM397 2007q0 -70 42 -112t102 -42q59 0 101 42t42 112q0 59 -42 101t-101 42t-101.5 -42t-42.5 -101z" />
<glyph unicode="&#xc6;" horiz-adv-x="2355" d="M-117 2l1053 1534h1010v-174h-822q0 -123 1 -244t1 -246h729v-172h-729q0 -135 1 -263t1 -263h818v-172h-1014v412h-555q-72 -104 -144.5 -206t-144.5 -206h-205zM479 588h453v641z" />
<glyph unicode="&#xc7;" horiz-adv-x="1728" d="M-59 766q0 166 54 313.5t152.5 256t235.5 172t305 63.5q106 0 206.5 -34t188.5 -97.5t158 -155.5t115 -209h-207q-45 94 -90 148q-74 82 -165 128t-206 46q-242 0 -397 -176q-78 -86 -115 -206t-37 -249q0 -133 37 -253t115 -206t176 -131t221 -45q117 0 208 48t163 126 q25 29 46 68t44 82h192l11 -15q-41 -109 -107.5 -195.5t-152.5 -149t-185.5 -98.5t-204.5 -38l-53 -55q45 2 83 -14.5t64.5 -44t41 -64.5t14.5 -78q0 -98 -59.5 -160.5t-153.5 -62.5q-63 0 -116.5 31.5t-88.5 89.5l123 75q16 -25 37.5 -43t44.5 -18t36 9t20 23.5t9.5 30 t2.5 25.5q0 12 -2.5 26.5t-9.5 29t-20 23.5t-36 9q-16 0 -31.5 -11t-32.5 -22l-104 92l78 121q-139 25 -252 95.5t-191.5 176t-121.5 238.5t-43 285z" />
<glyph unicode="&#xc8;" horiz-adv-x="1427" d="M6 0h1014v174h-821v524h731v174h-731v490h821v172h-1014v-1534zM217 2097h258l205 -366h-195z" />
<glyph unicode="&#xc9;" horiz-adv-x="1427" d="M6 0h1014v174h-821v524h731v174h-731v490h821v172h-1014v-1534zM356 1731l207 366h256l-268 -366h-195z" />
<glyph unicode="&#xca;" horiz-adv-x="1427" d="M6 0h1014v174h-821v524h731v174h-731v490h821v172h-1014v-1534zM74 1792l456 399l457 -399l-110 -129l-347 303q-86 -72 -172 -150.5t-172 -152.5z" />
<glyph unicode="&#xcb;" horiz-adv-x="1427" d="M6 0h1014v174h-821v524h731v174h-731v490h821v172h-1014v-1534zM100 1868q0 70 49.5 120t118.5 50q70 0 120 -50t50 -120t-50 -119t-120 -49t-119 49t-49 119zM604 1868q0 70 48 120t118 50q72 0 121 -50t49 -120t-49 -119t-121 -49q-70 0 -118 49t-48 119z" />
<glyph unicode="&#xcc;" horiz-adv-x="598" d="M-172 2097h256l205 -366h-193zM25 0h192v1534h-192v-1534z" />
<glyph unicode="&#xcd;" horiz-adv-x="598" d="M-61 1731l206 366h256l-268 -366h-194zM18 0h193v1534h-193v-1534z" />
<glyph unicode="&#xce;" horiz-adv-x="598" d="M-350 1761l456 400l457 -398l-112 -129l-345 301q-86 -72 -173 -150.5t-173 -150.5zM6 0h193v1534h-193v-1534z" />
<glyph unicode="&#xcf;" horiz-adv-x="598" d="M-326 1868q0 70 48.5 120t117.5 50q72 0 121 -50t49 -120t-49 -119t-121 -49q-70 0 -118 49t-48 119zM-2 0h192v1534h-192v-1534zM176 1868q0 70 49 120t119 50t120 -50t50 -120t-50 -119t-120 -49t-119 49t-49 119z" />
<glyph unicode="&#xd0;" horiz-adv-x="1681" d="M-279 571v174h279v789h588q150 0 275.5 -56.5t215.5 -157.5t140.5 -242.5t50.5 -309.5q0 -170 -50.5 -310.5t-140.5 -242.5t-216 -158.5t-275 -56.5h-406h-182v571h-279zM193 174h395q129 0 221 49t152.5 131t88 189.5t27.5 224.5t-27.5 223.5t-88 189.5t-152.5 132 t-221 49h-395v-617h479v-174h-479v-397z" />
<glyph unicode="&#xd1;" horiz-adv-x="1636" d="M6 0h195v1223l831 -1223h191v1534h-195v-1198l-819 1198h-19h-184v-1534zM96 1788q10 23 38 71t71 96t100 86t131 40q80 2 147.5 -29t114.5 -63q27 -18 50 -37q27 -18 53 -37t55 -17q43 2 78 33t60.5 67t39.5 66l15 31l135 -70q-2 -2 -12.5 -24.5t-30 -55t-48 -69.5 t-66.5 -69.5t-84 -55t-101 -25.5h-11q-78 0 -141 32t-106 61q-35 25 -59.5 43t-43 28.5t-35 15.5t-32.5 5q-41 0 -76 -31t-59 -65q-29 -43 -52 -97z" />
<glyph unicode="&#xd2;" horiz-adv-x="1800" d="M-78 764q0 -168 54.5 -314.5t152.5 -256t236.5 -173t306.5 -63.5q166 0 302 63.5t233.5 173t149.5 256t52 314.5q0 166 -52 313.5t-149.5 256t-233.5 172t-302 63.5q-168 0 -306.5 -63.5t-236.5 -172t-152.5 -256t-54.5 -313.5zM123 764q0 129 41 250t119 207 q80 88 173 132t216 44t213 -44t166 -132q76 -86 116.5 -206t40.5 -251q0 -133 -41 -253t-116 -206q-76 -86 -166 -131t-213 -45t-216.5 45t-172.5 131q-78 86 -119 207t-41 252zM356 2097h256l207 -366h-194z" />
<glyph unicode="&#xd3;" horiz-adv-x="1800" d="M-78 764q0 -168 54.5 -314.5t152.5 -256t236.5 -173t306.5 -63.5q166 0 302 63.5t233.5 173t149.5 256t52 314.5q0 166 -52 313.5t-149.5 256t-233.5 172t-302 63.5q-168 0 -306.5 -63.5t-236.5 -172t-152.5 -256t-54.5 -313.5zM123 764q0 129 41 250t119 207 q80 88 173 132t216 44t213 -44t166 -132q76 -86 116.5 -206t40.5 -251q0 -133 -41 -253t-116 -206q-76 -86 -166 -131t-213 -45t-216.5 45t-172.5 131q-78 86 -119 207t-41 252zM526 1731l205 366h256l-268 -366h-193z" />
<glyph unicode="&#xd4;" horiz-adv-x="1800" d="M-78 764q0 -168 54.5 -314.5t152.5 -256t236.5 -173t306.5 -63.5q166 0 302 63.5t233.5 173t149.5 256t52 314.5q0 166 -52 313.5t-149.5 256t-233.5 172t-302 63.5q-168 0 -306.5 -63.5t-236.5 -172t-152.5 -256t-54.5 -313.5zM123 764q0 129 41 250t119 207 q80 88 173 132t216 44t213 -44t166 -132q76 -86 116.5 -206t40.5 -251q0 -133 -41 -253t-116 -206q-76 -86 -166 -131t-213 -45t-216.5 45t-172.5 131q-78 86 -119 207t-41 252zM217 1761l457 400l454 -398l-110 -129l-344 301q-86 -72 -173 -150.5t-173 -150.5z" />
<glyph unicode="&#xd5;" horiz-adv-x="1800" d="M-78 764q0 -168 54.5 -314.5t152.5 -256t236.5 -173t306.5 -63.5q166 0 302 63.5t233.5 173t149.5 256t52 314.5q0 166 -52 313.5t-149.5 256t-233.5 172t-302 63.5q-168 0 -306.5 -63.5t-236.5 -172t-152.5 -256t-54.5 -313.5zM123 764q0 129 41 250t119 207 q80 88 173 132t216 44t213 -44t166 -132q76 -86 116.5 -206t40.5 -251q0 -133 -41 -253t-116 -206q-76 -86 -166 -131t-213 -45t-216.5 45t-172.5 131q-78 86 -119 207t-41 252zM143 1788l9 14q8 18 33.5 62.5t67.5 92.5t100.5 85t131.5 39q80 2 147.5 -29t115.5 -63 q27 -18 49 -37q27 -18 52 -37t56 -17q43 2 78 33t60.5 67t40.5 66l14 31l135 -70q-2 -2 -12.5 -24.5t-30 -55t-48 -69.5t-66.5 -69.5t-84 -55t-101 -25.5h-10q-78 0 -141.5 32t-106.5 61q-35 25 -59.5 43t-43 28.5t-35 15.5t-32.5 5q-41 0 -76 -31t-59 -65q-29 -43 -54 -97z " />
<glyph unicode="&#xd6;" horiz-adv-x="1800" d="M-78 764q0 -168 54.5 -314.5t152.5 -256t236.5 -173t306.5 -63.5q166 0 302 63.5t233.5 173t149.5 256t52 314.5q0 166 -52 313.5t-149.5 256t-233.5 172t-302 63.5q-168 0 -306.5 -63.5t-236.5 -172t-152.5 -256t-54.5 -313.5zM123 764q0 129 41 250t119 207 q80 88 173 132t216 44t213 -44t166 -132q76 -86 116.5 -206t40.5 -251q0 -133 -41 -253t-116 -206q-76 -86 -166 -131t-213 -45t-216.5 45t-172.5 131q-78 86 -119 207t-41 252zM258 1868q0 70 48 120t118 50q72 0 121 -50t49 -120t-49 -119t-121 -49q-70 0 -118 49t-48 119 zM760 1868q0 70 49 120t119 50t120 -50t50 -120t-50.5 -119t-119.5 -49q-70 0 -119 49t-49 119z" />
<glyph unicode="&#xd7;" horiz-adv-x="1159" d="M-33 915l127 121l285 -284l270 272l133 -127l-274 -274l287 -287l-127 -121l-285 285q-70 -68 -139.5 -139.5t-137.5 -139.5l-131 129l279 279z" />
<glyph unicode="&#xd8;" horiz-adv-x="1800" d="M-31 766q0 166 54.5 313.5t152.5 256t236.5 172t304.5 63.5q147 0 269 -48t216 -141q45 51 94.5 104.5t94.5 102.5l120 -110l-200 -222q70 -102 106.5 -228t36.5 -263q0 -168 -52 -314.5t-148.5 -256t-232.5 -173t-304 -63.5q-129 0 -242 38t-203 107l-178 -196l-121 110 l183 201q-92 109 -139.5 248t-47.5 299zM168 766q0 -111 30.5 -215.5t86.5 -188.5l792 881q-72 78 -157.5 116t-202.5 38q-121 0 -215 -43t-172 -133q-78 -86 -120 -206t-42 -249zM397 242q66 -53 145 -82t175 -29q117 0 212 48t169 126q74 86 114.5 208t40.5 253 q0 92 -20.5 180t-56.5 160z" />
<glyph unicode="&#xd9;" horiz-adv-x="1613" d="M8 643v889h193v-889q0 -88 20.5 -178t66.5 -164t122.5 -120t189.5 -46q129 0 208 46t122 120t57 164t14 178v889h193v-889q0 -106 -24.5 -226t-91 -221.5t-182.5 -168t-296 -66.5q-178 0 -294 66.5t-181.5 168t-91 221.5t-25.5 226zM315 2097h256l207 -366h-194z" />
<glyph unicode="&#xda;" horiz-adv-x="1613" d="M8 643v889h193v-889q0 -88 20.5 -178t66.5 -164t122.5 -120t189.5 -46q129 0 208 46t122 120t57 164t14 178v889h193v-889q0 -106 -24.5 -226t-91 -221.5t-182.5 -168t-296 -66.5q-178 0 -294 66.5t-181.5 168t-91 221.5t-25.5 226zM455 1731l207 366h256l-269 -366h-194 z" />
<glyph unicode="&#xdb;" horiz-adv-x="1613" d="M8 643v889h193v-889q0 -88 20.5 -178t66.5 -164t122.5 -120t189.5 -46q129 0 208 46t122 120t57 164t14 178v889h193v-889q0 -106 -24.5 -226t-91 -221.5t-182.5 -168t-296 -66.5q-178 0 -294 66.5t-181.5 168t-91 221.5t-25.5 226zM143 1761l457 400l457 -398l-111 -129 l-346 301q-86 -72 -173 -150.5t-173 -150.5z" />
<glyph unicode="&#xdc;" horiz-adv-x="1613" d="M8 643v889h193v-889q0 -88 20.5 -178t66.5 -164t122.5 -120t189.5 -46q129 0 208 46t122 120t57 164t14 178v889h193v-889q0 -106 -24.5 -226t-91 -221.5t-182.5 -168t-296 -66.5q-178 0 -294 66.5t-181.5 168t-91 221.5t-25.5 226zM193 1868q0 70 48 120t119 50 q70 0 119 -50t49 -120t-49 -119t-119 -49q-72 0 -119.5 49t-47.5 119zM694 1868q0 70 49.5 120t118.5 50q70 0 120 -50t50 -120t-50 -119t-120 -49t-119 49t-49 119z" />
<glyph unicode="&#xdd;" d="M-78 1534l524 -858v-676h201v676l529 858h-224l-405 -668l-408 668h-217zM401 1731l207 366h256l-268 -366h-195z" />
<glyph unicode="&#xde;" horiz-adv-x="1388" d="M8 0v1536h182v-307h361q94 0 178 -36t147.5 -98.5t99.5 -146.5t36 -178q0 -96 -36 -180t-99.5 -146.5t-147.5 -98.5t-178 -36h-361v-309h-182zM190 481h361q57 0 108.5 23.5t89 63.5t59 92.5t21.5 109.5t-21.5 109.5t-59 92.5t-89 63.5t-108.5 23.5h-361v-578z" />
<glyph unicode="&#xdf;" horiz-adv-x="1484" d="M6 0v1139q0 76 17.5 133t44 100t58.5 72t62 47q74 47 151 61.5t132 14.5h66q70 0 132 -27t108 -73t73 -108.5t27 -131.5q0 -59 -24 -113.5t-48 -107.5q0 -4 -1 -4.5t-3 -4.5q-12 -23 -21.5 -43t-9.5 -39q0 -23 16.5 -42t55.5 -48q37 -25 78 -55.5t74.5 -72.5t56 -95 t22.5 -125q0 -104 -39 -192t-107.5 -152.5t-161.5 -101.5t-202 -37h-182v174h182q72 0 132.5 23.5t104.5 65.5t68.5 98.5t24.5 121.5q0 66 -41 108t-113 89q-25 18 -50 38.5t-44.5 45t-33 55.5t-13.5 70q0 49 20 98q4 10 17.5 35.5t30.5 54.5q20 41 38.5 81t18.5 75 q0 33 -16.5 64.5t-43 57t-60.5 41t-66 15.5h-66q-31 0 -84 -8t-98 -39q-47 -29 -68.5 -88.5t-21.5 -130.5v-1139h-193z" />
<glyph unicode="&#xe0;" horiz-adv-x="1380" d="M-25 311q0 -76 35 -140.5t92.5 -110.5t133 -71.5t155.5 -25.5q156 0 255 69.5t142 178.5q0 -49 18.5 -89t48.5 -67.5t66.5 -42t77.5 -14.5h48v174h-48q-18 0 -30.5 11.5t-12.5 29.5v578q0 94 -37.5 172.5t-102 135t-149.5 87.5t-180 31q-96 0 -178 -31t-141 -80 t-94 -109.5t-35 -117.5h182q0 20 19.5 49.5t54.5 57.5t84 47.5t108 19.5q57 0 108.5 -19.5t91.5 -53.5t63.5 -83t23.5 -106v-68q-59 -4 -160.5 -15.5t-222.5 -27.5q-86 -12 -160.5 -41t-132 -74t-90.5 -108.5t-33 -145.5zM168 311q0 96 66.5 147.5t177.5 69.5 q111 20 206 31.5t156 18.5v-211q-20 -57 -59 -100.5t-90.5 -72t-112 -43t-121.5 -14.5q-43 0 -84 12.5t-71.5 35t-49 54t-18.5 72.5zM211 1778h256l207 -367h-195z" />
<glyph unicode="&#xe1;" horiz-adv-x="1380" d="M-25 311q0 -76 35 -140.5t92.5 -110.5t133 -71.5t155.5 -25.5q156 0 255 69.5t142 178.5q0 -49 18.5 -89t48.5 -67.5t66.5 -42t77.5 -14.5h48v174h-48q-18 0 -30.5 11.5t-12.5 29.5v578q0 94 -37.5 172.5t-102 135t-149.5 87.5t-180 31q-96 0 -178 -31t-141 -80 t-94 -109.5t-35 -117.5h182q0 20 19.5 49.5t54.5 57.5t84 47.5t108 19.5q57 0 108.5 -19.5t91.5 -53.5t63.5 -83t23.5 -106v-68q-59 -4 -160.5 -15.5t-222.5 -27.5q-86 -12 -160.5 -41t-132 -74t-90.5 -108.5t-33 -145.5zM168 311q0 96 66.5 147.5t177.5 69.5 q111 20 206 31.5t156 18.5v-211q-20 -57 -59 -100.5t-90.5 -72t-112 -43t-121.5 -14.5q-43 0 -84 12.5t-71.5 35t-49 54t-18.5 72.5zM377 1411l205 367h256l-269 -367h-192z" />
<glyph unicode="&#xe2;" horiz-adv-x="1380" d="M-25 311q0 -76 35 -140.5t92.5 -110.5t133 -71.5t155.5 -25.5q156 0 255 69.5t142 178.5q0 -49 18.5 -89t48.5 -67.5t66.5 -42t77.5 -14.5h48v174h-48q-18 0 -30.5 11.5t-12.5 29.5v578q0 94 -37.5 172.5t-102 135t-149.5 87.5t-180 31q-96 0 -178 -31t-141 -80 t-94 -109.5t-35 -117.5h182q0 20 19.5 49.5t54.5 57.5t84 47.5t108 19.5q57 0 108.5 -19.5t91.5 -53.5t63.5 -83t23.5 -106v-68q-59 -4 -160.5 -15.5t-222.5 -27.5q-86 -12 -160.5 -41t-132 -74t-90.5 -108.5t-33 -145.5zM59 1526l455 399l455 -397l-111 -129l-344 301 q-86 -72 -172 -151t-172 -150zM168 311q0 96 66.5 147.5t177.5 69.5q111 20 206 31.5t156 18.5v-211q-20 -57 -59 -100.5t-90.5 -72t-112 -43t-121.5 -14.5q-43 0 -84 12.5t-71.5 35t-49 54t-18.5 72.5z" />
<glyph unicode="&#xe3;" horiz-adv-x="1380" d="M-78 311q0 -76 35 -140.5t92 -110.5t133 -71.5t156 -25.5q156 0 255 69.5t142 178.5q0 -49 18.5 -89t48 -67.5t66.5 -42t78 -14.5h47v174h-47q-18 0 -30.5 11.5t-12.5 29.5v578q0 94 -38 172.5t-102.5 135t-149.5 87.5t-179 31q-96 0 -178 -31t-141.5 -80t-94 -109.5 t-34.5 -117.5h182q0 20 19.5 49.5t54 57.5t84 47.5t108.5 19.5q57 0 108.5 -19.5t91.5 -53.5t63.5 -83t23.5 -106v-68q-59 -4 -160.5 -15.5t-222.5 -27.5q-86 -12 -161 -41t-132 -74t-90 -108.5t-33 -145.5zM-51 1473l8 16q8 18 33.5 62t67.5 91.5t99.5 84t131.5 40.5 q82 2 148.5 -29.5t113.5 -62.5q27 -18 49 -37q27 -20 52.5 -38.5t56.5 -16.5q43 2 77.5 33t59 67.5t38.5 67.5l15 31l135 -72q-2 -2 -12 -24.5t-29.5 -54.5t-48.5 -69.5t-66.5 -69.5t-83.5 -54.5t-100 -24.5h-10q-78 0 -141.5 31t-106.5 61q-70 51 -102.5 70.5t-65.5 19.5 q-41 0 -75.5 -30.5t-59.5 -65.5q-29 -41 -53 -94zM115 311q0 96 66.5 147.5t176.5 69.5q111 20 206 31.5t157 18.5v-211q-20 -57 -59 -100.5t-90.5 -72t-112 -43t-121.5 -14.5q-43 0 -84 12.5t-71.5 35t-49 54t-18.5 72.5z" />
<glyph unicode="&#xe4;" horiz-adv-x="1380" d="M-25 311q0 -76 35 -140.5t92.5 -110.5t133 -71.5t155.5 -25.5q156 0 255 69.5t142 178.5q0 -49 18.5 -89t48.5 -67.5t66.5 -42t77.5 -14.5h48v174h-48q-18 0 -30.5 11.5t-12.5 29.5v578q0 94 -37.5 172.5t-102 135t-149.5 87.5t-180 31q-96 0 -178 -31t-141 -80 t-94 -109.5t-35 -117.5h182q0 20 19.5 49.5t54.5 57.5t84 47.5t108 19.5q57 0 108.5 -19.5t91.5 -53.5t63.5 -83t23.5 -106v-68q-59 -4 -160.5 -15.5t-222.5 -27.5q-86 -12 -160.5 -41t-132 -74t-90.5 -108.5t-33 -145.5zM94 1608q0 70 49.5 120t118.5 50q70 0 120 -50 t50 -120t-50 -118t-120 -48t-119 48t-49 118zM168 311q0 96 66.5 147.5t177.5 69.5q111 20 206 31.5t156 18.5v-211q-20 -57 -59 -100.5t-90.5 -72t-112 -43t-121.5 -14.5q-43 0 -84 12.5t-71.5 35t-49 54t-18.5 72.5zM596 1608q0 70 49 120t119 50t119 -50t49 -120 t-49 -118t-119 -48t-119 48t-49 118z" />
<glyph unicode="&#xe5;" horiz-adv-x="1380" d="M-25 311q0 -76 35 -140.5t92.5 -110.5t133 -71.5t155.5 -25.5q156 0 255 69.5t142 178.5q0 -49 18.5 -89t48.5 -67.5t66.5 -42t77.5 -14.5h48v174h-48q-18 0 -30.5 11.5t-12.5 29.5v578q0 94 -37.5 172.5t-102 135t-149.5 87.5t-180 31q-96 0 -178 -31t-141 -80 t-94 -109.5t-35 -117.5h182q0 20 19.5 49.5t54.5 57.5t84 47.5t108 19.5q57 0 108.5 -19.5t91.5 -53.5t63.5 -83t23.5 -106v-68q-59 -4 -160.5 -15.5t-222.5 -27.5q-86 -12 -160.5 -41t-132 -74t-90.5 -108.5t-33 -145.5zM168 311q0 96 66.5 147.5t177.5 69.5 q111 20 206 31.5t156 18.5v-211q-20 -57 -59 -100.5t-90.5 -72t-112 -43t-121.5 -14.5q-43 0 -84 12.5t-71.5 35t-49 54t-18.5 72.5zM219 1700q0 59 22.5 112.5t61.5 92.5t92.5 61.5t112.5 22.5t111.5 -22.5t91.5 -61.5t61.5 -92.5t22.5 -112.5t-22.5 -111.5t-61.5 -91.5 t-91.5 -61.5t-111.5 -22.5t-112.5 22.5t-92.5 61.5t-61.5 91t-22.5 112zM365 1700q0 -70 42 -111t101 -41t101 41t42 111q0 59 -42 101t-101 42t-101 -42t-42 -101z" />
<glyph unicode="&#xe6;" horiz-adv-x="2273" d="M-45 315q0 82 32.5 143.5t90 105.5t132.5 69.5t161 38.5q119 16 220 27.5t161 15.5v78q0 57 -23.5 106t-62.5 83t-90.5 53.5t-108.5 19.5q-59 0 -108.5 -19.5t-84 -46t-54 -57.5t-19.5 -51h-183q0 57 35 117.5t94.5 109.5t141.5 80t178 31q127 0 235.5 -55.5 t167.5 -153.5q0 2 2 3t2 3q68 94 171.5 144t230.5 50q123 0 227.5 -50t169.5 -144q57 -80 86 -188.5t29 -237.5v-80h-842q6 -68 25.5 -133.5t57.5 -117.5t97.5 -84t149.5 -32q115 0 194.5 37t118.5 131h199q-63 -174 -191.5 -257t-320.5 -83q-127 0 -230.5 49.5 t-171.5 145.5q-14 18 -21 29.5t-17 33.5q-25 -51 -66 -99t-98.5 -85t-132 -58.5t-166.5 -21.5q-82 0 -158 25.5t-133 73t-92 111t-35 140.5zM139 315q0 -41 19.5 -73.5t52.5 -55t75 -35t87 -12.5q61 0 120.5 14.5t109.5 43t89 71.5t60 101v190q-59 -6 -154.5 -18.5 t-206.5 -28.5q-53 -10 -99 -24.5t-80 -37t-53.5 -55.5t-19.5 -80zM946 680h658q-6 61 -25.5 124.5t-57.5 116t-97.5 85t-147.5 32.5q-90 0 -149.5 -32.5t-97.5 -85t-57.5 -116t-25.5 -124.5z" />
<glyph unicode="&#xe7;" horiz-adv-x="1353" d="M-41 590q0 131 33 243.5t99.5 196.5t164.5 132t229 48q182 0 303 -92t189 -246h-213q-45 74 -107.5 120t-171.5 46q-98 0 -162.5 -38.5t-102.5 -101t-53 -143.5t-15 -165t15 -165t53 -144.5t102.5 -101.5t162.5 -38q109 0 171.5 46t107.5 120h213q-66 -139 -172.5 -230 t-265.5 -106l-66 -67q45 2 83 -13.5t64.5 -43t41 -64.5t14.5 -78q0 -98 -58.5 -161.5t-154.5 -63.5q-61 0 -115.5 32.5t-87.5 88.5l125 77q16 -25 35.5 -44t42.5 -19t37 10t21 24.5t9 30t2 25.5t-2 25.5t-9 29t-21.5 23.5t-36.5 10q-16 0 -31.5 -12t-30.5 -23l-104 92 l82 127q-104 18 -183 72.5t-131.5 135.5t-79 184.5t-26.5 220.5z" />
<glyph unicode="&#xe8;" horiz-adv-x="1402" d="M-37 590q0 -262 113 -424q68 -96 172 -145.5t229 -49.5q193 0 321 83t193 257h-200q-39 -94 -119 -131t-195 -37q-90 0 -149.5 32t-97 84t-56 117.5t-24.5 133.5h841v80q0 129 -30.5 237.5t-83.5 188.5q-68 92 -172.5 143t-227.5 51q-125 0 -229.5 -50t-171.5 -144 q-55 -80 -84 -188.5t-29 -237.5zM150 680q6 61 24.5 124.5t56 116t97 85t149.5 32.5q88 0 148.5 -32.5t98.5 -85t56.5 -116t24.5 -124.5h-655zM160 1778h256l205 -367h-195z" />
<glyph unicode="&#xe9;" horiz-adv-x="1402" d="M-37 590q0 -262 113 -424q68 -96 172 -145.5t229 -49.5q193 0 321 83t193 257h-200q-39 -94 -119 -131t-195 -37q-90 0 -149.5 32t-97 84t-56 117.5t-24.5 133.5h841v80q0 129 -30.5 237.5t-83.5 188.5q-68 92 -172.5 143t-227.5 51q-125 0 -229.5 -50t-171.5 -144 q-55 -80 -84 -188.5t-29 -237.5zM150 680q6 61 24.5 124.5t56 116t97 85t149.5 32.5q88 0 148.5 -32.5t98.5 -85t56.5 -116t24.5 -124.5h-655zM377 1411l205 367h256l-269 -367h-192z" />
<glyph unicode="&#xea;" horiz-adv-x="1402" d="M-37 590q0 -262 113 -424q68 -96 172 -145.5t229 -49.5q193 0 321 83t193 257h-200q-39 -94 -119 -131t-195 -37q-90 0 -149.5 32t-97 84t-56 117.5t-24.5 133.5h841v80q0 129 -30.5 237.5t-83.5 188.5q-68 92 -172.5 143t-227.5 51q-125 0 -229.5 -50t-171.5 -144 q-55 -80 -84 -188.5t-29 -237.5zM31 1526l454 399l455 -397l-111 -129l-344 301q-86 -72 -172 -151t-172 -150zM150 680q6 61 24.5 124.5t56 116t97 85t149.5 32.5q88 0 148.5 -32.5t98.5 -85t56.5 -116t24.5 -124.5h-655z" />
<glyph unicode="&#xeb;" horiz-adv-x="1402" d="M-37 590q0 -262 113 -424q68 -96 172 -145.5t229 -49.5q193 0 321 83t193 257h-200q-39 -94 -119 -131t-195 -37q-90 0 -149.5 32t-97 84t-56 117.5t-24.5 133.5h841v80q0 129 -30.5 237.5t-83.5 188.5q-68 92 -172.5 143t-227.5 51q-125 0 -229.5 -50t-171.5 -144 q-55 -80 -84 -188.5t-29 -237.5zM76 1608q0 70 49 120t119 50t120 -50t50 -120t-50.5 -118t-119.5 -48q-70 0 -119 48t-49 118zM150 680q6 61 24.5 124.5t56 116t97 85t149.5 32.5q88 0 148.5 -32.5t98.5 -85t56.5 -116t24.5 -124.5h-655zM578 1608q0 70 49 120t118 50 q70 0 119 -50t49 -120t-49 -118t-119 -48t-118.5 48t-48.5 118z" />
<glyph unicode="&#xec;" horiz-adv-x="600" d="M-166 1778h256l205 -367h-193zM23 0v1171h192v-1171h-192z" />
<glyph unicode="&#xed;" horiz-adv-x="600" d="M-39 1411l207 367h254l-266 -367h-195zM18 0v1171h193v-1171h-193z" />
<glyph unicode="&#xee;" horiz-adv-x="600" d="M-356 1526l454 399l455 -397l-111 -129l-344 301q-86 -72 -172 -151t-172 -150zM4 0v1171h193v-1171h-193z" />
<glyph unicode="&#xef;" horiz-adv-x="600" d="M-311 1608q0 70 49 120t119 50t119 -50t49 -120t-49.5 -118t-118.5 -48q-70 0 -119 48t-49 118zM-2 0v1171h192v-1171h-192zM190 1608q0 70 48.5 120t117.5 50q72 0 121 -50t49 -120t-49 -118t-121 -48q-70 0 -118 48t-48 118z" />
<glyph unicode="&#xf0;" horiz-adv-x="1386" d="M-25 469q0 104 39 195.5t107.5 160t160 107.5t195.5 39q76 0 138.5 -18.5t134.5 -73.5q-31 72 -88.5 150.5t-110.5 135.5q-66 -41 -135.5 -87t-132.5 -87l-95 142l240 153q-72 63 -152.5 123.5t-169.5 122.5h273q8 -6 16 -12.5t27.5 -22.5t53.5 -45t91 -80l232 152 l92 -144l-205 -129q113 -127 172.5 -237.5t83.5 -196.5q20 -70 27.5 -149.5t7.5 -175.5v-23q0 -104 -39 -195.5t-106.5 -159t-158.5 -106.5t-196 -39q-104 0 -195.5 39t-160 106.5t-107.5 159t-39 195.5zM158 469q0 -66 25.5 -125t68.5 -104t101 -72t124 -27t124 27t101 72 t69 104t26 125t-26 126t-69 105t-101 72t-124 27t-124 -27t-101 -72t-68.5 -105t-25.5 -126z" />
<glyph unicode="&#xf1;" horiz-adv-x="1456" d="M-86 1473l8 16q8 18 34 62t68 91.5t99 84t131 40.5q82 2 148.5 -29.5t113.5 -62.5q27 -18 49 -37q27 -20 52.5 -38.5t56.5 -16.5q43 2 77.5 33t59.5 67.5t39 67.5l14 31l135 -72q-2 -2 -12 -24.5t-29.5 -54.5t-48 -69.5t-66.5 -69.5t-84 -54.5t-100 -24.5h-10 q-78 0 -141.5 31t-106.5 61q-70 51 -102.5 70.5t-65.5 19.5q-41 0 -75.5 -30.5t-59.5 -65.5q-29 -41 -53 -94zM-82 0h191v512q0 94 21.5 189.5t64.5 173t106.5 127t144.5 49.5q76 0 133.5 -32t94.5 -88.5t55.5 -134t18.5 -169.5v-627h194v655q0 150 -34 256.5t-95 174 t-149.5 98t-194.5 30.5q-55 0 -112.5 -21.5t-107.5 -59t-87 -92t-53 -121.5v266h-191v-1186z" />
<glyph unicode="&#xf2;" d="M-39 592q0 -131 39 -245t111.5 -197.5t177 -132t235.5 -48.5t235.5 48.5t177.5 132t111.5 197.5t38.5 245t-38.5 243.5t-111.5 196.5t-177.5 132t-235.5 48t-235.5 -48t-177 -132t-111.5 -196.5t-39 -243.5zM162 592q0 84 19.5 165t63.5 143.5t112.5 101t166.5 38.5 t168 -38.5t113 -101t62.5 -143.5t19.5 -165t-19.5 -165t-62.5 -144.5t-112.5 -102.5t-168.5 -39q-98 0 -166.5 39t-112.5 102.5t-63.5 144.5t-19.5 165zM209 1778h254l207 -367h-195z" />
<glyph unicode="&#xf3;" d="M-39 592q0 -131 39 -245t111.5 -197.5t177 -132t235.5 -48.5t235.5 48.5t177.5 132t111.5 197.5t38.5 245t-38.5 243.5t-111.5 196.5t-177.5 132t-235.5 48t-235.5 -48t-177 -132t-111.5 -196.5t-39 -243.5zM162 592q0 84 19.5 165t63.5 143.5t112.5 101t166.5 38.5 t168 -38.5t113 -101t62.5 -143.5t19.5 -165t-19.5 -165t-62.5 -144.5t-112.5 -102.5t-168.5 -39q-98 0 -166.5 39t-112.5 102.5t-63.5 144.5t-19.5 165zM373 1411l205 367h256l-269 -367h-192z" />
<glyph unicode="&#xf4;" d="M-39 592q0 -131 39 -245t111.5 -197.5t177 -132t235.5 -48.5t235.5 48.5t177.5 132t111.5 197.5t38.5 245t-38.5 243.5t-111.5 196.5t-177.5 132t-235.5 48t-235.5 -48t-177 -132t-111.5 -196.5t-39 -243.5zM82 1526l455 399l454 -397l-110 -129l-344 301 q-86 -72 -172 -151t-172 -150zM162 592q0 84 19.5 165t63.5 143.5t112.5 101t166.5 38.5t168 -38.5t113 -101t62.5 -143.5t19.5 -165t-19.5 -165t-62.5 -144.5t-112.5 -102.5t-168.5 -39q-98 0 -166.5 39t-112.5 102.5t-63.5 144.5t-19.5 165z" />
<glyph unicode="&#xf5;" d="M-39 592q0 -131 39 -245t111.5 -197.5t177 -132t235.5 -48.5t235.5 48.5t177.5 132t111.5 197.5t38.5 245t-38.5 243.5t-111.5 196.5t-177.5 132t-235.5 48t-235.5 -48t-177 -132t-111.5 -196.5t-39 -243.5zM-4 1473l8 16q8 18 33.5 62t67.5 91.5t99.5 84t131.5 40.5 q82 2 148.5 -29.5t113.5 -62.5q27 -18 49 -37q27 -20 52.5 -38.5t56.5 -16.5q43 2 77.5 33t59.5 67.5t39 67.5l14 31l135 -72q-2 -2 -12 -24.5t-29.5 -54.5t-48 -69.5t-66.5 -69.5t-83 -54.5t-101 -24.5h-10q-78 0 -141.5 31t-106.5 61q-70 51 -102.5 70.5t-65.5 19.5 q-41 0 -75.5 -30.5t-59.5 -65.5q-29 -41 -53 -94zM162 592q0 84 19.5 165t63.5 143.5t112.5 101t166.5 38.5t168 -38.5t113 -101t62.5 -143.5t19.5 -165t-19.5 -165t-62.5 -144.5t-112.5 -102.5t-168.5 -39q-98 0 -166.5 39t-112.5 102.5t-63.5 144.5t-19.5 165z" />
<glyph unicode="&#xf6;" d="M-39 592q0 -131 39 -245t111.5 -197.5t177 -132t235.5 -48.5t235.5 48.5t177.5 132t111.5 197.5t38.5 245t-38.5 243.5t-111.5 196.5t-177.5 132t-235.5 48t-235.5 -48t-177 -132t-111.5 -196.5t-39 -243.5zM125 1608q0 70 49 120t119 50t119 -50t49 -120t-49.5 -118 t-118.5 -48q-70 0 -119 48t-49 118zM162 592q0 84 19.5 165t63.5 143.5t112.5 101t166.5 38.5t168 -38.5t113 -101t62.5 -143.5t19.5 -165t-19.5 -165t-62.5 -144.5t-112.5 -102.5t-168.5 -39q-98 0 -166.5 39t-112.5 102.5t-63.5 144.5t-19.5 165zM627 1608q0 70 48 120 t120 50q70 0 119 -50t49 -120t-49.5 -118t-118.5 -48q-72 0 -120 48t-48 118z" />
<glyph unicode="&#xf7;" horiz-adv-x="1630" d="M4 535v174h1188v-174h-1188zM430 174q0 70 49 119t119 49t120 -49t50 -119q0 -72 -50 -121t-120 -49t-119 49t-49 121zM430 1065q0 70 49 118t119 48t120 -48t50 -118q0 -72 -50 -121t-120 -49t-119 49t-49 121z" />
<glyph unicode="&#xf8;" d="M-68 18l170 185q-57 82 -83.5 180t-26.5 211q0 131 39 243.5t111.5 196.5t176 132t234.5 48q104 0 194.5 -32.5t157.5 -85.5l154 170l121 -111l-168 -182q51 -78 77.5 -174.5t26.5 -204.5q0 -131 -39 -243.5t-111.5 -196.5t-177 -132.5t-235.5 -48.5q-98 0 -186 31 t-154 80l-162 -176zM190 594q0 -59 12.5 -122.5t33.5 -117.5l546 609q-41 35 -98 57t-131 22q-98 0 -167 -38.5t-113 -101t-63.5 -143.5t-19.5 -165zM334 217q82 -72 219 -72q98 0 168 38t113 101.5t63.5 144.5t20.5 165q0 57 -9.5 115.5t-31.5 111.5z" />
<glyph unicode="&#xf9;" horiz-adv-x="1456" d="M6 516q0 -152 34 -257t96.5 -173t149.5 -98.5t195 -30.5q55 0 111.5 21.5t106 61.5t87 99.5t56.5 136.5v-276h188v1171h-188v-512q0 -94 -21.5 -189t-64.5 -173t-106.5 -127t-145.5 -49q-78 0 -134.5 31.5t-93 88t-55 134.5t-18.5 170v626h-197v-655zM197 1778h254 l206 -367h-194z" />
<glyph unicode="&#xfa;" horiz-adv-x="1456" d="M6 516q0 -152 34 -257t96.5 -173t149.5 -98.5t195 -30.5q55 0 111.5 21.5t106 61.5t87 99.5t56.5 136.5v-276h188v1171h-188v-512q0 -94 -21.5 -189t-64.5 -173t-106.5 -127t-145.5 -49q-78 0 -134.5 31.5t-93 88t-55 134.5t-18.5 170v626h-197v-655zM377 1411l205 367 h256l-269 -367h-192z" />
<glyph unicode="&#xfb;" horiz-adv-x="1456" d="M6 516q0 -152 34 -257t96.5 -173t149.5 -98.5t195 -30.5q55 0 111.5 21.5t106 61.5t87 99.5t56.5 136.5v-276h188v1171h-188v-512q0 -94 -21.5 -189t-64.5 -173t-106.5 -127t-145.5 -49q-78 0 -134.5 31.5t-93 88t-55 134.5t-18.5 170v626h-197v-655zM76 1526l454 399 l455 -397l-111 -129l-344 301q-86 -72 -172 -151t-172 -150z" />
<glyph unicode="&#xfc;" horiz-adv-x="1456" d="M6 516q0 -152 34 -257t96.5 -173t149.5 -98.5t195 -30.5q55 0 111.5 21.5t106 61.5t87 99.5t56.5 136.5v-276h188v1171h-188v-512q0 -94 -21.5 -189t-64.5 -173t-106.5 -127t-145.5 -49q-78 0 -134.5 31.5t-93 88t-55 134.5t-18.5 170v626h-197v-655zM109 1608 q0 70 49 120t118 50q70 0 119 -50t49 -120t-49 -118t-119 -48t-118.5 48t-48.5 118zM610 1608q0 70 48.5 120t119.5 50q70 0 119 -50t49 -120t-49 -118t-119 -48q-72 0 -120 48t-48 118z" />
<glyph unicode="&#xfd;" horiz-adv-x="1341" d="M-68 1171l443 -1163q-20 -55 -45 -124.5t-47 -131.5q-25 -72 -52 -147l189 -6q33 98 70.5 204.5t72.5 204.5l428 1163h-207l-315 -935l-324 935h-213zM360 1411l205 367h256l-268 -367h-193z" />
<glyph unicode="&#xfe;" horiz-adv-x="1505" d="M8 -399v1931h185v-504q63 88 157 137t203 49q131 0 230.5 -48t167 -132t102 -196.5t34.5 -243.5t-34.5 -243.5t-102 -196.5t-167 -132.5t-230.5 -48.5q-125 0 -213 43t-147 125v-540h-185zM193 539q6 -74 30.5 -144.5t67.5 -126t107.5 -89.5t154.5 -34q98 0 162.5 38 t102.5 101.5t53.5 144.5t15.5 165t-15.5 165t-53.5 143.5t-102.5 101t-162.5 38.5q-88 0 -152.5 -33.5t-108.5 -89t-68.5 -127t-30.5 -147.5v-106z" />
<glyph unicode="&#xff;" horiz-adv-x="1341" d="M-68 1171l443 -1163q-20 -55 -45 -124.5t-47 -131.5q-25 -72 -52 -147l189 -6q33 98 70.5 204.5t72.5 204.5l428 1163h-207l-315 -935l-324 935h-213zM63 1608q0 70 48.5 120t117.5 50q70 0 120 -50t50 -120t-50 -118t-120 -48t-118 48t-48 118zM563 1608q0 70 49.5 120 t118.5 50q70 0 119 -50t49 -120t-49 -118t-119 -48t-119 48t-49 118z" />
<glyph unicode="&#x152;" horiz-adv-x="2582" d="M-49 770q0 166 54 312.5t152.5 256t235.5 172t305 62.5q123 0 242 -55.5t205 -161.5v184h1016v-174h-824v-489h734v-172h-734v-527h824v-172h-1016v180q-82 -106 -203 -164.5t-244 -58.5q-168 0 -305 63.5t-235.5 173t-152.5 256t-54 314.5zM152 770q0 -133 36.5 -253 t114.5 -206t175 -131t220 -45q121 0 207 44t162 130q47 53 78 111v696q-16 29 -34.5 56.5t-43.5 54.5q-76 88 -162 131t-207 43q-242 0 -395 -176q-78 -86 -114.5 -206t-36.5 -249z" />
<glyph unicode="&#x153;" horiz-adv-x="2347" d="M-61 592q0 131 38.5 244.5t111.5 197.5t177.5 132t235.5 48q154 0 271.5 -68.5t189.5 -178.5l28 49q66 94 171.5 144t228.5 50q125 0 229 -51t170 -143q53 -80 84 -188.5t31 -237.5v-80h-842q6 -68 24.5 -133.5t56.5 -117.5t97 -84t150 -32q115 0 194.5 37t118.5 131h201 q-66 -174 -194 -257t-320 -83q-123 0 -228.5 51.5t-171.5 143.5q-6 8 -14 20.5t-16 28.5q-72 -111 -189 -177.5t-270 -66.5q-131 0 -235.5 48.5t-177.5 132.5t-111.5 196.5t-38.5 243.5zM139 592q0 -84 19.5 -165t62.5 -143.5t113 -101.5t168 -39t166.5 39t111.5 101.5 t63.5 143.5t20.5 165t-20.5 165t-63.5 144.5t-111.5 102t-166.5 38.5t-168 -38.5t-113 -102t-62.5 -144.5t-19.5 -165zM1063 680h655q-6 61 -24.5 124.5t-56.5 116t-98 85t-148 32.5q-90 0 -149.5 -32.5t-97.5 -85t-56.5 -116t-24.5 -124.5z" />
<glyph unicode="&#x178;" d="M-78 1534l524 -858v-676h201v676l529 858h-224l-405 -668l-408 668h-217zM121 1868q0 70 49 120t119 50t120 -50t50 -120t-50.5 -119t-119.5 -49q-70 0 -119 49t-49 119zM625 1868q0 70 48 120t118 50q72 0 121 -50t49 -120t-49.5 -119t-120.5 -49q-70 0 -118 49t-48 119 z" />
<glyph unicode="&#x2c6;" horiz-adv-x="1228" d="M-57 1608l456 399l457 -399l-113 -127l-344 303q-86 -74 -173 -153t-173 -150z" />
<glyph unicode="&#x2dc;" horiz-adv-x="1327" d="M-100 1528l8 16q8 18 33.5 62.5t67.5 91.5t100.5 84t132.5 41q80 2 147.5 -29t114.5 -63q27 -18 49 -37q25 -20 51.5 -38t57.5 -16q43 2 77.5 33t60 67t40.5 66l14 31l135 -70q-2 -2 -12 -24.5t-29.5 -55t-48.5 -69.5t-66.5 -69.5t-84 -55.5t-101.5 -25h-10 q-78 0 -142.5 31t-105.5 62q-35 25 -59.5 42t-43 28t-34.5 15.5t-33 4.5q-41 0 -75.5 -31t-59.5 -66q-29 -41 -53 -94z" />
<glyph unicode="&#x2000;" horiz-adv-x="1148" />
<glyph unicode="&#x2001;" horiz-adv-x="2296" />
<glyph unicode="&#x2002;" horiz-adv-x="1148" />
<glyph unicode="&#x2003;" horiz-adv-x="2296" />
<glyph unicode="&#x2004;" horiz-adv-x="765" />
<glyph unicode="&#x2005;" horiz-adv-x="574" />
<glyph unicode="&#x2006;" horiz-adv-x="382" />
<glyph unicode="&#x2007;" horiz-adv-x="382" />
<glyph unicode="&#x2008;" horiz-adv-x="287" />
<glyph unicode="&#x2009;" horiz-adv-x="459" />
<glyph unicode="&#x200a;" horiz-adv-x="127" />
<glyph unicode="&#x2010;" horiz-adv-x="1228" d="M8 524v172h801v-168v-4h-801z" />
<glyph unicode="&#x2011;" horiz-adv-x="1228" d="M8 524v172h801v-168v-4h-801z" />
<glyph unicode="&#x2012;" horiz-adv-x="1228" d="M8 524v172h801v-168v-4h-801z" />
<glyph unicode="&#x2013;" horiz-adv-x="1523" d="M6 524v172l1102 -2v-170h-1102z" />
<glyph unicode="&#x2014;" horiz-adv-x="2060" d="M4 524v172l1618 -2v-162v-8h-1618z" />
<glyph unicode="&#x2018;" horiz-adv-x="714" d="M12 1581h240l-64 -567h-135z" />
<glyph unicode="&#x2019;" horiz-adv-x="714" d="M12 1581h240l-64 -567h-135z" />
<glyph unicode="&#x201a;" horiz-adv-x="774" d="M-55 -256l151 565h271l-256 -602z" />
<glyph unicode="&#x201c;" horiz-adv-x="1140" d="M8 1581h240l-64 -567h-135zM442 1581h240l-64 -567h-135z" />
<glyph unicode="&#x201d;" horiz-adv-x="1140" d="M8 1581h240l-64 -567h-135zM442 1581h240l-64 -567h-135z" />
<glyph unicode="&#x2022;" horiz-adv-x="782" d="M-18 614q0 72 48 121t120 49q70 0 118.5 -49t48.5 -121t-49 -120t-118 -48q-72 0 -120 48.5t-48 119.5z" />
<glyph unicode="&#x2026;" horiz-adv-x="2523" d="M-59 115q0 72 48 121t120 49q70 0 118.5 -49t48.5 -121q0 -70 -49 -119t-118 -49q-72 0 -120 49t-48 119zM799 115q0 72 48 121t120 49q70 0 119 -49t49 -121q0 -70 -49.5 -119t-118.5 -49q-72 0 -120 49t-48 119zM1657 115q0 72 48 121t120 49q70 0 119 -49t49 -121 q0 -70 -49.5 -119t-118.5 -49q-72 0 -120 49t-48 119z" />
<glyph unicode="&#x202f;" horiz-adv-x="459" />
<glyph unicode="&#x2039;" horiz-adv-x="1046" d="M-43 543v129l653 452v-209l-450 -307l450 -305v-213z" />
<glyph unicode="&#x203a;" horiz-adv-x="1046" d="M8 90v213l451 305l-451 307v209l654 -452v-129z" />
<glyph unicode="&#x205f;" horiz-adv-x="574" />
<glyph unicode="&#x20ac;" horiz-adv-x="1728" d="M-137 481v172h219q-2 29 -2 54.5v56.5v22h-217v172h231q23 131 76 243t137 194t196.5 128t256.5 46q172 0 309 -88t236 -250h-228q-59 74 -136 120t-181 46q-80 0 -154 -29t-135 -84t-106.5 -137t-67.5 -189h608v-172h-626v-22v-55.5t4 -55.5h622v-172h-583 q57 -172 176 -261t262 -89q104 0 181 47t136 119h228q-98 -162 -235.5 -250t-309.5 -88q-129 0 -234.5 39t-187.5 107.5t-138.5 165t-86.5 210.5h-250z" />
<glyph unicode="&#x25fc;" horiz-adv-x="1167" d="M0 0v1167h1167v-1167h-1167z" />
</font>
</defs>
</svg>
