<?xml version="1.0" standalone="no"?>
<!DOCTYPE svg PUBLIC "-//W3C//DTD SVG 20010904//EN"
 "http://www.w3.org/TR/2001/REC-SVG-20010904/DTD/svg10.dtd">
<svg version="1.0" xmlns="http://www.w3.org/2000/svg"
 width="16.000000pt" height="16.000000pt" viewBox="0 0 16.000000 16.000000"
 preserveAspectRatio="xMidYMid meet">
<metadata>
Created by potrace 1.11, written by Peter Selinger 2001-2013
</metadata>
<g transform="translate(0.000000,16.000000) scale(0.002500,-0.002500)"
fill="#000000" stroke="none">
<path d="M400 3284 l0 -2084 255 0 c236 0 255 1 256 18 0 9 0 411 1 893 l0
876 312 1 313 1 85 -177 c47 -97 136 -280 198 -407 62 -126 138 -284 170 -350
90 -188 356 -734 387 -795 l28 -55 283 -3 c155 -1 282 -1 282 0 0 2 -32 68
-71 148 -39 80 -106 217 -149 305 -43 88 -142 291 -220 450 -78 160 -180 367
-225 460 -46 94 -115 235 -154 315 -77 158 -76 151 -8 164 86 16 263 93 364
158 231 151 391 404 459 728 25 121 25 402 0 526 -28 134 -75 267 -128 357
-15 26 -28 50 -28 54 0 3 -29 42 -64 87 -60 77 -109 126 -186 189 -58 47 -249
135 -350 161 -92 24 -120 30 -205 42 -22 3 -51 8 -65 11 -14 3 -366 7 -782 9
l-758 3 0 -2085z m1485 1602 c175 -39 252 -71 341 -141 95 -77 190 -222 225
-345 7 -25 13 -47 14 -50 5 -17 18 -149 18 -170 -1 -14 -2 -45 -3 -70 -9 -196
-111 -400 -256 -509 -79 -61 -205 -112 -309 -125 -28 -4 -63 -9 -80 -12 -16
-3 -230 -6 -475 -6 l-445 -1 -1 721 -2 720 472 -3 c259 -1 485 -6 501 -9z"/>
<path d="M5489 3882 c-1 -818 -2 -1500 -4 -1517 -3 -33 -12 -103 -20 -150 -12
-67 -60 -199 -91 -251 -19 -31 -34 -59 -34 -61 0 -15 -113 -120 -174 -161
-130 -89 -275 -132 -456 -134 -191 -2 -347 28 -455 88 -45 25 -154 125 -197
181 -31 40 -84 128 -106 176 -12 26 -26 47 -30 47 -10 0 -403 -199 -414 -209
-3 -3 13 -44 36 -91 131 -264 331 -459 576 -563 91 -38 246 -81 345 -94 116
-15 493 -7 548 12 7 3 23 7 37 9 60 11 147 38 213 67 352 149 561 394 672 789
26 94 32 122 41 195 4 28 8 53 10 56 13 23 17 414 16 1649 0 778 -1 1423 -1
1432 -1 15 -24 17 -256 16 l-255 0 -1 -1486z"/>
<path d="M400 600 l0 -200 2800 0 2800 0 0 200 0 200 -2800 0 -2800 0 0 -200z"/>
</g>
</svg>
