<?xml version="1.0" standalone="no"?>
<!DOCTYPE svg PUBLIC "-//W3C//DTD SVG 20010904//EN"
 "http://www.w3.org/TR/2001/REC-SVG-20010904/DTD/svg10.dtd">
<svg version="1.0" xmlns="http://www.w3.org/2000/svg"
 width="434.000000pt" height="434.000000pt" viewBox="0 0 434.000000 434.000000"
 preserveAspectRatio="xMidYMid meet">
<metadata>
Created by potrace 1.15, written by Peter Selinger 2001-2017
</metadata>
<g transform="translate(0.000000,434.000000) scale(0.100000,-0.100000)"
fill="#000000" stroke="none">
<path d="M0 3845 l0 -495 39 6 c32 5 44 2 63 -15 28 -27 16 -38 -54 -47 -31
-4 -48 -12 -48 -20 0 -23 119 -18 148 5 12 11 22 26 22 35 0 8 10 26 22 40 23
26 46 30 258 40 47 2 26 -26 -48 -65 -40 -21 -89 -52 -109 -68 -21 -17 -43
-31 -49 -31 -7 0 -14 -6 -17 -12 -3 -10 -11 -10 -35 -1 -29 10 -32 9 -32 -8 0
-18 -1 -18 -21 2 -12 12 -24 17 -28 13 -3 -5 -10 -9 -16 -9 -5 -1 -29 -6 -52
-13 -31 -9 -43 -18 -43 -31 0 -17 8 -18 110 -14 106 4 110 4 110 -16 0 -12 -6
-21 -14 -21 -16 0 -83 -37 -104 -57 -8 -7 -19 -10 -25 -6 -6 4 -8 0 -4 -9 6
-18 -17 -42 -50 -52 l-23 -7 0 -1495 0 -1494 1663 0 c1317 0 1666 3 1676 13
11 9 14 9 18 0 3 -9 31 -13 91 -13 47 0 83 3 79 6 -7 7 -138 42 -207 54 -25 5
-153 36 -285 69 -132 34 -329 81 -438 105 -126 29 -208 52 -226 66 -17 11 -52
51 -79 88 -27 37 -65 78 -85 92 -20 14 -37 30 -37 36 0 7 39 15 103 22 56 5
112 13 124 17 19 6 23 2 28 -29 4 -20 10 -38 14 -40 10 -6 274 24 299 34 27
12 28 41 7 260 -28 288 -36 344 -48 358 -10 12 -34 13 -136 8 -177 -10 -181
-11 -181 -52 0 -37 -10 -42 -33 -20 -16 17 -33 135 -20 147 14 13 372 34 384
22 8 -8 6 -11 -7 -10 -10 1 -20 -6 -22 -15 -4 -21 24 -25 31 -5 9 27 18 -48
59 -489 l12 -132 25 9 c23 7 381 49 421 49 13 0 13 2 1 9 -8 5 -24 7 -35 5
-32 -5 -67 27 -71 67 -2 19 -6 41 -10 50 -3 9 1 21 10 29 8 7 15 20 15 29 0
12 -2 13 -9 3 -7 -11 -9 -11 -14 1 -3 8 3 32 14 52 19 34 19 39 4 61 -8 13
-12 24 -8 25 5 0 -2 4 -14 9 -16 7 -20 14 -16 32 4 13 10 26 15 29 5 3 -3 17
-16 32 -14 15 -21 29 -17 32 5 2 7 23 6 45 -1 22 1 40 5 40 4 0 10 14 14 30
11 59 67 92 61 38 -1 -13 0 -15 2 -5 2 9 10 17 16 17 8 0 7 3 -2 9 -19 12 3
51 29 51 13 0 20 7 20 19 0 12 11 23 30 30 17 5 33 17 36 26 3 8 16 15 28 15
12 0 27 5 32 10 6 6 46 12 88 13 67 2 80 -1 92 -18 13 -17 16 -18 24 -5 8 13
11 12 24 -5 10 -14 11 -24 4 -32 -5 -7 -6 -18 -2 -25 4 -7 -2 -4 -14 6 -12 11
-25 16 -29 13 -3 -4 -1 -7 6 -7 7 0 10 -4 7 -9 -4 -5 0 -11 6 -13 7 -3 1 -7
-15 -10 -23 -5 -27 -3 -22 13 4 11 3 19 -2 19 -5 0 -9 -10 -10 -21 -1 -12 -3
-23 -5 -24 -2 -2 -41 -6 -87 -9 -46 -3 -87 -9 -90 -12 -3 -3 44 -3 105 1 98 6
112 5 117 -10 6 -13 3 -15 -13 -10 -15 5 -18 3 -14 -8 3 -9 13 -13 25 -10 16
5 19 0 19 -33 0 -22 3 -49 6 -61 9 -34 -10 -28 -23 7 -11 28 -14 30 -65 30
-76 0 -230 -18 -238 -27 -9 -10 56 -593 67 -604 10 -10 274 21 291 34 6 5 12
19 12 30 0 40 18 2 22 -45 2 -38 1 -44 -10 -35 -10 8 -16 7 -22 -3 -12 -20 -1
-33 23 -26 12 3 16 1 10 -5 -12 -12 24 -192 60 -307 35 -108 35 -161 1 -201
l-26 -31 331 0 331 0 0 2170 -1 2170 -244 0 c-135 0 -245 -3 -245 -8 0 -21 34
-53 51 -49 20 5 32 -7 34 -33 1 -8 5 -35 9 -60 6 -40 3 -49 -20 -78 -15 -17
-35 -32 -45 -32 -10 0 -21 -4 -24 -10 -3 -5 -14 -10 -24 -10 -10 0 -24 -6 -31
-14 -14 -18 -40 -10 -40 13 0 23 -19 41 -43 41 -18 0 -18 -1 -3 -22 36 -52 48
-86 37 -107 -15 -28 -14 -47 5 -66 9 -9 13 -23 9 -33 -4 -12 0 -11 18 6 27 26
52 29 43 6 -3 -9 -6 -27 -6 -40 0 -21 -5 -24 -34 -24 -50 0 -132 -78 -181
-172 -21 -40 -51 -89 -67 -109 -15 -20 -28 -43 -28 -51 0 -8 -7 -23 -15 -34
-8 -10 -15 -29 -15 -42 -1 -63 -67 -95 -110 -52 -38 38 -110 2 -104 -52 1 -13
3 -26 3 -30 2 -15 54 -8 73 9 17 15 18 15 18 -1 0 -32 -21 -53 -49 -48 -14 2
-31 10 -36 17 -16 20 -158 116 -163 110 -8 -8 7 -50 26 -70 10 -11 22 -36 25
-54 l7 -34 -34 6 c-54 9 -55 -18 -6 -127 26 -56 18 -70 -30 -56 -19 6 -45 10
-57 10 -21 0 -22 -2 -11 -26 10 -21 9 -27 -3 -35 -19 -12 -93 -11 -121 1 -22
11 -68 70 -68 89 0 15 -72 91 -87 91 -7 0 -13 5 -13 10 0 6 -8 10 -17 10 -23
0 -162 140 -198 200 -33 52 -75 179 -77 229 0 20 5 62 12 94 11 46 23 69 60
108 27 29 55 49 67 49 12 0 25 5 28 10 4 6 15 8 26 5 10 -4 19 -3 19 2 0 4 13
14 29 21 54 24 110 71 145 123 33 49 34 54 20 80 -16 31 -19 142 -5 202 l9 37
-215 0 -215 0 5 -30 c11 -51 17 -360 7 -315 -5 22 -9 78 -9 125 -1 47 -4 115
-8 153 l-6 67 -403 0 c-359 0 -404 -2 -404 -16 0 -8 -5 -12 -11 -9 -6 4 0 -13
12 -36 12 -24 25 -57 28 -74 5 -19 14 -31 29 -35 30 -7 33 -24 5 -28 -22 -3
-27 -15 -25 -57 1 -11 2 -33 3 -48 3 -39 -14 -47 -96 -46 -48 0 -64 3 -50 9
19 8 18 9 -4 9 -13 1 -29 8 -36 18 -11 15 -41 10 -31 -5 6 -10 -88 -10 -95 0
-7 11 -59 -14 -59 -28 0 -9 -139 -84 -156 -84 -12 0 -100 -44 -114 -57 -24
-22 -73 -63 -102 -84 -19 -14 -28 -16 -31 -7 -4 9 -6 8 -6 -2 -1 -8 -10 -21
-21 -28 -25 -16 -90 -24 -90 -12 0 6 -10 10 -21 10 -17 0 -19 -3 -10 -14 9
-10 9 -16 1 -21 -6 -4 -9 -14 -6 -22 3 -8 1 -11 -4 -8 -6 3 -10 13 -10 21 0 8
-5 14 -12 14 -6 0 -8 -3 -5 -7 4 -3 2 -12 -4 -20 -9 -10 -8 -13 5 -13 23 0 20
-17 -5 -25 -17 -6 -19 -9 -8 -16 8 -5 10 -9 4 -9 -21 0 -33 16 -40 53 -6 33
-5 36 11 30 11 -4 15 -3 10 5 -3 6 1 15 9 20 13 6 7 11 -27 21 -37 12 -40 15
-25 26 9 7 17 16 17 22 0 8 -57 34 -88 39 -21 4 -29 16 -14 21 17 6 -56 62
-81 63 -10 0 -20 7 -23 15 -4 8 -12 15 -20 15 -9 0 -14 12 -15 33 0 26 -2 28
-9 12 -6 -17 -9 -14 -15 18 -4 21 -13 37 -21 37 -17 0 -18 12 -3 27 8 8 8 13
0 17 -14 9 -15 96 -1 96 6 0 10 -9 10 -20 0 -22 19 -28 21 -7 1 6 1 33 -1 60
-1 29 2 47 9 47 6 0 11 -8 11 -17 1 -16 2 -16 15 1 20 26 20 96 1 96 -8 0 -16
-5 -18 -11 -3 -9 -9 -9 -25 0 -14 7 -85 11 -197 11 l-176 0 0 -495z m450
-1941 c17 -159 17 -156 52 -149 l31 7 -6 -47 c-4 -26 -7 -58 -7 -71 0 -14 -6
-24 -14 -24 -10 0 -14 -29 -19 -122 -3 -68 -11 -139 -18 -158 -14 -40 -37 -70
-53 -69 -6 0 -6 3 2 6 6 2 12 9 12 14 0 6 -4 8 -9 4 -5 -3 -13 0 -17 6 -4 8
-3 9 4 5 7 -4 12 -3 12 3 0 5 -4 13 -10 16 -5 3 -10 44 -10 89 0 106 -10 182
-21 164 -5 -8 -9 6 -9 37 0 28 -6 92 -14 144 -8 51 -12 100 -9 107 3 8 0 14
-6 14 -12 0 -15 48 -4 75 7 21 85 57 96 46 4 -4 12 -48 17 -97z m1709 -311
c45 -34 64 -70 69 -127 5 -66 -20 -115 -72 -140 -119 -56 -247 47 -222 179 8
40 63 101 98 108 40 9 100 -1 127 -20z m1817 -328 c-3 -9 1 -18 8 -21 15 -6
18 -44 4 -44 -4 0 -8 -5 -8 -11 0 -5 4 -8 8 -5 11 7 39 -152 48 -269 4 -49 13
-102 21 -117 19 -39 23 -126 6 -140 -7 -6 -16 -8 -19 -5 -3 3 -13 61 -21 129
-8 68 -25 199 -39 291 -22 149 -24 207 -7 207 3 0 2 -7 -1 -15z m-178 -101
c-4 -3 -2 -19 2 -35 5 -18 5 -27 -1 -24 -5 4 -9 -9 -9 -27 0 -25 3 -29 10 -18
7 11 10 7 10 -18 0 -20 -4 -31 -10 -27 -6 4 -10 -8 -10 -29 0 -21 5 -35 11
-33 6 1 13 -9 15 -22 4 -23 3 -23 -13 -8 -16 13 -20 14 -37 1 -29 -21 -36 -17
-36 17 0 17 4 28 10 24 6 -4 10 8 10 29 0 20 -5 36 -11 36 -5 0 -8 -4 -4 -9 3
-5 1 -12 -5 -16 -6 -4 -10 5 -10 20 0 19 4 26 14 22 9 -4 13 4 14 24 1 25 -2
29 -19 24 -15 -5 -19 -2 -19 19 0 19 5 26 20 26 11 0 20 5 20 11 0 5 4 8 8 5
4 -2 14 -1 22 5 17 10 26 12 18 3z"/>
<path d="M3253 4222 c-9 -6 -1 -19 27 -47 22 -22 40 -42 40 -46 0 -4 -15 -5
-34 -2 -28 4 -35 2 -38 -13 -2 -10 7 -28 20 -41 28 -28 32 -28 32 -3 0 31 20
24 21 -7 2 -61 8 -75 57 -127 29 -30 52 -59 52 -65 0 -6 11 -13 25 -17 19 -5
33 1 60 25 20 17 40 31 46 31 20 0 60 -33 55 -46 -4 -10 5 -14 32 -14 51 0 71
14 54 37 -7 10 -15 26 -18 36 -4 9 -11 17 -16 17 -5 0 -6 4 -3 10 7 11 -39 25
-53 16 -6 -3 -12 1 -16 9 -3 8 -16 20 -28 26 -13 5 -34 26 -48 46 -14 20 -36
48 -50 63 -14 14 -32 36 -40 48 -8 12 -21 22 -30 22 -8 0 -29 9 -47 19 -22 14
-33 16 -36 8 -3 -8 -10 -7 -24 6 -22 19 -23 20 -40 9z"/>
</g>
</svg>
