<?xml version="1.0" standalone="no"?>
<!DOCTYPE svg PUBLIC "-//W3C//DTD SVG 1.1//EN" "http://www.w3.org/Graphics/SVG/1.1/DTD/svg11.dtd" >
<svg xmlns="http://www.w3.org/2000/svg" xmlns:xlink="http://www.w3.org/1999/xlink" version="1.1">
<metadata>
Created by FontForge 20161003 at Thu Jan 26 13:34:12 2017
 By www-data
Copyright (c) 2016 by Rene' Bieder. All rights reserved.
</metadata>
<defs>
<font id="ReneBiederRationalTWTextMediumItalic" horiz-adv-x="660" >
  <font-face 
    font-family="ReneBiederRationalTWTextMediumItalic"
    font-weight="500"
    font-style="italic"
    font-stretch="normal"
    units-per-em="1000"
    panose-1="0 0 6 0 0 0 0 0 0 0"
    ascent="800"
    descent="-200"
    x-height="504"
    cap-height="700"
    bbox="-672 -253 1261 957"
    underline-thickness="50"
    underline-position="-150"
    slope="-12"
    unicode-range="U+0020-FB01"
  />
<missing-glyph 
d="M80 700h500v-700h-500v700zM523 57v586h-386v-586h386zM328 496q-29 0 -46 -17t-18 -47h-71q1 58 38 91t96 33t94 -30t35 -81q0 -43 -26.5 -69t-70.5 -46l-2 -1l-3 -54h-58l-3 88l43 21q28 14 38.5 26t10.5 33q0 25 -15.5 39t-41.5 14zM279 155v78h90v-78h-90z" />
    <glyph glyph-name=".notdef" 
d="M80 700h500v-700h-500v700zM523 57v586h-386v-586h386zM328 496q-29 0 -46 -17t-18 -47h-71q1 58 38 91t96 33t94 -30t35 -81q0 -43 -26.5 -69t-70.5 -46l-2 -1l-3 -54h-58l-3 88l43 21q28 14 38.5 26t10.5 33q0 25 -15.5 39t-41.5 14zM279 155v78h90v-78h-90z" />
    <glyph glyph-name=".null" horiz-adv-x="0" 
 />
    <glyph glyph-name="nonmarkingreturn" horiz-adv-x="333" 
 />
    <glyph glyph-name="space" unicode=" " 
 />
    <glyph glyph-name="exclam" unicode="!" 
d="M277 225l83 475h130l-118 -475h-95zM201 0l29 138h151l-30 -138h-150z" />
    <glyph glyph-name="quotedbl" unicode="&#x22;" 
d="M207 390l37 310h143l-96 -310h-84zM427 390l36 310h143l-96 -310h-83z" />
    <glyph glyph-name="numbersign" unicode="#" 
d="M658 427h-112l-67 -158h97l-19 -91h-117l-76 -178h-105l77 178h-116l-76 -178h-105l76 178h-87l19 91h107l67 158h-92l19 91h112l78 182h105l-78 -182h117l78 182h103l-78 -182h92zM375 269l68 158h-117l-67 -158h116z" />
    <glyph glyph-name="dollar" unicode="$" 
d="M406 384q28 -9 48 -17t44 -22.5t39 -30.5t25 -41t10 -55q0 -83 -67 -133.5t-176 -51.5l-27 -135h-96l31 146q-79 21 -122 80t-42 147h109q0 -97 75 -132l38 180q-77 28 -117.5 63t-40.5 103q0 84 64 135.5t172 51.5l25 128h96l-30 -140q72 -20 112 -71t40 -127h-110
q0 74 -61 105zM251 492q0 -26 15.5 -42.5t49.5 -31.5l33 156h4l2 8q-47 -4 -75.5 -28.5t-28.5 -61.5zM347 124q49 4 79.5 27t30.5 61q0 26 -17 43t-55 32l-26 -125h-5z" />
    <glyph glyph-name="percent" unicode="%" 
d="M243 399q-67 0 -110 39.5t-43 98.5q0 71 52.5 121.5t126.5 50.5q67 0 109.5 -39.5t42.5 -99.5q0 -72 -52.5 -121.5t-125.5 -49.5zM248 473q36 0 61.5 26.5t25.5 65.5q0 30 -19.5 50t-50.5 20q-35 0 -61.5 -26.5t-26.5 -65.5q0 -30 19.5 -50t51.5 -20zM63 145l-26 50
l621 368l28 -47zM434 -11q-67 0 -110 39.5t-43 98.5q0 71 52.5 122t126.5 51q67 0 109.5 -40t42.5 -99q0 -72 -52.5 -122t-125.5 -50zM439 64q36 0 61.5 26t25.5 65q0 30 -19.5 50.5t-50.5 20.5q-35 0 -61.5 -26.5t-26.5 -66.5q0 -30 19.5 -49.5t51.5 -19.5z" />
    <glyph glyph-name="ampersand" unicode="&#x26;" 
d="M617 357q-31 -139 -107 -234l78 -123h-119l-32 52q-85 -63 -183 -63q-95 0 -158.5 56.5t-63.5 141.5q0 80 49.5 129t138.5 86q-50 84 -50 139q0 75 58 122.5t144 47.5q76 0 127.5 -43t51.5 -108q0 -126 -190 -199l94 -149q36 62 56 145h106zM373 624q-41 0 -68 -25.5
t-27 -68.5q0 -40 33 -94q31 12 51 21.5t42 24t32.5 33t10.5 41.5q0 29 -21 48.5t-53 19.5zM271 84q63 0 117 46l-122 198q-124 -48 -124 -133q0 -47 37 -79t92 -32z" />
    <glyph glyph-name="quotesingle" unicode="'" 
d="M353 700h145l-96 -310h-85z" />
    <glyph glyph-name="parenleft" unicode="(" 
d="M298 -117q-137 154 -137 359q0 333 327 535h134q-352 -217 -352 -531q0 -210 156 -363h-128z" />
    <glyph glyph-name="parenright" unicode=")" 
d="M395 777q137 -154 137 -359q0 -333 -327 -535h-134q352 217 352 531q0 210 -156 363h128z" />
    <glyph glyph-name="asterisk" unicode="*" 
d="M569 539h-111l52 -111l-78 -32l-46 124l-93 -95l-58 62l94 80l-102 45l39 75l106 -62l20 123l82 -17l-32 -120l123 13z" />
    <glyph glyph-name="plus" unicode="+" 
d="M607 390l-18 -89h-203l-42 -197h-92l42 197h-202l18 89h203l42 197h92l-42 -197h202z" />
    <glyph glyph-name="comma" unicode="," 
d="M165 -145l60 280h169l-151 -280h-78z" />
    <glyph glyph-name="hyphen" unicode="-" 
d="M195 331h303l-20 -100h-304z" />
    <glyph glyph-name="period" unicode="." 
d="M202 0l30 145h151l-31 -145h-150z" />
    <glyph glyph-name="slash" unicode="/" 
d="M78 0l457 700h101l-456 -700h-102z" />
    <glyph glyph-name="zero" unicode="0" 
d="M378 605q108 0 174.5 -70.5t66.5 -190.5q0 -92 -39 -172.5t-112.5 -131t-164.5 -50.5q-110 0 -176.5 70.5t-66.5 189.5q0 142 90.5 248.5t227.5 106.5zM371 508q-62 0 -107.5 -41.5t-66 -99.5t-20.5 -119q0 -18 1 -27l303 226q-33 61 -110 61zM309 87q62 0 107.5 41
t66 98.5t20.5 119.5q0 12 -2 36l-305 -228q33 -67 113 -67z" />
    <glyph glyph-name="one" unicode="1" 
d="M376 97h204l-21 -97h-536l21 97h218l81 380l-210 -82l26 120l261 76v-1l1 1h61z" />
    <glyph glyph-name="two" unicode="2" 
d="M601 418q0 -24 -4.5 -45.5t-16 -41t-21 -34.5t-31 -32t-33.5 -27t-41 -26t-41 -22.5t-45 -23l-43 -21.5l-92 -48h305l-21 -97h-480l19 84l244 140q5 3 16 9q40 22 61 35.5t50 37t42.5 50t13.5 56.5q0 44 -29 70t-80 26q-55 0 -94 -35.5t-56 -99.5h-117q26 110 98 171
t173 61q100 0 161.5 -50.5t61.5 -136.5z" />
    <glyph glyph-name="three" unicode="3" 
d="M664 590l-20 -92l-253 -212q83 -14 131 -64t48 -123q0 -93 -73.5 -156.5t-183.5 -63.5q-109 0 -180.5 65t-68.5 164h120q-3 -54 34 -92t97 -38q59 0 98 35t39 86q0 47 -34 76.5t-94 29.5h-68l-14 73l253 209h-336l22 103h483z" />
    <glyph glyph-name="four" unicode="4" 
d="M575 121l-21 -97h-108l-31 -145h-115l31 145h-318v66q200 260 292 489h119q-82 -210 -274 -458h202l68 262h103l-56 -262h108z" />
    <glyph glyph-name="five" unicode="5" 
d="M632 490h-349l-52 -199q58 51 142 51q96 0 158 -60t62 -153q0 -105 -78.5 -176.5t-195.5 -71.5q-108 0 -180.5 61t-71.5 159h120q-2 -51 36.5 -86t96.5 -35q65 0 109 43t44 105q0 55 -35.5 89.5t-91.5 34.5q-80 0 -138 -58l-94 41l94 355h446z" />
    <glyph glyph-name="six" unicode="6" 
d="M374 454q94 0 155 -57t61 -151q0 -108 -78 -181.5t-199 -73.5q-112 0 -179.5 71t-67.5 187q0 84 20 157q35 131 119 216t204 85q91 0 156 -50.5t73 -134.5h-119q-7 46 -41 65.5t-77 19.5q-154 0 -213 -252q64 99 186 99zM319 88q68 0 109.5 45t41.5 108q0 56 -34.5 89.5
t-92.5 33.5q-68 0 -112 -43.5t-44 -106.5q0 -55 37 -90.5t95 -35.5z" />
    <glyph glyph-name="seven" unicode="7" 
d="M157 591h519l-19 -89q-281 -227 -364 -611h-133l2 11q76 356 364 585h-392z" />
    <glyph glyph-name="eight" unicode="8" 
d="M624 535q0 -67 -44 -112.5t-118 -58.5q114 -45 114 -155q0 -96 -75.5 -157.5t-191.5 -61.5q-114 0 -183 52.5t-69 137.5q0 84 51.5 138.5t136.5 67.5q-97 40 -97 131q0 87 70.5 140.5t171.5 53.5q99 0 166.5 -47t67.5 -129zM376 414q61 0 94 34.5t33 78.5q0 42 -31 67
t-81 25q-55 0 -90.5 -31t-35.5 -80q0 -41 28.5 -67.5t82.5 -26.5zM306 85q62 0 106 38.5t44 93.5q0 48 -34.5 79.5t-94.5 31.5q-66 0 -106 -37.5t-40 -93.5q0 -47 34.5 -79.5t90.5 -32.5z" />
    <glyph glyph-name="nine" unicode="9" 
d="M367 601q112 0 179.5 -71t67.5 -187q0 -84 -20 -157q-35 -131 -119 -216t-204 -85q-91 0 -156 50.5t-73 134.5h119q7 -46 41 -65.5t77 -19.5q154 0 213 252q-64 -99 -186 -99q-94 0 -155 57t-61 151q0 108 78 181.5t199 73.5zM337 228q68 0 112 43.5t44 106.5
q0 55 -37 90.5t-95 35.5q-68 0 -109.5 -45t-41.5 -108q0 -56 34.5 -89.5t92.5 -33.5z" />
    <glyph glyph-name="colon" unicode=":" 
d="M278 359l30 145h151l-31 -145h-150zM202 0l30 145h151l-31 -145h-150z" />
    <glyph glyph-name="semicolon" unicode=";" 
d="M276 359l30 145h151l-31 -145h-150zM165 -145l60 280h169l-151 -280h-78z" />
    <glyph glyph-name="less" unicode="&#x3c;" 
d="M634 589l-23 -111l-417 -134l358 -142l-22 -101l-446 203l1 5l2 10l13 62l3 13z" />
    <glyph glyph-name="equal" unicode="=" 
d="M132 491h497l-18 -83h-497zM86 276h497l-17 -83h-497z" />
    <glyph glyph-name="greater" unicode="&#x3e;" 
d="M612 371l-13 -62l-3 -13l-531 -195l23 111l417 134l-358 142l22 101l446 -203z" />
    <glyph glyph-name="question" unicode="?" 
d="M405 711q95 0 156.5 -51.5t61.5 -133.5q0 -46 -16 -81t-49.5 -60.5t-65 -42t-82.5 -36.5l-20 -7l-23 -87h-91l24 143l82 36q61 27 93 57t32 77q0 40 -29.5 65.5t-73.5 25.5q-107 0 -137 -114h-115q25 107 92 158t161 51zM199 0l29 138h150l-29 -138h-150z" />
    <glyph glyph-name="at" unicode="@" 
d="M310 -84q-136 0 -215.5 80t-79.5 217q0 179 105.5 299t263.5 120q127 0 200.5 -73.5t73.5 -198.5q0 -107 -52.5 -189.5t-144.5 -82.5q-74 0 -91 69h-4q-11 -29 -40.5 -49t-65.5 -20q-49 0 -77 37.5t-28 101.5q0 86 45.5 153.5t119.5 67.5q66 0 85 -57h2l11 50h103
l-46 -213q-15 -71 25 -71q42 0 69 66t27 136q0 101 -58 159t-159 58q-129 0 -215.5 -102.5t-86.5 -255.5q0 -113 63 -179t172 -66q111 0 209 83l-18 -84q-90 -56 -193 -56zM303 172q39 0 60.5 44t21.5 91q0 65 -52 65q-39 0 -60 -44.5t-21 -91.5q0 -64 51 -64z" />
    <glyph glyph-name="A" unicode="A" 
d="M450 0l-12 148h-254l-75 -148h-123l366 700h147l68 -700h-117zM234 247h196l-28 334z" />
    <glyph glyph-name="B" unicode="B" 
d="M628 530q0 -140 -173 -172q61 -15 93.5 -56t32.5 -97q0 -101 -77.5 -153t-200.5 -52h-271l148 700h259q84 0 136.5 -48.5t52.5 -121.5zM357 403q67 0 106.5 30.5t39.5 84.5q0 38 -26 60.5t-73 22.5h-123l-42 -198h118zM294 99q76 0 122 29.5t46 87.5q0 40 -29.5 66
t-85.5 26h-128l-44 -209h119z" />
    <glyph glyph-name="C" unicode="C" 
d="M614 244q-31 -111 -107.5 -183t-194.5 -72q-113 0 -175 70.5t-62 203.5q0 58 11.5 118t38 120t65 106t97.5 75t130 29q109 0 169 -66t59 -190h-125q5 153 -111 153q-56 0 -99 -37.5t-65.5 -95.5t-33.5 -114.5t-11 -106.5q0 -162 118 -162q62 0 104.5 42.5t62.5 109.5h129
z" />
    <glyph glyph-name="D" unicode="D" 
d="M348 700q131 0 211 -78.5t80 -206.5q0 -181 -113.5 -298t-301.5 -117h-194l147 700h171zM256 104q119 0 188.5 91.5t69.5 220.5q0 82 -47.5 131t-127.5 49h-62l-105 -492h84z" />
    <glyph glyph-name="E" unicode="E" 
d="M642 598h-338l-41 -192h310l-22 -103h-310l-43 -201h339l-22 -102h-459l149 700h459z" />
    <glyph glyph-name="F" unicode="F" 
d="M652 597h-347l-42 -200h325l-22 -103h-325l-62 -294h-121l149 700h467z" />
    <glyph glyph-name="G" unicode="G" 
d="M645 469h-124q2 68 -26.5 103t-82.5 35q-55 0 -98 -36t-67.5 -91.5t-37 -114.5t-12.5 -113q0 -159 123 -159q64 0 106.5 43.5t65.5 137.5h-144l22 102h259l-80 -376h-104l17 82q-60 -93 -175 -93q-104 0 -159 70t-55 201q0 80 21 158t61 144.5t107 107.5t150 41
q106 0 170 -64.5t63 -177.5z" />
    <glyph glyph-name="H" unicode="H" 
d="M562 700h121l-149 -700h-121l64 301h-272l-64 -301h-121l149 700h121l-63 -295h272z" />
    <glyph glyph-name="I" unicode="I" 
d="M652 603h-186l-107 -506h186l-21 -97h-495l21 97h188l107 506h-188l21 97h495z" />
    <glyph glyph-name="J" unicode="J" 
d="M650 700l-104 -499q-20 -92 -99.5 -150t-179.5 -58q-115 0 -224 71l27 125q112 -93 196 -93q57 0 103.5 35.5t57.5 89.5l79 375h-311l23 104h432z" />
    <glyph glyph-name="K" unicode="K" 
d="M707 700l-244 -344l119 -356h-131l-92 302h-135l-64 -302h-121l149 700h121l-63 -294h121l207 294h133z" />
    <glyph glyph-name="L" unicode="L" 
d="M228 103h341l-22 -103h-462l149 700h121z" />
    <glyph glyph-name="M" unicode="M" 
d="M568 700h114l-149 -700h-120l103 482l-173 -232h-27l-74 233l-102 -483h-120l149 700h102l89 -278z" />
    <glyph glyph-name="N" unicode="N" 
d="M551 700h120l-149 -700h-109l-158 487l-104 -487h-119l149 700h111l155 -489z" />
    <glyph glyph-name="O" unicode="O" 
d="M299 -11q-110 0 -173.5 73.5t-63.5 200.5q0 58 11.5 118t38 120t65 106t97.5 75t130 29q109 0 172 -73.5t63 -200.5q0 -58 -11.5 -117.5t-37.5 -119.5t-64 -106.5t-97 -75.5t-130 -29zM305 92q45 0 82 25t60 63.5t38.5 87.5t22 93.5t6.5 83.5q0 75 -31.5 119t-86.5 44
q-56 0 -99 -37.5t-65.5 -95.5t-33.5 -114.5t-11 -106.5q0 -75 31.5 -118.5t86.5 -43.5z" />
    <glyph glyph-name="P" unicode="P" 
d="M439 700q97 0 159 -55.5t62 -139.5q0 -105 -81.5 -164t-206.5 -59h-147l-59 -282h-121l145 700h249zM393 382q66 0 106.5 32.5t40.5 85.5q0 42 -32.5 70.5t-82.5 28.5h-134l-45 -217h147z" />
    <glyph glyph-name="Q" unicode="Q" 
d="M639 437q0 -86 -26 -176t-78 -156l76 -81l-81 -72l-73 81q-72 -44 -158 -44q-110 0 -173.5 73.5t-63.5 200.5q0 58 11.5 118t38 120t65 106t97.5 75t130 29q109 0 172 -73.5t63 -200.5zM305 92q44 0 79 23l-55 61l75 69l49 -53q31 54 46 124t15 129q0 75 -31.5 119
t-86.5 44q-56 0 -99 -37.5t-65.5 -95.5t-33.5 -114.5t-11 -106.5q0 -75 31.5 -118.5t86.5 -43.5z" />
    <glyph glyph-name="R" unicode="R" 
d="M648 521q0 -78 -52.5 -134t-138.5 -77l92 -310h-131l-74 301h-119l-62 -301h-122l146 700h247q95 0 154.5 -49t59.5 -130zM390 400q59 0 99.5 32t40.5 80q0 39 -31 63.5t-78 24.5h-133l-42 -200h144z" />
    <glyph glyph-name="S" unicode="S" 
d="M176 246q0 -75 40.5 -117t111.5 -42q63 0 97 32t34 78q0 37 -27 58.5t-97 48.5q-110 41 -157 81t-47 116q0 92 64.5 151.5t185.5 59.5q118 0 181 -60.5t63 -175.5h-121q0 138 -126 138q-62 0 -93.5 -29.5t-31.5 -73.5q0 -21 6.5 -35t29 -27.5t39.5 -21t64 -25.5
q43 -16 69 -29t57.5 -36t47 -56.5t15.5 -77.5q0 -91 -67.5 -153t-192.5 -62q-124 0 -195.5 66t-71.5 192h122z" />
    <glyph glyph-name="T" unicode="T" 
d="M715 700l-22 -104h-230l-127 -596h-121l127 596h-229l22 104h580z" />
    <glyph glyph-name="U" unicode="U" 
d="M688 700l-102 -482q-22 -108 -98.5 -168.5t-185.5 -60.5q-129 0 -192.5 81t-36.5 208l89 422h123l-93 -437q-16 -76 16.5 -122.5t101.5 -46.5q60 0 101.5 38t55.5 105l98 463h123z" />
    <glyph glyph-name="V" unicode="V" 
d="M578 700h138l-366 -700h-147l-68 700h126l37 -572z" />
    <glyph glyph-name="W" unicode="W" 
d="M603 700h121l-236 -700h-112l-7 423l-185 -423h-119l62 700h121l-67 -511l169 384h96l6 -384z" />
    <glyph glyph-name="X" unicode="X" 
d="M707 700l-277 -351l132 -349h-137l-86 264l-199 -264h-149l281 349l-128 351h136l82 -268l196 268h149z" />
    <glyph glyph-name="Y" unicode="Y" 
d="M718 700l-326 -443l-55 -257h-121l54 252l-137 448h131l83 -336l225 336h146z" />
    <glyph glyph-name="Z" unicode="Z" 
d="M687 700l-21 -93l-486 -505h385l-22 -102h-533l19 94l491 504h-383l22 102h528z" />
    <glyph glyph-name="bracketleft" unicode="[" 
d="M610 692h-161l-152 -719h161l-19 -88h-273l190 895h273z" />
    <glyph glyph-name="backslash" unicode="\" 
d="M489 0h-81l-158 700h80z" />
    <glyph glyph-name="bracketright" unicode="]" 
d="M528 780l-190 -895h-273l19 88h161l152 719h-161l19 88h273z" />
    <glyph glyph-name="asciicircum" unicode="^" 
d="M382 724h97l100 -299h-99l-62 209l-151 -209h-112z" />
    <glyph glyph-name="underscore" unicode="_" 
d="M-2 -89h519l-16 -79h-520z" />
    <glyph glyph-name="grave" unicode="`" 
d="M446 580h-91l-105 150h153z" />
    <glyph glyph-name="a" unicode="a" 
d="M271 -8q-94 0 -155 63.5t-61 164.5q0 119 81 206t200 87q129 0 164 -101h1l19 92h111l-107 -504h-110l15 73h-2q-34 -42 -69.5 -61.5t-86.5 -19.5zM304 85q60 0 101.5 39t57.5 110q7 31 7 54q0 58 -34.5 94t-93.5 36q-76 0 -125.5 -57.5t-49.5 -132.5q0 -64 38 -103.5
t99 -39.5z" />
    <glyph glyph-name="b" unicode="b" 
d="M389 512q94 0 155 -63.5t61 -164.5q0 -119 -81 -206t-200 -87q-129 0 -164 101h-1l-19 -92h-111l107 504l41 196h110l-41 -196l-15 -73h2q34 42 69.5 61.5t86.5 19.5zM318 86q76 0 125.5 57.5t49.5 132.5q0 64 -38 103.5t-99 39.5q-60 0 -101.5 -39t-57.5 -110
q-7 -31 -7 -54q0 -58 34.5 -94t93.5 -36z" />
    <glyph glyph-name="c" unicode="c" 
d="M577 194q-19 -89 -91.5 -147t-171.5 -58q-105 0 -169 65t-64 170q0 120 80.5 205t203.5 85q95 0 155.5 -53t66.5 -141h-114q-4 46 -33 72.5t-78 26.5q-74 0 -121 -58.5t-47 -136.5q0 -63 32.5 -101t90.5 -38q53 0 91 30.5t51 78.5h118z" />
    <glyph glyph-name="d" unicode="d" 
d="M561 700h111l-41 -196l-107 -504h-110l15 73h-2q-34 -42 -69.5 -61.5t-86.5 -19.5q-94 0 -155 63.5t-61 164.5q0 119 81 206t200 87q129 0 164 -101h1l19 92zM463 234q7 31 7 54q0 58 -34.5 94t-93.5 36q-76 0 -125.5 -57.5t-49.5 -132.5q0 -64 38 -103.5t99 -39.5
q60 0 101.5 39t57.5 110z" />
    <glyph glyph-name="e" unicode="e" 
d="M190 226v-3q0 -66 31.5 -103t89.5 -37q85 0 129 78h117q-35 -78 -99.5 -125t-153.5 -47q-104 0 -166 63t-62 166q0 121 82 209t204 88q101 0 161 -62t60 -162q0 -36 -7 -65h-386zM353 424q-54 0 -93 -33.5t-57 -86.5h269q-4 54 -34.5 87t-84.5 33z" />
    <glyph glyph-name="f" unicode="f" 
d="M379 506v-2h281l-20 -95h-282l-66 -314h214l-20 -95h-463l21 95h137l67 314h-171l20 95h171l1 3q21 96 91.5 152.5t191.5 56.5q49 0 120 -13l-20 -96q-79 17 -124 17q-71 0 -104 -31t-45 -87z" />
    <glyph glyph-name="g" unicode="g" 
d="M265 -211q-101 0 -170 52t-73 138h113q5 -45 40.5 -72.5t89.5 -27.5q53 0 93.5 28.5t50.5 74.5l21 96h-1q-56 -64 -157 -64q-95 0 -151 58t-56 158q0 117 72 201t187 84q66 0 112.5 -28t63.5 -72h1l19 89h111l-112 -532q-17 -84 -87 -133.5t-167 -49.5zM306 107
q72 0 118.5 54t46.5 128q0 58 -36 93t-96 35q-73 0 -116.5 -51t-43.5 -121q0 -61 34 -99.5t93 -38.5z" />
    <glyph glyph-name="h" unicode="h" 
d="M415 515q94 0 136 -63.5t20 -166.5l-60 -285h-111l59 280q13 63 -11.5 98t-80.5 35q-58 0 -96 -37t-52 -103l-58 -273h-111l106 504h1l41 196h110l-41 -196l-15 -71q60 82 163 82z" />
    <glyph glyph-name="i" unicode="i" 
d="M476 717l-28 -133h-140l28 133h140zM463 87q55 0 125 31l-23 -110q-73 -17 -118 -17q-106 0 -166 63t-40 152l44 203h-200l20 95h311l-65 -305q-10 -47 23 -79.5t89 -32.5z" />
    <glyph glyph-name="j" unicode="j" 
d="M478 717h141l-28 -133h-141zM560 504l-109 -512q-18 -87 -93 -146t-188 -59q-55 0 -152 33l22 106q57 -25 86 -34t62 -9q61 0 102 32.5t53 85.5l87 408h-266l20 95h376z" />
    <glyph glyph-name="k" unicode="k" 
d="M661 504l-194 -222l106 -282h-126l-75 230h-160l-49 -230h-110l149 700h110l-80 -374h142l148 178h139z" />
    <glyph glyph-name="l" unicode="l" 
d="M450 85q55 0 125 31l-23 -110q-73 -17 -118 -17q-106 0 -166 63t-40 152l85 401h-186l20 95h297l-106 -503q-9 -47 23.5 -79.5t88.5 -32.5z" />
    <glyph glyph-name="m" unicode="m" 
d="M536 512q59 0 85.5 -39.5t11.5 -106.5l-79 -365h-102l71 338q17 79 -39 79q-34 0 -54 -27.5t-33 -91.5l-63 -298h-104l71 338q17 79 -41 79q-33 0 -51.5 -24.5t-32.5 -81.5l-65 -311h-106l105 503h106l-11 -51q41 59 108 59q83 0 100 -72q47 72 123 72z" />
    <glyph glyph-name="n" unicode="n" 
d="M412 515q94 0 136 -63.5t20 -166.5l-60 -285h-111l59 280q13 63 -11.5 98t-80.5 35q-58 0 -96 -37t-52 -103l-58 -273h-111l106 504h111l-15 -71q60 82 163 82z" />
    <glyph glyph-name="o" unicode="o" 
d="M304 -11q-105 0 -171 65.5t-66 169.5q0 119 82.5 204.5t205.5 85.5q105 0 171.5 -65t66.5 -169q0 -119 -83 -205t-206 -86zM307 85q76 0 124.5 59t48.5 136q0 62 -34.5 100.5t-93.5 38.5q-75 0 -123.5 -58.5t-48.5 -135.5q0 -63 34 -101.5t93 -38.5z" />
    <glyph glyph-name="p" unicode="p" 
d="M389 512q94 0 155 -63.5t61 -164.5q0 -119 -81 -206t-200 -87q-129 0 -164 101h-1l-19 -92l-41 -196h-111l41 196l107 504h110l-15 -73h2q34 42 69.5 61.5t86.5 19.5zM318 86q76 0 125.5 57.5t49.5 132.5q0 64 -38 103.5t-99 39.5q-60 0 -101.5 -39t-57.5 -110
q-7 -31 -7 -54q0 -58 34.5 -94t93.5 -36z" />
    <glyph glyph-name="q" unicode="q" 
d="M520 504h111l-107 -504l-41 -196h-110l41 196l15 73h-2q-34 -42 -69.5 -61.5t-86.5 -19.5q-94 0 -155 63.5t-61 164.5q0 119 81 206t200 87q129 0 164 -101h1zM304 85q60 0 101.5 39t57.5 110q7 31 7 54q0 58 -34.5 94t-93.5 36q-76 0 -125.5 -57.5t-49.5 -132.5
q0 -64 38 -103.5t99 -39.5z" />
    <glyph glyph-name="r" unicode="r" 
d="M372 403q41 57 108.5 83t172.5 26l-24 -114q-65 4 -112 -1t-78 -17.5t-52 -38t-33 -54.5t-23 -73l-25 -119h197l-20 -95h-436l20 95h129l67 314h-130l21 95h239z" />
    <glyph glyph-name="s" unicode="s" 
d="M311 -10q-105 0 -172 48t-63 140h112q-1 -49 35 -74.5t95 -25.5q50 0 79 17.5t29 48.5q0 41 -59 57l-113 29q-124 32 -124 127q0 72 60.5 114.5t156.5 42.5q61 0 111 -17.5t83 -55.5t34 -92h-110q-3 41 -38 60t-82 19q-46 0 -74.5 -17t-28.5 -46q0 -19 15.5 -30.5
t48.5 -20.5l105 -29q64 -18 96 -49t32 -81q0 -73 -62.5 -119t-165.5 -46z" />
    <glyph glyph-name="t" unicode="t" 
d="M644 409h-304l-45 -211q-11 -52 16.5 -82t82.5 -30q38 0 74 9.5t97 40.5l-23 -113q-13 -5 -25.5 -9.5t-22 -7.5t-20.5 -6t-18 -4.5t-17 -2.5t-14.5 -1.5t-14.5 -1t-12.5 -0.5h-13h-11.5q-102 0 -155.5 58t-32.5 152l44 209h-163l21 95h55q64 0 91 23.5t41 90.5l10 44h109
l-33 -158h304z" />
    <glyph glyph-name="u" unicode="u" 
d="M613 504l-106 -504h-111l15 71q-60 -82 -163 -82q-94 0 -136 63.5t-20 166.5l60 285h111l-59 -280q-13 -63 11.5 -98t80.5 -35q58 0 96 37t52 103l58 273h111z" />
    <glyph glyph-name="v" unicode="v" 
d="M526 504h135l-326 -504h-117l-112 504h120l70 -380z" />
    <glyph glyph-name="w" unicode="w" 
d="M558 504h114l-189 -504h-114l-26 308l-157 -308h-116l25 504h111l-38 -370l150 287h93l29 -287z" />
    <glyph glyph-name="x" unicode="x" 
d="M633 504l-219 -251l116 -253h-122l-82 192l-164 -192h-139l224 253l-113 251h124l79 -191l159 191h137z" />
    <glyph glyph-name="y" unicode="y" 
d="M617 504l-108 -513q-21 -96 -90.5 -149t-167.5 -53q-100 0 -166 52t-70 138h113q5 -45 37.5 -72.5t85.5 -27.5q55 0 95.5 31t52.5 85l21 99q-64 -82 -172 -77q-94 3 -138 68t-23 163l54 256h113l-52 -248q-12 -60 13.5 -99t82.5 -40q57 -2 99 35t56 103l53 249h111z" />
    <glyph glyph-name="z" unicode="z" 
d="M613 504l-18 -83l-377 -329h316l-20 -92h-473l17 81l385 331h-316l21 92h465z" />
    <glyph glyph-name="braceleft" unicode="{" 
d="M537 780h102l-19 -90h-98q-28 0 -48.5 -16t-26.5 -44l-27 -127q-17 -81 -54 -119.5t-100 -51.5q58 -12 78.5 -50.5t2.5 -120.5l-27 -126q-6 -27 8 -43.5t42 -16.5h98l-19 -90h-102q-78 0 -116.5 40t-23.5 108l27 128q16 76 -7 102t-71 26h-11l18 87h11q48 0 82.5 25.5
t50.5 101.5l27 129q15 68 70 108t133 40z" />
    <glyph glyph-name="bar" unicode="|" 
d="M395 780h94l-190 -895h-94z" />
    <glyph glyph-name="braceright" unicode="}" 
d="M538 376h11l-18 -87h-11q-48 0 -82.5 -25.5t-50.5 -101.5l-27 -129q-15 -68 -70 -108t-133 -40h-102l19 90h98q28 0 48.5 16t26.5 44l27 127q17 81 54 119.5t100 51.5q-58 12 -78.5 50.5t-2.5 120.5l27 126q6 27 -8 43.5t-42 16.5h-98l19 90h102q78 0 116.5 -40
t23.5 -108l-27 -128q-16 -76 7 -102t71 -26z" />
    <glyph glyph-name="asciitilde" unicode="~" 
d="M112 245q16 75 59 112t93 37q37 0 96 -27t79 -27q40 0 51 55h87q-16 -76 -56.5 -112.5t-90.5 -36.5q-36 0 -94.5 27t-78.5 27q-21 0 -37 -14.5t-21 -40.5h-87z" />
    <glyph glyph-name="exclamdown" unicode="&#xa1;" 
d="M481 610l-29 -138h-151l30 138h150zM405 385l-83 -475h-130l118 475h95z" />
    <glyph glyph-name="cent" unicode="&#xa2;" 
d="M337 82q88 9 130 104h108q-34 -99 -101.5 -148.5t-156.5 -49.5l-22 -105h-87l25 117q-72 22 -114.5 81t-42.5 144q0 113 76.5 197.5t190.5 93.5l22 105h87l-24 -110q70 -15 115.5 -62.5t52.5 -118.5h-109q-12 67 -80 87l-22 -103zM186 219q2 -89 68 -123l69 322
q-63 -16 -101 -73t-36 -126z" />
    <glyph glyph-name="sterling" unicode="&#xa3;" 
d="M291 287q0 -58 -33 -101.5t-95 -89.5h385l-21 -96h-504l4 73q88 84 110 114q40 52 41 101h-127l19 87h90q-21 65 -21 107q0 98 72.5 164t184.5 66q99 0 164 -53t71 -148h-104q-7 50 -41.5 77.5t-88.5 27.5q-69 0 -108.5 -43t-39.5 -102q0 -33 23 -96h250l-19 -87h-212v-1
z" />
    <glyph glyph-name="currency" unicode="&#xa4;" 
d="M575 488q29 -52 29 -116q0 -102 -70 -187l59 -73l-64 -52l-56 70q-70 -48 -152 -48q-97 0 -162 62l-111 -89l-51 64l114 92q-21 50 -21 101q0 115 82 200l-68 84l63 51l68 -84q64 39 139 39q87 0 149 -51l127 103l52 -64zM177 319q0 -66 41.5 -110t109.5 -44
q78 0 133.5 61.5t55.5 139.5q0 65 -42 109t-110 44q-78 0 -133 -60.5t-55 -139.5z" />
    <glyph glyph-name="yen" unicode="&#xa5;" 
d="M717 700l-266 -361h149l-15 -66h-183l-14 -19l-10 -51h192l-14 -67h-192l-29 -136h-115l29 136h-195l14 67h195l10 50l-6 20h-184l15 66h148l-112 361h124l87 -346l236 346h136z" />
    <glyph glyph-name="brokenbar" unicode="&#xa6;" 
d="M395 780h94l-77 -360h-93zM281 245h94l-76 -360h-94z" />
    <glyph glyph-name="section" unicode="&#xa7;" 
d="M410 471q31 -10 47 -16.5t41 -20t38 -27.5t23.5 -36.5t10.5 -50.5q0 -51 -30 -91.5t-81 -64.5q41 -36 41 -93q0 -71 -56 -118t-156 -47q-95 0 -158 45t-63 128h108q0 -44 32 -66.5t80 -22.5q46 0 72 21.5t26 51.5q0 29 -25.5 45.5t-89.5 38.5q-27 10 -38.5 14t-35 14.5
t-35 20.5t-25.5 25t-20 34.5t-6 42.5q0 51 30.5 92t82.5 65q-38 36 -38 92q0 71 56.5 118.5t151.5 47.5q92 0 152.5 -45.5t60.5 -128.5h-109q0 44 -29.5 66.5t-73.5 22.5q-45 0 -70.5 -22t-25.5 -53q0 -27 24.5 -43.5t87.5 -38.5zM398 202q62 47 62 103q0 28 -21.5 45
t-74.5 36q-55 19 -81 31q-62 -47 -62 -103q0 -31 21.5 -47t73.5 -34q5 -2 35.5 -13t46.5 -18z" />
    <glyph glyph-name="dieresis" unicode="&#xa8;" 
d="M222 586l28 131h137l-27 -131h-138zM443 586l28 131h137l-27 -131h-138z" />
    <glyph glyph-name="copyright" unicode="&#xa9;" 
d="M303 -11q-123 0 -195 83t-72 215q0 107 45 204t128.5 158.5t184.5 61.5q123 0 198 -83t75 -214q0 -107 -46 -204.5t-131 -159t-187 -61.5zM308 42q87 0 157.5 55t107.5 139t37 176q0 111 -59.5 178.5t-161.5 67.5q-86 0 -155 -54t-105 -137.5t-36 -177.5
q0 -112 56.5 -179.5t158.5 -67.5zM440 410q-1 32 -19 51.5t-50 19.5q-50 0 -81 -54.5t-31 -115.5q0 -42 19.5 -67t55.5 -25q59 0 87 78h90q-24 -73 -73 -114.5t-109 -41.5q-71 0 -115 47.5t-44 122.5q0 98 59.5 172t148.5 74q66 0 107.5 -41t43.5 -106h-89z" />
    <glyph glyph-name="ordfeminine" unicode="&#xaa;" 
d="M627 700l-82 -394h-96l9 42h-2q-54 -51 -121 -51q-76 0 -126 51.5t-50 132.5q0 93 64 160.5t158 67.5q98 0 136 -72l1 1l13 62h96zM389 629q-57 0 -95 -43.5t-38 -99.5q0 -49 30 -80t78 -31q56 0 93 42t37 100q0 51 -29.5 81.5t-75.5 30.5zM132 218h393l-18 -87h-393z
" />
    <glyph glyph-name="guillemotleft" unicode="&#xab;" 
d="M218 252l81 -169h-119l-88 178l163 178h130zM427 252l91 -169h-129l-89 178l164 178h140z" />
    <glyph glyph-name="registered" unicode="&#xae;" 
d="M405 718q94 0 156 -60t62 -153q0 -110 -79.5 -190.5t-190.5 -80.5q-94 0 -156 60.5t-62 153.5q0 109 80 189.5t190 80.5zM358 278q91 0 155.5 66.5t64.5 154.5q0 76 -50.5 126t-127.5 50q-90 0 -155 -66t-65 -156q0 -76 50.5 -125.5t127.5 -49.5zM422 606q32 0 54 -19.5
t22 -48.5q0 -54 -59 -73l36 -109h-61l-26 101h-57l-21 -101h-56l53 250h115zM401 502q19 0 32 8t13 23q0 12 -8.5 20t-21.5 8h-63l-13 -59h61z" />
    <glyph glyph-name="macron" unicode="&#xaf;" 
d="M285 697h280l-18 -82h-280z" />
    <glyph glyph-name="degree" unicode="&#xb0;" 
d="M415 740q64 0 108.5 -42t44.5 -106q0 -74 -55.5 -128.5t-129.5 -54.5q-65 0 -109 42.5t-44 106.5q0 74 55.5 128t129.5 54zM409 665q-40 0 -68 -29.5t-28 -73.5q0 -33 21.5 -55.5t55.5 -22.5q39 0 67.5 30t28.5 74q0 33 -21.5 55t-55.5 22z" />
    <glyph glyph-name="plusminus" unicode="&#xb1;" 
d="M421 458h201l-19 -88h-201l-33 -153h-92l33 153h-204l19 88h203l34 159h93zM44 75l18 89h497l-18 -89h-497z" />
    <glyph glyph-name="uni00B2" unicode="&#xb2;" 
d="M401 440l-63 -36h164l-14 -67h-287l10 50l161 111q27 19 39.5 29t27.5 30t15 40t-13 32t-36 12q-55 0 -72 -68h-82q32 135 156 135q61 0 96 -29.5t35 -79.5q0 -28 -10 -51t-32.5 -43t-41.5 -32.5t-53 -32.5z" />
    <glyph glyph-name="uni00B3" unicode="&#xb3;" 
d="M562 700l-14 -65l-127 -85q42 -8 67 -35.5t25 -68.5q0 -51 -41 -85t-102 -34q-65 0 -104 37.5t-37 93.5h79q0 -28 17.5 -46.5t45.5 -18.5q26 0 44.5 16t18.5 39q0 20 -15 34t-41 14h-40l-14 49l121 86h-167l15 69h269z" />
    <glyph glyph-name="acute" unicode="&#xb4;" 
d="M305 580l115 150h155l-168 -150h-102z" />
    <glyph glyph-name="paragraph" unicode="&#xb6;" 
d="M378 0h-94l61 285h-50q-87 0 -139 46.5t-52 120.5q0 103 83.5 175.5t200.5 72.5h139zM577 700h78l-149 -700h-78z" />
    <glyph glyph-name="periodcentered" unicode="&#xb7;" 
d="M255 248l30 145h151l-31 -145h-150z" />
    <glyph glyph-name="cedilla" unicode="&#xb8;" 
d="M193 -134q-2 -19 8.5 -32t30.5 -13q17 0 28 9.5t11 24.5q0 16 -12 26t-31 10h-31l-10 35l45 74h56l-26 -61h3q35 0 61.5 -24.5t26.5 -61.5q0 -43 -34.5 -71.5t-85.5 -28.5q-53 0 -86 29t-34 75z" />
    <glyph glyph-name="uni00B9" unicode="&#xb9;" 
d="M413 402h103l-15 -67h-300l14 67h111l47 219l-125 -53l19 90l144 42h66z" />
    <glyph glyph-name="ordmasculine" unicode="&#xba;" 
d="M399 707q88 0 144.5 -54t56.5 -134q0 -90 -69.5 -156t-164.5 -66q-88 0 -144.5 54t-56.5 134q0 91 69 156.5t165 65.5zM395 623q-54 0 -92.5 -39.5t-38.5 -93.5q0 -47 29.5 -78t76.5 -31q53 0 91.5 40t38.5 95q0 46 -29 76.5t-76 30.5zM130 218h386l-18 -87h-386z" />
    <glyph glyph-name="guillemotright" unicode="&#xbb;" 
d="M237 270l-91 169h129l89 -178l-164 -178h-140zM446 270l-81 169h119l88 -178l-163 -178h-130z" />
    <glyph glyph-name="onequarter" unicode="&#xbc;" 
d="M715 664l-238 -232l-40 36l219 246zM48 335l14 67h111l47 219l-125 -53l19 90l144 42h66l-64 -298h103l-15 -67h-300zM592 268l-27 -127h56l-15 -66h-55l-16 -75h-79l16 75h-176l-2 52q96 130 134 238h91q-43 -107 -129 -224h97l34 127h71zM1 39l237 232l41 -36
l-220 -246z" />
    <glyph glyph-name="onehalf" unicode="&#xbd;" 
d="M715 664l-238 -232l-40 36l219 246zM48 335l14 67h111l47 219l-125 -53l19 90l144 42h66l-64 -298h103l-15 -67h-300zM633 262q0 -28 -10 -51t-32.5 -43t-41.5 -32.5t-53 -32.5l-63 -36h164l-14 -67h-287l10 50l161 111q27 19 39.5 29t27.5 30t15 40t-13 32t-36 12
q-55 0 -72 -68h-82q32 135 156 135q61 0 96 -29.5t35 -79.5zM1 39l237 232l41 -36l-220 -246z" />
    <glyph glyph-name="threequarters" unicode="&#xbe;" 
d="M708 664l-238 -232l-40 36l219 246zM213 327q-65 0 -104 37.5t-37 93.5h79q0 -28 17.5 -46.5t45.5 -18.5q26 0 44.5 16t18.5 39q0 20 -15 34t-41 14h-40l-14 49l121 86h-167l15 69h269l-14 -65l-127 -85q42 -8 67 -35.5t25 -68.5q0 -51 -41 -85t-102 -34zM588 268
l-27 -127h56l-15 -66h-55l-16 -75h-79l16 75h-176l-2 52q96 130 134 238h91q-43 -107 -129 -224h97l34 127h71zM-6 39l237 232l41 -36l-220 -246z" />
    <glyph glyph-name="questiondown" unicode="&#xbf;" 
d="M485 615l-29 -138h-150l29 138h150zM417 113h115q-25 -107 -92 -158t-161 -51q-95 0 -156.5 51.5t-61.5 133.5q0 46 16 81t49.5 60.5t65 42t82.5 36.5l20 7l23 87h91l-24 -143l-82 -36q-61 -27 -93 -57t-32 -77q0 -40 29.5 -65.5t73.5 -25.5q107 0 137 114z" />
    <glyph glyph-name="Agrave" unicode="&#xc0;" 
d="M478 784h-94l-99 156h150zM450 0l-12 148h-254l-75 -148h-123l366 700h147l68 -700h-117zM234 247h196l-28 334z" />
    <glyph glyph-name="Aacute" unicode="&#xc1;" 
d="M671 940l-175 -156h-102l110 156h167zM499 700l68 -700h-117l-12 148h-254l-75 -148h-123l366 700h147zM234 247h196l-28 334z" />
    <glyph glyph-name="Acircumflex" unicode="&#xc2;" 
d="M465 872l-92 -102h-105l142 170h132l69 -170h-98zM499 700l68 -700h-117l-12 148h-254l-75 -148h-123l366 700h147zM234 247h196l-28 334z" />
    <glyph glyph-name="Atilde" unicode="&#xc3;" 
d="M572 913h87q-13 -62 -50 -94t-82 -32q-30 0 -51.5 13.5t-37.5 27.5t-32 14q-34 0 -47 -45h-86q15 64 51 95t81 31q37 0 70 -27t51 -27q34 0 46 44zM499 700l68 -700h-117l-12 148h-254l-75 -148h-123l366 700h147zM234 247h196l-28 334z" />
    <glyph glyph-name="Adieresis" unicode="&#xc4;" 
d="M423 927l-27 -131h-138l28 131h137zM525 927h137l-27 -131h-138zM499 700l68 -700h-117l-12 148h-254l-75 -148h-123l366 700h147zM234 247h196l-28 334z" />
    <glyph glyph-name="Aring" unicode="&#xc5;" 
d="M451 746q-44 0 -73.5 27.5t-29.5 68.5q0 49 36.5 82t84.5 33q44 0 74 -27t30 -68q0 -50 -37 -83t-85 -33zM465 901q-21 0 -36.5 -16t-15.5 -40q0 -18 11.5 -30.5t30.5 -12.5q21 0 37 16t16 40q0 19 -12 31t-31 12zM499 700l68 -700h-117l-12 148h-254l-75 -148h-123
l366 700h147zM234 247h196l-28 334z" />
    <glyph glyph-name="AE" unicode="&#xc6;" 
d="M696 596h-168l-40 -190h143l-22 -104h-143l-42 -198h168l-23 -104h-277l32 151h-134l-79 -151h-125l396 700h336zM241 248h104l70 331z" />
    <glyph glyph-name="Ccedilla" unicode="&#xc7;" 
d="M645 455h-125q5 153 -111 153q-56 0 -99 -37.5t-65.5 -95.5t-33.5 -114.5t-11 -106.5q0 -162 118 -162q62 0 104.5 42.5t62.5 109.5h129q-31 -111 -107.5 -183t-194.5 -72h-9l-21 -50h3q35 0 61.5 -24.5t26.5 -61.5q0 -43 -34.5 -71.5t-85.5 -28.5q-53 0 -86 29t-34 75
l80 9q-2 -19 8.5 -32t30.5 -13q17 0 28 9.5t11 24.5q0 16 -12 26t-31 10h-31l-10 35l42 69q-83 18 -128.5 86.5t-45.5 181.5q0 58 11.5 118t38 120t65 106t97.5 75t130 29q109 0 169 -66t59 -190z" />
    <glyph glyph-name="Egrave" unicode="&#xc8;" 
d="M533 784h-94l-99 156h150zM642 598h-338l-41 -192h310l-22 -103h-310l-43 -201h339l-22 -102h-459l149 700h459z" />
    <glyph glyph-name="Eacute" unicode="&#xc9;" 
d="M398 784l110 156h167l-175 -156h-102zM642 598h-338l-41 -192h310l-22 -103h-310l-43 -201h339l-22 -102h-459l149 700h459z" />
    <glyph glyph-name="Ecircumflex" unicode="&#xca;" 
d="M615 770h-98l-48 102l-92 -102h-105l142 170h132zM642 598h-338l-41 -192h310l-22 -103h-310l-43 -201h339l-22 -102h-459l149 700h459z" />
    <glyph glyph-name="Edieresis" unicode="&#xcb;" 
d="M262 796l28 131h137l-27 -131h-138zM501 796l28 131h137l-27 -131h-138zM642 598h-338l-41 -192h310l-22 -103h-310l-43 -201h339l-22 -102h-459l149 700h459z" />
    <glyph glyph-name="Igrave" unicode="&#xcc;" 
d="M496 785h-94l-99 156h150zM652 603h-186l-107 -506h186l-21 -97h-495l21 97h188l107 506h-188l21 97h495z" />
    <glyph glyph-name="Iacute" unicode="&#xcd;" 
d="M668 941l-175 -156h-102l110 156h167zM652 603h-186l-107 -506h186l-21 -97h-495l21 97h188l107 506h-188l21 97h495z" />
    <glyph glyph-name="Icircumflex" unicode="&#xce;" 
d="M465 872l-92 -102h-105l142 170h132l69 -170h-98zM652 603h-186l-107 -506h186l-21 -97h-495l21 97h188l107 506h-188l21 97h495z" />
    <glyph glyph-name="Idieresis" unicode="&#xcf;" 
d="M423 927l-27 -131h-138l28 131h137zM662 927l-27 -131h-138l28 131h137zM652 603h-186l-107 -506h186l-21 -97h-495l21 97h188l107 506h-188l21 97h495z" />
    <glyph glyph-name="Eth" unicode="&#xd0;" 
d="M364 700q131 0 211 -78.5t80 -206.5q0 -181 -113.5 -298t-301.5 -117h-194l66 315h-60l19 87h59l63 298h171zM272 104q119 0 188.5 91.5t69.5 220.5q0 82 -47.5 131t-127.5 49h-62l-41 -194h136l-19 -87h-136l-45 -211h84z" />
    <glyph glyph-name="Ntilde" unicode="&#xd1;" 
d="M398 842q-34 0 -47 -45h-86q15 64 51 95t81 31q37 0 70 -27t51 -27q34 0 46 44h87q-13 -62 -50 -94t-82 -32q-30 0 -51.5 13.5t-37.5 27.5t-32 14zM551 700h120l-149 -700h-109l-158 487l-104 -487h-119l149 700h111l155 -489z" />
    <glyph glyph-name="Ograve" unicode="&#xd2;" 
d="M487 784h-94l-99 156h150zM299 -11q-110 0 -173.5 73.5t-63.5 200.5q0 58 11.5 118t38 120t65 106t97.5 75t130 29q109 0 172 -73.5t63 -200.5q0 -58 -11.5 -117.5t-37.5 -119.5t-64 -106.5t-97 -75.5t-130 -29zM305 92q45 0 82 25t60 63.5t38.5 87.5t22 93.5t6.5 83.5
q0 75 -31.5 119t-86.5 44q-56 0 -99 -37.5t-65.5 -95.5t-33.5 -114.5t-11 -106.5q0 -75 31.5 -118.5t86.5 -43.5z" />
    <glyph glyph-name="Oacute" unicode="&#xd3;" 
d="M398 784l110 156h167l-175 -156h-102zM299 -11q-110 0 -173.5 73.5t-63.5 200.5q0 58 11.5 118t38 120t65 106t97.5 75t130 29q109 0 172 -73.5t63 -200.5q0 -58 -11.5 -117.5t-37.5 -119.5t-64 -106.5t-97 -75.5t-130 -29zM305 92q45 0 82 25t60 63.5t38.5 87.5t22 93.5
t6.5 83.5q0 75 -31.5 119t-86.5 44q-56 0 -99 -37.5t-65.5 -95.5t-33.5 -114.5t-11 -106.5q0 -75 31.5 -118.5t86.5 -43.5z" />
    <glyph glyph-name="Ocircumflex" unicode="&#xd4;" 
d="M611 770h-98l-48 102l-92 -102h-105l142 170h132zM299 -11q-110 0 -173.5 73.5t-63.5 200.5q0 58 11.5 118t38 120t65 106t97.5 75t130 29q109 0 172 -73.5t63 -200.5q0 -58 -11.5 -117.5t-37.5 -119.5t-64 -106.5t-97 -75.5t-130 -29zM305 92q45 0 82 25t60 63.5
t38.5 87.5t22 93.5t6.5 83.5q0 75 -31.5 119t-86.5 44q-56 0 -99 -37.5t-65.5 -95.5t-33.5 -114.5t-11 -106.5q0 -75 31.5 -118.5t86.5 -43.5z" />
    <glyph glyph-name="Otilde" unicode="&#xd5;" 
d="M527 787q-30 0 -51.5 13.5t-37.5 27.5t-32 14q-34 0 -47 -45h-86q15 64 51 95t81 31q37 0 70 -27t51 -27q34 0 46 44h87q-13 -62 -50 -94t-82 -32zM299 -11q-110 0 -173.5 73.5t-63.5 200.5q0 58 11.5 118t38 120t65 106t97.5 75t130 29q109 0 172 -73.5t63 -200.5
q0 -58 -11.5 -117.5t-37.5 -119.5t-64 -106.5t-97 -75.5t-130 -29zM305 92q45 0 82 25t60 63.5t38.5 87.5t22 93.5t6.5 83.5q0 75 -31.5 119t-86.5 44q-56 0 -99 -37.5t-65.5 -95.5t-33.5 -114.5t-11 -106.5q0 -75 31.5 -118.5t86.5 -43.5z" />
    <glyph glyph-name="Odieresis" unicode="&#xd6;" 
d="M258 796l28 131h137l-27 -131h-138zM497 796l28 131h137l-27 -131h-138zM299 -11q-110 0 -173.5 73.5t-63.5 200.5q0 58 11.5 118t38 120t65 106t97.5 75t130 29q109 0 172 -73.5t63 -200.5q0 -58 -11.5 -117.5t-37.5 -119.5t-64 -106.5t-97 -75.5t-130 -29zM305 92
q45 0 82 25t60 63.5t38.5 87.5t22 93.5t6.5 83.5q0 75 -31.5 119t-86.5 44q-56 0 -99 -37.5t-65.5 -95.5t-33.5 -114.5t-11 -106.5q0 -75 31.5 -118.5t86.5 -43.5z" />
    <glyph glyph-name="multiply" unicode="&#xd7;" 
d="M624 513l-213 -176l135 -172l-69 -57l-135 172l-217 -179l-51 64l217 179l-138 175l69 58l138 -175l212 175z" />
    <glyph glyph-name="Oslash" unicode="&#xd8;" 
d="M716 646l-96 -88q19 -51 19 -121q0 -58 -11.5 -117.5t-37.5 -119.5t-64 -106.5t-97 -75.5t-130 -29q-127 0 -190 96l-74 -68l-45 52l88 81q-16 54 -16 113q0 58 11.5 118t38 120t65 106t97.5 75t130 29q122 0 184 -89l82 75zM187 254v-3l310 286q-30 71 -101 71
q-56 0 -99 -37.5t-65.5 -95.5t-33.5 -114.5t-11 -106.5zM514 445v14l-314 -289q30 -78 105 -78q45 0 82 25t60 63.5t38.5 87.5t22 93.5t6.5 83.5z" />
    <glyph glyph-name="Ugrave" unicode="&#xd9;" 
d="M483 784h-94l-99 156h150zM688 700l-102 -482q-22 -108 -98.5 -168.5t-185.5 -60.5q-129 0 -192.5 81t-36.5 208l89 422h123l-93 -437q-16 -76 16.5 -122.5t101.5 -46.5q60 0 101.5 38t55.5 105l98 463h123z" />
    <glyph glyph-name="Uacute" unicode="&#xda;" 
d="M398 784l110 156h167l-175 -156h-102zM688 700l-102 -482q-22 -108 -98.5 -168.5t-185.5 -60.5q-129 0 -192.5 81t-36.5 208l89 422h123l-93 -437q-16 -76 16.5 -122.5t101.5 -46.5q60 0 101.5 38t55.5 105l98 463h123z" />
    <glyph glyph-name="Ucircumflex" unicode="&#xdb;" 
d="M611 770h-98l-48 102l-92 -102h-105l142 170h132zM688 700l-102 -482q-22 -108 -98.5 -168.5t-185.5 -60.5q-129 0 -192.5 81t-36.5 208l89 422h123l-93 -437q-16 -76 16.5 -122.5t101.5 -46.5q60 0 101.5 38t55.5 105l98 463h123z" />
    <glyph glyph-name="Udieresis" unicode="&#xdc;" 
d="M258 796l28 131h137l-27 -131h-138zM497 796l28 131h137l-27 -131h-138zM688 700l-102 -482q-22 -108 -98.5 -168.5t-185.5 -60.5q-129 0 -192.5 81t-36.5 208l89 422h123l-93 -437q-16 -76 16.5 -122.5t101.5 -46.5q60 0 101.5 38t55.5 105l98 463h123z" />
    <glyph glyph-name="Yacute" unicode="&#xdd;" 
d="M650 940l-175 -156h-102l110 156h167zM718 700l-326 -443l-55 -257h-121l54 252l-137 448h131l83 -336l225 336h146z" />
    <glyph glyph-name="Thorn" unicode="&#xde;" 
d="M410 564q97 0 159 -55.5t62 -139.5q0 -105 -81.5 -164t-206.5 -59h-147l-30 -146h-121l145 700h122l-28 -136h126zM364 246q66 0 106.5 32.5t40.5 85.5q0 42 -32.5 70.5t-82.5 28.5h-133l-46 -217h147z" />
    <glyph glyph-name="germandbls" unicode="&#xdf;" 
d="M480 370q0 -16 13 -32.5t31.5 -31.5t37 -33.5t31.5 -46.5t13 -62q0 -75 -55.5 -127t-137.5 -52q-70 0 -135 34l20 110q54 -42 96 -44q41 -3 71.5 21t30.5 61q0 22 -13 41t-31 33.5t-36.5 30t-31.5 38t-13 50.5q0 35 21 60.5t46.5 39t46.5 36.5t21 53q0 29 -22.5 48
t-57.5 19q-53 0 -88.5 -32.5t-47.5 -89.5l-105 -494h-111l86 409h-110l21 95h109l2 10q19 90 82 143.5t160 53.5q84 0 139 -43.5t55 -113.5q0 -36 -14 -62t-34.5 -40t-41 -25.5t-34.5 -25.5t-14 -31z" />
    <glyph glyph-name="agrave" unicode="&#xe0;" 
d="M447 580h-91l-105 150h153zM271 -8q-94 0 -155 63.5t-61 164.5q0 119 81 206t200 87q129 0 164 -101h1l19 92h111l-107 -504h-110l15 73h-2q-34 -42 -69.5 -61.5t-86.5 -19.5zM304 85q60 0 101.5 39t57.5 110q7 31 7 54q0 58 -34.5 94t-93.5 36q-76 0 -125.5 -57.5
t-49.5 -132.5q0 -64 38 -103.5t99 -39.5z" />
    <glyph glyph-name="aacute" unicode="&#xe1;" 
d="M345 580l115 150h155l-168 -150h-102zM271 -8q-94 0 -155 63.5t-61 164.5q0 119 81 206t200 87q129 0 164 -101h1l19 92h111l-107 -504h-110l15 73h-2q-34 -42 -69.5 -61.5t-86.5 -19.5zM304 85q60 0 101.5 39t57.5 110q7 31 7 54q0 58 -34.5 94t-93.5 36
q-76 0 -125.5 -57.5t-49.5 -132.5q0 -64 38 -103.5t99 -39.5z" />
    <glyph glyph-name="acircumflex" unicode="&#xe2;" 
d="M567 570h-91l-52 85l-89 -85h-100l137 160h125zM271 -8q-94 0 -155 63.5t-61 164.5q0 119 81 206t200 87q129 0 164 -101h1l19 92h111l-107 -504h-110l15 73h-2q-34 -42 -69.5 -61.5t-86.5 -19.5zM304 85q60 0 101.5 39t57.5 110q7 31 7 54q0 58 -34.5 94t-93.5 36
q-76 0 -125.5 -57.5t-49.5 -132.5q0 -64 38 -103.5t99 -39.5z" />
    <glyph glyph-name="atilde" unicode="&#xe3;" 
d="M482 591q-28 0 -48.5 12.5t-35 25t-29.5 12.5q-32 0 -43 -43h-88q15 63 50.5 92.5t80.5 29.5q36 0 66 -24.5t46 -24.5q33 0 44 42h88q-13 -63 -48.5 -92.5t-82.5 -29.5zM271 -8q-94 0 -155 63.5t-61 164.5q0 119 81 206t200 87q129 0 164 -101h1l19 92h111l-107 -504
h-110l15 73h-2q-34 -42 -69.5 -61.5t-86.5 -19.5zM304 85q60 0 101.5 39t57.5 110q7 31 7 54q0 58 -34.5 94t-93.5 36q-76 0 -125.5 -57.5t-49.5 -132.5q0 -64 38 -103.5t99 -39.5z" />
    <glyph glyph-name="adieresis" unicode="&#xe4;" 
d="M224 586l28 131h137l-27 -131h-138zM445 586l28 131h137l-27 -131h-138zM271 -8q-94 0 -155 63.5t-61 164.5q0 119 81 206t200 87q129 0 164 -101h1l19 92h111l-107 -504h-110l15 73h-2q-34 -42 -69.5 -61.5t-86.5 -19.5zM304 85q60 0 101.5 39t57.5 110q7 31 7 54
q0 58 -34.5 94t-93.5 36q-76 0 -125.5 -57.5t-49.5 -132.5q0 -64 38 -103.5t99 -39.5z" />
    <glyph glyph-name="aring" unicode="&#xe5;" 
d="M414 561q-43 0 -73 27.5t-30 69.5q0 48 36.5 80t83.5 32q43 0 73 -27.5t30 -69.5q0 -47 -36 -79.5t-84 -32.5zM419 616q22 0 37 16t15 38q0 21 -13 33t-32 12q-21 0 -36.5 -15t-15.5 -38q0 -21 13.5 -33.5t31.5 -12.5zM271 -8q-94 0 -155 63.5t-61 164.5q0 119 81 206
t200 87q129 0 164 -101h1l19 92h111l-107 -504h-110l15 73h-2q-34 -42 -69.5 -61.5t-86.5 -19.5zM304 85q60 0 101.5 39t57.5 110q7 31 7 54q0 58 -34.5 94t-93.5 36q-76 0 -125.5 -57.5t-49.5 -132.5q0 -64 38 -103.5t99 -39.5z" />
    <glyph glyph-name="ae" unicode="&#xe6;" 
d="M488 515q96 0 127.5 -76.5t11.5 -192.5l-2 -16h-253q-7 -49 -7 -71q0 -82 60 -82q26 0 45 19t35 61h105q-56 -168 -186 -168q-99 0 -130 83q-21 -36 -60.5 -59.5t-89.5 -23.5q-67 0 -105.5 33t-38.5 94q0 92 74.5 139t188.5 47h19l4 21q21 107 -41 107q-56 0 -79 -87
h-108q21 86 70.5 129t117.5 43q86 0 117 -59q50 59 125 59zM537 302q18 129 -50 129q-36 0 -59 -32.5t-41 -96.5h150zM260 188l8 42h-15q-64 0 -104 -27t-40 -75q0 -54 54 -54q37 0 62 31.5t35 82.5z" />
    <glyph glyph-name="ccedilla" unicode="&#xe7;" 
d="M317 85q53 0 91 30.5t51 78.5h118q-19 -89 -91.5 -147t-171.5 -58h-3l-21 -50h3q35 0 61.5 -24.5t26.5 -61.5q0 -43 -34.5 -71.5t-85.5 -28.5q-53 0 -86 29t-34 75l80 9q-2 -19 8.5 -32t30.5 -13q17 0 28 9.5t11 24.5q0 16 -12 26t-31 10h-31l-10 35l42 69
q-81 17 -128.5 78.5t-47.5 150.5q0 120 80.5 205t203.5 85q95 0 155.5 -53t66.5 -141h-114q-4 46 -33 72.5t-78 26.5q-74 0 -121 -58.5t-47 -136.5q0 -63 32.5 -101t90.5 -38z" />
    <glyph glyph-name="egrave" unicode="&#xe8;" 
d="M447 580h-91l-105 150h153zM190 226v-3q0 -66 31.5 -103t89.5 -37q85 0 129 78h117q-35 -78 -99.5 -125t-153.5 -47q-104 0 -166 63t-62 166q0 121 82 209t204 88q101 0 161 -62t60 -162q0 -36 -7 -65h-386zM353 424q-54 0 -93 -33.5t-57 -86.5h269q-4 54 -34.5 87
t-84.5 33z" />
    <glyph glyph-name="eacute" unicode="&#xe9;" 
d="M598 730l-168 -150h-102l115 150h155zM362 515q101 0 161 -62t60 -162q0 -36 -7 -65h-386v-3q0 -66 31.5 -103t89.5 -37q85 0 129 78h117q-35 -78 -99.5 -125t-153.5 -47q-104 0 -166 63t-62 166q0 121 82 209t204 88zM203 304h269q-4 54 -34.5 87t-84.5 33t-93 -33.5
t-57 -86.5z" />
    <glyph glyph-name="ecircumflex" unicode="&#xea;" 
d="M403 655l-89 -85h-100l137 160h125l70 -160h-91zM190 226v-3q0 -66 31.5 -103t89.5 -37q85 0 129 78h117q-35 -78 -99.5 -125t-153.5 -47q-104 0 -166 63t-62 166q0 121 82 209t204 88q101 0 161 -62t60 -162q0 -36 -7 -65h-386zM353 424q-54 0 -93 -33.5t-57 -86.5h269
q-4 54 -34.5 87t-84.5 33z" />
    <glyph glyph-name="edieresis" unicode="&#xeb;" 
d="M368 717l-27 -131h-138l28 131h137zM589 717l-27 -131h-138l28 131h137zM362 515q101 0 161 -62t60 -162q0 -36 -7 -65h-386v-3q0 -66 31.5 -103t89.5 -37q85 0 129 78h117q-35 -78 -99.5 -125t-153.5 -47q-104 0 -166 63t-62 166q0 121 82 209t204 88zM203 304h269
q-4 54 -34.5 87t-84.5 33t-93 -33.5t-57 -86.5z" />
    <glyph glyph-name="igrave" unicode="&#xec;" 
d="M439 580h-91l-105 150h153zM463 87q55 0 125 31l-23 -110q-73 -17 -118 -17q-106 0 -166 63t-40 152l44 203h-200l20 95h311l-65 -305q-10 -47 23 -79.5t89 -32.5z" />
    <glyph glyph-name="iacute" unicode="&#xed;" 
d="M591 730l-168 -150h-102l115 150h155zM351 199q-10 -47 23 -79.5t89 -32.5q55 0 125 31l-23 -110q-73 -17 -118 -17q-106 0 -166 63t-40 152l44 203h-200l20 95h311z" />
    <glyph glyph-name="icircumflex" unicode="&#xee;" 
d="M396 655l-89 -85h-100l137 160h125l70 -160h-91zM463 87q55 0 125 31l-23 -110q-73 -17 -118 -17q-106 0 -166 63t-40 152l44 203h-200l20 95h311l-65 -305q-10 -47 23 -79.5t89 -32.5z" />
    <glyph glyph-name="idieresis" unicode="&#xef;" 
d="M361 717l-27 -131h-138l28 131h137zM582 717l-27 -131h-138l28 131h137zM463 87q55 0 125 31l-23 -110q-73 -17 -118 -17q-106 0 -166 63t-40 152l44 203h-200l20 95h311l-65 -305q-10 -47 23 -79.5t89 -32.5z" />
    <glyph glyph-name="eth" unicode="&#xf0;" 
d="M468 648q71 -50 107 -122.5t36 -157.5q0 -69 -19.5 -135t-55.5 -121t-96 -88.5t-133 -33.5q-105 0 -174 61.5t-69 165.5q0 119 78 205.5t194 86.5q141 0 185 -116q-4 141 -146 205l-140 -77l-24 48l95 52q-53 13 -122 16l19 89q119 -4 210 -46l113 62l24 -49zM313 87
q75 0 124 56t49 130q0 63 -38.5 101.5t-100.5 38.5q-73 0 -122 -56t-49 -131q0 -62 37.5 -100.5t99.5 -38.5z" />
    <glyph glyph-name="ntilde" unicode="&#xf1;" 
d="M359 641q-32 0 -43 -43h-88q15 63 50.5 92.5t80.5 29.5q36 0 66 -24.5t46 -24.5q33 0 44 42h88q-13 -63 -48.5 -92.5t-82.5 -29.5q-28 0 -48.5 12.5t-35 25t-29.5 12.5zM412 515q94 0 136 -63.5t20 -166.5l-60 -285h-111l59 280q13 63 -11.5 98t-80.5 35q-58 0 -96 -37
t-52 -103l-58 -273h-111l106 504h111l-15 -71q60 82 163 82z" />
    <glyph glyph-name="ograve" unicode="&#xf2;" 
d="M446 580h-91l-105 150h153zM304 -11q-105 0 -171 65.5t-66 169.5q0 119 82.5 204.5t205.5 85.5q105 0 171.5 -65t66.5 -169q0 -119 -83 -205t-206 -86zM307 85q76 0 124.5 59t48.5 136q0 62 -34.5 100.5t-93.5 38.5q-75 0 -123.5 -58.5t-48.5 -135.5q0 -63 34 -101.5
t93 -38.5z" />
    <glyph glyph-name="oacute" unicode="&#xf3;" 
d="M352 580l115 150h155l-168 -150h-102zM304 -11q-105 0 -171 65.5t-66 169.5q0 119 82.5 204.5t205.5 85.5q105 0 171.5 -65t66.5 -169q0 -119 -83 -205t-206 -86zM307 85q76 0 124.5 59t48.5 136q0 62 -34.5 100.5t-93.5 38.5q-75 0 -123.5 -58.5t-48.5 -135.5
q0 -63 34 -101.5t93 -38.5z" />
    <glyph glyph-name="ocircumflex" unicode="&#xf4;" 
d="M559 570h-91l-52 85l-89 -85h-100l137 160h125zM304 -11q-105 0 -171 65.5t-66 169.5q0 119 82.5 204.5t205.5 85.5q105 0 171.5 -65t66.5 -169q0 -119 -83 -205t-206 -86zM307 85q76 0 124.5 59t48.5 136q0 62 -34.5 100.5t-93.5 38.5q-75 0 -123.5 -58.5t-48.5 -135.5
q0 -63 34 -101.5t93 -38.5z" />
    <glyph glyph-name="otilde" unicode="&#xf5;" 
d="M474 591q-28 0 -48.5 12.5t-35 25t-29.5 12.5q-32 0 -43 -43h-88q15 63 50.5 92.5t80.5 29.5q36 0 66 -24.5t46 -24.5q33 0 44 42h88q-13 -63 -48.5 -92.5t-82.5 -29.5zM304 -11q-105 0 -171 65.5t-66 169.5q0 119 82.5 204.5t205.5 85.5q105 0 171.5 -65t66.5 -169
q0 -119 -83 -205t-206 -86zM307 85q76 0 124.5 59t48.5 136q0 62 -34.5 100.5t-93.5 38.5q-75 0 -123.5 -58.5t-48.5 -135.5q0 -63 34 -101.5t93 -38.5z" />
    <glyph glyph-name="odieresis" unicode="&#xf6;" 
d="M216 586l28 131h137l-27 -131h-138zM437 586l28 131h137l-27 -131h-138zM304 -11q-105 0 -171 65.5t-66 169.5q0 119 82.5 204.5t205.5 85.5q105 0 171.5 -65t66.5 -169q0 -119 -83 -205t-206 -86zM307 85q76 0 124.5 59t48.5 136q0 62 -34.5 100.5t-93.5 38.5
q-75 0 -123.5 -58.5t-48.5 -135.5q0 -63 34 -101.5t93 -38.5z" />
    <glyph glyph-name="divide" unicode="&#xf7;" 
d="M315 479l27 132h128l-27 -132h-128zM110 390h497l-18 -89h-497zM226 70l29 132h129l-29 -132h-129z" />
    <glyph glyph-name="oslash" unicode="&#xf8;" 
d="M618 482l-67 -62q42 -59 42 -140q0 -119 -83 -205t-206 -86q-97 0 -161 56l-62 -57l-41 47l62 58q-35 57 -35 131q0 119 82.5 204.5t205.5 85.5q90 0 152 -48l67 62zM180 225q0 -27 8 -54l242 224q-34 24 -78 24q-75 0 -123.5 -58.5t-48.5 -135.5zM480 280q0 36 -12 64
l-247 -227q32 -32 86 -32q76 0 124.5 59t48.5 136z" />
    <glyph glyph-name="ugrave" unicode="&#xf9;" 
d="M446 580h-91l-105 150h153zM613 504l-106 -504h-111l15 71q-60 -82 -163 -82q-94 0 -136 63.5t-20 166.5l60 285h111l-59 -280q-13 -63 11.5 -98t80.5 -35q58 0 96 37t52 103l58 273h111z" />
    <glyph glyph-name="uacute" unicode="&#xfa;" 
d="M611 730l-168 -150h-102l115 150h155zM613 504l-106 -504h-111l15 71q-60 -82 -163 -82q-94 0 -136 63.5t-20 166.5l60 285h111l-59 -280q-13 -63 11.5 -98t80.5 -35q58 0 96 37t52 103l58 273h111z" />
    <glyph glyph-name="ucircumflex" unicode="&#xfb;" 
d="M416 655l-89 -85h-100l137 160h125l70 -160h-91zM613 504l-106 -504h-111l15 71q-60 -82 -163 -82q-94 0 -136 63.5t-20 166.5l60 285h111l-59 -280q-13 -63 11.5 -98t80.5 -35q58 0 96 37t52 103l58 273h111z" />
    <glyph glyph-name="udieresis" unicode="&#xfc;" 
d="M381 717l-27 -131h-138l28 131h137zM602 717l-27 -131h-138l28 131h137zM613 504l-106 -504h-111l15 71q-60 -82 -163 -82q-94 0 -136 63.5t-20 166.5l60 285h111l-59 -280q-13 -63 11.5 -98t80.5 -35q58 0 96 37t52 103l58 273h111z" />
    <glyph glyph-name="yacute" unicode="&#xfd;" 
d="M611 730l-168 -150h-102l115 150h155zM617 504l-108 -513q-21 -96 -90.5 -149t-167.5 -53q-100 0 -166 52t-70 138h113q5 -45 37.5 -72.5t85.5 -27.5q55 0 95.5 31t52.5 85l21 99q-64 -82 -172 -77q-94 3 -138 68t-23 163l54 256h113l-52 -248q-12 -60 13.5 -99t82.5 -40
q57 -2 99 35t56 103l53 249h111z" />
    <glyph glyph-name="thorn" unicode="&#xfe;" 
d="M389 514q94 0 155 -64.5t61 -165.5q0 -119 -81 -207t-200 -88q-128 0 -164 101h-1l-60 -286h-111l189 896h110l-55 -264h2q34 39 69.5 58.5t85.5 19.5zM356 420q-59 0 -101 -39.5t-58 -110.5q-7 -31 -7 -54q0 -58 34.5 -94.5t93.5 -36.5q76 0 125.5 58t49.5 133
q0 64 -38 104t-99 40z" />
    <glyph glyph-name="ydieresis" unicode="&#xff;" 
d="M381 717l-27 -131h-138l28 131h137zM602 717l-27 -131h-138l28 131h137zM617 504l-108 -513q-21 -96 -90.5 -149t-167.5 -53q-100 0 -166 52t-70 138h113q5 -45 37.5 -72.5t85.5 -27.5q55 0 95.5 31t52.5 85l21 99q-64 -82 -172 -77q-94 3 -138 68t-23 163l54 256h113
l-52 -248q-12 -60 13.5 -99t82.5 -40q57 -2 99 35t56 103l53 249h111z" />
    <glyph glyph-name="Amacron" unicode="&#x100;" 
d="M329 896h276l-17 -82h-276zM499 700l68 -700h-117l-12 148h-254l-75 -148h-123l366 700h147zM234 247h196l-28 334z" />
    <glyph glyph-name="amacron" unicode="&#x101;" 
d="M287 697h280l-18 -82h-280zM271 -8q-94 0 -155 63.5t-61 164.5q0 119 81 206t200 87q129 0 164 -101h1l19 92h111l-107 -504h-110l15 73h-2q-34 -42 -69.5 -61.5t-86.5 -19.5zM304 85q60 0 101.5 39t57.5 110q7 31 7 54q0 58 -34.5 94t-93.5 36q-76 0 -125.5 -57.5
t-49.5 -132.5q0 -64 38 -103.5t99 -39.5z" />
    <glyph glyph-name="Abreve" unicode="&#x102;" 
d="M527 924h105q-13 -62 -65 -102.5t-118 -40.5q-70 0 -108 41t-25 102h90q-5 -27 9.5 -45t40.5 -18q23 0 43 18t28 45zM499 700l68 -700h-117l-12 148h-254l-75 -148h-123l366 700h147zM234 247h196l-28 334z" />
    <glyph glyph-name="abreve" unicode="&#x103;" 
d="M415 578q-72 0 -111 41.5t-26 102.5h91q-5 -28 9.5 -46t40.5 -18q24 0 43.5 17.5t26.5 46.5h105q-13 -66 -61.5 -105t-117.5 -39zM271 -8q-94 0 -155 63.5t-61 164.5q0 119 81 206t200 87q129 0 164 -101h1l19 92h111l-107 -504h-110l15 73h-2q-34 -42 -69.5 -61.5
t-86.5 -19.5zM304 85q60 0 101.5 39t57.5 110q7 31 7 54q0 58 -34.5 94t-93.5 36q-76 0 -125.5 -57.5t-49.5 -132.5q0 -64 38 -103.5t99 -39.5z" />
    <glyph glyph-name="Aogonek" unicode="&#x104;" 
d="M514 -110q29 0 56 10l-17 -80q-44 -11 -80 -11q-50 0 -75.5 21t-25.5 53q0 78 129 117h-51l-12 148h-254l-75 -148h-123l366 700h147l68 -700q-34 -20 -48 -29.5t-26.5 -24t-12.5 -29.5q0 -27 34 -27zM234 247h196l-28 334z" />
    <glyph glyph-name="aogonek" unicode="&#x105;" 
d="M437 -83q0 -27 34 -27q29 0 56 10l-17 -80q-44 -11 -80 -11q-50 0 -75.5 21t-25.5 53q0 78 129 117h-44l15 73h-2q-34 -42 -69.5 -61.5t-86.5 -19.5q-94 0 -155 63.5t-61 164.5q0 119 81 206t200 87q129 0 164 -101h1l19 92h111l-107 -504q-34 -20 -48 -29.5t-26.5 -24
t-12.5 -29.5zM304 85q60 0 101.5 39t57.5 110q7 31 7 54q0 58 -34.5 94t-93.5 36q-76 0 -125.5 -57.5t-49.5 -132.5q0 -64 38 -103.5t99 -39.5z" />
    <glyph glyph-name="Cacute" unicode="&#x106;" 
d="M389 784l110 156h167l-175 -156h-102zM614 244q-31 -111 -107.5 -183t-194.5 -72q-113 0 -175 70.5t-62 203.5q0 58 11.5 118t38 120t65 106t97.5 75t130 29q109 0 169 -66t59 -190h-125q5 153 -111 153q-56 0 -99 -37.5t-65.5 -95.5t-33.5 -114.5t-11 -106.5
q0 -162 118 -162q62 0 104.5 42.5t62.5 109.5h129z" />
    <glyph glyph-name="cacute" unicode="&#x107;" 
d="M336 580l115 150h155l-168 -150h-102zM577 194q-19 -89 -91.5 -147t-171.5 -58q-105 0 -169 65t-64 170q0 120 80.5 205t203.5 85q95 0 155.5 -53t66.5 -141h-114q-4 46 -33 72.5t-78 26.5q-74 0 -121 -58.5t-47 -136.5q0 -63 32.5 -101t90.5 -38q53 0 91 30.5t51 78.5
h118z" />
    <glyph glyph-name="Cdotaccent" unicode="&#x10a;" 
d="M369 796l28 131h138l-28 -131h-138zM614 244q-31 -111 -107.5 -183t-194.5 -72q-113 0 -175 70.5t-62 203.5q0 58 11.5 118t38 120t65 106t97.5 75t130 29q109 0 169 -66t59 -190h-125q5 153 -111 153q-56 0 -99 -37.5t-65.5 -95.5t-33.5 -114.5t-11 -106.5
q0 -162 118 -162q62 0 104.5 42.5t62.5 109.5h129z" />
    <glyph glyph-name="cdotaccent" unicode="&#x10b;" 
d="M323 586l28 131h138l-28 -131h-138zM577 194q-19 -89 -91.5 -147t-171.5 -58q-105 0 -169 65t-64 170q0 120 80.5 205t203.5 85q95 0 155.5 -53t66.5 -141h-114q-4 46 -33 72.5t-78 26.5q-74 0 -121 -58.5t-47 -136.5q0 -63 32.5 -101t90.5 -38q53 0 91 30.5t51 78.5h118
z" />
    <glyph glyph-name="Ccaron" unicode="&#x10c;" 
d="M299 940h98l48 -102l92 102h105l-142 -170h-132zM614 244q-31 -111 -107.5 -183t-194.5 -72q-113 0 -175 70.5t-62 203.5q0 58 11.5 118t38 120t65 106t97.5 75t130 29q109 0 169 -66t59 -190h-125q5 153 -111 153q-56 0 -99 -37.5t-65.5 -95.5t-33.5 -114.5t-11 -106.5
q0 -162 118 -162q62 0 104.5 42.5t62.5 109.5h129z" />
    <glyph glyph-name="ccaron" unicode="&#x10d;" 
d="M275 726h91l52 -85l89 85h100l-137 -160h-125zM577 194q-19 -89 -91.5 -147t-171.5 -58q-105 0 -169 65t-64 170q0 120 80.5 205t203.5 85q95 0 155.5 -53t66.5 -141h-114q-4 46 -33 72.5t-78 26.5q-74 0 -121 -58.5t-47 -136.5q0 -63 32.5 -101t90.5 -38q53 0 91 30.5
t51 78.5h118z" />
    <glyph glyph-name="Dcaron" unicode="&#x10e;" 
d="M278 940h98l48 -102l92 102h105l-142 -170h-132zM348 700q131 0 211 -78.5t80 -206.5q0 -181 -113.5 -298t-301.5 -117h-194l147 700h171zM256 104q119 0 188.5 91.5t69.5 220.5q0 82 -47.5 131t-127.5 49h-62l-105 -492h84z" />
    <glyph glyph-name="dcaron" unicode="&#x10f;" 
d="M520 504l41 196h111l-41 -196l-107 -504h-110l15 73h-2q-34 -42 -69.5 -61.5t-86.5 -19.5q-94 0 -155 63.5t-61 164.5q0 119 81 206t200 87q129 0 164 -101h1zM762 700h118l-105 -202h-75zM463 234q7 31 7 54q0 58 -34.5 94t-93.5 36q-76 0 -125.5 -57.5t-49.5 -132.5
q0 -64 38 -103.5t99 -39.5q60 0 101.5 39t57.5 110z" />
    <glyph glyph-name="Dcroat" unicode="&#x110;" 
d="M364 700q131 0 211 -78.5t80 -206.5q0 -181 -113.5 -298t-301.5 -117h-194l66 315h-60l19 87h59l63 298h171zM272 104q119 0 188.5 91.5t69.5 220.5q0 82 -47.5 131t-127.5 49h-62l-41 -194h136l-19 -87h-136l-45 -211h84z" />
    <glyph glyph-name="dcroat" unicode="&#x111;" 
d="M731 633l-15 -69h-72l-13 -60l-107 -504h-110l15 73h-2q-34 -42 -69.5 -61.5t-86.5 -19.5q-94 0 -155 63.5t-61 164.5q0 119 81 206t200 87q129 0 164 -101h1l19 92l13 60h-213l15 69h212l14 67h111l-14 -67h73zM463 234q7 31 7 54q0 58 -34.5 94t-93.5 36
q-76 0 -125.5 -57.5t-49.5 -132.5q0 -64 38 -103.5t99 -39.5q60 0 101.5 39t57.5 110z" />
    <glyph glyph-name="Emacron" unicode="&#x112;" 
d="M316 814l17 82h276l-17 -82h-276zM642 598h-338l-41 -192h310l-22 -103h-310l-43 -201h339l-22 -102h-459l149 700h459z" />
    <glyph glyph-name="emacron" unicode="&#x113;" 
d="M546 697l-18 -82h-280l18 82h280zM190 226v-3q0 -66 31.5 -103t89.5 -37q85 0 129 78h117q-35 -78 -99.5 -125t-153.5 -47q-104 0 -166 63t-62 166q0 121 82 209t204 88q101 0 161 -62t60 -162q0 -36 -7 -65h-386zM353 424q-54 0 -93 -33.5t-57 -86.5h269q-4 54 -34.5 87
t-84.5 33z" />
    <glyph glyph-name="Ebreve" unicode="&#x114;" 
d="M453 781q-70 0 -108 41t-25 102h90q-5 -27 9.5 -45t40.5 -18q23 0 43 18t28 45h105q-13 -62 -65 -102.5t-118 -40.5zM642 598h-338l-41 -192h310l-22 -103h-310l-43 -201h339l-22 -102h-459l149 700h459z" />
    <glyph glyph-name="ebreve" unicode="&#x115;" 
d="M394 578q-72 0 -111 41.5t-26 102.5h91q-5 -28 9.5 -46t40.5 -18q24 0 43.5 17.5t26.5 46.5h105q-13 -66 -61.5 -105t-117.5 -39zM190 226v-3q0 -66 31.5 -103t89.5 -37q85 0 129 78h117q-35 -78 -99.5 -125t-153.5 -47q-104 0 -166 63t-62 166q0 121 82 209t204 88
q101 0 161 -62t60 -162q0 -36 -7 -65h-386zM353 424q-54 0 -93 -33.5t-57 -86.5h269q-4 54 -34.5 87t-84.5 33z" />
    <glyph glyph-name="Edotaccent" unicode="&#x116;" 
d="M382 796l28 131h138l-28 -131h-138zM642 598h-338l-41 -192h310l-22 -103h-310l-43 -201h339l-22 -102h-459l149 700h459z" />
    <glyph glyph-name="edotaccent" unicode="&#x117;" 
d="M481 717l-28 -131h-138l28 131h138zM190 226v-3q0 -66 31.5 -103t89.5 -37q85 0 129 78h117q-35 -78 -99.5 -125t-153.5 -47q-104 0 -166 63t-62 166q0 121 82 209t204 88q101 0 161 -62t60 -162q0 -36 -7 -65h-386zM353 424q-54 0 -93 -33.5t-57 -86.5h269
q-4 54 -34.5 87t-84.5 33z" />
    <glyph glyph-name="Eogonek" unicode="&#x118;" 
d="M642 598h-338l-41 -192h310l-22 -103h-310l-43 -201h339l-22 -102q-34 -20 -48 -29.5t-26.5 -24t-12.5 -29.5q0 -27 34 -27q29 0 56 10l-17 -80q-44 -11 -80 -11q-50 0 -75.5 21t-25.5 53q0 78 129 117h-393l149 700h459z" />
    <glyph glyph-name="eogonek" unicode="&#x119;" 
d="M190 226v-3q0 -66 31.5 -103t89.5 -37q85 0 129 78h117q-35 -80 -97 -123q-70 -56 -87.5 -77t-17.5 -42q0 -13 9 -21t24 -8q29 0 57 10l-18 -80q-44 -11 -82 -11q-46 0 -75.5 20t-29.5 51t20 55t73 55q-10 -1 -29 -1q-104 0 -166 63t-62 166q0 121 82 209t204 88
q101 0 161 -62t60 -162q0 -36 -7 -65h-386zM353 424q-54 0 -93 -33.5t-57 -86.5h269q-4 54 -34.5 87t-84.5 33z" />
    <glyph glyph-name="Ecaron" unicode="&#x11a;" 
d="M312 940h98l48 -102l92 102h105l-142 -170h-132zM642 598h-338l-41 -192h310l-22 -103h-310l-43 -201h339l-22 -102h-459l149 700h459z" />
    <glyph glyph-name="ecaron" unicode="&#x11b;" 
d="M462 566h-125l-70 160h91l52 -85l89 85h100zM362 515q101 0 161 -62t60 -162q0 -36 -7 -65h-386v-3q0 -66 31.5 -103t89.5 -37q85 0 129 78h117q-35 -78 -99.5 -125t-153.5 -47q-104 0 -166 63t-62 166q0 121 82 209t204 88zM203 304h269q-4 54 -34.5 87t-84.5 33
t-93 -33.5t-57 -86.5z" />
    <glyph glyph-name="Gbreve" unicode="&#x11e;" 
d="M455 781q-70 0 -108 41t-25 102h90q-5 -27 9.5 -45t40.5 -18q23 0 43 18t28 45h105q-13 -62 -65 -102.5t-118 -40.5zM645 469h-124q2 68 -26.5 103t-82.5 35q-55 0 -98 -36t-67.5 -91.5t-37 -114.5t-12.5 -113q0 -159 123 -159q64 0 106.5 43.5t65.5 137.5h-144l22 102
h259l-80 -376h-104l17 82q-60 -93 -175 -93q-104 0 -159 70t-55 201q0 80 21 158t61 144.5t107 107.5t150 41q106 0 170 -64.5t63 -177.5z" />
    <glyph glyph-name="gbreve" unicode="&#x11f;" 
d="M410 578q-72 0 -111 41.5t-26 102.5h91q-5 -28 9.5 -46t40.5 -18q24 0 43.5 17.5t26.5 46.5h105q-13 -66 -61.5 -105t-117.5 -39zM265 -211q-101 0 -170 52t-73 138h113q5 -45 40.5 -72.5t89.5 -27.5q53 0 93.5 28.5t50.5 74.5l21 96h-1q-56 -64 -157 -64q-95 0 -151 58
t-56 158q0 117 72 201t187 84q66 0 112.5 -28t63.5 -72h1l19 89h111l-112 -532q-17 -84 -87 -133.5t-167 -49.5zM306 107q72 0 118.5 54t46.5 128q0 58 -36 93t-96 35q-73 0 -116.5 -51t-43.5 -121q0 -61 34 -99.5t93 -38.5z" />
    <glyph glyph-name="Gdotaccent" unicode="&#x120;" 
d="M550 927l-28 -131h-138l28 131h138zM645 469h-124q2 68 -26.5 103t-82.5 35q-55 0 -98 -36t-67.5 -91.5t-37 -114.5t-12.5 -113q0 -159 123 -159q64 0 106.5 43.5t65.5 137.5h-144l22 102h259l-80 -376h-104l17 82q-60 -93 -175 -93q-104 0 -159 70t-55 201q0 80 21 158
t61 144.5t107 107.5t150 41q106 0 170 -64.5t63 -177.5z" />
    <glyph glyph-name="gdotaccent" unicode="&#x121;" 
d="M328 586l28 131h138l-28 -131h-138zM265 -211q-101 0 -170 52t-73 138h113q5 -45 40.5 -72.5t89.5 -27.5q53 0 93.5 28.5t50.5 74.5l21 96h-1q-56 -64 -157 -64q-95 0 -151 58t-56 158q0 117 72 201t187 84q66 0 112.5 -28t63.5 -72h1l19 89h111l-112 -532
q-17 -84 -87 -133.5t-167 -49.5zM306 107q72 0 118.5 54t46.5 128q0 58 -36 93t-96 35q-73 0 -116.5 -51t-43.5 -121q0 -61 34 -99.5t93 -38.5z" />
    <glyph glyph-name="Gcommaaccent" unicode="&#x122;" 
d="M645 469h-124q2 68 -26.5 103t-82.5 35q-55 0 -98 -36t-67.5 -91.5t-37 -114.5t-12.5 -113q0 -159 123 -159q64 0 106.5 43.5t65.5 137.5h-144l22 102h259l-80 -376h-104l17 82q-60 -93 -175 -93q-104 0 -159 70t-55 201q0 80 21 158t61 144.5t107 107.5t150 41
q106 0 170 -64.5t63 -177.5zM151 -253l64 191h146l-131 -191h-79z" />
    <glyph glyph-name="gcommaaccent" unicode="&#x123;" 
d="M532 761l-64 -191h-146l131 191h79zM265 -211q-101 0 -170 52t-73 138h113q5 -45 40.5 -72.5t89.5 -27.5q53 0 93.5 28.5t50.5 74.5l21 96h-1q-56 -64 -157 -64q-95 0 -151 58t-56 158q0 117 72 201t187 84q66 0 112.5 -28t63.5 -72h1l19 89h111l-112 -532
q-17 -84 -87 -133.5t-167 -49.5zM306 107q72 0 118.5 54t46.5 128q0 58 -36 93t-96 35q-73 0 -116.5 -51t-43.5 -121q0 -61 34 -99.5t93 -38.5z" />
    <glyph glyph-name="Hbar" unicode="&#x126;" 
d="M697 583l-15 -69h-39l-109 -514h-121l64 301h-272l-64 -301h-121l109 514h-41l15 69h41l25 117h121l-25 -117h272l25 117h121l-25 -117h39zM499 405l23 109h-272l-23 -109h272z" />
    <glyph glyph-name="hbar" unicode="&#x127;" 
d="M415 515q94 0 136 -63.5t20 -166.5l-60 -285h-111l59 280q13 63 -11.5 98t-80.5 35q-58 0 -96 -37t-52 -103l-58 -273h-111l106 504h1l13 63h-82l13 65h83l14 68h110l-14 -68h203l-13 -65h-204l-13 -63l-15 -71q60 82 163 82z" />
    <glyph glyph-name="Imacron" unicode="&#x12a;" 
d="M605 896l-17 -82h-276l17 82h276zM652 603h-186l-107 -506h186l-21 -97h-495l21 97h188l107 506h-188l21 97h495z" />
    <glyph glyph-name="imacron" unicode="&#x12b;" 
d="M539 697l-18 -82h-280l18 82h280zM463 87q55 0 125 31l-23 -110q-73 -17 -118 -17q-106 0 -166 63t-40 152l44 203h-200l20 95h311l-65 -305q-10 -47 23 -79.5t89 -32.5z" />
    <glyph glyph-name="Iogonek" unicode="&#x12e;" 
d="M652 603h-186l-107 -506h186l-21 -97h-200q-34 -20 -48 -29.5t-26.5 -24t-12.5 -29.5q0 -27 34 -27q29 0 56 10l-17 -80q-44 -11 -80 -11q-50 0 -75.5 21t-25.5 53q0 78 129 117h-229l21 97h188l107 506h-188l21 97h495z" />
    <glyph glyph-name="iogonek" unicode="&#x12f;" 
d="M476 717l-28 -133h-140l28 133h140zM478 -75q0 -27 34 -27q29 0 56 10l-17 -80q-44 -11 -80 -11q-50 0 -75.5 21t-25.5 53q0 62 84 100h-7q-106 0 -166 63t-40 152l44 203h-200l20 95h311l-65 -305q-10 -47 23 -79.5t89 -32.5q55 0 125 31l-23 -110q-34 -20 -48 -29.5
t-26.5 -24t-12.5 -29.5z" />
    <glyph glyph-name="Idotaccent" unicode="&#x130;" 
d="M544 927l-28 -131h-138l28 131h138zM652 603h-186l-107 -506h186l-21 -97h-495l21 97h188l107 506h-188l21 97h495z" />
    <glyph glyph-name="dotlessi" unicode="&#x131;" 
d="M463 87q55 0 125 31l-23 -110q-73 -17 -118 -17q-106 0 -166 63t-40 152l44 203h-200l20 95h311l-65 -305q-10 -47 23 -79.5t89 -32.5z" />
    <glyph glyph-name="ij" unicode="&#x133;" 
d="M173 584l28 133h141l-28 -133h-141zM488 584l28 133h141l-28 -133h-141zM64 0l107 504h110l-107 -504h-110zM202 -213l20 96q64 0 105.5 32.5t52.5 85.5l108 503h110l-109 -512q-19 -88 -94.5 -146.5t-192.5 -58.5z" />
    <glyph glyph-name="Kcommaaccent" unicode="&#x136;" 
d="M707 700l-244 -344l119 -356h-131l-92 302h-135l-64 -302h-121l149 700h121l-63 -294h121l207 294h133zM161 -253l64 191h146l-131 -191h-79z" />
    <glyph glyph-name="kcommaaccent" unicode="&#x137;" 
d="M661 504l-194 -222l106 -282h-126l-75 230h-160l-49 -230h-110l149 700h110l-80 -374h142l148 178h139zM156 -253l64 191h146l-131 -191h-79z" />
    <glyph glyph-name="Lacute" unicode="&#x139;" 
d="M546 940l-175 -156h-102l110 156h167zM228 103h341l-22 -103h-462l149 700h121z" />
    <glyph glyph-name="lacute" unicode="&#x13a;" 
d="M624 926l-168 -150h-102l115 150h155zM338 197q-9 -47 23.5 -79.5t88.5 -32.5q55 0 125 31l-23 -110q-73 -17 -118 -17q-106 0 -166 63t-40 152l85 401h-186l20 95h297z" />
    <glyph glyph-name="Lcommaaccent" unicode="&#x13b;" 
d="M228 103h341l-22 -103h-462l149 700h121zM162 -253l64 191h146l-131 -191h-79z" />
    <glyph glyph-name="lcommaaccent" unicode="&#x13c;" 
d="M450 85q55 0 125 31l-23 -110q-73 -17 -118 -17q-106 0 -166 63t-40 152l85 401h-186l20 95h297l-106 -503q-9 -47 23.5 -79.5t88.5 -32.5zM217 -253l64 191h146l-131 -191h-79z" />
    <glyph glyph-name="Lcaron" unicode="&#x13d;" 
d="M355 700l-127 -597h341l-22 -103h-462l149 700h121zM618 700l-116 -224h-80l65 224h131z" />
    <glyph glyph-name="lcaron" unicode="&#x13e;" 
d="M677 763l-105 -202h-75l62 202h118zM338 197q-9 -47 23.5 -79.5t88.5 -32.5q55 0 125 31l-23 -110q-73 -17 -118 -17q-106 0 -166 63t-40 152l85 401h-186l20 95h297z" />
    <glyph glyph-name="Ldot" unicode="&#x13f;" 
d="M355 700l-127 -597h341l-22 -103h-462l149 700h121zM581 403l-31 -145h-150l30 145h151z" />
    <glyph glyph-name="ldot" unicode="&#x140;" 
d="M338 197q-9 -47 23.5 -79.5t88.5 -32.5q55 0 125 31l-23 -110q-73 -17 -118 -17q-106 0 -166 63t-40 152l85 401h-186l20 95h297zM493 403h151l-31 -145h-150z" />
    <glyph glyph-name="Lslash" unicode="&#x141;" 
d="M228 103h341l-22 -103h-462l53 248l-91 -36l21 101l91 37l75 350h121l-63 -297l238 95l-22 -101l-238 -95z" />
    <glyph glyph-name="lslash" unicode="&#x142;" 
d="M338 197q-9 -47 23.5 -79.5t88.5 -32.5q55 0 125 31l-23 -110q-73 -17 -118 -17q-106 0 -166 63t-40 152l27 130l-164 -67l19 87l164 67l39 184h-186l20 95h297l-48 -230l193 79l-18 -87l-194 -79z" />
    <glyph glyph-name="Nacute" unicode="&#x143;" 
d="M667 940l-175 -156h-102l110 156h167zM551 700h120l-149 -700h-109l-158 487l-104 -487h-119l149 700h111l155 -489z" />
    <glyph glyph-name="nacute" unicode="&#x144;" 
d="M609 730l-168 -150h-102l115 150h155zM412 515q94 0 136 -63.5t20 -166.5l-60 -285h-111l59 280q13 63 -11.5 98t-80.5 35q-58 0 -96 -37t-52 -103l-58 -273h-111l106 504h111l-15 -71q60 82 163 82z" />
    <glyph glyph-name="Ncommaaccent" unicode="&#x145;" 
d="M551 700h120l-149 -700h-109l-158 487l-104 -487h-119l149 700h111l155 -489zM136 -253l64 191h146l-131 -191h-79z" />
    <glyph glyph-name="ncommaaccent" unicode="&#x146;" 
d="M412 515q94 0 136 -63.5t20 -166.5l-60 -285h-111l59 280q13 63 -11.5 98t-80.5 35q-58 0 -96 -37t-52 -103l-58 -273h-111l106 504h111l-15 -71q60 82 163 82zM139 -253l64 191h146l-131 -191h-79z" />
    <glyph glyph-name="Ncaron" unicode="&#x147;" 
d="M501 770h-132l-69 170h98l48 -102l92 102h105zM551 700h120l-149 -700h-109l-158 487l-104 -487h-119l149 700h111l155 -489z" />
    <glyph glyph-name="ncaron" unicode="&#x148;" 
d="M473 566h-125l-70 160h91l52 -85l89 85h100zM412 515q94 0 136 -63.5t20 -166.5l-60 -285h-111l59 280q13 63 -11.5 98t-80.5 35q-58 0 -96 -37t-52 -103l-58 -273h-111l106 504h111l-15 -71q60 82 163 82z" />
    <glyph glyph-name="Eng" unicode="&#x14a;" 
d="M671 700l-159 -749q-16 -72 -72.5 -118t-128.5 -46q-49 0 -104 12l21 103q48 -17 85 -17q28 0 53 19t31 48l12 59l-154 476l-104 -487h-119l149 700h111l155 -489l104 489h120z" />
    <glyph glyph-name="eng" unicode="&#x14b;" 
d="M412 515q94 0 136 -63.5t20 -166.5l-60 -285l-12 -53q-15 -69 -73.5 -114.5t-136.5 -45.5q-51 0 -90 13l22 101q35 -16 70 -16q42 0 67 19.5t32 48.5l10 47l59 280q13 63 -11.5 98t-80.5 35q-58 0 -96 -37t-52 -103l-58 -273h-111l106 504h111l-15 -71q60 82 163 82z" />
    <glyph glyph-name="Omacron" unicode="&#x14c;" 
d="M312 814l17 82h276l-17 -82h-276zM299 -11q-110 0 -173.5 73.5t-63.5 200.5q0 58 11.5 118t38 120t65 106t97.5 75t130 29q109 0 172 -73.5t63 -200.5q0 -58 -11.5 -117.5t-37.5 -119.5t-64 -106.5t-97 -75.5t-130 -29zM305 92q45 0 82 25t60 63.5t38.5 87.5t22 93.5
t6.5 83.5q0 75 -31.5 119t-86.5 44q-56 0 -99 -37.5t-65.5 -95.5t-33.5 -114.5t-11 -106.5q0 -75 31.5 -118.5t86.5 -43.5z" />
    <glyph glyph-name="omacron" unicode="&#x14d;" 
d="M279 697h280l-18 -82h-280zM304 -11q-105 0 -171 65.5t-66 169.5q0 119 82.5 204.5t205.5 85.5q105 0 171.5 -65t66.5 -169q0 -119 -83 -205t-206 -86zM307 85q76 0 124.5 59t48.5 136q0 62 -34.5 100.5t-93.5 38.5q-75 0 -123.5 -58.5t-48.5 -135.5q0 -63 34 -101.5
t93 -38.5z" />
    <glyph glyph-name="Ohungarumlaut" unicode="&#x150;" 
d="M299 770l95 170h146l-146 -170h-95zM501 770l95 170h146l-146 -170h-95zM299 -11q-110 0 -173.5 73.5t-63.5 200.5q0 58 11.5 118t38 120t65 106t97.5 75t130 29q109 0 172 -73.5t63 -200.5q0 -58 -11.5 -117.5t-37.5 -119.5t-64 -106.5t-97 -75.5t-130 -29zM305 92
q45 0 82 25t60 63.5t38.5 87.5t22 93.5t6.5 83.5q0 75 -31.5 119t-86.5 44q-56 0 -99 -37.5t-65.5 -95.5t-33.5 -114.5t-11 -106.5q0 -75 31.5 -118.5t86.5 -43.5z" />
    <glyph glyph-name="ohungarumlaut" unicode="&#x151;" 
d="M259 572l84 158h149l-150 -158h-83zM441 572l84 158h149l-150 -158h-83zM304 -11q-105 0 -171 65.5t-66 169.5q0 119 82.5 204.5t205.5 85.5q105 0 171.5 -65t66.5 -169q0 -119 -83 -205t-206 -86zM307 85q76 0 124.5 59t48.5 136q0 62 -34.5 100.5t-93.5 38.5
q-75 0 -123.5 -58.5t-48.5 -135.5q0 -63 34 -101.5t93 -38.5z" />
    <glyph glyph-name="OE" unicode="&#x152;" 
d="M700 596h-198l-41 -192h174l-21 -99h-174l-41 -196l-1 -5h198l-22 -104h-319q-89 0 -149 74.5t-60 186.5q0 186 97 312.5t260 126.5h320zM280 106h7l89 419l15 72h-6q-68 0 -120 -51t-77 -124.5t-25 -152.5q0 -69 33.5 -116t83.5 -47z" />
    <glyph glyph-name="oe" unicode="&#x153;" 
d="M376 226q-4 -25 -4 -52q0 -87 54 -87q49 0 81 79h106q-37 -94 -85 -135t-112 -41q-88 0 -117 74q-57 -74 -142 -74q-68 0 -104 47t-36 137q0 55 13.5 112t39 109.5t71 86t102.5 33.5q83 0 114 -74q55 74 139 74q68 0 105 -47t37 -130q0 -56 -12 -112h-250zM169 87
q28 0 51 26t36 65t20.5 79.5t7.5 74.5q0 85 -51 85q-29 0 -52 -26.5t-36.5 -66.5t-20.5 -80t-7 -72q0 -85 52 -85zM487 417q-59 0 -94 -110h147q1 8 1 24q0 86 -54 86z" />
    <glyph glyph-name="Racute" unicode="&#x154;" 
d="M653 940l-175 -156h-102l110 156h167zM434 700q95 0 154.5 -49t59.5 -130q0 -78 -52.5 -134t-138.5 -77l92 -310h-131l-74 301h-119l-62 -301h-122l146 700h247zM390 400q59 0 99.5 32t40.5 80q0 39 -31 63.5t-78 24.5h-133l-42 -200h144z" />
    <glyph glyph-name="racute" unicode="&#x155;" 
d="M657 730l-168 -150h-102l115 150h155zM372 403q41 57 108.5 83t172.5 26l-24 -114q-65 4 -112 -1t-78 -17.5t-52 -38t-33 -54.5t-23 -73l-25 -119h197l-20 -95h-436l20 95h129l67 314h-130l21 95h239z" />
    <glyph glyph-name="Rcommaaccent" unicode="&#x156;" 
d="M648 521q0 -78 -52.5 -134t-138.5 -77l92 -310h-131l-74 301h-119l-62 -301h-122l146 700h247q95 0 154.5 -49t59.5 -130zM390 400q59 0 99.5 32t40.5 80q0 39 -31 63.5t-78 24.5h-133l-42 -200h144zM137 -253l64 191h146l-131 -191h-79z" />
    <glyph glyph-name="rcommaaccent" unicode="&#x157;" 
d="M372 403q41 57 108.5 83t172.5 26l-24 -114q-65 4 -112 -1t-78 -17.5t-52 -38t-33 -54.5t-23 -73l-25 -119h197l-20 -95h-436l20 95h129l67 314h-130l21 95h239zM77 -253l64 191h146l-131 -191h-79z" />
    <glyph glyph-name="Rcaron" unicode="&#x158;" 
d="M473 771h-132l-69 170h98l48 -102l92 102h105zM648 521q0 -78 -52.5 -134t-138.5 -77l92 -310h-131l-74 301h-119l-62 -301h-122l146 700h247q95 0 154.5 -49t59.5 -130zM390 400q59 0 99.5 32t40.5 80q0 39 -31 63.5t-78 24.5h-133l-42 -200h144z" />
    <glyph glyph-name="rcaron" unicode="&#x159;" 
d="M501 566h-125l-70 160h91l52 -85l89 85h100zM372 403q41 57 108.5 83t172.5 26l-24 -114q-65 4 -112 -1t-78 -17.5t-52 -38t-33 -54.5t-23 -73l-25 -119h197l-20 -95h-436l20 95h129l67 314h-130l21 95h239z" />
    <glyph glyph-name="Sacute" unicode="&#x15a;" 
d="M351 784l110 156h167l-175 -156h-102zM176 246q0 -75 40.5 -117t111.5 -42q63 0 97 32t34 78q0 37 -27 58.5t-97 48.5q-110 41 -157 81t-47 116q0 92 64.5 151.5t185.5 59.5q118 0 181 -60.5t63 -175.5h-121q0 138 -126 138q-62 0 -93.5 -29.5t-31.5 -73.5q0 -21 6.5 -35
t29 -27.5t39.5 -21t64 -25.5q43 -16 69 -29t57.5 -36t47 -56.5t15.5 -77.5q0 -91 -67.5 -153t-192.5 -62q-124 0 -195.5 66t-71.5 192h122z" />
    <glyph glyph-name="sacute" unicode="&#x15b;" 
d="M316 580l115 150h155l-168 -150h-102zM311 -10q-105 0 -172 48t-63 140h112q-1 -49 35 -74.5t95 -25.5q50 0 79 17.5t29 48.5q0 41 -59 57l-113 29q-124 32 -124 127q0 72 60.5 114.5t156.5 42.5q61 0 111 -17.5t83 -55.5t34 -92h-110q-3 41 -38 60t-82 19
q-46 0 -74.5 -17t-28.5 -46q0 -19 15.5 -30.5t48.5 -20.5l105 -29q64 -18 96 -49t32 -81q0 -73 -62.5 -119t-165.5 -46z" />
    <glyph glyph-name="Scedilla" unicode="&#x15e;" 
d="M392 402q43 -16 69 -29t57.5 -36t47 -56.5t15.5 -77.5q0 -91 -67.5 -153t-191.5 -62l-21 -49h3q35 0 61.5 -24.5t26.5 -61.5q0 -43 -34.5 -71.5t-85.5 -28.5q-53 0 -86 29t-34 75l80 9q-2 -19 8.5 -32t30.5 -13q17 0 28 9.5t11 24.5q0 16 -12 26t-31 10h-31l-10 35l40 66
q-100 14 -156 78.5t-56 175.5h122q0 -75 40.5 -117t111.5 -42q63 0 97 32t34 78q0 37 -27 58.5t-97 48.5q-110 41 -157 81t-47 116q0 92 64.5 151.5t185.5 59.5q118 0 181 -60.5t63 -175.5h-121q0 138 -126 138q-62 0 -93.5 -29.5t-31.5 -73.5q0 -21 6.5 -35t29 -27.5
t39.5 -21t64 -25.5z" />
    <glyph glyph-name="scedilla" unicode="&#x15f;" 
d="M411 285q64 -18 96 -49t32 -81q0 -72 -61.5 -118t-163.5 -47l-22 -51h3q35 0 61.5 -24.5t26.5 -61.5q0 -43 -34.5 -71.5t-85.5 -28.5q-53 0 -86 29t-34 75l80 9q-2 -19 8.5 -32t30.5 -13q17 0 28 9.5t11 24.5q0 16 -12 26t-31 10h-31l-10 35l41 67q-85 12 -135.5 59
t-46.5 126h112q-1 -49 35 -74.5t95 -25.5q50 0 79 17.5t29 48.5q0 41 -59 57l-113 29q-124 32 -124 127q0 72 60.5 114.5t156.5 42.5q61 0 111 -17.5t83 -55.5t34 -92h-110q-3 41 -38 60t-82 19q-46 0 -74.5 -17t-28.5 -46q0 -19 15.5 -30.5t48.5 -20.5z" />
    <glyph glyph-name="Scaron" unicode="&#x160;" 
d="M261 940h98l48 -102l92 102h105l-142 -170h-132zM176 246q0 -75 40.5 -117t111.5 -42q63 0 97 32t34 78q0 37 -27 58.5t-97 48.5q-110 41 -157 81t-47 116q0 92 64.5 151.5t185.5 59.5q118 0 181 -60.5t63 -175.5h-121q0 138 -126 138q-62 0 -93.5 -29.5t-31.5 -73.5
q0 -21 6.5 -35t29 -27.5t39.5 -21t64 -25.5q43 -16 69 -29t57.5 -36t47 -56.5t15.5 -77.5q0 -91 -67.5 -153t-192.5 -62q-124 0 -195.5 66t-71.5 192h122z" />
    <glyph glyph-name="scaron" unicode="&#x161;" 
d="M255 726h91l52 -85l89 85h100l-137 -160h-125zM311 -10q-105 0 -172 48t-63 140h112q-1 -49 35 -74.5t95 -25.5q50 0 79 17.5t29 48.5q0 41 -59 57l-113 29q-124 32 -124 127q0 72 60.5 114.5t156.5 42.5q61 0 111 -17.5t83 -55.5t34 -92h-110q-3 41 -38 60t-82 19
q-46 0 -74.5 -17t-28.5 -46q0 -19 15.5 -30.5t48.5 -20.5l105 -29q64 -18 96 -49t32 -81q0 -73 -62.5 -119t-165.5 -46z" />
    <glyph glyph-name="uni0162" unicode="&#x162;" 
d="M336 0h-37l-26 -61h3q35 0 61.5 -24.5t26.5 -61.5q0 -43 -34.5 -71.5t-85.5 -28.5q-53 0 -86 29t-34 75l80 9q-2 -19 8.5 -32t30.5 -13q17 0 28 9.5t11 24.5q0 16 -12 26t-31 10h-31l-10 35l45 74h-28l127 596h-229l22 104h580l-22 -104h-230z" />
    <glyph glyph-name="uni0163" unicode="&#x163;" 
d="M340 409l-45 -211q-11 -52 16.5 -82t82.5 -30q38 0 74 9.5t97 40.5l-23 -113q-13 -5 -25.5 -9.5t-22 -7.5t-20.5 -6t-18 -4.5t-17 -2.5t-14.5 -1.5t-14.5 -1t-12.5 -0.5h-13h-11.5h-10l-22 -51h3q35 0 61.5 -24.5t26.5 -61.5q0 -43 -34.5 -71.5t-85.5 -28.5q-53 0 -86 29
t-34 75l80 9q-2 -19 8.5 -32t30.5 -13q17 0 28 9.5t11 24.5q0 16 -12 26t-31 10h-31l-10 35l43 71q-72 17 -106.5 71t-17.5 132l44 209h-163l21 95h55q64 0 91 23.5t41 90.5l10 44h109l-33 -158h304l-20 -95h-304z" />
    <glyph glyph-name="Tcaron" unicode="&#x164;" 
d="M510 770h-132l-69 170h98l48 -102l92 102h105zM715 700l-22 -104h-230l-127 -596h-121l127 596h-229l22 104h580z" />
    <glyph glyph-name="tcaron" unicode="&#x165;" 
d="M506 765h118l-105 -202h-75zM644 409h-304l-45 -211q-11 -52 16.5 -82t82.5 -30q38 0 74 9.5t97 40.5l-23 -113q-13 -5 -25.5 -9.5t-22 -7.5t-20.5 -6t-18 -4.5t-17 -2.5t-14.5 -1.5t-14.5 -1t-12.5 -0.5h-13h-11.5q-102 0 -155.5 58t-32.5 152l44 209h-163l21 95h55
q64 0 91 23.5t41 90.5l10 44h109l-33 -158h304z" />
    <glyph glyph-name="Tbar" unicode="&#x166;" 
d="M693 596h-230l-43 -203h144l-20 -88h-143l-65 -305h-121l65 305h-140l20 88h139l43 203h-229l22 104h580z" />
    <glyph glyph-name="tbar" unicode="&#x167;" 
d="M644 409h-304l-19 -91h246l-13 -69h-248l-11 -51q-11 -52 16.5 -82t82.5 -30q38 0 74 9.5t97 40.5l-23 -113q-13 -5 -25.5 -9.5t-22 -7.5t-20.5 -6t-18 -4.5t-17 -2.5t-14.5 -1.5t-14.5 -1t-12.5 -0.5h-13h-11.5q-102 0 -155.5 58t-32.5 152l10 49h-160l14 69h161l19 91
h-163l21 95h55q64 0 91 23.5t41 90.5l10 44h109l-33 -158h304z" />
    <glyph glyph-name="Umacron" unicode="&#x16a;" 
d="M312 814l17 82h276l-17 -82h-276zM688 700l-102 -482q-22 -108 -98.5 -168.5t-185.5 -60.5q-129 0 -192.5 81t-36.5 208l89 422h123l-93 -437q-16 -76 16.5 -122.5t101.5 -46.5q60 0 101.5 38t55.5 105l98 463h123z" />
    <glyph glyph-name="umacron" unicode="&#x16b;" 
d="M559 697l-18 -82h-280l18 82h280zM613 504l-106 -504h-111l15 71q-60 -82 -163 -82q-94 0 -136 63.5t-20 166.5l60 285h111l-59 -280q-13 -63 11.5 -98t80.5 -35q58 0 96 37t52 103l58 273h111z" />
    <glyph glyph-name="Uring" unicode="&#x16e;" 
d="M451 746q-44 0 -73.5 27.5t-29.5 68.5q0 49 36.5 82t84.5 33q44 0 74 -27t30 -68q0 -50 -37 -83t-85 -33zM455 802q21 0 37 16t16 40q0 19 -12 31t-31 12q-21 0 -36.5 -16t-15.5 -40q0 -18 11.5 -30.5t30.5 -12.5zM688 700l-102 -482q-22 -108 -98.5 -168.5t-185.5 -60.5
q-129 0 -192.5 81t-36.5 208l89 422h123l-93 -437q-16 -76 16.5 -122.5t101.5 -46.5q60 0 101.5 38t55.5 105l98 463h123z" />
    <glyph glyph-name="uring" unicode="&#x16f;" 
d="M406 561q-43 0 -73 27.5t-30 69.5q0 48 36.5 80t83.5 32q43 0 73 -27.5t30 -69.5q0 -47 -36 -79.5t-84 -32.5zM418 715q-21 0 -36.5 -15t-15.5 -38q0 -21 13.5 -33.5t31.5 -12.5q22 0 37 16t15 38q0 21 -13 33t-32 12zM613 504l-106 -504h-111l15 71q-60 -82 -163 -82
q-94 0 -136 63.5t-20 166.5l60 285h111l-59 -280q-13 -63 11.5 -98t80.5 -35q58 0 96 37t52 103l58 273h111z" />
    <glyph glyph-name="Uhungarumlaut" unicode="&#x170;" 
d="M280 770l95 170h146l-146 -170h-95zM482 770l95 170h146l-146 -170h-95zM688 700l-102 -482q-22 -108 -98.5 -168.5t-185.5 -60.5q-129 0 -192.5 81t-36.5 208l89 422h123l-93 -437q-16 -76 16.5 -122.5t101.5 -46.5q60 0 101.5 38t55.5 105l98 463h123z" />
    <glyph glyph-name="uhungarumlaut" unicode="&#x171;" 
d="M486 730l-150 -158h-83l84 158h149zM518 572h-83l84 158h149zM502 504h111l-106 -504h-111l15 71q-60 -82 -163 -82q-94 0 -136 63.5t-20 166.5l60 285h111l-59 -280q-13 -63 11.5 -98t80.5 -35q58 0 96 37t52 103z" />
    <glyph glyph-name="Uogonek" unicode="&#x172;" 
d="M565 700h123l-102 -482q-22 -106 -95 -166q-83 -67 -103.5 -89t-20.5 -44q0 -13 9.5 -21t24.5 -8q29 0 56 10l-17 -80q-44 -11 -82 -11q-46 0 -76 20t-30 51t20.5 55.5t75.5 56.5q-22 -3 -46 -3q-129 0 -192.5 81t-36.5 208l89 422h123l-93 -437q-16 -76 16.5 -122.5
t101.5 -46.5q60 0 101.5 38t55.5 105z" />
    <glyph glyph-name="uogonek" unicode="&#x173;" 
d="M420 -83q0 -27 34 -27q29 0 56 10l-17 -80q-44 -11 -80 -11q-50 0 -75.5 21t-25.5 53q0 78 129 117h-45l15 71q-60 -82 -163 -82q-94 0 -136 63.5t-20 166.5l60 285h111l-59 -280q-13 -63 11.5 -98t80.5 -35q58 0 96 37t52 103l58 273h111l-106 -504q-34 -20 -48 -29.5
t-26.5 -24t-12.5 -29.5z" />
    <glyph glyph-name="Wcircumflex" unicode="&#x174;" 
d="M464 872l-92 -102h-105l142 170h132l69 -170h-98zM603 700h121l-236 -700h-112l-7 423l-185 -423h-119l62 700h121l-67 -511l169 384h96l6 -384z" />
    <glyph glyph-name="wcircumflex" unicode="&#x175;" 
d="M421 655l-89 -85h-100l137 160h125l70 -160h-91zM558 504h114l-189 -504h-114l-26 308l-157 -308h-116l25 504h111l-38 -370l150 287h93l29 -287z" />
    <glyph glyph-name="Ycircumflex" unicode="&#x176;" 
d="M453 872l-92 -102h-105l142 170h132l69 -170h-98zM718 700l-326 -443l-55 -257h-121l54 252l-137 448h131l83 -336l225 336h146z" />
    <glyph glyph-name="ycircumflex" unicode="&#x177;" 
d="M416 655l-89 -85h-100l137 160h125l70 -160h-91zM617 504l-108 -513q-21 -96 -90.5 -149t-167.5 -53q-100 0 -166 52t-70 138h113q5 -45 37.5 -72.5t85.5 -27.5q55 0 95.5 31t52.5 85l21 99q-64 -82 -172 -77q-94 3 -138 68t-23 163l54 256h113l-52 -248
q-12 -60 13.5 -99t82.5 -40q57 -2 99 35t56 103l53 249h111z" />
    <glyph glyph-name="Ydieresis" unicode="&#x178;" 
d="M411 927l-27 -131h-138l28 131h137zM650 927l-27 -131h-138l28 131h137zM718 700l-326 -443l-55 -257h-121l54 252l-137 448h131l83 -336l225 336h146z" />
    <glyph glyph-name="Zacute" unicode="&#x179;" 
d="M642 940l-175 -156h-102l110 156h167zM687 700l-21 -93l-486 -505h385l-22 -102h-533l19 94l491 504h-383l22 102h528z" />
    <glyph glyph-name="zacute" unicode="&#x17a;" 
d="M597 730l-168 -150h-102l115 150h155zM613 504l-18 -83l-377 -329h316l-20 -92h-473l17 81l385 331h-316l21 92h465z" />
    <glyph glyph-name="Zdotaccent" unicode="&#x17b;" 
d="M528 927l-28 -131h-138l28 131h138zM687 700l-21 -93l-486 -505h385l-22 -102h-533l19 94l491 504h-383l22 102h528z" />
    <glyph glyph-name="zdotaccent" unicode="&#x17c;" 
d="M480 717l-28 -131h-138l28 131h138zM613 504l-18 -83l-377 -329h316l-20 -92h-473l17 81l385 331h-316l21 92h465z" />
    <glyph glyph-name="Zcaron" unicode="&#x17d;" 
d="M493 770h-132l-69 170h98l48 -102l92 102h105zM687 700l-21 -93l-486 -505h385l-22 -102h-533l19 94l491 504h-383l22 102h528z" />
    <glyph glyph-name="zcaron" unicode="&#x17e;" 
d="M461 566h-125l-70 160h91l52 -85l89 85h100zM613 504l-18 -83l-377 -329h316l-20 -92h-473l17 81l385 331h-316l21 92h465z" />
    <glyph glyph-name="Scommaaccent" unicode="&#x218;" 
d="M176 246q0 -75 40.5 -117t111.5 -42q63 0 97 32t34 78q0 37 -27 58.5t-97 48.5q-110 41 -157 81t-47 116q0 92 64.5 151.5t185.5 59.5q118 0 181 -60.5t63 -175.5h-121q0 138 -126 138q-62 0 -93.5 -29.5t-31.5 -73.5q0 -21 6.5 -35t29 -27.5t39.5 -21t64 -25.5
q43 -16 69 -29t57.5 -36t47 -56.5t15.5 -77.5q0 -91 -67.5 -153t-192.5 -62q-124 0 -195.5 66t-71.5 192h122zM153 -253l64 191h146l-131 -191h-79z" />
    <glyph glyph-name="scommaaccent" unicode="&#x219;" 
d="M311 -10q-105 0 -172 48t-63 140h112q-1 -49 35 -74.5t95 -25.5q50 0 79 17.5t29 48.5q0 41 -59 57l-113 29q-124 32 -124 127q0 72 60.5 114.5t156.5 42.5q61 0 111 -17.5t83 -55.5t34 -92h-110q-3 41 -38 60t-82 19q-46 0 -74.5 -17t-28.5 -46q0 -19 15.5 -30.5
t48.5 -20.5l105 -29q64 -18 96 -49t32 -81q0 -73 -62.5 -119t-165.5 -46zM150 -253l64 191h146l-131 -191h-79z" />
    <glyph glyph-name="uni021A" unicode="&#x21a;" 
d="M715 700l-22 -104h-230l-127 -596h-121l127 596h-229l22 104h580zM125 -253l64 191h146l-131 -191h-79z" />
    <glyph glyph-name="uni021B" unicode="&#x21b;" 
d="M644 409h-304l-45 -211q-11 -52 16.5 -82t82.5 -30q38 0 74 9.5t97 40.5l-23 -113q-13 -5 -25.5 -9.5t-22 -7.5t-20.5 -6t-18 -4.5t-17 -2.5t-14.5 -1.5t-14.5 -1t-12.5 -0.5h-13h-11.5q-102 0 -155.5 58t-32.5 152l44 209h-163l21 95h55q64 0 91 23.5t41 90.5l10 44h109
l-33 -158h304zM193 -253l64 191h146l-131 -191h-79z" />
    <glyph glyph-name="circumflex" unicode="&#x2c6;" 
d="M564 570h-91l-52 85l-89 -85h-100l137 160h125z" />
    <glyph glyph-name="caron" unicode="&#x2c7;" 
d="M252 726h91l52 -85l89 85h100l-137 -160h-125z" />
    <glyph glyph-name="breve" unicode="&#x2d8;" 
d="M411 578q-72 0 -111 41.5t-26 102.5h91q-5 -28 9.5 -46t40.5 -18q24 0 43.5 17.5t26.5 46.5h105q-13 -66 -61.5 -105t-117.5 -39z" />
    <glyph glyph-name="dotaccent" unicode="&#x2d9;" 
d="M332 586l28 131h138l-28 -131h-138z" />
    <glyph glyph-name="ring" unicode="&#x2da;" 
d="M410 561q-43 0 -73 27.5t-30 69.5q0 48 36.5 80t83.5 32q43 0 73 -27.5t30 -69.5q0 -47 -36 -79.5t-84 -32.5zM415 616q22 0 37 16t15 38q0 21 -13 33t-32 12q-21 0 -36.5 -15t-15.5 -38q0 -21 13.5 -33.5t31.5 -12.5z" />
    <glyph glyph-name="ogonek" unicode="&#x2db;" 
d="M184 -117q0 43 44 77t137 53l14 -13q-34 -20 -48 -29.5t-26.5 -24t-12.5 -29.5q0 -27 34 -27q29 0 56 10l-17 -80q-44 -11 -80 -11q-50 0 -75.5 21t-25.5 53z" />
    <glyph glyph-name="tilde" unicode="&#x2dc;" 
d="M474 591q-28 0 -48.5 12.5t-35 25t-29.5 12.5q-32 0 -43 -43h-88q15 63 50.5 92.5t80.5 29.5q36 0 66 -24.5t46 -24.5q33 0 44 42h88q-13 -63 -48.5 -92.5t-82.5 -29.5z" />
    <glyph glyph-name="hungarumlaut" unicode="&#x2dd;" 
d="M234 572l84 158h149l-150 -158h-83zM416 572l84 158h149l-150 -158h-83z" />
    <glyph glyph-name="gravecomb" unicode="&#x300;" horiz-adv-x="0" 
d="M-161 784h-94l-99 156h150z" />
    <glyph glyph-name="acutecomb" unicode="&#x301;" horiz-adv-x="0" 
d="M-278 784l110 156h167l-175 -156h-102z" />
    <glyph glyph-name="uni0302" unicode="&#x302;" horiz-adv-x="0" 
d="M-49 770h-98l-48 102l-92 -102h-105l142 170h132z" />
    <glyph glyph-name="tildecomb" unicode="&#x303;" horiz-adv-x="0" 
d="M-139 787q-30 0 -51.5 13.5t-37.5 27.5t-32 14q-34 0 -47 -45h-86q15 64 51 95t81 31q37 0 70 -27t51 -27q34 0 46 44h87q-13 -62 -50 -94t-82 -32z" />
    <glyph glyph-name="uni0304" unicode="&#x304;" horiz-adv-x="0" 
d="M-349 814l17 82h276l-17 -82h-276z" />
    <glyph glyph-name="uni0306" unicode="&#x306;" horiz-adv-x="0" 
d="M-212 781q-70 0 -108 41t-25 102h90q-5 -27 9.5 -45t40.5 -18q23 0 43 18t28 45h105q-13 -62 -65 -102.5t-118 -40.5z" />
    <glyph glyph-name="uni0307" unicode="&#x307;" horiz-adv-x="0" 
d="M-289 796l28 131h138l-28 -131h-138z" />
    <glyph glyph-name="uni0308" unicode="&#x308;" horiz-adv-x="0" 
d="M-403 796l28 131h137l-27 -131h-138zM-164 796l28 131h137l-27 -131h-138z" />
    <glyph glyph-name="uni030A" unicode="&#x30a;" horiz-adv-x="0" 
d="M-212 746q-44 0 -73.5 27.5t-29.5 68.5q0 49 36.5 82t84.5 33q44 0 74 -27t30 -68q0 -50 -37 -83t-85 -33zM-208 802q21 0 37 16t16 40q0 19 -12 31t-31 12q-21 0 -36.5 -16t-15.5 -40q0 -18 11.5 -30.5t30.5 -12.5z" />
    <glyph glyph-name="uni030B" unicode="&#x30b;" horiz-adv-x="0" 
d="M-392 770l95 170h146l-146 -170h-95zM-190 770l95 170h146l-146 -170h-95z" />
    <glyph glyph-name="uni030C" unicode="&#x30c;" horiz-adv-x="0" 
d="M-391 940h98l48 -102l92 102h105l-142 -170h-132z" />
    <glyph glyph-name="uni0312" unicode="&#x312;" horiz-adv-x="0" 
d="M-219 761l-64 -191h-146l131 191h79z" />
    <glyph glyph-name="uni0326" unicode="&#x326;" horiz-adv-x="0" 
d="M-482 -253l64 191h146l-131 -191h-79z" />
    <glyph glyph-name="uni0327" unicode="&#x327;" horiz-adv-x="0" 
d="M-354 -134q-2 -19 8.5 -32t30.5 -13q17 0 28 9.5t11 24.5q0 16 -12 26t-31 10h-31l-10 35l45 74h56l-26 -61h3q35 0 61.5 -24.5t26.5 -61.5q0 -43 -34.5 -71.5t-85.5 -28.5q-53 0 -86 29t-34 75z" />
    <glyph glyph-name="uni0328" unicode="&#x328;" horiz-adv-x="0" 
d="M-453 -120q0 43 45 78.5t189 106.5l5 -13q-83 -67 -103.5 -89t-20.5 -44q0 -13 9.5 -21t24.5 -8q29 0 56 10l-17 -80q-44 -11 -82 -11q-46 0 -76 20t-30 51z" />
    <glyph glyph-name="uni0335" unicode="&#x335;" horiz-adv-x="0" 
d="M-491 425h396l-15 -69h-396z" />
    <glyph glyph-name="uni0336" unicode="&#x336;" horiz-adv-x="0" 
d="M-493 437h404l-20 -94h-404z" />
    <glyph glyph-name="uni0337" unicode="&#x337;" horiz-adv-x="0" 
d="M-78 525l44 -46l-537 -494l-41 47z" />
    <glyph glyph-name="uni0338" unicode="&#x338;" horiz-adv-x="0" 
d="M8 697l46 -51l-681 -629l-45 52z" />
    <glyph glyph-name="uni03BC" unicode="&#x3bc;" 
d="M620 504l-106 -504h-111l15 71q-60 -82 -163 -82q-58 0 -98 26l-46 -215h-102l150 704h111l-59 -280q-13 -63 11.5 -98t80.5 -35q58 0 96 37t52 103l58 273h111z" />
    <glyph glyph-name="Wgrave" unicode="&#x1e80;" 
d="M477 784h-94l-99 156h150zM603 700h121l-236 -700h-112l-7 423l-185 -423h-119l62 700h121l-67 -511l169 384h96l6 -384z" />
    <glyph glyph-name="wgrave" unicode="&#x1e81;" 
d="M434 580h-91l-105 150h153zM558 504h114l-189 -504h-114l-26 308l-157 -308h-116l25 504h111l-38 -370l150 287h93l29 -287z" />
    <glyph glyph-name="Wacute" unicode="&#x1e82;" 
d="M674 940l-175 -156h-102l110 156h167zM603 700h121l-236 -700h-112l-7 423l-185 -423h-119l62 700h121l-67 -511l169 384h96l6 -384z" />
    <glyph glyph-name="wacute" unicode="&#x1e83;" 
d="M614 730l-168 -150h-102l115 150h155zM558 504h114l-189 -504h-114l-26 308l-157 -308h-116l25 504h111l-38 -370l150 287h93l29 -287z" />
    <glyph glyph-name="Wdieresis" unicode="&#x1e84;" 
d="M422 927l-27 -131h-138l28 131h137zM661 927l-27 -131h-138l28 131h137zM603 700h121l-236 -700h-112l-7 423l-185 -423h-119l62 700h121l-67 -511l169 384h96l6 -384z" />
    <glyph glyph-name="wdieresis" unicode="&#x1e85;" 
d="M386 717l-27 -131h-138l28 131h137zM607 717l-27 -131h-138l28 131h137zM558 504h114l-189 -504h-114l-26 308l-157 -308h-116l25 504h111l-38 -370l150 287h93l29 -287z" />
    <glyph glyph-name="Ygrave" unicode="&#x1ef2;" 
d="M478 784h-94l-99 156h150zM718 700l-326 -443l-55 -257h-121l54 252l-137 448h131l83 -336l225 336h146z" />
    <glyph glyph-name="ygrave" unicode="&#x1ef3;" 
d="M447 580h-91l-105 150h153zM617 504l-108 -513q-21 -96 -90.5 -149t-167.5 -53q-100 0 -166 52t-70 138h113q5 -45 37.5 -72.5t85.5 -27.5q55 0 95.5 31t52.5 85l21 99q-64 -82 -172 -77q-94 3 -138 68t-23 163l54 256h113l-52 -248q-12 -60 13.5 -99t82.5 -40
q57 -2 99 35t56 103l53 249h111z" />
    <glyph glyph-name="endash" unicode="&#x2013;" 
d="M109 327h474l-19 -89h-474z" />
    <glyph glyph-name="emdash" unicode="&#x2014;" 
d="M73 327h546l-19 -89h-546z" />
    <glyph glyph-name="quoteleft" unicode="&#x2018;" 
d="M492 700l-77 -280h-152l150 280h79z" />
    <glyph glyph-name="quoteright" unicode="&#x2019;" 
d="M270 420l77 280h152l-150 -280h-79z" />
    <glyph glyph-name="quotesinglbase" unicode="&#x201a;" 
d="M150 -145l77 280h152l-150 -280h-79z" />
    <glyph glyph-name="quotedblleft" unicode="&#x201c;" 
d="M394 700l-77 -280h-152l150 280h79zM592 700l-77 -280h-152l150 280h79z" />
    <glyph glyph-name="quotedblright" unicode="&#x201d;" 
d="M188 420l77 280h152l-150 -280h-79zM386 420l77 280h152l-150 -280h-79z" />
    <glyph glyph-name="quotedblbase" unicode="&#x201e;" 
d="M68 -145l77 280h152l-150 -280h-79zM266 -145l77 280h152l-150 -280h-79z" />
    <glyph glyph-name="dagger" unicode="&#x2020;" 
d="M566 627l-16 -80h-117l-49 -232h-82l49 232h-115l16 80h116l25 116h82l-25 -116h116z" />
    <glyph glyph-name="daggerdbl" unicode="&#x2021;" 
d="M553 564h-116l-16 -76h116l-17 -80h-116l-20 -93h-82l20 93h-116l17 80h116l16 76h-116l17 80h116l21 99h82l-21 -99h116z" />
    <glyph glyph-name="bullet" unicode="&#x2022;" 
d="M345 171q-62 0 -106.5 44t-44.5 106v2q0 62 44.5 106t106.5 44q63 0 107.5 -44t44.5 -106v-2q0 -62 -44.5 -106t-107.5 -44z" />
    <glyph glyph-name="ellipsis" unicode="&#x2026;" 
d="M-19 0l30 145h151l-31 -145h-150zM201 0l30 145h151l-31 -145h-150zM422 0l30 145h151l-31 -145h-150z" />
    <glyph glyph-name="perthousand" unicode="&#x2030;" 
d="M211 432q-53 0 -85.5 34t-32.5 88q0 63 44 110t107 47q54 0 87.5 -35t33.5 -89q0 -64 -45 -109.5t-109 -45.5zM221 500q29 0 49.5 24t19.5 58q-1 26 -15.5 43t-37.5 17q-30 0 -50 -25t-19 -59q1 -25 15 -41.5t38 -16.5zM36 274l-11 53l665 183l12 -50zM170 -10
q-54 0 -86.5 34t-32.5 88q0 63 44.5 110t107.5 47q53 0 86.5 -35t33.5 -89q0 -64 -45 -109.5t-108 -45.5zM468 -10q-54 0 -86.5 34t-32.5 88q0 63 44.5 110t107.5 47q53 0 86.5 -35t33.5 -89q0 -64 -45 -109.5t-108 -45.5zM179 58q29 0 49.5 24t20.5 58q-1 26 -15.5 43
t-37.5 17q-30 0 -50.5 -25t-19.5 -59q1 -25 15.5 -41.5t37.5 -16.5zM477 58q29 0 49.5 24t20.5 58q-1 26 -15.5 43t-37.5 17q-30 0 -50.5 -25t-19.5 -59q1 -25 15.5 -41.5t37.5 -16.5z" />
    <glyph glyph-name="guilsinglleft" unicode="&#x2039;" 
d="M304 253l99 -170h-123l-98 178l173 178h130z" />
    <glyph glyph-name="guilsinglright" unicode="&#x203a;" 
d="M360 269l-99 170h123l98 -178l-173 -178h-130z" />
    <glyph glyph-name="fraction" unicode="&#x2044;" 
d="M470 432l-40 36l219 246l59 -50zM52 -11l-58 50l237 232l41 -36z" />
    <glyph glyph-name="uni2070" unicode="&#x2070;" 
d="M409 709q69 0 106 -42t37 -110q0 -90 -53 -158t-134 -68q-68 0 -105 42.5t-37 109.5q0 89 53.5 157.5t132.5 68.5zM404 641q-38 0 -62 -41t-31 -96l148 107q-15 30 -55 30zM370 398q42 0 67 48t29 109l-154 -113q11 -44 58 -44z" />
    <glyph glyph-name="uni2074" unicode="&#x2074;" 
d="M532 476l-15 -66h-55l-16 -75h-79l16 75h-176l-2 52q96 130 134 238h91q-43 -107 -129 -224h97l34 127h71l-27 -127h56z" />
    <glyph glyph-name="uni2075" unicode="&#x2075;" 
d="M540 631h-194l-27 -93q34 34 86 34q50 0 82.5 -29.5t32.5 -78.5q0 -58 -43.5 -96.5t-110.5 -38.5q-61 0 -100 32t-40 88h81q0 -27 17 -41t42 -14q30 0 50 20t20 49q0 24 -14.5 39t-38.5 15q-39 0 -63 -28l-75 24l50 187h260z" />
    <glyph glyph-name="uni2076" unicode="&#x2076;" 
d="M409 577q48 0 80 -30t32 -79q0 -57 -44 -97t-113 -40q-61 0 -98 35t-37 104q0 88 53 163.5t134 75.5q46 0 84.5 -25.5t39.5 -81.5h-84q0 21 -13.5 31.5t-31.5 10.5q-59 0 -83 -103q29 36 81 36zM371 393q28 0 48 19t20 50q0 28 -16.5 43t-41.5 15q-29 0 -48.5 -19.5
t-19.5 -48.5q0 -27 16 -43t42 -16z" />
    <glyph glyph-name="uni2077" unicode="&#x2077;" 
d="M280 700h288l-12 -55q-139 -109 -188 -307h-96l1 4q47 184 195 288h-203z" />
    <glyph glyph-name="uni2078" unicode="&#x2078;" 
d="M455 526q63 -22 63 -82q0 -51 -43 -81.5t-108 -30.5q-62 0 -103.5 27t-41.5 78q0 39 27 67.5t73 35.5q-51 20 -51 70q0 47 39.5 73.5t97.5 26.5q55 0 93.5 -25t38.5 -72q0 -35 -23 -57.5t-62 -29.5zM407 650q-25 0 -42.5 -14t-17.5 -36q0 -20 15.5 -32.5t38.5 -12.5
q25 0 42 14t17 36q0 21 -15.5 33t-37.5 12zM367 396q28 0 46.5 15t18.5 40q0 23 -15.5 36.5t-40.5 13.5q-28 0 -46.5 -17t-18.5 -41q0 -22 15.5 -34.5t40.5 -12.5z" />
    <glyph glyph-name="uni2079" unicode="&#x2079;" 
d="M410 704q61 0 98 -35t37 -104q0 -88 -53 -163.5t-134 -75.5q-46 0 -84.5 25.5t-39.5 81.5h84q0 -21 13.5 -31.5t31.5 -10.5q59 0 83 103q-29 -36 -81 -36q-48 0 -80 30t-32 79q0 57 44 97t113 40zM393 515q29 0 48.5 19.5t19.5 48.5q0 27 -16 43t-42 16q-28 0 -48 -19
t-20 -50q0 -28 16.5 -43t41.5 -15z" />
    <glyph glyph-name="uni2080" unicode="&#x2080;" 
d="M305 222q69 0 106 -42t37 -110q0 -90 -53 -158t-134 -68q-68 0 -105 42.5t-37 109.5q0 89 53.5 157.5t132.5 68.5zM300 154q-38 0 -62 -41t-31 -96l148 107q-15 30 -55 30zM266 -89q42 0 67 48t29 109l-154 -113q11 -44 58 -44z" />
    <glyph glyph-name="uni2081" unicode="&#x2081;" 
d="M309 -85h103l-15 -67h-300l14 67h111l47 219l-125 -53l19 90l144 42h66z" />
    <glyph glyph-name="uni2082" unicode="&#x2082;" 
d="M297 -47l-63 -36h164l-14 -67h-287l10 50l161 111q27 19 39.5 29t27.5 30t15 40t-13 32t-36 12q-55 0 -72 -68h-82q32 135 156 135q61 0 96 -29.5t35 -79.5q0 -28 -10 -51t-32.5 -43t-41.5 -32.5t-53 -32.5z" />
    <glyph glyph-name="uni2083" unicode="&#x2083;" 
d="M458 213l-14 -65l-127 -85q42 -8 67 -35.5t25 -68.5q0 -51 -41 -85t-102 -34q-65 0 -104 37.5t-37 93.5h79q0 -28 17.5 -46.5t45.5 -18.5q26 0 44.5 16t18.5 39q0 20 -15 34t-41 14h-40l-14 49l121 86h-167l15 69h269z" />
    <glyph glyph-name="uni2084" unicode="&#x2084;" 
d="M428 -11l-15 -66h-55l-16 -75h-79l16 75h-176l-2 52q96 130 134 238h91q-43 -107 -129 -224h97l34 127h71l-27 -127h56z" />
    <glyph glyph-name="uni2085" unicode="&#x2085;" 
d="M436 144h-194l-27 -93q34 34 86 34q50 0 82.5 -29.5t32.5 -78.5q0 -58 -43.5 -96.5t-110.5 -38.5q-61 0 -100 32t-40 88h81q0 -27 17 -41t42 -14q30 0 50 20t20 49q0 24 -14.5 39t-38.5 15q-39 0 -63 -28l-75 24l50 187h260z" />
    <glyph glyph-name="uni2086" unicode="&#x2086;" 
d="M305 90q48 0 80 -30t32 -79q0 -57 -44 -97t-113 -40q-61 0 -98 35t-37 104q0 88 53 163.5t134 75.5q46 0 84.5 -25.5t39.5 -81.5h-84q0 21 -13.5 31.5t-31.5 10.5q-59 0 -83 -103q29 36 81 36zM267 -94q28 0 48 19t20 50q0 28 -16.5 43t-41.5 15q-29 0 -48.5 -19.5
t-19.5 -48.5q0 -27 16 -43t42 -16z" />
    <glyph glyph-name="uni2087" unicode="&#x2087;" 
d="M176 213h288l-12 -55q-139 -109 -188 -307h-96l1 4q47 184 195 288h-203z" />
    <glyph glyph-name="uni2088" unicode="&#x2088;" 
d="M351 39q63 -22 63 -82q0 -51 -43 -81.5t-108 -30.5q-62 0 -103.5 27t-41.5 78q0 39 27 67.5t73 35.5q-51 20 -51 70q0 47 39.5 73.5t97.5 26.5q55 0 93.5 -25t38.5 -72q0 -35 -23 -57.5t-62 -29.5zM303 163q-25 0 -42.5 -14t-17.5 -36q0 -20 15.5 -32.5t38.5 -12.5
q25 0 42 14t17 36q0 21 -15.5 33t-37.5 12zM263 -91q28 0 46.5 15t18.5 40q0 23 -15.5 36.5t-40.5 13.5q-28 0 -46.5 -17t-18.5 -41q0 -22 15.5 -34.5t40.5 -12.5z" />
    <glyph glyph-name="uni2089" unicode="&#x2089;" 
d="M307 224q61 0 98 -35t37 -104q0 -88 -53 -163.5t-134 -75.5q-46 0 -84.5 25.5t-39.5 81.5h84q0 -21 13.5 -31.5t31.5 -10.5q59 0 83 103q-29 -36 -81 -36q-48 0 -80 30t-32 79q0 57 44 97t113 40zM290 35q29 0 48.5 19.5t19.5 48.5q0 27 -16 43t-42 16q-28 0 -48 -19
t-20 -50q0 -28 16.5 -43t41.5 -15z" />
    <glyph glyph-name="Euro" unicode="&#x20ac;" 
d="M322 86q110 0 166 146h116q-39 -116 -112.5 -179.5t-174.5 -63.5q-104 0 -167.5 65.5t-70.5 186.5h-61l15 68h46q3 45 13 84h-42l14 68h47q40 111 118.5 180.5t189.5 69.5q107 0 168 -65.5t61 -181.5h-114q0 71 -31 110.5t-89 39.5q-115 0 -181 -153h247l-14 -68h-256
q-11 -40 -16 -84h254l-15 -68h-242q4 -76 38.5 -115.5t92.5 -39.5z" />
    <glyph glyph-name="uni2117" unicode="&#x2117;" 
d="M394 711q123 0 198 -83t75 -214q0 -107 -46 -204.5t-131 -159t-187 -61.5q-123 0 -195 83t-72 215q0 107 45 204t128.5 158.5t184.5 61.5zM308 42q87 0 157.5 55t107.5 139t37 176q0 111 -59.5 178.5t-161.5 67.5q-86 0 -155 -54t-105 -137.5t-36 -177.5
q0 -112 56.5 -179.5t158.5 -67.5zM406 550q64 0 103.5 -38t31.5 -94q-8 -59 -56.5 -91.5t-121.5 -32.5h-71l-31 -144h-82l85 400h142zM462 419q4 27 -13.5 44.5t-49.5 17.5h-68l-25 -118h68q79 0 88 56z" />
    <glyph glyph-name="trademark" unicode="&#x2122;" 
d="M357 632h-90l-58 -271h-80l58 271h-91l15 68h261zM641 700h75l-72 -339h-78l46 213l-94 -99h-14l-52 101l-46 -215h-78l73 339h66l59 -129z" />
    <glyph glyph-name="uni2150" unicode="&#x2150;" 
d="M708 664l-238 -232l-40 36l219 246zM317 700l-64 -298h103l-15 -67h-300l14 67h111l47 219l-125 -53l19 90l144 42h66zM360 292l15 70h288l-12 -55q-139 -109 -188 -307h-96l1 4q47 184 195 288h-203zM-6 39l237 232l41 -36l-220 -246z" />
    <glyph glyph-name="uni2151" unicode="&#x2151;" 
d="M708 664l-238 -232l-40 36l219 246zM41 335l14 67h111l47 219l-125 -53l19 90l144 42h66l-64 -298h103l-15 -67h-300zM498 367q61 0 98 -35t37 -104q0 -88 -53 -163.5t-134 -75.5q-46 0 -84.5 25.5t-39.5 81.5h84q0 -21 13.5 -31.5t31.5 -10.5q59 0 83 103
q-29 -36 -81 -36q-48 0 -80 30t-32 79q0 57 44 97t113 40zM481 178q29 0 48.5 19.5t19.5 48.5q0 27 -16 43t-42 16q-28 0 -48 -19t-20 -50q0 -28 16.5 -43t41.5 -15zM-6 39l237 232l41 -36l-220 -246z" />
    <glyph glyph-name="uni2153" unicode="&#x2153;" 
d="M708 664l-238 -232l-40 36l219 246zM43 335l14 67h111l47 219l-125 -53l19 90l144 42h66l-64 -298h103l-15 -67h-300zM504 367q58 0 94 -27.5t36 -74.5q0 -35 -21 -60.5t-56 -33.5q50 -19 50 -70q0 -49 -41.5 -81t-103.5 -32q-66 0 -106.5 36t-37.5 93h82q-2 -28 16 -45
t48 -17q28 0 45.5 14.5t17.5 38.5q0 44 -59 44h-22l11 57h24q33 0 52.5 13t19.5 36q0 21 -15 32.5t-38 11.5q-54 0 -69 -55h-79q33 120 152 120zM-6 39l237 232l41 -36l-220 -246z" />
    <glyph glyph-name="uni2154" unicode="&#x2154;" 
d="M708 664l-238 -232l-40 36l219 246zM340 404l-14 -67h-287l10 50l161 111q27 19 39.5 29t27.5 30t15 40t-13 32t-36 12q-55 0 -72 -68h-82q32 135 156 135q61 0 96 -29.5t35 -79.5q0 -28 -10 -51t-32.5 -43t-41.5 -32.5t-53 -32.5l-63 -36h164zM494 367q58 0 94 -27.5
t36 -74.5q0 -35 -21 -60.5t-56 -33.5q50 -19 50 -70q0 -49 -41.5 -81t-103.5 -32q-66 0 -106.5 36t-37.5 93h82q-2 -28 16 -45t48 -17q28 0 45.5 14.5t17.5 38.5q0 44 -59 44h-22l11 57h24q33 0 52.5 13t19.5 36q0 21 -15 32.5t-38 11.5q-54 0 -69 -55h-79q33 120 152 120z
M-6 39l237 232l41 -36l-220 -246z" />
    <glyph glyph-name="uni2155" unicode="&#x2155;" 
d="M708 664l-238 -232l-40 36l219 246zM41 335l14 67h111l47 219l-125 -53l19 90l144 42h66l-64 -298h103l-15 -67h-300zM333 173l50 187h260l-15 -69h-194l-27 -93q34 34 86 34q50 0 82.5 -29.5t32.5 -78.5q0 -58 -43.5 -96.5t-110.5 -38.5q-61 0 -100 32t-40 88h81
q0 -27 17 -41t42 -14q30 0 50 20t20 49q0 24 -14.5 39t-38.5 15q-39 0 -63 -28zM-6 39l237 232l41 -36l-220 -246z" />
    <glyph glyph-name="uni2156" unicode="&#x2156;" 
d="M708 664l-238 -232l-40 36l219 246zM342 404l-14 -67h-287l10 50l161 111q27 19 39.5 29t27.5 30t15 40t-13 32t-36 12q-55 0 -72 -68h-82q32 135 156 135q61 0 96 -29.5t35 -79.5q0 -28 -10 -51t-32.5 -43t-41.5 -32.5t-53 -32.5l-63 -36h164zM333 173l50 187h260
l-15 -69h-194l-27 -93q34 34 86 34q50 0 82.5 -29.5t32.5 -78.5q0 -58 -43.5 -96.5t-110.5 -38.5q-61 0 -100 32t-40 88h81q0 -27 17 -41t42 -14q30 0 50 20t20 49q0 24 -14.5 39t-38.5 15q-39 0 -63 -28zM-6 39l237 232l41 -36l-220 -246z" />
    <glyph glyph-name="uni2157" unicode="&#x2157;" 
d="M708 664l-238 -232l-40 36l219 246zM210 327q-65 0 -104 37.5t-37 93.5h79q0 -28 17.5 -46.5t45.5 -18.5q26 0 44.5 16t18.5 39q0 20 -15 34t-41 14h-40l-14 49l121 86h-167l15 69h269l-14 -65l-127 -85q42 -8 67 -35.5t25 -68.5q0 -51 -41 -85t-102 -34zM333 173l50 187
h260l-15 -69h-194l-27 -93q34 34 86 34q50 0 82.5 -29.5t32.5 -78.5q0 -58 -43.5 -96.5t-110.5 -38.5q-61 0 -100 32t-40 88h81q0 -27 17 -41t42 -14q30 0 50 20t20 49q0 24 -14.5 39t-38.5 15q-39 0 -63 -28zM-6 39l237 232l41 -36l-220 -246z" />
    <glyph glyph-name="uni2158" unicode="&#x2158;" 
d="M708 664l-238 -232l-40 36l219 246zM357 410h-55l-16 -75h-79l16 75h-176l-2 52q96 130 134 238h91q-43 -107 -129 -224h97l34 127h71l-27 -127h56zM333 173l50 187h260l-15 -69h-194l-27 -93q34 34 86 34q50 0 82.5 -29.5t32.5 -78.5q0 -58 -43.5 -96.5t-110.5 -38.5
q-61 0 -100 32t-40 88h81q0 -27 17 -41t42 -14q30 0 50 20t20 49q0 24 -14.5 39t-38.5 15q-39 0 -63 -28zM-6 39l237 232l41 -36l-220 -246z" />
    <glyph glyph-name="uni2159" unicode="&#x2159;" 
d="M708 664l-238 -232l-40 36l219 246zM41 335l14 67h111l47 219l-125 -53l19 90l144 42h66l-64 -298h103l-15 -67h-300zM498 302q-59 0 -83 -103q29 36 81 36q48 0 80 -30t32 -79q0 -57 -44 -97t-113 -40q-61 0 -98 35t-37 104q0 88 53 163.5t134 75.5q46 0 84.5 -25.5
t39.5 -81.5h-84q0 21 -13.5 31.5t-31.5 10.5zM-6 39l237 232l41 -36l-220 -246zM468 178q-29 0 -48.5 -19.5t-19.5 -48.5q0 -27 16 -43t42 -16q28 0 48 19t20 50q0 28 -16.5 43t-41.5 15z" />
    <glyph glyph-name="uni215A" unicode="&#x215a;" 
d="M708 664l-238 -232l-40 36l219 246zM206 394q30 0 50 20t20 49q0 24 -14.5 39t-38.5 15q-39 0 -63 -28l-75 24l50 187h260l-15 -69h-194l-27 -93q34 34 86 34q50 0 82.5 -29.5t32.5 -78.5q0 -58 -43.5 -96.5t-110.5 -38.5q-61 0 -100 32t-40 88h81q0 -27 17 -41t42 -14z
M498 302q-59 0 -83 -103q29 36 81 36q48 0 80 -30t32 -79q0 -57 -44 -97t-113 -40q-61 0 -98 35t-37 104q0 88 53 163.5t134 75.5q46 0 84.5 -25.5t39.5 -81.5h-84q0 21 -13.5 31.5t-31.5 10.5zM-6 39l237 232l41 -36l-220 -246zM468 178q-29 0 -48.5 -19.5t-19.5 -48.5
q0 -27 16 -43t42 -16q28 0 48 19t20 50q0 28 -16.5 43t-41.5 15z" />
    <glyph glyph-name="oneeighth" unicode="&#x215b;" 
d="M708 664l-238 -232l-40 36l219 246zM41 335l14 67h111l47 219l-125 -53l19 90l144 42h66l-64 -298h103l-15 -67h-300zM627 269q0 -35 -23 -57.5t-62 -29.5q63 -22 63 -82q0 -51 -43 -81.5t-108 -30.5q-62 0 -103.5 27t-41.5 78q0 39 27 67.5t73 35.5q-51 20 -51 70
q0 47 39.5 73.5t97.5 26.5q55 0 93.5 -25t38.5 -72zM488 211q25 0 42 14t17 36q0 21 -15.5 33t-37.5 12q-25 0 -42.5 -14t-17.5 -36q0 -20 15.5 -32.5t38.5 -12.5zM-6 39l237 232l41 -36l-220 -246zM454 52q28 0 46.5 15t18.5 40q0 23 -15.5 36.5t-40.5 13.5
q-28 0 -46.5 -17t-18.5 -41q0 -22 15.5 -34.5t40.5 -12.5z" />
    <glyph glyph-name="threeeighths" unicode="&#x215c;" 
d="M708 664l-238 -232l-40 36l219 246zM210 327q-65 0 -104 37.5t-37 93.5h79q0 -28 17.5 -46.5t45.5 -18.5q26 0 44.5 16t18.5 39q0 20 -15 34t-41 14h-40l-14 49l121 86h-167l15 69h269l-14 -65l-127 -85q42 -8 67 -35.5t25 -68.5q0 -51 -41 -85t-102 -34zM627 269
q0 -35 -23 -57.5t-62 -29.5q63 -22 63 -82q0 -51 -43 -81.5t-108 -30.5q-62 0 -103.5 27t-41.5 78q0 39 27 67.5t73 35.5q-51 20 -51 70q0 47 39.5 73.5t97.5 26.5q55 0 93.5 -25t38.5 -72zM488 211q25 0 42 14t17 36q0 21 -15.5 33t-37.5 12q-25 0 -42.5 -14t-17.5 -36
q0 -20 15.5 -32.5t38.5 -12.5zM-6 39l237 232l41 -36l-220 -246zM454 52q28 0 46.5 15t18.5 40q0 23 -15.5 36.5t-40.5 13.5q-28 0 -46.5 -17t-18.5 -41q0 -22 15.5 -34.5t40.5 -12.5z" />
    <glyph glyph-name="fiveeighths" unicode="&#x215d;" 
d="M708 664l-238 -232l-40 36l219 246zM206 394q30 0 50 20t20 49q0 24 -14.5 39t-38.5 15q-39 0 -63 -28l-75 24l50 187h260l-15 -69h-194l-27 -93q34 34 86 34q50 0 82.5 -29.5t32.5 -78.5q0 -58 -43.5 -96.5t-110.5 -38.5q-61 0 -100 32t-40 88h81q0 -27 17 -41t42 -14z
M627 269q0 -35 -23 -57.5t-62 -29.5q63 -22 63 -82q0 -51 -43 -81.5t-108 -30.5q-62 0 -103.5 27t-41.5 78q0 39 27 67.5t73 35.5q-51 20 -51 70q0 47 39.5 73.5t97.5 26.5q55 0 93.5 -25t38.5 -72zM488 211q25 0 42 14t17 36q0 21 -15.5 33t-37.5 12q-25 0 -42.5 -14
t-17.5 -36q0 -20 15.5 -32.5t38.5 -12.5zM-6 39l237 232l41 -36l-220 -246zM454 52q28 0 46.5 15t18.5 40q0 23 -15.5 36.5t-40.5 13.5q-28 0 -46.5 -17t-18.5 -41q0 -22 15.5 -34.5t40.5 -12.5z" />
    <glyph glyph-name="seveneighths" unicode="&#x215e;" 
d="M708 664l-238 -232l-40 36l219 246zM113 342q47 184 195 288h-203l15 70h288l-12 -55q-139 -109 -188 -307h-96zM627 269q0 -35 -23 -57.5t-62 -29.5q63 -22 63 -82q0 -51 -43 -81.5t-108 -30.5q-62 0 -103.5 27t-41.5 78q0 39 27 67.5t73 35.5q-51 20 -51 70
q0 47 39.5 73.5t97.5 26.5q55 0 93.5 -25t38.5 -72zM488 211q25 0 42 14t17 36q0 21 -15.5 33t-37.5 12q-25 0 -42.5 -14t-17.5 -36q0 -20 15.5 -32.5t38.5 -12.5zM-6 39l237 232l41 -36l-220 -246zM454 52q28 0 46.5 15t18.5 40q0 23 -15.5 36.5t-40.5 13.5
q-28 0 -46.5 -17t-18.5 -41q0 -22 15.5 -34.5t40.5 -12.5z" />
    <glyph glyph-name="uni2189" unicode="&#x2189;" 
d="M720 664l-238 -232l-40 36l219 246zM216 331q-68 0 -105 42.5t-37 109.5q0 89 53.5 157.5t132.5 68.5q69 0 106 -42t37 -110q0 -90 -53 -158t-134 -68zM255 641q-38 0 -62 -41t-31 -96l148 107q-15 30 -55 30zM221 398q42 0 67 48t29 109l-154 -113q11 -44 58 -44z
M505 367q58 0 94 -27.5t36 -74.5q0 -35 -21 -60.5t-56 -33.5q50 -19 50 -70q0 -49 -41.5 -81t-103.5 -32q-66 0 -106.5 36t-37.5 93h82q-2 -28 16 -45t48 -17q28 0 45.5 14.5t17.5 38.5q0 44 -59 44h-22l11 57h24q33 0 52.5 13t19.5 36q0 21 -15 32.5t-38 11.5
q-54 0 -69 -55h-79q33 120 152 120zM6 39l237 232l41 -36l-220 -246z" />
    <glyph glyph-name="arrowleft" unicode="&#x2190;" 
d="M623 396v-102h-399l185 -177l-75 -77l-299 306l299 304l75 -76l-185 -178h399z" />
    <glyph glyph-name="arrowup" unicode="&#x2191;" 
d="M635 427l-76 -75l-178 185v-537h-102v537l-178 -185l-76 75l305 299z" />
    <glyph glyph-name="arrowright" unicode="&#x2192;" 
d="M325 650l299 -304l-299 -306l-75 77l185 177h-399v102h399l-185 178z" />
    <glyph glyph-name="arrowdown" unicode="&#x2193;" 
d="M558 347l76 -75l-305 -299l-305 299l76 75l178 -185v537h102v-537z" />
    <glyph glyph-name="uni2196" unicode="&#x2196;" 
d="M617 142l-73 -72l-379 383v-260l-100 -1v431h429l-1 -101h-261z" />
    <glyph glyph-name="uni2197" unicode="&#x2197;" 
d="M166 623h429v-431l-100 1v260l-379 -383l-73 72l385 380h-261z" />
    <glyph glyph-name="uni2198" unicode="&#x2198;" 
d="M495 507l100 1v-431h-429l1 101h261l-385 380l73 72l379 -383v260z" />
    <glyph glyph-name="uni2199" unicode="&#x2199;" 
d="M232 178h261l1 -101h-429v431l100 -1v-260l379 383l73 -72z" />
    <glyph glyph-name="emptyset" unicode="&#x2205;" 
d="M654 480l-93 -75q32 -53 32 -125q0 -119 -83 -205t-206 -86q-108 0 -173 68l-103 -83l-34 50l101 81q-28 53 -28 119q0 119 82.5 204.5t205.5 85.5q104 0 169 -63l97 78zM180 225q0 -25 6 -47l256 207q-36 34 -90 34q-75 0 -123.5 -58.5t-48.5 -135.5zM480 280
q0 27 -8 53l-258 -209q34 -39 93 -39q76 0 124.5 59t48.5 136z" />
    <glyph glyph-name="minus" unicode="&#x2212;" 
d="M110 390h497l-18 -89h-497z" />
    <glyph glyph-name="approxequal" unicode="&#x2248;" 
d="M109 380q16 71 60 104.5t97 33.5q40 0 121.5 -26t104.5 -26q52 0 63 54h81q-15 -71 -59.5 -104.5t-96.5 -33.5q-41 0 -122 26t-103 26q-25 0 -42 -14.5t-23 -39.5h-81zM67 179q15 71 59.5 104.5t97.5 33.5q40 0 121 -26t104 -26q24 0 41.5 15t21.5 40h81
q-15 -71 -59.5 -104.5t-96.5 -33.5q-41 0 -122 26t-103 26q-24 0 -41.5 -14.5t-22.5 -40.5h-81z" />
    <glyph glyph-name="notequal" unicode="&#x2260;" 
d="M611 408h-181l-93 -132h246l-17 -83h-287l-81 -115h-97l81 115h-113l17 83h154l93 132h-219l18 83h259l84 120h98l-84 -120h140z" />
    <glyph glyph-name="lessequal" unicode="&#x2264;" 
d="M645 591l-21 -99l-403 -124l351 -121l-19 -92l-451 177l17 82zM520 0h-489l16 79h489z" />
    <glyph glyph-name="greaterequal" unicode="&#x2265;" 
d="M159 591l451 -177l-17 -82l-527 -177l23 106l384 116l-334 119zM33 0l17 79h489l-17 -79h-489z" />
    <glyph glyph-name="uni25AA" unicode="&#x25aa;" 
d="M206 475h248v-250h-248v250z" />
    <glyph glyph-name="uni25AB" unicode="&#x25ab;" 
d="M206 474h248v-246h-248v246zM278 406v-110h104v110h-104z" />
    <glyph glyph-name="triagup" unicode="&#x25b2;" 
d="M752 0h-844l422 709z" />
    <glyph glyph-name="uni25B4" unicode="&#x25b4;" 
d="M480 228h-300l150 253z" />
    <glyph glyph-name="uni25B8" unicode="&#x25b8;" 
d="M217 211v300l253 -150z" />
    <glyph glyph-name="triagrt" unicode="&#x25ba;" 
d="M40 707l601 -357l-601 -357v714z" />
    <glyph glyph-name="triagdn" unicode="&#x25bc;" 
d="M752 700l-422 -709l-422 709h844z" />
    <glyph glyph-name="uni25BE" unicode="&#x25be;" 
d="M480 481l-150 -253l-150 253h300z" />
    <glyph glyph-name="uni25C2" unicode="&#x25c2;" 
d="M443 211l-253 150l253 150v-300z" />
    <glyph glyph-name="triaglf" unicode="&#x25c4;" 
d="M620 707v-714l-601 357z" />
    <glyph glyph-name="fi" unicode="&#xfb01;" 
d="M620 504l-106 -504h-110l85 409h-211l-86 -409h-111l87 409h-108l20 95h108l1 3q21 96 91.5 152.5t191.5 56.5q49 0 120 -13l-20 -96q-79 17 -124 17q-71 0 -104 -31t-45 -87v-2h321z" />
    <glyph glyph-name="I.case" 
d="M637 597h-173l-105 -493h174l-23 -104h-468l22 104h174l105 493h-174l22 103h468z" />
    <glyph glyph-name="Iacute.case" 
d="M672 941l-175 -156h-102l110 156h167zM169 597l22 103h468l-22 -103h-173l-105 -493h174l-23 -104h-468l22 104h174l105 493h-174z" />
    <glyph glyph-name="Icircumflex.case" 
d="M465 872l-92 -102h-105l142 170h132l69 -170h-98zM637 597h-173l-105 -493h174l-23 -104h-468l22 104h174l105 493h-174l22 103h468z" />
    <glyph glyph-name="Idieresis.case" 
d="M423 927l-27 -131h-138l28 131h137zM662 927l-27 -131h-138l28 131h137zM169 597l22 103h468l-22 -103h-173l-105 -493h174l-23 -104h-468l22 104h174l105 493h-174z" />
    <glyph glyph-name="Idotaccent.case" 
d="M544 927l-28 -131h-138l28 131h138zM637 597h-173l-105 -493h174l-23 -104h-468l22 104h174l105 493h-174l22 103h468z" />
    <glyph glyph-name="Igrave.case" 
d="M491 785h-94l-99 156h150zM637 597h-173l-105 -493h174l-23 -104h-468l22 104h174l105 493h-174l22 103h468z" />
    <glyph glyph-name="Imacron.case" 
d="M605 896l-17 -82h-276l17 82h276zM637 597h-173l-105 -493h174l-23 -104h-468l22 104h174l105 493h-174l22 103h468z" />
    <glyph glyph-name="Iogonek.case" 
d="M637 597h-173l-105 -493h174l-23 -104h-186q-34 -20 -48 -29.5t-26.5 -24t-12.5 -29.5q0 -27 34 -27q29 0 56 10l-17 -80q-44 -11 -80 -11q-50 0 -75.5 21t-25.5 53q0 78 129 117h-216l22 104h174l105 493h-174l22 103h468z" />
    <glyph glyph-name="J.ss01" 
d="M267 -7q-115 0 -224 71l27 125q112 -93 196 -93q57 0 103.5 35.5t57.5 89.5l101 479h122l-104 -499q-20 -92 -99.5 -150t-179.5 -58z" />
    <glyph glyph-name="Q.ss02" 
d="M299 -11q-110 0 -173.5 73.5t-63.5 200.5q0 58 11.5 118t38 120t65 106t97.5 75t130 29q109 0 172 -73.5t63 -200.5q0 -58 -11.5 -117.5t-37.5 -119.5t-64 -106.5t-97 -75.5t-130 -29zM305 92q45 0 82 25t60 63.5t38.5 87.5t22 93.5t6.5 83.5q0 75 -31.5 119t-86.5 44
q-56 0 -99 -37.5t-65.5 -95.5t-33.5 -114.5t-11 -106.5q0 -75 31.5 -118.5t86.5 -43.5zM568 -146h-273l20 89h273z" />
    <glyph glyph-name="R.ss03" 
d="M646 525q0 -84 -58.5 -136.5t-156.5 -64.5q52 -25 67 -98l44 -226h-132l-29 197q-10 69 -41.5 86t-110.5 17h-4l-62 -300h-122l146 700h245q94 0 154 -49t60 -126zM388 400q59 0 99.5 32t40.5 80q0 39 -30.5 63.5t-78.5 24.5h-131l-42 -200h142z" />
    <glyph glyph-name="Racute.ss03" 
d="M642 940l-175 -156h-102l110 156h167zM646 525q0 -84 -58.5 -136.5t-156.5 -64.5q52 -25 67 -98l44 -226h-132l-29 197q-10 69 -41.5 86t-110.5 17h-4l-62 -300h-122l146 700h245q94 0 154 -49t60 -126zM388 400q59 0 99.5 32t40.5 80q0 39 -30.5 63.5t-78.5 24.5h-131
l-42 -200h142z" />
    <glyph glyph-name="Rcaron.ss03" 
d="M476 770h-132l-69 170h98l48 -102l92 102h105zM646 525q0 -84 -58.5 -136.5t-156.5 -64.5q52 -25 67 -98l44 -226h-132l-29 197q-10 69 -41.5 86t-110.5 17h-4l-62 -300h-122l146 700h245q94 0 154 -49t60 -126zM388 400q59 0 99.5 32t40.5 80q0 39 -30.5 63.5
t-78.5 24.5h-131l-42 -200h142z" />
    <glyph glyph-name="Rcommaaccent.ss03" 
d="M646 525q0 -84 -58.5 -136.5t-156.5 -64.5q52 -25 67 -98l44 -226h-132l-29 197q-10 69 -41.5 86t-110.5 17h-4l-62 -300h-122l146 700h245q94 0 154 -49t60 -126zM388 400q59 0 99.5 32t40.5 80q0 39 -30.5 63.5t-78.5 24.5h-131l-42 -200h142zM140 -253l64 191h146
l-131 -191h-79z" />
    <glyph glyph-name="i.loclTRK" 
d="M476 717l-28 -133h-140l28 133h140zM463 87q55 0 125 31l-23 -110q-73 -17 -118 -17q-106 0 -166 63t-40 152l44 203h-200l20 95h311l-65 -305q-10 -47 23 -79.5t89 -32.5z" />
    <glyph glyph-name="a.ss04" 
d="M534 77q20 0 50 14l-20 -91q-23 -11 -53 -11q-49 0 -82.5 20t-41.5 59h-4q-49 -79 -157 -79q-74 0 -120.5 38.5t-46.5 103.5q0 77 67.5 123.5t179.5 46.5h118l3 15q10 48 -14.5 78t-73.5 30q-38 0 -70.5 -20.5t-43.5 -61.5h-116q26 88 88 130.5t144 42.5q104 0 158 -62
t35 -153l-38 -179q-4 -17 5.5 -30.5t32.5 -13.5zM258 76q57 0 95 34t50 88l5 24h-114q-62 0 -92 -23.5t-30 -57.5q0 -30 23 -47.5t63 -17.5z" />
    <glyph glyph-name="aacute.ss04" 
d="M578 730l-168 -150h-102l115 150h155zM534 77q20 0 50 14l-20 -91q-23 -11 -53 -11q-49 0 -82.5 20t-41.5 59h-4q-49 -79 -157 -79q-74 0 -120.5 38.5t-46.5 103.5q0 77 67.5 123.5t179.5 46.5h118l3 15q10 48 -14.5 78t-73.5 30q-38 0 -70.5 -20.5t-43.5 -61.5h-116
q26 88 88 130.5t144 42.5q104 0 158 -62t35 -153l-38 -179q-4 -17 5.5 -30.5t32.5 -13.5zM258 76q57 0 95 34t50 88l5 24h-114q-62 0 -92 -23.5t-30 -57.5q0 -30 23 -47.5t63 -17.5z" />
    <glyph glyph-name="abreve.ss04" 
d="M374 578q-72 0 -111 41.5t-26 102.5h91q-5 -28 9.5 -46t40.5 -18q24 0 43.5 17.5t26.5 46.5h105q-13 -66 -61.5 -105t-117.5 -39zM534 77q20 0 50 14l-20 -91q-23 -11 -53 -11q-49 0 -82.5 20t-41.5 59h-4q-49 -79 -157 -79q-74 0 -120.5 38.5t-46.5 103.5
q0 77 67.5 123.5t179.5 46.5h118l3 15q10 48 -14.5 78t-73.5 30q-38 0 -70.5 -20.5t-43.5 -61.5h-116q26 88 88 130.5t144 42.5q104 0 158 -62t35 -153l-38 -179q-4 -17 5.5 -30.5t32.5 -13.5zM258 76q57 0 95 34t50 88l5 24h-114q-62 0 -92 -23.5t-30 -57.5q0 -30 23 -47.5
t63 -17.5z" />
    <glyph glyph-name="acircumflex.ss04" 
d="M383 655l-89 -85h-100l137 160h125l70 -160h-91zM534 77q20 0 50 14l-20 -91q-23 -11 -53 -11q-49 0 -82.5 20t-41.5 59h-4q-49 -79 -157 -79q-74 0 -120.5 38.5t-46.5 103.5q0 77 67.5 123.5t179.5 46.5h118l3 15q10 48 -14.5 78t-73.5 30q-38 0 -70.5 -20.5
t-43.5 -61.5h-116q26 88 88 130.5t144 42.5q104 0 158 -62t35 -153l-38 -179q-4 -17 5.5 -30.5t32.5 -13.5zM258 76q57 0 95 34t50 88l5 24h-114q-62 0 -92 -23.5t-30 -57.5q0 -30 23 -47.5t63 -17.5z" />
    <glyph glyph-name="adieresis.ss04" 
d="M348 717l-27 -131h-138l28 131h137zM569 717l-27 -131h-138l28 131h137zM534 77q20 0 50 14l-20 -91q-23 -11 -53 -11q-49 0 -82.5 20t-41.5 59h-4q-49 -79 -157 -79q-74 0 -120.5 38.5t-46.5 103.5q0 77 67.5 123.5t179.5 46.5h118l3 15q10 48 -14.5 78t-73.5 30
q-38 0 -70.5 -20.5t-43.5 -61.5h-116q26 88 88 130.5t144 42.5q104 0 158 -62t35 -153l-38 -179q-4 -17 5.5 -30.5t32.5 -13.5zM258 76q57 0 95 34t50 88l5 24h-114q-62 0 -92 -23.5t-30 -57.5q0 -30 23 -47.5t63 -17.5z" />
    <glyph glyph-name="agrave.ss04" 
d="M449 580h-91l-105 150h153zM534 77q20 0 50 14l-20 -91q-23 -11 -53 -11q-49 0 -82.5 20t-41.5 59h-4q-49 -79 -157 -79q-74 0 -120.5 38.5t-46.5 103.5q0 77 67.5 123.5t179.5 46.5h118l3 15q10 48 -14.5 78t-73.5 30q-38 0 -70.5 -20.5t-43.5 -61.5h-116
q26 88 88 130.5t144 42.5q104 0 158 -62t35 -153l-38 -179q-4 -17 5.5 -30.5t32.5 -13.5zM258 76q57 0 95 34t50 88l5 24h-114q-62 0 -92 -23.5t-30 -57.5q0 -30 23 -47.5t63 -17.5z" />
    <glyph glyph-name="amacron.ss04" 
d="M526 697l-18 -82h-280l18 82h280zM534 77q20 0 50 14l-20 -91q-23 -11 -53 -11q-49 0 -82.5 20t-41.5 59h-4q-49 -79 -157 -79q-74 0 -120.5 38.5t-46.5 103.5q0 77 67.5 123.5t179.5 46.5h118l3 15q10 48 -14.5 78t-73.5 30q-38 0 -70.5 -20.5t-43.5 -61.5h-116
q26 88 88 130.5t144 42.5q104 0 158 -62t35 -153l-38 -179q-4 -17 5.5 -30.5t32.5 -13.5zM258 76q57 0 95 34t50 88l5 24h-114q-62 0 -92 -23.5t-30 -57.5q0 -30 23 -47.5t63 -17.5z" />
    <glyph glyph-name="aogonek.ss04" 
d="M477 -83q0 -27 34 -27q29 0 56 10l-17 -80q-44 -11 -80 -11q-50 0 -75.5 21t-25.5 53q0 69 106 109q-75 15 -88 76h-4q-49 -79 -157 -79q-74 0 -120.5 38.5t-46.5 103.5q0 77 67.5 123.5t179.5 46.5h118l3 15q10 48 -14.5 78t-73.5 30q-38 0 -70.5 -20.5t-43.5 -61.5
h-116q26 88 88 130.5t144 42.5q104 0 158 -62t35 -153l-38 -179q-4 -17 5.5 -30.5t32.5 -13.5q20 0 50 14l-20 -91q-34 -20 -48 -29.5t-26.5 -24t-12.5 -29.5zM258 76q57 0 95 34t50 88l5 24h-114q-62 0 -92 -23.5t-30 -57.5q0 -30 23 -47.5t63 -17.5z" />
    <glyph glyph-name="aring.ss04" 
d="M373 561q-43 0 -73 27.5t-30 69.5q0 48 36.5 80t83.5 32q43 0 73 -27.5t30 -69.5q0 -47 -36 -79.5t-84 -32.5zM385 715q-21 0 -36.5 -15t-15.5 -38q0 -21 13.5 -33.5t31.5 -12.5q22 0 37 16t15 38q0 21 -13 33t-32 12zM534 77q20 0 50 14l-20 -91q-23 -11 -53 -11
q-49 0 -82.5 20t-41.5 59h-4q-49 -79 -157 -79q-74 0 -120.5 38.5t-46.5 103.5q0 77 67.5 123.5t179.5 46.5h118l3 15q10 48 -14.5 78t-73.5 30q-38 0 -70.5 -20.5t-43.5 -61.5h-116q26 88 88 130.5t144 42.5q104 0 158 -62t35 -153l-38 -179q-4 -17 5.5 -30.5t32.5 -13.5z
M258 76q57 0 95 34t50 88l5 24h-114q-62 0 -92 -23.5t-30 -57.5q0 -30 23 -47.5t63 -17.5z" />
    <glyph glyph-name="atilde.ss04" 
d="M328 641q-32 0 -43 -43h-88q15 63 50.5 92.5t80.5 29.5q36 0 66 -24.5t46 -24.5q34 0 44 42h88q-13 -63 -48.5 -92.5t-82.5 -29.5q-37 0 -67 25t-46 25zM534 77q20 0 50 14l-20 -91q-23 -11 -53 -11q-49 0 -82.5 20t-41.5 59h-4q-49 -79 -157 -79q-74 0 -120.5 38.5
t-46.5 103.5q0 77 67.5 123.5t179.5 46.5h118l3 15q10 48 -14.5 78t-73.5 30q-38 0 -70.5 -20.5t-43.5 -61.5h-116q26 88 88 130.5t144 42.5q104 0 158 -62t35 -153l-38 -179q-4 -17 5.5 -30.5t32.5 -13.5zM258 76q57 0 95 34t50 88l5 24h-114q-62 0 -92 -23.5t-30 -57.5
q0 -30 23 -47.5t63 -17.5z" />
    <glyph glyph-name="g.ss05" 
d="M665 560l-22 -104q-71 0 -131 -5q42 -44 42 -101q0 -81 -68.5 -133.5t-165.5 -52.5q-57 0 -109 21q-22 -32 -22 -55q0 -28 32 -28h139q80 0 125.5 -39t45.5 -101q0 -77 -76.5 -125t-203.5 -48q-110 0 -178.5 39t-68.5 104q0 48 37 78t106 36q-58 15 -58 67q0 55 75 100
q-58 47 -58 116q0 82 67 134t163 52q78 0 138 -35q71 80 191 80zM321 240q50 0 83.5 31.5t33.5 78.5q0 38 -29 63.5t-72 25.5q-49 0 -83 -31.5t-34 -77.5q0 -38 29 -64t72 -26zM335 8h-140q-35 0 -55 -16t-20 -44q0 -34 36 -54t103 -20q78 0 115.5 23.5t37.5 56.5
q0 25 -19.5 39.5t-57.5 14.5z" />
    <glyph glyph-name="gbreve.ss05" 
d="M405 578q-72 0 -111 41.5t-26 102.5h91q-5 -28 9.5 -46t40.5 -18q24 0 43.5 17.5t26.5 46.5h105q-13 -66 -61.5 -105t-117.5 -39zM665 560l-22 -104q-71 0 -131 -5q42 -44 42 -101q0 -81 -68.5 -133.5t-165.5 -52.5q-57 0 -109 21q-22 -32 -22 -55q0 -28 32 -28h139
q80 0 125.5 -39t45.5 -101q0 -77 -76.5 -125t-203.5 -48q-110 0 -178.5 39t-68.5 104q0 48 37 78t106 36q-58 15 -58 67q0 55 75 100q-58 47 -58 116q0 82 67 134t163 52q78 0 138 -35q71 80 191 80zM321 240q50 0 83.5 31.5t33.5 78.5q0 38 -29 63.5t-72 25.5
q-49 0 -83 -31.5t-34 -77.5q0 -38 29 -64t72 -26zM335 8h-140q-35 0 -55 -16t-20 -44q0 -34 36 -54t103 -20q78 0 115.5 23.5t37.5 56.5q0 25 -19.5 39.5t-57.5 14.5z" />
    <glyph glyph-name="gcommaaccent.ss05" 
d="M508 761l-64 -191h-146l131 191h79zM665 560l-22 -104q-71 0 -131 -5q42 -44 42 -101q0 -81 -68.5 -133.5t-165.5 -52.5q-57 0 -109 21q-22 -32 -22 -55q0 -28 32 -28h139q80 0 125.5 -39t45.5 -101q0 -77 -76.5 -125t-203.5 -48q-110 0 -178.5 39t-68.5 104q0 48 37 78
t106 36q-58 15 -58 67q0 55 75 100q-58 47 -58 116q0 82 67 134t163 52q78 0 138 -35q71 80 191 80zM321 240q50 0 83.5 31.5t33.5 78.5q0 38 -29 63.5t-72 25.5q-49 0 -83 -31.5t-34 -77.5q0 -38 29 -64t72 -26zM335 8h-140q-35 0 -55 -16t-20 -44q0 -34 36 -54t103 -20
q78 0 115.5 23.5t37.5 56.5q0 25 -19.5 39.5t-57.5 14.5z" />
    <glyph glyph-name="gdotaccent.ss05" 
d="M477 717l-28 -131h-138l28 131h138zM665 560l-22 -104q-71 0 -131 -5q42 -44 42 -101q0 -81 -68.5 -133.5t-165.5 -52.5q-57 0 -109 21q-22 -32 -22 -55q0 -28 32 -28h139q80 0 125.5 -39t45.5 -101q0 -77 -76.5 -125t-203.5 -48q-110 0 -178.5 39t-68.5 104q0 48 37 78
t106 36q-58 15 -58 67q0 55 75 100q-58 47 -58 116q0 82 67 134t163 52q78 0 138 -35q71 80 191 80zM321 240q50 0 83.5 31.5t33.5 78.5q0 38 -29 63.5t-72 25.5q-49 0 -83 -31.5t-34 -77.5q0 -38 29 -64t72 -26zM335 8h-140q-35 0 -55 -16t-20 -44q0 -34 36 -54t103 -20
q78 0 115.5 23.5t37.5 56.5q0 25 -19.5 39.5t-57.5 14.5z" />
    <glyph glyph-name="l.ss06" 
d="M365 95h211l-20 -95h-528l20 95h207l109 510h-190l20 95h300z" />
    <glyph glyph-name="lacute.ss06" 
d="M678 926l-168 -150h-102l115 150h155zM494 700l-129 -605h211l-20 -95h-528l20 95h207l109 510h-190l20 95h300z" />
    <glyph glyph-name="lcaron.ss06" 
d="M597 763h118l-105 -202h-75zM494 700l-129 -605h211l-20 -95h-528l20 95h207l109 510h-190l20 95h300z" />
    <glyph glyph-name="lcommaaccent.ss06" 
d="M365 95h211l-20 -95h-528l20 95h207l109 510h-190l20 95h300zM139 -253l64 191h146l-131 -191h-79z" />
    <glyph glyph-name="lslash.ss06" 
d="M607 449l-182 -75l-60 -279h211l-20 -95h-528l20 95h207l49 230l-176 -72l19 88l176 72l41 192h-190l20 95h300l-51 -238l183 74z" />
    <glyph glyph-name="ldot.ss06" 
d="M494 700l-129 -605h211l-20 -95h-528l20 95h207l109 510h-190l20 95h300zM531 403h151l-31 -145h-150z" />
    <glyph glyph-name="y.ss07" 
d="M530 504h128l-434 -704h-129l131 187l-118 517h123l72 -399z" />
    <glyph glyph-name="yacute.ss07" 
d="M609 730l-168 -150h-102l115 150h155zM530 504h128l-434 -704h-129l131 187l-118 517h123l72 -399z" />
    <glyph glyph-name="ycircumflex.ss07" 
d="M414 655l-89 -85h-100l137 160h125l70 -160h-91zM530 504h128l-434 -704h-129l131 187l-118 517h123l72 -399z" />
    <glyph glyph-name="ydieresis.ss07" 
d="M379 717l-27 -131h-138l28 131h137zM600 717l-27 -131h-138l28 131h137zM530 504h128l-434 -704h-129l131 187l-118 517h123l72 -399z" />
    <glyph glyph-name="ygrave.ss07" 
d="M453 580h-91l-105 150h153zM530 504h128l-434 -704h-129l131 187l-118 517h123l72 -399z" />
    <glyph glyph-name="y.ss08" 
d="M529 504h133l-350 -573q-41 -68 -101.5 -105t-129.5 -37q-66 0 -120 27l23 103q60 -37 118 -37q34 0 66.5 22.5t53.5 58.5l12 22l-126 519h121l80 -388z" />
    <glyph glyph-name="yacute.ss08" 
d="M609 730l-168 -150h-102l115 150h155zM529 504h133l-350 -573q-41 -68 -101.5 -105t-129.5 -37q-66 0 -120 27l23 103q60 -37 118 -37q34 0 66.5 22.5t53.5 58.5l12 22l-126 519h121l80 -388z" />
    <glyph glyph-name="ycircumflex.ss08" 
d="M414 655l-89 -85h-100l137 160h125l70 -160h-91zM529 504h133l-350 -573q-41 -68 -101.5 -105t-129.5 -37q-66 0 -120 27l23 103q60 -37 118 -37q34 0 66.5 22.5t53.5 58.5l12 22l-126 519h121l80 -388z" />
    <glyph glyph-name="ydieresis.ss08" 
d="M379 717l-27 -131h-138l28 131h137zM600 717l-27 -131h-138l28 131h137zM529 504h133l-350 -573q-41 -68 -101.5 -105t-129.5 -37q-66 0 -120 27l23 103q60 -37 118 -37q34 0 66.5 22.5t53.5 58.5l12 22l-126 519h121l80 -388z" />
    <glyph glyph-name="ygrave.ss08" 
d="M446 580h-91l-105 150h153zM529 504h133l-350 -573q-41 -68 -101.5 -105t-129.5 -37q-66 0 -120 27l23 103q60 -37 118 -37q34 0 66.5 22.5t53.5 58.5l12 22l-126 519h121l80 -388z" />
    <glyph glyph-name="germandbls.ss09" 
d="M447 372q69 -17 108 -62.5t39 -113.5q0 -89 -64 -148t-164 -59q-66 0 -124 23l21 106q46 -29 100 -29t87.5 32t33.5 81q0 53 -42 85.5t-113 41.5l18 95q73 3 119 32.5t46 81.5q0 37 -26.5 60t-67.5 23q-47 0 -84.5 -31t-49.5 -88l-106 -502h-112l85 409h-92l20 95h92
l2 11q20 96 86 148.5t160 52.5q88 0 146 -46.5t58 -121.5q0 -69 -49 -115t-127 -61z" />
    <glyph glyph-name="i.ss13" 
d="M515 717l-28 -133h-140l28 133h140zM368 95h190l-21 -95h-490l21 95h189l67 314h-154l21 95h264z" />
    <glyph glyph-name="dotlessi.ss13" 
d="M368 95h190l-21 -95h-490l21 95h189l67 314h-154l21 95h264z" />
    <glyph glyph-name="iacute.ss13" 
d="M630 730l-168 -150h-102l115 150h155zM455 504l-87 -409h190l-21 -95h-490l21 95h189l67 314h-154l21 95h264z" />
    <glyph glyph-name="icircumflex.ss13" 
d="M435 655l-89 -85h-100l137 160h125l70 -160h-91zM455 504l-87 -409h190l-21 -95h-490l21 95h189l67 314h-154l21 95h264z" />
    <glyph glyph-name="idieresis.ss13" 
d="M400 717l-27 -131h-138l28 131h137zM484 717h137l-27 -131h-138zM455 504l-87 -409h190l-21 -95h-490l21 95h189l67 314h-154l21 95h264z" />
    <glyph glyph-name="i.loclTRK.ss13" 
d="M515 717l-28 -133h-140l28 133h140zM368 95h190l-21 -95h-490l21 95h189l67 314h-154l21 95h264z" />
    <glyph glyph-name="igrave.ss13" 
d="M439 580h-91l-105 150h153zM368 95h190l-21 -95h-490l21 95h189l67 314h-154l21 95h264z" />
    <glyph glyph-name="imacron.ss13" 
d="M298 697h280l-18 -82h-280zM455 504l-87 -409h190l-21 -95h-490l21 95h189l67 314h-154l21 95h264z" />
    <glyph glyph-name="iogonek.ss13" 
d="M515 717l-28 -133h-140l28 133h140zM368 95h190l-21 -95h-193q-34 -20 -48 -29.5t-26.5 -24t-12.5 -29.5q0 -27 34 -27q29 0 56 10l-17 -80q-44 -11 -80 -11q-50 0 -75.5 21t-25.5 53q0 78 129 117h-231l21 95h189l67 314h-154l21 95h264z" />
    <glyph glyph-name="a.sc" 
d="M451 0l-20 114h-249l-68 -114h-127l347 557h123l109 -557h-115zM237 207h178l-40 232z" />
    <glyph glyph-name="aacute.sc" 
d="M635 783l-168 -150h-102l115 150h155zM457 557l109 -557h-115l-20 114h-249l-68 -114h-127l347 557h123zM237 207h178l-40 232z" />
    <glyph glyph-name="abreve.sc" 
d="M424 631q-72 0 -111 41.5t-26 102.5h91q-5 -28 9.5 -46t40.5 -18q24 0 43.5 17.5t26.5 46.5h105q-13 -66 -61.5 -105t-117.5 -39zM457 557l109 -557h-115l-20 114h-249l-68 -114h-127l347 557h123zM237 207h178l-40 232z" />
    <glyph glyph-name="acircumflex.sc" 
d="M433 708l-89 -85h-100l137 160h125l70 -160h-91zM457 557l109 -557h-115l-20 114h-249l-68 -114h-127l347 557h123zM237 207h178l-40 232z" />
    <glyph glyph-name="adieresis.sc" 
d="M398 770l-27 -131h-138l28 131h137zM482 770h137l-27 -131h-138zM457 557l109 -557h-115l-20 114h-249l-68 -114h-127l347 557h123zM237 207h178l-40 232z" />
    <glyph glyph-name="agrave.sc" 
d="M451 633h-91l-105 150h153zM451 0l-20 114h-249l-68 -114h-127l347 557h123l109 -557h-115zM237 207h178l-40 232z" />
    <glyph glyph-name="amacron.sc" 
d="M576 750l-18 -82h-280l18 82h280zM457 557l109 -557h-115l-20 114h-249l-68 -114h-127l347 557h123zM237 207h178l-40 232z" />
    <glyph glyph-name="aogonek.sc" 
d="M513 -110q29 0 56 10l-17 -80q-44 -11 -80 -11q-50 0 -75.5 21t-25.5 53q0 78 129 117h-49l-20 114h-249l-68 -114h-127l347 557h123l109 -557q-34 -20 -48 -29.5t-26.5 -24t-12.5 -29.5q0 -27 34 -27zM237 207h178l-40 232z" />
    <glyph glyph-name="aring.sc" 
d="M423 614q-43 0 -73 27.5t-30 69.5q0 48 36.5 80t83.5 32q43 0 73 -27.5t30 -69.5q0 -47 -36 -79.5t-84 -32.5zM435 768q-21 0 -36.5 -15t-15.5 -38q0 -21 13.5 -33.5t31.5 -12.5q22 0 37 16t15 38q0 21 -13 33t-32 12zM451 0l-20 114h-249l-68 -114h-127l347 557h123
l109 -557h-115zM237 207h178l-40 232z" />
    <glyph glyph-name="atilde.sc" 
d="M534 766h88q-13 -63 -48.5 -92.5t-82.5 -29.5q-37 0 -67 25t-46 25q-32 0 -43 -43h-88q15 63 50.5 92.5t80.5 29.5q36 0 66 -24.5t46 -24.5q34 0 44 42zM457 557l109 -557h-115l-20 114h-249l-68 -114h-127l347 557h123zM237 207h178l-40 232z" />
    <glyph glyph-name="ae.sc" 
d="M668 462h-195l-28 -135h175l-19 -90h-175l-31 -142h195l-20 -95h-294l26 120h-144l-79 -120h-117l382 557h344zM218 212h103l50 234z" />
    <glyph glyph-name="b.sc" 
d="M461 283q104 -31 104 -125q0 -69 -61 -113.5t-153 -44.5h-313l118 557h292q67 0 108.5 -37t41.5 -94q0 -56 -37 -93t-100 -50zM257 467l-30 -139h129q55 0 87 20.5t32 59.5q0 25 -21.5 42t-54.5 17h-142zM332 91q50 0 82.5 24t32.5 59q0 65 -94 65h-145l-31 -148h155z
" />
    <glyph glyph-name="ordfeminine.sc" 
d="M600 557l-83 -387h-96l9 42h-2q-54 -51 -121 -51q-76 0 -126 51t-50 130q0 90 64 157t158 67q50 0 85 -20t51 -51l1 1l13 61h97zM362 486q-56 0 -94.5 -43t-38.5 -96q0 -47 29.5 -77.5t77.5 -30.5q56 0 93 41.5t37 97.5q0 49 -29 78.5t-75 29.5zM108 87h393l-18 -87h-393
z" />
    <glyph glyph-name="ordmasculine.sc" 
d="M333 162q-86 0 -144 53t-58 133q0 91 68.5 156t165.5 65q86 0 144 -53t58 -133q0 -91 -68.5 -156t-165.5 -65zM337 246q53 0 91.5 39t38.5 93q0 46 -29.5 76t-76.5 30q-53 0 -91.5 -38.5t-38.5 -92.5q0 -46 29.5 -76.5t76.5 -30.5zM77 0l18 87h386l-19 -87h-385z" />
    <glyph glyph-name="c.sc" 
d="M500 357q-5 50 -39 80t-87 30q-80 0 -133.5 -65t-53.5 -159q0 -67 37.5 -109.5t96.5 -42.5q104 0 151 110h125q-36 -102 -111 -155t-172 -53q-107 0 -176.5 69t-69.5 179q0 137 88.5 230.5t222.5 93.5q105 0 170 -56t71 -152h-120z" />
    <glyph glyph-name="cacute.sc" 
d="M339 633l115 150h155l-168 -150h-102zM500 357q-5 50 -39 80t-87 30q-80 0 -133.5 -65t-53.5 -159q0 -67 37.5 -109.5t96.5 -42.5q104 0 151 110h125q-36 -102 -111 -155t-172 -53q-107 0 -176.5 69t-69.5 179q0 137 88.5 230.5t222.5 93.5q105 0 170 -56t71 -152h-120z
" />
    <glyph glyph-name="ccaron.sc" 
d="M278 779h91l52 -85l89 85h100l-137 -160h-125zM500 357q-5 50 -39 80t-87 30q-80 0 -133.5 -65t-53.5 -159q0 -67 37.5 -109.5t96.5 -42.5q104 0 151 110h125q-36 -102 -111 -155t-172 -53q-107 0 -176.5 69t-69.5 179q0 137 88.5 230.5t222.5 93.5q105 0 170 -56
t71 -152h-120z" />
    <glyph glyph-name="ccedilla.sc" 
d="M321 91q104 0 151 110h125q-35 -101 -109 -154t-170 -54l-23 -54h3q35 0 61.5 -24.5t26.5 -61.5q0 -43 -34.5 -71.5t-85.5 -28.5q-53 0 -86 29t-34 75l80 9q-2 -19 8.5 -32t30.5 -13q17 0 28 9.5t11 24.5q0 16 -12 26t-31 10h-31l-10 35l43 71q-87 16 -141 82t-54 162
q0 137 88.5 230.5t222.5 93.5q105 0 170 -56t71 -152h-120q-5 50 -39 80t-87 30q-80 0 -133.5 -65t-53.5 -159q0 -67 37.5 -109.5t96.5 -42.5z" />
    <glyph glyph-name="cdotaccent.sc" 
d="M328 653l28 131h138l-28 -131h-138zM500 357q-5 50 -39 80t-87 30q-80 0 -133.5 -65t-53.5 -159q0 -67 37.5 -109.5t96.5 -42.5q104 0 151 110h125q-36 -102 -111 -155t-172 -53q-107 0 -176.5 69t-69.5 179q0 137 88.5 230.5t222.5 93.5q105 0 170 -56t71 -152h-120z
" />
    <glyph glyph-name="d.sc" 
d="M351 557q117 0 191 -66.5t74 -174.5q0 -136 -109.5 -226t-271.5 -90h-204l118 557h202zM256 97q102 0 171.5 62.5t69.5 152.5q0 68 -44.5 108.5t-118.5 40.5h-86l-78 -364h86z" />
    <glyph glyph-name="eth.sc" 
d="M351 557q117 0 191 -66.5t74 -174.5q0 -136 -109.5 -226t-271.5 -90h-204l53 248h-75l13 69h76l51 240h202zM256 97q102 0 171.5 62.5t69.5 152.5q0 68 -44.5 108.5t-118.5 40.5h-86l-31 -144h153l-13 -69h-155l-32 -151h86z" />
    <glyph glyph-name="dcaron.sc" 
d="M263 779h91l52 -85l89 85h100l-137 -160h-125zM351 557q117 0 191 -66.5t74 -174.5q0 -136 -109.5 -226t-271.5 -90h-204l118 557h202zM256 97q102 0 171.5 62.5t69.5 152.5q0 68 -44.5 108.5t-118.5 40.5h-86l-78 -364h86z" />
    <glyph glyph-name="dcroat.sc" 
d="M351 557q117 0 191 -66.5t74 -174.5q0 -136 -109.5 -226t-271.5 -90h-204l53 248h-59l12 69h61l51 240h202zM256 97q102 0 171.5 62.5t69.5 152.5q0 68 -44.5 108.5t-118.5 40.5h-86l-31 -144h137l-12 -69h-140l-32 -151h86z" />
    <glyph glyph-name="e.sc" 
d="M608 462h-328l-29 -135h310l-19 -89h-310l-30 -143h328l-20 -95h-447l118 557h448z" />
    <glyph glyph-name="eacute.sc" 
d="M362 633l115 150h155l-168 -150h-102zM608 462h-328l-29 -135h310l-19 -89h-310l-30 -143h328l-20 -95h-447l118 557h448z" />
    <glyph glyph-name="ebreve.sc" 
d="M428 631q-72 0 -111 41.5t-26 102.5h91q-5 -28 9.5 -46t40.5 -18q24 0 43.5 17.5t26.5 46.5h105q-13 -66 -61.5 -105t-117.5 -39zM608 462h-328l-29 -135h310l-19 -89h-310l-30 -143h328l-20 -95h-447l118 557h448z" />
    <glyph glyph-name="ecaron.sc" 
d="M301 779h91l52 -85l89 85h100l-137 -160h-125zM608 462h-328l-29 -135h310l-19 -89h-310l-30 -143h328l-20 -95h-447l118 557h448z" />
    <glyph glyph-name="ecircumflex.sc" 
d="M580 623h-91l-52 85l-89 -85h-100l137 160h125zM608 462h-328l-29 -135h310l-19 -89h-310l-30 -143h328l-20 -95h-447l118 557h448z" />
    <glyph glyph-name="edieresis.sc" 
d="M237 639l28 131h137l-27 -131h-138zM458 639l28 131h137l-27 -131h-138zM608 462h-328l-29 -135h310l-19 -89h-310l-30 -143h328l-20 -95h-447l118 557h448z" />
    <glyph glyph-name="edotaccent.sc" 
d="M349 639l28 131h138l-28 -131h-138zM608 462h-328l-29 -135h310l-19 -89h-310l-30 -143h328l-20 -95h-447l118 557h448z" />
    <glyph glyph-name="egrave.sc" 
d="M474 627h-91l-105 150h153zM608 462h-328l-29 -135h310l-19 -89h-310l-30 -143h328l-20 -95h-447l118 557h448z" />
    <glyph glyph-name="emacron.sc" 
d="M300 750h280l-18 -82h-280zM608 462h-328l-29 -135h310l-19 -89h-310l-30 -143h328l-20 -95h-447l118 557h448z" />
    <glyph glyph-name="eogonek.sc" 
d="M608 462h-328l-29 -135h310l-19 -89h-310l-30 -143h328l-20 -95q-34 -20 -48 -29.5t-26.5 -24t-12.5 -29.5q0 -27 34 -27q29 0 56 10l-17 -80q-44 -11 -80 -11q-50 0 -75.5 21t-25.5 53q0 78 129 117h-381l118 557h448z" />
    <glyph glyph-name="f.sc" 
d="M614 462h-322l-31 -144h309l-20 -95h-309l-47 -223h-119l118 557h442z" />
    <glyph glyph-name="g.sc" 
d="M321 220l19 91h269l-66 -311h-100l16 73q-55 -80 -170 -80q-106 0 -171.5 65.5t-65.5 173.5q0 139 90 236t229 97q94 0 158.5 -46t79.5 -127h-121q-9 36 -41.5 58t-78.5 22q-88 0 -141.5 -69.5t-53.5 -162.5q0 -70 39 -112t103 -42q65 0 108.5 38t59.5 96h-162z" />
    <glyph glyph-name="gbreve.sc" 
d="M401 631q-72 0 -111 41.5t-26 102.5h91q-5 -28 9.5 -46t40.5 -18q24 0 43.5 17.5t26.5 46.5h105q-13 -66 -61.5 -105t-117.5 -39zM321 220l19 91h269l-66 -311h-100l16 73q-55 -80 -170 -80q-106 0 -171.5 65.5t-65.5 173.5q0 139 90 236t229 97q94 0 158.5 -46
t79.5 -127h-121q-9 36 -41.5 58t-78.5 22q-88 0 -141.5 -69.5t-53.5 -162.5q0 -70 39 -112t103 -42q65 0 108.5 38t59.5 96h-162z" />
    <glyph glyph-name="gcommaaccent.sc" 
d="M530 814l-64 -191h-146l131 191h79zM321 220l19 91h269l-66 -311h-100l16 73q-55 -80 -170 -80q-106 0 -171.5 65.5t-65.5 173.5q0 139 90 236t229 97q94 0 158.5 -46t79.5 -127h-121q-9 36 -41.5 58t-78.5 22q-88 0 -141.5 -69.5t-53.5 -162.5q0 -70 39 -112t103 -42
q65 0 108.5 38t59.5 96h-162z" />
    <glyph glyph-name="gdotaccent.sc" 
d="M487 772l-28 -131h-138l28 131h138zM321 220l19 91h269l-66 -311h-100l16 73q-55 -80 -170 -80q-106 0 -171.5 65.5t-65.5 173.5q0 139 90 236t229 97q94 0 158.5 -46t79.5 -127h-121q-9 36 -41.5 58t-78.5 22q-88 0 -141.5 -69.5t-53.5 -162.5q0 -70 39 -112t103 -42
q65 0 108.5 38t59.5 96h-162z" />
    <glyph glyph-name="h.sc" 
d="M524 557h119l-119 -557h-119l50 233h-257l-50 -233h-119l118 557h120l-48 -225h257z" />
    <glyph glyph-name="hbar.sc" 
d="M664 479l-14 -69h-38l-88 -410h-119l50 233h-257l-50 -233h-119l87 410h-37l15 69h36l17 78h120l-17 -78h257l17 78h119l-17 -78h38zM476 332l17 78h-257l-17 -78h257z" />
    <glyph glyph-name="i.sc" 
d="M602 459h-168l-77 -360h168l-21 -99h-455l20 99h169l76 360h-168l21 98h456z" />
    <glyph glyph-name="iacute.sc" 
d="M355 630l115 150h155l-168 -150h-102zM602 459h-168l-77 -360h168l-21 -99h-455l20 99h169l76 360h-168l21 98h456z" />
    <glyph glyph-name="icircumflex.sc" 
d="M575 623h-91l-52 85l-89 -85h-100l137 160h125zM602 459h-168l-77 -360h168l-21 -99h-455l20 99h169l76 360h-168l21 98h456z" />
    <glyph glyph-name="idieresis.sc" 
d="M232 639l28 131h137l-27 -131h-138zM453 639l28 131h137l-27 -131h-138zM602 459h-168l-77 -360h168l-21 -99h-455l20 99h169l76 360h-168l21 98h456z" />
    <glyph glyph-name="i.sc.loclTRK" 
d="M344 639l28 131h138l-28 -131h-138zM602 459h-168l-77 -360h168l-21 -99h-455l20 99h169l76 360h-168l21 98h456z" />
    <glyph glyph-name="igrave.sc" 
d="M445 630h-91l-105 150h153zM602 459h-168l-77 -360h168l-21 -99h-455l20 99h169l76 360h-168l21 98h456z" />
    <glyph glyph-name="imacron.sc" 
d="M295 750h280l-18 -82h-280zM602 459h-168l-77 -360h168l-21 -99h-455l20 99h169l76 360h-168l21 98h456z" />
    <glyph glyph-name="iogonek.sc" 
d="M602 459h-168l-77 -360h168l-21 -99h-168q-34 -20 -48 -29.5t-26.5 -24t-12.5 -29.5q0 -27 34 -27q29 0 56 10l-17 -80q-44 -11 -80 -11q-50 0 -75.5 21t-25.5 53q0 78 129 117h-221l20 99h169l76 360h-168l21 98h456z" />
    <glyph glyph-name="dotlessi.sc" 
d="M602 459h-168l-77 -360h168l-21 -99h-455l20 99h169l76 360h-168l21 98h456z" />
    <glyph glyph-name="j.sc" 
d="M635 557l-74 -350q-20 -94 -101 -155t-188 -61q-118 0 -213 48l26 119q104 -65 196 -65q63 0 107 34t55 85l52 247h-315l21 98h434z" />
    <glyph glyph-name="k.sc" 
d="M676 557l-215 -272l120 -285h-131l-88 233h-151l-50 -233h-119l119 557h119l-48 -226h136l175 226h133z" />
    <glyph glyph-name="kcommaaccent.sc" 
d="M676 557l-215 -272l120 -285h-131l-88 233h-151l-50 -233h-119l119 557h119l-48 -226h136l175 226h133zM150 -253l64 191h146l-131 -191h-79z" />
    <glyph glyph-name="l.sc" 
d="M229 99h334l-20 -99h-454l118 557h120z" />
    <glyph glyph-name="lacute.sc" 
d="M512 783l-168 -150h-102l115 150h155zM229 99h334l-20 -99h-454l118 557h120z" />
    <glyph glyph-name="lcaron.sc" 
d="M327 557l-98 -458h334l-20 -99h-454l118 557h120zM567 557l-105 -202h-75l62 202h118z" />
    <glyph glyph-name="lcommaaccent.sc" 
d="M229 99h334l-20 -99h-454l118 557h120zM162 -253l64 191h146l-131 -191h-79z" />
    <glyph glyph-name="lslash.sc" 
d="M229 99h334l-20 -99h-454l48 225l-100 -43l19 89l100 43l51 243h120l-40 -186l166 72l-19 -89l-166 -72z" />
    <glyph glyph-name="ldot.sc" 
d="M327 557l-98 -458h334l-20 -99h-454l118 557h120zM582 403l-31 -145h-150l30 145h151z" />
    <glyph glyph-name="m.sc" 
d="M545 557h107l-119 -557h-113l80 375l-172 -179h-20l-95 178l-80 -374h-113l119 557h95l108 -215z" />
    <glyph glyph-name="n.sc" 
d="M519 557h119l-119 -557h-101l-187 366l-78 -366h-119l119 557h101l186 -370z" />
    <glyph glyph-name="nacute.sc" 
d="M603 783l-168 -150h-102l115 150h155zM519 557h119l-119 -557h-101l-187 366l-78 -366h-119l119 557h101l186 -370z" />
    <glyph glyph-name="ncaron.sc" 
d="M467 619h-125l-70 160h91l52 -85l89 85h100zM519 557h119l-119 -557h-101l-187 366l-78 -366h-119l119 557h101l186 -370z" />
    <glyph glyph-name="ncommaaccent.sc" 
d="M519 557h119l-119 -557h-101l-187 366l-78 -366h-119l119 557h101l186 -370zM141 -253l64 191h146l-131 -191h-79z" />
    <glyph glyph-name="eng.sc" 
d="M638 557l-130 -610q-14 -69 -69 -114.5t-125 -45.5q-53 0 -105 17l21 98q42 -21 87 -21q30 0 52 18.5t28 48.5l14 66l-180 352l-78 -366h-119l119 557h101l186 -370l79 370h119z" />
    <glyph glyph-name="ntilde.sc" 
d="M366 694q-32 0 -43 -43h-88q15 63 50.5 92.5t80.5 29.5q36 0 66 -24.5t46 -24.5q34 0 44 42h88q-13 -63 -48.5 -92.5t-82.5 -29.5q-37 0 -67 25t-46 25zM519 557h119l-119 -557h-101l-187 366l-78 -366h-119l119 557h101l186 -370z" />
    <glyph glyph-name="o.sc" 
d="M313 -7q-118 0 -189 65.5t-71 177.5q0 140 87.5 234.5t218.5 94.5q119 0 189.5 -65.5t70.5 -176.5q0 -141 -87.5 -235.5t-218.5 -94.5zM314 91q79 0 131.5 66.5t52.5 162.5q0 67 -37.5 107t-102.5 40q-79 0 -131.5 -66t-52.5 -162q0 -68 37.5 -108t102.5 -40z" />
    <glyph glyph-name="oacute.sc" 
d="M350 633l115 150h155l-168 -150h-102zM313 -7q-118 0 -189 65.5t-71 177.5q0 140 87.5 234.5t218.5 94.5q119 0 189.5 -65.5t70.5 -176.5q0 -141 -87.5 -235.5t-218.5 -94.5zM314 91q79 0 131.5 66.5t52.5 162.5q0 67 -37.5 107t-102.5 40q-79 0 -131.5 -66t-52.5 -162
q0 -68 37.5 -108t102.5 -40z" />
    <glyph glyph-name="ocircumflex.sc" 
d="M568 623h-91l-52 85l-89 -85h-100l137 160h125zM313 -7q-118 0 -189 65.5t-71 177.5q0 140 87.5 234.5t218.5 94.5q119 0 189.5 -65.5t70.5 -176.5q0 -141 -87.5 -235.5t-218.5 -94.5zM314 91q79 0 131.5 66.5t52.5 162.5q0 67 -37.5 107t-102.5 40q-79 0 -131.5 -66
t-52.5 -162q0 -68 37.5 -108t102.5 -40z" />
    <glyph glyph-name="odieresis.sc" 
d="M225 639l28 131h137l-27 -131h-138zM446 639l28 131h137l-27 -131h-138zM313 -7q-118 0 -189 65.5t-71 177.5q0 140 87.5 234.5t218.5 94.5q119 0 189.5 -65.5t70.5 -176.5q0 -141 -87.5 -235.5t-218.5 -94.5zM314 91q79 0 131.5 66.5t52.5 162.5q0 67 -37.5 107
t-102.5 40q-79 0 -131.5 -66t-52.5 -162q0 -68 37.5 -108t102.5 -40z" />
    <glyph glyph-name="ograve.sc" 
d="M457 633h-91l-105 150h153zM313 -7q-118 0 -189 65.5t-71 177.5q0 140 87.5 234.5t218.5 94.5q119 0 189.5 -65.5t70.5 -176.5q0 -141 -87.5 -235.5t-218.5 -94.5zM314 91q79 0 131.5 66.5t52.5 162.5q0 67 -37.5 107t-102.5 40q-79 0 -131.5 -66t-52.5 -162
q0 -68 37.5 -108t102.5 -40z" />
    <glyph glyph-name="ohungarumlaut.sc" 
d="M268 625l84 158h149l-150 -158h-83zM450 625l84 158h149l-150 -158h-83zM313 -7q-118 0 -189 65.5t-71 177.5q0 140 87.5 234.5t218.5 94.5q119 0 189.5 -65.5t70.5 -176.5q0 -141 -87.5 -235.5t-218.5 -94.5zM314 91q79 0 131.5 66.5t52.5 162.5q0 67 -37.5 107
t-102.5 40q-79 0 -131.5 -66t-52.5 -162q0 -68 37.5 -108t102.5 -40z" />
    <glyph glyph-name="omacron.sc" 
d="M288 750h280l-18 -82h-280zM313 -7q-118 0 -189 65.5t-71 177.5q0 140 87.5 234.5t218.5 94.5q119 0 189.5 -65.5t70.5 -176.5q0 -141 -87.5 -235.5t-218.5 -94.5zM314 91q79 0 131.5 66.5t52.5 162.5q0 67 -37.5 107t-102.5 40q-79 0 -131.5 -66t-52.5 -162
q0 -68 37.5 -108t102.5 -40z" />
    <glyph glyph-name="oslash.sc" 
d="M646 526l-67 -62q40 -58 40 -141q0 -141 -87.5 -235.5t-218.5 -94.5q-110 0 -179 57l-60 -56l-45 50l60 56q-36 58 -36 136q0 140 87.5 234.5t218.5 94.5q106 0 173 -52l68 63zM174 239q0 -31 7 -53l269 251q-36 30 -92 30q-79 0 -131.5 -66t-52.5 -162zM498 320
q0 33 -9 60l-273 -254q38 -35 98 -35q79 0 131.5 66.5t52.5 162.5z" />
    <glyph glyph-name="otilde.sc" 
d="M483 644q-37 0 -67 25t-46 25q-32 0 -43 -43h-88q15 63 50.5 92.5t80.5 29.5q36 0 66 -24.5t46 -24.5q34 0 44 42h88q-13 -63 -48.5 -92.5t-82.5 -29.5zM313 -7q-118 0 -189 65.5t-71 177.5q0 140 87.5 234.5t218.5 94.5q119 0 189.5 -65.5t70.5 -176.5
q0 -141 -87.5 -235.5t-218.5 -94.5zM314 91q79 0 131.5 66.5t52.5 162.5q0 67 -37.5 107t-102.5 40q-79 0 -131.5 -66t-52.5 -162q0 -68 37.5 -108t102.5 -40z" />
    <glyph glyph-name="oe.sc" 
d="M662 462h-191l-28 -135h172l-19 -90h-172l-31 -142h191l-20 -95h-304q-92 0 -151.5 69.5t-59.5 174.5q0 134 94.5 223.5t233.5 89.5h306zM161 243q0 -64 31 -105.5t82 -41.5h13l77 367h-13q-82 0 -136 -64.5t-54 -155.5z" />
    <glyph glyph-name="p.sc" 
d="M47 0l119 557h268q87 0 143 -47.5t56 -119.5q0 -89 -71 -143t-175 -54h-179l-41 -193h-120zM228 289h170q48 0 82 25.5t34 69.5q0 33 -25.5 55t-67.5 22h-157z" />
    <glyph glyph-name="thorn.sc" 
d="M434 473q82 0 132 -47t50 -119q0 -93 -69.5 -146t-173.5 -53h-183l-23 -108h-120l119 557h119l-18 -84h167zM380 204q49 0 83 26t34 70q0 35 -24.5 56.5t-66.5 21.5h-159l-37 -174h170z" />
    <glyph glyph-name="q.sc" 
d="M626 26l-72 -68l-77 84q-74 -49 -164 -49q-118 0 -189 65.5t-71 177.5q0 140 87.5 234.5t218.5 94.5q119 0 189.5 -65.5t70.5 -176.5q0 -124 -72 -217zM314 91q49 0 91 29l-53 58l64 62l50 -51q32 59 32 131q0 67 -37.5 107t-102.5 40q-79 0 -131.5 -66t-52.5 -162
q0 -68 37.5 -108t102.5 -40z" />
    <glyph glyph-name="r.sc" 
d="M607 406q0 -66 -43.5 -113t-113.5 -66l85 -227h-122l-72 217h-131l-46 -217h-119l119 557h277q72 0 119 -42.5t47 -108.5zM385 314q43 0 73.5 23t30.5 60q0 28 -20.5 45.5t-52.5 17.5h-155l-30 -146h154z" />
    <glyph glyph-name="racute.sc" 
d="M579 783l-168 -150h-102l115 150h155zM607 406q0 -66 -43.5 -113t-113.5 -66l85 -227h-122l-72 217h-131l-46 -217h-119l119 557h277q72 0 119 -42.5t47 -108.5zM385 314q43 0 73.5 23t30.5 60q0 28 -20.5 45.5t-52.5 17.5h-155l-30 -146h154z" />
    <glyph glyph-name="rcaron.sc" 
d="M443 619h-125l-70 160h91l52 -85l89 85h100zM607 406q0 -66 -43.5 -113t-113.5 -66l85 -227h-122l-72 217h-131l-46 -217h-119l119 557h277q72 0 119 -42.5t47 -108.5zM385 314q43 0 73.5 23t30.5 60q0 28 -20.5 45.5t-52.5 17.5h-155l-30 -146h154z" />
    <glyph glyph-name="rcommaaccent.sc" 
d="M607 406q0 -66 -43.5 -113t-113.5 -66l85 -227h-122l-72 217h-131l-46 -217h-119l119 557h277q72 0 119 -42.5t47 -108.5zM385 314q43 0 73.5 23t30.5 60q0 28 -20.5 45.5t-52.5 17.5h-155l-30 -146h154zM144 -253l64 191h146l-131 -191h-79z" />
    <glyph glyph-name="s.sc" 
d="M319 -11q-116 0 -188 55.5t-72 154.5h122q0 -59 40 -88t105 -29q58 0 86 21.5t28 53.5q0 28 -23.5 42t-94.5 39q-50 17 -73.5 25.5t-53 23t-42 28.5t-21.5 34t-9 47q0 79 63 125.5t170 46.5q108 0 176.5 -48t68.5 -141h-121q0 51 -33 75.5t-90 24.5q-50 0 -81.5 -18
t-31.5 -52q0 -23 25.5 -39.5t102.5 -41.5q37 -13 47.5 -16.5t41.5 -16t42.5 -22.5t29 -26.5t24 -37.5t6.5 -46q0 -80 -68 -127t-176 -47z" />
    <glyph glyph-name="sacute.sc" 
d="M329 633l115 150h155l-168 -150h-102zM319 -11q-116 0 -188 55.5t-72 154.5h122q0 -59 40 -88t105 -29q58 0 86 21.5t28 53.5q0 28 -23.5 42t-94.5 39q-50 17 -73.5 25.5t-53 23t-42 28.5t-21.5 34t-9 47q0 79 63 125.5t170 46.5q108 0 176.5 -48t68.5 -141h-121
q0 51 -33 75.5t-90 24.5q-50 0 -81.5 -18t-31.5 -52q0 -23 25.5 -39.5t102.5 -41.5q37 -13 47.5 -16.5t41.5 -16t42.5 -22.5t29 -26.5t24 -37.5t6.5 -46q0 -80 -68 -127t-176 -47z" />
    <glyph glyph-name="scaron.sc" 
d="M268 779h91l52 -85l89 85h100l-137 -160h-125zM319 -11q-116 0 -188 55.5t-72 154.5h122q0 -59 40 -88t105 -29q58 0 86 21.5t28 53.5q0 28 -23.5 42t-94.5 39q-50 17 -73.5 25.5t-53 23t-42 28.5t-21.5 34t-9 47q0 79 63 125.5t170 46.5q108 0 176.5 -48t68.5 -141h-121
q0 51 -33 75.5t-90 24.5q-50 0 -81.5 -18t-31.5 -52q0 -23 25.5 -39.5t102.5 -41.5q37 -13 47.5 -16.5t41.5 -16t42.5 -22.5t29 -26.5t24 -37.5t6.5 -46q0 -80 -68 -127t-176 -47z" />
    <glyph glyph-name="scedilla.sc" 
d="M372 328q37 -13 47.5 -16.5t41.5 -16t42.5 -22.5t29 -26.5t24 -37.5t6.5 -46q0 -80 -68 -127t-176 -47h-3l-21 -50h3q35 0 61.5 -24.5t26.5 -61.5q0 -43 -34.5 -71.5t-85.5 -28.5q-53 0 -86 29t-34 75l80 9q-2 -19 8.5 -32t30.5 -13q17 0 28 9.5t11 24.5q0 16 -12 26
t-31 10h-31l-10 35l41 67q-92 13 -147 66.5t-55 139.5h122q0 -59 40 -88t105 -29q58 0 86 21.5t28 53.5q0 28 -23.5 42t-94.5 39q-50 17 -73.5 25.5t-53 23t-42 28.5t-21.5 34t-9 47q0 79 63 125.5t170 46.5q108 0 176.5 -48t68.5 -141h-121q0 51 -33 75.5t-90 24.5
q-50 0 -81.5 -18t-31.5 -52q0 -23 25.5 -39.5t102.5 -41.5z" />
    <glyph glyph-name="scommaaccent.sc" 
d="M319 -11q-116 0 -188 55.5t-72 154.5h122q0 -59 40 -88t105 -29q58 0 86 21.5t28 53.5q0 28 -23.5 42t-94.5 39q-50 17 -73.5 25.5t-53 23t-42 28.5t-21.5 34t-9 47q0 79 63 125.5t170 46.5q108 0 176.5 -48t68.5 -141h-121q0 51 -33 75.5t-90 24.5q-50 0 -81.5 -18
t-31.5 -52q0 -23 25.5 -39.5t102.5 -41.5q37 -13 47.5 -16.5t41.5 -16t42.5 -22.5t29 -26.5t24 -37.5t6.5 -46q0 -80 -68 -127t-176 -47zM163 -253l64 191h146l-131 -191h-79z" />
    <glyph glyph-name="germandbls.sc" horiz-adv-x="1320" 
d="M319 -11q-116 0 -188 55.5t-72 154.5h122q0 -59 40 -88t105 -29q58 0 86 21.5t28 53.5q0 28 -23.5 42t-94.5 39q-50 17 -73.5 25.5t-53 23t-42 28.5t-21.5 34t-9 47q0 79 63 125.5t170 46.5q108 0 176.5 -48t68.5 -141h-121q0 51 -33 75.5t-90 24.5q-50 0 -81.5 -18
t-31.5 -52q0 -23 25.5 -39.5t102.5 -41.5q37 -13 47.5 -16.5t41.5 -16t42.5 -22.5t29 -26.5t24 -37.5t6.5 -46q0 -80 -68 -127t-176 -47zM979 -11q-116 0 -188 55.5t-72 154.5h122q0 -59 40 -88t105 -29q58 0 86 21.5t28 53.5q0 28 -23.5 42t-94.5 39q-50 17 -73.5 25.5
t-53 23t-42 28.5t-21.5 34t-9 47q0 79 63 125.5t170 46.5q108 0 176.5 -48t68.5 -141h-121q0 51 -33 75.5t-90 24.5q-50 0 -81.5 -18t-31.5 -52q0 -23 25.5 -39.5t102.5 -41.5q37 -13 47.5 -16.5t41.5 -16t42.5 -22.5t29 -26.5t24 -37.5t6.5 -46q0 -80 -68 -127t-176 -47z
" />
    <glyph glyph-name="ordfeminine.ss04.sc" 
d="M512 232q19 -1 59 16l-18 -81q-29 -12 -63 -12q-39 0 -65.5 16t-34.5 44h-4q-45 -58 -126 -58q-60 0 -96 28.5t-36 80.5q0 65 57.5 100.5t153.5 35.5h80l4 17q8 35 -11 56.5t-58 21.5q-69 0 -85 -65h-92q16 68 64 102.5t118 34.5q83 0 126 -45.5t28 -116.5l-30 -143
q-6 -31 29 -32zM288 224q38 0 69.5 22.5t42.5 64.5l6 27h-79q-47 0 -75 -17t-28 -47q0 -23 17.5 -36.5t46.5 -13.5zM82 0l18 87h419l-18 -87h-419z" />
    <glyph glyph-name="t.sc" 
d="M679 557l-21 -98h-225l-97 -459h-119l97 459h-225l22 98h568z" />
    <glyph glyph-name="tbar.sc" 
d="M658 459h-225l-32 -153h106l-16 -85h-108l-47 -221h-119l47 221h-104l16 85h106l32 153h-225l22 98h568z" />
    <glyph glyph-name="tcaron.sc" 
d="M470 619h-125l-70 160h91l52 -85l89 85h100zM679 557l-21 -98h-225l-97 -459h-119l97 459h-225l22 98h568z" />
    <glyph glyph-name="uni0163.sc" 
d="M336 0h-34l-26 -61h3q35 0 61.5 -24.5t26.5 -61.5q0 -43 -34.5 -71.5t-85.5 -28.5q-53 0 -86 29t-34 75l80 9q-2 -19 8.5 -32t30.5 -13q17 0 28 9.5t11 24.5q0 16 -12 26t-31 10h-31l-10 35l45 74h-29l97 459h-225l22 98h568l-21 -98h-225z" />
    <glyph glyph-name="uni021B.sc" 
d="M679 557l-21 -98h-225l-97 -459h-119l97 459h-225l22 98h568zM126 -253l64 191h146l-131 -191h-79z" />
    <glyph glyph-name="u.sc" 
d="M310 -7q-125 0 -194.5 72.5t-45.5 188.5l64 303h121l-65 -305q-15 -68 21 -114t102 -46q54 0 96.5 34t55.5 96l70 335h120l-75 -357q-20 -100 -95 -153.5t-175 -53.5z" />
    <glyph glyph-name="uacute.sc" 
d="M360 633l115 150h155l-168 -150h-102zM310 -7q-125 0 -194.5 72.5t-45.5 188.5l64 303h121l-65 -305q-15 -68 21 -114t102 -46q54 0 96.5 34t55.5 96l70 335h120l-75 -357q-20 -100 -95 -153.5t-175 -53.5z" />
    <glyph glyph-name="ucircumflex.sc" 
d="M578 623h-91l-52 85l-89 -85h-100l137 160h125zM310 -7q-125 0 -194.5 72.5t-45.5 188.5l64 303h121l-65 -305q-15 -68 21 -114t102 -46q54 0 96.5 34t55.5 96l70 335h120l-75 -357q-20 -100 -95 -153.5t-175 -53.5z" />
    <glyph glyph-name="udieresis.sc" 
d="M235 639l28 131h137l-27 -131h-138zM456 639l28 131h137l-27 -131h-138zM310 -7q-125 0 -194.5 72.5t-45.5 188.5l64 303h121l-65 -305q-15 -68 21 -114t102 -46q54 0 96.5 34t55.5 96l70 335h120l-75 -357q-20 -100 -95 -153.5t-175 -53.5z" />
    <glyph glyph-name="ugrave.sc" 
d="M448 633h-91l-105 150h153zM310 -7q-125 0 -194.5 72.5t-45.5 188.5l64 303h121l-65 -305q-15 -68 21 -114t102 -46q54 0 96.5 34t55.5 96l70 335h120l-75 -357q-20 -100 -95 -153.5t-175 -53.5z" />
    <glyph glyph-name="uhungarumlaut.sc" 
d="M269 625l84 158h149l-150 -158h-83zM451 625l84 158h149l-150 -158h-83zM310 -7q-125 0 -194.5 72.5t-45.5 188.5l64 303h121l-65 -305q-15 -68 21 -114t102 -46q54 0 96.5 34t55.5 96l70 335h120l-75 -357q-20 -100 -95 -153.5t-175 -53.5z" />
    <glyph glyph-name="umacron.sc" 
d="M298 750h280l-18 -82h-280zM310 -7q-125 0 -194.5 72.5t-45.5 188.5l64 303h121l-65 -305q-15 -68 21 -114t102 -46q54 0 96.5 34t55.5 96l70 335h120l-75 -357q-20 -100 -95 -153.5t-175 -53.5z" />
    <glyph glyph-name="uogonek.sc" 
d="M535 557h120l-75 -357q-20 -101 -99 -156q-75 -61 -93.5 -82.5t-18.5 -42.5q0 -13 9 -21t24 -8q29 0 57 10l-18 -80q-44 -11 -82 -11q-46 0 -75.5 20t-29.5 51q0 32 21.5 57t80.5 59q-22 -3 -46 -3q-125 0 -194.5 72.5t-45.5 188.5l64 303h121l-65 -305q-15 -68 21 -114
t102 -46q54 0 96.5 34t55.5 96z" />
    <glyph glyph-name="uring.sc" 
d="M425 614q-43 0 -73 27.5t-30 69.5q0 48 36.5 80t83.5 32q43 0 73 -27.5t30 -69.5q0 -47 -36 -79.5t-84 -32.5zM430 669q22 0 37 16t15 38q0 21 -13 33t-32 12q-21 0 -36.5 -15t-15.5 -38q0 -21 13.5 -33.5t31.5 -12.5zM310 -7q-125 0 -194.5 72.5t-45.5 188.5l64 303h121
l-65 -305q-15 -68 21 -114t102 -46q54 0 96.5 34t55.5 96l70 335h120l-75 -357q-20 -100 -95 -153.5t-175 -53.5z" />
    <glyph glyph-name="v.sc" 
d="M551 557h135l-349 -557h-122l-112 557h125l72 -417z" />
    <glyph glyph-name="w.sc" 
d="M566 557h119l-208 -557h-110l-9 376l-168 -376h-115l30 557h118l-47 -391l177 391h82l12 -391z" />
    <glyph glyph-name="wacute.sc" 
d="M623 779l-168 -150h-102l115 150h155zM566 557h119l-208 -557h-110l-9 376l-168 -376h-115l30 557h118l-47 -391l177 391h82l12 -391z" />
    <glyph glyph-name="wcircumflex.sc" 
d="M433 708l-89 -85h-100l137 160h125l70 -160h-91zM566 557h119l-208 -557h-110l-9 376l-168 -376h-115l30 557h118l-47 -391l177 391h82l12 -391z" />
    <glyph glyph-name="wdieresis.sc" 
d="M398 770l-27 -131h-138l28 131h137zM619 770l-27 -131h-138l28 131h137zM566 557h119l-208 -557h-110l-9 376l-168 -376h-115l30 557h118l-47 -391l177 391h82l12 -391z" />
    <glyph glyph-name="wgrave.sc" 
d="M455 629h-91l-105 150h153zM566 557h119l-208 -557h-110l-9 376l-168 -376h-115l30 557h118l-47 -391l177 391h82l12 -391z" />
    <glyph glyph-name="x.sc" 
d="M671 557l-255 -278l145 -279h-131l-101 210l-190 -210h-147l263 279h1l-136 278h130l93 -209l182 209h146z" />
    <glyph glyph-name="y.sc" 
d="M682 557l-313 -387l-36 -170h-113l35 167l-147 390h122l96 -284l220 284h136z" />
    <glyph glyph-name="yacute.sc" 
d="M616 783l-168 -150h-102l115 150h155zM682 557l-313 -387l-36 -170h-113l35 167l-147 390h122l96 -284l220 284h136z" />
    <glyph glyph-name="ycircumflex.sc" 
d="M421 708l-89 -85h-100l137 160h125l70 -160h-91zM682 557l-313 -387l-36 -170h-113l35 167l-147 390h122l96 -284l220 284h136z" />
    <glyph glyph-name="ydieresis.sc" 
d="M386 770l-27 -131h-138l28 131h137zM607 770l-27 -131h-138l28 131h137zM682 557l-313 -387l-36 -170h-113l35 167l-147 390h122l96 -284l220 284h136z" />
    <glyph glyph-name="ygrave.sc" 
d="M439 629h-91l-105 150h153zM682 557l-313 -387l-36 -170h-113l35 167l-147 390h122l96 -284l220 284h136z" />
    <glyph glyph-name="z.sc" 
d="M652 557l-18 -85l-431 -373h355l-21 -99h-521l18 85l436 374h-357l22 98h517z" />
    <glyph glyph-name="zacute.sc" 
d="M607 783l-168 -150h-102l115 150h155zM652 557l-18 -85l-431 -373h355l-21 -99h-521l18 85l436 374h-357l22 98h517z" />
    <glyph glyph-name="zcaron.sc" 
d="M471 619h-125l-70 160h91l52 -85l89 85h100zM652 557l-18 -85l-431 -373h355l-21 -99h-521l18 85l436 374h-357l22 98h517z" />
    <glyph glyph-name="zdotaccent.sc" 
d="M490 770l-28 -131h-138l28 131h138zM652 557l-18 -85l-431 -373h355l-21 -99h-521l18 85l436 374h-357l22 98h517z" />
    <glyph glyph-name="j.sc.ss01" 
d="M67 158q104 -65 196 -65q63 0 107 34t55 85l73 345h119l-74 -350q-20 -94 -101 -155t-188 -61q-118 0 -213 48z" />
    <glyph glyph-name="q.sc.ss02" 
d="M309 -7q-118 0 -189 65.5t-71 177.5q0 140 87.5 234.5t218.5 94.5q119 0 189.5 -65.5t70.5 -176.5q0 -141 -87.5 -235.5t-218.5 -94.5zM310 91q79 0 131.5 66.5t52.5 162.5q0 67 -37.5 107t-102.5 40q-79 0 -131.5 -66t-52.5 -162q0 -68 37.5 -108t102.5 -40zM576 -147
h-281l19 90h281z" />
    <glyph glyph-name="r.sc.ss03" 
d="M607 406q0 -65 -44 -103t-117 -51q53 -19 68 -93l32 -159h-128l-25 152q-6 40 -37.5 53t-92.5 12h-54l-46 -217h-119l119 557h278q70 0 118 -41t48 -110zM385 314q43 0 73 23.5t30 58.5q0 29 -20 46.5t-53 17.5h-154l-31 -146h155z" />
    <glyph glyph-name="racute.sc.ss03" 
d="M583 783l-168 -150h-102l115 150h155zM607 406q0 -65 -44 -103t-117 -51q53 -19 68 -93l32 -159h-128l-25 152q-6 40 -37.5 53t-92.5 12h-54l-46 -217h-119l119 557h278q70 0 118 -41t48 -110zM385 314q43 0 73 23.5t30 58.5q0 29 -20 46.5t-53 17.5h-154l-31 -146h155z
" />
    <glyph glyph-name="rcaron.sc.ss03" 
d="M447 619h-125l-70 160h91l52 -85l89 85h100zM607 406q0 -65 -44 -103t-117 -51q53 -19 68 -93l32 -159h-128l-25 152q-6 40 -37.5 53t-92.5 12h-54l-46 -217h-119l119 557h278q70 0 118 -41t48 -110zM385 314q43 0 73 23.5t30 58.5q0 29 -20 46.5t-53 17.5h-154l-31 -146
h155z" />
    <glyph glyph-name="rcommaaccent.sc.ss03" 
d="M607 406q0 -65 -44 -103t-117 -51q53 -19 68 -93l32 -159h-128l-25 152q-6 40 -37.5 53t-92.5 12h-54l-46 -217h-119l119 557h278q70 0 118 -41t48 -110zM385 314q43 0 73 23.5t30 58.5q0 29 -20 46.5t-53 17.5h-154l-31 -146h155zM142 -253l64 191h146l-131 -191h-79z
" />
    <glyph glyph-name="ordfeminine.ss04" 
d="M543 372q19 0 59 17l-18 -81q-29 -13 -63 -13q-39 0 -65.5 16.5t-34.5 44.5h-7q-40 -59 -123 -59q-59 0 -95.5 29.5t-36.5 80.5q0 65 58 100.5t153 35.5h81l4 20q8 35 -11 56.5t-58 21.5q-69 0 -85 -65h-92q16 68 64 102.5t118 34.5q83 0 126 -45t28 -117l-31 -146
q-6 -32 29 -33zM319 364q38 0 70 23.5t42 65.5l6 26h-79q-47 0 -75 -17t-28 -47q0 -23 17.5 -37t46.5 -14zM111 131l18 87h419l-18 -87h-419z" />
    <glyph glyph-name="zero.lf" 
d="M400 711q112 0 171.5 -69.5t59.5 -198.5q0 -81 -20.5 -159t-59 -145t-103.5 -108t-145 -41q-112 0 -172 69t-60 197q0 80 20 158t58.5 145.5t104 109.5t146.5 42zM393 611q-61 0 -107 -54t-67.5 -125.5t-25.5 -147.5l311 231q-21 96 -111 96zM308 90q48 0 87.5 33
t63.5 85.5t37 111t15 115.5l-315 -234q15 -111 112 -111z" />
    <glyph glyph-name="one.lf" 
d="M379 104h202l-22 -104h-536l23 104h216l101 478l-222 -84l26 125l275 80v-1l1 1h64z" />
    <glyph glyph-name="two.lf" 
d="M396 222l-174 -122h336l-21 -100h-494l19 92l294 219q5 4 24 17.5t24.5 17.5t21 16.5t21 18t17.5 17t16 18.5t12 18.5t10.5 21.5t5 22.5t2.5 25.5q0 50 -29 77.5t-78 27.5q-56 0 -95 -36t-53 -108h-126q28 124 101.5 185t180.5 61q101 0 160.5 -52.5t59.5 -144.5
q0 -33 -6.5 -61.5t-25 -55t-33.5 -45t-49.5 -45t-54.5 -40.5t-66 -45z" />
    <glyph glyph-name="three.lf" 
d="M664 700l-20 -92l-253 -212q83 -14 131 -64t48 -123q0 -93 -73.5 -156.5t-183.5 -63.5q-109 0 -180.5 65t-68.5 164h120q-3 -54 34 -92t97 -38q59 0 98 35t39 86q0 47 -34 76.5t-94 29.5h-68l-14 73l253 209h-336l22 103h483z" />
    <glyph glyph-name="four.lf" 
d="M602 245l-21 -103h-98l-30 -142h-117l31 142h-330v69q202 261 294 489h124q-80 -205 -272 -455h207l65 259h105l-55 -259h97z" />
    <glyph glyph-name="five.lf" 
d="M629 600h-349l-52 -199q58 51 142 51q96 0 158 -60t62 -153q0 -105 -78.5 -176.5t-195.5 -71.5q-108 0 -180.5 61t-71.5 159h120q-2 -51 36.5 -86t96.5 -35q65 0 109 43t44 105q0 55 -35.5 89.5t-91.5 34.5q-80 0 -138 -58l-94 41l94 355h446z" />
    <glyph glyph-name="six.lf" 
d="M367 454q94 0 155 -57t61 -151q0 -108 -78 -181.5t-199 -73.5q-112 0 -179.5 71t-67.5 187q0 84 20 157q35 131 119 216t204 85q91 0 156 -50.5t73 -134.5h-119q-7 46 -41 65.5t-77 19.5q-154 0 -213 -252q64 99 186 99zM312 88q68 0 109.5 45t41.5 108q0 56 -34.5 89.5
t-92.5 33.5q-68 0 -112 -43.5t-44 -106.5q0 -55 37 -90.5t95 -35.5z" />
    <glyph glyph-name="seven.lf" 
d="M157 700h519l-19 -89q-281 -227 -364 -611h-133l2 11q76 356 364 585h-392z" />
    <glyph glyph-name="eight.lf" 
d="M624 535q0 -67 -44 -112.5t-118 -58.5q114 -45 114 -155q0 -96 -75.5 -157.5t-191.5 -61.5q-114 0 -183 52.5t-69 137.5q0 84 51.5 138.5t136.5 67.5q-97 40 -97 131q0 87 70.5 140.5t171.5 53.5q99 0 166.5 -47t67.5 -129zM376 414q61 0 94 34.5t33 78.5q0 42 -31 67
t-81 25q-55 0 -90.5 -31t-35.5 -80q0 -41 28.5 -67.5t82.5 -26.5zM306 85q62 0 106 38.5t44 93.5q0 48 -34.5 79.5t-94.5 31.5q-66 0 -106 -37.5t-40 -93.5q0 -47 34.5 -79.5t90.5 -32.5z" />
    <glyph glyph-name="nine.lf" 
d="M371 711q112 0 179.5 -71t67.5 -187q0 -84 -20 -157q-35 -131 -119 -216t-204 -85q-91 0 -156 50.5t-73 134.5h119q7 -46 41 -65.5t77 -19.5q154 0 213 252q-64 -99 -186 -99q-94 0 -155 57t-61 151q0 108 78 181.5t199 73.5zM341 338q68 0 112 43.5t44 106.5
q0 55 -37 90.5t-95 35.5q-68 0 -109.5 -45t-41.5 -108q0 -56 34.5 -89.5t92.5 -33.5z" />
    <glyph glyph-name="zero.zero.lf" 
d="M400 711q112 0 171.5 -69.5t59.5 -198.5q0 -81 -20.5 -159t-59 -145t-103.5 -108t-145 -41q-112 0 -172 69t-60 197q0 80 20 158t58.5 145.5t104 109.5t146.5 42zM393 611q-61 0 -107 -54t-67.5 -125.5t-25.5 -147.5l311 231q-21 96 -111 96zM308 90q48 0 87.5 33
t63.5 85.5t37 111t15 115.5l-315 -234q15 -111 112 -111z" />
    <glyph glyph-name="three.ss10" 
d="M599 418q0 -70 -41.5 -117t-115.5 -61q106 -40 106 -144q0 -89 -70 -152t-189 -63q-113 0 -182.5 60t-67.5 171h119q-1 -64 36.5 -97.5t99.5 -33.5q65 0 99.5 34t34.5 85q0 47 -33 74.5t-85 27.5h-59l20 97h59q64 0 106 28.5t42 81.5q0 44 -28.5 69t-81.5 25
q-115 0 -145 -130h-121q23 115 92.5 172.5t176.5 57.5q100 0 164 -48t64 -137z" />
    <glyph glyph-name="three.lf.ss10" 
d="M621 526q0 -70 -41.5 -117t-115.5 -61q106 -40 106 -144q0 -89 -70 -152t-189 -63q-113 0 -182.5 60t-67.5 171h119q-1 -64 36.5 -97.5t99.5 -33.5q65 0 99.5 34t34.5 85q0 47 -33 74.5t-85 27.5h-59l20 97h59q64 0 106 28.5t42 81.5q0 44 -28.5 69t-81.5 25
q-115 0 -145 -130h-121q23 115 92.5 172.5t176.5 57.5q100 0 164 -48t64 -137z" />
    <glyph glyph-name="four.ss11" 
d="M616 579l-98 -459h98l-21 -98h-98l-30 -143h-117l30 143h-337l-1 98l412 459h162zM479 471l-311 -351h233z" />
    <glyph glyph-name="four.lf.ss11" 
d="M616 700l-98 -459h98l-21 -98h-98l-30 -143h-117l30 143h-337l-1 98l412 459h162zM479 592l-311 -351h233z" />
    <glyph glyph-name="zero.zero" 
d="M378 605q108 0 174.5 -70.5t66.5 -190.5q0 -92 -39 -172.5t-112.5 -131t-164.5 -50.5q-110 0 -176.5 70.5t-66.5 189.5q0 142 90.5 248.5t227.5 106.5zM371 508q-62 0 -107.5 -41.5t-66 -99.5t-20.5 -119q0 -18 1 -27l303 226q-33 61 -110 61zM309 87q62 0 107.5 41
t66 98.5t20.5 119.5q0 12 -2 36l-305 -228q33 -67 113 -67z" />
    <glyph glyph-name="zero.dnom" 
d="M336 367q69 0 106 -42t37 -110q0 -90 -53 -158t-134 -68q-68 0 -105 42.5t-37 109.5q0 89 53.5 157.5t132.5 68.5zM331 299q-38 0 -62 -41t-31 -96l148 107q-15 30 -55 30zM297 56q42 0 67 48t29 109l-154 -113q11 -44 58 -44z" />
    <glyph glyph-name="one.dnom" 
d="M342 67h103l-15 -67h-300l14 67h111l47 219l-125 -53l19 90l144 42h66z" />
    <glyph glyph-name="two.dnom" 
d="M329 103l-63 -36h164l-14 -67h-287l10 50l161 111q27 19 39.5 29t27.5 30t15 40t-13 32t-36 12q-55 0 -72 -68h-82q32 135 156 135q61 0 96 -29.5t35 -79.5q0 -28 -10 -51t-32.5 -43t-41.5 -32.5t-53 -32.5z" />
    <glyph glyph-name="three.dnom" 
d="M490 362l-14 -65l-127 -85q42 -8 67 -35.5t25 -68.5q0 -51 -41 -85t-102 -34q-65 0 -104 37.5t-37 93.5h79q0 -28 17.5 -46.5t45.5 -18.5q26 0 44.5 16t18.5 39q0 20 -15 34t-41 14h-40l-14 49l121 86h-167l15 69h269z" />
    <glyph glyph-name="four.dnom" 
d="M461 141l-15 -66h-55l-16 -75h-79l16 75h-176l-2 52q96 130 134 238h91q-43 -107 -129 -224h97l34 127h71l-27 -127h56z" />
    <glyph glyph-name="five.dnom" 
d="M468 291h-194l-27 -93q34 34 86 34q50 0 82.5 -29.5t32.5 -78.5q0 -58 -43.5 -96.5t-110.5 -38.5q-61 0 -100 32t-40 88h81q0 -27 17 -41t42 -14q30 0 50 20t20 49q0 24 -14.5 39t-38.5 15q-39 0 -63 -28l-75 24l50 187h260z" />
    <glyph glyph-name="six.dnom" 
d="M336 235q48 0 80 -30t32 -79q0 -57 -44 -97t-113 -40q-61 0 -98 35t-37 104q0 88 53 163.5t134 75.5q46 0 84.5 -25.5t39.5 -81.5h-84q0 21 -13.5 31.5t-31.5 10.5q-59 0 -83 -103q29 36 81 36zM298 51q28 0 48 19t20 50q0 28 -16.5 43t-41.5 15q-29 0 -48.5 -19.5
t-19.5 -48.5q0 -27 16 -43t42 -16z" />
    <glyph glyph-name="seven.dnom" 
d="M208 362h288l-12 -55q-139 -109 -188 -307h-96l1 4q47 184 195 288h-203z" />
    <glyph glyph-name="eight.dnom" 
d="M382 182q63 -22 63 -82q0 -51 -43 -81.5t-108 -30.5q-62 0 -103.5 27t-41.5 78q0 39 27 67.5t73 35.5q-51 20 -51 70q0 47 39.5 73.5t97.5 26.5q55 0 93.5 -25t38.5 -72q0 -35 -23 -57.5t-62 -29.5zM334 306q-25 0 -42.5 -14t-17.5 -36q0 -20 15.5 -32.5t38.5 -12.5
q25 0 42 14t17 36q0 21 -15.5 33t-37.5 12zM294 52q28 0 46.5 15t18.5 40q0 23 -15.5 36.5t-40.5 13.5q-28 0 -46.5 -17t-18.5 -41q0 -22 15.5 -34.5t40.5 -12.5z" />
    <glyph glyph-name="nine.dnom" 
d="M338 367q61 0 98 -35t37 -104q0 -88 -53 -163.5t-134 -75.5q-46 0 -84.5 25.5t-39.5 81.5h84q0 -21 13.5 -31.5t31.5 -10.5q59 0 83 103q-29 -36 -81 -36q-48 0 -80 30t-32 79q0 57 44 97t113 40zM321 178q29 0 48.5 19.5t19.5 48.5q0 27 -16 43t-42 16q-28 0 -48 -19
t-20 -50q0 -28 16.5 -43t41.5 -15z" />
    <glyph glyph-name="zero.numr" 
d="M409 709q69 0 106 -42t37 -110q0 -90 -53 -158t-134 -68q-68 0 -105 42.5t-37 109.5q0 89 53.5 157.5t132.5 68.5zM404 641q-38 0 -62 -41t-31 -96l148 107q-15 30 -55 30zM370 398q42 0 67 48t29 109l-154 -113q11 -44 58 -44z" />
    <glyph glyph-name="one.numr" 
d="M413 402h103l-15 -67h-300l14 67h111l47 219l-125 -53l19 90l144 42h66z" />
    <glyph glyph-name="two.numr" 
d="M401 440l-63 -36h164l-14 -67h-287l10 50l161 111q27 19 39.5 29t27.5 30t15 40t-13 32t-36 12q-55 0 -72 -68h-82q32 135 156 135q61 0 96 -29.5t35 -79.5q0 -28 -10 -51t-32.5 -43t-41.5 -32.5t-53 -32.5z" />
    <glyph glyph-name="three.numr" 
d="M562 700l-14 -65l-127 -85q42 -8 67 -35.5t25 -68.5q0 -51 -41 -85t-102 -34q-65 0 -104 37.5t-37 93.5h79q0 -28 17.5 -46.5t45.5 -18.5q26 0 44.5 16t18.5 39q0 20 -15 34t-41 14h-40l-14 49l121 86h-167l15 69h269z" />
    <glyph glyph-name="four.numr" 
d="M532 476l-15 -66h-55l-16 -75h-79l16 75h-176l-2 52q96 130 134 238h91q-43 -107 -129 -224h97l34 127h71l-27 -127h56z" />
    <glyph glyph-name="five.numr" 
d="M540 631h-194l-27 -93q34 34 86 34q50 0 82.5 -29.5t32.5 -78.5q0 -58 -43.5 -96.5t-110.5 -38.5q-61 0 -100 32t-40 88h81q0 -27 17 -41t42 -14q30 0 50 20t20 49q0 24 -14.5 39t-38.5 15q-39 0 -63 -28l-75 24l50 187h260z" />
    <glyph glyph-name="six.numr" 
d="M409 577q48 0 80 -30t32 -79q0 -57 -44 -97t-113 -40q-61 0 -98 35t-37 104q0 88 53 163.5t134 75.5q46 0 84.5 -25.5t39.5 -81.5h-84q0 21 -13.5 31.5t-31.5 10.5q-59 0 -83 -103q29 36 81 36zM371 393q28 0 48 19t20 50q0 28 -16.5 43t-41.5 15q-29 0 -48.5 -19.5
t-19.5 -48.5q0 -27 16 -43t42 -16z" />
    <glyph glyph-name="seven.numr" 
d="M280 700h288l-12 -55q-139 -109 -188 -307h-96l1 4q47 184 195 288h-203z" />
    <glyph glyph-name="eight.numr" 
d="M455 526q63 -22 63 -82q0 -51 -43 -81.5t-108 -30.5q-62 0 -103.5 27t-41.5 78q0 39 27 67.5t73 35.5q-51 20 -51 70q0 47 39.5 73.5t97.5 26.5q55 0 93.5 -25t38.5 -72q0 -35 -23 -57.5t-62 -29.5zM407 650q-25 0 -42.5 -14t-17.5 -36q0 -20 15.5 -32.5t38.5 -12.5
q25 0 42 14t17 36q0 21 -15.5 33t-37.5 12zM367 396q28 0 46.5 15t18.5 40q0 23 -15.5 36.5t-40.5 13.5q-28 0 -46.5 -17t-18.5 -41q0 -22 15.5 -34.5t40.5 -12.5z" />
    <glyph glyph-name="nine.numr" 
d="M411 711q61 0 98 -35t37 -104q0 -88 -53 -163.5t-134 -75.5q-46 0 -84.5 25.5t-39.5 81.5h84q0 -21 13.5 -31.5t31.5 -10.5q59 0 83 103q-29 -36 -81 -36q-48 0 -80 30t-32 79q0 57 44 97t113 40zM394 522q29 0 48.5 19.5t19.5 48.5q0 27 -16 43t-42 16q-28 0 -48 -19
t-20 -50q0 -28 16.5 -43t41.5 -15z" />
    <glyph glyph-name="uni2083.ss10" 
d="M433 120q0 -35 -21 -60.5t-56 -33.5q50 -19 50 -70q0 -49 -41.5 -81t-103.5 -32q-66 0 -106.5 36t-37.5 93h82q-2 -28 16 -45t48 -17q28 0 45.5 14.5t17.5 38.5q0 44 -59 44h-22l11 57h24q33 0 52.5 13t19.5 36q0 21 -15 32.5t-38 11.5q-54 0 -69 -55h-79q33 120 152 120
q58 0 94 -27.5t36 -74.5z" />
    <glyph glyph-name="three.dnom.ss10" 
d="M464 265q0 -35 -21 -60.5t-56 -33.5q50 -19 50 -70q0 -49 -41.5 -81t-103.5 -32q-66 0 -106.5 36t-37.5 93h82q-2 -28 16 -45t48 -17q28 0 45.5 14.5t17.5 38.5q0 44 -59 44h-22l11 57h24q33 0 52.5 13t19.5 36q0 21 -15 32.5t-38 11.5q-54 0 -69 -55h-79q33 120 152 120
q58 0 94 -27.5t36 -74.5z" />
    <glyph glyph-name="three.numr.ss10" 
d="M537 607q0 -35 -21 -60.5t-56 -33.5q50 -19 50 -70q0 -49 -41.5 -81t-103.5 -32q-66 0 -106.5 36t-37.5 93h82q-2 -28 16 -45t48 -17q28 0 45.5 14.5t17.5 38.5q0 44 -59 44h-22l11 57h24q33 0 52.5 13t19.5 36q0 21 -15 32.5t-38 11.5q-54 0 -69 -55h-79q33 120 152 120
q58 0 94 -27.5t36 -74.5z" />
    <glyph glyph-name="uni00B3.ss10" 
d="M537 607q0 -35 -21 -60.5t-56 -33.5q50 -19 50 -70q0 -49 -41.5 -81t-103.5 -32q-66 0 -106.5 36t-37.5 93h82q-2 -28 16 -45t48 -17q28 0 45.5 14.5t17.5 38.5q0 44 -59 44h-22l11 57h24q33 0 52.5 13t19.5 36q0 21 -15 32.5t-38 11.5q-54 0 -69 -55h-79q33 120 152 120
q58 0 94 -27.5t36 -74.5z" />
    <glyph glyph-name="threequarters.ss10" 
d="M708 664l-238 -232l-40 36l219 246zM205 330q-66 0 -106.5 36t-37.5 93h82q-2 -28 16 -45t48 -17q28 0 45.5 14.5t17.5 38.5q0 44 -59 44h-22l11 57h24q33 0 52.5 13t19.5 36q0 21 -15 32.5t-38 11.5q-54 0 -69 -55h-79q33 120 152 120q58 0 94 -27.5t36 -74.5
q0 -35 -21 -60.5t-56 -33.5q50 -19 50 -70q0 -49 -41.5 -81t-103.5 -32zM582 268l-27 -127h56l-15 -66h-55l-16 -75h-79l16 75h-176l-2 52q96 130 134 238h91q-43 -107 -129 -224h97l34 127h71zM-6 39l237 232l41 -36l-220 -246z" />
    <glyph glyph-name="uni2157.ss10" 
d="M708 664l-238 -232l-40 36l219 246zM205 330q-66 0 -106.5 36t-37.5 93h82q-2 -28 16 -45t48 -17q28 0 45.5 14.5t17.5 38.5q0 44 -59 44h-22l11 57h24q33 0 52.5 13t19.5 36q0 21 -15 32.5t-38 11.5q-54 0 -69 -55h-79q33 120 152 120q58 0 94 -27.5t36 -74.5
q0 -35 -21 -60.5t-56 -33.5q50 -19 50 -70q0 -49 -41.5 -81t-103.5 -32zM333 173l50 187h260l-15 -69h-194l-27 -93q34 34 86 34q50 0 82.5 -29.5t32.5 -78.5q0 -58 -43.5 -96.5t-110.5 -38.5q-61 0 -100 32t-40 88h81q0 -27 17 -41t42 -14q30 0 50 20t20 49q0 24 -14.5 39
t-38.5 15q-39 0 -63 -28zM-6 39l237 232l41 -36l-220 -246z" />
    <glyph glyph-name="threeeighths.ss10" 
d="M708 664l-238 -232l-40 36l219 246zM205 330q-66 0 -106.5 36t-37.5 93h82q-2 -28 16 -45t48 -17q28 0 45.5 14.5t17.5 38.5q0 44 -59 44h-22l11 57h24q33 0 52.5 13t19.5 36q0 21 -15 32.5t-38 11.5q-54 0 -69 -55h-79q33 120 152 120q58 0 94 -27.5t36 -74.5
q0 -35 -21 -60.5t-56 -33.5q50 -19 50 -70q0 -49 -41.5 -81t-103.5 -32zM627 269q0 -35 -23 -57.5t-62 -29.5q63 -22 63 -82q0 -51 -43 -81.5t-108 -30.5q-62 0 -103.5 27t-41.5 78q0 39 27 67.5t73 35.5q-51 20 -51 70q0 47 39.5 73.5t97.5 26.5q55 0 93.5 -25t38.5 -72z
M488 211q25 0 42 14t17 36q0 21 -15.5 33t-37.5 12q-25 0 -42.5 -14t-17.5 -36q0 -20 15.5 -32.5t38.5 -12.5zM-6 39l237 232l41 -36l-220 -246zM454 52q28 0 46.5 15t18.5 40q0 23 -15.5 36.5t-40.5 13.5q-28 0 -46.5 -17t-18.5 -41q0 -22 15.5 -34.5t40.5 -12.5z" />
    <glyph glyph-name="uni2084.ss11" 
d="M430 -14l-14 -64h-55l-16 -74h-79l16 74h-177l1 64l212 227h105l-49 -227h56zM332 136l-134 -150h98z" />
    <glyph glyph-name="four.dnom.ss11" 
d="M463 138l-14 -64h-55l-16 -74h-79l16 74h-177l1 64l212 227h105l-49 -227h56zM365 288l-134 -150h98z" />
    <glyph glyph-name="four.numr.ss11" 
d="M534 473l-14 -64h-55l-16 -74h-79l16 74h-177l1 64l212 227h105l-49 -227h56zM436 623l-134 -150h98z" />
    <glyph glyph-name="uni2074.ss11" 
d="M534 473l-14 -64h-55l-16 -74h-79l16 74h-177l1 64l212 227h105l-49 -227h56zM436 623l-134 -150h98z" />
    <glyph glyph-name="onequarter.ss11" 
d="M708 664l-238 -232l-40 36l219 246zM41 335l14 67h111l47 219l-125 -53l19 90l144 42h66l-64 -298h103l-15 -67h-300zM606 365l-49 -227h56l-14 -64h-55l-16 -74h-79l16 74h-177l1 64l212 227h105zM515 288l-134 -150h98zM-6 39l237 232l41 -36l-220 -246z" />
    <glyph glyph-name="threequarters.ss11" 
d="M708 664l-238 -232l-40 36l219 246zM210 327q-65 0 -104 37.5t-37 93.5h79q0 -28 17.5 -46.5t45.5 -18.5q26 0 44.5 16t18.5 39q0 20 -15 34t-41 14h-40l-14 49l121 86h-167l15 69h269l-14 -65l-127 -85q42 -8 67 -35.5t25 -68.5q0 -51 -41 -85t-102 -34zM606 365
l-49 -227h56l-14 -64h-55l-16 -74h-79l16 74h-177l1 64l212 227h105zM515 288l-134 -150h98zM-6 39l237 232l41 -36l-220 -246z" />
    <glyph glyph-name="uni2158.ss11" 
d="M708 664l-238 -232l-40 36l219 246zM360 409h-55l-16 -74h-79l16 74h-177l1 64l212 227h105l-49 -227h56zM276 623l-134 -150h98zM333 173l50 187h260l-15 -69h-194l-27 -93q34 34 86 34q50 0 82.5 -29.5t32.5 -78.5q0 -58 -43.5 -96.5t-110.5 -38.5q-61 0 -100 32
t-40 88h81q0 -27 17 -41t42 -14q30 0 50 20t20 49q0 24 -14.5 39t-38.5 15q-39 0 -63 -28zM-6 39l237 232l41 -36l-220 -246z" />
    <glyph glyph-name="zero.sc" 
d="M365 568q109 0 177 -68t68 -180q0 -133 -87 -231.5t-218 -98.5q-109 0 -176 68.5t-67 180.5q0 133 86.5 231t216.5 98zM360 472q-80 0 -131 -72.5t-51 -162.5q0 -19 3 -35l286 216q-35 54 -107 54zM311 86q81 0 131.5 73t50.5 163q0 13 -2 33l-286 -217q35 -52 106 -52z
" />
    <glyph glyph-name="one.sc" 
d="M372 94h209l-20 -94h-537l20 94h214l76 355l-201 -69l24 117l242 60v-1l1 1h71z" />
    <glyph glyph-name="two.sc" 
d="M324 131l-77 -37h305l-20 -94h-490l17 75l230 133q39 23 53.5 31.5t43 26.5t39.5 29t26 27.5t20 32.5t5 35q0 38 -27 60.5t-74 22.5q-53 0 -85.5 -29.5t-49.5 -95.5h-116q52 220 253 220q97 0 156 -47.5t59 -127.5q0 -82 -64 -138.5t-204 -123.5z" />
    <glyph glyph-name="three.sc" 
d="M615 557l-19 -88l-201 -143q71 -12 109.5 -53.5t38.5 -101.5q0 -78 -66.5 -130t-166.5 -52q-101 0 -169 53t-68 142h116q0 -47 35 -75t89 -28q51 0 85.5 25.5t34.5 64.5q0 35 -27.5 58.5t-83.5 23.5h-65l-11 66l201 143h-303l21 95h450z" />
    <glyph glyph-name="four.sc" 
d="M595 204l-20 -94h-107l-23 -110h-117l23 110h-309v71q153 190 233 376h117q-81 -182 -216 -353h196l53 204h107l-43 -204h106z" />
    <glyph glyph-name="five.sc" 
d="M585 463h-329l-41 -142q58 51 141 51q86 0 140.5 -50t54.5 -129q0 -90 -69 -147t-173 -57q-95 0 -162 49t-71 135h113q3 -42 37.5 -65.5t81.5 -23.5q55 0 91 30.5t36 76.5q0 43 -32.5 69t-85.5 26q-65 0 -119 -40l-87 37l73 274h422z" />
    <glyph glyph-name="six.sc" 
d="M357 368q83 0 140 -50t57 -127q0 -85 -69.5 -143.5t-177.5 -58.5q-105 0 -165.5 59.5t-60.5 173.5q0 87 33 164.5t100.5 129.5t155.5 52q83 0 144.5 -43.5t67.5 -114.5h-115q-5 30 -33 47t-67 17q-122 0 -165 -181q53 75 155 75zM312 83q53 0 89 31t36 77
q0 40 -31.5 65.5t-78.5 25.5q-57 0 -92.5 -30t-35.5 -75q0 -43 32.5 -68.5t80.5 -25.5z" />
    <glyph glyph-name="seven.sc" 
d="M159 557h489l-17 -80q-135 -100 -223 -225.5t-116 -251.5h-122l2 8q28 125 112.5 244t217.5 211h-363z" />
    <glyph glyph-name="eight.sc" 
d="M450 286q43 -15 72 -51t29 -78q0 -73 -69.5 -120.5t-177.5 -47.5q-99 0 -168 43t-69 121q0 64 44 103t116 49q-36 15 -59 45.5t-23 67.5q0 68 62.5 109.5t154.5 41.5q91 0 157 -38.5t66 -109.5q0 -55 -36.5 -89.5t-98.5 -45.5zM360 481q-50 0 -79.5 -20.5t-29.5 -55.5
q0 -34 29.5 -56t79.5 -22q51 0 82.5 23t31.5 59t-33.5 54t-80.5 18zM312 82q56 0 92 24t36 63q0 41 -39 63t-93 22q-55 0 -89.5 -24t-34.5 -63q0 -40 37 -62.5t91 -22.5z" />
    <glyph glyph-name="nine.sc" 
d="M351 570q105 0 165.5 -59.5t60.5 -173.5q0 -87 -33 -164.5t-100.5 -129.5t-155.5 -52q-83 0 -144.5 43.5t-67.5 114.5h115q5 -30 33 -47t67 -17q122 0 165 181q-53 -75 -155 -75q-83 0 -140 50t-57 127q0 85 69.5 143.5t177.5 58.5zM331 277q57 0 92.5 30t35.5 75
q0 43 -32.5 68.5t-80.5 25.5q-53 0 -89 -31t-36 -77q0 -40 31.5 -65.5t78.5 -25.5z" />
    <glyph glyph-name="zero.zero.sc" 
d="M365 568q109 0 177 -68t68 -180q0 -133 -87 -231.5t-218 -98.5q-109 0 -176 68.5t-67 180.5q0 133 86.5 231t216.5 98zM360 472q-80 0 -131 -72.5t-51 -162.5q0 -19 3 -35l286 216q-35 54 -107 54zM311 86q81 0 131.5 73t50.5 163q0 13 -2 33l-286 -217q35 -52 106 -52z
" />
    <glyph glyph-name="three.sc.ss10" 
d="M574 414q0 -55 -35 -89.5t-93 -46.5q42 -14 66.5 -45.5t24.5 -74.5q0 -72 -66 -121t-165 -49q-102 0 -169.5 52.5t-66.5 142.5h119q-2 -49 33 -74t86 -25t84 24.5t33 60.5q0 31 -27.5 52t-80.5 21h-45l17 83h44q126 0 126 75q0 34 -26.5 53.5t-70.5 19.5q-49 0 -82 -25
t-40 -68h-117q23 91 86 140t158 49q89 0 148 -41.5t59 -113.5z" />
    <glyph glyph-name="four.sc.ss11" 
d="M579 202l-20 -95h-85l-23 -107h-119l22 107h-311l6 95l382 355h138l-75 -355h85zM437 450l-257 -248h195z" />
    <glyph glyph-name="backslash.case" 
d="M488 0h-95l-159 700h93z" />
    <glyph glyph-name="periodcentered.case" 
d="M263 286l30 145h151l-31 -145h-150z" />
    <glyph glyph-name="bullet.case" 
d="M345 191q-62 0 -106.5 44t-44.5 106v2q0 62 44.5 106t106.5 44q63 0 107.5 -44t44.5 -106v-2q0 -62 -44.5 -106t-107.5 -44z" />
    <glyph glyph-name="exclamdown.case" 
d="M500 700l-29 -138h-151l30 138h150zM424 475l-83 -475h-130l118 475h95z" />
    <glyph glyph-name="questiondown.case" 
d="M513 700l-29 -138h-150l29 138h150zM445 198h115q-25 -107 -92 -158t-161 -51q-95 0 -156.5 51.5t-61.5 133.5q0 46 16 81t49.5 60.5t65 42t82.5 36.5l20 7l23 87h91l-24 -143l-82 -36q-61 -27 -93 -57t-32 -77q0 -40 29.5 -65.5t73.5 -25.5q107 0 137 114z" />
    <glyph glyph-name="slash.case" 
d="M78 0l457 700h101l-456 -700h-102z" />
    <glyph glyph-name="braceleft.case" 
d="M505 760h127l-20 -91h-116q-60 0 -73 -59l-29 -136q-21 -99 -110 -124q78 -24 57 -124l-28 -136q-13 -59 47 -59h117l-20 -91h-127q-75 0 -109.5 37t-20.5 104l30 141q11 52 -8 68.5t-67 16.5h-7l19 84h7q48 0 74 17.5t37 69.5l30 141q14 67 64.5 104t125.5 37z" />
    <glyph glyph-name="braceright.case" 
d="M553 393l-19 -84h-7q-48 0 -74 -17.5t-37 -69.5l-30 -141q-14 -67 -64.5 -104t-125.5 -37h-127l20 91h116q60 0 73 59l29 136q21 99 110 124q-78 24 -57 124l28 136q13 59 -47 59h-117l20 91h127q75 0 109.5 -37t20.5 -104l-30 -141q-11 -52 8 -68.5t67 -16.5h7z" />
    <glyph glyph-name="bracketleft.case" 
d="M606 669h-162l-137 -638h163l-19 -91h-274l175 820h274z" />
    <glyph glyph-name="bracketright.case" 
d="M524 760l-175 -820h-274l20 91h162l137 638h-163l19 91h274z" />
    <glyph glyph-name="parenleft.case" 
d="M282 -59q-105 139 -105 319q0 302 278 500h133q-302 -207 -302 -496q0 -183 119 -323h-123z" />
    <glyph glyph-name="parenright.case" 
d="M419 760q105 -139 105 -319q0 -302 -278 -500h-133q302 207 302 496q0 183 -119 323h123z" />
    <glyph glyph-name="emdash.case" 
d="M88 399h546l-19 -89h-546z" />
    <glyph glyph-name="endash.case" 
d="M125 399h474l-19 -89h-474z" />
    <glyph glyph-name="hyphen.case" 
d="M211 404h303l-20 -100h-304z" />
    <glyph glyph-name="guillemotleft.case" 
d="M237 342l81 -169h-119l-88 178l163 178h130zM446 342l91 -169h-129l-89 178l164 178h140z" />
    <glyph glyph-name="guillemotright.case" 
d="M256 360l-91 169h129l89 -178l-164 -178h-140zM465 360l-81 169h119l88 -178l-163 -178h-130z" />
    <glyph glyph-name="guilsinglleft.case" 
d="M323 343l99 -170h-123l-98 178l173 178h130z" />
    <glyph glyph-name="guilsinglright.case" 
d="M379 359l-99 170h123l98 -178l-173 -178h-130z" />
    <glyph glyph-name="asterisk.sc" 
d="M525 415h-100l48 -99l-68 -27l-44 110l-85 -82l-51 52l85 70l-92 41l33 66l97 -55l17 107l73 -16l-28 -104l112 10z" />
    <glyph glyph-name="backslash.sc" 
d="M444 0h-82l-110 557h82z" />
    <glyph glyph-name="braceleft.sc" 
d="M475 621h92l-18 -85h-87q-53 0 -64 -50l-15 -72q-13 -61 -45 -92t-86 -41q50 -10 69 -41t5 -93l-15 -71q-5 -24 6 -37t37 -13h87l-18 -84h-92q-73 0 -106 35t-19 97l15 73q12 56 -8 74.5t-61 18.5h-11l17 81h11q41 0 69 19t40 74l16 74q14 63 61 98t120 35z" />
    <glyph glyph-name="braceright.sc" 
d="M520 322h11l-17 -81h-11q-41 0 -69 -19t-40 -74l-16 -74q-14 -63 -61 -98t-120 -35h-92l18 85h87q53 0 64 50l15 72q13 61 45 92t86 41q-50 10 -69 41t-5 93l15 71q5 24 -6 37t-37 13h-87l18 84h92q73 0 106 -35t19 -97l-15 -73q-12 -56 8 -74.5t61 -18.5z" />
    <glyph glyph-name="bracketleft.sc" 
d="M554 538h-145l-109 -514h145l-17 -82h-250l144 679h250z" />
    <glyph glyph-name="bracketright.sc" 
d="M494 620l-144 -679h-250l18 83h145l109 514h-145l17 82h250z" />
    <glyph glyph-name="exclam.sc" 
d="M269 186l62 371h127l-95 -371h-94zM211 -2l25 122h132l-25 -122h-132z" />
    <glyph glyph-name="exclamdown.sc" 
d="M461 559l-25 -122h-132l25 122h132zM403 371l-62 -371h-127l95 371h94z" />
    <glyph glyph-name="guillemotleft.sc" 
d="M219 276l84 -148h-112l-88 154l154 155h121zM415 276l91 -148h-120l-87 154l153 155h129z" />
    <glyph glyph-name="guillemotright.sc" 
d="M258 288l-91 148h120l87 -154l-153 -155h-129zM454 288l-84 148h112l88 -154l-154 -155h-121z" />
    <glyph glyph-name="guilsinglleft.sc" 
d="M303 276l97 -148h-120l-93 154l159 155h128z" />
    <glyph glyph-name="guilsinglright.sc" 
d="M370 288l-97 148h120l93 -154l-159 -155h-128z" />
    <glyph glyph-name="numbersign.sc" 
d="M615 349h-108l-55 -126h93l-19 -85h-111l-60 -138h-92l60 138h-111l-60 -138h-92l60 138h-88l18 85h108l55 126h-93l19 86h112l53 122h91l-53 -122h111l53 122h92l-53 -122h89zM360 223l55 126h-111l-55 -126h111z" />
    <glyph glyph-name="parenleft.sc" 
d="M286 -58q-101 113 -101 263q0 128 65.5 234t185.5 182h142q-139 -86 -210 -186t-71 -231q0 -144 101 -262h-112z" />
    <glyph glyph-name="parenright.sc" 
d="M387 620q101 -113 101 -263q0 -128 -65.5 -234t-185.5 -182h-142q139 86 210 186t71 231q0 144 -101 262h112z" />
    <glyph glyph-name="question.sc" 
d="M375 568q87 0 140 -43.5t53 -117.5q0 -72 -51.5 -113t-141.5 -64l-11 -3l-17 -58h-90l13 103l73 27q112 40 112 105q0 33 -22 52.5t-60 19.5q-40 0 -69.5 -23.5t-39.5 -67.5h-112q21 92 80 137.5t143 45.5zM198 -1l26 124h132l-27 -124h-131z" />
    <glyph glyph-name="questiondown.sc" 
d="M473 560l-26 -124h-132l27 124h131zM407 174h112q-21 -92 -80 -137.5t-143 -45.5q-87 0 -140 43.5t-53 117.5q0 72 51.5 113t141.5 64l11 3l17 58h90l-13 -103l-73 -27q-112 -40 -112 -105q0 -33 22 -52.5t60 -19.5q40 0 69.5 23.5t39.5 67.5z" />
    <glyph glyph-name="quotedblbase.sc" 
d="M82 -107l60 226h150l-133 -226h-77zM259 -107l60 226h150l-133 -226h-77z" />
    <glyph glyph-name="quotedblleft.sc" 
d="M374 558l-60 -226h-150l133 226h77zM552 558l-60 -226h-150l133 226h77z" />
    <glyph glyph-name="quotedblright.sc" 
d="M188 332l60 226h150l-133 -226h-77zM367 332l60 226h150l-133 -226h-77z" />
    <glyph glyph-name="quoteleft.sc" 
d="M459 558l-60 -226h-150l133 226h77z" />
    <glyph glyph-name="quoteright.sc" 
d="M259 332l60 226h150l-133 -226h-77z" />
    <glyph glyph-name="quotesinglbase.sc" 
d="M166 -107l60 226h150l-133 -226h-77z" />
    <glyph glyph-name="slash.sc" 
d="M124 0l347 557h94l-348 -557h-93z" />
    <glyph glyph-name="typewritermark" 
d="M372 700l-15 -68h-90l-58 -271h-80l58 271h-91l15 68h261zM652 700h76l-121 -339h-56l-12 202l-96 -202h-62l23 339h77l-27 -200l79 155h47l14 -155z" />
    <glyph glyph-name="registered.alt" 
d="M394 711q123 0 198 -83t75 -214q0 -107 -46 -204.5t-131 -159t-187 -61.5q-123 0 -195 83t-72 215q0 107 45 204t128.5 158.5t184.5 61.5zM308 42q87 0 157.5 55t107.5 139t37 176q0 111 -59.5 178.5t-161.5 67.5q-86 0 -155 -54t-105 -137.5t-36 -177.5
q0 -112 56.5 -179.5t158.5 -67.5zM399 553q57 0 93 -31t36 -77q0 -42 -30 -73.5t-78 -44.5l61 -175h-94l-44 167h-58l-35 -167h-79l85 401h143zM374 385q33 0 55 15t22 41q0 19 -15.5 31.5t-39.5 12.5h-75l-22 -100h75z" />
    <glyph glyph-name="at.case" 
d="M326 -11q-136 0 -215.5 80t-79.5 217q0 179 105.5 299t263.5 120q127 0 200.5 -73.5t73.5 -198.5q0 -107 -52.5 -189.5t-144.5 -82.5q-74 0 -91 69h-4q-11 -29 -40.5 -49t-65.5 -20q-49 0 -77 37.5t-28 101.5q0 86 45.5 153.5t119.5 67.5q66 0 85 -57h2l11 50h103
l-46 -213q-15 -71 25 -71q42 0 69 66t27 136q0 100 -58 158.5t-159 58.5q-129 0 -215.5 -102.5t-86.5 -255.5q0 -113 63 -179t172 -66q111 0 209 83l-18 -84q-90 -56 -193 -56zM319 245q39 0 60.5 44t21.5 91q0 65 -52 65q-39 0 -60 -44.5t-21 -91.5q0 -64 51 -64z" />
    <glyph glyph-name="registered.alt.ss03" 
d="M394 711q123 0 198 -83t75 -214q0 -107 -46 -204.5t-131 -159t-187 -61.5q-123 0 -195 83t-72 215q0 107 45 204t128.5 158.5t184.5 61.5zM308 42q87 0 157.5 55t107.5 139t37 176q0 111 -59.5 178.5t-161.5 67.5q-86 0 -155 -54t-105 -137.5t-36 -177.5
q0 -112 56.5 -179.5t158.5 -67.5zM395 553q58 0 93.5 -27t35.5 -72q0 -44 -32 -72.5t-84 -38.5q19 -8 28 -24t15 -46l24 -121h-86l-16 113q-3 25 -16 37t-28 14t-48 2l-35 -166h-79l85 401h143zM370 385q33 0 55 15t22 41q0 19 -15.5 31.5t-39.5 12.5h-75l-22 -100h75z" />
    <glyph glyph-name="registered.ss03" 
d="M405 718q94 0 156 -60t62 -154q0 -109 -79.5 -189.5t-190.5 -80.5q-94 0 -156 61t-62 154q0 109 80 189t190 80zM358 278q91 0 155.5 66.5t64.5 154.5q0 76 -50.5 126t-127.5 50q-90 0 -155 -66t-65 -155q0 -77 50.5 -126.5t127.5 -49.5zM422 606q33 0 54.5 -18.5
t21.5 -47.5q0 -55 -71 -67q24 -9 31 -44l17 -73h-60l-12 72q-3 18 -17 23.5t-45 5.5h-10l-21 -101h-56l53 250h115zM399 502q19 0 33 8t14 23q0 12 -8.5 20t-21.5 8h-63l-13 -59h59z" />
    <glyph glyph-name="ampersand.ss12" 
d="M632 263h-57q-31 -80 -79 -140l78 -123h-119l-32 52q-85 -63 -183 -63q-95 0 -158.5 56.5t-63.5 141.5q0 80 49.5 129t138.5 86q-50 84 -50 139q0 75 58 122.5t144 47.5q76 0 127.5 -43t51.5 -108q0 -126 -190 -199l94 -149q36 62 56 145h155zM359 624q-41 0 -68 -25.5
t-27 -68.5q0 -40 33 -94q31 12 51 21.5t42 24t32.5 33t10.5 41.5q0 29 -21 48.5t-53 19.5zM257 84q63 0 117 46l-122 198q-124 -48 -124 -133q0 -47 37 -79t92 -32z" />
    <glyph glyph-name="at.sc" 
d="M310 -84q-136 0 -215.5 80t-79.5 217q0 179 105.5 299t263.5 120q127 0 200.5 -73.5t73.5 -198.5q0 -107 -52.5 -189.5t-144.5 -82.5q-74 0 -91 69h-4q-11 -29 -40.5 -49t-65.5 -20q-49 0 -77 37.5t-28 101.5q0 86 45.5 153.5t119.5 67.5q66 0 85 -57h2l11 50h103
l-46 -213q-15 -71 25 -71q42 0 69 66t27 136q0 101 -58 159t-159 58q-129 0 -215.5 -102.5t-86.5 -255.5q0 -113 63 -179t172 -66q111 0 209 83l-18 -84q-90 -56 -193 -56zM303 172q39 0 60.5 44t21.5 91q0 65 -52 65q-39 0 -60 -44.5t-21 -91.5q0 -64 51 -64z" />
    <glyph glyph-name="ampersand.sc" 
d="M568 285q-30 -116 -96 -190l70 -95h-107l-28 39q-77 -50 -172 -50q-83 0 -138 47t-55 117q0 63 41.5 103t117.5 68q-47 70 -47 110q0 62 51 100.5t127 38.5q67 0 112 -35.5t45 -88.5q0 -57 -41.5 -95.5t-114.5 -67.5l86 -117q34 47 50 116h99zM331 497q-34 0 -56.5 -19
t-22.5 -48q0 -30 33 -78q54 17 82.5 36.5t28.5 52.5q0 25 -18.5 40.5t-46.5 15.5zM245 72q62 0 112 35l-109 150q-46 -16 -72.5 -38t-26.5 -61q0 -37 27.5 -61.5t68.5 -24.5z" />
    <glyph glyph-name="section.sc" 
d="M379 376q7 -3 27 -11t26.5 -11t22.5 -10.5t21.5 -11.5l16.5 -12t14.5 -14.5t9 -16.5t7.5 -20.5t2 -23.5q0 -87 -90 -122q25 -28 25 -66q0 -61 -52.5 -99.5t-136.5 -38.5q-79 0 -127.5 37t-48.5 99h100q0 -26 21 -44.5t59 -18.5q35 0 56 16.5t21 40.5q0 19 -16.5 31.5
t-64.5 31.5q-86 34 -107 51q-35 27 -35 76q0 88 89 124q-27 25 -27 67q0 62 53 100t133 38q74 0 124 -35t51 -98h-99q-1 26 -22 43t-55 17t-56 -16t-22 -42q0 -18 16 -30t64 -31zM238 253q0 -23 16 -36.5t64 -31.5q53 -21 57 -23q44 29 44 69q0 23 -18.5 38t-67.5 34
q-3 1 -24 9.5t-31 13.5q-40 -31 -40 -73z" />
    <glyph glyph-name="copyright.sc" 
d="M37 243q0 138 99 241.5t235 103.5q114 0 189.5 -76.5t75.5 -193.5q0 -89 -44.5 -168.5t-122 -129t-167.5 -49.5q-115 0 -190 76.5t-75 195.5zM304 14q117 0 199.5 91t82.5 212q0 101 -61 164.5t-157 63.5q-117 0 -199.5 -91.5t-82.5 -210.5q0 -101 61 -165t157 -64z
M423 325q-2 29 -20.5 48t-47.5 19q-45 0 -74.5 -43t-29.5 -95q0 -39 19 -63t51 -24q57 0 91 72h81q-58 -139 -177 -139q-64 0 -104 42.5t-40 110.5q0 82 53.5 143.5t133.5 61.5q60 0 99 -36.5t42 -96.5h-77z" />
    <glyph glyph-name="degree.sc" 
d="M385 593q58 0 98.5 -38t40.5 -95q0 -64 -49.5 -110.5t-117.5 -46.5q-59 0 -98.5 37.5t-39.5 93.5q0 65 50 112t116 47zM380 528q-37 0 -63 -26t-26 -61q0 -31 20 -52t52 -21q36 0 62.5 26t26.5 63q0 31 -20 51t-52 20z" />
    <glyph glyph-name="dagger.sc" 
d="M522 496l-14 -69h-104l-53 -248h-72l53 248h-105l15 69h105l21 99h72l-21 -99h103z" />
    <glyph glyph-name="daggerdbl.sc" 
d="M508 427h-104l-17 -80h104l-15 -69h-104l-21 -99h-72l21 99h-104l14 69h105l17 80h-105l15 69h105l21 99h72l-21 -99h103z" />
    <glyph glyph-name="cent.sc" 
d="M344 142q69 11 97 83h109q-31 -83 -90.5 -127.5t-134.5 -45.5l-27 -129h-79l30 139q-64 18 -102 68t-38 121q0 103 66.5 176.5t167.5 78.5l27 130h80l-30 -138q61 -15 98.5 -57t42.5 -100h-105q-8 49 -55 68l-44 -206zM214 251q0 -70 55 -97l13 60l42 201
q-51 -12 -80.5 -59t-29.5 -105z" />
    <glyph glyph-name="currency.sc" 
d="M535 409q24 -43 24 -101q0 -93 -60 -164l50 -58l-56 -46l-49 56q-59 -38 -130 -38q-81 0 -136 50l-96 -74l-46 56l100 78q-17 40 -17 87q0 100 68 173l-58 69l56 46l59 -69q54 31 119 31q72 0 125 -40l107 83l46 -57zM200 262q0 -55 32.5 -90t89.5 -35q66 0 110.5 49
t44.5 115q0 55 -33 90t-89 35q-66 0 -110.5 -48.5t-44.5 -115.5z" />
    <glyph glyph-name="dollar.sc" 
d="M572 384h-98q2 54 -60 77l-21 -100l-10 -49q74 -27 110 -56.5t36 -84.5q0 -69 -59.5 -111.5t-149.5 -44.5l-21 -101h-91l24 110q-69 18 -109.5 65t-39.5 114h99q0 -67 68 -96l32 149q-65 22 -102.5 52.5t-37.5 87.5q0 66 54.5 107.5t146.5 44.5l27 128h91l-29 -136
q66 -15 103.5 -56t36.5 -100zM244 399q0 -19 12.5 -31t44.5 -26l26 128q-40 -5 -61.5 -24.5t-21.5 -46.5zM425 165q0 18 -12.5 32t-47.5 30l-28 -132q38 4 63 22t25 48z" />
    <glyph glyph-name="Euro.sc" 
d="M338 75q100 0 149 126h107q-69 -211 -261 -211q-94 0 -154 53t-70 150h-101l13 57h86q1 28 8 61h-82l13 58h86q33 89 103.5 143.5t166.5 54.5q95 0 155.5 -54.5t67.5 -155.5h-106q-1 61 -32 93t-84 32q-102 0 -153 -113h197l-13 -58h-205q-8 -33 -11 -61h204l-13 -57
h-191q12 -118 120 -118z" />
    <glyph glyph-name="percent.sc" 
d="M182 296q-58 0 -94 33.5t-36 85.5q0 63 44.5 106t106.5 43q58 0 94 -33.5t36 -85.5q0 -64 -44.5 -106.5t-106.5 -42.5zM64 52l-27 45l588 429l28 -42zM185 359q31 0 53.5 22.5t22.5 56.5q0 27 -17 44.5t-44 17.5q-31 0 -53.5 -23t-22.5 -58q0 -26 17 -43t44 -17zM449 -10
q-58 0 -94 33.5t-36 85.5q0 63 44.5 106t106.5 43q58 0 94 -33.5t36 -85.5q0 -64 -44.5 -106.5t-106.5 -42.5zM452 52q30 0 53 23.5t23 56.5q0 27 -17 45t-44 18q-31 0 -53.5 -23.5t-22.5 -58.5q0 -26 17 -43.5t44 -17.5z" />
    <glyph glyph-name="perthousand.sc" 
d="M197 337q-57 0 -93 29.5t-36 76.5q0 55 41.5 90.5t101.5 35.5q57 0 92.5 -30.5t35.5 -77.5q0 -54 -41.5 -89t-100.5 -35zM201 396q27 0 45.5 17.5t17.5 45.5q0 23 -16 36.5t-42 13.5q-27 0 -45.5 -17.5t-17.5 -46.5q1 -22 17 -35.5t41 -13.5zM19 210l-10 44l661 183
l10 -43zM176 -10q-57 0 -93 29.5t-36 76.5q0 55 41 90.5t101 35.5q57 0 93 -30.5t36 -77.5q0 -54 -41.5 -89t-100.5 -35zM473 -10q-57 0 -93 29.5t-36 76.5q0 55 41.5 90.5t101.5 35.5q57 0 92.5 -30.5t35.5 -77.5q0 -54 -41.5 -89t-100.5 -35zM179 49q28 0 46 17t18 46
q0 23 -16 36.5t-42 13.5q-27 0 -46 -18t-18 -46q1 -22 17 -35.5t41 -13.5zM477 49q27 0 45.5 17.5t17.5 45.5q0 23 -16 36.5t-42 13.5q-27 0 -45.5 -17.5t-17.5 -46.5q1 -22 17 -35.5t41 -13.5z" />
    <glyph glyph-name="sterling.sc" 
d="M298 223q-2 -28 -20 -55t-31.5 -38.5t-47.5 -38.5h303l-19 -91h-417l2 66q38 37 56.5 56.5t36.5 47.5t22 53h-101l17 81h71q-16 46 -16 78q0 83 58 134t154 51q80 0 135 -46t60 -117h-99q-4 33 -31.5 53.5t-64.5 20.5q-49 0 -77.5 -28t-28.5 -72q0 -23 19 -74h200
l-17 -81h-164z" />
    <glyph glyph-name="yen.sc" 
d="M660 557l-225 -281h111l-12 -55h-144l-17 -22l-4 -21h156l-12 -55h-156l-26 -123h-108l26 123h-157l12 55h157l5 21l-9 22h-145l12 55h112l-106 281h111l91 -266l204 266h124z" />
    <glyph glyph-name="ampersand.sc.ss12" 
d="M607 206h-78q-29 -66 -70 -111l70 -95h-107l-28 39q-77 -50 -172 -50q-83 0 -138 47t-55 117q0 63 41.5 103t117.5 68q-47 70 -47 110q0 62 51 100.5t127 38.5q67 0 112 -35.5t45 -88.5q0 -57 -41.5 -95.5t-114.5 -67.5l86 -117q34 47 50 116h167zM318 497
q-34 0 -56.5 -19t-22.5 -48q0 -30 33 -78q54 17 82.5 36.5t28.5 52.5q0 25 -18.5 40.5t-46.5 15.5zM232 72q62 0 112 35l-109 150q-46 -16 -72.5 -38t-26.5 -61q0 -37 27.5 -61.5t68.5 -24.5z" />
    <glyph glyph-name="caron.alt" 
d="M395 763h118l-105 -202h-75z" />
  </font>
</defs>
</svg>
