<?xml version="1.0" encoding="utf-8"?>
<!-- Svg Vector Icons : http://www.onlinewebfonts.com/icon -->
<!DOCTYPE svg PUBLIC "-//W3C//DTD SVG 1.1//EN" "http://www.w3.org/Graphics/SVG/1.1/DTD/svg11.dtd">
<svg version="1.1" xmlns="http://www.w3.org/2000/svg" xmlns:xlink="http://www.w3.org/1999/xlink" x="0px" y="0px" viewBox="0 0 1000 1000" enable-background="new 0 0 1000 1000" xml:space="preserve">
<metadata> Svg Vector Icons : http://www.onlinewebfonts.com/icon </metadata>
<g><g><path d="M500,10C229.4,10,10,229.4,10,500c0,270.6,219.4,490,490,490c270.6,0,490-219.4,490-490C990,229.4,770.6,10,500,10z M500,255c135.3,0,245,109.7,245,245c0,135.3-109.7,245-245,245c-135.3,0-245-109.7-245-245C255,364.7,364.7,255,500,255z M792.3,792.3C714.3,870.4,610.4,913.4,500,913.4c-110.4,0-214.3-43-292.3-121.1C129.6,714.3,86.6,610.4,86.6,500c0-110.4,43-214.3,121.1-292.3l65,65l0,0C147.2,398,147.2,602,272.6,727.4c60.7,60.7,141.5,94.2,227.4,94.2c85.9,0,166.6-33.4,227.4-94.2c125.4-125.4,125.4-329.4,0-454.8l65-65c78.1,78.1,121.1,181.9,121.1,292.3C913.4,610.4,870.4,714.3,792.3,792.3z"/></g></g>
</svg>