<?xml version="1.0" encoding="utf-8"?>
<!-- Generator: Adobe Illustrator 17.0.0, SVG Export Plug-In . SVG Version: 6.00 Build 0)  -->
<!DOCTYPE svg PUBLIC "-//W3C//DTD SVG 1.1//EN" "http://www.w3.org/Graphics/SVG/1.1/DTD/svg11.dtd" [
	<!ENTITY ns_extend "http://ns.adobe.com/Extensibility/1.0/">
	<!ENTITY ns_ai "http://ns.adobe.com/AdobeIllustrator/10.0/">
	<!ENTITY ns_graphs "http://ns.adobe.com/Graphs/1.0/">
	<!ENTITY ns_vars "http://ns.adobe.com/Variables/1.0/">
	<!ENTITY ns_imrep "http://ns.adobe.com/ImageReplacement/1.0/">
	<!ENTITY ns_sfw "http://ns.adobe.com/SaveForWeb/1.0/">
	<!ENTITY ns_custom "http://ns.adobe.com/GenericCustomNamespace/1.0/">
	<!ENTITY ns_adobe_xpath "http://ns.adobe.com/XPath/1.0/">
]>
<svg version="1.1" id="Layer_1" xmlns:x="&ns_extend;" xmlns:i="&ns_ai;" xmlns:graph="&ns_graphs;"
	 xmlns="http://www.w3.org/2000/svg" xmlns:xlink="http://www.w3.org/1999/xlink" x="0px" y="0px" width="841.89px"
	 height="595.28px" viewBox="0 0 841.89 595.28" enable-background="new 0 0 841.89 595.28" xml:space="preserve">
<metadata>
	<sfw  xmlns="&ns_sfw;">
		<slices></slices>
		<sliceSourceBounds  width="595.036" height="595.28" bottomLeftOrigin="true" x="122.982" y="-0.14"></sliceSourceBounds>
	</sfw>
</metadata>
<image display="none" overflow="visible" width="640" height="640" xlink:href="../../../iCloud Drive (Archive)/Documents/XX/wordpress/backup/files/wp-content/uploads/2016/07/sensoria_coverart-640x640.jpg"  transform="matrix(0.4341 0 0 0.4408 270.8953 153.0339)">
</image>
<path d="M420.945,0.244c-164.367,0-297.518,133.152-297.518,297.518S256.578,595.28,420.945,595.28s297.518-133.152,297.518-297.518
	S585.312,0.244,420.945,0.244z M420.945,322.027c-13.413,0-24.387-10.974-24.387-24.387c0-13.413,10.974-24.387,24.387-24.387
	c13.413,0,24.387,10.974,24.387,24.387C445.332,311.053,434.358,322.027,420.945,322.027z"/>
<path fill="#2A3332" d="M420.945,273.253c-13.413,0-24.387,10.974-24.387,24.387c0,13.413,10.974,24.387,24.387,24.387
	c13.413,0,24.387-10.974,24.387-24.387C445.332,284.227,434.358,273.253,420.945,273.253z M420.945,318.978
	c-11.828,0-21.338-9.511-21.338-21.338c0-11.828,9.511-21.338,21.338-21.338c11.828,0,21.338,9.511,21.338,21.338
	C442.283,309.468,432.773,318.978,420.945,318.978z"/>
<path fill="#141616" d="M630.671,87.061C514.59-29.02,326.324-29.02,210.244,87.061L403.63,280.447
	c4.39-4.39,10.486-7.194,17.315-7.194c13.413,0,24.387,10.974,24.387,24.387c0,6.706-2.804,12.925-7.194,17.315l192.533,192.533
	C746.752,391.407,746.752,203.141,630.671,87.061z"/>
<path fill="#121C1B" d="M445.332,297.64c0-13.413-10.974-24.387-24.387-24.387c-6.706,0-12.925,2.804-17.315,7.194l2.195,2.195
	c3.902-3.902,9.267-6.341,15.12-6.341c11.828,0,21.338,9.511,21.338,21.338c0,5.975-2.439,11.34-6.341,15.12l2.195,2.195
	C442.527,310.565,445.332,304.346,445.332,297.64z"/>
<radialGradient id="SVGID_1_" cx="420.9073" cy="297.701" r="127.7756" gradientUnits="userSpaceOnUse">
	<stop  offset="0.0056" style="stop-color:#E2E5F4"/>
	<stop  offset="0.4494" style="stop-color:#C7CEE9"/>
	<stop  offset="1" style="stop-color:#A8B5DC"/>
</radialGradient>
<path fill="url(#SVGID_1_)" d="M512.273,208.385c-49.383-50.481-130.225-51.334-180.706-2.073
	c-50.481,49.383-51.334,130.225-2.073,180.706c49.383,50.481,130.225,51.334,180.706,2.073
	C560.681,339.829,561.656,258.865,512.273,208.385z M420.945,322.027c-13.413,0-24.387-10.974-24.387-24.387
	c0-13.413,10.974-24.387,24.387-24.387c13.413,0,24.387,10.974,24.387,24.387C445.332,311.053,434.358,322.027,420.945,322.027z"/>
<text transform="matrix(1 0 0 1 322.445 259.7438)" font-family="'Sequi'" font-size="48">SENSORIA</text>
</svg>
