<?xml version="1.0" standalone="no"?>
<!DOCTYPE svg PUBLIC "-//W3C//DTD SVG 1.1//EN" "http://www.w3.org/Graphics/SVG/1.1/DTD/svg11.dtd" >
<svg xmlns="http://www.w3.org/2000/svg">
<metadata></metadata>
<defs>
<font id="ovarbold" horiz-adv-x="1507" >
<font-face units-per-em="2048" ascent="1536" descent="-512" />
<missing-glyph horiz-adv-x="786" />
<glyph horiz-adv-x="0" />
<glyph unicode="&#xd;" horiz-adv-x="1468" />
<glyph horiz-adv-x="0" />
<glyph horiz-adv-x="0" />
<glyph unicode=" "  horiz-adv-x="786" />
<glyph unicode="&#x09;" horiz-adv-x="786" />
<glyph unicode="&#xa0;" horiz-adv-x="786" />
<glyph unicode="!" horiz-adv-x="604" d="M-39 147q0 86 58.5 143.5t142.5 57.5t143.5 -57.5t59.5 -143.5q0 -84 -59.5 -141t-143.5 -57t-142.5 57t-58.5 141zM8 1528h309l-57 -1006h-205z" />
<glyph unicode="&#x22;" horiz-adv-x="1157" d="M8 1575h314l-70 -621h-205zM418 1575h313l-69 -621h-207z" />
<glyph unicode="#" horiz-adv-x="1775" d="M-51 356v240h256l28 156l27 151h-221v240h258l72 385h241l-61 -385h340l67 385h250l-69 -385h211v-240h-246l-4 -29q-14 -76 -24.5 -138t-26.5 -140h210v-240h-251l-64 -356h-248l64 356h-344l-62 -356h-250l66 356h-219zM453 596h342l53 307h-342q-8 -49 -14.5 -96 t-16.5 -94z" />
<glyph unicode="$" horiz-adv-x="1374" d="M-41 498h266q2 -43 18.5 -85t42 -77t57.5 -62.5t65 -42.5v453q-98 35 -176 72t-132.5 86t-83 117.5t-28.5 166.5q0 66 26.5 136.5t78.5 131t131 104.5t184 61v186h182v-189q90 -16 165.5 -62t132 -111.5t88.5 -148.5t34 -173h-271q-2 100 -45 159.5t-104 77.5v-407 q74 -29 152.5 -62.5t144 -85t107.5 -126t42 -183.5q0 -72 -25.5 -148.5t-79.5 -143t-138 -113.5t-203 -60v-223h-182v227q-102 16 -185.5 67.5t-141.5 123.5t-90 158t-32 176zM244 1126q0 -61 45 -98t119 -65v342q-80 -18 -122 -70t-42 -109zM590 221q86 20 136 71.5 t50 143.5q0 47 -50 92t-136 86v-393z" />
<glyph unicode="%" horiz-adv-x="1607" d="M-39 1188q0 76 24.5 142.5t67.5 116.5t102.5 78.5t129.5 28.5q66 0 124 -28.5t102 -78.5t69.5 -116.5t25.5 -142.5t-25.5 -142.5t-69.5 -115.5t-102.5 -77t-123.5 -28q-70 0 -129.5 28t-102.5 77t-67.5 115.5t-24.5 142.5zM195 1188q0 -53 25.5 -96t64.5 -43 q33 0 60.5 43t27.5 96q0 27 -8.5 52.5t-20.5 45t-27.5 31.5t-31.5 12q-39 0 -64.5 -44t-25.5 -97zM215 0l659 1528h250l-659 -1528h-250zM748 344q0 76 25.5 141.5t68.5 114.5t101 77t126 28t126 -28t102 -77t70 -114.5t26 -141.5t-26 -143.5t-70 -117.5t-102 -79t-126 -29 t-126 29t-101 79t-68.5 117.5t-25.5 143.5zM981 344q0 -55 25.5 -99t62.5 -44q35 0 62.5 44t27.5 99q0 51 -27.5 94t-62.5 43q-37 0 -62.5 -43t-25.5 -94z" />
<glyph unicode="&#x26;" horiz-adv-x="1499" d="M-76 473q0 147 65.5 267t176.5 204q-31 57 -57.5 124t-30.5 114q-4 78 21.5 151.5t74.5 132.5q51 53 121 84t141 31q80 0 148.5 -31.5t115.5 -85.5q47 -59 62.5 -128.5t7.5 -141.5q-20 -180 -240 -307q55 -94 130 -191.5t155 -216.5q18 68 28.5 153t10.5 183h244v-31 q0 -162 -34 -289.5t-91 -222.5q33 -39 70.5 -87t72.5 -89l78 -98h-283l-88 92q-78 -66 -165 -102.5t-179 -36.5q-123 0 -225 38t-176 107.5t-114 165.5t-40 211zM182 473q0 -123 78 -194.5t219 -71.5q51 0 99.5 10t89.5 43q-4 6 -14.5 20.5t-44.5 61.5t-101.5 142.5 t-185.5 263.5q-66 -55 -103 -129t-37 -146zM334 1208q4 -23 16 -58.5t37 -74.5h2q78 45 105.5 84t33.5 74q2 23 -1 49.5t-13 36.5q-16 16 -37 25.5t-41 9.5q-49 0 -78.5 -40t-23.5 -106z" />
<glyph unicode="'" horiz-adv-x="731" d="M12 1575h314l-70 -621h-205z" />
<glyph unicode="(" horiz-adv-x="700" d="M8 567q0 160 18.5 304.5t51.5 270.5t78 230.5t96 179.5h168l33 -59q-39 -66 -76 -152t-66.5 -198.5t-47 -256t-17.5 -321.5t21.5 -325.5t55 -268.5t76.5 -218t86 -175h-233q-51 78 -96 182.5t-78 230.5t-51.5 271.5t-18.5 304.5z" />
<glyph unicode=")" horiz-adv-x="700" d="M-55 1552h233q49 -76 93 -179t76 -229t50.5 -272.5t18.5 -306.5q0 -317 -68.5 -572t-169.5 -415h-229q43 78 84 174t73.5 218t53 269.5t20.5 325.5q0 180 -20.5 327.5t-54 268.5t-75.5 217.5t-85 173.5z" />
<glyph unicode="*" horiz-adv-x="1261" d="M-49 1137l100 245l285 -149q0 4 -1 13t-3 43t-7.5 102.5t-13.5 191.5h264l-38 -356q14 8 31.5 17t48 25.5t81 43t131.5 69.5l99 -241l-318 -99q63 -59 125 -122.5t121 -122.5l-174 -172l-244 303q-31 -41 -61.5 -83t-63.5 -85l-108 -135l-180 172l245 243 q-18 6 -35.5 12.5t-33.5 10.5q-47 16 -107.5 34.5t-109.5 35.5q-4 0 -16.5 2t-16.5 2z" />
<glyph unicode="+" horiz-adv-x="1357" d="M-61 502v248h378v362h256v-362h379v-248h-379v-367h-256v367h-378z" />
<glyph unicode="," horiz-adv-x="790" d="M-55 -231l157 606h316l-275 -656z" />
<glyph unicode="-" horiz-adv-x="1245" d="M8 494v245h838v-245h-51h-787z" />
<glyph unicode="." horiz-adv-x="798" d="M78 152q0 86 57.5 143t140.5 57q86 0 143.5 -57t57.5 -143q0 -84 -57.5 -143.5t-143.5 -59.5q-84 0 -141 59.5t-57 143.5z" />
<glyph unicode="/" horiz-adv-x="1112" d="M-78 0l660 1528h249l-659 -1528h-250z" />
<glyph unicode="0" horiz-adv-x="1460" d="M-39 758q0 182 44 330.5t120 253t177 162t218 57.5t217.5 -55.5t175 -159t117.5 -250t43 -328.5q0 -184 -43 -331.5t-117.5 -252t-175 -160t-217.5 -55.5t-218 54.5t-177 156t-120 247.5t-44 331zM217 758q0 -117 21.5 -216.5t61.5 -172t96.5 -112.5t123.5 -40 q70 0 116 36t75 79q53 76 81.5 189.5t28.5 246.5q0 129 -28.5 241.5t-81.5 188.5q-29 43 -75 80t-116 37q-63 0 -113.5 -40t-76.5 -81q-47 -78 -80 -194.5t-33 -241.5z" />
<glyph unicode="1" horiz-adv-x="813" d="M-45 963v266q45 0 90 19.5t81 57t57.5 93t21.5 129.5h258v-1528h-258v1139q-29 -74 -97.5 -125t-152.5 -51z" />
<glyph unicode="2" horiz-adv-x="1380" d="M0 993q0 125 37 225.5t96 170.5q63 72 157.5 113.5t192.5 41.5q117 0 209 -43t155.5 -112.5t94.5 -156.5t25 -173q-6 -82 -32 -143.5t-66 -109.5t-92 -87t-109 -78l-84 -59l-29 -19l-18 -10h2q-31 -25 -73 -57.5t-83 -71.5t-75 -84t-46 -92h694v-248h-952v195 q0 96 39 178t100.5 152.5t136 130t146.5 110.5l23 12l20 13l16 12l31 20q27 18 58.5 45t59.5 57.5t49.5 66.5t29.5 73q4 39 -8.5 82t-40 79t-70.5 59.5t-100 23.5q-53 0 -98.5 -26t-79 -69t-53 -100t-19.5 -121h-244z" />
<glyph unicode="3" horiz-adv-x="1298" d="M-55 496h260q0 -123 64.5 -204t185.5 -81q113 0 179 68.5t66 166.5q0 78 -43 122t-101 65.5t-118.5 27t-97.5 5.5v231q39 0 96.5 11.5t111.5 37t92 69.5t38 109q0 84 -65.5 141.5t-168.5 57.5q-104 0 -164.5 -66.5t-60.5 -177.5h-248q0 111 35 199t97.5 149.5t149.5 94 t191 32.5q102 0 190.5 -31.5t153 -89t100.5 -136.5t36 -173q0 -117 -49.5 -197.5t-118.5 -131.5q92 -43 148.5 -128t56.5 -221q0 -102 -38 -188t-105.5 -148.5t-160 -97.5t-202.5 -35q-117 0 -210 36t-161 100q-68 61 -103.5 160.5t-35.5 222.5z" />
<glyph unicode="4" horiz-adv-x="1476" d="M-39 371v202l664 955h231v-920h217v-237h-217v-371h-254v371h-641zM276 608h326v475z" />
<glyph unicode="5" horiz-adv-x="1472" d="M-20 440h276q37 -98 98.5 -159.5t167.5 -61.5q39 0 92.5 11.5t101.5 45t81.5 95t33.5 161.5q0 131 -70.5 213t-201.5 82q-125 0 -194.5 -45t-108.5 -116h-238l187 862h825v-246h-614q-16 -66 -28.5 -117t-29.5 -116q41 16 89.5 21t111.5 5q117 0 216 -41t170 -112.5 t111 -172t40 -217.5q0 -125 -40 -228t-114 -177t-180.5 -115t-239.5 -41q-131 0 -223 46t-155.5 115t-102.5 152t-61 156z" />
<glyph unicode="6" horiz-adv-x="1411" d="M-31 487v23q0 96 8.5 174t22.5 143q2 14 26.5 82t77 162t135.5 204.5t203 211.5l52 45h280l14 -80q-104 -74 -204.5 -151.5t-165.5 -155.5h2q-29 -41 -58.5 -85t-52.5 -87q43 16 86 22t88 6q106 0 199.5 -39.5t163 -109.5t110.5 -164t41 -201q0 -106 -41 -200 t-110.5 -164t-162.5 -111t-200 -41q-106 0 -200.5 41t-164 111t-109.5 164t-40 200zM223 487q0 -53 20.5 -101t55.5 -86t82 -60.5t102 -22.5q51 0 98.5 22.5t83 60.5t56 86t20.5 101t-20.5 102.5t-56 86.5t-83 58.5t-98.5 21.5q-55 0 -102 -21.5t-82 -58.5t-55.5 -86 t-20.5 -103z" />
<glyph unicode="7" horiz-adv-x="1349" d="M8 1284v246h965v-217l-19 -27q-20 -26 -50 -70.5t-67.5 -102.5t-77.5 -125.5t-77 -139.5t-64 -139l3 2q-35 -92 -57.5 -200t-36 -207t-18.5 -181t-5 -123h-256q0 57 7 153.5t22.5 207t40 224t59.5 210.5q23 63 54.5 129.5t67.5 130t71.5 123t66.5 106.5h-629z" />
<glyph unicode="8" horiz-adv-x="1374" d="M-18 461q0 121 52 219t144 162q-61 53 -96 129t-35 166q0 88 36 166.5t96.5 137t142 92.5t174.5 34q90 0 169.5 -34t140 -92.5t96.5 -137t36 -166.5t-35 -165t-94 -130q96 -61 149.5 -159.5t53.5 -221.5q0 -104 -42 -195.5t-113 -159t-165 -106.5t-196 -39 q-104 0 -197.5 39t-164.5 106.5t-111.5 158.5t-40.5 196zM233 461q0 -68 27 -116t66 -78.5t85 -45t85 -14.5t84 14.5t83.5 45t65.5 78.5t27 116q0 61 -23.5 110.5t-61.5 83t-84 51t-91 17.5q-47 0 -93.5 -17.5t-84 -51t-61.5 -83t-24 -110.5zM303 1137q0 -37 16.5 -71 t44 -61.5t61.5 -44t71 -16.5t70.5 16.5t61 44t44 61.5t16.5 71t-16.5 69.5t-44 58t-61 41t-70.5 15.5t-71 -15.5t-61.5 -41t-44 -58t-16.5 -69.5z" />
<glyph unicode="9" horiz-adv-x="1329" d="M-35 1049q0 106 40 200t109.5 164t164 110t200.5 40t200.5 -40t164 -110t110.5 -164t41 -200v-23q0 -188 -34 -321q-4 -14 -26 -78t-70 -155t-128 -198.5t-198 -212.5l-7 -4l-8 -6l-4 -2l-8 -6q-10 -10 -18.5 -19.5t-18.5 -23.5h-278l-31 76q104 74 207.5 154.5 t167.5 160.5q29 37 58.5 82t51.5 88q-41 -16 -83 -22.5t-89 -6.5q-106 0 -200.5 40t-164 110t-109.5 164t-40 203zM219 1049q0 -55 20.5 -104.5t55.5 -86.5t83 -59.5t101 -22.5q51 0 99.5 22.5t83 59.5t56 86t21.5 105q0 51 -21.5 99t-56 85t-83 59.5t-99.5 22.5 q-53 0 -101 -22.5t-83 -59.5t-55.5 -85t-20.5 -99z" />
<glyph unicode=":" horiz-adv-x="798" d="M78 152q0 86 57.5 143t140.5 57q86 0 143.5 -57t57.5 -143q0 -84 -57.5 -143.5t-143.5 -59.5q-84 0 -141 59.5t-57 143.5zM78 993q0 86 57.5 143.5t140.5 57.5q86 0 143.5 -57.5t57.5 -143.5q0 -84 -57.5 -141t-143.5 -57q-84 0 -141 57t-57 141z" />
<glyph unicode=";" horiz-adv-x="790" d="M-55 -231l157 606h324l-274 -656zM41 993q0 86 57.5 143.5t141.5 57.5q86 0 143 -57.5t57 -143.5q0 -84 -57 -141t-143 -57q-84 0 -141.5 57t-57.5 141z" />
<glyph unicode="&#x3c;" horiz-adv-x="1433" d="M8 528v191l1024 448v-282l-645 -260l645 -263v-282z" />
<glyph unicode="=" horiz-adv-x="1466" d="M6 227v246h1049v-246h-1049zM6 766v246h1049v-246h-1049z" />
<glyph unicode="&#x3e;" horiz-adv-x="1433" d="M8 80v282l639 263q-160 63 -319.5 129.5t-319.5 130.5v282l1024 -448v-191z" />
<glyph unicode="?" horiz-adv-x="1556" d="M205 1075q0 106 34.5 197.5t97 156t151 101.5t192.5 37q102 0 188 -34t149.5 -92.5t98.5 -139t35 -175.5q0 -74 -17.5 -129t-45 -97t-62.5 -74.5t-70 -65.5l-90 -80q-33 -29 -60.5 -60.5t-27.5 -56.5v-41h-237v41q0 57 15 102.5t41 82t58.5 67.5t65.5 62l39 30h-2l45 39 q45 35 71.5 74t26.5 106q0 84 -61.5 143.5t-159.5 59.5q-104 0 -160.5 -71.5t-56.5 -182.5h-258zM469 150q0 41 15.5 77.5t42 63t63.5 42t80 15.5q84 0 140 -57.5t56 -140.5q0 -84 -56 -142.5t-140 -58.5q-43 0 -80 15.5t-63.5 43t-42 64.5t-15.5 78z" />
<glyph unicode="@" horiz-adv-x="1941" d="M-61 764q0 168 63.5 316.5t174 259t258 175t317.5 64.5q166 0 308 -55.5t246.5 -153.5t164 -232t59.5 -290q0 -109 -33 -202t-91 -163.5t-139 -115.5t-177 -54h-39q-33 0 -63 14.5t-52 37.5q-18 25 -29 61q-47 -51 -123.5 -94t-189.5 -43q-70 0 -130.5 25.5t-98.5 70.5 q-31 37 -43.5 84t-4.5 94q23 113 118 186.5t249 96.5q182 25 285 31l6 45q8 35 -1 66.5t-28 55.5q-49 53 -135 54q-41 0 -78 -12.5t-64.5 -30t-45 -36t-23.5 -32.5q0 -4 -1 -9t-1 -7h-158l2 22q6 43 41 88t87.5 82t119 59.5t139.5 22.5q74 0 140.5 -28.5t109.5 -77.5 q61 -74 62 -166q0 -33 -6 -60l-64 -358l-12 -72q-2 -2 -2 -4v-2q4 -10 14 -10h29q117 20 193.5 120.5t76.5 260.5q0 129 -45 235.5t-127 183t-195.5 118.5t-250.5 42q-135 0 -254 -52t-208 -142t-140.5 -211t-51.5 -258t51.5 -258t140.5 -212t207.5 -143.5t254.5 -52.5 q57 0 128.5 10.5t141.5 29t132.5 45t105.5 59.5h-3l15 14l94 -119l-4 -4q-57 -45 -134 -79t-160 -57.5t-165 -35.5t-151 -12q-170 0 -317.5 63.5t-258 174t-174 259t-63.5 318.5zM485 518.5q4 -18.5 19 -33.5q16 -23 46 -33t64 -10q43 0 87 8.5t85 28t76 50t58 75.5l-2 -2 l24 127q-47 -4 -115.5 -13t-142.5 -22q-80 -14 -134 -42.5t-65 -94.5q-4 -20 0 -38.5z" />
<glyph unicode="A" horiz-adv-x="1470" d="M-96 0l551 1526h213l546 -1526h-278l-139 389h-469q-16 -45 -34 -91t-34 -93q-16 -49 -34.5 -103.5t-35.5 -101.5h-286zM406 635h307q-18 51 -32.5 93t-31 91t-38 111.5t-52.5 154.5q-4 -8 -9 -22t-20.5 -59.5t-44 -132.5t-79.5 -236z" />
<glyph unicode="B" horiz-adv-x="1570" d="M6 0v1528h653q100 0 179.5 -34t134.5 -93.5t83.5 -139t28.5 -169.5q0 -86 -42 -156t-113 -113q125 -53 187.5 -151.5t62.5 -212.5q0 -96 -36 -180t-99.5 -145.5t-147.5 -97.5t-180 -36h-711zM272 246h445q43 0 80 17.5t65.5 47t45 67.5t16.5 81q0 41 -16.5 78.5t-44 67.5 t-64.5 47.5t-80 17.5h-447v-424zM272 915h387q35 0 67 14.5t56.5 38t39 55.5t14.5 69t-12.5 70.5t-35 60t-55.5 43t-74 16.5h-387v-367z" />
<glyph unicode="C" horiz-adv-x="1744" d="M-94 764q0 164 54 309.5t152.5 254t236.5 172t306 63.5q106 0 209 -30t192 -92.5t162.5 -157.5t122.5 -224l-276 -2q-59 135 -162.5 197.5t-247.5 62.5q-113 0 -200.5 -47t-149 -124t-94.5 -177.5t-33 -204.5q0 -115 33 -222.5t96 -183.5q66 -63 158 -109t190 -46 q289 0 408 260l278 -2q-47 -127 -120.5 -221.5t-163.5 -157t-193.5 -94t-208.5 -31.5q-168 0 -306 63.5t-236.5 173t-152.5 256t-54 314.5z" />
<glyph unicode="D" horiz-adv-x="1697" d="M6 0v1528h594q152 0 278 -56.5t217 -158t141 -240.5t50 -307q0 -170 -50 -310.5t-141 -241.5t-217 -157.5t-278 -56.5h-594zM274 246h326q111 0 190.5 43t131 114.5t76 166t24.5 196.5q0 100 -24.5 193.5t-76 165t-131 114.5t-190.5 43h-326v-1036z" />
<glyph unicode="E" horiz-adv-x="1443" d="M6 0v1528h1038v-246h-778v-379h688v-246h-688v-409h778v-248h-1038z" />
<glyph unicode="F" horiz-adv-x="1435" d="M6 0v1528h1038v-246h-778v-379h645v-246h-645v-657h-260z" />
<glyph unicode="G" horiz-adv-x="1771" d="M-80 764q0 164 54.5 309.5t152.5 254t235.5 172t305.5 63.5q246 0 424 -119t270 -395l-279 -2q-39 135 -147.5 202.5t-267.5 67.5q-111 0 -201 -47t-152.5 -125t-96.5 -177.5t-34 -203.5q0 -115 36 -222.5t99 -183.5q66 -63 158 -109t191 -46q49 0 106 11t115.5 41 t113 80t101.5 128v117h-510v245h764v-825h-254v186q-84 -125 -195.5 -177t-240.5 -52q-168 0 -305.5 63.5t-235.5 173t-152.5 256t-54.5 314.5z" />
<glyph unicode="H" horiz-adv-x="1572" d="M6 -2v1528h266v-639h613v639h268v-1528h-268v643h-613v-643h-266z" />
<glyph unicode="I" horiz-adv-x="614" d="M10 0v1528h262v-1528h-262z" />
<glyph unicode="J" horiz-adv-x="1247" d="M-27 465h265q0 -45 9 -91t29.5 -84t54.5 -61.5t83 -23.5q92 0 132 51t40 121v1151h266v-1151q0 -86 -29.5 -163t-86 -133t-137.5 -89t-185 -33q-115 0 -198 43t-136 113.5t-80 162t-27 187.5z" />
<glyph unicode="K" horiz-adv-x="1396" d="M6 0v1528h266v-594l54 61v-2q6 8 12 16.5t16 16.5l80 96l109 135l223 271h342l-584 -672l668 -856h-348l-484 657l-34 -36l-54 -60v-561h-266z" />
<glyph unicode="L" horiz-adv-x="1312" d="M6 0v1528h268v-1280h742v-248h-1010z" />
<glyph unicode="M" horiz-adv-x="1896" d="M4 0v1528h250l479 -1149q51 125 103.5 252t110 265t122 294t139.5 338h250v-1528h-260v952q-68 -190 -133 -368q-29 -76 -57.5 -157t-57 -157.5t-55.5 -146.5t-47 -123h-234l-348 952v-952h-262z" />
<glyph unicode="N" horiz-adv-x="1652" d="M6 0v1528h258l707 -1065v1065h264v-1528h-244l-717 1087v-1087h-268z" />
<glyph unicode="O" horiz-adv-x="1816" d="M-78 764q0 164 54.5 309.5t152.5 254t236.5 172t306.5 63.5q166 0 302 -63.5t232.5 -172t149.5 -254t53 -309.5q0 -168 -53 -314.5t-149.5 -256t-232.5 -173t-302 -63.5q-168 0 -306.5 63.5t-236.5 173t-152.5 256t-54.5 314.5zM195 764q0 -98 31.5 -198.5t92 -181.5 t149.5 -131t204 -50q111 0 196.5 48t145 127t90.5 179t31 207q0 104 -32 203.5t-91.5 177.5t-145 125t-194.5 47t-197 -48t-150.5 -127t-96 -178.5t-33.5 -199.5z" />
<glyph unicode="P" horiz-adv-x="1392" d="M6 0v1528h559q98 0 185.5 -37t152 -101.5t101 -150.5t36.5 -182q0 -98 -36.5 -185.5t-101 -151t-151.5 -100t-186 -36.5h-299v-584h-260zM266 827h299q45 0 85 19.5t70 51.5t47 73t17 86q0 43 -17 84t-47 71.5t-70 50t-85 19.5h-299v-455z" />
<glyph unicode="Q" horiz-adv-x="1781" d="M-98 764q0 164 54 309.5t152.5 254t236.5 172t304 63.5q168 0 304.5 -63.5t232.5 -172t149.5 -254t53.5 -309.5q0 -152 -34 -273.5t-112 -226.5l160 -158l-178 -190l-166 166q-84 -51 -191.5 -88t-218.5 -37q-166 0 -304 63.5t-236.5 173t-152.5 256t-54 314.5zM166 764 q0 -119 35 -223.5t104 -182.5q70 -78 151.5 -116.5t192.5 -38.5q66 0 121 15t109 46l-256 254l172 189l260 -258q35 68 51 148.5t16 166.5q0 113 -34.5 217t-100.5 180q-68 78 -150.5 117t-187.5 39q-207 0 -344 -156q-70 -76 -104.5 -181.5t-34.5 -215.5z" />
<glyph unicode="R" horiz-adv-x="1427" d="M6 0v1528h627q98 0 184 -36t148.5 -98.5t99.5 -147.5t37 -183q0 -78 -26.5 -147.5t-77 -126t-120 -94.5t-155.5 -52q70 -59 137.5 -136t134 -163t129 -175t121.5 -173h-278q0 2 -26 37t-63.5 87t-83.5 114.5t-89 117.5q-76 100 -154 172t-137 94h-140v-618h-268zM274 866 h359q92 0 150.5 53.5t58.5 143.5q0 43 -15.5 83t-43 70.5t-66.5 48t-84 17.5h-359v-416z" />
<glyph unicode="S" horiz-adv-x="1374" d="M-41 469h266q2 -55 25.5 -103.5t62.5 -83t87.5 -54t97.5 -19.5q119 0 198.5 58.5t79.5 168.5q0 68 -87 121t-228 105q-104 39 -191.5 76.5t-150 90t-97 123t-34.5 174.5q0 74 31.5 153t95 142.5t160 104.5t223.5 41q111 0 204 -39t161.5 -104.5t107.5 -153.5t39 -189 h-269q-2 61 -23.5 106.5t-55 74t-76.5 42t-88 13.5q-59 0 -106.5 -16.5t-80 -43t-49 -61.5t-16.5 -70q0 -39 19.5 -67.5t59.5 -54t102 -51t146 -56.5q74 -29 156 -62.5t150.5 -86t112.5 -128t44 -186.5q0 -78 -32.5 -161t-98 -151.5t-168 -112.5t-239.5 -44 q-121 0 -219.5 43t-169 114t-109.5 161t-41 186z" />
<glyph unicode="T" horiz-adv-x="1531" d="M-33 1282v246h1176v-246h-459v-1282h-260v1282h-457z" />
<glyph unicode="U" horiz-adv-x="1630" d="M8 649v877h264v-877q0 -76 16.5 -154.5t55.5 -142t103.5 -103.5t158.5 -40q109 0 175.5 40t102.5 103.5t48 142t12 154.5v877h262v-877q0 -74 -10 -152.5t-35.5 -155.5t-69.5 -145.5t-111 -120.5t-159 -83t-215 -31q-182 0 -297.5 66.5t-182.5 168t-92.5 223.5t-25.5 230 z" />
<glyph unicode="V" horiz-adv-x="1353" d="M-102 1528h292l361 -1143q37 113 71.5 227.5t75.5 248.5t93.5 296t126.5 371h286l-538 -1528h-228z" />
<glyph unicode="W" horiz-adv-x="2115" d="M-98 1528h293l276 -1067l231 1067h267l231 -1063l273 1063h292l-452 -1528h-230l-252 1067q-55 -229 -94 -397t-66.5 -292t-47 -214t-35.5 -164h-234z" />
<glyph unicode="X" horiz-adv-x="1488" d="M-57 0l495 768q-119 180 -249 379t-246 381h313l342 -582l342 582h315l-501 -760l499 -768h-313l-342 582l-344 -582h-311z" />
<glyph unicode="Y" d="M-78 1528h303l365 -588q86 145 177 295.5t179 292.5h309l-534 -862v-666h-268v666l-236 383z" />
<glyph unicode="Z" horiz-adv-x="1456" d="M6 0v209l707 1073h-707v248h1038v-211l-712 -1071h712v-248h-1038z" />
<glyph unicode="[" horiz-adv-x="636" d="M8 -412v1987h406v-236h-164v-1517h164v-234h-406z" />
<glyph unicode="\" horiz-adv-x="1112" d="M-78 1528h250l659 -1528h-249z" />
<glyph unicode="]" horiz-adv-x="636" d="M-72 -178h168v1517h-168v236h410v-1987h-410v234z" />
<glyph unicode="^" horiz-adv-x="1357" d="M-41 844l490 696h167l486 -696h-307l-263 389q-66 -98 -131 -194.5t-133 -194.5h-309z" />
<glyph unicode="_" horiz-adv-x="1548" d="M4 35l1606 -2v-211l-2 -39l-1604 8v244z" />
<glyph unicode="`" horiz-adv-x="880" d="M18 1546h256l207 -366h-194z" />
<glyph unicode="a" horiz-adv-x="1396" d="M-25 330q0 86 34 151.5t91.5 113.5t134 77.5t164.5 42.5l82 10q78 10 134.5 17.5t101.5 11.5v24q0 45 -18.5 82t-50.5 63.5t-72.5 41t-86.5 14.5q-47 0 -83.5 -18.5t-64.5 -44t-42 -53t-14 -46.5h-250q0 68 34.5 137.5t96 127t144.5 94t179 36.5t183.5 -31.5t154 -88 t105.5 -136t39 -178.5v-536h84v-244h-86q-35 0 -72 13.5t-68.5 39t-52 63.5t-22.5 87q-12 -49 -45 -92t-81 -75t-106.5 -51.5t-120.5 -19.5q-84 0 -160.5 27.5t-136 77t-94.5 117t-35 145.5zM236 330q0 -57 51 -89t114 -32q98 0 186.5 46t129.5 132v184q-119 -10 -291 -41 q-82 -16 -136 -72.5t-54 -127.5z" />
<glyph unicode="b" horiz-adv-x="1499" d="M6 0v1505h256v-522q10 53 43 95t75 72t89 46t88 16q133 0 233.5 -48t167 -131t100.5 -196.5t34 -244.5t-34 -243.5t-100.5 -196.5t-167 -132.5t-233.5 -48.5q-41 0 -86 16.5t-87 46t-75 71.5t-47 94v-199h-256zM262 547q10 -55 32.5 -114.5t58.5 -108t86 -79t118 -30.5 q78 0 130 33t83 85t43 119.5t12 139.5q0 70 -12 138.5t-43 120.5t-83 85t-130 33q-66 0 -116 -32t-87 -81t-59.5 -108.5t-32.5 -114.5v-86z" />
<glyph unicode="c" horiz-adv-x="1370" d="M-33 594q0 131 33 243.5t99.5 195.5t166 131t232.5 48q90 0 172 -22.5t149.5 -69.5t117.5 -122.5t81 -182.5h-256q-39 90 -107.5 122t-156.5 32q-78 0 -130.5 -32t-83 -85t-43 -120.5t-12.5 -137.5q0 -72 12.5 -139.5t43 -119.5t83 -85t130.5 -33q90 0 157.5 32 t106.5 124h256q-29 -111 -79 -186.5t-117.5 -123t-149.5 -69t-174 -21.5q-133 0 -232.5 48.5t-166 132.5t-99.5 196.5t-33 243.5z" />
<glyph unicode="d" horiz-adv-x="1499" d="M-43 592q0 131 34 244.5t99.5 196.5t160.5 131t216 48q47 0 95 -15t91 -45t78 -74t55 -99v526h254v-1505h-254v178q-23 -51 -57.5 -90t-74.5 -64.5t-82 -39t-80 -13.5q-133 0 -232.5 48.5t-167 132.5t-101.5 196.5t-34 243.5zM225 592q0 -72 12.5 -139.5t43 -119.5 t82 -85t129.5 -33q133 0 200.5 88t93.5 244v86q-10 63 -32.5 124.5t-59.5 107.5t-87 75t-115 29q-78 0 -129.5 -33t-82 -85t-43 -120.5t-12.5 -138.5z" />
<glyph unicode="e" horiz-adv-x="1419" d="M-37 590q0 127 26.5 233.5t82.5 186.5q68 94 173 147t234 53t236.5 -54t173.5 -146q55 -80 82.5 -187.5t27.5 -232.5v-82h-776q10 -133 68.5 -213t187.5 -80q98 0 167 34t104 124h241q-78 -203 -199.5 -302.5t-312.5 -99.5q-129 0 -233.5 51.5t-173.5 149.5 q-55 80 -82 185.5t-27 232.5zM223 715h514q-8 45 -24.5 90t-47 81t-76.5 57.5t-110 21.5q-61 0 -105 -22.5t-75 -57.5t-49.5 -80t-26.5 -90z" />
<glyph unicode="f" horiz-adv-x="921" d="M-68 928v243h168v25q0 113 35 186.5t101.5 112.5t163.5 47q33 3 69 3q71 0 154 -11v-213q-49 6 -89 6q-72 0 -115 -21q-67 -32 -67 -110v-25h185h86v-243h-271v-928h-252v928h-168z" />
<glyph unicode="g" horiz-adv-x="1511" d="M-25 623q0 123 36 230.5t103.5 187t165 124.5t220.5 45q102 0 191 -49t132 -162v175h250v-1121q0 -127 -43 -223t-116.5 -160.5t-174 -98.5t-213.5 -34q-84 0 -165.5 28.5t-152.5 84t-127 133.5t-91 176h264q47 -82 118.5 -132t153.5 -50q61 0 115.5 17.5t94.5 52 t63.5 87t23.5 119.5v185q-49 -109 -137 -162t-186 -53q-123 0 -220.5 47t-165 128t-103.5 190.5t-36 234.5zM236 623q0 -113 29.5 -183.5t70.5 -110.5t87 -54.5t77 -14.5q33 0 87 10.5t105 47t88 109.5t37 196q0 119 -38 187.5t-89 103t-104.5 43t-85.5 8.5q-31 0 -77 -13.5 t-87 -50.5t-70.5 -104.5t-29.5 -173.5z" />
<glyph unicode="h" horiz-adv-x="1472" d="M6 0v1507h264v-520q20 55 53 97t71 71t80 43t83 14q106 0 193.5 -31.5t149 -100t94 -176t32.5 -257.5v-649h-262v627q0 76 -12.5 141t-39 111.5t-68.5 73t-101 26.5q-68 0 -118 -42t-85 -107.5t-52.5 -148.5t-17.5 -163v-516h-264z" />
<glyph unicode="i" horiz-adv-x="616" d="M-45 1534q0 76 51 128t127 52q74 0 126 -52t52 -128q0 -74 -52 -127t-126 -53q-76 0 -127 53t-51 127zM2 0v1171h260v-1171h-260z" />
<glyph unicode="j" horiz-adv-x="776" d="M-162 -205v-244q94 0 178 23t145.5 69t97.5 117.5t36 169.5v1241h-252v-1241q0 -41 -16.5 -66.5t-44 -41t-64.5 -21.5t-80 -6zM-8 1534q0 76 51 128t127 52q74 0 126 -52t52 -128q0 -74 -52 -127t-126 -53q-76 0 -127 53t-51 127z" />
<glyph unicode="k" horiz-adv-x="1259" d="M6 0v1505h254v-776l78 92l78 88v-2q35 41 69.5 83t71.5 83l86 98h334l-445 -489q23 -29 43.5 -59.5t42.5 -59.5q25 -31 48.5 -62.5t46.5 -62.5l319 -438h-309l-346 506l-117 -129v-377h-254z" />
<glyph unicode="l" horiz-adv-x="608" d="M10 0v1526h252v-1526h-252z" />
<glyph unicode="m" horiz-adv-x="1957" d="M4 0v1188h260v-144q33 86 94.5 127t118.5 41q123 0 201 -43t125 -147q45 96 115 143t174 47q113 0 188.5 -33.5t122.5 -100t67.5 -165t20.5 -227.5v-686h-260v657q0 61 -4 119t-19.5 104t-47.5 73.5t-85 27.5q-63 0 -102 -37t-60.5 -99.5t-28.5 -147.5t-7 -179v-518h-261 v678q0 53 -4 107.5t-20.5 97.5t-48 70.5t-86.5 27.5q-61 0 -99.5 -42t-58.5 -109.5t-27.5 -149.5t-7.5 -162v-518h-260z" />
<glyph unicode="n" horiz-adv-x="1472" d="M6 0v1186h260v-187q18 51 52 91t74 67t85 41t86 14q106 0 195.5 -31.5t152 -99t97 -175t34.5 -257.5v-649h-262v627q0 154 -59 252t-180 98q-66 0 -117 -42t-86 -107.5t-53.5 -147.5t-18.5 -162v-518h-260z" />
<glyph unicode="o" d="M-39 592q0 131 39 243.5t111.5 196.5t177 132t235.5 48t235.5 -48t177.5 -132t111.5 -196.5t38.5 -243.5t-38.5 -245t-111.5 -197.5t-177.5 -132t-235.5 -48.5t-235.5 48.5t-177 132t-111.5 197.5t-39 245zM229 592q0 -72 16.5 -139.5t51.5 -120.5t91 -86t136 -33 t137.5 33t92 86t51 120.5t16.5 139.5q0 70 -16.5 137.5t-51 120.5t-92 85t-137.5 32t-136 -32t-91 -85t-51.5 -120.5t-16.5 -137.5z" />
<glyph unicode="p" horiz-adv-x="1456" d="M8 -373v1557h256v-197q23 61 56.5 104.5t73.5 70t83 38.5t82 12q133 0 233.5 -48t167 -131t100.5 -196.5t34 -244.5t-34 -243.5t-100.5 -196.5t-167 -132.5t-233.5 -48.5q-90 0 -172 60.5t-123 165.5v-570h-256zM264 547q10 -55 32.5 -114.5t58.5 -108t86 -79t118 -30.5 q78 0 130 33t83 85t43 119.5t12 139.5q0 70 -12 138.5t-43 120.5t-83 85t-130 33q-66 0 -116 -32t-87 -81t-59.5 -108.5t-32.5 -114.5v-86z" />
<glyph unicode="q" horiz-adv-x="1456" d="M-39 592q0 131 34 244.5t101.5 196.5t167 131t232.5 48q41 0 85 -14t85 -44t73.5 -73t51.5 -100v203h253v-1557h-253v584q-43 -117 -126 -178.5t-169 -61.5q-133 0 -232.5 48.5t-167 132.5t-101.5 196.5t-34 243.5zM227 592q0 -72 12.5 -139.5t43 -119.5t83 -85 t130.5 -33q68 0 118 30.5t85.5 79t58 108t33.5 114.5v86q-10 57 -34 116.5t-59.5 108.5t-86 80t-115.5 31q-78 0 -130.5 -33t-83 -85t-43 -120.5t-12.5 -138.5z" />
<glyph unicode="r" horiz-adv-x="942" d="M8 0v1171h252v-149q33 80 96.5 126t118.5 46q43 0 91 -17.5t89 -46.5v-292q-76 57 -115.5 74.5t-78.5 17.5q-66 0 -105 -35t-60.5 -93.5t-28.5 -132t-7 -151.5v-518h-252z" />
<glyph unicode="s" horiz-adv-x="1210" d="M-35 375h250q0 -74 35 -118t137 -44q104 0 146 42t42 95q0 33 -61 69t-160 64q-74 20 -143.5 52t-123.5 77t-86 102.5t-32 131.5q0 76 28 142.5t81 115.5t131 77.5t178 28.5q94 0 173 -25.5t135.5 -74.5t88 -118.5t31.5 -157.5h-231q0 39 -17.5 65.5t-45 41.5t-62.5 22.5 t-72 7.5q-82 0 -125 -34t-43 -91q0 -20 14.5 -36.5t38 -30t51 -25t54.5 -19.5l43 -14l57 -19q70 -25 133.5 -50t112.5 -64t78.5 -96.5t29.5 -141.5q0 -61 -25.5 -126.5t-78.5 -121t-137 -90.5t-203 -35q-111 0 -189.5 32t-131 87.5t-77 127t-24.5 151.5z" />
<glyph unicode="t" horiz-adv-x="954" d="M-39 936v235h166v287h244v-287h186h117v-235h-303v-617q0 -37 15 -59t51 -32.5t93.5 -10.5t143.5 6v-219q-97 -23 -184 -23q-14 1 -28 1q-100 4 -174.5 41.5t-117.5 111.5t-43 184v617h-166z" />
<glyph unicode="u" horiz-adv-x="1472" d="M6 522v649h266v-626q0 -154 58.5 -252t179.5 -98q66 0 117 42t86 107.5t53 147t18 161.5v518h258v-1171h-258v209q-25 -72 -59.5 -119t-74.5 -76.5t-81 -42t-77 -12.5q-109 0 -199 32t-153.5 99.5t-98.5 174t-35 257.5z" />
<glyph unicode="v" horiz-adv-x="1357" d="M-55 1171h278l275 -782l69 199q47 141 99.5 291.5t99.5 291.5h278l-430 -1169h-229z" />
<glyph unicode="w" horiz-adv-x="1843" d="M-59 1171h282l203 -792l180 792h254l189 -802q6 20 14 58t27.5 124t55.5 233.5t95 386.5h281l-355 -1169h-256l-178 719l-178 -719h-236z" />
<glyph unicode="x" horiz-adv-x="1337" d="M-33 1169h316l252 -395l153 234q25 39 52.5 80.5t50.5 80.5h321l-416 -600q45 -63 88 -127.5t90 -130.5q53 -72 114 -156.5t114 -156.5h-324l-246 364l-239 -364h-318l406 571l-88 129q-29 43 -58.5 85t-58.5 85z" />
<glyph unicode="y" horiz-adv-x="1357" d="M-68 1171h287l268 -774q35 100 71 202.5t71 201.5l125 370h280l-575 -1572h-252q45 139 82 251q14 47 29.5 93.5t27.5 81l20 57.5l7 22q-33 86 -71 170t-89 201t-119.5 282t-161.5 414z" />
<glyph unicode="z" horiz-adv-x="1312" d="M6 0v203l576 725h-576v243h912v-204l-570 -725h570v-242h-912z" />
<glyph unicode="{" horiz-adv-x="919" d="M-68 463v117l5 112q43 0 82.5 17.5t69.5 43t47.5 57.5t17.5 62v367q0 45 20.5 102.5t63.5 107.5t110.5 84t159.5 34h104v-232h-104q-35 0 -56.5 -11t-35 -25.5t-18.5 -30t-5 -21.5v-418l-2 -6v-6q-10 -78 -51 -137t-96 -105q55 -41 96 -102t51 -133l2 -12v-428 q0 -6 5 -21.5t18.5 -31t35 -26.5t56.5 -11h104v-228h-104q-92 0 -159.5 34t-110.5 83t-63.5 106.5t-20.5 104.5v369q0 31 -17.5 62.5t-48.5 58t-71 45t-85 18.5z" />
<glyph unicode="|" horiz-adv-x="608" d="M10 -377v1905h254v-1905h-254z" />
<glyph unicode="}" horiz-adv-x="919" d="M-68 -190h103q33 0 56.5 11t36.5 26.5t19.5 31t6.5 21.5v428l2 12q10 70 50 132.5t93 102.5q-53 43 -92 105.5t-51 132.5l-2 16v418q0 6 -6.5 21.5t-19.5 30t-36.5 25.5t-56.5 11h-103v232h103q94 0 161.5 -34t111.5 -84t64.5 -107.5t20.5 -102.5v-367q0 -31 17.5 -62.5 t48 -58t70.5 -44t83 -17.5v-119l-4 -108q-43 0 -82 -18.5t-68.5 -45t-47 -58.5t-17.5 -62v-369q0 -47 -20.5 -104.5t-64.5 -106.5t-111.5 -83t-161.5 -34h-103v228z" />
<glyph unicode="~" horiz-adv-x="1343" d="M-100 543l16 37q12 25 41 72.5t74 97t106.5 87t136.5 42.5q76 0 130.5 -30t98.5 -63.5t83 -60.5t84 -23q31 2 65.5 32t64 63.5t48.5 62.5l20 29l160 -88q0 -2 -12 -27.5t-33.5 -62.5t-53.5 -80t-74 -81t-92 -62.5t-108 -26.5q-74 0 -132 27.5t-106 59.5t-88 59.5 t-77 27.5q-39 0 -73 -27.5t-58 -60.5q-31 -39 -55 -88z" />
<glyph unicode="&#xa1;" horiz-adv-x="604" d="M-41 1006q0 41 15.5 77.5t43 63.5t63.5 42t77 15q43 0 79.5 -15t64.5 -42t44 -63.5t16 -77.5q0 -86 -59 -143.5t-145 -57.5q-41 0 -77 15.5t-63.5 43t-43 63.5t-15.5 79zM6 -375l51 948h205l53 -948h-309z" />
<glyph unicode="&#xa3;" horiz-adv-x="1499" d="M-109 608v246l170 -8q-6 0 -6 6q-2 31 -3 68.5t-1 64.5v41t2 41q14 106 61.5 200.5t119 165t161.5 111.5t191 41q84 0 166 -27.5t150.5 -80t121.5 -126t78 -167.5h-277q-29 72 -98.5 114.5t-140.5 42.5q-51 0 -97.5 -24.5t-83 -66.5t-61.5 -95t-35 -108q-2 -16 -2 -33 v-31q0 -16 1 -37.5t3 -46.5v-29q2 -4 2 -5v-11h541v-246h-532q2 -59 -3.5 -121.5t-21.5 -130.5q12 4 24.5 6.5t20.5 2.5q86 4 163 -32t148 -83q33 -23 58.5 -40t46.5 -13q20 0 43.5 14t46 32.5t43 39t33.5 36.5h264l-4 -26q-8 -14 -28.5 -45t-50.5 -70t-68 -80t-83 -74.5 t-95 -56t-105 -22.5h-13q-84 0 -153.5 32.5t-138.5 79.5q-29 20 -62 39t-51 17q-37 -4 -72 -33t-61 -64q-33 -39 -60 -90l-198 125q76 147 100.5 280.5t24.5 250.5q0 2 -1 3t-1 5v18h-177z" />
<glyph unicode="&#xa5;" d="M-53 1528h305l360 -590q14 23 32 51.5t48.5 78.5t78.5 129t124 202q16 29 39.5 64.5t40.5 64.5h307l-344 -557h242v-246h-430v-150v-18h430v-242h-430v-315h-271v315h-428v242l414 4v164h-27h-387v246h240q-27 41 -51.5 83t-49.5 83z" />
<glyph unicode="&#xa6;" horiz-adv-x="608" d="M10 -377v864h254v-864h-254zM10 664v866h254v-866h-254z" />
<glyph unicode="&#xa7;" horiz-adv-x="1396" d="M-47 82h266q2 -55 25.5 -107.5t62.5 -92.5t87 -63.5t98 -23.5q119 0 198.5 57.5t79.5 165.5q0 31 -26.5 61t-70.5 59.5t-101.5 57t-118.5 52.5h2q-94 35 -179.5 76t-151 95t-104 124.5t-38.5 167.5q0 47 10 100t39 100q-27 45 -38 97.5t-11 113.5q0 74 31.5 152t95 141.5 t160 104.5t223.5 41q111 0 203.5 -41t160.5 -110t106.5 -161t41.5 -194h-269q-2 63 -23.5 111t-55 81t-76.5 49.5t-88 16.5q-59 0 -106.5 -16.5t-80.5 -43t-50 -61.5t-17 -70q0 -37 18 -66.5t52 -53t81 -43t103 -39.5l71 -27q76 -29 158 -62.5t151.5 -86t114.5 -128 t45 -186.5q0 -51 -12 -107.5t-41 -103.5q53 -88 53 -203q0 -78 -32.5 -160.5t-99 -150t-169 -112t-239.5 -44.5q-121 0 -220.5 47.5t-170 123t-109.5 171t-39 191.5zM238 711q0 -41 22.5 -71t61 -54.5t90 -45t110.5 -42.5l248 -97q2 10 1 15.5t-1 13.5q0 68 -105.5 129.5 t-283.5 124.5q-41 16 -68.5 28.5t-72.5 35.5q-2 -8 -2 -17.5v-19.5z" />
<glyph unicode="&#xa8;" horiz-adv-x="1275" d="M-29 1497q0 70 49.5 120t118.5 50q70 0 120 -50t50 -120t-50 -119t-120 -49t-119 49t-49 119zM475 1497q0 70 48 120t118 50q72 0 121 -50t49 -120t-49 -119t-121 -49q-70 0 -118 49t-48 119z" />
<glyph unicode="&#xab;" horiz-adv-x="1812" d="M6 530v166l701 488v-305l-392 -265q98 -66 195.5 -131l196.5 -131v-309zM688 530v166l696 488v-305l-389 -265q98 -66 194.5 -131t194.5 -131v-309z" />
<glyph unicode="&#xad;" horiz-adv-x="1245" d="M8 494v245h838v-245h-51h-787z" />
<glyph unicode="&#xaf;" horiz-adv-x="1282" d="M12 1350v170h801v-166v-4h-801z" />
<glyph unicode="&#xb0;" horiz-adv-x="950" d="M-16 1386q0 59 22.5 112.5t61 92.5t92 61.5t112.5 22.5t112.5 -22.5t92.5 -61.5t61.5 -92t22.5 -113q0 -59 -22.5 -112t-61.5 -92t-92.5 -61.5t-112.5 -22.5t-112.5 22.5t-92 61.5t-61 92t-22.5 112zM129 1386q0 -70 42 -111.5t101 -41.5t101.5 42t42.5 111 q0 59 -42.5 101.5t-101.5 42.5t-101 -42t-42 -102z" />
<glyph unicode="&#xb1;" horiz-adv-x="1630" d="M8 59v244h1014v-244h-1014zM8 754v243h379v371h254v-371h381v-243h-381v-373h-254v373h-379z" />
<glyph unicode="&#xb4;" horiz-adv-x="880" d="M14 1180l207 366h256l-268 -366h-195z" />
<glyph unicode="&#xb5;" horiz-adv-x="1464" d="M6 -375v1546h264v-626q0 -154 57.5 -243t176.5 -89q68 0 119 39t86.5 101.5t54 140t18.5 157.5v518h260v-1169h-260v178q-27 -61 -62.5 -103t-73.5 -67.5t-78 -37t-76 -11.5q-29 0 -63 11.5t-65.5 33t-56 54t-37.5 77.5v-510h-264z" />
<glyph unicode="&#xb7;" horiz-adv-x="798" d="M78 152q0 86 57.5 143t140.5 57q86 0 143.5 -57t57.5 -143q0 -84 -57.5 -143.5t-143.5 -59.5q-84 0 -141 59.5t-57 143.5z" />
<glyph unicode="&#xb8;" horiz-adv-x="905" d="M-2 -399l123 75q16 -25 37.5 -43t42.5 -18q23 0 37 9t21 23.5t9 30t2 25.5q0 12 -2 26.5t-9 29t-21.5 23.5t-36.5 9q-14 0 -29.5 -11t-32.5 -22l-102 92l145 230l125 -82l-92 -94q90 0 145.5 -59.5t55.5 -141.5q0 -98 -59.5 -160.5t-155.5 -62.5q-61 0 -114.5 31.5 t-88.5 89.5z" />
<glyph unicode="&#xbb;" horiz-adv-x="1812" d="M6 43v309l389 262l-389 265v305l701 -488v-166zM688 43v309l389 262q-6 4 -18 13.5t-51 35t-114 77t-206 139.5v305l696 -488v-166z" />
<glyph unicode="&#xbf;" horiz-adv-x="1329" d="M-57 33q0 74 17 129t45 96t62.5 74t69.5 63l90 80q31 31 59.5 63.5t28.5 55.5v53h238v-53q0 -53 -16.5 -97t-43 -83t-58.5 -73t-64 -62l-17 -17l-22 -12l-39 -35q-47 -41 -72.5 -77t-25.5 -105q0 -84 61 -144.5t160 -60.5q104 0 159.5 72.5t55.5 181.5h264 q0 -109 -36 -198t-99.5 -154.5t-151.5 -101.5t-192 -36q-102 0 -189.5 33t-150 91.5t-98 139.5t-35.5 177zM227 1010q0 84 56.5 142t142.5 58t142.5 -58t56.5 -142q0 -86 -56.5 -142.5t-142.5 -56.5t-142.5 56.5t-56.5 142.5z" />
<glyph unicode="&#xc0;" horiz-adv-x="1470" d="M-96 0h286q16 47 35 101.5t35 103.5q16 47 33.5 93t34.5 91h469l139 -389h278l-546 1526h-213zM266 2097h256l207 -366h-194zM406 635q51 150 79.5 236.5t44 132t20.5 59.5t9 22q31 -92 52.5 -154.5t38 -111.5t30.5 -91t33 -93h-307z" />
<glyph unicode="&#xc1;" horiz-adv-x="1470" d="M-96 0h286q16 47 35 101.5t35 103.5q16 47 33.5 93t34.5 91h469l139 -389h278l-546 1526h-213zM406 635q51 150 79.5 236.5t44 132t20.5 59.5t9 22q31 -92 52.5 -154.5t38 -111.5t30.5 -91t33 -93h-307zM434 1731l207 366h256l-268 -366h-195z" />
<glyph unicode="&#xc2;" horiz-adv-x="1470" d="M-96 0h286q16 47 35 101.5t35 103.5q16 47 33.5 93t34.5 91h469l139 -389h278l-546 1526h-213zM106 1741l455 399l455 -397l-111 -129l-344 301q-86 -72 -172 -150.5t-172 -150.5zM406 635q51 150 79.5 236.5t44 132t20.5 59.5t9 22q31 -92 52.5 -154.5t38 -111.5 t30.5 -91t33 -93h-307z" />
<glyph unicode="&#xc3;" horiz-adv-x="1470" d="M-96 0h286q16 47 35 101.5t35 103.5q16 47 33.5 93t34.5 91h469l139 -389h278l-546 1526h-213zM10 1788q10 23 38 71t71 96t100 86t131 40q80 2 147.5 -29t114.5 -63q27 -18 50 -37q27 -18 53 -37t55 -17q43 2 78 33t60.5 67t39.5 66l15 31l135 -70q-2 -2 -12.5 -24.5 t-30 -55t-48 -69.5t-66.5 -69.5t-84 -55t-101 -25.5h-11q-78 0 -141 32t-106 61q-35 25 -59.5 43t-43 28.5t-35 15.5t-32.5 5q-41 0 -76 -31t-59 -65q-29 -43 -52 -97zM406 635q51 150 79.5 236.5t44 132t20.5 59.5t9 22q31 -92 52.5 -154.5t38 -111.5t30.5 -91t33 -93h-307 z" />
<glyph unicode="&#xc4;" horiz-adv-x="1470" d="M-96 0h286q16 47 35 101.5t35 103.5q16 47 33.5 93t34.5 91h469l139 -389h278l-546 1526h-213zM154 1868q0 70 49 120t119 50t120 -50t50 -120t-50.5 -119t-119.5 -49q-70 0 -119 49t-49 119zM406 635q51 150 79.5 236.5t44 132t20.5 59.5t9 22q31 -92 52.5 -154.5 t38 -111.5t30.5 -91t33 -93h-307zM657 1868q0 70 48.5 120t117.5 50q72 0 121 -50t49 -120t-49 -119t-121 -49q-70 0 -118 49t-48 119z" />
<glyph unicode="&#xc5;" horiz-adv-x="1470" d="M-96 0h286q16 47 35 101.5t35 103.5q16 47 33.5 93t34.5 91h469l139 -389h278l-546 1526h-213zM289 2007q0 59 22.5 112.5t61.5 92.5t92 61.5t113 22.5q59 0 112 -22.5t92 -61.5t61.5 -92.5t22.5 -112.5t-22.5 -112.5t-61.5 -92.5t-92 -61.5t-112 -22.5t-112.5 22.5 t-92.5 61.5t-61.5 92.5t-22.5 112.5zM406 635q51 150 79.5 236.5t44 132t20.5 59.5t9 22q31 -92 52.5 -154.5t38 -111.5t30.5 -91t33 -93h-307zM434 2007q0 -70 42 -112t102 -42q59 0 101 42t42 112q0 59 -42 101t-101 42t-101.5 -42t-42.5 -101z" />
<glyph unicode="&#xc6;" horiz-adv-x="2371" d="M-117 2l1053 1528h1016v-248h-776v-338q0 -12 1 -18t1 -23h690v-244h-690v-411h774v-246h-1039v387h-458q-10 -14 -22.5 -32.5t-41.5 -58.5t-78 -109.5t-131 -186.5h-299zM604 637h309v432l-145 -203z" />
<glyph unicode="&#xc7;" horiz-adv-x="1744" d="M-59 764q0 164 54 309.5t152.5 254t236.5 172t306 63.5q106 0 208.5 -30t192 -92.5t163 -157.5t122.5 -224l-276 -2q-59 135 -162.5 197.5t-247.5 62.5q-113 0 -201 -47t-149 -124t-94 -177.5t-33 -204.5q0 -115 33 -222.5t96 -183.5q66 -63 158 -109t190 -46 q289 0 408 260l278 -2q-43 -117 -108.5 -205t-146.5 -150.5t-174 -98.5t-187 -46l-55 -57q90 0 145 -59.5t55 -141.5q0 -98 -59.5 -160.5t-155.5 -62.5q-61 0 -114.5 31.5t-88.5 89.5l123 75q16 -25 38 -43t42 -18q23 0 37 9t21.5 23.5t9.5 30t2 25.5q0 12 -2 26.5t-9.5 29 t-21.5 23.5t-37 9q-14 0 -29.5 -11t-31.5 -22l-103 92l70 113q-147 16 -268 85t-207 176.5t-133 245.5t-47 294z" />
<glyph unicode="&#xc8;" horiz-adv-x="1443" d="M6 0h1038v248h-778v409h688v246h-688v379h778v246h-1038v-1528zM201 2097h256l207 -366h-195z" />
<glyph unicode="&#xc9;" horiz-adv-x="1443" d="M6 0h1038v248h-778v409h688v246h-688v379h778v246h-1038v-1528zM412 1731l206 366h256l-268 -366h-194z" />
<glyph unicode="&#xca;" horiz-adv-x="1443" d="M6 0h1038v248h-778v409h688v246h-688v379h778v246h-1038v-1528zM84 1741l455 399l454 -397l-110 -129l-344 301q-86 -72 -172 -150.5t-172 -150.5z" />
<glyph unicode="&#xcb;" horiz-adv-x="1443" d="M6 0h1038v248h-778v409h688v246h-688v379h778v246h-1038v-1528zM106 1868q0 70 49.5 120t118.5 50q70 0 120 -50t50 -120t-50 -119t-120 -49t-119 49t-49 119zM610 1868q0 70 48.5 120t117.5 50q72 0 121 -50t49 -120t-49 -119t-121 -49q-70 0 -118 49t-48 119z" />
<glyph unicode="&#xcc;" horiz-adv-x="614" d="M-172 2097h256l207 -366h-195zM27 0h262v1528h-262v-1528z" />
<glyph unicode="&#xcd;" horiz-adv-x="614" d="M-61 1731l206 366h256l-268 -366h-194zM-4 0h262v1528h-262v-1528z" />
<glyph unicode="&#xce;" horiz-adv-x="614" d="M-350 1741l454 399l455 -397l-110 -129l-345 301q-86 -72 -172 -150.5t-172 -150.5zM-27 0h263v1528h-263v-1528z" />
<glyph unicode="&#xcf;" horiz-adv-x="614" d="M-326 1868q0 70 49.5 120t118.5 50q70 0 120 -50t50 -120t-50 -119t-120 -49t-119 49t-49 119zM-35 0h262v1528h-262v-1528zM178 1868q0 70 48 120t118 50q72 0 121 -50t49 -120t-49 -119t-121 -49q-70 0 -118 49t-48 119z" />
<glyph unicode="&#xd0;" horiz-adv-x="1697" d="M-279 541v243h267v744h594q150 0 275.5 -56.5t215.5 -157t140.5 -240.5t50.5 -306q0 -170 -50.5 -310.5t-140.5 -242.5t-216 -158.5t-275 -56.5h-381h-213v541h-267zM248 248h334q111 0 189.5 43t129.5 114.5t74.5 166t23.5 196.5q0 100 -23.5 192.5t-74.5 164 t-130 114.5t-189 43h-334v-498h454v-243h-454v-293z" />
<glyph unicode="&#xd1;" horiz-adv-x="1652" d="M6 0h268v1087l717 -1087h244v1528h-264v-1065l-707 1065h-258v-1528zM121 1788q10 23 37.5 71t70.5 96t100.5 86t131.5 40q80 2 147.5 -29t114.5 -63q27 -18 49 -37q27 -18 53.5 -37t55.5 -17q43 2 77.5 33t60 67t39.5 66l15 31l135 -70q-2 -2 -12 -24.5t-29.5 -55 t-48 -69.5t-66.5 -69.5t-84 -55t-102 -25.5h-10q-78 0 -141.5 32t-106.5 61q-35 25 -59.5 43t-43 28.5t-34.5 15.5t-33 5q-41 0 -75.5 -31t-59.5 -65q-29 -43 -51 -97z" />
<glyph unicode="&#xd2;" horiz-adv-x="1816" d="M-78 764q0 -168 54.5 -314.5t152.5 -256t236.5 -173t306.5 -63.5q166 0 302 63.5t232.5 173t149.5 256t53 314.5q0 164 -53 309.5t-149.5 254t-232.5 172t-302 63.5q-168 0 -306.5 -63.5t-236.5 -172t-152.5 -254t-54.5 -309.5zM195 764q0 100 33.5 199.5t96 178.5 t150.5 127t197 48t194.5 -47t145 -125t91.5 -177.5t32 -203.5q0 -106 -31 -206.5t-90.5 -179.5t-145.5 -127t-196 -48q-115 0 -204 50t-149.5 131t-92 181.5t-31.5 198.5zM326 2097h256l206 -366h-194z" />
<glyph unicode="&#xd3;" horiz-adv-x="1816" d="M-78 764q0 -168 54.5 -314.5t152.5 -256t236.5 -173t306.5 -63.5q166 0 302 63.5t232.5 173t149.5 256t53 314.5q0 164 -53 309.5t-149.5 254t-232.5 172t-302 63.5q-168 0 -306.5 -63.5t-236.5 -172t-152.5 -254t-54.5 -309.5zM195 764q0 100 33.5 199.5t96 178.5 t150.5 127t197 48t194.5 -47t145 -125t91.5 -177.5t32 -203.5q0 -106 -31 -206.5t-90.5 -179.5t-145.5 -127t-196 -48q-115 0 -204 50t-149.5 131t-92 181.5t-31.5 198.5zM539 1731l206 366h256l-268 -366h-194z" />
<glyph unicode="&#xd4;" horiz-adv-x="1816" d="M-78 764q0 -168 54.5 -314.5t152.5 -256t236.5 -173t306.5 -63.5q166 0 302 63.5t232.5 173t149.5 256t53 314.5q0 164 -53 309.5t-149.5 254t-232.5 172t-302 63.5q-168 0 -306.5 -63.5t-236.5 -172t-152.5 -254t-54.5 -309.5zM195 764q0 100 33.5 199.5t96 178.5 t150.5 127t197 48t194.5 -47t145 -125t91.5 -177.5t32 -203.5q0 -106 -31 -206.5t-90.5 -179.5t-145.5 -127t-196 -48q-115 0 -204 50t-149.5 131t-92 181.5t-31.5 198.5zM215 1741l455 399l454 -397l-110 -129l-344 301q-86 -72 -172 -150.5t-172 -150.5z" />
<glyph unicode="&#xd5;" horiz-adv-x="1816" d="M-78 764q0 -168 54.5 -314.5t152.5 -256t236.5 -173t306.5 -63.5q166 0 302 63.5t232.5 173t149.5 256t53 314.5q0 164 -53 309.5t-149.5 254t-232.5 172t-302 63.5q-168 0 -306.5 -63.5t-236.5 -172t-152.5 -254t-54.5 -309.5zM176 1788q10 23 38 71t71 96t100 86 t131 40q80 2 147.5 -29t114.5 -63q27 -18 49 -37q27 -18 53.5 -37t55.5 -17q43 2 78 33t60.5 67t39.5 66l14 31l136 -70q-2 -2 -12.5 -24.5t-30 -55t-48 -69.5t-66.5 -69.5t-84 -55t-101 -25.5h-11q-78 0 -141 32t-106 61q-35 25 -59.5 43t-43 28.5t-35 15.5t-32.5 5 q-41 0 -76 -31t-60 -65q-29 -43 -51 -97zM195 764q0 100 33.5 199.5t96 178.5t150.5 127t197 48t194.5 -47t145 -125t91.5 -177.5t32 -203.5q0 -106 -31 -206.5t-90.5 -179.5t-145.5 -127t-196 -48q-115 0 -204 50t-149.5 131t-92 181.5t-31.5 198.5z" />
<glyph unicode="&#xd6;" horiz-adv-x="1816" d="M-78 764q0 -168 54.5 -314.5t152.5 -256t236.5 -173t306.5 -63.5q166 0 302 63.5t232.5 173t149.5 256t53 314.5q0 164 -53 309.5t-149.5 254t-232.5 172t-302 63.5q-168 0 -306.5 -63.5t-236.5 -172t-152.5 -254t-54.5 -309.5zM195 764q0 100 33.5 199.5t96 178.5 t150.5 127t197 48t194.5 -47t145 -125t91.5 -177.5t32 -203.5q0 -106 -31 -206.5t-90.5 -179.5t-145.5 -127t-196 -48q-115 0 -204 50t-149.5 131t-92 181.5t-31.5 198.5zM256 1868q0 70 49 120t119 50t120 -50t50 -120t-50 -119t-120 -49t-119 49t-49 119zM760 1868 q0 70 48 120t118 50q72 0 121 -50t49 -120t-49.5 -119t-120.5 -49q-70 0 -118 49t-48 119z" />
<glyph unicode="&#xd7;" horiz-adv-x="1175" d="M-33 903l178 174l267 -270l258 260l182 -182l-256 -256l268 -271l-176 -174l-272 269l-125 -127l-133 -136l-183 181l263 264z" />
<glyph unicode="&#xd8;" horiz-adv-x="1816" d="M-31 59l176 193q-76 100 -118.5 233t-42.5 281q0 164 54 309.5t152.5 254t236.5 172t304 63.5q133 0 248 -44t203 -118q20 23 45.5 50.5t42.5 41.5l94 100l174 -159l-195 -211q125 -199 125 -459q0 -168 -53 -314.5t-150.5 -256t-232.5 -173t-301 -63.5q-117 0 -222.5 34 t-191.5 87l-6 -6l-6 -6q-39 -41 -83 -87.5t-79 -84.5zM254 766q0 -80 20.5 -163t57.5 -150q53 59 106.5 119.5t108.5 119.5q51 57 102 114.5t105 117.5q68 76 129 145.5t129 142.5q-57 55 -125 80t-156 25q-111 0 -199 -46t-150.5 -123t-95 -176.5t-32.5 -205.5zM487 272 q51 -31 111.5 -49t132.5 -18q109 0 195 49t145 129t91 180.5t32 202.5q0 59 -12.5 122.5t-30.5 119.5l-281 -308q-98 -109 -190 -212t-193 -216z" />
<glyph unicode="&#xd9;" horiz-adv-x="1630" d="M8 649v877h264v-877q0 -76 16.5 -154.5t55.5 -142t103.5 -103.5t158.5 -40q109 0 175.5 40t102.5 103.5t48 142t12 154.5v877h262v-877q0 -74 -10 -152.5t-35.5 -155.5t-69.5 -145.5t-111 -120.5t-159 -83t-215 -31q-182 0 -297.5 66.5t-182.5 168t-92.5 223.5t-25.5 230 zM268 2097h256l207 -366h-194z" />
<glyph unicode="&#xda;" horiz-adv-x="1630" d="M8 649v877h264v-877q0 -76 16.5 -154.5t55.5 -142t103.5 -103.5t158.5 -40q109 0 175.5 40t102.5 103.5t48 142t12 154.5v877h262v-877q0 -74 -10 -152.5t-35.5 -155.5t-69.5 -145.5t-111 -120.5t-159 -83t-215 -31q-182 0 -297.5 66.5t-182.5 168t-92.5 223.5t-25.5 230 zM440 1731l207 366h256l-268 -366h-195z" />
<glyph unicode="&#xdb;" horiz-adv-x="1630" d="M8 649v877h264v-877q0 -76 16.5 -154.5t55.5 -142t103.5 -103.5t158.5 -40q109 0 175.5 40t102.5 103.5t48 142t12 154.5v877h262v-877q0 -74 -10 -152.5t-35.5 -155.5t-69.5 -145.5t-111 -120.5t-159 -83t-215 -31q-182 0 -297.5 66.5t-182.5 168t-92.5 223.5t-25.5 230 zM150 1741l454 399l455 -397l-111 -129l-344 301q-86 -72 -172 -150.5t-172 -150.5z" />
<glyph unicode="&#xdc;" horiz-adv-x="1630" d="M8 649v877h264v-877q0 -76 16.5 -154.5t55.5 -142t103.5 -103.5t158.5 -40q109 0 175.5 40t102.5 103.5t48 142t12 154.5v877h262v-877q0 -74 -10 -152.5t-35.5 -155.5t-69.5 -145.5t-111 -120.5t-159 -83t-215 -31q-182 0 -297.5 66.5t-182.5 168t-92.5 223.5t-25.5 230 zM176 1868q0 70 49 120t119 50t120 -50t50 -120t-50 -119t-120 -49t-119 49t-49 119zM680 1868q0 70 48 120t118 50q72 0 121 -50t49 -120t-49 -119t-121 -49q-70 0 -118 49t-48 119z" />
<glyph unicode="&#xdd;" d="M-78 1528l295 -479l236 -383v-666h268v666l534 862h-309q-88 -141 -179 -292t-177 -296l-365 588h-303zM457 1731l207 366h256l-269 -366h-194z" />
<glyph unicode="&#xde;" horiz-adv-x="1404" d="M8 0v1530h252v-289h297q100 0 187 -37t152 -101.5t102.5 -150.5t37.5 -184q0 -100 -37.5 -187t-102.5 -151.5t-152 -101.5t-187 -37h-297v-291h-252zM260 537h297q45 0 86 19t71.5 51t48 74t17.5 87t-17.5 86t-48 72.5t-71.5 51t-86 19.5h-297v-460z" />
<glyph unicode="&#xdf;" horiz-adv-x="1501" d="M6 0v1102q0 72 18.5 130t46 102t61.5 76t63 52q78 47 156.5 62.5t131.5 15.5h60q74 0 139.5 -27.5t114.5 -77t76.5 -114t27.5 -137.5q0 -39 -15.5 -82t-35 -83t-34.5 -74t-15 -54q0 -8 11 -17.5t36 -29.5q37 -25 79 -56.5t76.5 -73.5t58 -98.5t23.5 -132.5 q0 -104 -39.5 -193t-109.5 -154.5t-164 -103.5t-203 -38h-213v244h213q57 0 105.5 19t84.5 52t55.5 78t19.5 96q0 47 -29 77t-82 65q-29 23 -57.5 46t-52 52t-39 63.5t-15.5 77.5q0 23 5 49.5t20 55.5l65 129q10 23 17.5 46t7.5 40q0 23 -11.5 45t-30 39.5t-42 28 t-47.5 10.5h-60q-27 0 -65.5 -5.5t-67.5 -23.5q-45 -25 -62.5 -73t-17.5 -103v-1102h-264z" />
<glyph unicode="&#xe0;" horiz-adv-x="1396" d="M-25 330q0 -78 35 -145.5t94.5 -117t136 -77t160.5 -27.5q61 0 120 19.5t107 51.5t80.5 75t45.5 92q2 -49 22.5 -87t52 -63.5t68.5 -39t72 -13.5h86v244h-84v536q0 98 -39 178t-105.5 136.5t-153.5 88t-184 31.5q-96 0 -179 -36.5t-144.5 -94t-96 -127t-34.5 -137.5h250 q0 18 14 46t42 53.5t64.5 44t83.5 18.5q45 0 86 -14.5t73 -41t50.5 -63.5t18.5 -82v-24q-45 -4 -101.5 -11.5t-134.5 -17.5l-82 -10q-88 -12 -164.5 -42t-134 -78t-91.5 -113.5t-34 -151.5zM174 1747h256l207 -367h-195zM236 330q0 72 54 128t136 72q172 31 291 41v-184 q-41 -86 -129.5 -132t-186.5 -46q-63 0 -114 31.5t-51 89.5z" />
<glyph unicode="&#xe1;" horiz-adv-x="1396" d="M-25 330q0 -78 35 -145.5t94.5 -117t136 -77t160.5 -27.5q61 0 120 19.5t107 51.5t80.5 75t45.5 92q2 -49 22.5 -87t52 -63.5t68.5 -39t72 -13.5h86v244h-84v536q0 98 -39 178t-105.5 136.5t-153.5 88t-184 31.5q-96 0 -179 -36.5t-144.5 -94t-96 -127t-34.5 -137.5h250 q0 18 14 46t42 53.5t64.5 44t83.5 18.5q45 0 86 -14.5t73 -41t50.5 -63.5t18.5 -82v-24q-45 -4 -101.5 -11.5t-134.5 -17.5l-82 -10q-88 -12 -164.5 -42t-134 -78t-91.5 -113.5t-34 -151.5zM236 330q0 72 54 128t136 72q172 31 291 41v-184q-41 -86 -129.5 -132t-186.5 -46 q-63 0 -114 31.5t-51 89.5zM397 1380l207 367h256l-268 -367h-195z" />
<glyph unicode="&#xe2;" horiz-adv-x="1396" d="M-25 330q0 -78 35 -145.5t94.5 -117t136 -77t160.5 -27.5q61 0 120 19.5t107 51.5t80.5 75t45.5 92q2 -49 22.5 -87t52 -63.5t68.5 -39t72 -13.5h86v244h-84v536q0 98 -39 178t-105.5 136.5t-153.5 88t-184 31.5q-96 0 -179 -36.5t-144.5 -94t-96 -127t-34.5 -137.5h250 q0 18 14 46t42 53.5t64.5 44t83.5 18.5q45 0 86 -14.5t73 -41t50.5 -63.5t18.5 -82v-24q-45 -4 -101.5 -11.5t-134.5 -17.5l-82 -10q-88 -12 -164.5 -42t-134 -78t-91.5 -113.5t-34 -151.5zM80 1526l455 399l454 -397l-110 -129l-344 301q-86 -72 -172.5 -151t-172.5 -150z M236 330q0 72 54 128t136 72q172 31 291 41v-184q-41 -86 -129.5 -132t-186.5 -46q-63 0 -114 31.5t-51 89.5z" />
<glyph unicode="&#xe3;" horiz-adv-x="1396" d="M-78 330q0 -78 35 -145.5t94.5 -117t136 -77t160.5 -27.5q61 0 119.5 19.5t107 51.5t81 75t44.5 92q2 -49 22.5 -87t52.5 -63.5t69 -39t71 -13.5h86v244h-83v536q0 98 -39 178t-105.5 136.5t-154 88t-183.5 31.5t-179 -36.5t-144.5 -94t-96 -127t-34.5 -137.5h249 q0 18 14.5 46t42 53.5t64.5 44t84 18.5q45 0 86 -14.5t73 -41t50.5 -63.5t18.5 -82v-24q-45 -4 -101.5 -11.5t-134.5 -17.5l-82 -10q-88 -12 -165 -42t-134 -78t-91 -113.5t-34 -151.5zM-61 1452q10 23 37.5 71t70.5 96t100.5 86t131.5 40q80 2 147.5 -28.5t114.5 -63.5 q27 -18 49 -37q27 -18 53 -36.5t55 -16.5q43 2 78 32.5t60.5 66.5t39.5 66l15 31l135 -69q-2 -2 -12 -25t-29.5 -55.5t-48.5 -69.5t-67 -69.5t-84 -55t-101 -24.5h-10q-78 0 -141.5 31.5t-106.5 60.5q-35 25 -59.5 43t-43 28.5t-35 15.5t-32.5 5q-41 0 -76 -31t-59 -65 q-29 -43 -51 -97zM182 330q0 72 54.5 128t136.5 72q172 31 291 41v-184q-41 -86 -129.5 -132t-186.5 -46q-63 0 -114.5 31.5t-51.5 89.5z" />
<glyph unicode="&#xe4;" horiz-adv-x="1396" d="M-25 330q0 -78 35 -145.5t94.5 -117t136 -77t160.5 -27.5q61 0 120 19.5t107 51.5t80.5 75t45.5 92q2 -49 22.5 -87t52 -63.5t68.5 -39t72 -13.5h86v244h-84v536q0 98 -39 178t-105.5 136.5t-153.5 88t-184 31.5q-96 0 -179 -36.5t-144.5 -94t-96 -127t-34.5 -137.5h250 q0 18 14 46t42 53.5t64.5 44t83.5 18.5q45 0 86 -14.5t73 -41t50.5 -63.5t18.5 -82v-24q-45 -4 -101.5 -11.5t-134.5 -17.5l-82 -10q-88 -12 -164.5 -42t-134 -78t-91.5 -113.5t-34 -151.5zM119 1550q0 70 49 120t119 50t120 -50t50 -120t-50.5 -119t-119.5 -49 q-70 0 -119 49.5t-49 118.5zM236 330q0 72 54 128t136 72q172 31 291 41v-184q-41 -86 -129.5 -132t-186.5 -46q-63 0 -114 31.5t-51 89.5zM623 1550q0 70 48 120t117 50q72 0 121 -50t49 -120t-49 -119t-121 -49q-70 0 -117.5 49.5t-47.5 118.5z" />
<glyph unicode="&#xe5;" horiz-adv-x="1396" d="M-25 330q0 -78 35 -145.5t94.5 -117t136 -77t160.5 -27.5q61 0 120 19.5t107 51.5t80.5 75t45.5 92q2 -49 22.5 -87t52 -63.5t68.5 -39t72 -13.5h86v244h-84v536q0 98 -39 178t-105.5 136.5t-153.5 88t-184 31.5q-96 0 -179 -36.5t-144.5 -94t-96 -127t-34.5 -137.5h250 q0 18 14 46t42 53.5t64.5 44t83.5 18.5q45 0 86 -14.5t73 -41t50.5 -63.5t18.5 -82v-24q-45 -4 -101.5 -11.5t-134.5 -17.5l-82 -10q-88 -12 -164.5 -42t-134 -78t-91.5 -113.5t-34 -151.5zM236 330q0 72 54 128t136 72q172 31 291 41v-184q-41 -86 -129.5 -132t-186.5 -46 q-63 0 -114 31.5t-51 89.5zM236 1651q0 59 22.5 112.5t61 92t92 61t112.5 22.5t112.5 -22.5t92.5 -61t61.5 -92t22.5 -112.5t-22.5 -112.5t-61.5 -92.5t-92.5 -61.5t-112.5 -22.5t-112.5 22.5t-92 61.5t-61 92t-22.5 113zM381 1651q0 -70 42 -112t101 -42t101.5 42t42.5 112 q0 59 -42.5 101t-101.5 42t-101 -42t-42 -101z" />
<glyph unicode="&#xe6;" horiz-adv-x="2289" d="M-45 334q0 84 34 147.5t92 109.5t135 74.5t161 43.5q104 14 185 23t134 13v35q0 45 -18.5 82t-50 63.5t-71.5 41t-83 14.5q-49 0 -87 -17.5t-65.5 -43t-42 -53t-14.5 -48.5h-252q0 68 36 137.5t97.5 126t145.5 93t182 36.5q113 0 211 -43t164 -120q70 78 164 119.5 t211 41.5q123 0 231.5 -54t173.5 -146q55 -80 83 -187.5t28 -232.5v-117h-774q8 -51 25.5 -97t48 -82t75.5 -57.5t109 -21.5q96 0 164.5 34t103.5 124h266q-154 -401 -534 -402q-129 0 -233.5 52.5t-176.5 150.5q-61 -88 -165.5 -148.5t-262.5 -60.5q-86 0 -165 27.5 t-137 77t-93 117t-35 147.5zM207 334q0 -59 55 -91t123 -32q47 0 94 13.5t88 36t75 55t54 71.5v129q-57 -6 -135 -17.5t-155 -23.5q-41 -8 -78 -18.5t-63.5 -26.5t-42 -39.5t-15.5 -56.5zM967 715h514q-8 45 -25.5 90t-47.5 80t-75 57.5t-110 22.5q-66 0 -111 -22.5 t-74.5 -57.5t-46 -80t-24.5 -90z" />
<glyph unicode="&#xe7;" horiz-adv-x="1370" d="M-41 594q0 131 33 243.5t99.5 195.5t165.5 131t232 48q90 0 172 -22.5t150 -69.5t118 -122.5t81 -182.5h-256q-39 90 -107.5 122t-157.5 32q-78 0 -130 -32t-82.5 -85t-43 -120.5t-12.5 -137.5q0 -72 12.5 -139.5t43 -119.5t83 -85t129.5 -33q90 0 158 32t107 124h256 q-51 -195 -168 -287t-273 -109l-75 -77q90 0 145 -59.5t55 -141.5q0 -98 -59.5 -160.5t-155.5 -62.5q-61 0 -114.5 31.5t-88.5 89.5l123 75q16 -25 38 -43t42 -18q23 0 37 9t21.5 23.5t9.5 30t2 25.5q0 12 -2 26.5t-9.5 29t-21.5 23.5t-37 9q-14 0 -29.5 -11.5t-31.5 -21.5 l-103 92l84 134q-111 16 -193.5 69t-137 134t-82 186.5t-27.5 224.5z" />
<glyph unicode="&#xe8;" horiz-adv-x="1419" d="M-37 590q0 -127 26.5 -232.5t82.5 -185.5q70 -98 174 -149.5t233 -51.5q190 0 312 99.5t200 302.5h-241q-35 -90 -103.5 -124t-167.5 -34q-129 0 -187.5 80t-68.5 213h776v82q0 125 -27.5 232.5t-82.5 187.5q-66 92 -173.5 146t-236.5 54t-234.5 -53t-172.5 -147 q-55 -80 -82 -186.5t-27 -233.5zM174 1747h256l207 -367h-195zM223 715q8 45 26.5 90t49.5 80t75 57.5t105 22.5q63 0 109.5 -21.5t77 -57.5t47 -81t24.5 -90h-514z" />
<glyph unicode="&#xe9;" horiz-adv-x="1419" d="M-37 590q0 -127 26.5 -232.5t82.5 -185.5q70 -98 174 -149.5t233 -51.5q190 0 312 99.5t200 302.5h-241q-35 -90 -103.5 -124t-167.5 -34q-129 0 -187.5 80t-68.5 213h776v82q0 125 -27.5 232.5t-82.5 187.5q-66 92 -173.5 146t-236.5 54t-234.5 -53t-172.5 -147 q-55 -80 -82 -186.5t-27 -233.5zM223 715q8 45 26.5 90t49.5 80t75 57.5t105 22.5q63 0 109.5 -21.5t77 -57.5t47 -81t24.5 -90h-514zM397 1380l207 367h256l-268 -367h-195z" />
<glyph unicode="&#xea;" horiz-adv-x="1419" d="M-37 590q0 -127 26.5 -232.5t82.5 -185.5q70 -98 174 -149.5t233 -51.5q190 0 312 99.5t200 302.5h-241q-35 -90 -103.5 -124t-167.5 -34q-129 0 -187.5 80t-68.5 213h776v82q0 125 -27.5 232.5t-82.5 187.5q-66 92 -173.5 146t-236.5 54t-234.5 -53t-172.5 -147 q-55 -80 -82 -186.5t-27 -233.5zM33 1526l454 399l455 -397l-111 -129l-344 301q-86 -72 -172 -151t-172 -150zM223 715q8 45 26.5 90t49.5 80t75 57.5t105 22.5q63 0 109.5 -21.5t77 -57.5t47 -81t24.5 -90h-514z" />
<glyph unicode="&#xeb;" horiz-adv-x="1419" d="M-37 590q0 -127 26.5 -232.5t82.5 -185.5q70 -98 174 -149.5t233 -51.5q190 0 312 99.5t200 302.5h-241q-35 -90 -103.5 -124t-167.5 -34q-129 0 -187.5 80t-68.5 213h776v82q0 125 -27.5 232.5t-82.5 187.5q-66 92 -173.5 146t-236.5 54t-234.5 -53t-172.5 -147 q-55 -80 -82 -186.5t-27 -233.5zM119 1550q0 70 49 120t119 50t120 -50t50 -120t-50.5 -119t-119.5 -49q-70 0 -119 49.5t-49 118.5zM223 715q8 45 26.5 90t49.5 80t75 57.5t105 22.5q63 0 109.5 -21.5t77 -57.5t47 -81t24.5 -90h-514zM623 1550q0 70 48 120t117 50 q72 0 121 -50t49 -120t-49 -119t-121 -49q-70 0 -117.5 49.5t-47.5 118.5z" />
<glyph unicode="&#xec;" horiz-adv-x="616" d="M-166 1747h256l207 -367h-195zM53 0v1171h262v-1171h-262z" />
<glyph unicode="&#xed;" horiz-adv-x="616" d="M-39 1380l207 367h256l-268 -367h-195zM14 0v1171h262v-1171h-262z" />
<glyph unicode="&#xee;" horiz-adv-x="616" d="M-356 1526l454 399l455 -397l-111 -129l-344 301q-86 -72 -172 -151t-172 -150zM-23 0v1171h261v-1171h-261z" />
<glyph unicode="&#xef;" horiz-adv-x="616" d="M-311 1550q0 70 49 120t119 50t120 -50t50 -120t-50.5 -119t-119.5 -49q-70 0 -119 49.5t-49 118.5zM-20 0v1171h260v-1171h-260zM193 1550q0 70 48 120t117 50q72 0 121 -50t49 -120t-49 -119t-121 -49q-70 0 -117.5 49.5t-47.5 118.5z" />
<glyph unicode="&#xf0;" horiz-adv-x="1402" d="M-25 475q0 76 22.5 146.5t62.5 130t93.5 107.5t116.5 79l-112 170l213 135q-31 25 -72 55.5t-89 65.5t-99.5 72t-100.5 71h396q41 -27 79.5 -61.5t87.5 -73.5q43 27 92.5 57.5t90.5 59.5l41 29l131 -205l-187 -119q86 -109 141.5 -209t78.5 -174q16 -66 22 -142.5 t6 -170.5v-23q0 -104 -39 -195.5t-107.5 -161t-160.5 -109.5t-199 -40q-104 0 -196 40t-162 109.5t-110 161t-40 195.5zM229 475q0 -53 20.5 -100t54.5 -83t80 -57.5t99 -21.5t100.5 21.5t82 57.5t55 83t20.5 100t-20.5 102.5t-55 86t-81.5 58t-101 21.5q-53 0 -99 -21.5 t-80 -58t-54.5 -86t-20.5 -102.5zM403 977q18 4 40 5t40 1q41 0 76 -4t76 -16q-29 41 -47.5 63.5t-38.5 44.5l-113 -72zM539 1083l10 -10v-2l8 6z" />
<glyph unicode="&#xf1;" horiz-adv-x="1472" d="M-86 1452q10 23 38 71t71 96t100 86t131 40q80 2 147.5 -28.5t114.5 -63.5q27 -18 49 -37q27 -18 53.5 -36.5t55.5 -16.5q43 2 77.5 32.5t60.5 66.5t40 66l14 31l135 -69q-2 -2 -12 -25t-29.5 -55.5t-48 -69.5t-66.5 -69.5t-84 -55t-102 -24.5h-10q-78 0 -141.5 31.5 t-106.5 60.5q-35 25 -59.5 43t-42.5 28.5t-34.5 15.5t-33.5 5q-41 0 -75.5 -31t-59.5 -65q-29 -43 -51 -97zM-76 0h260v518q0 80 18.5 162t53.5 147.5t86 107.5t117 42q121 0 180 -98.5t59 -251.5v-627h263v649q0 150 -35 257.5t-97.5 175t-151.5 99t-196 31.5 q-41 0 -86 -14t-85 -41t-73.5 -66.5t-52.5 -91.5v187h-260v-1186z" />
<glyph unicode="&#xf2;" d="M-39 592q0 -131 39 -245t111.5 -197.5t177 -132t235.5 -48.5t235.5 48.5t177.5 132t111.5 197.5t38.5 245t-38.5 243.5t-111.5 196.5t-177.5 132t-235.5 48t-235.5 -48t-177 -132t-111.5 -196.5t-39 -243.5zM184 1747h256l207 -367h-194zM229 592q0 70 16.5 137.5 t51.5 120.5t91 85t136 32t137.5 -32t92 -85t51 -120.5t16.5 -137.5q0 -72 -16.5 -139.5t-51 -120.5t-92 -86t-137.5 -33t-136 33t-91 86t-51.5 120.5t-16.5 139.5z" />
<glyph unicode="&#xf3;" d="M-39 592q0 -131 39 -245t111.5 -197.5t177 -132t235.5 -48.5t235.5 48.5t177.5 132t111.5 197.5t38.5 245t-38.5 243.5t-111.5 196.5t-177.5 132t-235.5 48t-235.5 -48t-177 -132t-111.5 -196.5t-39 -243.5zM229 592q0 70 16.5 137.5t51.5 120.5t91 85t136 32t137.5 -32 t92 -85t51 -120.5t16.5 -137.5q0 -72 -16.5 -139.5t-51 -120.5t-92 -86t-137.5 -33t-136 33t-91 86t-51.5 120.5t-16.5 139.5zM391 1380l207 367h256l-268 -367h-195z" />
<glyph unicode="&#xf4;" d="M-39 592q0 -131 39 -245t111.5 -197.5t177 -132t235.5 -48.5t235.5 48.5t177.5 132t111.5 197.5t38.5 245t-38.5 243.5t-111.5 196.5t-177.5 132t-235.5 48t-235.5 -48t-177 -132t-111.5 -196.5t-39 -243.5zM72 1526l454 399l455 -397l-111 -129l-344 301 q-86 -72 -172 -151t-172 -150zM229 592q0 70 16.5 137.5t51.5 120.5t91 85t136 32t137.5 -32t92 -85t51 -120.5t16.5 -137.5q0 -72 -16.5 -139.5t-51 -120.5t-92 -86t-137.5 -33t-136 33t-91 86t-51.5 120.5t-16.5 139.5z" />
<glyph unicode="&#xf5;" d="M-39 592q0 -131 39 -245t111.5 -197.5t177 -132t235.5 -48.5t235.5 48.5t177.5 132t111.5 197.5t38.5 245t-38.5 243.5t-111.5 196.5t-177.5 132t-235.5 48t-235.5 -48t-177 -132t-111.5 -196.5t-39 -243.5zM-14 1452q10 23 37.5 71t70.5 96t100.5 86t131.5 40 q80 2 147.5 -28.5t114.5 -63.5q27 -18 49 -37q27 -18 53 -36.5t55 -16.5q43 2 78 32.5t60.5 66.5t40.5 66l14 31l135 -69q-2 -2 -12 -25t-29.5 -55.5t-48.5 -69.5t-66.5 -69.5t-84 -55t-101.5 -24.5h-10q-78 0 -141.5 31.5t-106.5 60.5q-35 25 -59.5 43t-43 28.5t-35 15.5 t-32.5 5q-41 0 -75.5 -31t-59.5 -65q-29 -43 -51 -97zM229 592q0 70 16.5 137.5t51.5 120.5t91 85t136 32t137.5 -32t92 -85t51 -120.5t16.5 -137.5q0 -72 -16.5 -139.5t-51 -120.5t-92 -86t-137.5 -33t-136 33t-91 86t-51.5 120.5t-16.5 139.5z" />
<glyph unicode="&#xf6;" d="M-39 592q0 -131 39 -245t111.5 -197.5t177 -132t235.5 -48.5t235.5 48.5t177.5 132t111.5 197.5t38.5 245t-38.5 243.5t-111.5 196.5t-177.5 132t-235.5 48t-235.5 -48t-177 -132t-111.5 -196.5t-39 -243.5zM96 1550q0 70 49.5 120t118.5 50q70 0 120 -50t50 -120 t-50 -119t-120 -49t-119 49.5t-49 118.5zM229 592q0 70 16.5 137.5t51.5 120.5t91 85t136 32t137.5 -32t92 -85t51 -120.5t16.5 -137.5q0 -72 -16.5 -139.5t-51 -120.5t-92 -86t-137.5 -33t-136 33t-91 86t-51.5 120.5t-16.5 139.5zM600 1550q0 70 48 120t118 50 q72 0 121 -50t49 -120t-49 -119t-121 -49q-70 0 -118 49.5t-48 118.5z" />
<glyph unicode="&#xf7;" horiz-adv-x="1646" d="M4 567v248h1200v-248h-1200zM406 240q0 84 57 141t141 57t142.5 -57t58.5 -141q0 -86 -58.5 -143.5t-142.5 -57.5t-141 57.5t-57 143.5zM406 1141q0 84 57 140t141 56t142.5 -56t58.5 -140q0 -86 -58.5 -144.5t-142.5 -58.5t-141 58.5t-57 144.5z" />
<glyph unicode="&#xf8;" d="M-68 57l164 172q-47 78 -67.5 172.5t-20.5 192.5q0 131 39 243.5t111.5 195.5t176 131t234.5 48q88 0 172 -25.5t150 -68.5l55 60l90 100l172 -162l-161 -174q45 -74 65.5 -165t20.5 -183q0 -131 -39 -243.5t-112 -196.5t-177.5 -132.5t-235.5 -48.5q-92 0 -168.5 28 t-140.5 65l-82 -93l-74 -77zM272 594q0 -37 4.5 -69.5t14.5 -71.5q39 41 80 86t75 88l99 110l176 197q-29 18 -63.5 26.5t-88.5 8.5q-80 0 -137 -32t-92 -85t-51.5 -120.5t-16.5 -137.5zM426 246q29 -16 62.5 -22.5t80.5 -6.5q80 0 136.5 33t92.5 85t52 119.5t16 139.5 q0 29 -4 63.5t-10 67.5q-111 -123 -213 -239.5t-213 -239.5z" />
<glyph unicode="&#xf9;" horiz-adv-x="1472" d="M6 522q0 -152 35 -258t98.5 -173.5t153.5 -99.5t199 -32q37 0 77.5 12.5t80.5 42t75 76.5t59 119v-209h258v1171h-258v-518q0 -80 -18 -161.5t-53 -147t-86.5 -107.5t-116.5 -42q-121 0 -179.5 98t-58.5 252v626h-266v-649zM195 1747h256l206 -367h-194z" />
<glyph unicode="&#xfa;" horiz-adv-x="1472" d="M6 522q0 -152 35 -258t98.5 -173.5t153.5 -99.5t199 -32q37 0 77.5 12.5t80.5 42t75 76.5t59 119v-209h258v1171h-258v-518q0 -80 -18 -161.5t-53 -147t-86.5 -107.5t-116.5 -42q-121 0 -179.5 98t-58.5 252v626h-266v-649zM401 1380l207 367h256l-268 -367h-195z" />
<glyph unicode="&#xfb;" horiz-adv-x="1472" d="M6 522q0 -152 35 -258t98.5 -173.5t153.5 -99.5t199 -32q37 0 77.5 12.5t80.5 42t75 76.5t59 119v-209h258v1171h-258v-518q0 -80 -18 -161.5t-53 -147t-86.5 -107.5t-116.5 -42q-121 0 -179.5 98t-58.5 252v626h-266v-649zM82 1526l455 399l454 -397l-110 -129l-344 301 q-86 -72 -172 -151t-172 -150z" />
<glyph unicode="&#xfc;" horiz-adv-x="1472" d="M6 522q0 -152 35 -258t98.5 -173.5t153.5 -99.5t199 -32q37 0 77.5 12.5t80.5 42t75 76.5t59 119v-209h258v1171h-258v-518q0 -80 -18 -161.5t-53 -147t-86.5 -107.5t-116.5 -42q-121 0 -179.5 98t-58.5 252v626h-266v-649zM106 1550q0 70 49.5 120t118.5 50 q70 0 120 -50t50 -120t-50 -119t-120 -49t-119 49.5t-49 118.5zM610 1550q0 70 48.5 120t117.5 50q72 0 121 -50t49 -120t-49 -119t-121 -49q-70 0 -118 49.5t-48 118.5z" />
<glyph unicode="&#xfd;" horiz-adv-x="1357" d="M-68 1171l160 -430q33 -88 69 -165.5t71.5 -154.5t71.5 -154t69 -163l-7 -22l-20 -57.5t-27.5 -80.5t-29.5 -94q-37 -113 -82 -251h252l575 1572h-280l-125 -370q-35 -98 -71 -200.5t-71 -203.5l-268 774h-287zM395 1380l207 367h256l-268 -367h-195z" />
<glyph unicode="&#xfe;" horiz-adv-x="1521" d="M8 -371v1878h256v-520q20 45 53 86t73 72t84 49t85 18q133 0 233.5 -48t167 -131t100.5 -195.5t34 -243.5t-34 -243.5t-100.5 -196.5t-167 -132.5t-233.5 -48.5q-45 0 -88 16.5t-82 44t-70.5 62.5t-54.5 72v-539h-256zM264 547q10 -55 34 -113.5t59.5 -106.5t85.5 -79 t116 -31q78 0 130 33t83 85t43 119.5t12 139.5q0 70 -12 137.5t-43 120.5t-83 85t-130 32q-66 0 -116 -31t-85.5 -80t-59.5 -108.5t-34 -116.5v-86z" />
<glyph unicode="&#xff;" horiz-adv-x="1357" d="M-68 1171l160 -430q33 -88 69 -165.5t71.5 -154.5t71.5 -154t69 -163l-7 -22l-20 -57.5t-27.5 -80.5t-29.5 -94q-37 -113 -82 -251h252l575 1572h-280l-125 -370q-35 -98 -71 -200.5t-71 -203.5l-268 774h-287zM84 1550q0 70 49 120t119 50t120 -50t50 -120t-50 -119 t-120 -49t-119 49.5t-49 118.5zM588 1550q0 70 48 120t118 50q72 0 121 -50t49 -120t-49.5 -119t-120.5 -49q-70 0 -118 49.5t-48 118.5z" />
<glyph unicode="&#x152;" horiz-adv-x="2598" d="M-49 768q0 166 47 311.5t137 254t220 171t296 62.5q51 0 110.5 -12.5t117 -39t107.5 -69.5t87 -105v193h1038v-248h-774v-379h691v-243h-691v-412h774v-246h-1038v191q-39 -61 -91 -105.5t-109.5 -73t-115 -42t-106.5 -13.5q-166 0 -296 63.5t-220 172t-137 256 t-47 313.5zM219 768q0 -109 24.5 -209t77 -179t134 -125t196.5 -46q57 0 121 16.5t121 47t105.5 74.5t74.5 97v641q-25 51 -71 94.5t-103 75t-121.5 49t-126.5 17.5q-113 0 -194.5 -46t-134 -123t-78 -177.5t-25.5 -206.5z" />
<glyph unicode="&#x153;" horiz-adv-x="2363" d="M-61 592q0 131 39.5 244.5t113.5 196.5t178.5 131t233.5 48q135 0 244.5 -54t181.5 -144l2 4q66 92 170 142t229 50q129 0 235.5 -54t172.5 -146q55 -80 82.5 -187.5t27.5 -232.5v-117h-774q6 -51 23.5 -98t47.5 -82t75 -56.5t110 -21.5q96 0 165 34t103 124h271 q-156 -401 -539 -402q-125 0 -230.5 51.5t-170.5 143.5q-72 -94 -179.5 -144.5t-246.5 -50.5q-129 0 -233.5 48.5t-178.5 132.5t-113.5 196.5t-39.5 243.5zM209 592q0 -72 15.5 -139.5t51 -119.5t92 -85t136.5 -33t137 33t92 85t51.5 119.5t16.5 139.5q0 70 -16.5 138.5 t-51.5 120.5t-92 85t-137 33t-136.5 -33t-92 -85t-51 -120.5t-15.5 -138.5zM1075 715h514q-8 45 -25.5 90t-47 81t-75.5 57.5t-110 21.5q-61 0 -106 -22.5t-76 -57.5t-48.5 -80t-25.5 -90z" />
<glyph unicode="&#x178;" d="M-78 1528l295 -479l236 -383v-666h268v666l534 862h-309q-88 -141 -179 -292t-177 -296l-365 588h-303zM176 1868q0 70 49 120t119 50t120 -50t50 -120t-50 -119t-120 -49t-119 49t-49 119zM680 1868q0 70 48 120t118 50q72 0 121 -50t49 -120t-49 -119t-121 -49 q-70 0 -118 49t-48 119z" />
<glyph unicode="&#x2c6;" horiz-adv-x="1245" d="M-57 1452l454 399l455 -397l-111 -129l-344 301q-86 -72 -172 -150.5t-172 -150.5z" />
<glyph unicode="&#x2dc;" horiz-adv-x="1343" d="M-100 1409q10 23 37.5 71t70.5 96t100.5 86t131.5 40q80 2 147.5 -29t114.5 -63q27 -18 49 -37q27 -18 53 -36.5t55 -16.5q43 2 78 32.5t60.5 66.5t40.5 67l14 30l135 -69q-2 -2 -12 -25t-29.5 -55.5t-48.5 -69.5t-66.5 -69.5t-84 -55t-101.5 -24.5h-10 q-78 0 -141.5 31.5t-106.5 60.5q-35 25 -59.5 43t-43 28.5t-35 15.5t-32.5 5q-41 0 -76 -31t-59 -65q-29 -43 -51 -97z" />
<glyph unicode="&#x2000;" horiz-adv-x="1148" />
<glyph unicode="&#x2001;" horiz-adv-x="2296" />
<glyph unicode="&#x2002;" horiz-adv-x="1148" />
<glyph unicode="&#x2003;" horiz-adv-x="2296" />
<glyph unicode="&#x2004;" horiz-adv-x="765" />
<glyph unicode="&#x2005;" horiz-adv-x="574" />
<glyph unicode="&#x2006;" horiz-adv-x="382" />
<glyph unicode="&#x2007;" horiz-adv-x="382" />
<glyph unicode="&#x2008;" horiz-adv-x="287" />
<glyph unicode="&#x2009;" horiz-adv-x="459" />
<glyph unicode="&#x200a;" horiz-adv-x="127" />
<glyph unicode="&#x2010;" horiz-adv-x="1245" d="M8 494v245h838v-245h-51h-787z" />
<glyph unicode="&#x2011;" horiz-adv-x="1245" d="M8 494v245h838v-245h-51h-787z" />
<glyph unicode="&#x2012;" horiz-adv-x="1245" d="M8 494v245h838v-245h-51h-787z" />
<glyph unicode="&#x2013;" horiz-adv-x="1540" d="M6 494v245l1120 -2v-243h-1120z" />
<glyph unicode="&#x2014;" horiz-adv-x="2076" d="M4 494v245l1608 -2v-194l4 -49h-1612z" />
<glyph unicode="&#x2018;" horiz-adv-x="731" d="M12 1575h314l-70 -621h-205z" />
<glyph unicode="&#x2019;" horiz-adv-x="731" d="M12 1575h314l-70 -621h-205z" />
<glyph unicode="&#x201a;" horiz-adv-x="790" d="M-55 -231l157 606h351l-275 -656z" />
<glyph unicode="&#x201c;" horiz-adv-x="1157" d="M8 1575h314l-70 -621h-205zM418 1575h313l-69 -621h-207z" />
<glyph unicode="&#x201d;" horiz-adv-x="1157" d="M8 1575h314l-70 -621h-205zM418 1575h313l-69 -621h-207z" />
<glyph unicode="&#x2022;" horiz-adv-x="798" d="M-18 621q0 86 56 143t142 57q84 0 143.5 -57t59.5 -143t-59.5 -142.5t-143.5 -56.5q-86 0 -142 56.5t-56 142.5z" />
<glyph unicode="&#x2026;" horiz-adv-x="2539" d="M-59 152q0 86 58 143t142 57t142.5 -57t58.5 -143q0 -41 -15.5 -78t-43 -64.5t-64.5 -44t-78 -16.5t-77.5 16.5t-64.5 44t-43 64.5t-15 78zM750 152q0 86 57 143t141 57t144.5 -57t60.5 -143q0 -41 -16.5 -78t-44 -64.5t-65.5 -44t-79 -16.5q-84 0 -141 59.5t-57 143.5z M1561 152q0 86 56 143t142 57q84 0 142.5 -57t58.5 -143q0 -41 -15.5 -78t-43 -64.5t-64.5 -44t-78 -16.5q-86 0 -142 59.5t-56 143.5z" />
<glyph unicode="&#x202f;" horiz-adv-x="459" />
<glyph unicode="&#x2039;" horiz-adv-x="1062" d="M-43 530v166l696 488v-305l-389 -265q98 -66 195.5 -131t193.5 -131v-309z" />
<glyph unicode="&#x203a;" horiz-adv-x="1062" d="M8 43v309l389 262l-104 70q-66 47 -142.5 100.5t-142.5 94.5v305l697 -488v-166z" />
<glyph unicode="&#x205f;" horiz-adv-x="574" />
<glyph unicode="&#x20ac;" horiz-adv-x="1744" d="M-137 418v246h198q-6 49 -6 100q0 20 1 39.5t3 40.5h-196v246h254q41 104 97 190t132 149.5t174 98.5t221 35q213 0 377 -122t262 -382l-276 -2q-29 68 -62.5 116t-76.5 80.5t-97.5 48t-126.5 15.5q-66 0 -113.5 -16.5t-84.5 -47t-67 -72.5t-60 -91h340v-246h-424 q-2 -20 -3 -40t-1 -40q0 -51 6 -100h422v-246h-342q16 -29 43 -60q33 -31 63.5 -59.5t63 -50t70.5 -33.5t87 -12q72 0 126.5 16.5t96.5 48t74.5 80.5t63.5 115l278 -2q-92 -252 -261 -378t-378 -126q-121 0 -217 34t-172 94t-132 145t-97 188h-260z" />
<glyph unicode="&#x25fc;" horiz-adv-x="1167" d="M0 0v1167h1167v-1167h-1167z" />
</font>
</defs>
</svg>
