<?xml version="1.0" standalone="no"?>
<!DOCTYPE svg PUBLIC "-//W3C//DTD SVG 20010904//EN"
 "http://www.w3.org/TR/2001/REC-SVG-20010904/DTD/svg10.dtd">
<svg version="1.0" xmlns="http://www.w3.org/2000/svg"
 width="16.000000pt" height="16.000000pt" viewBox="0 0 16.000000 16.000000"
 preserveAspectRatio="xMidYMid meet">
<metadata>
Created by potrace 1.11, written by Peter Selinger 2001-2013
</metadata>
<g transform="translate(0.000000,16.000000) scale(0.003200,-0.003200)"
fill="#000000" stroke="none">
<path d="M880 4982 c0 -10 14 -58 31 -106 26 -74 33 -117 44 -260 12 -146 77
-640 90 -686 3 -8 20 -114 39 -235 19 -121 48 -279 65 -351 16 -71 50 -251 76
-400 76 -450 117 -607 215 -838 64 -150 88 -189 190 -306 31 -36 83 -100 115
-143 37 -51 99 -113 176 -178 65 -54 121 -99 125 -99 9 0 92 -62 179 -134 45
-37 95 -69 127 -80 29 -10 73 -35 98 -56 25 -20 74 -56 110 -80 55 -37 102
-77 211 -175 8 -8 31 -20 50 -26 19 -7 49 -25 68 -41 24 -21 36 -26 41 -18 4
7 12 11 18 9 15 -6 111 -129 143 -185 18 -33 40 -56 59 -64 25 -10 34 -25 57
-92 21 -60 34 -83 54 -93 16 -9 29 -26 32 -45 4 -18 16 -34 30 -41 19 -9 27
-26 42 -87 10 -42 25 -82 34 -89 9 -6 13 -14 10 -18 -4 -3 6 -19 21 -35 l28
-30 771 0 771 0 0 2500 0 2500 -2060 0 c-1972 0 -2060 -1 -2060 -18z"/>
</g>
</svg>
