<?xml version="1.0" encoding="utf-8"?>
<!-- Generator: Adobe Illustrator 17.0.0, SVG Export Plug-In . SVG Version: 6.00 Build 0)  -->
<!DOCTYPE svg PUBLIC "-//W3C//DTD SVG 1.1//EN" "http://www.w3.org/Graphics/SVG/1.1/DTD/svg11.dtd" [
	<!ENTITY ns_extend "http://ns.adobe.com/Extensibility/1.0/">
	<!ENTITY ns_ai "http://ns.adobe.com/AdobeIllustrator/10.0/">
	<!ENTITY ns_graphs "http://ns.adobe.com/Graphs/1.0/">
	<!ENTITY ns_vars "http://ns.adobe.com/Variables/1.0/">
	<!ENTITY ns_imrep "http://ns.adobe.com/ImageReplacement/1.0/">
	<!ENTITY ns_sfw "http://ns.adobe.com/SaveForWeb/1.0/">
	<!ENTITY ns_custom "http://ns.adobe.com/GenericCustomNamespace/1.0/">
	<!ENTITY ns_adobe_xpath "http://ns.adobe.com/XPath/1.0/">
]>
<svg version="1.1" id="Layer_1" xmlns:x="&ns_extend;" xmlns:i="&ns_ai;" xmlns:graph="&ns_graphs;"
	 xmlns="http://www.w3.org/2000/svg" xmlns:xlink="http://www.w3.org/1999/xlink" x="0px" y="0px" width="130px" height="18px"
	 viewBox="0 0 130 18" enable-background="new 0 0 130 18" xml:space="preserve">
<metadata>
	<sfw  xmlns="&ns_sfw;">
		<slices></slices>
		<sliceSourceBounds  height="12.755" width="99.649" bottomLeftOrigin="true" x="370.851" y="291.795"></sliceSourceBounds>
	</sfw>
</metadata>
<path fill="#E4DCC9" d="M113.5,2.7c-0.4,0-0.7-0.1-1.1-0.1c0.2,0,0.4,0.1,0.5,0.2C113.2,2.9,113.3,2.8,113.5,2.7z"/>
<path fill="#E4DCC9" d="M111.4,2.5c-0.1,0-0.1,0-0.2,0s-0.1,0-0.2,0H111.4z"/>
<path fill="#E4DCC9" d="M109.6,2.6c0.3,0,0.7,0,1,0C110.2,2.6,109.9,2.5,109.6,2.6z"/>
<path fill="#E4DCC9" d="M111.1,2.8c-0.1-0.1-0.2-0.2,0-0.2l0,0c-0.2,0-0.4,0-0.6,0.1C110.7,2.7,110.9,2.7,111.1,2.8z"/>
<path fill="#E4DCC9" d="M111.1,2.8c0.1,0.1,0.3,0.2,0.3,0.2C111.3,2.9,111.2,2.9,111.1,2.8z"/>
<path fill="#E4DCC9" d="M110.5,4.8c-0.2,0.1-0.1-0.5-0.5-0.4c-0.9,0.1-1.6,0.4-2.5,0.4c-0.4,0.1-0.9-0.5-1.3-0.4
	c-0.9,0.1-3.1,0.9-1.8,0.9c2-0.1,3.3-0.2,5.1-0.2c1.5-0.2,2.9-0.4,4.3-0.6c0.4,0,0.8,0.1,1.2,0.1c-0.5-0.1-1-0.2-1.6-0.3
	C112.6,4,111.7,4.7,110.5,4.8z"/>
<path fill="#FFFFFF" d="M105.967,2.15c-2.5,0-4.9-0.1-7.1-0.1c-0.2,0.1-0.3,0.2-0.5,0.2c-0.3-0.1-0.5-0.1-0.7-0.2c-0.3,0-0.7,0-1,0
	c-0.1,0-0.2,0-0.4,0.1l0,0c-0.2,0.1-0.1,0.2,0,0.2c0.1,0.1,0.3,0.1,0.4,0.2c-0.1,0-0.2-0.1-0.4-0.2c-0.2-0.1-0.3-0.1-0.5-0.2
	c-0.3,0-0.6,0.1-1,0c0.4-0.1,0.7-0.1,1,0c0.2,0,0.4,0,0.6,0c0.1,0,0.1,0,0.2-0.1c-0.8,0-1.5,0-2.3,0c-0.2,0-0.3,0-0.5,0.1
	c-0.6,0.1-1.1,0.2-1.4-0.1c-0.1,0-0.3,0-0.4,0l0.1,0.1c-0.1,0-0.1,0-0.2-0.1c-0.6,0-1.2,0-1.7,0c-0.4,0.1-0.8,0.3-1.1,0.4
	c0,0-0.3-0.2-0.4-0.3c-0.3,0-0.5,0.1-0.8,0.2c0.3,0.2,0.6,0.3,0.9,0.5c0.4,0.3,0.8-0.6,1.3-0.1c-0.5-0.5-0.9,0.4-1.3,0.1
	c-0.3-0.1-0.6-0.3-0.9-0.5c-0.5,0.1-1.3,0-1.8-0.2c0.7-0.3,1.3-0.1,1.8,0.2c0.3-0.1,0.5-0.2,0.7-0.3c0.1,0.1,0.4,0.3,0.4,0.3
	c0.4-0.1,0.8-0.2,1.1-0.4c-1.1,0-2.3,0-3.4,0c-7.5,0-14.5,0.5-22.3,1c-4.2,0.2-8.3,0.5-12.3,0.7c-3.148,0.157-6.867,0.753-11.6,1.5
	c-3.8,0.6-7.6,1.3-11.8,1.6c-0.8,0.1-1.7,0.2-2.8,0.5c-1,0.3-2.1,0.5-3.2,0.9c-2.2,0.7-4.3,1.6-5.7,2.3c-1.8,1.3-1.8,2.3-1.4,3
	c0.4,0.7,1.2,1,1.3,1c1.5,0.4,2.6,0.3,3.9-0.1c0.7-0.2,1.4-0.4,2.3-0.6s1.9-0.4,3.2-0.4c-1.7,0.1-1.2-0.4,0.1-0.8
	c0.7-0.2,1.6-0.5,2.5-0.6s1.9-0.1,2.8,0c2.5,0.5,5.2,0.1,8-0.6c2.8-0.6,5.8-1.5,8.6-1.6c1.4-0.1,2.9-0.4,4.6-0.6
	c8.8-0.4,16.8-2.2,26-2.6c2.4-0.2,4.6-0.8,6.6-1.2c1.5-0.2,3.1,0.1,4.3,0c1.9-0.1,3.6-0.3,5.2-0.6c-1.8,0.1-3.1,0.3-5,0.5
	c-1.3,0.1,0.9-0.8,1.8-1c0.4-0.1,1,0.5,1.3,0.3c0.8,0,1.6-0.3,2.4-0.5c0.4-0.1,1.167,0.713,1.367,0.713
	c1.2-0.1,1.233-1.213,2.033-1.013c0.6,0.1,1.1,0.2,1.6,0.3c0.3,0,0.6,0.1,1,0c0.2,0,0.4-0.1,0.6-0.1c-0.2-0.2-0.2-0.4-0.3-0.6
	c0.3,0,0.8,0.2,1.1,0.2c-0.3,0-0.8-0.2-1.1-0.2c0.1,0.2,0.1,0.4,0.3,0.6c1.6-0.3,3.4-0.6,5.1-0.8c0,0,0,0,0-0.1c-1,0-1.9,0-3-0.4
	c0.4,0.1,0.4,0.3-0.1,0.3c-0.1-0.1-0.3-0.2-0.4-0.3c0.9-0.2,1.8-0.3,2.6,0.1c0,0,0.4-0.1,0.6-0.2c0.3,0.1,0.3,0.3,0.3,0.4
	c0.2,0,0.4,0,0.6,0C107.167,2.55,105.967,2.15,105.967,2.15z"/>
<path fill="#E4DCC9" d="M95.4,3c0.1,0,0.3,0,0.5-0.1c-0.6,0-1.3,0-1.9,0C94.3,3.2,94.8,3.1,95.4,3z"/>
</svg>
