<?xml version="1.0" standalone="no"?>
<!DOCTYPE svg PUBLIC "-//W3C//DTD SVG 1.1//EN" "http://www.w3.org/Graphics/SVG/1.1/DTD/svg11.dtd" >
<svg xmlns="http://www.w3.org/2000/svg">
<metadata></metadata>
<defs>
<font id="ovarlight" horiz-adv-x="1476" >
<font-face units-per-em="2048" ascent="1536" descent="-512" />
<missing-glyph horiz-adv-x="786" />
<glyph horiz-adv-x="0" />
<glyph unicode="&#xd;" horiz-adv-x="1468" />
<glyph horiz-adv-x="0" />
<glyph horiz-adv-x="0" />
<glyph unicode=" "  horiz-adv-x="786" />
<glyph unicode="&#x09;" horiz-adv-x="786" />
<glyph unicode="&#xa0;" horiz-adv-x="786" />
<glyph unicode="!" horiz-adv-x="573" d="M-20 76q0 57 39.5 97t97.5 40q55 0 95 -40t40 -97q0 -55 -40 -95t-95 -40q-57 0 -97 39.5t-40 95.5zM33 1540h168q-14 -260 -29.5 -507t-30.5 -509h-51q-14 262 -28.5 510t-28.5 506z" />
<glyph unicode="&#x22;" horiz-adv-x="1126" d="M25 1589h161l-28 -256q-8 -66 -14.5 -130t-12.5 -130h-63zM489 1589h158l-31 -256q-8 -66 -14 -130t-12 -130h-64z" />
<glyph unicode="#" horiz-adv-x="1744" d="M-41 403v91h279l90 522h-267v90h281l74 434h98l-72 -434h566l73 434h99l-76 -434h252v-90h-266l-91 -522h254v-91h-268l-72 -403h-96l68 403h-566q-14 -94 -32.5 -200.5t-34.5 -202.5h-98l67 403h-262zM334 494h567l88 522h-565z" />
<glyph unicode="$" horiz-adv-x="1343" d="M-29 381h121q6 -59 42 -113.5t89 -97.5t118 -72.5t132 -40.5v686q-104 39 -191 77t-148.5 87t-96.5 113.5t-35 155.5q0 68 29.5 136t88 125.5t147.5 97.5t206 46v201h31v-201q98 -6 180 -40t143.5 -86t98.5 -119.5t45 -141.5h-123q-6 61 -38 111.5t-79 87.5t-106.5 59.5 t-120.5 30.5v-633q78 -29 166 -64.5t161.5 -87t123 -123.5t49.5 -176q0 -70 -30 -143.5t-91.5 -135t-155.5 -104.5t-223 -49v-254h-31v250q-109 8 -198 47t-153.5 96.5t-103 129t-47.5 145.5zM113 1176q0 -66 25.5 -112t71.5 -81t112.5 -63.5t150.5 -59.5v621 q-84 -8 -150.5 -38t-112.5 -72t-71.5 -93t-25.5 -102zM504 84l22 -23q78 6 144.5 31t115 69t76 104.5t27.5 135.5q0 104 -104.5 184.5t-280.5 149.5v-651z" />
<glyph unicode="%" horiz-adv-x="1576" d="M-29 1247q0 68 21.5 126.5t58.5 101.5t87.5 68.5t107.5 25.5q55 0 104 -25.5t86 -68.5t58.5 -101.5t21.5 -126.5q0 -66 -21.5 -124t-58.5 -102t-86 -69.5t-104 -25.5q-57 0 -107.5 25.5t-87.5 69.5t-58.5 102.5t-21.5 123.5zM55 1247q0 -47 15.5 -92t41 -80t60.5 -55.5 t74 -20.5t73.5 20.5t60.5 55.5t40 80t14 92t-14 92t-40 80t-60.5 55.5t-73.5 20.5t-74 -20.5t-60.5 -55.5t-41 -80t-15.5 -92zM268 0l668 1540h94q-170 -389 -338 -770t-334 -770h-90zM856 295q0 68 21.5 126t58.5 101t87 68.5t105 25.5t105.5 -25.5t88.5 -68.5t59.5 -101.5 t21.5 -125.5q0 -66 -21.5 -124t-59.5 -101t-88 -69t-106 -26q-55 0 -105 26t-87 69t-58.5 101t-21.5 124zM940 295q0 -49 15.5 -93t41 -78t60.5 -54.5t71 -20.5q39 0 74 20.5t61.5 54.5t42 78t15.5 93t-15.5 94t-42 80t-61.5 55.5t-74 20.5q-37 0 -71.5 -20.5t-60 -55.5 t-41 -80t-15.5 -94z" />
<glyph unicode="&#x26;" horiz-adv-x="1468" d="M-63 444q0 78 23.5 150t65.5 136.5t99 120.5t123 99q-59 82 -96 162t-41 139q-4 72 17.5 136.5t64.5 111.5q45 49 103 72.5t124 23.5q70 0 127 -23.5t96 -66.5t57.5 -103.5t10.5 -131.5q-14 -92 -72.5 -164t-181.5 -133l-62 -41q125 -154 236.5 -318.5t238.5 -332.5 q53 100 80 218.5t31 237.5h100q-6 -162 -41.5 -302t-99.5 -238l154 -199h-140q-10 10 -22 27q-12 14 -29.5 36.5t-44.5 55.5q-92 -86 -192.5 -127t-194.5 -41q-119 0 -217 35.5t-169 101.5t-109.5 157t-38.5 201zM51 444q0 -178 111.5 -282.5t308.5 -104.5q176 0 324 146 q-27 31 -60 77t-87 121.5t-137 189.5t-206 281q-61 -41 -109.5 -92t-80 -107.5t-48 -114.5t-16.5 -114zM219 1260q4 -41 34 -110t91 -151q16 10 39 23.5t39 24.5q100 61 142 121.5t50 115.5q2 47 -8 90t-33.5 75t-61.5 51.5t-91 19.5q-47 0 -88 -17.5t-68.5 -50.5t-40 -82 t-4.5 -110z" />
<glyph unicode="'" horiz-adv-x="700" d="M35 1589h158l-31 -256q-8 -66 -14.5 -130t-12.5 -130h-63z" />
<glyph unicode="(" horiz-adv-x="669" d="M-23 551q0 166 18.5 316.5t50.5 279.5t74 235.5t89 184.5h65q-39 -76 -76.5 -172.5t-66.5 -220t-47 -278.5t-18 -347q0 -190 18 -345t47 -280t67 -223t76 -174h-65q-100 156 -166 418t-66 606z" />
<glyph unicode=")" horiz-adv-x="669" d="M-23 -473q39 76 77 174t67 223t47 279.5t18 345.5q0 193 -18 347.5t-47 278t-67 220t-77 172.5h66q47 -78 89 -184.5t74 -235.5t50 -279.5t18 -316.5q0 -344 -65.5 -606t-165.5 -418h-66z" />
<glyph unicode="*" horiz-adv-x="1230" d="M-29 1251q10 29 19.5 48.5t19.5 43.5l381 -194l-43 450h107l-45 -450q86 43 188 96t190 98l39 -90l-413 -127l325 -317l-65 -64l-275 355l-272 -357l-68 66l330 317q-72 18 -174 50t-244 75z" />
<glyph unicode="+" horiz-adv-x="1327" d="M-49 565v99h428v411h108v-411h428v-99h-428v-415h-108v415h-428z" />
<glyph unicode="," horiz-adv-x="759" d="M-31 -283l142 525h186q-61 -141 -116.5 -273.5t-117.5 -273.5q-23 4 -39 8t-38 10q-8 0 -17 4z" />
<glyph unicode="-" horiz-adv-x="1214" d="M23 557v96h761v-96h-761z" />
<glyph unicode="." horiz-adv-x="768" d="M98 80q0 57 40 97t95 40t96.5 -40t41.5 -97q0 -55 -41 -95t-97 -40q-55 0 -95 40t-40 95z" />
<glyph unicode="/" horiz-adv-x="1081" d="M-53 0l667 1540h95q-170 -389 -338 -770t-334 -770h-90z" />
<glyph unicode="0" horiz-adv-x="1429" d="M-27 760q0 186 42 336.5t116 257t172 164t209 57.5t208 -55.5t171 -160t116 -253t42 -334.5t-42 -334.5t-116 -253t-171 -160t-208 -55.5t-209 54.5t-172 156t-116 247.5t-42 333zM82 760q0 -152 30.5 -279t88 -219t136.5 -143t175 -51q51 0 95 14t80 37.5t64.5 53.5 t49.5 58q66 96 103.5 237.5t37.5 303.5t-38 303.5t-103 235.5q-20 29 -49 58.5t-65 54t-80 40t-95 15.5t-95 -16.5t-81 -41t-64.5 -55.5t-48.5 -59q-70 -98 -105.5 -241.5t-35.5 -305.5z" />
<glyph unicode="1" horiz-adv-x="782" d="M-29 1083v121q53 6 102.5 31t88.5 66.5t64.5 101t29.5 133.5l111 4v-1540h-111v1284q-61 -80 -132 -135t-153 -66z" />
<glyph unicode="2" horiz-adv-x="1349" d="M14 1118q6 80 44 159t87 140q61 59 150.5 100.5t175.5 41.5q106 0 189 -36t140.5 -93.5t88.5 -132t31 -150.5q0 -70 -25 -133.5t-66 -119.5t-93 -103t-105 -84q-90 -61 -179.5 -128t-161 -142t-116.5 -159.5t-45 -179.5h789v-98h-898v131q0 90 42 171t115 158t171 150.5 t209 151.5q43 25 84 57.5t76 73.5t62.5 90t39.5 111q14 63 -2 130.5t-60 123t-114 90.5t-162 35q-76 0 -140.5 -29t-113.5 -77t-78.5 -112.5t-35.5 -136.5h-99z" />
<glyph unicode="3" horiz-adv-x="1267" d="M-43 379h115q10 -141 105 -229.5t265 -88.5q82 0 151 27t116 75t73.5 111.5t26.5 137.5q0 111 -44 176t-107.5 101t-133 47.5t-121.5 13.5v84q51 4 118 23.5t124 59t97 102t40 155.5q0 66 -25.5 123t-72.5 99t-111.5 66.5t-142.5 24.5q-74 0 -135.5 -19.5t-105.5 -55.5 t-70.5 -86t-30.5 -112h-102q6 82 39.5 147.5t92 112t138.5 71t174 24.5q98 0 181 -30t143.5 -82t95.5 -124.5t35 -158.5q0 -76 -23.5 -137.5t-62.5 -108.5t-91.5 -79t-109.5 -48q68 -10 126 -43t103 -83t71 -116.5t26 -146.5q0 -94 -36 -174t-100.5 -137.5t-152.5 -90.5 t-193 -33q-223 0 -358 125q-59 53 -91 124t-36 153z" />
<glyph unicode="4" horiz-adv-x="1445" d="M-27 420v102l707 1018h125v-1032h244v-88h-244v-420h-111v420h-721zM74 508h620v917z" />
<glyph unicode="5" horiz-adv-x="1441" d="M0 315h119q49 -106 135 -175.5t231 -69.5q51 0 126 15t143.5 62.5t117 134.5t48.5 228q0 92 -27 169t-77 132t-122.5 86t-167.5 31q-158 0 -250 -50.5t-143 -127.5h-104l172 790h766v-98h-678l-123 -529q78 53 168 83t192 30q113 0 208 -39t163 -107.5t105.5 -162.5 t37.5 -207q0 -121 -37.5 -220.5t-109.5 -170t-174.5 -109.5t-233.5 -39q-117 0 -199.5 32t-140 81t-91.5 110.5t-54 120.5z" />
<glyph unicode="6" horiz-adv-x="1380" d="M-23 489q0 313 138.5 591t394.5 497h143q-80 -59 -154.5 -133t-146.5 -166q-61 -78 -133 -201t-115 -282q39 47 87.5 81.5t96.5 58t94 35t85 11.5q100 0 189 -39t157 -105.5t106.5 -156.5t38.5 -191q0 -102 -38.5 -191t-106.5 -154.5t-157 -104.5t-189 -39 q-102 0 -191.5 39t-155 104.5t-104.5 154.5t-39 191zM84 489q0 -78 30.5 -149.5t83 -124.5t122 -85t147.5 -32q80 0 149.5 32t122 85t82 125t29.5 149q0 80 -29.5 151t-82 125t-122 86t-149.5 32q-78 0 -147.5 -32t-122 -86t-83 -125t-30.5 -151z" />
<glyph unicode="7" horiz-adv-x="1318" d="M23 1446v98h909v-114q-18 -23 -65.5 -91.5t-107 -164t-120.5 -209t-107 -228.5q-37 -96 -61.5 -202.5t-39.5 -208t-22.5 -187.5t-9.5 -139h-106q0 61 7 152.5t23.5 196t43 215t67.5 212.5q33 88 82 182.5t102.5 183.5t104.5 168t92 136h-792z" />
<glyph unicode="8" horiz-adv-x="1343" d="M-4 428q0 129 85 241.5t222 180.5q-104 61 -166.5 150.5t-62.5 187.5q0 80 32.5 151.5t89 126t131 85t158.5 30.5t159 -30.5t132.5 -85t90 -126t32.5 -151.5q0 -49 -15.5 -98.5t-43 -93.5t-65.5 -81.5t-83 -62.5q57 -31 109.5 -76t90.5 -100t60.5 -118.5t22.5 -129.5 q0 -96 -40 -182t-107.5 -149.5t-155.5 -100.5t-187 -37q-98 0 -186 37t-155.5 100.5t-107.5 149.5t-40 182zM100 428q0 -98 39 -168t96.5 -115t125 -66.5t124.5 -21.5t125 21.5t125.5 66.5t95 115t37.5 168q0 90 -34.5 160.5t-90 120t-124 75t-134.5 25.5t-134 -25.5 t-123.5 -75t-91.5 -120t-36 -160.5zM180 1188q0 -59 25.5 -114.5t67.5 -98.5t97.5 -68.5t114.5 -25.5t114.5 25.5t98.5 68.5t69 98t26 115q0 59 -26 112.5t-69 94.5t-98.5 65.5t-114.5 24.5t-114.5 -24.5t-97.5 -65.5t-67.5 -94.5t-25.5 -112.5z" />
<glyph unicode="9" horiz-adv-x="1298" d="M-23 1087q0 100 39 190.5t106.5 156t157 104.5t189.5 39t190.5 -39t156 -104.5t104 -155.5t38.5 -191q0 -313 -138 -590.5t-394 -496.5h-143q80 59 154.5 133t146.5 166q61 78 132.5 201t114.5 282q-41 -47 -88 -81.5t-95 -58.5t-94 -35t-85 -11q-100 0 -189.5 39 t-157 105.5t-106.5 155.5t-39 191zM86 1087q0 -80 29.5 -150.5t82 -124.5t122 -86t149.5 -32q78 0 147.5 32t122 86t83 125t30.5 150q0 78 -30.5 149t-83 125t-122 86t-147.5 32q-80 0 -149.5 -32t-122 -86t-82 -125t-29.5 -149z" />
<glyph unicode=":" horiz-adv-x="768" d="M98 80q0 57 40 97t95 40t96.5 -40t41.5 -97q0 -55 -41 -95t-97 -40q-55 0 -95 40t-40 95zM98 1028q0 57 40 97t95 40t96.5 -40t41.5 -97q0 -55 -41 -95t-97 -40q-55 0 -95 40t-40 95z" />
<glyph unicode=";" horiz-adv-x="759" d="M-31 -283l142 525h186q-61 -141 -116.5 -273.5t-117.5 -273.5q-25 4 -40 8t-37 10q-8 0 -17 4zM55 1028q0 57 40 97t95 40t96.5 -40t41.5 -97q0 -55 -41 -95t-97 -40q-55 0 -95 40t-40 95z" />
<glyph unicode="&#x3c;" horiz-adv-x="1402" d="M23 561v101l972 428v-125l-864 -353l864 -352v-125z" />
<glyph unicode="=" horiz-adv-x="1435" d="M20 256v98h1004v-98h-1004zM20 862v99h1004v-99h-1004z" />
<glyph unicode="&#x3e;" horiz-adv-x="1402" d="M23 135v125l866 352l-866 353v125l972 -428v-101z" />
<glyph unicode="?" horiz-adv-x="1525" d="M221 1208q6 82 42 150.5t95.5 118t139.5 77t174 27.5t176 -30.5t141.5 -84t93 -128t33.5 -162.5q0 -68 -16.5 -118t-44 -90t-61 -72t-70.5 -60q-66 -59 -110 -99.5t-70.5 -72t-38 -59t-11.5 -60.5v-33h-88v33q0 49 17.5 90t50.5 83t82 87t114 100q31 29 56.5 53.5t44 54 t28 68.5t9.5 95q0 66 -25 124t-69 101t-106.5 68.5t-135.5 25.5q-152 0 -237 -81t-95 -206h-119zM522 78q0 55 40 95t97 40t96.5 -40t39.5 -95q0 -57 -39 -97t-97 -40q-57 0 -97 39.5t-40 97.5z" />
<glyph unicode="@" horiz-adv-x="1910" d="M-53 766q0 170 64.5 319.5t176 261t261 176t319.5 64.5q166 0 308.5 -55t246.5 -153.5t163.5 -232.5t59.5 -290q0 -102 -33.5 -192.5t-91 -160t-134.5 -113.5t-165 -56q-55 -8 -82.5 5t-44.5 32q-10 12 -15 28.5t-9 63.5q-61 -78 -155.5 -118t-215.5 -40q-66 0 -121 22.5 t-90 63.5q-53 70 -39 156q18 104 113.5 172.5t236.5 91.5q98 14 189.5 22.5t142.5 12.5l10 80v-4q14 49 2 91t-38 74q-31 39 -78 57.5t-101 18.5q-47 0 -88 -14t-74.5 -34.5t-58 -44t-37.5 -42.5h-82q10 39 43 77t81 66.5t108.5 46t128.5 17.5q72 0 132 -25.5t99 -72.5 q55 -66 56 -148q0 -25 -7 -57l-65 -377l-12 -80q-4 -16 1 -29.5t13 -21.5q8 -6 20.5 -11t51.5 -3q78 6 137 54t101 115.5t63.5 142.5t23.5 134q4 143 -47 264t-143 208t-221 135t-283 48t-288 -58t-234.5 -159.5t-157.5 -237.5t-57 -290t57 -290t157.5 -237.5t234.5 -161 t288 -59.5q59 0 132 10.5t146.5 29t142 45t120.5 61.5q12 -16 25.5 -28.5t23.5 -24.5q-55 -41 -130 -71t-155 -51.5t-159.5 -31.5t-145.5 -10q-170 0 -319.5 64.5t-261 175t-176 260t-64.5 319.5zM442 555q-4 -25 4.5 -56.5t22.5 -54.5q25 -29 65.5 -45t88.5 -16q47 0 99 10 t101 35t91 63.5t71 96.5l33 188q-25 -2 -64 -6t-84 -9t-93 -11.5t-93 -14.5q-96 -16 -160.5 -56t-81.5 -124z" />
<glyph unicode="A" horiz-adv-x="1439" d="M-80 0q141 389 276.5 769t276.5 769h113l553 -1538h-121l-150 438h-665q-35 -106 -74 -219t-76 -219h-133zM238 535h587l-290 886z" />
<glyph unicode="B" horiz-adv-x="1540" d="M18 0v1540h644q94 0 166.5 -31.5t124 -86t78 -127t26.5 -154.5q0 -98 -40 -185.5t-108 -130.5q57 -23 103.5 -64.5t78 -96t49 -117t17.5 -123.5q0 -88 -33.5 -165t-92 -134t-136.5 -91t-166 -34h-711zM139 96h590q66 0 124 27t102 72t70 104t26 125t-25 126t-68 106 t-101 73t-126 27h-592v-660zM139 852h523q59 0 111 22.5t91 61.5t61.5 92t22.5 113q0 59 -19.5 113.5t-56 96.5t-90 67.5t-120.5 25.5h-523v-592z" />
<glyph unicode="C" horiz-adv-x="1714" d="M-84 766q0 168 54.5 315.5t152.5 258t236.5 174t306.5 63.5q100 0 195 -29.5t179 -87t152 -138.5t115 -185h-121q-37 70 -90.5 132t-119 108t-144 73t-166.5 27q-150 0 -265.5 -58.5t-195.5 -157t-121 -226.5t-41 -269t42 -269t122 -226.5t196 -156t263 -57.5 q172 0 306 91.5t214 244.5h123q-45 -100 -114 -181t-153 -138.5t-180 -88t-196 -30.5q-168 0 -306.5 63.5t-236.5 174t-152.5 258t-54.5 315.5z" />
<glyph unicode="D" horiz-adv-x="1667" d="M18 0v1540h580q150 0 273.5 -56.5t214 -158.5t140.5 -244.5t50 -312.5t-50 -311.5t-140.5 -242.5t-214 -157.5t-273.5 -56.5h-580zM137 96h461q147 0 253.5 55.5t174.5 148.5t100.5 214t32.5 254t-32.5 255t-100.5 216t-174.5 149.5t-253.5 55.5h-461v-1348z" />
<glyph unicode="E" horiz-adv-x="1413" d="M20 0v1540h990v-98h-871v-602h776v-101h-776v-641h871v-98h-990z" />
<glyph unicode="F" horiz-adv-x="1404" d="M20 0v1540h990v-98h-871v-602h721v-101h-721v-739h-119z" />
<glyph unicode="G" horiz-adv-x="1740" d="M-70 766q0 168 54.5 315.5t153 258t235.5 174t305 63.5q236 0 402.5 -115.5t258.5 -324.5h-118q-23 43 -45.5 76.5t-51.5 66.5q-170 201 -446 201q-274 0 -451 -201q-88 -98 -135 -232.5t-47 -281.5t47 -280.5t135 -231.5q176 -201 451 -201q70 0 140.5 15.5t144 56.5 t147.5 113.5t150 187.5v223h-574v101h682v-750h-108v293q-111 -180 -259.5 -259t-322.5 -79q-168 0 -305 63.5t-235.5 174t-153 258t-54.5 315.5z" />
<glyph unicode="H" horiz-adv-x="1542" d="M18 -2v1540h121v-719h871v719h120v-1540h-120v723h-871v-723h-121z" />
<glyph unicode="I" horiz-adv-x="583" d="M31 0v1540h116v-1540h-116z" />
<glyph unicode="J" horiz-adv-x="1216" d="M-12 346h121q2 -53 19 -105.5t51 -93.5t87 -66.5t127 -25.5t127 21.5t88 59.5t51.5 89t16.5 111v1204h119v-1204q0 -80 -27 -148.5t-79 -120t-127 -81t-169 -29.5q-100 0 -174 33t-124 86t-76.5 123.5t-30.5 146.5z" />
<glyph unicode="K" horiz-adv-x="1366" d="M20 0v1540h119v-827l686 827h150l-574 -668l676 -872h-155l-590 795l-193 -222v-573h-119z" />
<glyph unicode="L" horiz-adv-x="1282" d="M20 0v1540h130v-1442h829v-98h-959z" />
<glyph unicode="M" horiz-adv-x="1865" d="M14 0v1540h136l593 -1440l588 1440h139v-1540h-114v1192v98l-541 -1290h-145l-537 1290v-98v-1192h-119z" />
<glyph unicode="N" horiz-adv-x="1622" d="M18 0v1540h144l936 -1364v1364h119v-1540h-130l-952 1386v-1386h-117z" />
<glyph unicode="O" horiz-adv-x="1785" d="M-70 766q0 168 54.5 315.5t154 258t237.5 174t306 63.5q166 0 303 -63.5t233.5 -174t149.5 -258t53 -315.5t-53 -315.5t-149.5 -258t-233.5 -174t-303 -63.5q-168 0 -306 63.5t-237.5 174t-154 258t-54.5 315.5zM59 766q0 -139 45.5 -266t127 -224.5t196.5 -156 t254 -58.5q135 0 247.5 58.5t193.5 157t125 225.5t44 264q0 135 -44 262t-124 225.5t-192.5 157.5t-249.5 59q-133 0 -246.5 -58t-196.5 -155.5t-131.5 -225.5t-48.5 -265z" />
<glyph unicode="P" horiz-adv-x="1361" d="M20 0v1540h543q92 0 172 -35t139.5 -95t94.5 -141t35 -171q0 -92 -35 -172t-94.5 -140.5t-139.5 -95.5t-172 -35h-424v-655h-119zM139 752h424q70 0 131.5 27.5t106.5 75.5t70.5 110.5t25.5 132.5q0 68 -25.5 130t-70.5 110t-106.5 76t-131.5 28h-424v-690z" />
<glyph unicode="Q" horiz-adv-x="1751" d="M-90 766q0 168 54 315.5t152.5 258t237 174t305.5 63.5q168 0 304.5 -63.5t232.5 -174t149.5 -258t53.5 -315.5q0 -158 -50.5 -303.5t-144.5 -261.5l88 -88l88 -88q-12 -14 -18 -20.5t-19 -18.5l-34 -39l-181 178q-98 -80 -215.5 -125t-253.5 -45q-168 0 -306 63.5 t-236.5 174t-152.5 258t-54 315.5zM27 766q0 -141 44 -269t126 -226.5t198.5 -156t263.5 -57.5q213 0 394 144q-72 70 -150 148.5t-149 150.5q10 12 16 19t16 18q10 10 18.5 20t16.5 21l301 -302q78 111 118 237t40 253q0 131 -41 259t-120 228.5t-194.5 162t-265.5 61.5 q-147 0 -263.5 -58.5t-198.5 -156t-126 -226.5t-44 -270z" />
<glyph unicode="R" horiz-adv-x="1396" d="M18 0v1540h615q90 0 169 -33.5t137 -92t92 -138.5t34 -170q0 -84 -33 -159t-91 -131t-141 -89t-184 -33q66 -59 129.5 -126.5t116.5 -141.5q31 -41 67 -95.5t72.5 -112.5t71.5 -115.5t64 -106.5h-136q-10 18 -32.5 59t-54 93.5t-68.5 109.5t-76 111q-100 133 -188 222 t-183 105h-260v-696h-121zM139 795h494q70 0 129 22.5t102 63.5t66.5 98t23.5 127t-23.5 131t-66.5 106.5t-102.5 72t-128.5 26.5h-494v-647z" />
<glyph unicode="S" horiz-adv-x="1343" d="M-27 381h121q8 -66 47 -122t94.5 -99t122 -67.5t129.5 -24.5q86 0 160 20.5t128 62.5t84 104t30 146q0 55 -31 102.5t-86 89.5t-131 78t-166 68q-100 37 -186 76t-149.5 89t-100.5 115.5t-37 156.5q0 70 30.5 141.5t91 129.5t152 96t211.5 38q100 0 185.5 -30.5t149 -84 t102.5 -123t47 -149.5h-119q-8 68 -43 120t-86 88t-112.5 53.5t-123.5 17.5q-86 0 -154.5 -26t-117.5 -68t-74.5 -95t-25.5 -108q0 -70 30.5 -119t78.5 -83t108.5 -58.5t120.5 -45.5q78 -25 174 -60.5t180 -90.5t140.5 -134t56.5 -186q0 -74 -31 -151.5t-94.5 -141 t-160.5 -103.5t-231 -40q-111 0 -201.5 36t-157.5 94.5t-106.5 134t-48.5 153.5z" />
<glyph unicode="T" horiz-adv-x="1501" d="M-20 1442v98h1136v-98h-512v-1442h-117v1442h-507z" />
<glyph unicode="U" horiz-adv-x="1599" d="M20 637v901h119v-901q0 -98 23.5 -200.5t77 -184.5t142.5 -134t222 -52q150 0 242 52t143 134t67.5 184.5t16.5 200.5v901h117v-901q0 -106 -24.5 -226t-89 -220.5t-179.5 -166t-293 -65.5q-176 0 -288.5 65.5t-178 166t-91.5 220t-26 226.5z" />
<glyph unicode="V" horiz-adv-x="1323" d="M-84 1540h143l469 -1399q117 344 237 701.5t236 697.5h136l-545 -1540h-131z" />
<glyph unicode="W" horiz-adv-x="2084" d="M-84 1540h131l383 -1300l332 1300h156l327 -1300l385 1300h129l-456 -1540h-111l-350 1350l-355 -1350h-114z" />
<glyph unicode="X" horiz-adv-x="1458" d="M-31 0l504 772l-502 768h140l434 -682l436 682h143l-510 -766l506 -774h-139l-436 672l-436 -672h-140z" />
<glyph unicode="Y" d="M-49 1540h127l459 -749l454 749h133l-524 -854v-686h-129v686z" />
<glyph unicode="Z" horiz-adv-x="1425" d="M20 0v121l871 1321h-871v102h990v-125l-873 -1321h873v-98h-990z" />
<glyph unicode="[" horiz-adv-x="606" d="M27 -461v2050h282v-84h-186v-1882h186v-84h-282z" />
<glyph unicode="\" horiz-adv-x="1081" d="M-53 1540h92q113 -258 198 -454.5t150.5 -347t113.5 -260t85 -194.5t65.5 -153t57.5 -131h-93z" />
<glyph unicode="]" horiz-adv-x="606" d="M-53 -377h184v1882h-184v84h280v-2050h-280v84z" />
<glyph unicode="^" horiz-adv-x="1327" d="M-6 946q111 158 211 304.5t209 303.5h92q104 -147 210.5 -303.5t209.5 -304.5h-119l-346 512l-350 -512h-117z" />
<glyph unicode="_" horiz-adv-x="1517" d="M12 -139l1630 -2v-103l-1630 8v97z" />
<glyph unicode="`" horiz-adv-x="849" d="M57 1776h168l166 -303h-112z" />
<glyph unicode="a" horiz-adv-x="1366" d="M-14 293q0 78 32.5 137t88 102t129 71t157.5 42q68 8 134.5 16.5t125 14.5t107.5 10t82 6v115q0 72 -29 131t-77 101t-111.5 65.5t-132.5 23.5q-66 0 -120.5 -18t-96.5 -46t-69.5 -60.5t-37.5 -59.5h-113q8 49 46 97.5t95.5 88t133.5 64.5t162 25q92 0 176 -30t146.5 -84 t100 -130t37.5 -168v-621q0 -41 24.5 -64.5t61.5 -23.5h13v-100h-13q-76 0 -129 56.5t-57 135.5q-25 -49 -70 -91t-104.5 -72.5t-133 -48t-157.5 -17.5q-78 0 -150.5 24.5t-128 68.5t-89 105.5t-33.5 133.5zM104 293q0 -53 24 -95t62.5 -73t90 -47.5t106.5 -16.5 q76 0 146.5 17.5t131 52.5t106.5 87t71 124v258q-39 -4 -92.5 -9t-114 -12.5t-120.5 -16.5t-116 -19q-59 -10 -112.5 -28.5t-94 -48.5t-64.5 -72t-24 -101z" />
<glyph unicode="b" horiz-adv-x="1468" d="M18 0v1556h111v-618q37 80 85 134t103.5 86t117 45.5t122.5 13.5q129 0 228.5 -48.5t167 -133.5t102.5 -198.5t35 -244.5t-35 -245t-102.5 -197.5t-167 -132t-228.5 -48.5q-57 0 -118.5 14.5t-120 49.5t-108.5 93t-81 146v-272h-111zM129 535q6 -90 32.5 -175.5t78 -150 t130 -103t187.5 -38.5q119 0 196.5 46t124 119.5t65 168t18.5 190.5q0 98 -18.5 192.5t-65 169t-124 119.5t-196.5 45q-109 0 -187.5 -39t-130 -104.5t-78 -149.5t-32.5 -174v-116z" />
<glyph unicode="c" horiz-adv-x="1339" d="M-20 594q0 131 32.5 244.5t97 197.5t163 132.5t227.5 48.5q82 0 148.5 -19.5t119.5 -55.5t94 -87t72 -115h-135q-25 39 -52.5 71.5t-63.5 57.5t-80 39t-103 14q-119 0 -196 -46t-122 -119.5t-62.5 -169t-17.5 -193.5q0 -96 17.5 -189.5t62.5 -167t122 -118.5t196 -45 q57 0 102 14t81 38t63.5 55.5t52.5 66.5h135q-66 -123 -169 -199t-265 -76q-129 0 -227.5 48.5t-163 132.5t-97 196.5t-32.5 243.5z" />
<glyph unicode="d" horiz-adv-x="1468" d="M-33 592q0 131 34 244.5t101.5 198.5t167 133.5t228.5 48.5q63 0 125.5 -15.5t120 -48.5t104.5 -86t80 -129v618h112v-1556h-112v272q-33 -84 -83 -141t-108.5 -93t-121 -52.5t-117.5 -16.5q-129 0 -228.5 48.5t-167 132t-101.5 197.5t-34 245zM96 592q0 -96 18.5 -190.5 t64.5 -168t123 -119.5t196 -46q109 0 187.5 38.5t130.5 103t79 149.5t33 176v116q-6 90 -33 174t-79 149.5t-131 104.5t-187 39q-119 0 -196 -45t-123 -119.5t-64.5 -169t-18.5 -192.5z" />
<glyph unicode="e" horiz-adv-x="1388" d="M-25 590q0 133 28 242.5t83 189.5q66 94 169 142t226 48t225.5 -48t167.5 -142q57 -78 86 -187.5t29 -244.5v-43h-905q6 -86 28.5 -172t67.5 -154.5t119 -110.5t182 -42q127 0 221.5 43t145.5 137h117q-63 -141 -185.5 -210t-298.5 -69q-123 0 -226 49.5t-169 141.5 q-53 80 -82 190.5t-29 239.5zM84 645h795q-6 76 -29 159t-69 151.5t-119.5 113.5t-180.5 45q-109 0 -181.5 -45t-118.5 -113.5t-68.5 -151.5t-28.5 -159z" />
<glyph unicode="f" horiz-adv-x="890" d="M-53 1071v100h190v119q0 172 79 238.5t230 66.5q23 0 46.5 -1t48.5 -3v-92h-34q-58 0 -101 -5q-56 -7 -91.5 -28.5t-51 -63.5t-15.5 -112v-119h293v-100h-293v-1071h-111v1071h-190z" />
<glyph unicode="g" horiz-adv-x="1480" d="M-14 625q0 123 34.5 230.5t101 186t163 124.5t219.5 46q70 0 137.5 -7t127.5 -30.5t110.5 -67.5t85.5 -120v187h108v-1205q0 -123 -42 -217t-115.5 -157.5t-172 -96.5t-211.5 -33q-162 0 -291.5 80t-195.5 228h123q59 -98 155.5 -153.5t208.5 -55.5q92 0 171 25.5 t137.5 75.5t91.5 126t33 178v301v23q-25 -66 -74 -117t-111.5 -85t-134.5 -51t-141 -17q-123 0 -219.5 47t-163 129t-101 191.5t-34.5 234.5zM104 625q0 -156 45.5 -254.5t107.5 -153.5t131 -75.5t116 -20.5t124 14.5t150.5 65.5t126.5 151.5t53 272.5q0 115 -25.5 195.5 t-65.5 135t-90 86t-100 48t-96 20.5t-77 4t-73 -8t-86 -27.5t-87 -55.5t-78 -90t-55.5 -130t-20.5 -178z" />
<glyph unicode="h" horiz-adv-x="1441" d="M18 0v1559h121v-660q23 84 68 144.5t102.5 98.5t122 55t127.5 17q106 0 190.5 -30.5t142.5 -97t89 -172t31 -255.5v-661h-121v629q0 111 -19.5 202t-61.5 157.5t-108.5 103t-158.5 36.5q-100 0 -176 -56t-126.5 -145t-76 -201t-25.5 -220v-504h-121z" />
<glyph unicode="i" horiz-adv-x="585" d="M-27 1581q0 47 35 82t82 35q49 0 84 -35t35 -82t-35 -82t-84 -35q-47 0 -82 35t-35 82zM31 0v1171h114v-1171h-114z" />
<glyph unicode="j" horiz-adv-x="745" d="M-147 -416q104 2 169.5 54.5t65.5 191.5v1341h109v-1341q0 -86 -27 -149.5t-73 -106.5t-109.5 -64.5t-134.5 -25.5v100zM25 1581q0 47 34.5 82t81.5 35q49 0 84 -35t35 -82t-35 -82t-84 -35q-47 0 -81.5 35t-34.5 82z" />
<glyph unicode="k" horiz-adv-x="1228" d="M18 0v1556h111v-1042l569 657h144l-420 -471q129 -176 256 -349t256 -351q-45 -2 -68.5 -4t-66.5 -4l-443 639l-227 -254v-377h-111z" />
<glyph unicode="l" horiz-adv-x="577" d="M31 0v1556h110v-1556h-110z" />
<glyph unicode="m" horiz-adv-x="1927" d="M12 0v1188h121v-248q25 80 64 133t84 85t94 45.5t94 13.5q74 0 125 -12.5t90 -44.5t69.5 -86t59.5 -138q27 86 64.5 141.5t85 86t102 42t115.5 11.5q102 0 172.5 -34t113.5 -98.5t62.5 -162t19.5 -222.5v-700h-121v670q0 86 -6 168t-32.5 147.5t-82 105t-151.5 39.5 q-100 0 -161.5 -49t-95.5 -133t-45 -197.5t-11 -244.5v-506h-121v692q0 76 -6 154t-33 141.5t-82 103t-151 39.5q-100 0 -162 -56t-95.5 -146t-46 -202t-12.5 -220v-506h-121z" />
<glyph unicode="n" horiz-adv-x="1441" d="M18 0v1186h117v-305v-4q18 90 65.5 154.5t107 105.5t128 60.5t129.5 19.5q106 0 192.5 -31t148 -97.5t94 -172t32.5 -254.5v-662h-125v629q0 111 -22.5 202t-67.5 156.5t-114.5 102t-161.5 36.5q-98 0 -174 -56t-127.5 -145t-78 -200t-26.5 -219v-506h-117z" />
<glyph unicode="o" d="M-29 592q0 131 39 244.5t112 197.5t177.5 132t235.5 48t234 -48t176 -132t112 -197.5t39 -244.5t-39 -245t-112 -199t-176 -133t-234 -48t-235.5 48t-177.5 133t-112 199t-39 245zM102 592q0 -98 30 -190.5t85 -165t135 -116.5t183 -44q98 0 177 44t136 116.5t88 165 t31 190.5t-30 190t-86 165t-136 117t-180 44q-102 0 -182.5 -44t-135.5 -117t-85 -165t-30 -190z" />
<glyph unicode="p" horiz-adv-x="1425" d="M20 -430v1614h109v-273q27 86 76 144.5t108.5 94.5t124 51.5t119.5 15.5q129 0 228.5 -48.5t167 -133.5t102.5 -198.5t35 -244.5t-35 -245t-102.5 -197.5t-167 -132t-228.5 -48.5q-63 0 -124.5 15.5t-118 49.5t-103.5 86t-82 128v-678h-109zM129 535q6 -90 32.5 -175.5 t78 -150t130 -103t187.5 -38.5q119 0 196.5 46t124 119.5t65 168t18.5 190.5q0 98 -18.5 192.5t-65 169t-124 119.5t-196.5 45q-109 0 -187.5 -39t-130 -104.5t-78 -149.5t-32.5 -174v-116z" />
<glyph unicode="q" horiz-adv-x="1425" d="M-29 592q0 131 34 244.5t101.5 198.5t167 133.5t228.5 48.5q55 0 115.5 -13.5t119 -48.5t109.5 -94.5t86 -149.5v273h112v-1614h-112v680q-41 -84 -90 -138.5t-103.5 -86t-114 -44t-122.5 -12.5q-129 0 -228.5 48.5t-167 132t-101.5 197.5t-34 245zM100 592 q0 -96 18.5 -190.5t64.5 -168t123 -119.5t196 -46q109 0 187.5 38.5t130.5 103t79 149.5t33 176v116q-6 90 -33 174t-79 149.5t-131 104.5t-187 39q-119 0 -196 -45t-123 -119.5t-64.5 -169t-18.5 -192.5z" />
<glyph unicode="r" horiz-adv-x="911" d="M25 0v1171h110v-231v-6q16 68 52 117t82 80.5t98.5 47t103.5 15.5q29 0 59.5 -10t57.5 -23v-112q-31 16 -59.5 20t-77.5 4q-102 0 -164 -47t-95.5 -126t-45 -181.5t-11.5 -212.5v-506h-110z" />
<glyph unicode="s" horiz-adv-x="1179" d="M-20 283h110q10 -86 82 -145.5t223 -59.5q84 0 142.5 18.5t95.5 50t53 74.5t16 92q0 41 -16 74t-54 61.5t-99.5 54t-151.5 52.5q-82 20 -151.5 48t-120 68t-79 92t-28.5 120q0 70 25.5 130t75 104t123 69.5t169.5 25.5q170 0 272.5 -73.5t127.5 -220.5h-109 q-14 90 -96 140t-195 50q-141 0 -209.5 -59.5t-68.5 -165.5q0 -49 23.5 -85t60.5 -60.5t82 -42t88 -31.5v2q104 -35 186 -67t139.5 -71t88 -90t30.5 -125q0 -57 -23.5 -116.5t-74.5 -108.5t-130 -80t-192 -31q-195 0 -291 75t-124 231z" />
<glyph unicode="t" horiz-adv-x="923" d="M-25 1071v100h189v334h112v-334h316v-100h-316v-790q0 -119 53.5 -160t178.5 -41h40.5t43.5 2v-90q-31 -4 -59.5 -6t-55.5 -2q-66 0 -123 15t-99 51t-66.5 92.5t-24.5 138.5v790h-189z" />
<glyph unicode="u" horiz-adv-x="1441" d="M18 510v661h123v-628q0 -111 22.5 -202t67.5 -156.5t115 -102.5t162 -37q98 0 174 56.5t127 145.5t77.5 199.5t26.5 219.5v505h119v-1171h-119v313v2q-18 -90 -65 -157.5t-106.5 -112.5t-127 -67.5t-129.5 -22.5q-106 0 -192 30.5t-147.5 97.5t-94.5 172t-33 255z" />
<glyph unicode="v" horiz-adv-x="1327" d="M-37 1171h137l375 -1044q86 256 181.5 522t181.5 522h137q-111 -301 -216.5 -585.5t-215.5 -583.5h-135z" />
<glyph unicode="w" horiz-adv-x="1812" d="M-43 1171h123l309 -1042l279 1042h145l289 -1046q68 252 148.5 522.5t152.5 523.5h123l-352 -1169h-154l-281 1004l-276 -1004h-135q-96 301 -185.5 585.5t-185.5 583.5z" />
<glyph unicode="x" horiz-adv-x="1306" d="M-2 1169h135l348 -528q82 129 171 264t173 264h138l-412 -600l399 -571h-141l-330 494l-329 -494h-142l402 571q-100 145 -205 299t-207 301z" />
<glyph unicode="y" horiz-adv-x="1327" d="M-49 1171h133l387 -1040q43 123 89 254t92 265t92.5 266.5t89.5 254.5h131l-437 -1189l-145 -412h-121q25 72 51 141q23 59 48.5 129t48.5 129q-117 299 -229.5 596t-229.5 606z" />
<glyph unicode="z" horiz-adv-x="1282" d="M20 0v119l756 952h-756v100h873v-120l-750 -953h750v-98h-873z" />
<glyph unicode="{" horiz-adv-x="888" d="M-51 557v43q49 8 93 39t78 72t53.5 89t19.5 93v410q0 39 17 87t55 91t97.5 71.5t141.5 28.5h26v-80h-26q-63 0 -105.5 -24.5t-68 -56t-36.5 -63.5t-11 -46v-467l-2 -6v2q-10 -90 -83 -162t-167 -117q47 -23 90 -52.5t76.5 -65t55 -76.5t28.5 -84v2l2 -6v-480 q0 -12 11 -43.5t36.5 -63.5t67.5 -56.5t106 -24.5h26v-80h-26q-82 0 -141.5 28.5t-97.5 71.5t-55 91.5t-17 87.5v417q0 45 -18.5 92.5t-51.5 88.5t-77 70.5t-93 39.5z" />
<glyph unicode="|" horiz-adv-x="577" d="M31 -426v1966h108v-1966h-108z" />
<glyph unicode="}" horiz-adv-x="888" d="M-51 -389h24q63 0 105.5 24.5t68 56.5t36 63.5t10.5 43.5v480q0 2 1 3t1 3v-4q6 43 29.5 85t58 77.5t76.5 65.5t90 52q-45 20 -86 51t-75 69t-58.5 79t-34.5 82l-2 8v461q0 14 -10.5 46t-36 63.5t-67.5 56t-106 24.5h-24v80h24q82 0 140.5 -28.5t96.5 -71.5t55.5 -91.5 t17.5 -86.5v-410q0 -45 19.5 -92t53 -88t77.5 -71t93 -38l4 -39v-45q-51 -8 -96 -38.5t-78.5 -71.5t-53 -89.5t-19.5 -93.5v-417q0 -39 -17.5 -87.5t-55.5 -91.5t-96.5 -71.5t-140.5 -28.5h-24v80z" />
<glyph unicode="~" horiz-adv-x="1312" d="M-74 559q12 20 37 61.5t62.5 82t90 71.5t117.5 35q78 4 152 -35t174 -110q27 -18 56.5 -35t64.5 -15h2q45 2 82 26t64.5 55.5t48 63.5t30.5 50q16 -10 30.5 -18.5t35.5 -18.5q-14 -27 -41 -68.5t-66 -82.5t-90 -71t-112 -32h-11q-74 4 -134 35t-111.5 66.5t-99.5 64.5 t-97 29q-45 0 -82 -21.5t-64.5 -50.5t-47 -61.5t-27.5 -53.5z" />
<glyph unicode="&#xa1;" horiz-adv-x="573" d="M-23 1042q0 55 40 94.5t96 39.5q57 0 97 -39t40 -95q0 -59 -40 -98t-97 -39q-55 0 -95.5 39t-40.5 98zM31 -424q14 262 28.5 508t28.5 508h51q14 -262 29.5 -509t30.5 -507h-168z" />
<glyph unicode="&#xa3;" horiz-adv-x="1468" d="M-98 684v98h194v10.5t-1 33t-3 70.5t-4 124v40.5t2 41.5q12 102 56 193t112 160t155 109t183 40q152 0 276.5 -71t178.5 -200h-125q-41 82 -134.5 128t-195.5 46q-78 0 -147.5 -32.5t-123 -89t-87 -131t-41.5 -160.5q-2 -16 -2 -38v-38q0 -35 2 -90.5t6 -145.5h608v-98 h-602q2 -109 -16.5 -248t-81.5 -332q53 66 110.5 94.5t102.5 32.5q74 4 137 -25.5t120.5 -66.5t112 -67.5t109.5 -26.5q27 0 56.5 14.5t58 35t55 44t45.5 45.5h110q-18 -31 -49.5 -71.5t-74.5 -79.5t-98.5 -66.5t-119.5 -29.5h-16q-68 0 -126 28.5t-113.5 62t-108.5 61.5 t-111 26q-47 -2 -85 -20.5t-68.5 -43t-53 -52.5t-36.5 -48q-25 16 -39.5 26.5t-36.5 24.5q35 72 57.5 146.5t34.5 157.5t16 176t4 202h-202z" />
<glyph unicode="&#xa5;" d="M-25 1540h129l459 -749l455 749h131l-383 -629h344v-98h-405l-76 -127v-98h481v-96h-481v-492h-131v492h-482v96h482v98l-78 127h-404v98h342z" />
<glyph unicode="&#xa6;" horiz-adv-x="577" d="M31 371h108v-797h-108v797zM31 745v799h108v-799h-108z" />
<glyph unicode="&#xa7;" horiz-adv-x="1366" d="M-33 -84h119q8 -68 46 -126t94.5 -102t123 -70t131.5 -26q86 0 160 23t128 66t84 106t30 145q0 57 -30 106.5t-85 90.5t-131 78t-168 69q-100 37 -187 75t-150.5 88t-99.5 116t-36 156q0 51 20.5 110.5t65.5 120.5q-43 51 -64.5 106.5t-21.5 122.5q0 68 30.5 139.5 t91 130t151.5 96.5t212 38q100 0 185.5 -31t149 -84t102 -123.5t47.5 -148.5h-121q-8 70 -43 123t-85 90t-111.5 56.5t-123.5 19.5q-86 0 -155.5 -27t-117.5 -71t-75 -98t-27 -110q0 -68 25 -114.5t77 -82.5t134 -69t195 -74q74 -29 154.5 -62.5t149 -82.5t112.5 -121 t44 -172q0 -117 -79 -239q37 -49 58 -104.5t21 -119.5q0 -74 -30.5 -150.5t-94 -140t-161 -103.5t-230.5 -40q-111 0 -202 36t-157.5 95.5t-106.5 134t-48 154.5zM106 711q0 -74 27 -121t78 -82t121.5 -62.5t161.5 -60.5l55 -20q57 -23 134 -57t161 -85q39 90 39 170 q0 55 -33 103.5t-88 91.5t-131 80t-162 69q-78 31 -151.5 59.5t-151.5 75.5q-60 -85 -60 -161z" />
<glyph unicode="&#xa8;" horiz-adv-x="1245" d="M-14 1665q0 57 40 98t97 41q55 0 96 -41t41 -98q0 -55 -41 -95t-96 -40q-57 0 -97 40t-40 95zM520 1665q0 57 39 98t94 41q59 0 98.5 -41t39.5 -98q0 -55 -39 -95t-99 -40q-55 0 -94 40t-39 95z" />
<glyph unicode="&#xab;" horiz-adv-x="1781" d="M16 557v88q154 109 303.5 213.5t303.5 210.5v-119l-510 -350l510 -344v-121q-158 111 -303.5 212.5t-303.5 209.5zM780 557v88q154 109 303.5 213.5t302.5 210.5v-119l-512 -350l512 -344v-121q-158 111 -303 212.5t-303 209.5z" />
<glyph unicode="&#xad;" horiz-adv-x="1214" d="M23 557v96h761v-96h-761z" />
<glyph unicode="&#xaf;" horiz-adv-x="1251" d="M27 1430v96h761v-96h-761z" />
<glyph unicode="&#xb0;" horiz-adv-x="919" d="M0 1391q0 55 20.5 103t56.5 84t84 56.5t103 20.5t102.5 -20.5t83 -56.5t56 -84t20.5 -103t-20.5 -103.5t-56 -84.5t-83 -56.5t-102.5 -20.5t-103 20.5t-84 56.5t-56.5 84t-20.5 104zM57 1391q0 -47 17.5 -85t46.5 -66t65.5 -43t77.5 -15q39 0 77 15t65.5 43t45 65.5 t17.5 85.5q0 41 -13.5 78.5t-40 66.5t-64.5 46t-87 17q-82 0 -144.5 -55t-62.5 -153z" />
<glyph unicode="&#xb1;" horiz-adv-x="1599" d="M23 68v96h962v-96h-962zM23 848v98h428v410h106v-410h428v-98h-428v-418h-106v418h-428z" />
<glyph unicode="&#xb4;" horiz-adv-x="849" d="M49 1473q45 78 84 151.5t84 151.5h166q-57 -80 -95 -131.5t-61.5 -84t-38 -53t-26.5 -34.5h-113z" />
<glyph unicode="&#xb5;" horiz-adv-x="1433" d="M18 -432v1603h121v-630q0 -219 89 -347t274 -128q98 0 175 53t129 138t78.5 191.5t26.5 215.5v505h121v-1169h-121v221l-2 49l2 2q-18 -72 -64 -130t-106.5 -99t-128 -64.5t-129.5 -23.5q-43 0 -92 13.5t-96 38t-88 57t-68 71.5v-567h-121z" />
<glyph unicode="&#xb7;" horiz-adv-x="768" d="M98 80q0 57 40 97t95 40t96.5 -40t41.5 -97q0 -55 -41 -95t-97 -40q-55 0 -95 40t-40 95z" />
<glyph unicode="&#xb8;" horiz-adv-x="874" d="M23 -479q16 12 31.5 19t29.5 18q20 -23 47 -37.5t51 -14.5q37 0 59.5 14.5t35 36t16.5 45t4 42.5q0 18 -4 41.5t-16.5 45t-35 36t-59.5 14.5q-18 0 -34.5 -7t-32.5 -18l-52 51q29 47 56.5 88.5t56.5 88.5l49 -35l-98 -129q61 14 107.5 3t75 -39t43 -65.5t14.5 -74.5 q0 -86 -52.5 -141.5t-132.5 -55.5q-98 0 -159 74z" />
<glyph unicode="&#xbb;" horiz-adv-x="1781" d="M16 135v121l512 344l-512 350v119q160 -113 303.5 -213t303.5 -211v-88zM780 135v121l510 344l-510 350v119q160 -113 303.5 -213t302.5 -211v-88z" />
<glyph unicode="&#xbf;" horiz-adv-x="1298" d="M-43 -53q0 70 17.5 122t54.5 100t92 97t129 113q57 47 92 91t35 110v28h90v-28q0 -49 -15.5 -89t-41 -75t-56 -66t-61.5 -57l2 2q-66 -57 -111 -98t-71.5 -79t-38 -77t-11.5 -94q0 -66 25 -123t70 -100t107.5 -69t135.5 -26q152 0 235 81t93 206h121q-6 -84 -42 -152.5 t-95.5 -117.5t-138.5 -76t-173 -27q-96 0 -177 30t-140 84t-93 128t-34 162zM276 1047q0 57 40 96t96 39q57 0 98 -39t41 -96q0 -55 -41 -95.5t-98 -40.5q-55 0 -95.5 40t-40.5 96z" />
<glyph unicode="&#xc0;" horiz-adv-x="1439" d="M-80 0h133q37 106 76 219t74 219h665l150 -438h121l-553 1538h-113q-141 -389 -276.5 -769t-276.5 -769zM238 535l297 886l290 -886h-587zM287 2138h166l170 -305h-115z" />
<glyph unicode="&#xc1;" horiz-adv-x="1439" d="M-80 0h133q37 106 76 219t74 219h665l150 -438h121l-553 1538h-113q-141 -389 -276.5 -769t-276.5 -769zM238 535l297 886l290 -886h-587zM492 1833q41 72 67.5 121t45 83t31.5 57.5t26 43.5h167l-225 -305h-112z" />
<glyph unicode="&#xc2;" horiz-adv-x="1439" d="M-80 0h133q37 106 76 219t74 219h665l150 -438h121l-553 1538h-113q-141 -389 -276.5 -769t-276.5 -769zM113 1817l422 374q104 -92 172.5 -153.5t114.5 -102.5t77 -67.5t57 -48.5l-61 -70l-360 317q-94 -84 -155 -137t-98.5 -88t-60 -56.5t-41.5 -37.5zM238 535l297 886 l290 -886h-587z" />
<glyph unicode="&#xc3;" horiz-adv-x="1439" d="M-80 0h133q37 106 76 219t74 219h665l150 -438h121l-553 1538h-113q-141 -389 -276.5 -769t-276.5 -769zM20 1753q10 20 36 61t65 83t91 73t120 35q76 2 142.5 -28.5t113.5 -63.5q41 -31 69.5 -50.5t49 -31.5t38 -16.5t37.5 -4.5q43 2 79 25t64.5 53.5t50 62t34.5 54.5 q16 -8 34.5 -18.5t32.5 -18.5q-14 -27 -40.5 -70t-65.5 -83.5t-90.5 -71.5t-114.5 -33h-10q-74 4 -135.5 35t-113.5 66.5t-101.5 65.5t-98.5 30q-45 0 -82 -21.5t-64.5 -52.5t-47 -63.5t-29.5 -53.5q-16 8 -33.5 18.5t-30.5 18.5zM238 535l297 886l290 -886h-587z" />
<glyph unicode="&#xc4;" horiz-adv-x="1439" d="M-80 0h133q37 106 76 219t74 219h665l150 -438h121l-553 1538h-113q-141 -389 -276.5 -769t-276.5 -769zM127 1935q0 57 40 97.5t95 40.5q57 0 97 -40.5t40 -97.5q0 -55 -40 -95t-97 -40q-55 0 -95 40t-40 95zM238 535l297 886l290 -886h-587zM662 1935q0 57 38.5 97.5 t94.5 40.5q55 0 96 -40.5t41 -97.5q0 -55 -41 -95t-96 -40t-94 40t-39 95z" />
<glyph unicode="&#xc5;" horiz-adv-x="1439" d="M-80 0h133q37 106 76 219t74 219h665l150 -438h121l-553 1538h-113q-141 -389 -276.5 -769t-276.5 -769zM238 535l297 886l290 -886h-587zM270 2083q0 55 20.5 103t56.5 84t84 56.5t104 20.5q55 0 102 -20.5t83 -56.5t56.5 -84t20.5 -103t-20.5 -103.5t-56.5 -84t-83 -56 t-102 -20.5t-103.5 20.5t-84.5 56t-56.5 84t-20.5 103.5zM328 2083q0 -47 17 -85t46 -65.5t66 -43t78 -15.5q39 0 76.5 15.5t65.5 43t45 65.5t17 85q0 41 -13 79t-40 66.5t-64.5 46t-86.5 17.5q-82 0 -144.5 -55.5t-62.5 -153.5z" />
<glyph unicode="&#xc6;" horiz-adv-x="2340" d="M-94 2l1059 1538l86 4h917v-100h-866l2 -604h772v-99h-772l2 -643h862v-96h-989v436h-653q-45 -66 -94.5 -135.5t-96.5 -134.5l-115 -166h-114zM377 537h602v858z" />
<glyph unicode="&#xc7;" horiz-adv-x="1714" d="M-84 766q0 168 54.5 315.5t152.5 258t236.5 174t306.5 63.5q100 0 195 -29.5t179 -87t152 -138.5t115 -185h-121q-37 70 -90.5 132t-119 108t-144 73t-166.5 27q-150 0 -265.5 -58.5t-195.5 -157t-121 -226.5t-41 -269t42 -269t122 -226.5t195.5 -156t263.5 -57.5 q172 0 306 91.5t214 244.5h123q-43 -96 -108.5 -175t-145.5 -135t-171 -89t-188 -37l-82 -111q61 14 107.5 3t75 -38.5t43 -65.5t14.5 -75q0 -86 -52 -141t-132 -55q-98 0 -160 73q16 12 31.5 19.5t29.5 17.5q20 -23 47 -37t52 -14q37 0 59.5 14.5t34.5 36t16 45t4 41.5 t-4 42t-16 45.5t-34.5 35.5t-59.5 14q-18 0 -35 -7t-33 -17l-51 51q18 35 37.5 63.5t40.5 59.5q-160 6 -291 72.5t-225.5 175t-145.5 253t-51 308.5z" />
<glyph unicode="&#xc8;" horiz-adv-x="1413" d="M20 0h990v98h-871v641h776v101h-776v602h871v98h-990v-1540zM287 2138h166l170 -305h-113z" />
<glyph unicode="&#xc9;" horiz-adv-x="1413" d="M20 0h990v98h-871v641h776v101h-776v602h871v98h-990v-1540zM422 1833l168 305h168l-226 -305h-110z" />
<glyph unicode="&#xca;" horiz-adv-x="1413" d="M20 0h990v98h-871v641h776v101h-776v602h871v98h-990v-1540zM88 1817l422 374q104 -92 173 -153.5l115 -102.5t76.5 -67.5t57.5 -48.5l-62 -70l-360 317q-94 -84 -154.5 -137t-98.5 -88t-60.5 -56.5t-40.5 -37.5z" />
<glyph unicode="&#xcb;" horiz-adv-x="1413" d="M20 0h990v98h-871v641h776v101h-776v602h871v98h-990v-1540zM121 1935q0 57 40 97.5t95 40.5q57 0 97 -40.5t40 -97.5q0 -55 -40 -95t-97 -40q-55 0 -95 40t-40 95zM655 1935q0 57 39 97.5t94 40.5q57 0 97.5 -40.5t40.5 -97.5q0 -55 -40 -95t-98 -40q-55 0 -94 40 t-39 95z" />
<glyph unicode="&#xcc;" horiz-adv-x="583" d="M-137 2138h166q45 -82 86 -154.5t84 -150.5h-115zM31 0h116v1540h-116v-1540z" />
<glyph unicode="&#xcd;" horiz-adv-x="583" d="M-27 1833q45 82 86 156.5t80 148.5h168l-225 -305h-109zM31 0h116v1540h-116v-1540z" />
<glyph unicode="&#xce;" horiz-adv-x="583" d="M-332 1817l422 374q104 -92 173 -153.5l115 -102.5t76.5 -67.5t57.5 -48.5l-61 -70l-361 317q-94 -84 -154.5 -137t-98.5 -88t-60.5 -56.5t-40.5 -37.5zM31 0h116v1540h-116v-1540z" />
<glyph unicode="&#xcf;" horiz-adv-x="583" d="M-315 1935q0 57 39.5 97.5t95.5 40.5q57 0 98 -40.5t41 -97.5q0 -55 -41 -95t-98 -40q-55 0 -95 40t-40 95zM31 0h116v1540h-116v-1540zM217 1935q0 57 40 97.5t95 40.5q57 0 97 -40.5t40 -97.5q0 -55 -39.5 -95t-97.5 -40q-55 0 -95 40t-40 95z" />
<glyph unicode="&#xd0;" horiz-adv-x="1667" d="M-272 604v101h295v835h579q150 0 276 -56.5t215 -157.5t139 -243.5t50 -312.5t-50 -311.5t-139 -243.5t-215 -158.5t-276 -56.5h-579v604h-295zM143 98h459q150 0 256.5 55.5t175 148.5t100 214t31.5 254t-31.5 255t-100 215t-175 148.5t-256.5 55.5h-459v-739h508v-101 h-508v-506z" />
<glyph unicode="&#xd1;" horiz-adv-x="1622" d="M18 0h117v1386l952 -1386h130v1540h-119v-1364l-936 1364h-144v-1540zM84 1753q10 20 35.5 61t64.5 83t91.5 73t119.5 35q76 2 142.5 -28.5t113.5 -63.5q41 -31 70 -50.5t49.5 -31.5t38 -16.5t37.5 -4.5q43 2 79 25t64.5 53.5t50 62t33.5 54.5q16 -8 34.5 -18.5 t33.5 -18.5q-14 -27 -41 -70t-66 -83.5t-90 -71.5t-115 -33h-10q-74 4 -135 35t-113.5 66.5t-101.5 65.5t-98 30q-45 0 -82 -21.5t-64.5 -52.5t-47 -63.5t-30.5 -53.5q-16 8 -33.5 18.5t-29.5 18.5z" />
<glyph unicode="&#xd2;" horiz-adv-x="1785" d="M-70 766q0 -168 54.5 -315.5t154 -258t237.5 -174t306 -63.5q166 0 303 63.5t233.5 174t149.5 258t53 315.5t-53 315.5t-149.5 258t-233.5 174t-303 63.5q-168 0 -306 -63.5t-237.5 -174t-154 -258t-54.5 -315.5zM59 766q0 137 48.5 265t131.5 225.5t196.5 155.5 t246.5 58q137 0 249.5 -59t192.5 -157.5t124 -225.5t44 -262q0 -137 -44 -264t-125 -225.5t-193.5 -157t-247.5 -58.5q-139 0 -254 58.5t-196.5 156t-127 224.5t-45.5 266zM432 2138h168q45 -82 85 -154.5t83 -150.5h-115z" />
<glyph unicode="&#xd3;" horiz-adv-x="1785" d="M-70 766q0 -168 54.5 -315.5t154 -258t237.5 -174t306 -63.5q166 0 303 63.5t233.5 174t149.5 258t53 315.5t-53 315.5t-149.5 258t-233.5 174t-303 63.5q-168 0 -306 -63.5t-237.5 -174t-154 -258t-54.5 -315.5zM59 766q0 137 48.5 265t131.5 225.5t196.5 155.5 t246.5 58q137 0 249.5 -59t192.5 -157.5t124 -225.5t44 -262q0 -137 -44 -264t-125 -225.5t-193.5 -157t-247.5 -58.5q-139 0 -254 58.5t-196.5 156t-127 224.5t-45.5 266zM602 1833q10 16 19.5 33.5t26 49.5t45 84t75.5 138h164l-221 -305h-109z" />
<glyph unicode="&#xd4;" horiz-adv-x="1785" d="M-70 766q0 -168 54.5 -315.5t154 -258t237.5 -174t306 -63.5q166 0 303 63.5t233.5 174t149.5 258t53 315.5t-53 315.5t-149.5 258t-233.5 174t-303 63.5q-168 0 -306 -63.5t-237.5 -174t-154 -258t-54.5 -315.5zM59 766q0 137 48.5 265t131.5 225.5t196.5 155.5 t246.5 58q137 0 249.5 -59t192.5 -157.5t124 -225.5t44 -262q0 -137 -44 -264t-125 -225.5t-193.5 -157t-247.5 -58.5q-139 0 -254 58.5t-196.5 156t-127 224.5t-45.5 266zM260 1817l422 374q104 -92 173 -153.5l115 -102.5t76.5 -67.5t57.5 -48.5l-62 -70l-360 317 q-94 -84 -154.5 -137t-98.5 -88t-60.5 -56.5t-40.5 -37.5z" />
<glyph unicode="&#xd5;" horiz-adv-x="1785" d="M-70 766q0 -168 54.5 -315.5t154 -258t237.5 -174t306 -63.5q166 0 303 63.5t233.5 174t149.5 258t53 315.5t-53 315.5t-149.5 258t-233.5 174t-303 63.5q-168 0 -306 -63.5t-237.5 -174t-154 -258t-54.5 -315.5zM59 766q0 137 48.5 265t131.5 225.5t196.5 155.5 t246.5 58q137 0 249.5 -59t192.5 -157.5t124 -225.5t44 -262q0 -137 -44 -264t-125 -225.5t-193.5 -157t-247.5 -58.5q-139 0 -254 58.5t-196.5 156t-127 224.5t-45.5 266zM147 1753q10 20 36 61t65 83t91 73t120 35q76 2 142.5 -28.5t113.5 -63.5q41 -31 69.5 -50.5 t49 -31.5t38 -16.5t37.5 -4.5q43 2 79 25t64.5 53.5t50 62t34.5 54.5q16 -8 34.5 -18.5t32.5 -18.5q-14 -27 -40.5 -70t-65.5 -83.5t-90.5 -71.5t-114.5 -33h-10q-74 4 -135.5 35t-113.5 66.5t-101.5 65.5t-98.5 30q-45 0 -82 -21.5t-64.5 -52.5t-47 -63.5t-29.5 -53.5 q-16 8 -33.5 18.5t-30.5 18.5z" />
<glyph unicode="&#xd6;" horiz-adv-x="1785" d="M-70 766q0 -168 54.5 -315.5t154 -258t237.5 -174t306 -63.5q166 0 303 63.5t233.5 174t149.5 258t53 315.5t-53 315.5t-149.5 258t-233.5 174t-303 63.5q-168 0 -306 -63.5t-237.5 -174t-154 -258t-54.5 -315.5zM59 766q0 137 48.5 265t131.5 225.5t196.5 155.5 t246.5 58q137 0 249.5 -59t192.5 -157.5t124 -225.5t44 -262q0 -137 -44 -264t-125 -225.5t-193.5 -157t-247.5 -58.5q-139 0 -254 58.5t-196.5 156t-127 224.5t-45.5 266zM287 1935q0 57 40 97.5t95 40.5t96 -40.5t41 -97.5q0 -55 -41 -95t-96 -40t-95 40t-40 95zM819 1935 q0 57 40 97.5t95 40.5q57 0 97.5 -40.5t40.5 -97.5q0 -55 -40 -95t-98 -40q-55 0 -95 40t-40 95z" />
<glyph unicode="&#xd7;" horiz-adv-x="1144" d="M-10 926l35 35l30 34l307 -305l291 293l74 -76l-291 -291l303 -305l-73 -71l-297 307l-299 -297q-18 18 -26.5 28.5t-25.5 26.5l-20 23l297 295z" />
<glyph unicode="&#xd8;" horiz-adv-x="1785" d="M-20 768q0 168 54 315.5t152.5 258t236.5 174t304 63.5q154 0 285 -58.5t235 -156.5l197 215l69 -59l-206 -228q78 -115 119.5 -248t41.5 -276q0 -168 -53 -315.5t-149.5 -258t-233.5 -174t-305 -63.5q-133 0 -254 45t-223 127l-182 -209q-18 16 -27.5 24.5t-26.5 22.5 l-14 10l195 213q-102 119 -158.5 267.5t-56.5 310.5zM104 768q0 -129 43 -256t121 -238l899 1002q-94 102 -200.5 153.5t-239.5 51.5t-242.5 -52.5t-195.5 -148.5q-88 -98 -136.5 -232.5t-48.5 -279.5zM330 213q92 -78 189 -118t208 -40q139 0 245.5 50.5t192.5 148.5 t130 232.5t44 281.5q0 109 -28.5 218.5t-85.5 213.5z" />
<glyph unicode="&#xd9;" horiz-adv-x="1599" d="M20 637v901h119v-901q0 -98 23.5 -200.5t77 -184.5t142.5 -134t222 -52q137 0 227.5 52t144.5 134t75.5 184.5t21.5 200.5v901h117v-901q0 -106 -24.5 -226t-89 -220.5t-179.5 -166t-293 -65.5q-176 0 -288.5 65.5t-178 166t-91.5 220t-26 226.5zM387 2138h168 q43 -82 84 -154.5t84 -150.5h-115z" />
<glyph unicode="&#xda;" horiz-adv-x="1599" d="M20 637v901h119v-901q0 -98 23.5 -200.5t77 -184.5t142.5 -134t222 -52q137 0 227.5 52t144.5 134t75.5 184.5t21.5 200.5v901h117v-901q0 -106 -24.5 -226t-89 -220.5t-179.5 -166t-293 -65.5q-176 0 -288.5 65.5t-178 166t-91.5 220t-26 226.5zM520 1833 q41 72 67.5 121t45 83t31 57.5t24.5 43.5h170l-225 -305h-113z" />
<glyph unicode="&#xdb;" horiz-adv-x="1599" d="M20 637v901h119v-901q0 -98 23.5 -200.5t77 -184.5t142.5 -134t222 -52q137 0 227.5 52t144.5 134t75.5 184.5t21.5 200.5v901h117v-901q0 -106 -24.5 -226t-89 -220.5t-179.5 -166t-293 -65.5q-176 0 -288.5 65.5t-178 166t-91.5 220t-26 226.5zM184 1817l422 374 q104 -92 173 -153.5l115 -102.5t76.5 -67.5t57.5 -48.5l-61 -70l-361 317q-94 -84 -154.5 -137t-98.5 -88t-60.5 -56.5t-40.5 -37.5z" />
<glyph unicode="&#xdc;" horiz-adv-x="1599" d="M20 637v901h119v-901q0 -98 23.5 -200.5t77 -184.5t142.5 -134t222 -52q150 0 242 52t143 134t67.5 184.5t16.5 200.5v901h117v-901q0 -106 -24.5 -226t-89 -220.5t-179.5 -166t-293 -65.5q-176 0 -288.5 65.5t-178 166t-91.5 220t-26 226.5zM205 1933q0 57 40 97.5 t95 40.5q57 0 97 -40.5t40 -97.5q0 -55 -40 -95t-97 -40q-55 0 -95 40t-40 95zM737 1933q0 57 40 97.5t95 40.5q57 0 97.5 -40.5t40.5 -97.5q0 -55 -40 -95t-98 -40q-55 0 -95 40t-40 95z" />
<glyph unicode="&#xdd;" d="M-49 1540l520 -854v-686h129v686l524 854h-133l-454 -749l-459 749h-127zM455 1833q14 27 25.5 47.5t21.5 38.5t20 37.5t25 44.5q16 35 34.5 67.5t39.5 69.5h167l-225 -305h-108z" />
<glyph unicode="&#xde;" horiz-adv-x="1374" d="M23 0v1544h108v-325h424q92 0 173 -35t141.5 -96.5t95 -142.5t34.5 -173t-34.5 -173t-95 -141.5t-141.5 -95t-173 -34.5h-424v-328h-108zM131 424h424q70 0 132.5 28.5t107.5 75.5t71.5 110.5t26.5 133.5t-26.5 133.5t-71.5 111.5t-107.5 76.5t-132.5 28.5h-424v-698z " />
<glyph unicode="&#xdf;" horiz-adv-x="1470" d="M18 0v1180q0 72 16.5 127t43 97t57.5 70.5t60 49.5l-2 -2q72 45 147.5 58t134.5 13h68q68 0 126 -25.5t101 -68.5t68.5 -101.5t25.5 -123.5q0 -51 -18.5 -95t-40 -84t-38.5 -78t-17 -77q0 -33 21.5 -64.5t74.5 -66.5q37 -25 78 -55.5t74.5 -70.5t56 -92t22.5 -122 q0 -102 -39 -188t-106.5 -150.5t-160.5 -100.5t-200 -36h-151v100h151q86 0 159 29t126 79t83 118.5t30 148.5q0 84 -51.5 138.5t-131.5 107.5q-23 16 -46 36.5t-42.5 44t-32 51t-12.5 58.5q0 51 20.5 95t46 88.5t46 89.5t20.5 96q0 43 -21.5 85t-57 74.5t-78.5 53t-86 20.5 h-68q-39 0 -101.5 -10t-121.5 -47q-57 -39 -86 -111.5t-29 -158.5v-1180h-119z" />
<glyph unicode="&#xe0;" horiz-adv-x="1366" d="M-14 293q0 -72 33.5 -133.5t89 -105.5t128 -68.5t150.5 -24.5q84 0 157.5 17.5t133 48t104.5 72.5t70 91q4 -80 57.5 -136t128.5 -56h13v100h-13q-37 0 -61.5 23.5t-24.5 64.5v621q0 92 -37.5 168t-100 130t-146.5 84t-176 30q-86 0 -162 -25t-133.5 -64.5t-95.5 -88 t-46 -97.5h113q10 27 37.5 59.5t69.5 60.5t96.5 46t120.5 18q70 0 133 -23.5t111 -65.5t77 -101t29 -131v-115q-33 -2 -82 -6t-107.5 -10t-125 -14.5t-134.5 -16.5q-84 -14 -157.5 -42t-129 -71t-88 -102t-32.5 -137zM104 293q0 59 24 101t64.5 72t94 48t112.5 29 q55 10 115.5 19t121 16.5t114 12.5t92.5 9v-258q-25 -72 -71 -124t-106.5 -87t-131 -52.5t-146.5 -17.5q-55 0 -106.5 16.5t-90 47.5t-62.5 73t-24 95zM281 1821h168q45 -82 85.5 -155t83.5 -153h-114z" />
<glyph unicode="&#xe1;" horiz-adv-x="1366" d="M-14 293q0 -72 33.5 -133.5t89 -105.5t128 -68.5t150.5 -24.5q84 0 157.5 17.5t133 48t104.5 72.5t70 91q4 -80 57.5 -136t128.5 -56h13v100h-13q-37 0 -61.5 23.5t-24.5 64.5v621q0 92 -37.5 168t-100 130t-146.5 84t-176 30q-86 0 -162 -25t-133.5 -64.5t-95.5 -88 t-46 -97.5h113q10 27 37.5 59.5t69.5 60.5t96.5 46t120.5 18q70 0 133 -23.5t111 -65.5t77 -101t29 -131v-115q-33 -2 -82 -6t-107.5 -10t-125 -14.5t-134.5 -16.5q-84 -14 -157.5 -42t-129 -71t-88 -102t-32.5 -137zM104 293q0 59 24 101t64.5 72t94 48t112.5 29 q55 10 115.5 19t121 16.5t114 12.5t92.5 9v-258q-25 -72 -71 -124t-106.5 -87t-131 -52.5t-146.5 -17.5q-55 0 -106.5 16.5t-90 47.5t-62.5 73t-24 95zM442 1513l82 142q20 39 43 82t45 84h172l-227 -308h-115z" />
<glyph unicode="&#xe2;" horiz-adv-x="1366" d="M-14 293q0 -72 33.5 -133.5t89 -105.5t128 -68.5t150.5 -24.5q84 0 157.5 17.5t133 48t104.5 72.5t70 91q4 -80 57.5 -136t128.5 -56h13v100h-13q-37 0 -61.5 23.5t-24.5 64.5v621q0 92 -37.5 168t-100 130t-146.5 84t-176 30q-86 0 -162 -25t-133.5 -64.5t-95.5 -88 t-46 -97.5h113q10 27 37.5 59.5t69.5 60.5t96.5 46t120.5 18q70 0 133 -23.5t111 -65.5t77 -101t29 -131v-115q-33 -2 -82 -6t-107.5 -10t-125 -14.5t-134.5 -16.5q-84 -14 -157.5 -42t-129 -71t-88 -102t-32.5 -137zM92 1591q59 49 112.5 95.5t104.5 92.5t102.5 92 t108.5 97q82 -74 143.5 -128t110.5 -98t90 -80t82 -71l-61 -71l-365 319l-366 -321zM104 293q0 59 24 101t64.5 72t94 48t112.5 29q55 10 115.5 19t121 16.5t114 12.5t92.5 9v-258q-25 -72 -71 -124t-106.5 -87t-131 -52.5t-146.5 -17.5q-55 0 -106.5 16.5t-90 47.5 t-62.5 73t-24 95z" />
<glyph unicode="&#xe3;" horiz-adv-x="1366" d="M-53 1559q10 20 35.5 61t64.5 83t91 72.5t120 34.5q76 2 142.5 -28.5t113.5 -63.5q41 -31 69.5 -50t49 -31.5t38 -16.5t38.5 -4q43 2 78.5 24.5t64.5 53t50.5 62.5t33.5 54q16 -8 34.5 -18t33.5 -18q-14 -27 -41 -70t-66 -84t-90 -71.5t-115 -32.5h-10q-74 4 -135.5 34.5 t-113.5 66.5t-101 65.5t-99 29.5q-45 0 -81.5 -21.5t-64.5 -52t-47.5 -63.5t-29.5 -53q-16 8 -33.5 18t-29.5 19zM-14 293q0 -72 33.5 -133.5t89 -105.5t128 -68.5t150.5 -24.5q84 0 157.5 17.5t133 48t104.5 72.5t70 91q4 -80 57.5 -136t128.5 -56h13v100h-13 q-37 0 -61.5 23.5t-24.5 64.5v621q0 92 -37.5 168t-100 130t-146.5 84t-176 30q-86 0 -162 -25t-133.5 -64.5t-95.5 -88t-46 -97.5h113q10 27 37.5 59.5t69.5 60.5t96.5 46t120.5 18q70 0 133 -23.5t111 -65.5t77 -101t29 -131v-115q-33 -2 -82 -6t-107.5 -10t-125 -14.5 t-134.5 -16.5q-84 -14 -157.5 -42t-129 -71t-88 -102t-32.5 -137zM104 293q0 59 24 101t64.5 72t94 48t112.5 29q55 10 115.5 19t121 16.5t114 12.5t92.5 9v-258q-25 -72 -71 -124t-106.5 -87t-131 -52.5t-146.5 -17.5q-55 0 -106.5 16.5t-90 47.5t-62.5 73t-24 95z" />
<glyph unicode="&#xe4;" horiz-adv-x="1366" d="M-14 293q0 -72 33.5 -133.5t89 -105.5t128 -68.5t150.5 -24.5q84 0 157.5 17.5t133 48t104.5 72.5t70 91q4 -80 57.5 -136t128.5 -56h13v100h-13q-37 0 -61.5 23.5t-24.5 64.5v621q0 92 -37.5 168t-100 130t-146.5 84t-176 30q-86 0 -162 -25t-133.5 -64.5t-95.5 -88 t-46 -97.5h113q10 27 37.5 59.5t69.5 60.5t96.5 46t120.5 18q70 0 133 -23.5t111 -65.5t77 -101t29 -131v-115q-33 -2 -82 -6t-107.5 -10t-125 -14.5t-134.5 -16.5q-84 -14 -157.5 -42t-129 -71t-88 -102t-32.5 -137zM104 293q0 59 24 101t64.5 72t94 48t112.5 29 q55 10 115.5 19t121 16.5t114 12.5t92.5 9v-258q-25 -72 -71 -124t-106.5 -87t-131 -52.5t-146.5 -17.5q-55 0 -106.5 16.5t-90 47.5t-62.5 73t-24 95zM115 1683q0 57 40 97.5t95 40.5q57 0 97 -40.5t40 -97.5t-40 -97t-97 -40q-55 0 -95 40t-40 97zM651 1683q0 57 40 97.5 t95 40.5q57 0 98.5 -40.5t41.5 -97.5t-41 -97t-99 -40q-55 0 -95 40t-40 97z" />
<glyph unicode="&#xe5;" horiz-adv-x="1366" d="M-14 293q0 -72 33.5 -133.5t89 -105.5t128 -68.5t150.5 -24.5q84 0 157.5 17.5t133 48t104.5 72.5t70 91q4 -80 57.5 -136t128.5 -56h13v100h-13q-37 0 -61.5 23.5t-24.5 64.5v621q0 92 -37.5 168t-100 130t-146.5 84t-176 30q-86 0 -162 -25t-133.5 -64.5t-95.5 -88 t-46 -97.5h113q10 27 37.5 59.5t69.5 60.5t96.5 46t120.5 18q70 0 133 -23.5t111 -65.5t77 -101t29 -131v-115q-33 -2 -82 -6t-107.5 -10t-125 -14.5t-134.5 -16.5q-84 -14 -157.5 -42t-129 -71t-88 -102t-32.5 -137zM104 293q0 59 24 101t64.5 72t94 48t112.5 29 q55 10 115.5 19t121 16.5t114 12.5t92.5 9v-258q-25 -72 -71 -124t-106.5 -87t-131 -52.5t-146.5 -17.5q-55 0 -106.5 16.5t-90 47.5t-62.5 73t-24 95zM258 1686q0 55 20.5 103t56.5 84t84 56.5t103 20.5t102.5 -20.5t83 -56.5t56 -84t20.5 -103t-20.5 -103.5t-56 -84.5 t-83 -56.5t-102.5 -20.5t-103 20.5t-84 56.5t-56.5 84t-20.5 104zM315 1686q0 -47 17.5 -85t46.5 -66t65.5 -43t77.5 -15q39 0 77 15t65.5 43t45 65.5t17.5 85.5q0 41 -13.5 78.5t-40 66.5t-64.5 46t-87 17q-82 0 -144.5 -55t-62.5 -153z" />
<glyph unicode="&#xe6;" horiz-adv-x="2258" d="M-41 297q0 76 33 133t88 99t129 69t158 39q68 8 133 16.5t123.5 14.5t107.5 10t82 6v125q0 72 -27.5 131t-75.5 101t-111.5 65.5t-135.5 23.5q-63 0 -117.5 -18t-96.5 -46t-69.5 -60.5t-38.5 -59.5h-114q8 49 46 97.5t96 88t134 64.5t160 25q129 0 245.5 -69t190.5 -194 l39 66l-2 -2q66 92 169 141t226 49q125 0 227.5 -48t167.5 -142q53 -78 83 -187.5t30 -244.5v-43h-907q8 -86 31.5 -172t69.5 -154.5t118 -110.5t180 -42q129 0 222.5 43t144.5 137h119q-66 -150 -186 -214.5t-300 -64.5q-121 0 -225.5 52.5t-169.5 138.5l-72 114 q-25 -66 -69.5 -123t-108 -99t-144.5 -65.5t-180 -23.5q-78 0 -150.5 24.5t-128.5 69.5t-90 105.5t-34 134.5zM70 297q0 -53 24.5 -96t65.5 -74t93 -47.5t109 -16.5q74 0 143.5 17.5t129 52.5t106.5 87t72 124v260q-31 -4 -80 -8t-107.5 -11t-123 -16.5t-125.5 -19.5 q-66 -12 -122 -29.5t-97 -47.5t-64.5 -72t-23.5 -103zM932 645h797q-6 76 -29 159t-69 151.5t-119.5 113.5t-180.5 45q-109 0 -181.5 -45t-118.5 -113.5t-68.5 -151.5t-30.5 -159z" />
<glyph unicode="&#xe7;" horiz-adv-x="1339" d="M-20 594q0 131 32.5 244.5t97 197.5t163 132.5t227.5 48.5q82 0 148.5 -19.5t119.5 -55.5t94 -87t72 -115h-135q-25 39 -52.5 71.5t-63.5 57.5t-80 39t-103 14q-119 0 -196 -46t-122 -119.5t-62.5 -169t-17.5 -193.5q0 -96 17.5 -189.5t62.5 -167t122 -118.5t196 -45 q57 0 102 14t81 38t63.5 55.5t52.5 66.5h135q-59 -117 -153.5 -189.5t-235.5 -83.5l-90 -118q61 14 107 2.5t75 -39t43 -65.5t14 -74q0 -86 -52 -141.5t-132 -55.5q-98 0 -160 74q16 12 31.5 19t30.5 17q20 -23 46.5 -37t51.5 -14q37 0 59.5 14.5t34.5 36t16.5 45t4.5 42.5 q0 18 -4.5 41.5t-16.5 45t-34.5 36t-59.5 14.5q-18 0 -34.5 -7.5t-33.5 -17.5l-51 51q20 35 40 66t42 63q-123 6 -215 55.5t-154.5 132.5t-93 194.5t-30.5 238.5z" />
<glyph unicode="&#xe8;" horiz-adv-x="1388" d="M-25 590q0 -129 29 -239.5t82 -190.5q66 -92 169 -141.5t226 -49.5q176 0 298 68.5t186 210.5h-117q-51 -94 -145.5 -137t-221.5 -43q-109 0 -182.5 42t-118.5 110.5t-67.5 154.5t-28.5 172h905v43q0 135 -28.5 244.5t-86.5 187.5q-66 94 -168 142t-225 48t-226 -48 t-169 -142q-55 -80 -83 -189.5t-28 -242.5zM84 645q6 76 28.5 159t68.5 151.5t119 113.5t181 45q106 0 180 -45t120 -113.5t68.5 -151.5t29.5 -159h-795zM227 1821h166l172 -308h-114z" />
<glyph unicode="&#xe9;" horiz-adv-x="1388" d="M-25 590q0 -129 29 -239.5t82 -190.5q66 -92 169 -141.5t226 -49.5q176 0 298 68.5t186 210.5h-117q-51 -94 -145.5 -137t-221.5 -43q-109 0 -182.5 42t-118.5 110.5t-67.5 154.5t-28.5 172h905v43q0 135 -28.5 244.5t-86.5 187.5q-66 94 -168 142t-225 48t-226 -48 t-169 -142q-55 -80 -83 -189.5t-28 -242.5zM84 645q6 76 28.5 159t68.5 151.5t119 113.5t181 45q106 0 180 -45t120 -113.5t68.5 -151.5t29.5 -159h-795zM444 1513l80 142q20 39 43 82t45 84h172l-227 -308h-113z" />
<glyph unicode="&#xea;" horiz-adv-x="1388" d="M-25 590q0 -129 29 -239.5t82 -190.5q66 -92 169 -141.5t226 -49.5q176 0 298 68.5t186 210.5h-117q-51 -94 -145.5 -137t-221.5 -43q-109 0 -182.5 42t-118.5 110.5t-67.5 154.5t-28.5 172h905v43q0 135 -28.5 244.5t-86.5 187.5q-66 94 -168 142t-225 48t-226 -48 t-169 -142q-55 -80 -83 -189.5t-28 -242.5zM63 1591q59 49 112.5 95.5t104 92.5t102.5 92t107 97l117 -102h-2q80 -70 156 -137.5t158 -137.5l-62 -71l-367 319l-307 -266h2q-16 -12 -29.5 -26.5t-29.5 -28.5l-14 16q-12 16 -22.5 28.5t-25.5 28.5zM84 645q6 76 28.5 159 t68.5 151.5t119 113.5t181 45q106 0 180 -45t120 -113.5t68.5 -151.5t29.5 -159h-795z" />
<glyph unicode="&#xeb;" horiz-adv-x="1388" d="M-25 590q0 -129 29 -239.5t82 -190.5q66 -92 169 -141.5t226 -49.5q176 0 298 68.5t186 210.5h-117q-51 -94 -145.5 -137t-221.5 -43q-109 0 -182.5 42t-118.5 110.5t-67.5 154.5t-28.5 172h905v43q0 135 -28.5 244.5t-86.5 187.5q-66 94 -168 142t-225 48t-226 -48 t-169 -142q-55 -80 -83 -189.5t-28 -242.5zM84 645q6 76 28.5 159t68.5 151.5t119 113.5t181 45q106 0 180 -45t120 -113.5t68.5 -151.5t29.5 -159h-795zM96 1683q0 57 40 97.5t95 40.5q57 0 97.5 -40.5t40.5 -97.5t-40 -97t-98 -40q-55 0 -95 40t-40 97zM633 1683 q0 57 40 97.5t95 40.5q57 0 98 -40.5t41 -97.5t-41 -97t-98 -40q-55 0 -95 40t-40 97z" />
<glyph unicode="&#xec;" horiz-adv-x="585" d="M-131 1821h168l172 -308h-115zM31 0v1171h119v-1171h-119z" />
<glyph unicode="&#xed;" horiz-adv-x="585" d="M-6 1513q39 72 66.5 122.5t46 84t31 57t24.5 44.5h170l-228 -308h-110zM29 0v1171h118v-1171h-118z" />
<glyph unicode="&#xee;" horiz-adv-x="585" d="M-338 1591q59 49 112.5 95.5t104.5 92.5t102.5 92t108.5 97q82 -74 143.5 -128t110.5 -98t90 -80t82 -71l-61 -71l-365 319l-366 -321zM31 0v1171h119v-1171h-119z" />
<glyph unicode="&#xef;" horiz-adv-x="585" d="M-303 1683q0 57 40 97.5t95 40.5q59 0 100 -40.5t41 -97.5t-41 -97t-100 -40q-55 0 -95 40t-40 97zM31 0v1171h119v-1171h-119zM233 1683q0 57 40 97.5t98 40.5q57 0 98 -40.5t41 -97.5t-41 -97t-98 -40t-97.5 40t-40.5 97z" />
<glyph unicode="&#xf0;" horiz-adv-x="1372" d="M-12 461q0 100 39 190t106.5 158t156.5 106.5t191 38.5q78 0 168 -43t211 -145q-23 80 -57.5 151.5t-73.5 135t-80 116t-78 88.5q-68 -41 -142.5 -89t-141.5 -91q-16 27 -27.5 43.5t-26.5 40.5l265 170q-76 68 -146.5 125t-130.5 103h141l14.5 -14.5t18.5 -16.5h6 q39 -29 78 -63.5t72 -65.5l39 -8q51 31 110.5 69.5t110.5 73.5q16 -25 27.5 -42t27.5 -40l-225 -143q135 -152 202.5 -274t94.5 -212q18 -72 27.5 -160t9.5 -180v-22q0 -102 -39 -192.5t-105.5 -157t-156.5 -105.5t-193 -39q-102 0 -191 39t-156.5 105.5t-106.5 156.5 t-39 193zM96 461q0 -80 30 -151.5t82 -126t122.5 -86t150.5 -31.5t150.5 31.5t123 86t83 126t30.5 151.5t-30.5 152.5t-83 127t-123 86t-150.5 31.5t-150.5 -31.5t-122.5 -86t-82 -127t-30 -152.5z" />
<glyph unicode="&#xf1;" horiz-adv-x="1441" d="M-53 1559q10 20 35.5 61t64.5 83t91 72.5t120 34.5q76 2 142.5 -28.5t113.5 -63.5q41 -31 69.5 -50t49 -31.5t38.5 -16.5t38 -4q43 2 78.5 24.5t64.5 53t50.5 62.5t33.5 54q16 -8 34.5 -18t33.5 -18q-14 -27 -41 -70t-66 -84t-90 -71.5t-115 -32.5h-10q-74 4 -135.5 34.5 t-113.5 66.5t-101 65.5t-99 29.5q-45 0 -81.5 -21.5t-64.5 -52t-47.5 -63.5t-29.5 -53q-16 8 -33.5 18t-29.5 19zM18 0h117v506q0 109 26.5 219.5t78 199.5t127 145t174.5 56q92 0 161.5 -36.5t114.5 -102t67.5 -157t22.5 -201.5v-629h125v662q0 150 -32.5 255t-94 171.5 t-147.5 97.5t-193 31q-61 0 -129.5 -19.5t-128 -60.5t-106.5 -105.5t-66 -154.5v4v305h-117v-1186z" />
<glyph unicode="&#xf2;" d="M-29 592q0 -131 39 -245t112 -199t177 -133t236 -48q131 0 234 48t176 133t112 199t39 245t-39 244.5t-112 197.5t-176 132t-234 48t-235.5 -48t-177.5 -132t-112 -197.5t-39 -244.5zM102 592q0 98 30 190t85 165t135.5 117t182.5 44q100 0 180 -44t136 -117t86 -165 t30 -190t-31 -190.5t-88 -165t-136 -116.5t-177 -44q-102 0 -182.5 44t-135.5 116.5t-85 165t-30 190.5zM281 1821h168q45 -82 85.5 -155t83.5 -153h-114z" />
<glyph unicode="&#xf3;" d="M-29 592q0 -131 39 -245t112 -199t177 -133t236 -48q131 0 234 48t176 133t112 199t39 245t-39 244.5t-112 197.5t-176 132t-234 48t-235.5 -48t-177.5 -132t-112 -197.5t-39 -244.5zM102 592q0 98 30 190t85 165t135.5 117t182.5 44q100 0 180 -44t136 -117t86 -165 t30 -190t-31 -190.5t-88 -165t-136 -116.5t-177 -44q-102 0 -182.5 44t-135.5 116.5t-85 165t-30 190.5zM442 1513q41 72 68 122.5t45 84t31.5 57t25.5 44.5h172l-227 -308h-115z" />
<glyph unicode="&#xf4;" d="M-29 592q0 -131 39 -245t112 -199t177 -133t236 -48q131 0 234 48t176 133t112 199t39 245t-39 244.5t-112 197.5t-176 132t-234 48t-235.5 -48t-177.5 -132t-112 -197.5t-39 -244.5zM102 592q0 98 30 190t85 165t135.5 117t182.5 44q100 0 180 -44t136 -117t86 -165 t30 -190t-31 -190.5t-88 -165t-136 -116.5t-177 -44q-102 0 -182.5 44t-135.5 116.5t-85 165t-30 190.5zM123 1589q57 49 109.5 96.5t103.5 93.5l102 92t109 97l428 -375l-64 -73l-364 319q-123 -106 -192.5 -166.5t-105.5 -93.5t-47.5 -44t-19.5 -17z" />
<glyph unicode="&#xf5;" d="M-29 592q0 -131 39 -245t112 -199t177 -133t236 -48q131 0 234 48t176 133t112 199t39 245t-39 244.5t-112 197.5t-176 132t-234 48t-235.5 -48t-177.5 -132t-112 -197.5t-39 -244.5zM0 1559q10 20 35.5 61t64.5 83t91.5 72.5t119.5 34.5q76 2 142.5 -28.5t113.5 -63.5 q41 -31 70 -50t49.5 -31.5t38 -16.5t37.5 -4q43 2 79 24.5t64.5 53t50 62.5t33.5 54q16 -8 34.5 -18t33.5 -18q-14 -27 -41 -70t-66 -84t-90 -71.5t-115 -32.5h-10q-74 4 -135 34.5t-113.5 66.5t-101.5 65.5t-98 29.5q-45 0 -82 -21.5t-64.5 -52t-47 -63.5t-30.5 -53 q-16 8 -33.5 18t-29.5 19zM102 592q0 98 30 190t85 165t135.5 117t182.5 44q100 0 180 -44t136 -117t86 -165t30 -190t-31 -190.5t-88 -165t-136 -116.5t-177 -44q-102 0 -182.5 44t-135.5 116.5t-85 165t-30 190.5z" />
<glyph unicode="&#xf6;" d="M-29 592q0 -131 39 -245t112 -199t177 -133t236 -48q131 0 234 48t176 133t112 199t39 245t-39 244.5t-112 197.5t-176 132t-234 48t-235.5 -48t-177.5 -132t-112 -197.5t-39 -244.5zM102 592q0 98 30 190t85 165t135.5 117t182.5 44q100 0 180 -44t136 -117t86 -165 t30 -190t-31 -190.5t-88 -165t-136 -116.5t-177 -44q-102 0 -182.5 44t-135.5 116.5t-85 165t-30 190.5zM123 1683q0 57 40 97.5t95 40.5q57 0 98 -40.5t41 -97.5t-41 -97t-98 -40q-55 0 -95 40t-40 97zM659 1683q0 57 40 97.5t98 40.5q55 0 96 -40.5t41 -97.5t-41 -97 t-96 -40q-57 0 -97.5 40t-40.5 97z" />
<glyph unicode="&#xf7;" horiz-adv-x="1615" d="M16 567v99h1172v-105zM467 141q0 55 40 95t95 40q57 0 97 -40t40 -95t-40 -96t-97 -41q-55 0 -95 41t-40 96zM467 1083q0 57 40 97.5t95 40.5q57 0 97 -40.5t40 -97.5q0 -55 -40 -96t-97 -41q-55 0 -95 41t-40 96z" />
<glyph unicode="&#xf8;" d="M-51 -23l176 197q-66 92 -97.5 198.5t-31.5 221.5q0 131 38 244.5t110.5 197.5t176 132.5t234.5 48.5q109 0 204 -38t175 -108q37 41 83 90t85 92q18 -16 29.5 -26t37.5 -33l-176 -193q59 -90 91 -193t32 -214q0 -131 -39 -243.5t-111.5 -196.5t-176 -132.5t-234.5 -48.5 q-213 0 -371 133l-59 -61l-109 -125q-23 20 -34 28.5t-33 28.5zM123 594q0 -80 18.5 -165t59.5 -169l661 729q-61 59 -138 94t-169 35q-117 0 -200 -45t-134 -118.5t-74.5 -168t-23.5 -192.5zM260 188q61 -57 135 -87.5t160 -30.5q119 0 201 45t134 118.5t75.5 168 t23.5 192.5q0 74 -16.5 154.5t-54.5 166.5z" />
<glyph unicode="&#xf9;" horiz-adv-x="1441" d="M18 510q0 -150 33 -255t94.5 -172t147.5 -97.5t192 -30.5q61 0 129 22.5t127.5 67.5t106.5 112.5t65 157.5v-2v-313h119v1171h-119v-505q0 -109 -26.5 -219.5t-77.5 -199.5t-127 -145.5t-174 -56.5q-92 0 -162 37t-115 102.5t-67.5 156.5t-22.5 202v628h-123v-661z M264 1821h168q45 -82 86 -155t84 -153h-115z" />
<glyph unicode="&#xfa;" horiz-adv-x="1441" d="M18 510q0 -150 33 -255t94.5 -172t147.5 -97.5t192 -30.5q61 0 129 22.5t127.5 67.5t106.5 112.5t65 157.5v-2v-313h119v1171h-119v-505q0 -109 -26.5 -219.5t-77.5 -199.5t-127 -145.5t-174 -56.5q-92 0 -162 37t-115 102.5t-67.5 156.5t-22.5 202v628h-123v-661z M442 1513q41 72 69 122.5t46 84t30.5 57t24.5 44.5h172l-227 -308h-115z" />
<glyph unicode="&#xfb;" horiz-adv-x="1441" d="M18 510q0 -150 33 -255t94.5 -172t147.5 -97.5t192 -30.5q61 0 129 22.5t127.5 67.5t106.5 112.5t65 157.5v-2v-313h119v1171h-119v-505q0 -109 -26.5 -219.5t-77.5 -199.5t-127 -145.5t-174 -56.5q-92 0 -162 37t-115 102.5t-67.5 156.5t-22.5 202v628h-123v-661z M92 1591q59 49 112.5 95.5t104.5 92.5t102.5 92t108.5 97q82 -74 143.5 -128t110.5 -98t90 -80t82 -71l-61 -71l-365 319l-366 -321z" />
<glyph unicode="&#xfc;" horiz-adv-x="1441" d="M18 510q0 -150 33 -255t94.5 -172t147.5 -97.5t192 -30.5q61 0 129 22.5t127.5 67.5t106.5 112.5t65 157.5v-2v-313h119v1171h-119v-505q0 -109 -26.5 -219.5t-77.5 -199.5t-127 -145.5t-174 -56.5q-92 0 -162 37t-115 102.5t-67.5 156.5t-22.5 202v628h-123v-661z M129 1683q0 57 40 97.5t95 40.5q57 0 97 -40.5t40 -97.5t-39.5 -97t-97.5 -40q-55 0 -95 40t-40 97zM666 1683q0 57 39.5 97.5t97.5 40.5q57 0 98 -40.5t41 -97.5t-41 -97t-98 -40t-97 40t-40 97z" />
<glyph unicode="&#xfd;" horiz-adv-x="1327" d="M-49 1171q117 -309 229.5 -606t229.5 -596q-23 -59 -48.5 -128.5t-48.5 -129.5q-27 -70 -51 -141h121l145 412l437 1189h-131q-43 -123 -89.5 -255t-92.5 -266t-92 -265t-89 -254l-387 1040h-133zM416 1513q41 72 68.5 122.5t46 84t30.5 57t25 44.5h172l-228 -308h-114z " />
<glyph unicode="&#xfe;" horiz-adv-x="1490" d="M20 -428v1987h111v-648q88 141 201.5 223.5t226.5 82.5q129 0 228.5 -48.5t167 -132.5t102.5 -197.5t35 -244.5t-35 -243.5t-102.5 -196.5t-167 -132.5t-228.5 -48.5t-237.5 75t-190.5 198v-674h-111zM131 535q6 -90 32.5 -174.5t78 -149t130 -103t187.5 -38.5 q119 0 197 45t124 118.5t64.5 168t18.5 192.5t-18.5 192.5t-64.5 168t-124 118.5t-197 45q-109 0 -186.5 -39t-130 -103.5t-79 -149.5t-32.5 -175v-116z" />
<glyph unicode="&#xff;" horiz-adv-x="1327" d="M-49 1171q117 -309 229.5 -606t229.5 -596q-23 -59 -48.5 -128.5t-48.5 -129.5q-27 -70 -51 -141h121l145 412l437 1189h-131q-43 -123 -89.5 -255t-92.5 -266t-92 -265t-89 -254l-387 1040h-133zM70 1683q0 57 40 97.5t97 40.5t97 -40.5t40 -97.5t-40 -97t-97 -40 t-97 40t-40 97zM608 1683q0 57 40 97.5t95 40.5q57 0 98.5 -40.5t41.5 -97.5t-41 -97t-99 -40q-55 0 -95 40t-40 97z" />
<glyph unicode="&#x152;" horiz-adv-x="2568" d="M-45 772q0 166 54 313.5t152.5 258t236 174t304.5 63.5q63 0 135 -14.5t141 -47t132.5 -87t110.5 -134.5v250h989v-100h-871v-604h777v-99h-777v-643h871v-96h-989v223q-125 -154 -257.5 -211t-261.5 -57q-168 0 -305 63.5t-235.5 174t-152.5 258t-54 315.5zM82 772 q0 -147 40 -280.5t130 -231.5q178 -201 450 -201q135 0 236.5 52.5t187.5 146.5q23 27 47.5 63.5t47.5 75.5v744q-23 45 -45.5 80.5t-49.5 64.5q-86 94 -187 146.5t-237 52.5q-135 0 -249.5 -53.5t-200.5 -147.5q-88 -98 -129 -233.5t-41 -278.5z" />
<glyph unicode="&#x153;" horiz-adv-x="2332" d="M-59 592q0 131 38.5 244.5t111.5 198.5t176.5 133.5t234.5 48.5q158 0 282.5 -82t206.5 -220q31 63 79 119t108.5 94.5t130 61t147.5 22.5q127 0 228.5 -48t166.5 -142q55 -78 85 -187.5t30 -244.5v-43h-907q6 -86 27.5 -172t67.5 -154.5t120 -110.5t182 -42 q129 0 222.5 43t144.5 137h116q-125 -279 -483 -279q-119 0 -224.5 50.5t-170.5 140.5q-12 18 -33.5 56t-34.5 60q-84 -141 -209 -224t-282 -83q-131 0 -234.5 48.5t-176.5 132t-111.5 197.5t-38.5 245zM70 592q0 -96 23.5 -190.5t74.5 -168t133 -119.5t201 -46 q117 0 199.5 46t134 119.5t75 168t23.5 190.5q0 98 -23.5 192.5t-75 169t-134.5 119.5t-199 45q-119 0 -201 -45t-133 -119.5t-74.5 -169t-23.5 -192.5zM1059 645h794q-6 76 -29.5 159t-69.5 151.5t-118.5 113.5t-179.5 45q-109 0 -181.5 -45t-118.5 -113.5t-68.5 -151.5 t-28.5 -159z" />
<glyph unicode="&#x178;" d="M-49 1540l520 -854v-686h129v686l524 854h-133l-454 -749l-459 749h-127zM127 1935q0 57 40 97.5t95 40.5q57 0 97 -40.5t40 -97.5q0 -55 -40 -95t-97 -40q-55 0 -95 40t-40 95zM662 1935q0 57 38.5 97.5t94.5 40.5q55 0 96 -40.5t41 -97.5q0 -55 -41 -95t-96 -40t-94 40 t-39 95z" />
<glyph unicode="&#x2c6;" horiz-adv-x="1214" d="M-14 1665l422 375q104 -92 172.5 -153.5t114.5 -102.5t77 -67.5t57 -49.5l-61 -70l-360 318q-94 -84 -154.5 -137.5t-98.5 -88t-60.5 -56t-41.5 -38.5z" />
<glyph unicode="&#x2dc;" horiz-adv-x="1312" d="M-74 1391q12 20 37 61t62.5 82t90 71.5t117.5 34.5q78 4 152 -34.5t174 -110.5q27 -18 56.5 -34.5t64.5 -14.5h2q45 2 82 25.5t64.5 55.5t48 63.5t30.5 49.5q16 -10 30.5 -18t35.5 -18q-14 -27 -41 -69t-66 -83t-90 -70.5t-112 -31.5h-11q-74 4 -134 34.5t-111.5 66.5 t-99.5 64.5t-97 28.5q-45 0 -82 -21.5t-64.5 -50t-47 -61.5t-27.5 -53z" />
<glyph unicode="&#x2000;" horiz-adv-x="1173" />
<glyph unicode="&#x2001;" horiz-adv-x="2347" />
<glyph unicode="&#x2002;" horiz-adv-x="1173" />
<glyph unicode="&#x2003;" horiz-adv-x="2347" />
<glyph unicode="&#x2004;" horiz-adv-x="782" />
<glyph unicode="&#x2005;" horiz-adv-x="586" />
<glyph unicode="&#x2006;" horiz-adv-x="391" />
<glyph unicode="&#x2007;" horiz-adv-x="391" />
<glyph unicode="&#x2008;" horiz-adv-x="293" />
<glyph unicode="&#x2009;" horiz-adv-x="469" />
<glyph unicode="&#x200a;" horiz-adv-x="130" />
<glyph unicode="&#x2010;" horiz-adv-x="1214" d="M23 557v96h761v-96h-761z" />
<glyph unicode="&#x2011;" horiz-adv-x="1214" d="M23 557v96h761v-96h-761z" />
<glyph unicode="&#x2012;" horiz-adv-x="1214" d="M23 557v96h761v-96h-761z" />
<glyph unicode="&#x2013;" horiz-adv-x="1509" d="M18 557v96q141 0 271.5 -1t271.5 -1h543v-94h-1086z" />
<glyph unicode="&#x2014;" horiz-adv-x="2045" d="M12 557v96q211 0 408.5 -1t408.5 -1h811v-94h-1628zM1640 498l62 22l-8 37h-54v-59z" />
<glyph unicode="&#x2018;" horiz-adv-x="700" d="M35 1589h158q-16 -129 -25.5 -213t-16 -141t-10.5 -93t-6 -69h-63z" />
<glyph unicode="&#x2019;" horiz-adv-x="700" d="M35 1589h158q-16 -129 -25.5 -213t-16 -141t-10.5 -93t-6 -69h-63z" />
<glyph unicode="&#x201a;" horiz-adv-x="759" d="M-31 -283l142 525h186q-61 -141 -116.5 -273.5t-117.5 -273.5q-23 4 -39 8t-38 10q-8 0 -17 4z" />
<glyph unicode="&#x201c;" horiz-adv-x="1126" d="M25 1589h161q-14 -129 -23 -213t-15.5 -141t-10.5 -93t-6 -69h-63zM489 1589h158q-16 -129 -25.5 -213t-15.5 -141t-10 -93t-6 -69h-64z" />
<glyph unicode="&#x201d;" horiz-adv-x="1126" d="M25 1589h161q-14 -129 -23 -213t-15.5 -141t-10.5 -93t-6 -69h-63zM489 1589h158q-16 -129 -25.5 -213t-15.5 -141t-10 -93t-6 -69h-64z" />
<glyph unicode="&#x2022;" horiz-adv-x="768" d="M0 606q0 59 40 98t95 39q57 0 98 -39t41 -98q0 -55 -40.5 -94t-98.5 -39q-55 0 -95 39t-40 94z" />
<glyph unicode="&#x2026;" horiz-adv-x="2508" d="M-55 80q0 57 40 97t95 40q57 0 97 -40t40 -97q0 -55 -40 -95t-97 -40q-55 0 -95 40t-40 95zM854 80q0 57 40 97t95 40q57 0 97 -40t40 -97q0 -55 -39.5 -95t-97.5 -40q-55 0 -95 40t-40 95zM1765 80q0 57 40 97t96 40q55 0 96 -40t41 -97q0 -55 -41 -95t-96 -40t-95.5 40 t-40.5 95z" />
<glyph unicode="&#x202f;" horiz-adv-x="469" />
<glyph unicode="&#x2039;" horiz-adv-x="1032" d="M-27 557v88q154 109 302.5 213.5t302.5 210.5v-119l-510 -350l510 -344v-121q-158 111 -302.5 212.5t-302.5 209.5z" />
<glyph unicode="&#x203a;" horiz-adv-x="1032" d="M25 135v121l510 344l-510 350v119q160 -113 303 -213t303 -211v-88z" />
<glyph unicode="&#x205f;" horiz-adv-x="586" />
<glyph unicode="&#x20ac;" horiz-adv-x="1714" d="M-129 508v98h242q-8 53 -10.5 92t-2.5 68v68h-229v98h242q20 137 74.5 256t138.5 205t197.5 135t254.5 49q158 0 284 -69.5t218 -202.5h-145q-68 80 -153 128t-204 48q-92 0 -179 -36t-158.5 -104.5t-125 -171t-77.5 -237.5h651v-98h-662v-68q0 -37 2 -77t7 -83h653v-98 h-633q35 -111 90 -196t123 -141t146.5 -86t162.5 -30q113 0 202 51.5t155 122.5h145q-92 -131 -218 -201.5t-284 -70.5q-129 0 -235.5 41t-188.5 113.5t-138 174t-87 222.5h-258z" />
<glyph unicode="&#x25fc;" horiz-adv-x="1167" d="M0 0v1167h1167v-1167h-1167z" />
</font>
</defs>
</svg>
