<?xml version="1.0" standalone="no"?>
<!DOCTYPE svg PUBLIC "-//W3C//DTD SVG 20010904//EN"
 "http://www.w3.org/TR/2001/REC-SVG-20010904/DTD/svg10.dtd">
<svg version="1.0" xmlns="http://www.w3.org/2000/svg"
 width="270.000000pt" height="270.000000pt" viewBox="0 0 270.000000 270.000000"
 preserveAspectRatio="xMidYMid meet">
<metadata>
Created by potrace 1.11, written by Peter Selinger 2001-2013
</metadata>
<g transform="translate(0.000000,270.000000) scale(0.100000,-0.100000)"
fill="#000000" stroke="none">
<path d="M0 1350 l0 -1350 1350 0 1350 0 0 1350 0 1350 -1350 0 -1350 0 0
-1350z m440 605 c5 -538 4 -523 69 -597 17 -19 55 -46 83 -59 46 -21 68 -24
173 -23 92 0 129 4 158 17 57 27 112 82 138 140 24 52 24 52 27 535 l4 483 86
-3 87 -3 3 -465 c3 -495 0 -543 -44 -636 -27 -58 -110 -141 -170 -172 -79 -40
-162 -56 -294 -56 -188 0 -287 32 -386 125 -62 59 -99 137 -114 235 -11 78
-14 957 -3 968 4 4 46 5 93 4 l85 -3 5 -490z m1745 472 c110 -36 192 -115 236
-227 17 -42 22 -76 22 -145 0 -148 -45 -243 -147 -312 -87 -59 -126 -66 -388
-71 l-238 -4 0 -269 0 -270 -92 3 -93 3 -3 645 c-1 355 0 651 3 658 8 22 631
12 700 -11z"/>
<path d="M1670 2050 l0 -230 193 0 c217 0 274 10 331 61 51 44 70 102 64 194
-6 97 -37 146 -111 181 -50 23 -61 24 -264 24 l-213 0 0 -230z"/>
</g>
</svg>
