<?xml version="1.0" standalone="no"?>
<svg id="SvgjsSvg1001" width="600" height="600" xmlns="http://www.w3.org/2000/svg" version="1.1" xmlns:xlink="http://www.w3.org/1999/xlink" xmlns:svgjs="http://svgjs.com/svgjs" class="svg-paper" viewBox="0 0 600 600"><title id="SvgjsTitle2519">x=cos(y)|y=min(x,y)*cos(x)|dTest=0.1|sd=0.2|sm=0.45|ts=0.01 | generated with FlowLines</title><g id="SvgjsG2520"><polyline id="SvgjsPolyline2521" points="8.9,0.47 12.92,11.76 13.34,19.5 10.08,30.4 0.05,54.82" fill="none" stroke="#000000" stroke-width="1"/><polyline id="SvgjsPolyline2522" points="14.22,2.44 15.75,3.36 17.52,3.38 21.63,0" fill="none" stroke="#000000" stroke-width="1"/><polyline id="SvgjsPolyline2523" points="0,10.18 0.03,23.96" fill="none" stroke="#000000" stroke-width="1"/><polyline id="SvgjsPolyline2524" points="79.84,599.95 80.37,580.76 79.43,562.19 77.24,545.54 73.59,528.53 67.81,508.97 60.57,488.62 31.94,418.66 28.49,407.79 26.88,398.95 27.28,387.59 30.91,373.67 59.7,302.48 71.76,266.67 75.83,250.37 78.53,235.62 80.11,221.91 80.74,206.93 80.2,191.94 78.06,174.08 74.89,158.19 69.88,139.66 58.97,108.53 32.43,45.49 26.35,27.92 25.14,20.83 25.14,14.84 26.27,7.74 28.43,0.24" fill="none" stroke="#000000" stroke-width="1"/><polyline id="SvgjsPolyline2525" points="37.94,68.75 26.76,49.59 22.38,44.68 18.67,42.82 14.58,43.38 10.48,46.84 5.96,53.19 0.21,63.71" fill="none" stroke="#000000" stroke-width="1"/><polyline id="SvgjsPolyline2526" points="67.82,599.76 68.47,584.78 68.18,571.58 66.86,557.25 64.55,543.65 61.35,530.84 56.95,517.13 50.72,501.54 44.69,489.13 38.63,478.77 32.21,470.1 27.08,465.06 21.4,461.75 16.09,461.07 10.99,462.74 5.79,466.77 0.11,473.74" fill="none" stroke="#000000" stroke-width="1"/><polyline id="SvgjsPolyline2527" points="91.89,599.48 92.39,580.89 91.85,565.91 90.4,550.98 87.91,535.58 81.87,511.12 64.37,456.25 58.64,436.05 54.4,414.88 52.9,393.95 54.4,373.62 58.64,352.45 64.19,332.82 81.87,277.37 88.99,248.86 92.88,221.55 93.5,207.77 93.16,193.97 90.68,171.92 85.91,149.02 79.24,125.35 62.75,73.93 56.21,48.36 54.06,35.34 53.01,22.78 53,11.99 53.96,0.03" fill="none" stroke="#000000" stroke-width="1"/><polyline id="SvgjsPolyline2528" points="73.33,599.48 73.88,583.89 73.37,568.3 71.7,552.8 69.07,538.64 64.9,522.99 59.75,507.63 53.3,491.48 45.4,474.64 38.43,462.04 32.08,452.58 26.07,445.9 20.51,442.42 15.78,441.97 10.86,444.09 5.27,449.5 0.13,456.87" fill="none" stroke="#000000" stroke-width="1"/><polyline id="SvgjsPolyline2529" points="49.28,473.39 40.88,456.13 32.91,442.03 26.97,433.75 21.12,428.65 18.3,427.65 15.92,427.7 11.21,430.23 6.1,436.1 0.18,445.83" fill="none" stroke="#000000" stroke-width="1"/><polyline id="SvgjsPolyline2530" points="84.78,599.58 85.27,581.59 84.71,566.61 83.03,550.5 80.07,533.96 71.32,502.78 52.24,449.07 46.2,430.22 41.84,410.91 40.47,393.59 41.86,377.46 46.3,358.18 71.04,286.75 80.17,254.43 83.47,237.35 85.27,222.46 85.98,206.28 85.49,191.89 82.55,168.69 76.1,141.25 68.32,116.65 49.44,63.51 43.69,43.32 41.57,32.12 40.58,21.97 40.62,11.77 41.87,0.45" fill="none" stroke="#000000" stroke-width="1"/><polyline id="SvgjsPolyline2531" points="35.06,437.9 24.7,420.35 20.95,416.5 17.59,415.33 14.22,416.36 10.8,419.71 1.44,435.75" fill="none" stroke="#000000" stroke-width="1"/><polyline id="SvgjsPolyline2532" points="26.34,414.8 20.75,404.19 19.31,402.28 17.73,401.54 16.15,402.34 13.85,405.09 7.45,417.31" fill="none" stroke="#000000" stroke-width="1"/><polyline id="SvgjsPolyline2533" points="0.21,356.05 15.84,391.78 16.38,394.7 15.29,398.12" fill="none" stroke="#000000" stroke-width="1"/><polyline id="SvgjsPolyline2534" points="7.49,362.74 11.09,367.53 14.91,370.37 18.43,370.38 22.01,368.23 26.33,363.25 30.86,356.18 43.05,332.77" fill="none" stroke="#000000" stroke-width="1"/><polyline id="SvgjsPolyline2535" points="0.13,328.99 5.08,335.77 9.39,339.93 14.17,342.37 18.92,342.44 23.8,340.19 28.73,335.83 34.35,328.8 39.84,320.21 46.96,307.01 53.47,292.84 59.39,277.76 64.41,262.36 68.02,248.42 70.8,233.68 72.37,219.98 72.92,206.79 72.48,193 70.84,178.09 68.34,164.53 64.82,150.56 59.28,133.44 53.58,118.92 47.08,104.74 39.98,91.53 34.12,82.47 28.8,75.97 23.77,71.73 19.38,69.85 14.62,69.98 10.33,72.07 5.11,77.01 0.18,83.8" fill="none" stroke="#000000" stroke-width="1"/><polyline id="SvgjsPolyline2536" points="49.64,100.84 41.1,83.65 34.13,71.74 27.67,63.1 22.16,58.52 19.35,57.49 16.36,57.4 11.44,59.47 5.98,65 0.06,74.03" fill="none" stroke="#000000" stroke-width="1"/><polyline id="SvgjsPolyline2537" points="55.81,599.46 56.46,576.09 55.6,564.72 53.77,552.87 47.75,531.52 43.34,521.01 38.51,512.03 33.72,505.14 28.8,499.9 23.89,496.48 18.77,494.86 14,495.19 9.12,497.44 4.58,501.33 0.11,506.97" fill="none" stroke="#000000" stroke-width="1"/><polyline id="SvgjsPolyline2538" points="61.78,599.5 62.16,573.13 60.94,559.99 58.8,547.57 55.84,535.94 51.67,523.42 46.79,511.81 41.82,502.23 36.27,493.68 31.23,487.73 25.68,483.16 20.21,480.76 14.86,480.64 10.38,482.31 5.16,486.33 0.16,492.3" fill="none" stroke="#000000" stroke-width="1"/><polyline id="SvgjsPolyline2539" points="103.91,599.56 103.98,567.78 100.67,538.58 94.81,512.23 79.72,461.64 73.77,438.39 69.82,415.33 68.57,393.78 69.93,372.24 74.37,347.44 79.81,326.54 95.88,272.48 102.08,246.21 105.56,220.66 105.86,195.48 103.77,175.19 99.4,152.82 93.4,130.21 78.47,80.19 72.35,54.52 70.06,40.3 68.85,27.16 68.6,13.97 69.4,0.19" fill="none" stroke="#000000" stroke-width="1"/><polyline id="SvgjsPolyline2540" points="0.02,371.37 2.45,383.11 3.23,392.67 2.51,404.04 0.03,416.39" fill="none" stroke="#000000" stroke-width="1"/><polyline id="SvgjsPolyline2541" points="0.1,339.21 5.27,347.29 10.08,352.63 14.18,355.07 18.92,355.28 23.23,353.22 27.98,348.67 32.65,342.42 38.88,332.17" fill="none" stroke="#000000" stroke-width="1"/><polyline id="SvgjsPolyline2542" points="0.14,312.55 5.11,318.55 9.77,322.3 14.71,324.42 19.48,324.48 23.96,322.82 29.22,318.87 34.43,313.07 39.58,305.69 45.79,294.73 51.4,282.79 60.64,256.8 63.97,243.41 66.27,230.41 67.59,217.89 68.01,204.7 66.14,180.19 63.78,167.2 60.39,153.83 55.51,139.01 50.31,126.23 44.53,114.37 38.76,104.54 33.48,97.25 28.55,92.02 23.68,88.54 18.57,86.88 13.83,87.32 9.52,89.4 4.57,93.73 0.1,99.37" fill="none" stroke="#000000" stroke-width="1"/><polyline id="SvgjsPolyline2543" points="43.71,599.55 44.76,579.2 43.05,562.5 38.2,545.2 34.97,538.1 31.2,531.98 27.28,527.45 22.94,524.26 18.99,522.9 14.82,523.04 10.96,524.65 6.83,528.1 3.18,532.86 0.01,538.64" fill="none" stroke="#000000" stroke-width="1"/><polyline id="SvgjsPolyline2544" points="49.98,599.6 50.76,578.63 48.47,557.77 43.06,538.75 35.65,523.7 31.37,517.92 26.56,513.42 21.83,510.84 17.14,509.97 12.47,510.95 7.89,513.77 3.73,518.08 0.02,523.53" fill="none" stroke="#000000" stroke-width="1"/><polyline id="SvgjsPolyline2545" points="115.92,599.61 116,567.82 112.83,539.21 106.71,511.08 92.96,464.47 87.11,441.2 82.9,415.75 81.72,392.4 83.26,369.66 87.78,344.27 93.64,321.62 109.5,268.12 115.39,243.01 118.58,219.24 118.78,195.26 116.81,176.77 112.62,155.58 91.71,82.94 85.58,56.65 82.05,28.69 81.72,15.5 82.44,0.52" fill="none" stroke="#000000" stroke-width="1"/><polyline id="SvgjsPolyline2546" points="0.11,296.22 4.33,301.28 8.96,305.09 13.84,307.35 18.59,307.74 23.19,306.44 27.76,303.58 32.12,299.47 37.31,292.87 42.34,284.71 47.43,274.51 55.63,251.97 60.54,229.11 62.22,206.99 61.78,193.8 60.55,182.47 55.98,160.76 47.71,137.62 38.03,119.69 32.97,112.99 27.82,107.97 23.26,105.09 18.67,103.77 14.5,103.99 9.54,106.08 4.9,109.86 0.3,115.38" fill="none" stroke="#000000" stroke-width="1"/><polyline id="SvgjsPolyline2547" points="31.43,599.77 32.94,590.9 33.38,582.52 32.87,574.14 31.29,565.89 28.69,558.55 25.34,552.88 21.41,549.22 17.45,547.98 13.44,549.04 9.86,552.19 6.45,557.82 3.86,565.17 2.28,573.41 1.7,582.39 2.19,591.37 3.68,599.63" fill="none" stroke="#000000" stroke-width="1"/><polyline id="SvgjsPolyline2548" points="38.26,599.64 39.54,583.51 38.11,566.79 33.77,551.84 30.52,545.42 27.34,541.06 23.78,537.87 19.97,536.14 16.4,535.85 12.43,537.13 8.7,540.12 5.13,544.93 0.04,557.07" fill="none" stroke="#000000" stroke-width="1"/><polyline id="SvgjsPolyline2549" points="127.94,599.65 128.18,570.87 125.06,541.05 118.72,511.74 104.76,465.19 98.71,441.35 94.61,416.5 93.37,393.14 95.01,368.61 99.99,341.48 106.39,317.73 122.81,265.03 129.01,239.99 132.09,218.02 132.29,196.44 130.38,179.15 126.24,159.18 104.7,87.98 97.58,58.84 95.08,43.45 93.76,29.71 93.38,15.32 94.09,0.34" fill="none" stroke="#000000" stroke-width="1"/><polyline id="SvgjsPolyline2550" points="0.19,279.65 3.9,284.36 7.89,287.98 12.6,290.6 16.69,291.46 20.84,290.96 25.21,289 29.9,285.28 34.25,280.33 38.91,273.35 43.09,265.38 50.19,246.28 54.27,227.53 55.89,206.61 54.43,185.08 50.17,165.15 43.05,146.05 34.56,131.58 30.27,126.58 26.14,123.11 21.9,120.88 17.2,120.04 13.08,120.74 8.82,122.92 4.35,126.89 0.29,132.09" fill="none" stroke="#000000" stroke-width="1"/><polyline id="SvgjsPolyline2551" points="19.76,596.98 21.86,594.08 23.28,590.13 24.05,580.01 21.71,571.38 19.45,568.61 17.23,567.83 14.56,569.04 12.07,573.09 10.68,578.91 10.52,584.9 11.7,591.38 13.79,595.68 16.64,597.75 19.45,596.99" fill="none" stroke="#000000" stroke-width="1"/><polyline id="SvgjsPolyline2552" points="139.95,599.73 140.16,569.74 136.88,541.15 130.38,512.49 114.85,462.66 108.87,439.42 104.94,415.15 103.85,391.18 105.92,365.49 111.23,339.02 119.18,311.98 136.73,260.91 143.03,238.38 146.42,217.67 146.77,198.49 144.69,181.23 140,161.38 116.41,90.83 108.62,61.25 105.9,45.89 104.31,30.98 103.83,15.99 104.56,0.41" fill="none" stroke="#000000" stroke-width="1"/><polyline id="SvgjsPolyline2553" points="0.19,261.94 3.55,266.91 7.24,270.84 11.71,273.84 15.11,274.98 19.29,275 23.25,273.65 27.22,270.96 31,267.12 38.35,255.47 44.32,239.79 47.98,222.19 49.05,204.83 47.64,186.9 43.62,169.38 37.52,154.39 30.19,143.45 26.25,139.76 22.13,137.34 18.66,136.41 14.49,136.66 10.62,138.26 6.83,141.18 0.05,150.29" fill="none" stroke="#000000" stroke-width="1"/><polyline id="SvgjsPolyline2554" points="151.97,599.86 152.59,585.47 152.29,571.08 149.1,544.28 141.8,513.96 124.45,461.57 118.57,440.16 114.16,414.15 113.18,388.99 115.44,364.51 120.83,339.29 130.8,308.48 151.08,257.78 157.7,239.13 162.46,218.7 163.3,209.74 163.21,200.14 161.12,185.3 156.66,169.12 129.83,100.38 123.88,82.76 119.38,66.57 115.75,48.95 113.71,32.28 113.11,16.09 113.86,0.51" fill="none" stroke="#000000" stroke-width="1"/><polyline id="SvgjsPolyline2555" points="0.09,240.93 5.86,251.41 12.12,256.92 15.49,258.14 19.07,258.14 22.44,256.93 25.41,254.9 31.78,246.99 37.11,234.94 40.59,219.76 41.56,204.8 40.31,189.87 36.89,175.9 31.73,164.43 28.28,159.52 24.86,156.16 21.82,154.26 18.37,153.26 14.8,153.51 11.51,154.93 8.25,157.57 5.21,161.28 0.05,171.41" fill="none" stroke="#000000" stroke-width="1"/><polyline id="SvgjsPolyline2556" points="164.03,599.47 164.54,573.69 163.5,561.74 161.33,548.11 153.43,517.95 132.85,460.32 126.75,439.6 123.9,426.1 121.93,411.84 121.1,398.07 121.34,384.28 122.8,369.35 125.43,354.59 129.11,340.05 134.29,324.07 141.33,306.21 150.1,287.13 182.51,224.88 186.38,212.91 186.98,202.76 185.21,193.96 181.31,183.89 148.02,120.06 139.25,100.33 131.39,78.93 126.09,59.86 122.34,38.6 121.07,19.45 121.87,0.27" fill="none" stroke="#000000" stroke-width="1"/><polyline id="SvgjsPolyline2557" points="11.26,236.55 14.17,238.64 17.66,239.34 21.07,238.27 23.87,236.03 27.03,231.67 29.3,226.78 32.44,213.37 32.59,199.6 29.81,186.11 27.45,180.6 24.45,176.12 21.3,173.37 17.93,172.19 15.55,172.37 12.85,173.63 8.16,179.03 4.53,187.88 2.63,197.89 2.26,208.68 3.76,220.57 6.97,230.23 10.92,236.21" fill="none" stroke="#000000" stroke-width="1"/><polyline id="SvgjsPolyline2558" points="176.03,599.87 176.97,588.51 176.88,575.31 175.72,563.97 173.51,552.18 164.91,523.46 140.41,460.89 134.54,443.25 131.22,429.85 128.82,415.66 127.6,401.31 127.56,388.12 129.35,369.01 132.9,351.37 138.64,332.43 146.29,313.53 156.07,294.27 166.85,276.96 178.3,262.32 188.84,252.55 194.99,248.82 201.82,246.62 208.4,246.43 214.83,247.87 227.25,253.83 253.91,271.16 267.49,278.82 280.81,284.26 293.7,287 302.09,287.3 311.02,286.31 369.44,270.26 383.03,267.88 396.2,267.24 406.37,267.99 418.19,270.06 471.92,285.06 504.9,291.41 523.98,293.57 546.13,295.06 599.51,295.71" fill="none" stroke="#000000" stroke-width="1"/><polyline id="SvgjsPolyline2559" points="149.51,297.91 164.69,270.67 180.84,247.57 187.59,239.92 194.3,233.94 200.01,230.67 205.26,229.54 211.16,230.47 218.66,234.21 250.07,258.31 264.61,267.84 277.59,274.06 289.1,277.39 296.83,278.35 304.63,278.25 318.7,275.37 334.63,268.42 376.33,245.91 387.16,242.42 396.11,241.76 404.96,243.3 414.48,246.94 452.91,267.93 472.53,276.94 491.83,283.53 512.87,288.38" fill="none" stroke="#000000" stroke-width="1"/><polyline id="SvgjsPolyline2560" points="177.56,245.24 187.83,230.46 197.08,218.66 202.68,213.26 206.63,212.26 212.54,216.24 231.36,235.6 243.63,247.07 253.87,255.4 263.77,262.17 274.89,268.08 285.04,271.72 295.66,273.59 305.85,273.45 319.84,270.19 333.93,263.55 353.14,250.21 383.25,225.44 389.51,221.91 395.39,221.02 399.98,222.33 405.14,225.37 438.6,252.69 460.58,267.27" fill="none" stroke="#000000" stroke-width="1"/><polyline id="SvgjsPolyline2561" points="199.2,210.79 200.18,205.53 198.11,199.3 177.6,167.57" fill="none" stroke="#000000" stroke-width="1"/><polyline id="SvgjsPolyline2562" points="473.5,0.39 474.22,21.36 472.18,43.45 467.15,66.29 459.4,89 447.59,114.59 434.19,137.32 420.08,155.97 414.21,161.97 407.59,167.13 402.25,169.84 397.01,171.09 391.63,170.97 385.84,169.44 375.17,163.99 346.44,144.36 330.8,135.48 315.05,129.71 306.78,128.25 299.59,127.93 285.94,129.76 271.29,135.05 256.11,143.52 221.88,166.79 213.12,170.67 206.03,171.72 199.56,170.57 192.62,167.05 185.21,160.97 177.48,152.59 169.47,142.1 161.56,130.07 153.79,116.55 146.05,100.97 135.77,74.72 129.21,49.17 126.41,25.35 126.26,13.36 127.08,0.19" fill="none" stroke="#000000" stroke-width="1"/><polyline id="SvgjsPolyline2563" points="17.45,224.04 20.62,222.51 23.29,218.56 25.18,212.25 25.74,205.08 24.92,197.94 23.23,192.82 20.52,188.9 17.31,187.46 14.08,188.84 11.39,192.77 9.62,198.49 8.94,205.05 9.47,212.22 11.3,218.54 13.93,222.53 17.1,224.05" fill="none" stroke="#000000" stroke-width="1"/><polyline id="SvgjsPolyline2564" points="188.06,599.95 189.53,589.86 189.8,579.67 188.8,570.13 186.6,560.18 177.67,534.71 150.32,472.02 140.41,446.27 136.8,433.58 134.14,420.65 132.61,408.75 131.95,395.57 132.82,377.6 135.54,360.42 139.97,343.6 146.18,326.71 154.74,308.87 164.11,293.51 174.46,280.29 183.61,271.65 191.14,266.75 198.41,263.97 206.14,263.07 214.45,264.2 221.29,266.43 229.46,270.19 257.56,286.31 271.54,293.22 283.43,297.36 295.23,299.42 402.03,298.94 574.82,299.85" fill="none" stroke="#000000" stroke-width="1"/><polyline id="SvgjsPolyline2565" points="172.57,275.9 181.67,266.35 189.84,260.27 198.67,256.59 207.01,255.88 214.66,257.28 224.13,261.05 257.75,280.79 269.51,286.78 280.73,291.01 291.27,293.32 305.04,293.6 368.08,285.23 382.43,284.05 397.42,283.75 421.96,285.4 473.68,292.47 505.32,295.54" fill="none" stroke="#000000" stroke-width="1"/><polyline id="SvgjsPolyline2566" points="277.36,278.8 285.98,281.37 294.86,282.74 303.86,282.75 312.16,281.52 327.56,276.55 371.51,258.82 383.13,255.88 393.87,254.85 405.21,255.86 416.25,258.67 464.16,277.8" fill="none" stroke="#000000" stroke-width="1"/><polyline id="SvgjsPolyline2567" points="496.97,0.2 497.66,15.78 497.02,32.56 495.19,48.05 491.65,66.31 483.07,96.92 459.41,166.19 453.83,188.28 452.45,198.98 452.32,209.18 453.39,218.11 456.08,227.94 459.16,235.09 463.72,242.85 474.56,255.64 488.19,266.42 505.14,275.39 525.04,282.02 547.43,286.26 573.74,288.3 599.53,287.96" fill="none" stroke="#000000" stroke-width="1"/><polyline id="SvgjsPolyline2568" points="470.63,599.95 471.1,580.16 469.99,559.2 467.2,538.99 462.76,519.09 456.41,498.45 447.68,476.1 436.75,452.73 418.24,417.05 413.96,407.14 412.14,400.8 411.52,394.24 412.19,388.89 414.3,382.65 418.34,375.29 425.15,366.16 433.71,356.92 443.48,348.05 454.44,339.66 464,333.46 475.06,327.44 485.47,322.79 507.13,315.73 533.65,310.74 565.93,308.16 599.53,308.19" fill="none" stroke="#000000" stroke-width="1"/><polyline id="SvgjsPolyline2569" points="451.58,115.61 438.97,139.47 422.61,166.03 406.2,188.96 400.29,195.74 396.42,198.52 392.9,198.41 388.89,195.82 357.97,165.67 347.31,156.91 335.92,149.13 325.29,143.58 316.27,140.32 306.86,138.43 296.68,138.21 284.89,140.33 272.07,145.39 258.73,153.44 245.1,164.24 228.41,180.63 215.85,195.92 213.15,200.59 211.92,204.59 212.16,208.16 213.49,211.5" fill="none" stroke="#000000" stroke-width="1"/><polyline id="SvgjsPolyline2570" points="225.85,212.63 229.95,221.94 237.96,233.16 249.13,244.87 260.73,254.37 271.41,261.04 281.84,265.61 292.32,268.19 303.09,268.66 314.31,266.8 324.99,262.84 336.45,256.32 348.77,246.77 359.81,235.75 368.9,223.84 373.86,213.61 375.12,204.75 372.97,195.44 366.78,184.5 357.24,172.94 344.49,161.11 332.22,152.51 320.38,146.7 309.43,143.6 297.48,142.81 285.08,144.88 272.83,149.73 259.59,157.96 246.8,168.84 235.94,180.84 228.42,192.38 226.13,197.92 225.07,202.6 224.92,207.39 225.71,212.12" fill="none" stroke="#000000" stroke-width="1"/><polyline id="SvgjsPolyline2571" points="375.74,226.1 383.64,216.29 387.39,209.48 387.99,204.18 385.74,198.65" fill="none" stroke="#000000" stroke-width="1"/><polyline id="SvgjsPolyline2572" points="400.96,200.7 399.94,205.35 401.35,210.52 405.09,216.66 412.67,225.96" fill="none" stroke="#000000" stroke-width="1"/><polyline id="SvgjsPolyline2573" points="480.01,0.13 480.75,19.31 479.59,37.27 476.61,55.62 471.53,75.37 465.13,94.1 457.38,112.97 425.12,180.66 420.79,193.12 419.21,201.97 419.3,209.16 420.76,216.2 423.67,223.43 428.2,231.2 434.36,239.32 441.72,247.22 450.65,255.23 459.75,262.1" fill="none" stroke="#000000" stroke-width="1"/><polyline id="SvgjsPolyline2574" points="227.52,175.63 214.94,185.81 210.68,188.02 207.19,188.84 203.02,188.51 199.18,186.85 194.4,183.23 189.36,178.1" fill="none" stroke="#000000" stroke-width="1"/><polyline id="SvgjsPolyline2575" points="461.44,0.38 462.39,18.94 460.93,38.07 457.22,56.29 450.96,75.06 442.74,92.4 432.31,108.5 421.86,120.05 416.27,124.59 410.65,128.04 403.99,130.74 397.52,131.99 389.73,131.87 382.68,130.45 368.74,124.97 340.27,109.51 326.71,103.11 312.41,98.66 298.7,97.37 287.39,98.7 275.89,102.1 262.21,108.23 235.9,122.63 225.61,127.53 215.38,130.95 205.27,132.14 198.72,131.42 191.87,129.24 185.54,125.82 178.88,120.72 172.12,113.91 166.13,106.41 155.19,88.51 146.04,66.99 140.32,45.56 137.71,22.93 138.59,0.17" fill="none" stroke="#000000" stroke-width="1"/><polyline id="SvgjsPolyline2576" points="467.59,0.58 468.34,20.95 466.41,41.85 461.72,62.92 455.27,81.63 445.85,101.72 434.11,120.55 422.07,134.69 416.68,139.46 410.23,143.84 404.23,146.56 397.81,148.04 390.63,148.04 383.59,146.59 370.33,141.03 341.16,124.34 327.12,117.57 312.23,112.98 298.52,111.76 287.21,113.09 274.03,117.11 259.39,124.04 224.85,143.38 214.71,147.06 205.81,148.25 199.26,147.55 192.46,145.22 185.26,140.93 178.4,135.12 171.48,127.62 164.26,118.05 157.52,107.41 151,95.24 141.37,71.97 135.02,48.23 133.16,36.38 132.14,23.82 132.9,0.45" fill="none" stroke="#000000" stroke-width="1"/><polyline id="SvgjsPolyline2577" points="415.25,169.71 408.13,177.01 402.28,181.19 396.63,183.09 390.09,182.62 385.1,180.58 378.04,176.04 347.37,151.96" fill="none" stroke="#000000" stroke-width="1"/><polyline id="SvgjsPolyline2578" points="200.31,599.65 203.18,595.81 205.78,594.49 208.37,595.85 211.22,599.7" fill="none" stroke="#000000" stroke-width="1"/><polyline id="SvgjsPolyline2579" points="199.57,593.76 201.84,584.46 200.64,575.59 194.36,560.02 179.95,529.67" fill="none" stroke="#000000" stroke-width="1"/><polyline id="SvgjsPolyline2580" points="185.35,376.99 189.45,370.38 194.76,365.56 201.36,362.8 207.33,362.54 214.78,364.73 221.28,369 226.93,375.19 230.21,381.58 231.99,389.16 232.06,397.54 230.34,406.36 226.98,414.69 222.38,421.7 216.72,427.04 210.82,429.93 204.88,430.5 198.59,428.63 192.36,423.99 187.21,417.38 183.42,409.24 181.4,399.87 181.3,390.88 182.94,382.05 185.87,374.84 190.37,368.49 195.5,364.37 201.65,362.08 208.22,361.99 215.06,364.15 222.02,368.81 227.26,374.56 231.03,382.04 232.67,389.65 232.5,399.22 230.69,407.41 226.93,416.23 222.16,423.13 216.87,427.99 210.98,430.89 204.44,431.45 198.19,429.45 191.58,424.33 186.54,417.63 182.63,408.89 180.81,400.09 180.72,390.5 182.39,381.67 185.58,373.92 190.14,367.62 195.81,363.23 202.03,361.1 208.6,361.14 215.96,363.62 222.39,368 228.38,374.68 231.81,381.66 233.54,389.86 233.41,398.85 231.17,408.78 227.57,417.02 222.85,423.95 217.15,429.24 210.69,432.35 204.75,432.85 197.92,430.72 191.72,426.03 185.9,418.43 182.15,410.26 180.06,400.91 179.82,391.33 181.59,381.3 185.01,373 189.99,366.26 195.72,361.95 201.95,359.86 209.12,359.98 216.99,362.82 223.81,367.69 229.34,373.98 233.01,381.51 234.76,390.31 234.67,398.1 232.66,408.09 229.06,416.97 223.84,425.01 217.79,430.81 211.41,434.07 204.89,434.78 197.5,432.47 190.88,427.34 185.11,419.7 181.11,410.99 178.91,401.05 178.7,390.86 180.47,380.84 184.38,371.44 189,365.18 195.14,360.42 201.93,358.13 209.69,358.35 217.54,361.24 225.3,366.84 231.12,373.68 234.67,381.27 236.39,390.08 236.15,399.66 233.96,409.61 229.75,419.54 224.41,427.5 218.35,433.28 212.01,436.63 204.91,437.5 197.49,435.27 190.35,429.85 184.16,421.76 179.64,411.98 177.26,400.85 177.2,389.47 179.11,379.47 183.33,369.56 188.8,362.44 195.08,357.87 202.5,355.6 210.26,355.99 219.17,359.46 227.32,365.55 233.11,372.41 237.1,381.11 238.82,391.14 238.32,401.31 236,411.23 231.56,421.71 225.97,430.22 219.6,436.56 212.84,440.38 205.18,441.51 201.05,440.77 196.63,438.91 189.11,433.01 181.7,422.86 177.22,412.4 174.91,400.65 175.01,388.07 177.35,376.93 182,366.55 187.96,359.06 195.35,354 203.45,351.95 211.78,352.74 221.67,356.99 231.04,364.44 236.94,371.98 240.83,381.37 242.36,392.04 241.65,402.8 238.56,415 233.41,426.49 227.39,435.44 220.13,442.57 212.79,446.58 204.52,447.59 199.84,446.56 195.49,444.55 186.78,437.27 178.91,425.97 173.88,413.79 171.44,400.23 171.81,385.87 174.62,373.6 180.27,361.71 187.24,353.51 195.34,348.43 204.69,346.52 214.15,347.92 220.27,350.36 225.98,353.67 236.49,362.56 242.47,370.79 246.48,381.43 247.84,393.32 246.7,405.85 242.92,419.73 236.97,432.83 229.28,444.27 221.16,452.24 212.75,456.77 204.47,457.72 199.21,456.53 193.84,453.88 188.61,449.87 184.02,445.13 179.31,438.92 174.43,430.66 170.98,423.01 168.59,415.58 166.09,400.21 166.71,383.45 170.61,367.76 173.72,360.61 177.37,354.41 185.74,345.05 195.02,339.62 205.01,337.82 210.98,338.35 216.78,339.85 223.95,342.91 230.66,346.88 237.4,351.89 244.47,358.37 251.66,368.67 254.21,374.75 256.05,381.71 257.11,396.04 255.27,410.91 250.61,427.03 243.3,443.46 234.11,458.22 224.09,469.35 219.32,472.98 214.55,475.49 209.96,476.85 205.18,477.14 198.75,475.74 192.4,472.38 185.53,466.59 179.24,459.35 173.14,450.44 167.1,439.39 162.66,428.89 159.48,417.95 157.7,407.91 156.9,397.15 157.18,386.95 158.56,376.25 160.74,366.9 164.05,357.26 168.15,348.58 173.27,340.47 178.68,334.05 184.07,329.29 189.65,325.78 195.76,323.33 202.24,322.12 208.24,322.13 215.32,323.35 222.72,325.81 231.9,330.25 241.1,335.89 254.73,345.71 260.93,351.37 266.18,357.91 270.35,365.2 273.54,373.6 275.45,382.39 276.11,398.55 273.56,416.95 267.73,437.74 258.57,461.21 242.84,493.58 228.27,518.41 222.32,526.7 217.12,532.5 212.38,536.16 207.9,537.8 204.32,537.72 200.4,536.25 196.03,533.1 191.83,528.82 181.58,514.78 169.45,494.07 157.32,469.96 147.49,446.76 141.99,428.38 138.86,410.05 138.02,392.08 139.15,375.93 142.44,358.25 147.33,342.18 154.4,325.64 162.72,311.05 171.71,299.06 182.11,289.13 191.33,283.55 200.5,280.81 210.07,280.67 220,282.91 232.71,288.26 270.91,308.4 281.02,312.17 304.18,318.46 318.83,323.81 337.34,332.37 372.83,351.23 382.35,354.86 390.58,356.51 400.74,356.13 411.11,353.16 423.07,347.59 459.64,328.21 475.11,321.67 490.49,316.58" fill="none" stroke="#000000" stroke-width="1"/><polyline id="SvgjsPolyline2581" points="164.11,300.82 174.68,287.78 184.65,279.17 194.78,274.02 200.02,272.74 205.4,272.35 214.31,273.48 224.53,276.94 264.23,298.09 281.5,304.93 289.69,306.77 319.94,311.34 362.91,319.84 378.95,322.09 394.52,322.87 411.88,321.84 426.72,319.64 486.27,308.46 510.71,305.66 539.44,303.83" fill="none" stroke="#000000" stroke-width="1"/><polyline id="SvgjsPolyline2582" points="509.03,0.43 509.73,14.81 509.42,28.61 508.02,43.54 505.4,59.52 501.25,77.65 495.73,97.29 477.52,153.2 471.8,172.78 467.84,192.77 467.12,210.73 468.65,222.02 472.01,232.9 477.19,243.04 484.39,252.62 492.14,260.13 502.35,267.49 512.94,273.12 525.82,278.05" fill="none" stroke="#000000" stroke-width="1"/><polyline id="SvgjsPolyline2583" points="487.73,0.33 488.44,15.91 487.81,32.1 485.94,47.58 482.68,64.06 478,81.43 471.56,100.79 449.16,158.39 442.59,177.06 438.16,195.72 437.57,210.08 439.38,220.71 443.72,231.88 449.67,241.59 459.05,252.49 468.99,261.17 482.5,270.09 495.97,276.66 510.67,281.85" fill="none" stroke="#000000" stroke-width="1"/><polyline id="SvgjsPolyline2584" points="530.9,0.28 531.66,15.26 531.14,30.25 529.13,46.92 526.01,62.82 517.08,95.2 495.97,157.73 489.44,183.91 487.81,195.8 487.38,205.98 488,215.56 489.49,223.82 494.38,237.33 502.2,249.39 512.5,259.41 525.68,267.71 541.86,274.05 559.43,277.92 579.74,279.58 599.51,278.74" fill="none" stroke="#000000" stroke-width="1"/><polyline id="SvgjsPolyline2585" points="458.61,599.84 459.02,574.06 456.73,548.97 451.73,524.9 443.81,500.99 438.3,488.34 431.94,476.1 425.64,465.89 418.84,456.74 412.28,449.74 406.15,444.94 400.23,442.06 394.33,441.07 388.43,442.01 383,444.53 376.78,449.22 370.15,456.15 363.63,464.75 357.54,474.39 351.05,486.56 345.65,498.61 337.61,521.84 331.88,548.21 329.48,573.88 329.87,599.67" fill="none" stroke="#000000" stroke-width="1"/><polyline id="SvgjsPolyline2586" points="482.68,599.42 483.14,580.23 482.42,562.84 480.45,544.96 477,526.07 472.46,508.04 466.36,488.57 441.23,420.48 437.66,405.3 436.81,391.55 438.19,381.46 441.16,372.34 446.16,362.78 453.3,353.15 462.11,344.16 471.47,336.65 482.09,329.89 495.57,323.33" fill="none" stroke="#000000" stroke-width="1"/><polyline id="SvgjsPolyline2587" points="464.41,599.91 464.68,572.32 461.97,545.47 456,518.54 447.68,494.13 441.48,479.82 434.44,465.9 426.85,452.97 418.66,441.13 410.87,432.01 405.02,426.86 399.27,423.67 393.98,422.74 388.18,424.09 382.1,427.91 375.62,434.15 368.47,443.02 360.79,454.48 353.6,466.96 346.9,480.37 340.31,495.83 331.9,521.47 326.61,546.7 324.12,572.97 324.48,599.96" fill="none" stroke="#000000" stroke-width="1"/><polyline id="SvgjsPolyline2588" points="433.57,456.22 421.98,436.59 409.46,419 400.66,410.03 397.03,407.95 394.09,407.43 391.17,408.07 387.58,410.22 378.88,419.3 367.39,435.41 355.15,456.05" fill="none" stroke="#000000" stroke-width="1"/><polyline id="SvgjsPolyline2589" points="475.77,599.59 476.19,578.6 475.09,558.83 472.45,539.22 468.45,520.44 463.36,502.55 456.2,482.18 429.65,419.15 426.44,408.84 424.72,399.41 424.46,392.82 425.17,386.26 428.89,374.89 436.72,362.12 448.38,349.24" fill="none" stroke="#000000" stroke-width="1"/><polyline id="SvgjsPolyline2590" points="407.5,410.63 400.37,398.84 399.37,394.78 399.72,391.82 401.77,387.49 405.96,381.64 420.41,365.6" fill="none" stroke="#000000" stroke-width="1"/><polyline id="SvgjsPolyline2591" points="503.47,599.49 503.92,581.5 503.27,564.71 501.52,548.01 498.35,529.68 490.12,497.74 469.18,433.26 464.09,411.04 462.9,400.32 462.87,390.12 464.15,380.01 466.51,371.33 469.49,364.13 473.29,357.32 478.22,350.52 483.88,344.32 496.98,333.85 513.42,325.2 531.05,319.32 552.26,315.32 575.58,313.55 599.57,314.01" fill="none" stroke="#000000" stroke-width="1"/><polyline id="SvgjsPolyline2592" points="237.4,209.38 239.57,218.09 244.49,227.68 252.6,238.08 262.24,247.07 272.13,253.86 282.43,258.7 291.69,261.18 301.85,261.86 311.93,260.42 322.65,256.59 333.52,250.25 343.26,242.27 352.11,232.5 358.27,222.92 361.74,213.99 362.78,204.48 361.02,195.08 356.75,185.84 349.37,175.64 340.04,166.33 329.9,158.86 319.22,153.43 308.27,150.32 298.11,149.65 288.03,151.09 277.32,154.93 266.94,160.93 256.28,169.67 247.5,179.51 241.18,189.69 237.85,199.3 237.34,208.85" fill="none" stroke="#000000" stroke-width="1"/><polyline id="SvgjsPolyline2593" points="449.36,0.55 450.51,16.7 449.58,32.26 446.51,48.16 441.78,62.38 434.89,76.36 426.96,87.64 417.97,96.43 408.2,102.25 401.33,104.37 394.78,105.06 387.61,104.51 379.46,102.49 363.58,95.44 335.18,78.65 322.92,72.32 310.46,68.02 299.15,66.81 287.32,68.58 275.54,73.02 265.96,78 237.57,94.82 225.14,100.81 214.27,104.17 205.33,105.06 198.77,104.39 193.01,102.74 187.59,100.17 182.12,96.5 171.59,85.86 162.54,71.74 155.38,54.59 151.03,36.53 149.49,18.01 150.71,0.07" fill="none" stroke="#000000" stroke-width="1"/><polyline id="SvgjsPolyline2594" points="456.07,0.19 457.02,20.55 454.92,40.82 449.67,61.14 441.4,80.42 431.06,96.57 425.15,103.35 419.83,108.2 413.94,112.33 407.48,115.49 401.15,117.33 394.6,117.99 384.49,116.83 372.56,112.82 361.24,107.3 335.52,93.05 322.97,87.32 311.5,83.85 300.79,82.63 288.28,83.9 275.7,87.84 263.74,93.43 233.23,110.15 218.78,115.98 210.56,117.7 203.38,117.92 196.29,116.74 190.11,114.44 180.07,107.93 170.06,97.61 160.71,83.67 153.23,67.98 147.82,51.45 144.46,33.78 143.45,16.42 144.52,0.26" fill="none" stroke="#000000" stroke-width="1"/><polyline id="SvgjsPolyline2595" points="271.02,357.99 274.54,364.27 277.23,370.95 280.16,384.41 280.37,401.18 277.64,418.96 272.36,438.03 262.68,463.87 226.15,543.48 217.16,565.72 214.74,575.01 214.1,582.17 214.76,589.93 217.15,599.84" fill="none" stroke="#000000" stroke-width="1"/><polyline id="SvgjsPolyline2596" points="224.73,536.84 214.77,552.53 211.08,556.47 207.4,558.39 203.85,558.25 200.32,556.02 196.34,551.54 191.63,544.59" fill="none" stroke="#000000" stroke-width="1"/><polyline id="SvgjsPolyline2597" points="193.74,403.54 192.44,398.92 192.11,394.14 192.73,389.39 194.1,385.43 196.31,381.87 199.3,378.94 202.5,377.32 206.05,376.83 209.57,377.48 213.26,379.45 216.28,382.36 218.49,385.92 219.9,390.49 220.22,394.68 219.64,399.43 218.11,403.97 215.65,408.08 212.71,411.06 209.04,413.06 205.49,413.6 201.98,412.89 198.39,410.74 195.54,407.67 193.2,403.49 191.74,398.31 191.43,393.53 192.01,388.77 193.54,384.23 196.08,380.17 199.19,377.37 202.44,375.84 206.59,375.39 210.65,376.37 214.27,378.49 217.62,381.9 219.97,386.07 221.23,390.69 221.43,396.08 220.47,401.38 218.72,405.84 216.12,409.87 212.63,413.14 208.87,414.97 204.71,415.38 200.7,414.21 196.82,411.43 193.83,407.69 191.53,402.81 190.36,397.55 190.3,391.56 191.35,386.27 193.51,381.34 196.45,377.57 200.37,374.83 204.4,373.7 208.57,373.93 213.02,375.67 216.82,378.58 220.13,382.83 222.01,387.24 222.91,391.94 222.76,397.93 221.55,403.18 219.07,408.63 215.38,413.35 211.52,416.17 206.96,417.57 202.21,417.09 197.96,414.9 194.13,411.12 191.31,406.53 189.27,400.27 188.68,394.31 189.37,387.76 191.26,382.08 194.09,377.49 198.06,373.86 202.44,371.94 207.2,371.62 211.83,372.83 216.43,375.62 220.19,379.48 223.12,384.69 224.52,389.9 224.81,395.88 223.76,402.38 221.69,408 218.18,413.58 213.82,417.67 208.96,419.94 203.6,420.17 198.58,418.26 194.02,414.4 190.03,408.43 187.81,402.23 186.89,395.1 187.57,387.35 189.56,381.07 192.98,375.44 196.92,371.78 201.79,369.5 207.14,369.04 212.91,370.58 217.51,373.39 221.37,377.15 224.33,381.66 226.36,387.29 227.11,392.63 226.86,398.62 225.44,405.05 222.89,411.13 219.22,416.6 215.33,420.33 211.18,422.72 207.12,423.74 202.36,423.39 197.95,421.53 194.16,418.61 190.67,414.5 187.72,409.28" fill="none" stroke="#000000" stroke-width="1"/><polyline id="SvgjsPolyline2598" points="234.58,354.78 240.72,360.51 244.47,365.18 247.79,370.88 250.38,377.59 252.03,385.21 252.59,392.38 251.2,407.89 248.92,417.22 245.56,426.84 236.87,443.94 230.97,452.25 225.29,458.43 220.17,462.59 214.38,465.73 209.77,467.04 204.99,467.28 200.28,466.42 195.31,464.33 189.84,460.64 185.01,456.16 175.87,444.29 168.3,429.99 163.53,415.15 161.36,398.52 162.05,382.95 163.92,372.93 166.94,363.19 170.33,355.51 175.29,347.3 180.67,340.86 187.11,335.49 193.47,332.13 199.81,330.35 206.98,329.96 214.67,331.17 223.15,334.18 231.63,338.65 242.01,345.79 250.3,352.7 255.86,358.99 260.53,366.67 264.93,379.71 266.28,394.62 264.65,410.72 260.02,428.72 251.35,450.44 239.91,471.52 228.68,487.08 223.3,492.72 217.67,497.19 213.46,499.48 208.88,500.89 204.7,501.14 200,500.23 195.62,498.28 190.69,494.88 181.09,485 169.26,467.66 158.58,446.86 152.31,430 148.4,411.83 147.18,395.69 148.18,378.33 151.53,361.27 156.73,345.94 164.27,330.94 173.02,318.78 183.09,309.39 193.06,303.94 201.79,301.86 211.37,302.04 221.84,304.63 232.33,309.07 279.86,335.89 290.49,344.67 299.52,355.85 305.46,367.61 308.83,379.73 310.08,392.86 309.19,407.82 306.94,420.82 303.14,435.95 281.69,502.16 273.55,533.51 270.57,550.65 268.99,565.56 268.37,581.75 268.93,599.74" fill="none" stroke="#000000" stroke-width="1"/><polyline id="SvgjsPolyline2599" points="257.9,370.57 261.48,383.86 261.95,399.43 259.16,416.58 252.82,435.95 243.45,455.4 237.14,465.6 231.03,473.77 225.76,479.51 220.26,484.15 214.54,487.42 209.38,488.94 203.99,489.09 199.88,488.27 194.93,486.13 189.97,482.77 179.92,472.49 169.79,457.63 160.83,439.99 155.47,424.71 152.19,407.64 151.51,389.67 152.86,375.95 155.83,362.48 160.42,349.47 166.99,336.67 173.99,326.94 182.13,318.99 190.77,313.61 199.33,310.89 208.89,310.44 218.88,312.39 229.49,316.53 243.19,323.98 265.58,337.97 273.65,344.19 282.11,353.5 288.47,364.35 292.22,375.1 294.12,386.33 294.33,399.52 292.69,413.82 289.82,427.31 285.03,444.04 262.56,507.36 253.14,539.6 250.15,554.91 248.44,569.81 247.98,584.8 248.72,599.77" fill="none" stroke="#000000" stroke-width="1"/><polyline id="SvgjsPolyline2600" points="252.95,349.68 258.76,355.73 263.21,362.13 267.08,370.25 269.46,378.29 270.83,387.79 270.99,396.78 270.08,406.94 268.11,417.55 264.44,430.85 258.89,446.07 253.1,459.25 244.61,475.8 236.6,489.18 228.58,500.4 221.73,507.94 215.11,513.1 210.77,515.13 206.67,515.94 202.49,515.62 198.53,514.25 189.82,507.94 180.11,496.53 167.9,477.29 156.06,453.7 148.63,434.08 144.48,415.96 142.77,396.85 143.68,378.29 147.08,360.01 153.08,341.79 161.27,325.11 170.84,311.32 181.99,300.46 188.02,296.54 193.48,294.07 201.64,292.15 210.02,292.15 218.83,293.96 228.93,297.75 265.42,317.28 285.22,325.88 295.31,331.18 308.46,340.61 318.53,350.88 326.22,362.32 331.45,375.06 333.92,389.22 333.57,403.59 331.55,416.03 328.17,429.4 306.57,494.3 297.86,527.36 294.54,546.26 292.75,562.97 292.03,580.95 292.51,599.54" fill="none" stroke="#000000" stroke-width="1"/><polyline id="SvgjsPolyline2601" points="185.33,291.73 192.84,288 200.99,286.03 209.37,286.02 218.17,287.84 233.14,293.98 269.16,313.13 292.83,321.71 303.81,326.54 320.32,336.31 334.69,348.1 346.09,361.21 350.58,368.3 353.7,374.79 356.12,382.2 357.42,390.49 357.41,398.28 356.28,406.6 350.17,427.29 325.57,489.82 316.35,520.87 312.29,540.85 309.96,559.3 308.94,580.27 309.41,599.46" fill="none" stroke="#000000" stroke-width="1"/><polyline id="SvgjsPolyline2602" points="296.26,311.93 321.26,318.27 369.68,334.26 382.59,337 394.54,337.87 405.9,337 417.64,334.57 467.23,318.29 495.77,311.29" fill="none" stroke="#000000" stroke-width="1"/><polyline id="SvgjsPolyline2603" points="310.11,324.77 330.69,335.88 349.54,349.7 368.19,367.51 374.41,374.82 379.88,382.7 383.27,390.99 383.02,398.72 379.21,408.16 369.69,424.83" fill="none" stroke="#000000" stroke-width="1"/><polyline id="SvgjsPolyline2604" points="350.64,345.38 372.12,360.73 380.8,366.09 388.55,369.27 395.68,370.01 402.67,368.38 410.69,364.32 448.75,338.16" fill="none" stroke="#000000" stroke-width="1"/><polyline id="SvgjsPolyline2605" points="542.96,0.42 543.87,13.58 543.57,27.37 541.95,41.68 539.09,56.4 530.11,87.52 510.74,140.48 502.88,164.42 497.89,185.43 496,203.31 496.36,214.1 497.9,223.57 500.75,232.73 505.28,241.85 511.3,250.07 518.6,257.18 527.43,263.38 536.52,267.99" fill="none" stroke="#000000" stroke-width="1"/><polyline id="SvgjsPolyline2606" points="599.92,56.94 590.84,41.41 587.45,37.22 585.03,35.48 582.68,35.17 579.51,36.79 576.25,40.3 571.88,46.76 560.24,67.74 543.72,100.4 531.77,125.94 523.64,145.3 517.18,163.38 513.01,178.41 510.59,191.38 509.62,204.54 511.02,220.05 512.82,227.01 515.69,234.26 519.21,240.54 523.52,246.3 528.54,251.45 534.17,255.93 541.88,260.56 549,263.74 563.98,268 581.88,269.74 599.8,268.31" fill="none" stroke="#000000" stroke-width="1"/><polyline id="SvgjsPolyline2607" points="446.6,599.67 447.13,576.29 445.32,554.78 441.35,534.78 434.8,514.84 425.77,496.57 420.42,488.61 414.99,482.2 409.64,477.4 404.58,474.18 399.56,472.23 394.22,471.53 388.88,472.25 383.86,474.21 378.81,477.43 373.05,482.68 367.68,489.14 362.08,497.65 353.67,514.9 347.13,534.84 343.17,554.84 341.33,577.55 341.91,599.73" fill="none" stroke="#000000" stroke-width="1"/><polyline id="SvgjsPolyline2608" points="452.9,599.51 453.3,575.52 451.06,551.04 446.04,527.58 438.59,506.05 428.65,486.22 422.68,477.23 416.97,470.28 411.31,464.92 405.36,460.87 399.84,458.57 393.91,457.79 388.58,458.59 383.06,460.91 377.16,465.02 371.16,470.88 365.89,477.42 359.96,486.44 349.63,507.42 342.39,529.02 337.86,550.74 335.69,574.03 336.12,599.81" fill="none" stroke="#000000" stroke-width="1"/><polyline id="SvgjsPolyline2609" points="492.48,599.61 492.93,581.62 492.26,564.23 490.36,546.34 487.13,528.02 477.86,493.25 459.82,441.09 454.54,423.88 451,407.47 449.96,393.12 450.86,382.97 452.97,374.23 456.84,364.8 462.09,356.07 468.49,348.13 476.73,340.26 486.37,333.14 496.79,327.2" fill="none" stroke="#000000" stroke-width="1"/><polyline id="SvgjsPolyline2610" points="515.48,599.55 516.01,584.56 515.56,567.77 514.02,551.65 511.31,535.07 503.14,502.49 485.82,449.45 479.76,428.72 475.66,408.14 474.78,390.78 476.15,378.87 478.85,369.04 483.62,358.71 489.35,350.28 497.16,341.99 505.65,335.33 516.02,329.3 527.06,324.63" fill="none" stroke="#000000" stroke-width="1"/><polyline id="SvgjsPolyline2611" points="537.64,599.47 538.29,583.89 537.73,568.9 536.06,554.6 532.84,538.12 524.6,509.28 502.03,444.72 494.92,417.44 493.23,406.17 492.6,395.39 493.06,385.81 494.54,376.94 499.57,362.84 506.68,351.75 516.92,341.66 529.03,333.92 545.18,327.5 561.57,323.89 581.3,322.36 599.86,323.35" fill="none" stroke="#000000" stroke-width="1"/><polyline id="SvgjsPolyline2612" points="249.32,208.01 250.88,216.24 254.45,224.48 260.25,232.86 267.41,240.11 275.67,246.07 284.3,250.25 292.39,252.48 300.74,253.16 310.25,251.93 318.74,249 327.6,243.96 335.03,237.9 341.79,230.28 347.05,221.56 349.96,213.06 350.74,204.72 349.47,196.44 345.85,187.57 340.9,180.06 333.51,172.21 325.88,166.39 316.84,161.7 307.64,159.03 298.68,158.36 289.78,159.57 280.19,163 271.44,168.22 263.71,174.85 256.84,183.16 252.23,191.57 249.81,199.6 249.32,207.96" fill="none" stroke="#000000" stroke-width="1"/><polyline id="SvgjsPolyline2613" points="437.18,0.43 438.68,15.34 437.7,30.89 434.64,44.33 429.44,57.1 422.26,68.15 413.6,76.41 404.6,81.12 399.36,82.42 393.98,82.82 386.84,82.05 379.92,80.08 372.24,76.68 363.46,71.5 344.15,56.29 326.03,37.95 317.91,26.82 315.93,22.45 315.07,18.35 315.35,14.18 316.66,10.19 323.11,0.11" fill="none" stroke="#000000" stroke-width="1"/><polyline id="SvgjsPolyline2614" points="444.4,0.02 445.67,17.36 444.28,34.08 440.32,50.39 434.28,64.76 426.14,77.33 416.77,86.57 406.85,92.11 401.07,93.7 395.1,94.25 385,93.02 372.61,88.54 357.97,80.32 331.72,62.37 320.47,55.47 310.03,50.93 300,49.33 289.97,50.93 279.53,55.47 239.98,81.57 224.04,89.88 216.07,92.52 207.78,93.82 200.6,93.5 193.09,91.48 184.22,86.49 175.92,78.71 168.91,68.99 162.55,56.09 158.19,42.37 155.77,28.19 155.27,13.81 156.59,0.08" fill="none" stroke="#000000" stroke-width="1"/><polyline id="SvgjsPolyline2615" points="200.42,314.77 205.81,314.46 212.37,315.12 226.06,319.48 241.38,327.71 264.29,343.08 273.22,351.94 279.2,360.91 283.79,371.98 286.15,383.12 286.8,393.29 286.19,404.67 283.88,418.88 280.52,432.26 270.9,460.67 246.3,523.2 237.76,551.32 235.37,563.68 234.16,575.02 233.96,585.81 234.97,599.57" fill="none" stroke="#000000" stroke-width="1"/><polyline id="SvgjsPolyline2616" points="205.88,389.11 208.88,390.88 209.9,394.27 208.53,398.15 205.36,399.52 202.51,397.52 201.62,394.08 202.69,390.7 205.71,388.99" fill="none" stroke="#000000" stroke-width="1"/><polyline id="SvgjsPolyline2617" points="275.82,326.31 285.92,331.58 295.28,338.07 303.65,345.79 309.72,353.23 314.42,360.89 318.62,370.83 321.05,380.73 322.06,391.47 321.08,408.22 317.58,425.87 311.93,445.47 293.9,500.8 285.83,533.41 282.99,551.18 281.5,567.31 281.05,584.7 281.56,599.69" fill="none" stroke="#000000" stroke-width="1"/><polyline id="SvgjsPolyline2618" points="350.25,355.59 360.55,368.07 366.65,379.07 369.49,390.07 369.36,399.65 367.23,409 363.74,418.58 343.88,461.61 334.79,483.17 328.11,501.81 323.68,516.76 319.06,537.24 316.1,558.63 315.02,578.4 315.51,599.99" fill="none" stroke="#000000" stroke-width="1"/><polyline id="SvgjsPolyline2619" points="555.03,0.37 556.21,12.91 555.99,25.5 554.51,37.41 551.29,52.05 542.54,78.85 520.43,133.98 512.4,155.96 506.13,177.87 502.92,197.99 502.71,209.98 503.86,220.11 506.27,229.4 509.8,237.67 514.21,244.81 520.89,252.5 528.29,258.6 536.5,263.56" fill="none" stroke="#000000" stroke-width="1"/><polyline id="SvgjsPolyline2620" points="599.94,73.12 593.18,65.5 587.24,61.48 581.99,60.5 575.87,62.79 569.24,68.83 561.98,78.38 553.41,92.12 543.04,111.07" fill="none" stroke="#000000" stroke-width="1"/><polyline id="SvgjsPolyline2621" points="599.94,33.5 598.58,25.21 598.14,16.83 599.98,0.16" fill="none" stroke="#000000" stroke-width="1"/><polyline id="SvgjsPolyline2622" points="570.85,0.53 573.44,12.84 572.96,24.2 569.43,37.52 562.32,55.35" fill="none" stroke="#000000" stroke-width="1"/><polyline id="SvgjsPolyline2623" points="599.84,95.1 594.32,90.49 589.59,87.91 584.36,86.68 579.01,87.25 573.54,89.67 568.26,93.61 562.38,99.61 556.79,106.66 548.83,118.65 541.42,131.69 529.4,157.85 525.01,170.29 521.84,181.86 519.61,194.26 518.87,205.03 520.11,219.35 524.29,232.47 527.76,238.77 531.69,244.06 541.43,252.92 553.55,259.47 567.94,263.59 583.47,264.89 599.55,263.2" fill="none" stroke="#000000" stroke-width="1"/><polyline id="SvgjsPolyline2624" points="434.52,600 435.32,581.42 434.23,563.46 431.35,546.92 426.43,530.87 419.66,516.84 411.75,506.31 403.2,499.79 398.71,498.11 394.56,497.56 389.8,498.1 385.86,499.52 381.25,502.31 377.18,505.86 369.16,516.31 362.52,529.73 357.57,545.15 354.41,562.25 353.18,580.8 353.97,599.97" fill="none" stroke="#000000" stroke-width="1"/><polyline id="SvgjsPolyline2625" points="441.09,599.57 441.65,577.99 439.98,557.67 436.05,538.28 430.51,521.8 422.37,505.76 413.54,494.43 409.02,490.48 403.91,487.36 398.83,485.56 394.07,485.02 389.32,485.64 384.29,487.58 379.27,490.84 374.84,494.88 365.52,507.35 358.13,522.42 352.25,540.68 348.89,558.36 347.35,578.69 348,599.67" fill="none" stroke="#000000" stroke-width="1"/><polyline id="SvgjsPolyline2626" points="549.65,599.8 550.55,586.64 550.17,571.65 548.44,557.96 545.56,544.47 537.03,516.98 516.38,463.21 508.83,441.69 503.13,420.87 500.23,401.9 500.01,390.51 500.98,380.97 503.21,371.64 506.29,363.83 511.12,355.54 516.82,348.59 523.49,342.56 531.46,337.22" fill="none" stroke="#000000" stroke-width="1"/><polyline id="SvgjsPolyline2627" points="599.8,530.11 594.54,536.64 590.1,540.67 585.83,542.81 581.67,543 577.26,541.2 572.62,537.4 561.68,523.15 552.41,507.72 541.69,487.6 532.62,468.66 525.14,450.98 519.68,435.73 515.63,421.29 513.12,407.73 512.25,395.77 513.61,380.26 517.79,367.13 525.03,355.43 529.5,350.58 535.48,345.58 549.08,338.01 564.58,333.37 581.87,331.65 599.78,333.16" fill="none" stroke="#000000" stroke-width="1"/><polyline id="SvgjsPolyline2628" points="261.29,207.21 262.45,214.3 265.09,220.98 268.97,227.04 274.27,232.74 280.52,237.4 286.96,240.59 293.88,242.53 301.05,243.05 307.59,242.24 314.98,239.78 321.25,236.25 327.26,231.3 332.28,225.34 335.82,219.09 338.05,212.26 338.73,205.1 337.76,197.99 335.27,191.24 331.16,184.63 325.88,178.9 319.66,174.22 312.67,170.77 306.32,169.01 299.15,168.45 292.02,169.36 285.21,171.64 278.92,175.13 272.46,180.48 267.84,185.99 264.02,192.78 261.87,199.64 261.28,206.8" fill="none" stroke="#000000" stroke-width="1"/><polyline id="SvgjsPolyline2629" points="424.81,0.28 426.79,11.49 426.85,22.28 424.98,33.51 421.28,43.63 415.87,52.26 409.38,58.46 401.92,62.24 394.24,63.42 384.25,61.65 374.61,56.84 365.31,49.28 357,39.06 352.18,29.42 350.06,19.47 350.66,10.52 354.21,0.35" fill="none" stroke="#000000" stroke-width="1"/><polyline id="SvgjsPolyline2630" points="432.77,0.32 434.31,12.81 433.73,27.18 430.8,40.65 426.25,51.74 419.63,61.72 412.16,68.63 403.6,72.89 394.74,74.21 388.77,73.64 382.97,72.11 370.11,65.72 356.95,55.32 345.77,42.8 338.99,31.51 335.91,21.19 336.3,11.05 340.27,0.4" fill="none" stroke="#000000" stroke-width="1"/><polyline id="SvgjsPolyline2631" points="428.72,66.47 419.66,77.61 414.55,81.79 409.39,84.83 403.79,86.95 397.29,88.07 391.3,87.98 384.81,86.83 373.03,82.4 360.07,74.87 314.2,40.09 306.67,36.39 300.21,35.18 293.73,36.25 286.7,39.6 277.33,46.07 251.02,66.97 239.28,75.3 226.77,82.41 214.93,86.68 208.42,87.7 202.43,87.64 196.54,86.51 190.96,84.34 186.31,81.61 180.74,77.05 171.74,65.86" fill="none" stroke="#000000" stroke-width="1"/><polyline id="SvgjsPolyline2632" points="321.25,38.58 305.94,24.22 301.98,21.52 299.66,21.05 296.9,22.14 293.12,25.1 271.28,45.67" fill="none" stroke="#000000" stroke-width="1"/><polyline id="SvgjsPolyline2633" points="284.06,0.2 293.73,8.25 299.26,10.37 302.19,9.84 305.92,7.93 315.72,0.03" fill="none" stroke="#000000" stroke-width="1"/><polyline id="SvgjsPolyline2634" points="265.28,0.37 269.32,10.35 270.06,15.69 269.8,20.48 268.55,25.73 266.24,31.26 259.09,42.33 246.02,56.37 231.8,67.37 218.94,73.77 212.57,75.48 206.6,76.06 196.58,74.45 188.12,69.99 179.97,62.07 173.57,51.94 168.95,40.24 166.27,27.33 165.69,14.75 167.38,0.47" fill="none" stroke="#000000" stroke-width="1"/><polyline id="SvgjsPolyline2635" points="599.95,84.31 593.39,78.18 587.6,75.07 581.68,74.32 575.97,76.02 569.2,80.95 562.75,88.05 555.72,97.78 547.56,111.06" fill="none" stroke="#000000" stroke-width="1"/><polyline id="SvgjsPolyline2636" points="591.72,35.76 586.54,23.63 585.13,17.21 586.35,11.37 590.84,0.24" fill="none" stroke="#000000" stroke-width="1"/><polyline id="SvgjsPolyline2637" points="599.84,109.22 592.45,104.11 585.08,101.69 577.94,102.18 570.37,105.74 562.2,112.77 554.2,122.49 546.04,135.07 537.69,151.01 531.26,166.52 527.14,179.69 524.47,192.61 523.47,204.56 524.26,216.52 526.68,226.42 530.91,235.68 536.96,243.87" fill="none" stroke="#000000" stroke-width="1"/><polyline id="SvgjsPolyline2638" points="599.77,129.36 594.84,125.94 589.93,123.72 585.24,122.72 580.46,122.84 575.82,124.04 570.47,126.73 565.2,130.7 560.11,135.78 554.84,142.32 548.93,151.36 540.24,169.13 534.58,187.45 532.57,204.7 533.72,217.23 537.18,228.06 543.57,238.18 551.96,245.85 562.51,251.51 574.69,254.64 587.26,255.02 599.61,252.68" fill="none" stroke="#000000" stroke-width="1"/><polyline id="SvgjsPolyline2639" points="422.51,599.5 423.5,585.75 423.03,571.36 421.08,558.31 417.84,546.77 413.43,536.92 407.52,528.64 400.89,523.55 393.95,521.94 387.6,523.55 380.98,528.64 375.36,536.4 370.86,546.21 367.41,558.32 365.41,571.96 364.98,585.15 365.99,599.51" fill="none" stroke="#000000" stroke-width="1"/><polyline id="SvgjsPolyline2640" points="429.23,599.46 430.02,582.09 429.09,566.52 426.41,551.17 422.12,537.43 415.97,525.1 409.26,516.66 401.94,511.52 394.37,509.85 390.21,510.36 386.29,511.84 379.13,517.23 372.27,526.3 366.36,538.75 362.28,552.55 359.93,566.75 359.08,584.12 359.96,599.69" fill="none" stroke="#000000" stroke-width="1"/><polyline id="SvgjsPolyline2641" points="561.71,599.81 563.02,588.49 562.98,576.5 561.28,564.02 558.39,552.38 549.8,528.06 527.02,474.51 517.36,449.94 510.28,427.64 506.4,408.85 505.41,398.1 505.45,389.71 506.44,380.77 508.39,372.6 511.16,365.32 515.54,357.46 520.71,350.85 526.33,345.45" fill="none" stroke="#000000" stroke-width="1"/><polyline id="SvgjsPolyline2642" points="599.76,515.21 592.62,521.6 585.56,524.82 579.03,524.6 572.65,521.36 565.22,514.39 556.17,502.44 546.16,486.07 536.98,468.53" fill="none" stroke="#000000" stroke-width="1"/><polyline id="SvgjsPolyline2643" points="599.97,547.47 590.33,568.79 586.88,579.63 587.16,587.38 591.38,599.87" fill="none" stroke="#000000" stroke-width="1"/><polyline id="SvgjsPolyline2644" points="599.75,538.34 594.13,546.84 589.41,552.27 585.39,554.81 581.24,554.97 577.06,552.68 572.56,547.88 559.76,527.59" fill="none" stroke="#000000" stroke-width="1"/><polyline id="SvgjsPolyline2645" points="599.63,494.22 594.36,498.18 588.95,500.73 583.64,501.63 578.31,500.91 573.34,498.82 567.92,495.08 561.86,489.27 556.13,482.33 549.66,472.95 542.71,461.03 531.49,436.49 527.48,424.55 524.85,414.08 523.23,404.01 522.67,393.83 524.07,380.13 528.02,368.19 534.75,357.58 543.96,349.03 555.49,342.67 569.89,338.58 584.83,337.53 599.69,339.41" fill="none" stroke="#000000" stroke-width="1"/><polyline id="SvgjsPolyline2646" points="273.28,206.64 273.93,211.39 275.73,216.47 278.53,221.08 282.18,225.05 286.01,227.94 290.83,230.34 296.04,231.72 300.83,232.02 306.16,231.28 310.69,229.71 315.37,227.02 319.43,223.48 322.75,219.22 325.15,214.4 326.4,209.77 326.7,204.39 325.96,199.66 324.06,194.61 321.18,190.05 317.91,186.54 313.59,183.32 309.29,181.21 304.68,179.9 299.3,179.48 294.54,180.06 289.42,181.75 285.23,184.07 281.07,187.51 277.65,191.67 275.11,196.43 273.62,201.61 273.27,206.39" fill="none" stroke="#000000" stroke-width="1"/><polyline id="SvgjsPolyline2647" points="411.82,0.16 414.52,7.46 415.71,15.76 415.25,23.53 413.24,31.05 409.89,37.41 405.43,42.24 400.25,45.22 394.37,46.29 387.33,44.98 380.58,41.14 375.12,35.6 371.17,28.89 369.12,22.01 368.88,14.24 370.52,7.25 374.09,0.33" fill="none" stroke="#000000" stroke-width="1"/><polyline id="SvgjsPolyline2648" points="276.83,0.27 283,10.51 284.07,14.57 284.14,18.76 283.02,23.41 280.94,27.73 273.14,38.36" fill="none" stroke="#000000" stroke-width="1"/><polyline id="SvgjsPolyline2649" points="252.42,0.22 256.08,10.98 256.52,20.54 254.06,30.41 248.37,40.94 239.52,51.5 228.42,60.64 217.24,66.38 211.46,67.97 206.09,68.51 196.66,66.97 188.78,62.7 181.97,55.97 176.54,47.35 172.45,36.73 170.25,25.56 169.94,12.38 171.74,0.53" fill="none" stroke="#000000" stroke-width="1"/><polyline id="SvgjsPolyline2650" points="599.69,143.35 594.77,139.92 589.87,137.67 585.21,136.56 581.02,136.48 576.32,137.43 571.39,139.61 562.46,146.64 552.92,158.94 544.81,174.99 540.21,189.88 538.41,205.34 539.43,216.68 542.71,226.94 548.45,236.05 555.94,242.93 565.46,247.98 576.5,250.71 588.47,250.77 599.54,248.16" fill="none" stroke="#000000" stroke-width="1"/><polyline id="SvgjsPolyline2651" points="410.25,599.82 411.67,590.33 411.99,580.74 411.25,571.78 409.53,563.56 406.54,555.72 402.96,550.2 398.86,546.73 394.28,545.46 389.7,546.69 385.59,550.15 381.72,556.2 378.99,563.49 377.25,571.71 376.51,580.67 376.82,590.26 378.24,599.75" fill="none" stroke="#000000" stroke-width="1"/><polyline id="SvgjsPolyline2652" points="573.86,599.81 577.95,586.65 578.3,582.47 577.72,577.71 572.71,563.6 559.83,535.84" fill="none" stroke="#000000" stroke-width="1"/><polyline id="SvgjsPolyline2653" points="599.97,576.67 599.96,588.66" fill="none" stroke="#000000" stroke-width="1"/><polyline id="SvgjsPolyline2654" points="599.69,480.22 592.14,485.07 588.21,486.56 583.49,487.32 575.27,485.89 567.98,481.76 559.66,473.99 550.62,462.05 542.51,448.03 535.47,432.13 531.22,419 528.48,405.49 527.7,393.52 528.76,382.19 531.54,372.39 536.57,362.86 542.79,355.56 550.87,349.37" fill="none" stroke="#000000" stroke-width="1"/><polyline id="SvgjsPolyline2655" points="599.68,460.7 595.27,463.8 590.39,466.09 585.13,467.25 580.94,467.18 576.27,466.09 571.39,463.81 562.1,456.26 552.3,443.4 544.18,427.36 538.9,410.18 537.25,395.29 538.49,382.78 541.96,372.58 547.48,364.03 554.96,357.14 565.01,351.81 576.62,348.93 588.6,348.9 599.67,351.51" fill="none" stroke="#000000" stroke-width="1"/><polyline id="SvgjsPolyline2656" points="285.27,206.2 286.44,211.44 289.85,216.33 294.34,219.27 300.19,220.41 305.46,219.35 310.42,216.06 313.71,211.09 314.73,205.82 313.75,200.54 310.51,195.54 305.57,192.2 300.32,191.1 295.02,191.97 289.94,195.09 286.49,199.95 285.27,205.78" fill="none" stroke="#000000" stroke-width="1"/><polyline id="SvgjsPolyline2657" points="401.18,5.72 403.85,9.67 405.21,14.26 405.3,19.64 404.1,24.28 401.6,28.35 398.3,30.9 394.25,31.85 390.18,30.95 385.9,27.72 382.95,22.54 382.09,16.63 383.39,10.81 386.76,5.9 391.34,3.12 396.08,2.85 400.8,5.34" fill="none" stroke="#000000" stroke-width="1"/><polyline id="SvgjsPolyline2658" points="239.37,0.09 242.73,9.07 243.73,17.98 242.18,27.43 238.3,36.18 231.45,45.27 223.23,52.24 214.68,56.55 205.86,58.13 198.2,56.87 191.86,53.52 185.87,47.67 180.94,39.45 177.73,29.79 176.4,19.69 176.79,10.11 178.98,0.16" fill="none" stroke="#000000" stroke-width="1"/><polyline id="SvgjsPolyline2659" points="599.87,157.87 591.41,152.26 583.3,150.31 579.12,150.64 574.54,152.06 566.53,157.27 558.28,166.75 551.4,179.38 547.2,192.5 545.71,204.99 546.58,215.14 549.47,224.27 554.57,232.37 561.7,238.75 570.86,243.16 580.87,244.95 590.42,244.24 599.5,241.21" fill="none" stroke="#000000" stroke-width="1"/><polyline id="SvgjsPolyline2660" points="396.62,599.63 399.15,596.3 400.92,591.85 401.91,586.55 402,579.96 400.98,574.05 399.45,570.15 396.83,566.91 394.03,566 391.33,567.18 388.85,570.53 387.12,575.63 386.41,581.58 386.71,587.57 388.07,593.4 390.23,597.67 392.96,599.94" fill="none" stroke="#000000" stroke-width="1"/><polyline id="SvgjsPolyline2661" points="599.98,446.21 595.17,449.8 590.35,452.2 582.13,453.67 574.02,451.73 565.58,446.06 556.69,435.55 549.62,422.35 545.08,408.07 543.54,394.38 544.61,383.66 547.89,374.03 553.16,366.04 560.36,359.72 568.93,355.46 579.48,353.27 590.23,353.81 599.95,356.83" fill="none" stroke="#000000" stroke-width="1"/><polyline id="SvgjsPolyline2662" points="297.27,205.82 297.88,207.48 299.98,208.49 301.66,207.93 302.73,205.87 302.23,204.17 300.21,203.03 298.5,203.47 297.28,205.45" fill="none" stroke="#000000" stroke-width="1"/><polyline id="SvgjsPolyline2663" points="225.96,0.37 229.42,7.35 231.09,14.94 230.66,22.7 228.69,28.99 224.71,35.67 219.21,41.18 212.99,44.76 205.97,46.19 200.08,45.24 194.38,41.98 189.98,37.09 186.7,30.7 184.76,23.16 184.4,14.78 185.65,7.09 188.22,0.39" fill="none" stroke="#000000" stroke-width="1"/><polyline id="SvgjsPolyline2664" points="599.66,172.93 592.75,167.22 585.5,164.47 577.78,164.98 570.87,168.52 564.12,175.3 558.6,184.56 554.97,195.35 553.8,206.06 554.86,214.98 557.83,222.81 562.41,229.09 568.54,233.87 575.76,236.76 584.69,237.54 592.88,235.78 599.7,232.06" fill="none" stroke="#000000" stroke-width="1"/><polyline id="SvgjsPolyline2665" points="599.59,431.61 592.98,436.76 588.62,438.74 584.52,439.63 576.83,438.73 570,435.03 562.5,427.32 556.73,417.51 552.84,406.18 551.42,394.89 552.33,385.35 555.28,376.87 560.02,369.97 566.48,364.65 574.17,361.32 583.06,360.16 591.35,361.33 599.54,364.99" fill="none" stroke="#000000" stroke-width="1"/><polyline id="SvgjsPolyline2666" points="216.04,7.13 218.41,11.96 219.2,16.68 218.56,22.02 216.68,26.42 213.17,30.49 208.99,32.8 204.25,33.2 200.35,31.73 196.21,27.46 193.76,20.74 193.8,13.57 196.32,6.88 200.53,2.67 205.66,1.2 210.85,2.49 215.79,6.78" fill="none" stroke="#000000" stroke-width="1"/><polyline id="SvgjsPolyline2667" points="599.87,191.69 595.25,184.71 589.64,180.26 583.96,178.45 578.06,179.24 572.03,183.08 566.95,189.73 563.72,198.1 562.8,205.83 563.71,212.95 566.55,219.53 570.92,224.44 577.24,227.8 583.76,228.59 590.15,227.1 595.65,223.5 599.94,217.77" fill="none" stroke="#000000" stroke-width="1"/><polyline id="SvgjsPolyline2668" points="599.8,414.53 594.36,420.89 588.24,424.63 581.78,425.67 575.49,423.83 569.4,419.02 564.61,412.14 561.22,403.18 560.11,394.27 561.03,386.55 563.68,379.88 568.15,374.27 573.62,370.62 580.53,368.72 587.68,369.18 594.3,371.95 599.65,376.72" fill="none" stroke="#000000" stroke-width="1"/><polyline id="SvgjsPolyline2669" points="206.23,14.03 208,15.54 208.35,17.87 207.25,19.95 205.59,20.53 203.68,19.23 203.17,16.93 204.08,14.75 206.25,14.04" fill="none" stroke="#000000" stroke-width="1"/><polyline id="SvgjsPolyline2670" points="588.95,196.68 585.66,194.13 581.55,193.6 577.81,195.41 574.9,199.18 573.5,203.75 573.77,209.11 575.8,213.42 578.98,216.11 582.44,217.02 585.39,216.58 588.46,214.75 590.65,211.92 591.84,208.54 592.05,204.36 591.08,200.28 588.96,196.68" fill="none" stroke="#000000" stroke-width="1"/><polyline id="SvgjsPolyline2671" points="589.6,408.21 584.9,410.77 579.59,410.46 575.14,407.49 571.61,401.96 570.14,395.55 570.83,389.02 573.59,383.74 578.33,380.16 583.01,379.26 587.64,380.37 591.46,383.23 594.02,387.26 595.31,392.48 595.07,397.86 593.15,403.53 589.97,407.86" fill="none" stroke="#000000" stroke-width="1"/><polyline id="SvgjsPolyline2672" points="582.72,397.42 580.77,396.19 580.26,393.89 581.25,391.76 582.89,391.15 584.44,391.97 585.24,394.18 584.55,396.43 583.08,397.39" fill="none" stroke="#000000" stroke-width="1"/></g></svg>