<?xml version="1.0" encoding="utf-8"?>
<!-- Generator: Adobe Illustrator 17.0.0, SVG Export Plug-In . SVG Version: 6.00 Build 0)  -->
<!DOCTYPE svg PUBLIC "-//W3C//DTD SVG 1.1//EN" "http://www.w3.org/Graphics/SVG/1.1/DTD/svg11.dtd" [
	<!ENTITY ns_extend "http://ns.adobe.com/Extensibility/1.0/">
	<!ENTITY ns_ai "http://ns.adobe.com/AdobeIllustrator/10.0/">
	<!ENTITY ns_graphs "http://ns.adobe.com/Graphs/1.0/">
	<!ENTITY ns_vars "http://ns.adobe.com/Variables/1.0/">
	<!ENTITY ns_imrep "http://ns.adobe.com/ImageReplacement/1.0/">
	<!ENTITY ns_sfw "http://ns.adobe.com/SaveForWeb/1.0/">
	<!ENTITY ns_custom "http://ns.adobe.com/GenericCustomNamespace/1.0/">
	<!ENTITY ns_adobe_xpath "http://ns.adobe.com/XPath/1.0/">
]>
<svg version="1.1" id="Layer_1" xmlns:x="&ns_extend;" xmlns:i="&ns_ai;" xmlns:graph="&ns_graphs;"
	 xmlns="http://www.w3.org/2000/svg" xmlns:xlink="http://www.w3.org/1999/xlink" x="0px" y="0px" width="420.99px"
	 height="420.735px" viewBox="210.45 0 420.99 420.735" enable-background="new 210.45 0 420.99 420.735" xml:space="preserve">
<metadata>
	<sfw  xmlns="&ns_sfw;">
		<slices></slices>
		<sliceSourceBounds  width="420.99" height="420.382" bottomLeftOrigin="true" y="174.758" x="210.005"></sliceSourceBounds>
	</sfw>
</metadata>
<path d="M420.945,0C304.752,0,210.45,94.166,210.45,210.191s94.302,210.191,210.495,210.191S631.44,326.216,631.44,210.191
	S537.138,0,420.945,0z M623.02,210.191c0,7.146-0.421,13.873-1.263,20.599l-35.784-4.204c0.421-5.465,0.842-10.93,0.842-16.395
	c0-5.045-0.421-10.51-0.842-15.554l35.784-4.204C623.02,197.159,623.02,203.465,623.02,210.191z M218.87,210.191
	c0-6.726,0.421-13.452,0.842-20.178l35.784,4.204c-0.421,5.465-0.842,10.51-0.842,15.975s0.421,10.51,0.842,15.975l-35.784,4.204
	C218.87,223.643,218.87,216.917,218.87,210.191z M577.974,155.962l33.679-12.611c4.631,12.611,7.578,25.643,9.683,39.096
	l-35.784,4.204C583.868,176.14,581.342,165.63,577.974,155.962z M578.816,210.191c0,10.51-1.263,20.599-2.947,30.688l-35.363-7.987
	c1.263-7.146,2.105-14.713,2.105-22.701c0-7.987-0.842-15.975-2.105-23.541l35.363-7.987
	C577.974,188.751,578.816,199.261,578.816,210.191L578.816,210.191z M420.945,323.274c-62.728,0-113.246-50.866-113.246-113.083
	c0-62.637,50.94-113.083,113.246-113.083c62.728,0,113.246,50.866,113.246,113.083C534.191,272.828,483.673,323.274,420.945,323.274
	z M424.734,367.834v-36.153c15.998-0.42,31.153-4.204,45.046-10.089l15.577,32.79C467.254,362.369,446.625,367.414,424.734,367.834z
	 M355.692,353.962l15.998-32.79c13.893,6.306,29.048,10.089,45.046,10.51v36.153C394.844,367.414,374.215,362.369,355.692,353.962
	L355.692,353.962z M263.074,210.191c0-10.93,1.263-21.439,3.368-31.949l35.363,7.987c-1.684,7.567-2.526,15.554-2.526,23.962
	c0,7.567,0.842,15.134,2.105,22.28l-35.363,7.987C263.916,230.79,263.074,220.701,263.074,210.191L263.074,210.191z M416.735,52.548
	v36.153c-15.998,0.42-30.732,4.204-44.625,10.089L356.534,66C375.057,58.013,395.265,52.968,416.735,52.548z M485.777,66.42
	L469.78,99.21c-13.893-6.306-29.048-9.669-45.046-10.089V52.968C446.625,52.968,467.254,58.013,485.777,66.42z M575.027,147.974
	c-4.21-9.669-8.841-19.338-14.735-28.166l29.469-20.178c7.157,11.35,13.472,23.121,18.524,35.732L575.027,147.974z M573.764,170.675
	l-35.363,7.987c-4.21-15.134-10.946-29.006-20.208-41.197l28.627-22.701C559.451,131.58,568.713,150.076,573.764,170.675
	L573.764,170.675z M513.142,131.159c-10.104-11.771-22.312-21.439-35.784-28.586l15.998-32.79
	c18.524,9.669,34.942,22.701,48.414,38.675L513.142,131.159z M502.617,65.58l16.84-31.949c11.788,6.726,22.733,14.293,33.258,23.121
	l-23.996,27.325C520.72,76.93,511.879,71.045,502.617,65.58z M495.46,61.796c-9.262-4.624-19.366-8.408-29.469-11.35l8.841-34.892
	c13.051,3.783,25.68,8.408,37.889,14.713L495.46,61.796z M457.571,48.344c-10.525-2.522-21.049-3.783-31.995-4.204V8.408
	c13.893,0.42,27.785,2.102,40.836,5.045L457.571,48.344L457.571,48.344z M417.577,44.14c-10.946,0.42-21.47,1.682-31.574,3.783
	l-8.42-34.892c12.63-2.943,26.101-4.624,39.994-4.624C417.577,8.408,417.577,44.14,417.577,44.14z M377.583,50.025
	c-10.525,2.943-20.208,6.726-29.89,11.35l-16.84-31.949c12.209-5.885,24.838-10.93,37.889-14.293L377.583,50.025z M340.536,65.159
	c-9.262,5.045-18.103,11.35-26.101,18.076l-23.996-26.904c10.525-8.828,21.471-16.395,33.258-23.121L340.536,65.159L340.536,65.159z
	 M348.956,69.783l15.577,32.79c-13.893,7.146-25.68,16.815-35.784,28.166l-28.206-22.701
	C314.014,92.484,330.432,79.452,348.956,69.783z M295.49,114.764l28.206,22.701c-9.262,12.191-15.998,26.064-20.208,41.197
	l-35.363-7.987C273.598,149.656,282.86,130.739,295.49,114.764z M267.284,147.134l-33.679-12.611
	c5.052-12.611,11.367-24.803,18.945-35.732l29.469,20.599C276.124,127.796,271.073,137.465,267.284,147.134z M264.337,155.121
	c-3.368,10.089-6.315,20.178-7.578,31.108l-35.784-4.204c2.105-13.452,5.052-26.904,9.683-39.516L264.337,155.121z M256.338,234.153
	c1.684,10.51,4.21,21.019,7.578,31.108l-33.679,12.611c-4.631-12.611-7.999-25.643-9.683-39.516L256.338,234.153L256.338,234.153z
	 M267.284,272.828c4.21,10.089,9.262,19.338,14.735,28.166l-29.469,20.178c-7.578-10.93-13.893-22.701-18.945-35.312
	L267.284,272.828z M267.705,248.446l35.363-7.987c3.789,15.134,10.946,29.427,19.787,41.618l-28.206,22.701
	C282.018,287.962,272.756,269.044,267.705,248.446L267.705,248.446z M327.906,288.382c10.104,11.771,22.312,21.86,36.205,29.006
	l-15.998,32.79c-18.524-9.669-35.363-23.121-48.835-39.096L327.906,288.382z M340.536,355.223l-16.84,31.949
	c-11.788-6.726-23.154-14.293-33.258-23.121l23.996-26.904C322.433,344.293,330.853,350.178,340.536,355.223z M347.693,359.006
	c9.262,4.624,19.366,8.408,29.89,11.35l-8.841,34.892c-13.051-3.363-26.101-8.408-37.889-14.293L347.693,359.006z M385.582,372.458
	c10.104,2.102,20.629,3.363,31.574,3.783v35.732c-13.893-0.42-27.364-2.102-40.415-4.624L385.582,372.458L385.582,372.458z
	 M425.576,376.242c10.946-0.42,21.47-1.682,31.574-3.783l8.42,34.892c-13.051,2.943-26.522,4.624-39.994,5.045V376.242z
	 M465.149,370.357c10.525-2.943,20.208-6.726,29.89-11.35l16.84,31.949c-11.788,5.885-24.417,10.93-37.889,14.293L465.149,370.357z
	 M501.775,355.223c9.262-5.045,18.103-11.35,26.101-18.076l23.996,26.904c-10.104,8.828-21.471,16.395-33.258,23.121
	L501.775,355.223L501.775,355.223z M493.355,350.599l-15.577-32.79c13.893-7.146,26.101-17.236,36.205-29.006l28.206,22.701
	C528.297,327.478,511.879,340.93,493.355,350.599z M547.242,305.197l-28.206-22.701c9.262-12.191,15.998-26.484,19.787-41.618
	l35.363,7.987C568.713,269.465,559.451,288.382,547.242,305.197z M574.606,273.248l33.679,12.611
	c-5.052,12.611-11.367,24.382-18.945,35.732l-29.469-20.599C565.766,292.165,570.818,282.917,574.606,273.248z M577.553,265.261
	c3.368-9.669,5.894-20.178,7.578-30.688l35.784,4.204c-2.105,13.452-5.052,26.484-9.683,39.096L577.553,265.261z M585.552,92.904
	l-29.469,20.178c-6.315-8.408-13.051-16.395-21.049-23.962l23.996-26.904C568.713,71.885,577.553,81.974,585.552,92.904z
	 M284.123,61.796l23.996,26.904c-7.999,7.146-14.735,15.134-21.05,23.962l-29.469-20.599
	C265.179,81.134,274.019,70.624,284.123,61.796z M257.18,328.318l29.469-20.178c6.315,8.408,13.472,16.395,21.05,23.962
	l-23.996,26.904C274.019,349.337,265.179,339.248,257.18,328.318L257.18,328.318z M558.188,358.586l-23.996-26.904
	c7.578-7.146,14.735-15.134,21.049-23.541l29.469,20.599C576.711,339.248,567.871,349.337,558.188,358.586z"/>
</svg>
