<?xml version="1.0" encoding="UTF-8" standalone="no"?>
<!DOCTYPE svg PUBLIC "-//W3C//DTD SVG 1.1//EN" "http://www.w3.org/Graphics/SVG/1.1/DTD/svg11.dtd">
<svg version="1.1" xmlns="http://www.w3.org/2000/svg" xmlns:xlink="http://www.w3.org/1999/xlink" preserveAspectRatio="xMidYMid meet" viewBox="0 0 640 640" width="640" height="640"><defs><path d="M352.46 151.6L359.29 152.29L366.03 153.25L372.69 154.47L379.25 155.95L385.72 157.68L392.08 159.66L398.33 161.87L404.46 164.32L410.48 167L416.36 169.91L422.12 173.03L427.74 176.37L433.22 179.91L438.55 183.65L443.73 187.6L448.74 191.73L453.6 196.05L458.28 200.55L462.79 205.22L467.12 210.07L471.26 215.07L475.21 220.24L478.96 225.56L482.51 231.02L485.86 236.63L488.98 242.38L491.89 248.26L494.58 254.26L497.04 260.38L499.26 266.62L501.24 272.97L502.97 279.42L504.45 285.97L505.68 292.61L506.64 299.34L507.33 306.15L507.75 313.04L507.89 320L507.75 326.96L507.33 333.85L506.64 340.66L505.68 347.39L504.45 354.03L502.97 360.58L501.24 367.03L499.26 373.38L497.04 379.62L494.58 385.74L491.89 391.74L488.98 397.62L485.86 403.37L482.51 408.98L478.96 414.44L475.21 419.76L471.26 424.93L467.12 429.93L462.79 434.78L458.28 439.45L453.6 443.95L448.74 448.27L443.73 452.4L438.55 456.35L433.22 460.09L427.74 463.63L422.12 466.97L416.36 470.09L410.48 473L404.46 475.68L398.33 478.13L392.08 480.34L385.72 482.32L379.25 484.05L372.69 485.53L366.03 486.75L359.29 487.71L352.46 488.4L345.56 488.82L338.59 488.96L331.61 488.82L324.71 488.4L317.88 487.71L311.14 486.75L305.88 485.79L305.88 346.47L171.36 346.47L170.53 340.66L169.84 333.85L169.42 326.96L169.28 320L169.42 313.04L169.84 306.15L170.53 299.34L171.49 292.61L172.72 285.97L174.2 279.42L175.93 272.97L177.91 266.62L180.13 260.38L182.59 254.26L185.28 248.26L188.19 242.38L191.32 236.63L194.66 231.02L198.21 225.56L201.96 220.24L205.91 215.07L210.05 210.07L214.38 205.22L218.89 200.55L223.57 196.05L228.43 191.73L233.44 187.6L238.62 183.65L243.95 179.91L249.43 176.37L255.05 173.03L260.81 169.91L266.69 167L272.71 164.32L278.84 161.87L285.09 159.66L291.45 157.68L297.92 155.95L304.48 154.47L311.14 153.25L317.88 152.29L324.71 151.6L331.61 151.18L338.59 151.04L345.56 151.18L352.46 151.6Z" id="aG3VcF3oV"></path><path d="" id="d8PxAdmuw"></path><path d="M255.29 217.02L459.57 217.02L459.57 404.98L255.29 404.98L255.29 217.02Z" id="a9WwdUk8"></path><path d="M402.16 322.63C402.16 358.1 373.67 386.89 338.59 386.89C303.5 386.89 275.01 358.1 275.01 322.63C275.01 287.16 303.5 258.36 338.59 258.36C373.67 258.36 402.16 287.16 402.16 322.63Z" id="b4Vwl6wT0E"></path><path d="M361.93 322.63C361.93 335.78 351.47 346.47 338.59 346.47C325.7 346.47 315.24 335.78 315.24 322.63C315.24 309.47 325.7 298.78 338.59 298.78C351.47 298.78 361.93 309.47 361.93 322.63Z" id="b24DbCiQR"></path><path d="M342.39 322.09C342.39 324.19 340.68 325.89 338.59 325.89C336.49 325.89 334.78 324.19 334.78 322.09C334.78 319.99 336.49 318.29 338.59 318.29C340.68 318.29 342.39 319.99 342.39 322.09Z" id="a3Cg4ZKp1c"></path></defs><g><g><g><use xlink:href="#aG3VcF3oV" opacity="1" fill="#000000" fill-opacity="1"></use></g><g><g><use xlink:href="#d8PxAdmuw" opacity="1" fill-opacity="0" stroke="#000000" stroke-width="1" stroke-opacity="1"></use></g></g><g><use xlink:href="#a9WwdUk8" opacity="1" fill="#000000" fill-opacity="1"></use></g><g><use xlink:href="#b4Vwl6wT0E" opacity="1" fill="#2b2b2b" fill-opacity="1"></use></g><g><use xlink:href="#b24DbCiQR" opacity="1" fill="#1c1c1c" fill-opacity="1"></use></g><g><use xlink:href="#a3Cg4ZKp1c" opacity="1" fill="#ffffff" fill-opacity="1"></use></g></g></g></svg>