<svg width="80px" height="80px" viewBox="0 0 80 80" version="1.1" xmlns="http://www.w3.org/2000/svg" xmlns:xlink="http://www.w3.org/1999/xlink">
    <g id="Page-1" stroke="none" stroke-width="1" fill="none" fill-rule="evenodd">
        <g id="btn-play" fill-rule="nonzero" fill="#333333">
            <path d="M40,80 C17.90861,80 0,62.09139 0,40 C0,17.90861 17.90861,0 40,0 C62.09139,0 80,17.90861 80,40 C80,62.09139 62.09139,80 40,80 Z M27.0110257,56.3609827 C27.0110257,56.5201115 27.0490012,56.6769428 27.1217965,56.8184447 C27.3744458,57.3095524 27.97738,57.5028612 28.4684877,57.2502119 L60.2714879,40.8892292 C60.4569054,40.7938416 60.6078675,40.6428795 60.7032551,40.457462 C60.9559044,39.9663543 60.7625957,39.3634201 60.2714879,39.1107708 L28.4684877,22.7497881 C28.3269857,22.6769927 28.1701545,22.6390173 28.0110257,22.6390173 C27.458741,22.6390173 27.0110257,23.0867325 27.0110257,23.6390173 L27.0110257,56.3609827 Z" id="Combined-Shape"></path>
        </g>
    </g>
</svg>
