<svg width="80px" height="80px" viewBox="0 0 80 80" version="1.1" xmlns="http://www.w3.org/2000/svg" xmlns:xlink="http://www.w3.org/1999/xlink">
    <g id="Page-1" stroke="none" stroke-width="1" fill="none" fill-rule="evenodd">
        <g id="btn-play-copy" fill-rule="nonzero" fill="#333333">
            <path d="M33,33 L21.9435041,33 C21.7350361,33 21.5317801,33.0651512 21.3621587,33.1863431 C20.9127884,33.5074114 20.808779,34.1319752 21.1298473,34.5813454 L39.1916903,59.8608804 C39.2558418,59.9506674 39.3344123,60.0292172 39.4242163,60.093345 C39.8736712,60.4142948 40.4982075,60.3101207 40.8191573,59.8606658 L58.8709355,34.5811309 C58.9920304,34.4115508 59.0571254,34.208378 59.0571254,34 C59.0571254,33.4477153 58.6094102,33 58.0571254,33 L47,33 L47,22 L33,22 L33,33 Z M40,80 C17.90861,80 0,62.09139 0,40 C0,17.90861 17.90861,0 40,0 C62.09139,0 80,17.90861 80,40 C80,62.09139 62.09139,80 40,80 Z" id="Combined-Shape"></path>
        </g>
    </g>
</svg>
